/* XPM */
static char *de363d2658664ff9a4ad6ef77dc9154f[] = {
/* columns rows colors chars-per-pixel */
"64 64 190 2 ",
"   c #1D0F0F",
".  c #131010",
"X  c #191010",
"o  c #2C0E0E",
"O  c #310000",
"+  c #390C0C",
"@  c #2C1F1F",
"#  c #331E1E",
"$  c #391C1C",
"%  c #232121",
"&  c #292020",
"*  c #3C2E2E",
"=  c #333232",
"-  c #393030",
";  c #4F0000",
":  c #450C0C",
">  c #500000",
",  c #5C0A0A",
"<  c #4C1919",
"1  c #431B1B",
"2  c #5C1616",
"3  c #740202",
"4  c #790707",
"5  c #661414",
"6  c #6D1F1F",
"7  c #741111",
"8  c #731D1D",
"9  c #7C1A1A",
"0  c #660909",
"q  c #452C2C",
"w  c #4C2929",
"e  c #532727",
"r  c #5B2424",
"t  c #4B3E3E",
"y  c #553939",
"u  c #593838",
"i  c #642222",
"p  c #6A2020",
"a  c #6D2E2E",
"s  c #762A2A",
"d  c #7B2828",
"f  c #643131",
"g  c #683030",
"h  c #7E3636",
"j  c #763C3C",
"k  c #444444",
"l  c #484040",
"z  c #5C4E4E",
"x  c #555555",
"c  c #585151",
"v  c #634949",
"b  c #6A4444",
"n  c #7D4C4C",
"m  c #6C5D5D",
"M  c #745555",
"N  c #715858",
"B  c #795050",
"V  c #666666",
"C  c #696060",
"Z  c #7C6C6C",
"A  c #7F6767",
"S  c #777777",
"D  c #787272",
"F  c #880A0A",
"G  c #940303",
"H  c #9D0404",
"J  c #980B0B",
"K  c #8C1616",
"L  c #831818",
"P  c #8F1F1F",
"I  c #9A1212",
"U  c #941C1C",
"Y  c #961515",
"T  c #A30909",
"R  c #AA0D0D",
"E  c #AE0707",
"W  c #B50505",
"Q  c #BC0404",
"!  c #B40C0C",
"~  c #BB0B0B",
"^  c #AA1313",
"/  c #A51F1F",
"(  c #A91818",
")  c #B41414",
"_  c #BE1212",
"`  c #BD1D1D",
"'  c #B41E1E",
"]  c #8A2121",
"[  c #8A2E2E",
"{  c #862323",
"}  c #962727",
"|  c #9D2323",
" . c #932929",
".. c #843232",
"X. c #8C3E3E",
"o. c #973535",
"O. c #9A3333",
"+. c #993D3D",
"@. c #A22020",
"#. c #A32A2A",
"$. c #AC2424",
"%. c #B62626",
"&. c #B22A2A",
"*. c #BB2929",
"=. c #A33939",
"-. c #AE3E3E",
";. c #A63737",
":. c #B43636",
">. c #B13A3A",
",. c #BA3E3E",
"<. c #C40606",
"1. c #CC0404",
"2. c #C30909",
"3. c #CC0A0A",
"4. c #D40303",
"5. c #DC0404",
"6. c #D40B0B",
"7. c #DA0B0B",
"8. c #CC1212",
"9. c #C51818",
"0. c #D31414",
"q. c #D71A1A",
"w. c #E40303",
"e. c #EC0202",
"r. c #E10C0C",
"t. c #F40101",
"y. c #F60D0D",
"u. c #F61414",
"i. c #F61A1A",
"p. c #C32323",
"a. c #C42E2E",
"s. c #CD2929",
"d. c #D62323",
"f. c #C63838",
"g. c #F62222",
"h. c #F52929",
"j. c #894141",
"k. c #814949",
"l. c #844646",
"z. c #974747",
"x. c #9C4242",
"c. c #934D4D",
"v. c #8E5353",
"b. c #865D5D",
"n. c #895B5B",
"m. c #9C5C5C",
"M. c #985454",
"N. c #AA4545",
"B. c #A44D4D",
"V. c #A84848",
"C. c #BA4C4C",
"Z. c #A25252",
"A. c #AF5656",
"S. c #BD5151",
"D. c #B05151",
"F. c #826464",
"G. c #996363",
"H. c #936B6B",
"J. c #976565",
"K. c #8E7676",
"L. c #8B7C7C",
"P. c #907272",
"I. c #9F7F7F",
"U. c #A66C6C",
"Y. c #B56A6A",
"T. c #A37474",
"R. c #A17A7A",
"E. c #B37474",
"W. c #C14747",
"Q. c #878686",
"!. c #888282",
"~. c #888888",
"^. c #9E8383",
"/. c #9B8C8C",
"(. c #989494",
"). c #999999",
"_. c #AD8C8C",
"`. c #AC9494",
"'. c #AA9C9C",
"]. c #A9A3A3",
"[. c #AAAAAA",
"{. c #BAA8A8",
"}. c #B9B5B5",
"|. c #BBBBBB",
" X c #CABEBE",
".X c #CCCCCC",
"XX c #CAC4C4",
"oX c #D9CACA",
"OX c #DDDDDD",
"+X c #EEEEEE",
/* pixels */
"S ~.x V S ~.S ).S [.S |.[.).S ~.}.[.~.= ~.).[.|.|.).[.).[.S [.|.|.[.S [.).[.).|.|.[.).~.= ~.[.[.~.S ).[.|.S [.S ).S ~.S V x ~.S ",
"S ~.~.~.S ).~.S ).).S ~.|.~.~.~.).).S k ~.[.|..X.X[.[.[.[.).[.[.[.[.).[.[.[.[..X.X|.[.~.k S ).).~.~.~.|.~.S ).).S ~.).S ~.~.~.S ",
"~.~.~.~.).).~.S [.~.V .X~.S S V S S ~.S V |.[.[.[.).).~..X[.).[.[.).[..X~.).).[.[.[.|.V S ~.S S V S S ~..XV ~.[.S ~.).).~.~.~.~.",
").).V ~.[.[.).~.).S S |.V V S S S S ).S V S S [.).[.~.).[.~.V S S V ~.[.).~.[.).[.S S V S ).S S S S V V |.S S ).~.).[.[.~.V ).).",
"S ).~.~.V [.~.~.S V ~.S ~.[.~.~.~.~.S V V S k V V V ).V V S ~.V V ~.S V V ).V V V k S V V S ~.~.~.~.[.~.S ~.V S ~.~.[.V ~.~.).S ",
").S S ~.x ~.~.S x S S S ).).).~.S x S x S ~.S x x S V ~.V x S S S S x V ~.V S x x S ~.S x S x S ~.).).).S S S x S ~.~.x ~.S S ).",
").~.~.).S S k S S S ~.).).~.V S x S ).S S ).[.~.S ).~.~.~.V V ~.~.V V ~.~.~.).S ~.[.).S S ).S x S V ~.).).~.S S S k S S ).~.~.).",
").V [.V V S V ~.~.).~.).S V ~.x x ~.).~.S V x ).).).[.[.).).~.).).~.).).[.[.).).).x V S ~.).~.V x ~.V S ).~.).~.~.V S V V [.V ).",
"[.).S ).~.~.).V [.[.S V V S ~.V S ~.).).~.~.V V ).[.|.).V ~.S ).).S ~.V ).|.[.).V V ~.~.).).~.S V ~.S V V S [.[.V ).~.~.).S ).[.",
"S [.V S V ).V x [.~.S V S S S ~.~.~.|.[.[.).~.~.).).[.).).).~.S S ~.).).).[.).).~.~.).[.[.|.~.~.~.S S S V S ~.[.x V ).V S V [.S ",
"~.).S S V ).~.S V .XV V V .X~.S ~.).).[.[.).).).S ~.[.~.|.S ~.).).~.S |.~.[.~.S ).).).[.[.).).~.S ~..XV V V OXV S ~.).V S S ).~.",
"S ~.V S S ~.k k S ).~.~.~.V ~.~.~.|.~.|.~.[.).~.S |..X~.~.[.|.~.~.|.[.~.~..X|.S ~.).[.~.|.~.|.~.~.~.V ~.~.~.).S k k ~.S S V ~.S ",
"~.V x V ).~.V S x ~.~.|.~.~.~.~.~.S ).).V [.S x [.[.|.~.|.).~.S S ~.).|.~.|.[.[.x S [.V ).).S ~.~.~.~.~.|.~.~.x S V ~.).V x V ~.",
"~.~.~.x x S x S ~.S ~.~.~.~.~.~.~.S ).|.).|.S ~.~.).[.[.).[.).S S ).[.).[.[.).~.~.S |.).|.).S ~.~.~.~.~.~.~.S ~.S x S x x ~.~.~.",
").).S S S V x S S S S ).~.~.).V S V ~.|..XS [.S [.S ~.+X[.[.S ~.~.S [.[.+X~.S [.S [.S .X|.~.V S V ).~.~.).S S S S x V S S S ).).",
"~.).V S [.~.).~.S V x S S ~.V ~.~.x |.~.).[.).[.).~.).[.[.~.).S S ).~.[.[.).~.).[.).[.).~.|.x ~.~.V ~.S S x V S ~.).~.[.S V ).~.",
"V ).S ~.~.~.).S V V k ).S ).[.~.V x ~..X).[.).~.[.).|.OX|.S V k k V S |.OX|.).[.~.).[.)..XQ.x V ~.[.).S ).k V V S ).~.~.~.S ).V ",
"XXx |..XV ).S ~.~.V = S [.|.|.[.S ~.S |.~.).).[.[.|.[.[.[.~.k k k k ~.[.[.[.|.[.[.).).~.|.S Q.S [.|.|.[.S = V ~.~.S ).V .X|.x |.",
"[.S ).~.~.S V V S ).S k V |.[.[.[.S S ).[.[.~.[.~.).S .X).V % k k % V )..XS ).Q.[.~.[.[.).S S [.[.[.|.V k S ).S V V S ~.~.).S [.",
").).[.).).x x S ~.[.~.[.~.~.~.).[.[.S ~.~.).[.|.|.|.~.}.x k k % % k k x |.~.|.|.|.[.).~.~.S [.[.).~.~.~.[.~.[.~.S x x ).).[.).).",
").[.[.).x ).k ).[.~.[.).[.[.~.[.).~.).[.S [.[.~.Q.Q.Q.V = = = = = = = = V Q.Q.Q.~.[.[.S [.(.Q.).[.~.[.[.).[.~.[.).k ).x ).[.[.).",
"[.OX).~.~.S S ~.~.[.[.).).~.).~.S S Q.[.).[.~.S [.).Q.= . = X = = % = . = Q.).[.S Q.[.).[.Q.S S ~.).~.).).[.[.~.~.S S ~.~.).OX[.",
"[.~.|.).~.S S x x V [.[.[.~.Q.S S x S Q.(.}.].].!.!.Q.& . = @ = = @ = . % !.!.Q.[.[.}.).Q.S x S S ~.~.[.[.[.V x x S S ~.).|.~.[.",
").~.[.S ).[.[.S S S ~.)..X.XQ.Q.Q.D !.(.(.(.!.D /.(.m & - l * * - - t = & m /./.Z S (.(.(.!.D Q.~.~..X.X).~.S S S [.[.).S [.~.).",
").).V V ~.V [.[.~.~.).|.[.[.S !.D D './.L.^.`.N ^.N $ $ q y y y y y y q $ $ N ^.N `./.L./.].D D S S [.[.|.).~.~.[.[.V ~.V V ).).",
"~.[.~.~.).S x .X~.~.~.[.).[.V !.!.D Z A F.H.H.T.n < O + < r f f f f r < + O < n T.H.H.F.F.A Z L.~.V [.).[.~.~.~..Xx S ).~.~.[.~.",
"[.[.~.S S S V V V V ~.S S Q.(.'.m ^.M b.n v.c.j.6 > > 5 , 5 5 6 6 5 5 , 2 ; ; 6 j.c.v.n b.M _.N ).).~.S S ~.V V V V S S S ~.[.[.",
"~.~.~.).V ).x x k ~.).).}.(.m A A b.G.M.X.x.o.P 4 3 3 K K K F U U F K K K 3 3 4 ] o.x.X.m.G.b.A Z V ).|.).).~.k x x ).V ).~.~.~.",
"~.S S ~.).S S S ~.V S x ).Q.Z z b.j z.V.;.@./ G G H H T R T T R R T T R T H H G G @.| =.B.c.j b.z Z !.).x S V ~.S S S ).~.S S ~.",
"V [.~.).).~.k x ).S V ~.S '.m H.G.M.N.:.*.) ! W W Q <.<.<.Q Q 2.<.Q Q <.Q 2.Q W W ! ( *.>.V.Z.J.P.m '.D ~.V S ).x k ~.).).~.[.V ",
"~.S S [.[.[.V ).).).[.~.D /.K.b.c.A.:.a.d.0.4.4.5.5.5.5.5.w.5.w.5.w.5.5.5.5.5.5.4.3.0.d.s.>.A.v.b.L./.S ~.[.).).).V [.[.[.S S ~.",
"x S ).S .XS V ~.+X[.).~.D Z A G...W.a.q.w.e.e.t.e.t.e.e.e.e.e.e.e.e.t.e.e.e.e.e.e.e.w.r.q.a.S.h J.A Z D ~.).[.+X~.V S .XS ).S x ",
"S ~.x ).~.V x ~.~.).).Q.(.m P.k.d C.d.r.e.t.t.t.t.t.t.t.t.t.t.t.t.t.t.t.t.t.t.t.t.t.t.e.7.a.S.s n P.C ).Q.).).Q.Q.x V ~.).x ~.S ",
"S ~.~.V S x ~.~.[.Q.Q.!.Z /.H.l.o.| 9.7.w.t.t.t.t.t.t.y.y.y.u.y.y.y.u.y.y.t.t.t.t.t.t.e.8.*.| j.n P./.D Q.Q.Q.[.~.~.x S V ~.~.S ",
"V S ~.).x S ~.~.).).).S c Z _.G.B.U p.3.w.e.t.t.t.y.u.u.u.u.i.i.i.i.i.u.u.y.y.t.t.t.t.4.9.*.] M.J.`.Z c S ).).).~.~.S x ).~.S V ",
"~.S ).~.~.~.[.~.).[.Q.D k z P.U.Y.-.' <.5.w.t.t.t.u.u.i.i.i.g.g.g.i.i.i.u.u.y.t.t.t.w.1.! $.V.E.T.L.z k S Q.[.).~.[.~.~.~.).S ~.",
").~.[.~.S V [.).).V ).Q.c '.N T.Y.=.Y ! 1.5.e.t.t.u.u.i.g.g.g.g.g.g.g.g.i.u.y.t.t.e.4.<.R U x.E.I.m ].x Q.).V ).).[.V S ~.[.~.).",
").).).~.S x [.).[.).V V k D {.H.U.[ Y T 2.4.e.e.t.u.i.i.g.g.h.h.h.h.g.i.i.u.y.t.t.w.1.! J L h T.P.{.Z k V V ).[.).[.x S ~.).).).",
").~.[.[.).k S ~.[.[.).C C C !.P.T.s L I ! 1.5.e.t.y.u.i.g.h.h.h.h.h.g.g.i.u.t.t.e.4.~ ^ K 9 a R.K.L.C V V ).[.[.~.S k ).[.[.~.).",
"[.S V ).[.).V ~.).~.[.[.S Q./.F.b a 8 U T 2.4.w.y.t.y.i.g.g.h.h.h.g.g.i.y.t.t.t.5.3.! J { p f v Z (.Q.S [.[.Q.).~.V ).[.).V S [.",
"S ~.V ).[.~.[.[.).x S [.).D !.v w r 6 9 F E <.4.e.e.y.u.i.g.g.h.h.g.i.u.y.t.e.w.1.W J 4 6 r w q z Q.S ).[.S x ).[.[.~.[.).V ~.S ",
"~.).[.S S ~.S ~.[.S ).~.S S S - $ 1 i 8 4 H Q 1.5.e.t.y.i.i.g.g.g.i.i.u.t.t.w.4.W R F 0 i r $ @ = S S S ~.).S [.~.S ~.S S [.).~.",
"V ).~.S x V S ).).[.~.).S V k .   q + 2 7 F R 3.5.e.t.y.u.i.i.g.i.i.u.t.t.e.5.Q ! I 7 5 < o * X . k V S ).~.[.).).S V x S ~.).V ",
").~.S S V V [.[.).[.~.).V V X .   @ 1 : , 4 ^ _ 1.5.e.t.y.u.i.i.i.u.y.t.t.5.1.! ( P , : o $ @ . . % V V ).~.[.).[.[.V V S S ~.).",
"S S S ~.~.[.[.|..X).).).S k % . & X o r i 7 @.` <.4.e.t.t.u.u.u.u.y.t.t.w.6.Q R #.[ 2 e q   . % . % k S ).).)..X|.[.[.~.~.S S S ",
"S ).).S ~.|..X|..X~.|.).V = % % & X @ u g s } %._ 4.w.e.t.t.y.u.y.t.t.e.w.2.E @.=.h f y t & . % % % = V ).|.~..X|..X|.~.S ).).S ",
"V [.~.).V ~.).[.~.).~.V k % = % % & * y r i [ @.) 2.4.e.t.t.t.t.t.t.t.e.6.W ^ | ..j w q t = & % % = % k V ~.).~.[.).~.V ).~.[.V ",
"~.[.~.S V ~.~.~.~.).S x % % k k k % = # o < 6 } $._ 1.5.e.t.t.t.t.t.t.e.2.E @.o.h e $ X & = % k k k % % x S ).~.~.~.~.V S ~.[.~.",
"V ).~.).S V S [.S ~.[.k . . = = % . % & & < i p | ^ W 1.5.e.t.t.t.t.e.4.W J P ..r q @ % % % . % = = . . k [.~.S [.S V S ).~.).V ",
"~.).~.~.~.V ).~.~.~.V V % k % S x X = - q u f ..{ Y ^ 2.4.w.e.t.t.e.5.~ R K 8 s j t t = = = % x S % k % V V ~.~.~.).V ~.~.~.).~.",
"S S ).V S ~.S V S V ).~.k S V ~.V c V V c l P.M.z.O./ ` 6.7.w.e.t.w.8.` *.[ X.n.A L.k x V V x V ~.V S k ~.).V S V S ~.S V ).S S ",
"~.~.~.V S S ~.V ~.S x V x V V V V V V x c F.v H.m.B.} W.%.d.6.r.5.8.s.*.S...n.J.K.z S x x V V V V V V x V x S ~.V ~.S S V ~.~.~.",
"S ).S S ).~.[.x ).x S ~.V ).).).~.~.S Q.C m Z _.T.l.B.N.,.*.p.9.p.*.:.C.B.m.n _.`.D V V ~.S ~.~.).).).V ~.S x ).x [.~.).S S ).S ",
"S x ).[.).S S S ~.V V S x S S ~.[.).~.Q.V D D `.I.b.v.X.+.=.>.#.#.N.+.z.l.n.F./.].D D V ~.~.).[.~.S S x S V V ~.S S S ).[.).x S ",
"x V ~.[.~.+X).).S ).~.V S S ~.).).~.[.Q.S S XX'.oXF.n G.c.Z.Z.B.Z.Z.m.v.H.M Z .X].XXS S ~.[.~.).).~.S S V ~.).S ).).+X~.[.~.V x ",
"S x S |.~.~.).S ~.S V S ~.S S S S ~.~.Q.S Q.Q.}. XK.K._.b.T.G.U.U.J.T.b.`.L.L.XX}.Q.Q.S ~.~.~.S S S S ~.S V S ~.S ).~.~.|.S x S ",
"V ~.).S S ~.~.S S ~.V S V S x x S ~.~.~.~.~.~.[.!.L.'.'.^.P.I.R.^.^.K./.'.'.!.!.[.~.~.~.~.~.~.S x x S V S V ~.S S ~.~.S S ).~.V ",
"~.V S ~.S ~.V x x V ~.).x [.V S V S S ~.).[.|.).).(.]././.'.L././.L.'././.[.).).).|.[.).~.S S V S V [.x ).~.V x x V ~.S ~.S V ~.",
"S ~.~.S ).S V V S V ).).~.S V V x S x S S S ).).).).S ].).!.}.).(.}.!.(.[.S ).(.).).S S S x S x V V S ~.).).V S V V S ).S ~.~.S ",
"~.~.).).).~.S V ).V S ).~.V S V k ).k V ~.S ~.[.).Q.V Q.).Q.[.[.[.[.Q.).Q.V Q.).[.~.S ~.V k ).k V S V ~.).S V ).V S ~.).).).~.~.",
"S S ~.~.).).).S [.V V ~.V x ~.V V S V V [.[.|.|.[.Q.S Q.).[.).~.~.).[.).Q.S Q.[.|.|.[.[.V V S V V ~.x V ~.V V [.S ).).).~.~.S S ",
"S ~.S S ~.S [.S ~.S S ~.).V V S ).~.V S ).~.[.).[.[.).).~.OX~.).).~.OX~.).).[.[.).[.~.).S V ~.).S V x ).~.S S ~.S [.S ~.S S ~.S ",
"S ~.~.~.~.~.).).S V [.~.~.~.S ~.~.).S x S [.|.).[.).}.[.~.V ~.~.~.~.V ~.[.|.).[.).|.[.S x S ).~.~.S ~.~.~.[.V S ).).~.~.~.~.~.S ",
"V ~.S ~.V ~.~.~.V x ).S ~.S S ~.[.~.x S S |.).).~.[.|.).~.|.).).).).|.~.).}.[.Q.).).|.S Q.x ~.[.~.S S ~.S ).x V ~.~.~.V ~.S ~.V "
};