/* XPM */
static char *_d2ece08e3014241d1a83b20bf448f20[] = {
/* columns rows colors chars-per-pixel */
"64 64 247 2 ",
"   c #060402",
".  c #090500",
"X  c #0A0902",
"o  c #0F0E0A",
"O  c #120D07",
"+  c #150E09",
"@  c #191507",
"#  c #15120B",
"$  c #1B150C",
"%  c #1B1A14",
"&  c #221C0B",
"*  c #24180D",
"=  c #241D14",
"-  c #2A2607",
";  c #322B05",
":  c #393407",
">  c #39340A",
",  c #2B2516",
"<  c #2A2319",
"1  c #332717",
"2  c #302A1F",
"3  c #3C3517",
"4  c #2E2B24",
"5  c #312B20",
"6  c #3B2D22",
"7  c #383126",
"8  c #393627",
"9  c #463B07",
"0  c #433C0B",
"q  c #493613",
"w  c #433A16",
"e  c #463724",
"r  c #40392F",
"t  c #453E34",
"y  c #484304",
"u  c #4C440C",
"i  c #53460A",
"p  c #554B0C",
"a  c #5B4D0C",
"s  c #5B550A",
"d  c #4C4517",
"f  c #564B14",
"g  c #5A5416",
"h  c #61530C",
"j  c #635C0A",
"k  c #6B5C0C",
"l  c #635714",
"z  c #6B5B13",
"x  c #725C15",
"c  c #64620A",
"v  c #6B640B",
"b  c #6B6808",
"n  c #756A08",
"m  c #746B0C",
"M  c #7C7806",
"N  c #75730B",
"B  c #7B730B",
"V  c #6B6615",
"C  c #746414",
"Z  c #7C6B13",
"A  c #766818",
"S  c #7C6A18",
"D  c #7A7415",
"F  c #4A4428",
"G  c #534C28",
"H  c #5C5722",
"J  c #484438",
"K  c #544C3A",
"L  c #595438",
"P  c #66542A",
"I  c #635A38",
"U  c #6A6429",
"Y  c #777229",
"T  c #726A35",
"R  c #4D4940",
"E  c #595547",
"W  c #555048",
"Q  c #645C48",
"!  c #625A50",
"~  c #67634A",
"^  c #7B7348",
"/  c #6C6854",
"(  c #756B57",
")  c #747259",
"_  c #7A745D",
"`  c #7B7663",
"'  c #85770A",
"]  c #837B0A",
"[  c #917C0D",
"{  c #826D15",
"}  c #836C19",
"|  c #847315",
" . c #867717",
".. c #847B12",
"X. c #8A7C14",
"o. c #867219",
"O. c #8B751A",
"+. c #8C7B1A",
"@. c #917C14",
"#. c #937C1D",
"$. c #887B24",
"%. c #8A7833",
"&. c #8F7944",
"*. c #83785B",
"=. c #837C63",
"-. c #847B69",
";. c #8A8405",
":. c #85820D",
">. c #8A850C",
",. c #8D8B0D",
"<. c #968908",
"1. c #928C0D",
"2. c #94930E",
"3. c #9C960D",
"4. c #8C8215",
"5. c #8D8C10",
"6. c #87831D",
"7. c #938B12",
"8. c #958A16",
"9. c #95831C",
"0. c #9A851D",
"q. c #9C8C1B",
"w. c #949411",
"e. c #9C9512",
"r. c #9D9B12",
"t. c #9D971B",
"y. c #A2990D",
"u. c #A69716",
"i. c #A39C13",
"p. c #A3941D",
"a. c #A99218",
"s. c #A39C1C",
"d. c #AB9B1D",
"f. c #A4A20E",
"g. c #B9B20E",
"h. c #A5A313",
"j. c #AAA415",
"k. c #ADAB14",
"l. c #A5A31C",
"z. c #ACA51A",
"x. c #ADAB1A",
"c. c #B3AD15",
"v. c #B2A51D",
"b. c #B3AC1B",
"n. c #B8AB19",
"m. c #B4B216",
"M. c #BAB416",
"N. c #BABA17",
"B. c #B5B21B",
"V. c #BAB21C",
"C. c #BDBC1A",
"Z. c #8A8528",
"A. c #9C8421",
"S. c #968924",
"D. c #9A9425",
"F. c #89853D",
"G. c #908D3B",
"H. c #999739",
"J. c #A48B22",
"K. c #A68C22",
"L. c #AB9323",
"P. c #A79923",
"I. c #B39A27",
"U. c #A99D36",
"Y. c #ACA422",
"T. c #ABA727",
"R. c #B6A726",
"E. c #BBAC22",
"W. c #BCB422",
"Q. c #B8B527",
"!. c #BDBB23",
"~. c #B8AA34",
"^. c #B4B13B",
"/. c #C3B50F",
"(. c #C3B617",
"). c #C2BD1B",
"_. c #C4BC23",
"`. c #C7B826",
"'. c #CAB233",
"]. c #C7B934",
"[. c #C4C21B",
"{. c #CCC91C",
"}. c #D3C91C",
"|. c #D8D71D",
" X c #E2DA1F",
".X c #ECE81F",
"XX c #CAC423",
"oX c #CAC728",
"OX c #D5C929",
"+X c #DAD725",
"@X c #CAC736",
"#X c #D7C735",
"$X c #D9D638",
"%X c #E3DB29",
"&X c #E2CF3C",
"*X c #E0DB32",
"=X c #EAE927",
"-X c #F2EC24",
";X c #F7F527",
":X c #EBE53A",
">X c #F2EC38",
",X c #938C51",
"<X c #A38249",
"1X c #ABAB4F",
"2X c #B9B748",
"3X c #89846B",
"4X c #8A846B",
"5X c #978468",
"6X c #8E8772",
"7X c #938C73",
"8X c #968E7B",
"9X c #98957A",
"0X c #9B947C",
"qX c #A4987E",
"wX c #B1AE6C",
"eX c #C3BC42",
"rX c #C9C445",
"tX c #D9D747",
"yX c #C9C554",
"uX c #D7D554",
"iX c #E2D142",
"pX c #E8E749",
"aX c #F4F14A",
"sX c #E7E659",
"dX c #D7D565",
"fX c #CCCA70",
"gX c #DCD679",
"hX c #E3DF6C",
"jX c #E6E469",
"kX c #948D81",
"lX c #9D9883",
"zX c #A49C84",
"xX c #A69D89",
"cX c #A9A288",
"vX c #B1A88A",
"bX c #B2AC8F",
"nX c #B3AB93",
"mX c #B6AA95",
"MX c #BAB295",
"NX c #BBB29A",
"BX c #BCB4A1",
"VX c #C1BB87",
"CX c #C0B89D",
"ZX c #C4BBA3",
"AX c #C5BBA7",
"SX c #CFC88A",
"DX c #CBC2A0",
/* pixels */
"7 2 2 7 W t 8 = * $ % $ < 5 = 5 = $ $ $ = % = = < 2 < 5 2 2 S.;X;XP.t 8 t 8 J t 7 8 t t 8 5 2 < < 2 7 r 5 = < 7 5 < $ = * +   5 ",
"O $ $ $ 2 5 = % $ O + o O   . . O       . .   O $ = 5 5 8 Z.XX-X{.x.D X O = + O $ 2 < $ $ + O       .   $ $ +     O     .     $ ",
"  O       O = 5 O = < 5 = $ $ + $ O $ $ < < $ = 2 = $ 1 g }..X}.i.C.oX,XQ W W t 2 8 r 2 4 $ t t W W $ = < W W 8 r W W W 8 W r W ",
"7 < = 2 2 2 < < 5 6 8 8 5 7 7 = < = < 5 W W t 2 t t 4 D %X-X).1.!.W.V.+XG.W W < 2 2 < < 5 < = < + = $ = 7 7 = = = % 7 W 7 5 5 W ",
"W 7 $ < 7 7 < $ % = < = 5 7 r = O < < < E 8 J 2 O 7 6._.-X[.i.1.Q.b.x.[.Q.H.t 6 4 5 2 2 7 r 4 $ $ % $ 2 = r J *   $ O $ = $ $ W ",
"W 5 O = < 7 t $ $ O $ = < = < .   < $ $ W 2 4   @ Y XX=XOXr.7.8.7.s.T.i.{.oXY E 8 7 r r 5 5     2 2 = 5 = 2 7     $ $ $ < 5 % r ",
"W = O O $ = 5 $ O O O $ % = +   2 < = < W 4 o   D -X-X{.5.5.4.C s X.Y.z.j.N.-X,XE W W W W $   7 r r = r < W O   = = $ $ = 7 = W ",
"= O O O $ $ $ $ O O O $ $ = = 5 7 2 < 5 W 8 < 6.Q.k.k.h.2...S S J.J.q.Y.z.x.N.!.<XW W W r 8 8 W r r = 2 2 7 < 2 = = = $ O = = W ",
"O O O O $ $ O O + O O $ O * $ = , < < < 8 F Y m.N.5.,.:.Z C } #.I.I.9.8.l.x.i.[._.F.~ 8 W W 8 t r 7 = 5 r r 7 r < < 5 % = < * W ",
"O O O = = 5 7 $ $ . $ = O O + % 5 $ < 4 J Y -Xk.5.,.7.m 9 f } L.I.a.0.z 6.z.i.i.C.-XY E W W 7 7 r 5 = 5 r W W W W 7 < $ = < * W ",
"O O $ 5 7 t r $ $ $ 5 5 $ $ $ = < $ < , D.!.f.2.w.l.V i i { #.A.U.S.A z A +.z.h.j.m.!.H.W t 5 < 5 < = = r W W W t 6 5 $ < W 2 W ",
"% $ = 7 8 t W 2 = = r t = < = $ # $ 3 V T.N.,.r.t.D p 0 h } #.S.~.S.l A A } w.x.T.e.XXQ.G.F < 5 5 5 = 7 W W W W = < = % < 2 < W ",
"O O O = r t W r % $ 5 t 5 < $ $ $ 1 g |.m.5.,.R.D.u y f S x o.S.rXS.l } O.O.{ ~.oXe.i.C.%XY 3 8 r t = 7 r W W W r r 5 $ < 7 < W ",
"$ O O = r t t 2 $ $ 5 5 < * $ $ % D [.k.w.,.2...Z.U.A l S S O.S.I.S.x A %.K.I.'.Q.z.h.j.M.oXZ.8 r r = < r 5 < 5 5 = = = % = = W ",
"% = * 7 W t t < = % < 5 = = $ , m l.m.w.5.:.j j Z.$X$.C Z { #.d.Y.4.C Z #.I.'.].@XY.l.i.h.[.x.Z.F 5 % = r r 5 5 = = 7 = = % *   ",
"= < = r W W t < $ * = = O # - a XXM.,.5.5.N ; i q.:Xe.Z { o.q.n.n.7.Z O.J.I.`.%X$XR.l.h.i.i.C.oXl e $ = r = < = = t t r 2 = $ O ",
"7 = = < r W W r O $ $ $ $ O v {.!.h.,.w.D h 9 k e.OXy.{ { } <.y./.i.X.#.0.I.|.=X$X$XY.t.j.e.y.k.OXD # # O # O < t t W 7 < 2 2 2 ",
"5 = < < < W W 7 # $ $ O & D l.C.x.l.w.B z z Z { >.f.<.8.I.R.d.<.y.d.P.J.a.d./.[.oXtXP.X...e.j.Q.[.Q.Y - < < = W W r W W W W W 2 ",
"= = * = = 5 7 < @ O o - p N.N.t.Q.T.D.C x } L.a.7.;.:.l.*X*X`.<.' i.Q.'.`.n.<.3.m.tXJ.x s 7.b.!.l.XX[.Y J 8 4 8 = 2 r W < 2 2   ",
"< 5 = = = = = % o o o c |.h.2.w.@XU.+.$.J.I.n.*XoX,.r.oXaXaXOXi.1.;.l.pX&X`.b b ..Y.O.z a C D.oXl.h.m.%XZ.2 < < < = = = $ < < $ ",
"r 7 7 7 5 7 5 = o # N h.m.w.1.2.P.n.E.L.'.#XOX>XoXN V 6.T.A.%.} s c M Q.D.6.,.T.rXuX~.S.C e._.oXx.i.h.C.Q.H.W W W t 5 $ < 8 5 < ",
"t r r r 7 5 < + - s B.C.2.7.>.X.| v.}.`.OX*X*X#XT.V 0 g Z.U I t d g U Z.g g D.^.tXaXtX~.d.[._.Y.e.e.r.r.[.oXF.I 2 = = $ = 2 < 5 ",
"W W W 7 8 8 5 = V =XB.r.r.2.Z f { a.M.%XoX!.!.b d Q w L 0X6X! W ~ _ 4X7XL G ~ U G.aX*X*X>X Xy.s z 4.h.r.i.M.=X,X8 5 5 $ < W 5 7 ",
"W W W W W W W S.Q.m.r.s.T.Y.+.C { a.M.r.r.6.V T / _ 3X6X3X5X*.K *.qXvX-.4X4X-._ &.Z.T.W._.j.1.Z C ' 7.z.j.c.XX!.H.7 < $ < 5 < 5 ",
"W W W W W ~ F.!.N.,.5.r.Y.T.P.q.d.v.y.n m V J / 3X3XcXqX&.&.&.&.5XMXmX*.-.xXzX8X*.I Z.w.y.,.t.T.8.X.4.T.R.b.h.{.W.V 8 , % < = 7 ",
"W W W W W F..Xk.,.,.5.5.X.z.W.)..Xc.n k f J ) 3X3X7X9X5X&.&.&.&.qXCXmXQ ! -.mXxX7X4XL U ;.;.B.=X`.d.p.z.Q.C.r.r.C.=XV @ @ < < 2 ",
"W W W W H.!.k.r.w.w.s g C 8.g.}.k.;.n g L ~ / ` 6XcX*.Q P &.&.P I *.( 6 6 K zXzX7X*.) I H N >.j.}.(.z.Y.t.8.i.i.C.;XXXD $ 7 < < ",
"W W I ,XQ.N.2.r.,.m u p x ' y.g.;.n l L ~ / ) 3XqXxX*.e 1 &.P e e e e * * e *.-.9X3X` / Q U n M /.M.h.p.+.| 8.y.B.+X=X!.V F < $ ",
"W E F.+Xm.2.r.2.N > l x A +.[ n M p r ! / _ 3XcXmXzX/ e * q e q 1 * $ * * < K -.cX9X-.` ) E H b ;.<.<.#.o.{ Z 8.h.h.+X;X=Xg , , ",
"7 Z.oXh.r.w.r.b s z x S #.| n n 0 F Q _ _ =.0XMXAXCXI * * = - $ + + + + O 4 -.xXcXxX6X` ) ) I H s b m  .O.O.Z B :.h.k.{.;XOXZ.8 ",
"D l.[.i.r.2.:.z l S S +.K.[ k 9 1 W ) =.-.7XvXZXNXzXr @ * & @ O O   O     = ( kXvXcX9X3X_ ) / L 0 y a Z } o.| k v X.r.B.{.=X@XU.",
"(.j.r.j.f.w.V D o.S  .A.L.a.k - F ! _ ` 7XzXmXZXxX/ = O O @ O O . O O     + 1 -.mXcXcX9X=.) ) ~ e 0 p x x {  .z h s w.h.h.|.=X=X",
"] ] 1.B.R.z.t.s.0.} #.J.K.d.u.Z.~ ! / ` 6XlXlXbXlX~ = X O o X X . . X X     % 6XZXNXlX6X=.=.) ~ U Z.w.V x x l x x Z 2.i.u.c.C.[.",
"u k ;.e.h.W.!.R.d.0.#.#.0.a.W.@XG./ ) ` 6X9XxXNXnX8X6 O X X X X X . . .   % E 8XNXBXcX6X=.*.) ~ ^.@XoX,.C l h Z 4.e.i.i.r.>.D A ",
"< d Z ] w.x._.W.R.d.q.@.#.a.OXpX2X,X` 3X6X9XbXZXZXvXr O X X     . .       4 ` lXbXZXcX9X3X_ ) ^ tX>X*Xr.C h z ..r.m.h.3.;.c 3 , ",
"< 8 d B ] 1.k._.`.v.I.J.} n._.OXsXwX=.3X7XlXbXZXmX` 8 +   X     . .       o 7 kXZXNXvXcX7X) *.1X2X$X@X..z z  .i.B.m.h.:.c 3 5 5 ",
"2 < 1 u V ] 1.x.V._.v.d.4.8.I.$XsXfXwX3X9X9XlXbXnX6X8 o                   # R lXZXbXbXlX9X,XH.1XtX].q.{  .8.l.k.x.h.:.j 3 , 2 < ",
"< = < < y m ] i.m._.W.v.u...J.].uXdXdXwX9X9XlXbXmXxXJ #                   4 ` mXZXbXcXzX9XwX2X2X@XD.m X.p.z.k.k.h.5.j > & < < = ",
"# $ $ $ O ; M r.k.B._.W.u.p.X.' @XuXdXsXwXcXnXBXBXmX` 7                 % W BXAXZXZXbXbXuXyXtX$XD j m R.n.k.r.r.:.j w , = $ < 2 ",
"$ $ O % @ @ : m r.x.V.V.(.d.p.0.8.T.@XsXuXfXcXBXBXBXlX! # X             J -.AXAXZXMXfXyXdXtXT.v s m e.n.k.h.r.:.c 3 , $ $ # < 2 ",
"$ $ $ 2 < + O 0 m r.j.B.).E.R.d.9.q.I.@XsXsXwXVXNXBXMX5XJ % X X # o o 5 *.vXAXDXSXgXsXtX].T.V : s 4.v.c.f.2.,.c > $ $ $ $ $ < = ",
"O $ = 2 2 $ O $ : ] r.z.B.C._.E.`.P.O.<.@XpXpXdXSXNXSXMX9XJ % o 8 < < ( wXSXAXSXjXaXaXOX,.9 - y ..i.c.i.r.:.c 3 $ = = = < $ < $ ",
"O $ < 2 2 = $ $ & > n 3.z.c.V.(.`.`.(.K...D.tX2X2XhXgXgXhXyX1X,XL ^ 2XuXfXgXjXeX@X:Xl.N u - y D h.j.h.i.:.c 3 1 < < = < < $ = = ",
"O = < < < 2 < < < < u Z e.h.x.B.`.OXOXI.+.S P.6.6.^.1XyXsXsXsXuXH.^.tX:XrX2X2Xl.w.w.m h h p m i.m.j.3.,.c : $ $ $ $ = 2 < = $ $ ",
"O < 5 < 2 2 5 < $ $ $ w B r.l.x.n.}.%X&X~.$.a 9 y 9 B P.^.$X$X$X$XoX!.!.s.N y N N ; i S q.e.j.N.h.i.1.c : $ + $ $ = < 2 < = $ @ ",
"O $ $ = 5 = = = % = < 3 w B 2.l.j.(.).OXR.K.#.} l 9 l A A c c V V c s i s a ; u g s 9.p.d.b.k.k.f.,.j ; $ O O $ = = < < < = % $ ",
"O = $ * = = = = < t 8 t 8 l D w.f.j.m._.`.L.#.#.S f A S A z z l p a s i a p u f V +.p.v.n.m.k.r.,.j : @ $ O # O $ $ = = * $ $ $ ",
"O = % $ $ * O O = t 7 7 5 8 g N 2.f.j.n.n.R.J.#.#.#.A.J.A.#.#.O.g Z +.X.V V S { #.d.R.n.M.j.f.2.b : O $ $ O O $ $ @ = = $ = $ $ ",
"O $ $ $ $ $ # O = 5 = 5 $ $ , > n 2.h.j.M.V.E.K.L.'.U.L.L.K.A.#.#.#.#.#.+.| | q.P.Y.M.M.j.f.,.c - & @ $ $ $ 2 = O O $ $ $ < < = ",
"$ # @ = $ $ < < < < < 2 $ = = * : b 3.j.b.n.(.E.~.'.'.'.I.K.K.K.J.A.0.S.#.#.0.P.n.M.n.k.y.>.c > @ $ $ $ $ $ < $ O $ $ % $ $ = O ",
"$ = = < $ = < = $ = $ = $ $ $ @ O 9 B e.i.v.M.`.'.iXiXrX'.L.L.L.K.J.#.#.#.9.P.v.V.(.k.3.<.c 0 $ @ * $ $ $ $ + O O $ = = $ $ $ O ",
"O = < < * = = $ $ $ O + O $ $ O $ $ ; B y.z.z.M.#XiXiX'.'.I.L.K.J.#.#. .9.p.P.c.m.i.h.1.n ; , $ O $ % $ # $ * O $ O $ * $ + $ O ",
"$ = < $ O O $ + $ O       O O O @ O & 0 m e.l.c.`.&X&X'.'.L.K.J.A.#.O.#.q.P.n.j.r.w.>.v w & = $ $ $ $ $ $ $ % $ $ = $ $ + O $ $ ",
"$ < = $ O O $ % O O O O $ O O O + + $ $ u Z y.j.(.`.&X#XU.J.#.#.#.O.#.S.p.v.n.r.>.:.v d 5 + 2 = % $ $ + $ $ $ @ $ = = $ $ $ $ $ ",
"$ = $ $ + $ $ $ $ $ $ O $ O $ = $ $ < = < G ] e.d.j.`.XXR.#.{ } { +.9.q.n.n.7.5.:.n 3 r < * = < $ $ $ $ O $ + O O $ $ $ O O O O ",
"= = $ $ $ O O O O $ O O O O # $ $ $ 2 = = F I o.e.v.).`.`.L.#.Z o.+.8.n.j.i.1.] j ; @ O O O % % O O O O O O O O O O $ O O $ $ O ",
"$ $ O O O $ O O # $ O   O + $ $ O = 5 < < r W U  .i.V._.XXV.p.+.+.q.i.n.3.:.:.s :       .       O O O         O O O O O O O O $ ",
"O O O O O O O O O O $ O $ $ = < = < 7 7 5 W W W G ] e.n.XXXXW.Y.8.u.N.w.] N b ;   .   . .               .       O . .   O O O $ ",
"$ + O O $ + = $ + $ O $ < = = = = 5 7 7 7 W W r F 3 D y.m.XXoX_.V.z.e.] M s - O   . $ O     + O . . O O + $ O O O O O     O O # ",
"O O O O .   O O $ O O $ O $ $ $ O O % $ $ $ 7 = O O u m e.B.W.V.n.r.:.N s : X X   + $ $ . $ = < = % < < = = $ # . O   .     O % ",
"O   . .   O O   O O O O O O O $ O O O       $ < 7 O 7 0 B r.h.i.,.M N b - X % o   O =     O O = < * 2 + $ O . O       O O O $ % ",
"O O O   O O     O O $ O $ $ O $ O $ O   $ = 2 7 W 7 7 & > D l.V.,.M c - @ @ 8 @   O       O   O % O O O $ $ $ $ $ * $ $ * $ = $ ",
"$ O $ % O O O O + $ $ # $ + $ < = $ $ O 2 r W W W W 8 7 E U D ,.M b u = o < t 2 O $ O # O     $ 5 + $ O $ $ $ = $ $ = $ $ O $ = ",
"O $ = = $ O O O O O O $ $ $ = < = $ = $ 5 8 7 W W 7 W E 8 W G y N d $ # , , , 5 % O = 6 * $ O $ 5 7 7 2 2 7 5 5 = 7 = = $ O + = "
};