/* XPM */
static char *_4645601e49346b4ab2014d665007a7f[] = {
/* columns rows colors chars-per-pixel */
"64 64 137 2 ",
"   c #0E0D0B",
".  c #120604",
"X  c #140A06",
"o  c #1B0B06",
"O  c #130D0B",
"+  c #1B0E0A",
"@  c #14110E",
"#  c #1B120D",
"$  c #161411",
"%  c #1C1512",
"&  c #1D1A14",
"*  c #1F1B18",
"=  c #210D0A",
"-  c #23140D",
";  c #2A150E",
":  c #26190F",
">  c #2A180F",
",  c #231611",
"<  c #291611",
"1  c #231A14",
"2  c #2B1C14",
"3  c #241D19",
"4  c #2B1E19",
"5  c #311D15",
"6  c #311F18",
"7  c #391F19",
"8  c #232017",
"9  c #2E2017",
"0  c #25211A",
"q  c #2C221B",
"w  c #2E281E",
"e  c #332117",
"r  c #33231C",
"t  c #3A251C",
"y  c #34281E",
"u  c #3B291E",
"i  c #2D2620",
"p  c #2E2922",
"a  c #342620",
"s  c #392621",
"d  c #342A23",
"f  c #3B2C23",
"g  c #342E28",
"h  c #3B2F29",
"j  c #3E3126",
"k  c #37312A",
"l  c #3D322A",
"z  c #3E3730",
"x  c #41291F",
"c  c #432D24",
"v  c #482C26",
"b  c #422F29",
"n  c #433126",
"m  c #493127",
"M  c #43342B",
"N  c #4B352C",
"B  c #45382E",
"V  c #4B3A2E",
"C  c #52362F",
"Z  c #533A2E",
"A  c #443630",
"S  c #4A3730",
"D  c #453B32",
"F  c #4C3C33",
"G  c #473F39",
"H  c #4B3F39",
"J  c #523D33",
"K  c #593E35",
"L  c #464135",
"P  c #4D4136",
"I  c #4E433A",
"U  c #4F4A3B",
"Y  c #534135",
"T  c #594336",
"R  c #53453B",
"E  c #5B463B",
"W  c #55493D",
"Q  c #5B4A3E",
"!  c #60463A",
"~  c #614B3E",
"^  c #6A4D3F",
"/  c #554740",
"(  c #554B42",
")  c #5B4D42",
"_  c #594F48",
"`  c #5D5145",
"'  c #5D524A",
"]  c #5E584D",
"[  c #624E42",
"{  c #684F42",
"}  c #635245",
"|  c #695246",
" . c #635847",
".. c #63554A",
"X. c #6A564A",
"o. c #64594D",
"O. c #6A5A4E",
"+. c #71564B",
"@. c #725B4E",
"#. c #665B51",
"$. c #6C5D52",
"%. c #735D52",
"&. c #795E52",
"*. c #6C604F",
"=. c #6D6254",
"-. c #6E6459",
";. c #726355",
":. c #7B6355",
">. c #74665A",
",. c #7B665A",
"<. c #756A5C",
"1. c #7A6B5D",
"2. c #75705E",
"3. c #766D61",
"4. c #7B6D62",
"5. c #7D7264",
"6. c #7E7569",
"7. c #80665A",
"8. c #846B5C",
"9. c #896E5C",
"0. c #826E62",
"q. c #827465",
"w. c #8C7262",
"e. c #837867",
"r. c #837669",
"t. c #897569",
"y. c #847A6B",
"u. c #8A7A6B",
"i. c #907362",
"p. c #857C71",
"a. c #8C7E71",
"s. c #927E71",
"d. c #8B8274",
"f. c #8B8579",
"g. c #958273",
"h. c #988473",
"j. c #908579",
/* pixels */
"q.u.u.q.;.#.o.../ A 4 4 H _ $.$.' ` X.=.1.;.J f 0 4 a f M J } R q O $ * p p 0 0 k B L ) ;.;.%.%.;.,.1.0.u.u.t.0.,...b f H ..$.,.",
",.q.u.q.O.( W J S b 6 s ) %.3.%.O.O.;.,.e.,.W M a 6 f S J ! %.O.A i 1 * 0 0 8 i z R  .;.q.u.t.0.4.1.4.0.u.g.s.s.t.%.H M J R ( } ",
" .,.t.q...H S b M b h A ( o.$.$.$.;.;.:.:.*.) F a 7 b N N T O.;.%...H d 8 8 q z o.<.5.5.q.5.4.,.;.%.%.&.r.s.h.h.s.4.) H F B M S ",
"F  .1.*.H h f s f b A J E } #.;.;.;.;.%.=.X.` F s 6 c N M Z ~ @.4.,.| A 0 * y I =.5.q.e.5.>.;.;.$.$.@.;.4.a.g.h.h.t._ S h d t f ",
"f V ( / i * 6 a s b P R J / #.>.;.=.=.#.$. .` F 6 6 x m m V Y Q O.%.$.R 0 & g I #.<.>.<.%.$.X.X.%.%.:.:.q.r.a.g.h.0.R g 4 3 4 s ",
"8 q h d $ @ 4 a s h P R R / O.=.;.%.o.o.X.` P M 6 6 c v v v N Z T } %...w * M W #.$.=.=.$...| | $.;.;.:.1.q.y.g.s.1.P i & % 1 3 ",
"+ # - %   @ 4 s f j B F R ) o.O.O.O.} ` ` R c r 7 s c c v b u c M T %.O.f e F ) ' #.#.#.....[ | $.%.$.%.,.5.y.u.u.>.P a 1 % @ O ",
", + # $ $ * 4 f j M M B R ` `  .} } Q T R B q 2 6 s x c v v x t c J O.| h y P ` ..#.X.......[ [ X.$.O.$.>.2.q.r.q.;.H d 4 1 i 3 ",
"h a p p 0 w j M M M n B R Q W W W P V N M f 2 # < 5 t v N C v n N J } ) f f R ..o.o.o...O.{ [ ~ ~ | *.;.;.<.q.q.>.} S d r l ( ( ",
"/ G G D l k M B V B j n V J P L V M h y s q # @ - 4 t x m m n m N K Q E f f R } ..o.#.O.@.| [ [ ~ { ;.,.,.,.1.<.$.) h s h P -.-.",
"-.#.#._ I D B V V V j u u u n n j u 9 e y 9 @ @ < 4 7 e x x u x V T ~ T j j P W ` *.<.>.;.$.X.} { | ;.1.5.5.<.=.#.R a a H #.5.6.",
"4.>.-...I M j n V V j w e e t f j f 9 : 2 2 @ # : 5 5 7 7 t x M P Q ) R n d B P U ` *.>.%.$.%.$.X.%.,.1.5.,.=.o...P d h _ >.6.6.",
"q.1.=.( B d y f M M y 9 e r r u B M y 9 # # % & 2 e e e t u V W Q ` } E j y j M B P W ~ ~ O.;.:.:.:.0.1.;.=. .` Q W G I $.4.6.q.",
"q.0.O.[ V j q 9 u u e 9 q 6 9 r j j r 8 @ X # < 2 9 5 5 t M Y Q ` } Q S s e y j B L P Y Q Q X.;.;.;.:.*.X.` Q Y W W _ ] >.q.e.r.",
"q.1.,.@.` F 9 - : 2 9 8 : : : : 9 2 # @ . . O # , , - > u B Y Q } Q M t 5 4 r k L L P P P Y Q Q E Q Q ` ) Y A A I _ =.2.y.y.y.y.",
"q.1.1.>.O.W y # @ # 2 2 - o + # - - # , 3 q p d d r ; > t m V T ~ T t = - 2 f V U W P P V Z I Y F F W W P A M M U ] <.5.y.y.y.r.",
"1.1.1.>.O.W f 4 #   - - X O @ @ # & w B ( ] o.#._ I a 2 6 t m S C m 5 + @ 3 z W ` Q U P P Y W W P I ` ` L l l D ` -.5.y.5.5.5.5.",
">.>.<.>.} Y M r #   O O O O % & 0 d L _ -.6.6.6.3.#.I A b f f h c t = + O 8 L `  .` Q U Y W Q ` W R Q R M l P ` =.3.y.y.>.<.2.1.",
";.=.>.$.W F M a & @ @ @ O % 8 g L ( ] *.2.5.5.e.y.6.5.$.) F f 4 3 % @ @ , w D W  .*.` U Q  . .O.` W B k w l ] 3.6.y.y.5.>.=.;.;.",
"X.X.$...H j h i & @ @ @ # 8 d L ] -.-.<.3.5.5.e.p.a.f.p.<._ b 4 % $   @ 3 y j F U U ` W ` Q  .` W A r 8 g U -.6.y.d.6.5.>.;.O.O.",
"Q W R Y j a q 8 & @   $ 0 p z ( 2.6.5.5.3.3.5.6.6.p.p.p.p.-.H p * @   $ * 0 w y j z P U R I P B j 0 + 4 I =.6.5.q.5.q.5.1.;.$.X.",
"Y N M b y 4 * & $ $ $ 8 g G _ #.5.y.e.5.6.5.5.6.6.6.p.p.f.6.] A i & * 0 8 0 2 3 8 r B P A A f q < # + i ] 3.5.5.4.4.5.1.>.$.O.` ",
"M f s r 6 3 & % $ % i k G _ -.3.3.3.<.<.4.5.5.6.5.6.6.p.f.p.4.#.j w k k a q 2 & & 0 j z h a , + X + a D ] 3.3.5.4.3.>.-.o.} ..W ",
"f t r r 4 2 & @ @ 3 k I ' -.3.5.3.<.=.;.3.4.5.3.5.4.5.p.a.f.p.$.H M P U P B d p q d l l f 4 + . . , h / ] =.=.-.=.#.#...) E W S ",
"s u f f a 3 % $ O * G o.<.r.y.6.2.<.=.=.>.5.5.4.4.5.6.y.p.6.3.#.P P [ #.%.$.` R / I H A h 4 + X + 4 H ) W R W W Y P T / R J N f ",
"b N F V h i 3 # O 3 L *.5.y.y.6.<.-.*.*.;.<.1.4.5.3.3.3.3.>.$.o.Q ( $.>.4.1.;.$.#.[ / / H b 4 , < a Y ) R Y P H A F S H J S f f ",
"J [ } } Y l 4 % % w I #.-.3.5.5.2.=. .O.*.<.1.<.<.>.o...} ..} } { | %.,.7.7.,.&.+.| [ [ $...H f < 4 R ' ) ) R P R Y J F N c t f ",
"J [ } } E F a 2 2 a I _ o.o.$.=.=.*.~ Q ~  . .X.=.o.( R R Q ` } { X.&.&.,.,.,.,.+.+.%.&.4.4.#.Y a 6 F ( ' ..` ) ` ( F v s r 6 f ",
"N J Z T E J h s s h F Y L V D I ` Q P B j n B F I Y H F R ` ` ..| X.&.&.%.%.,.,.&.&.4.4.4.t.0.O.S t a M ` $.=.-.;. .B r , , 2 y ",
"n M m m J V d a a h B M j y r h P U B f e 9 r y j l j D U ( ` ` ) { +.&.+.%.,.0.,.4.4.3.&.,.,.@.S t 2 r F ' =.=.$.) f - O % 4 f ",
"j f c x f r , % 0 y y y r q 9 r z B n s 9 < 2 2 q r d M I ( R I S K +.7.&.&.0.0.,.&.&.%.| [ [ K v 6 % + e j R ` R j 2 o + , s M ",
"d e q 4 5 < O O # 2 8 e 9 9 4 e j j f u 5 < % : 4 s l A P P D l f S | &.&.&.7.7.%.@.O.| K K K C f 2 @ @ # 0 l B l a 3 - # 3 g j ",
"& % @ @ + + + O O # : 2 r e e e y f f t e 9 9 9 d B I R Y A g w a b [ %.| { @.X.) Q } [ E E E C 7 2 O   $ & 3 0 e d b f , , r a ",
"@ . $ & 2 r t r 3 < ; ; 2 w r s u u j j f y y y n V W W D h 0 3 4 b E | [ [ [ / J T [ [ [ E K N 4 + O   & 0 0 i f H ) H 4 , 2 3 ",
"  $ i z ( o.O.O./ M ; o # < f b M M N L L L L N B B H B 0 & % 1 6 f K ~ ~ T C V N Z { | { ! N s , O . @ p D R ) o.%.0.@.j - # % ",
"1 p L ( #.;.e.q.%.R 4 X o - a b S F V N P P P N j y l i $   @ & < c C ~ ^ ~ Y C V T [ | { E S s 3 , , 6 I ] $.>.,.4.t.,.F r & @ ",
"G _ #...` } X.;.1.X.s # O O = 6 H K b y d f n f 2 - % @       $ 2 t Z ! { | ..[ Q ~ [ [ [ ~ E Y A h D / $.4.1.>.;.%.,.&.X.P 8 3 ",
"' -.>.#.W P Q  .1.;.F r % O . , h M 6 < 3 4 r 8 # X O @   @   $ - e N Y { %.%.$.| | [ Q ! Q Q Q J H ) #.1.q.1.>.$.O.| X.$.( i d ",
"#.3.=...R I P ( #.=.o.P i @ O O * % $ @ $ @ $ $   O % 1 & $   O # 2 r M ! +.;.,.+.| ~ T K K K F S F ..%.1.4.,.%...) R / ..( d h ",
"#.>.#.' R P ( ' $.-.>.] h , O     @ $ * * 3 1 * * 3 4 i 0 3 $ O + # : r V ~ } O.{ ^ ! Z C m b M M J o.;.<.<.>.#.} E K H ..) h A ",
"_ #.o.) ( ) O.-.1.2.1.X.B e , % % 4 a A H R H F F A h f g d 0 & # @ % 3 y j B F ! E Z v t 2 < 4 A / %.3.3.3.%.%.X.) T Q ' ` A A ",
"H / ' ..`  .O.=.,.;.O.Q v 6 2 < 0 f J ) X.$.o.o.O.} E J H A w 1 % O # # 2 q y j Z Z x e < - % 3 F _ $.%.%.$.%.O.} Q W W } ( l l ",
"s F ..O. .` P W .._ M e 2 ; < 7 f S [ +.%.%.&.,.8.8.,.@.) P h 3 @     @ 1 0 r y c t < - + # 3 h ( O.O.O.#.#.$...E Y Y Y ` W d 0 ",
"w j W }  .Q L V W F 4 + + - < y b K | %.@.@.:.8.w.i.i.8.@.Q b 2 @     @ 3 y l L F M q - O 1 h /  .;.O.#...X.$.X.W J Y T ) W d 9 ",
"t y n P W Q U Y I n , X o = 5 u n P ~ ^ | X.@.:.8.9.9.9.:.} c 3 $ @   @ 3 h _ -.<.-./ g 4 d ) %.,.>.$.$.#.#.%.O.) E E ) o.) A d ",
"s 4 e y j B V B B w $ O - 5 u n n P Q ~ ~ | @.@.@.:.:.:.:.[ b 3 & & 0 d h Y <.p.f.y.#.I i f | 4.4.3.>.$.X...X.#.....) ) .._ ( A ",
"d < # # # : : 8 8 & O % f V V V Y Y Y Q ^  .@.O.} ~ { { | [ M s 3 y R #.-.3.p.d.j.p.>./ 6 r [ ;.>.,.;.%.{ [ ) { #.O...[ ) ) } / ",
"s # X X + +   @ $ @ @ : n P T T Y Y P W ~ |  .~ T K T ! ~ E N f d F =.5.r.y.d.d.d.a.4...s t Y } #.$.X.O.[ ) K ) O.X.) W R W X.( ",
"3     O % 3 1 & & & & 3 u m T E Q T Y Y Q ~ ~ T V N T T T J f f P ] *.<.2.5.6.6.p.y.6.#.A s c N T Q Q E I U Q )  .) V M M B Q P ",
"% O $ 1 i p i i 0 3 8 q t n T ~ | } ~ T T T T Z Z Y T T J N f F ] -.*.*.<.<.<.<.5.4.4.$.I h s t S F F V B V F Y R S f e y j V h ",
"+ + i l l l h d d p p w y n T  .%.;.*.| T V N V ~ ^ ~ T M f B W =.2.=.*.*.*.*.*.$.=.;.$.( F c f V V b f y f y y c y > > q e 4 2 ",
"+ 4 D / I H A z k k p p w f P ~ ;.<.:.*.T N j m T ~ Q Y u f I ] 2.2.-.O.` ] o.] ..o.$.$.' P f f M M v f u y r r e 5 ; = 2 2 - + ",
"4 M X.;.#.) I D G z w 3 < r V ~ @.:.;. .T m u u n P V m t u ( <.5.5.-.O.` ` o.O.' ..$.$.#.W d 4 s M S A B f u u s e ; ; 2 < # @ ",
"f E 0.r.%.../ R I z q & % 4 c T X.@.*.^ T V e e u x n f r j ` <.5.2.-.#.]  .*.*.#.o.$.-.=.` a 3 a f B S M M f f f t 2 - - - # 2 ",
"/ #.t.q.;..._ ) ( G a 1 # : y N T | *.^ ! P 7 5 e u u u y B ..>.;.;.>.-.*.=.>.;.;.#.#.$.>.o.j 8 a a f c s u u u f t 2 # + # 3 f ",
"..3.t.0.3.$.#...` I j 2 & - e u V T T T T m 7 5 e u e y j F ..=.*.*.;.<.=.=.=.;.$.o...#.<. .k q 0 w a r r t u u t q , O . % r F ",
"O.1.e.u.e.1.;.$.$.) M q 2 < 3 < t t t x m x 7 e e 9 : 9 L W Q ` *.*.=.=.o.o.o.o.X.` ( ` $. .j 0 0 8 3 2 e t M b 2 - @ O   % h / ",
">.q.e.u.e.5.>.>.=.X.B t 3 < - ; > > > 5 x x x e e 9 % 0 L ` Q ` ` Q o...` `  .o.) ( R W  .Q j q 8 & & 3 2 4 h s < X     % 0 H ..",
"1.y.y.q.5.1.1.,.>.X.J d , X o - 2 9 9 e e e x x 5 2 # 8 M U ` ' Q W U I Y Q o.*.` W P Y R Y M r * $ $ $ $ $ % % O O $ & p F _ $.",
"1.e.5.1.1.1.4.1.1.#.Y s %   X o - 2 q e > e e e < - % 1 y B I ( U U L B B I ` ] ) W P P F V B y & @ $ $ $ O   @ % % $ 8 D ) $.3.",
"1.>.#.$.,.5.q.q.1.%.E f %       O # ; : ; ; : - - # # & 3 e k A P P F B f j F W W W R V B V V h & O + , 3 3 3 3 0 3 $ 3 H %.4.4.",
"1.>.#.$.1.q.q.5.1.#.J a %   $ % % , 2 5 e 2 : # # # @ @ # 1 0 d B F D B f d n B R Y P B n f b f 0 3 q s b b s f h a % 4 ) &.0.4.",
"q.5.4.4.5.q.5.5.;.) h , @ $ i k g k f h m M a 3 @     @ $ $ 3 q g j l l M M j l B B j u y r 4 6 f F R _ | [ I H S b 3 a ) ;.4.0.",
"q.r.y.r.5.1.1.>.o.P r % * p G / / I Y W ) E A q & $ $ $ 8 q d g r 0 p d k l d d j l j M B M s f R } $.>.4.3.$...[ H 7 s ) %.,.4."
};