/* XPM */
static char *c542c2658c70467b84bdc021736d69da[] = {
/* columns rows colors chars-per-pixel */
"64 64 34 1 ",
"  c #0A0907",
". c #0D0C0A",
"X c #13120E",
"o c #161411",
"O c #181713",
"+ c #1C1A15",
"@ c #1F1D19",
"# c #211F1A",
"$ c #24231D",
"% c #28261F",
"& c #272521",
"* c #282621",
"= c #2C2B25",
"- c #2F2E28",
"; c #302E27",
": c #302F29",
"> c #303027",
", c #34322C",
"< c #38372F",
"1 c #39382F",
"2 c #373630",
"3 c #383731",
"4 c #3C3A34",
"5 c #3F3D38",
"6 c #403E37",
"7 c #413F39",
"8 c #44423B",
"9 c #49463E",
"0 c #4A4740",
"q c #4D4942",
"w c #514D46",
"e c #524F48",
"r c #56514A",
"t c #5B554E",
/* pixels */
"oO#*,2,2--:,33332,,,-,,,322,,21431-*&&&&#+OO$=222,,-=-:::-=*=*#O",
"+@*,354222,223343333344444431444433::>--*&@@=3505542,,,,,,:::;*$",
"&&,444432:===-234333333,214333412,-,,3333>&*2557753,::-=----::;=",
"&*354342,:=***:333323,,,,233111,,>-,234543**35755422:===*---::::",
"&*2432223,=*%*,,3332<,,,>>,2232,2,,,23543:*-47874432::===--,,,,:",
"**,22,2,2,-=*=:,,,,,,,,,>>-,,2,222,223543:*-797432222:---,,2333:",
"*$-2:,,:--==:,::,,:,,,<,,-,,::12232334443:=:7074322,,,,:22223432",
"&&=::,,,,-::,,:,--,,,,,<3,---:223433445443=:794422:2,,,22222444,",
"$$=,::,,2-:-,:,:::,,==>,22,::::,2221145554>=4744222222,,22222332",
"$$=,,,3432,:--,:::::*=:,22,-;:::,223445881==34442:222,:,2,222232",
"$$:<3467542:::::::-*==::,,:-=::,,22345885>$&,4542,2:-:::-,,,,23,",
"*=3667685532,:::,,--=:::,-:-=-:,,,2445884=$$3575322:-2::---,:,2:",
":,70086447443,:,,:2,,,,,,,--;;;,,21468984>$$187552,:,:::--::,,,,",
",30w07444475422,:,33433332:-;;;:,41689qq82$$488772,,,:,:--::,,,2",
",4qe07434475432<224477555422;;>>21589qrr94$$<88552,:,,,:-::22363",
",30w077445777643335800885522,>,<24689qttw6%$3897422::,,,,2233366",
"-,7q0988558845666699qqq9864<,,<<44889ettw8>=499842,,,,,114575875",
"--69909999988888899qeee086411116448899q996==599832,,,14478998884",
"=*489990qwq099889999qeqq98446666666898842=$%49862,,214680qqq0085",
"&$-33446997786444666888864<,<,,,,1,11>=%#+o@1642-=-:,,447789544>",
"XX$$$#$%=-----=====>>>====*$$$$$$$$$+ooX.  X$>=%@@@##&=>->---=#@",
" .o$##$$$&*,--=&=&&&$###$$$$$$$$$$@@+oXXXoXO#%$$@O++##%*&&&&&@X ",
".X@$%%=;=,347742,>=$#+++@$$=,,>>>>>>>=%=11,=====$$$&****&&=&#o  ",
"X+%=>,,,3148qq8754,=#oo+$&>,4854146841169w841211---:2:,-=>-=&O. ",
"$%>1314444880q00885,@oo#=,224589999r9999rrq99888854555534551-$oo",
"%>11144555488000988,@o+$2414348899www99wrreqqqqq9785555558552=@@",
">214313444455788864>+o@=48411145989999990000q0988841224545452>$$",
",111,23331444455641>+O$>581>>>248886688907709888541,,>2211332>$=",
",2,,,,,33333333144,=@+%>14,>>>,244444688555577551,,,,>,,222,,>==",
",,,>>>,,,32333,211,=@+%>21,>--,,44214444444455542,,,>,-,,2,,2>==",
">,-->>,>:,3332:,22>=++$>112,>--,224445444313444442,>->--,2444,==",
",,---=>->,2222:,,,,%oo$>,11,>---,,1444444412444344,>,,--224554-=",
",:;;;==;=,,,>,=,,,,&XX$:14,,>>===>13444444322,,144,,>,,,4580052-",
"::;;;=;;>>:,===:,4,*XX$,141,,>===>2134444432,>,,44,,>,,14580q03-",
",:::::::,:==***:144=OO%:332>===%&=>,24444432>==>,,::,,314500q03,",
",,::,,,,,==*%**-344-@O%:13,>==%===>>2444431,-*&&==-,,3144440083-",
",,,,,,,,>>**&**:474-@+&,,2,>>=%%&==,222242,,>=$$%=,,,1,4144685:-",
"343,,,,:,>==*=,2554=@+%=:,,:>==%==-,,2222,,>>>&$%=,3334,114454==",
"25432,,:,,,,-,2234,=@+&*>,:>==%=&=-,,22,2,,>>====>,,33,,214642==",
",222:::;=====---,-,*++&->::>===&==,,>>>,>->->=--,,,,,3,,,,1142&=",
"&*&&&&&$$###$&&&&&&#++*:>,-==&&==-,,:>--===>=--,,,,,2,2:,>,,1>*%",
"&&&&&&&&$#+###&&&&*#+#:,22>===&==>::>=-*****---,:::::,:,,>>>,,%$",
"22:,:22-=&&&&=-,233;#$,433:-==->,2,:==&==&&&--,-::-:=::,,>=>1,==",
"24332252,>=*--21476<$$<65222>>,,21:--====&==-,,,=---=:,:,,=>1,*=",
"255244423,--=,,,,<<,$*688522223343,>>--===,,>>---===>,,,21,11,&=",
"25224554433,,::>,:,:$=4988444455542,,,>,>,4432--==*-:,22143441=&",
"225424444444,==%==::$*180854544557432221455852,-==-::233344774**",
"222455454554,,*%%=::$*<888555445574441445568552-===::,24457885-&",
"-222363375543,=*&=,,$&4845444455455445455555543,=:::::<4798907*&",
"-222333553553,===>4,$&4444144555545442455553333,====:,<45779q7*&",
"&--2,22235553<::>14,$%,43332445555542233322,22,-===;:,,3448907=$",
"&---,,,,333322,,214,$$,1322233355442,,3322,,,::-===;,,,,,37907*#",
"&--::222333222,<144>#$,33333333344222:22,,:,,:==*==::::=;,6786*#",
"&&--::,,343<:::,144,$$2455343333222-::::,-::,,===:=::===;;6686=#",
"#$&&-:,2333<;;;,144,&&48755322232,--::::::,:,,>,>::,,>:=;;3673*#",
"$&$&-:,233<,;;;:4441*-500553222:,,--::=--:,2,,,1<<,,,,,,,,3362*#",
"****;;:,23<,:=:,443,=,800944<,,,,-::,::==:3334447632,<,<<<3<<;##",
":<::;,:,333,:>,<444,*:8q09843<<,,,2,,:--;;23444877636366663<:*#$",
"<664<334333<1488986<*=80009863<,2342:2,2<<,<888877666666663<:=#&",
":466766654466999q083*&19we0976414554433363<38999976666666663:*##",
"*;,38909868999eeee04$#=6ete999887779097566369wwq766666667776,*#+",
"+#*:4886646699w9007,#+#:0e96678664334432,;:,67773<2<,<,66666=#Oo",
".X+#*==;;*=:<34<,:=*+O+&:<;;::::=*#####@##X#########%***#*###OXX",
".X+#%**%%%**:<<:=**%$#$&=;***=:;=*@@OOOOO....#+#######%%%##+##oX"
};