/* XPM */
static char *result[] = {
/* columns rows colors chars-per-pixel */
"64 64 252 2 ",
"   c #393030",
".  c #433F39",
"X  c #494141",
"o  c #414141",
"O  c #494941",
"+  c #494949",
"@  c #414949",
"#  c gray35",
"$  c #595951",
"%  c #596359",
"&  c #596363",
"*  c #636359",
"=  c #636A63",
"-  c #636A6A",
";  c #6A6A6A",
":  c #6A726A",
">  c #6A7272",
",  c #63726A",
"<  c #637272",
"1  c #636A72",
"2  c #727B7B",
"3  c #515151",
"4  c #495149",
"5  c #495151",
"6  c #515951",
"7  c #515149",
"8  c #596A63",
"9  c #596A6A",
"0  c gray39",
"q  c #595963",
"w  c #515959",
"e  c #516363",
"r  c #393039",
"t  c #596351",
"y  c #516359",
"u  c #414941",
"i  c #394139",
"p  c #515949",
"a  c #404B39",
"s  c #393939",
"d  c gray13",
"f  c #495141",
"g  c #6A6A72",
"h  c #495951",
"j  c #212828",
"k  c #283028",
"l  c #0F1818",
"z  c #2B3021",
"x  c #413930",
"c  c #393721",
"v  c #727272",
"b  c #727B72",
"n  c #72726A",
"m  c #7B7B7B",
"M  c #7B837B",
"N  c #728383",
"B  c #7B8585",
"V  c #6A7B72",
"C  c #596A59",
"Z  c #636351",
"A  c gray19",
"S  c gray6",
"D  c gray3",
"F  c #181818",
"G  c #282828",
"H  c #28303B",
"J  c black",
"K  c #161643",
"L  c #131333",
"P  c #080918",
"I  c #283941",
"U  c #3D4151",
"Y  c #212128",
"T  c #242441",
"R  c #514951",
"E  c #516351",
"W  c #2C2E55",
"Q  c #515141",
"!  c #0B0B24",
"~  c #515159",
"^  c #05060F",
"/  c #181B22",
"(  c #283030",
")  c #59636A",
"_  c #1E2436",
"`  c #182118",
"'  c #394143",
"]  c #303028",
"[  c #495959",
"{  c #304139",
"}  c #212821",
"|  c #282721",
" . c #596349",
".. c #393930",
"X. c #121A0F",
"o. c #303941",
"O. c #6A6A63",
"+. c #394130",
"@. c #495159",
"#. c #6A7263",
"$. c #596A51",
"%. c #302828",
"&. c #394941",
"*. c #727B6A",
"=. c #494939",
"-. c #635951",
";. c #636A51",
":. c #595949",
">. c #000808",
",. c #595149",
"<. c #636A59",
"1. c #636349",
"2. c #6A6A51",
"3. c #6A6A49",
"4. c #6A7251",
"5. c #6A6359",
"6. c #6A6A59",
"7. c #6E7259",
"8. c #637263",
"9. c #505963",
"0. c #495139",
"q. c #515139",
"w. c #515939",
"e. c #595939",
"r. c #515941",
"t. c #514941",
"y. c #595941",
"u. c #596339",
"i. c #6A7249",
"p. c #6A6A41",
"a. c #636A49",
"s. c #636A41",
"d. c #727251",
"f. c #6A7B51",
"g. c #6A7241",
"h. c #727249",
"j. c #727B51",
"k. c #727B49",
"l. c #727B41",
"z. c #728349",
"x. c #7B7B49",
"c. c #7B7B58",
"v. c #637259",
"b. c #6A6349",
"n. c #727241",
"m. c #7B7B41",
"M. c #7B8341",
"N. c #7B8349",
"B. c #838349",
"V. c #707B59",
"C. c #63636A",
"Z. c #838341",
"A. c #342413",
"S. c #212415",
"D. c #636341",
"F. c #414130",
"G. c #494130",
"H. c #838363",
"J. c #ADA59C",
"K. c #595930",
"L. c #707234",
"P. c #515930",
"I. c #637249",
"U. c #494930",
"Y. c #514939",
"T. c #494921",
"R. c #514C30",
"E. c #495941",
"W. c #72837B",
"Q. c #303928",
"!. c #414128",
"~. c #3B3928",
"^. c #414930",
"/. c #72727B",
"(. c #938C1E",
"). c #9E901E",
"_. c #938A28",
"`. c #8B8527",
"'. c #818136",
"]. c #958D33",
"[. c #636328",
"{. c #637251",
"}. c #7B726A",
"|. c #AD9C21",
" X c #BDB50F",
".X c #BDAD0F",
"XX c #B5AD18",
"oX c #B5A518",
"OX c #B5A521",
"+X c #ADA530",
"@X c #AD9C28",
"#X c #ADA528",
"$X c #ADA521",
"%X c #B5A528",
"&X c #B5A530",
"*X c #A59C30",
"=X c #A59D26",
"-X c #AD9C30",
";X c #C6B50F",
":X c #BFB518",
">X c #BDAD21",
",X c #BDAD28",
"<X c #B5AD21",
"1X c #B5AD30",
"2X c #B5AD28",
"3X c #BDAD18",
"4X c #9F9343",
"5X c #AD9C39",
"6X c #A39C39",
"7X c #939046",
"8X c #A59C41",
"9X c #C2B521",
"0X c #BDAD30",
"qX c #B5AD39",
"wX c #493930",
"eX c #C6B530",
"rX c #CEB53B",
"tX c #C2BB41",
"yX c #BDAD3D",
"uX c #B5A539",
"iX c #838079",
"pX c #DACA51",
"aX c #D3C141",
"sX c #ADA539",
"dX c #A99C51",
"fX c #6A7B49",
"gX c #635941",
"hX c #B1A146",
"jX c #6A5B51",
"kX c #394121",
"lX c #C2B528",
"zX c #939398",
"xX c #C6AD21",
"cX c #2D3939",
"vX c #C6B508",
"bX c #CDBD08",
"nX c #CABD0F",
"mX c #8C8C7B",
"MX c #595151",
"NX c #3B3028",
"BX c #516349",
"VX c #635949",
"CX c #415141",
"ZX c #415149",
"AX c #2E3B30",
"SX c #494128",
"DX c #180F0F",
"FX c #595141",
"GX c #596441",
"HX c #6A7B41",
"JX c #726A49",
"KX c white",
/* pixels */
"  . X o o o o o o o o o X X X O O X O O O O O O O O O O + O O O O + + + + + + + + + X X X X @ @ + O O + O O X o o o o o o o + . ",
"  + # $ # % % % & * % * % % & = = = = = = = = = = = - = - - - = - - - - - - - - - - ; : > ; - > > > : > : , : > > : < - 1 > 2 3 ",
"  + o O 4 4 5 6 6 6 6 7 4 4 7 6 6 6 $ % # # # # % # % # # # # # # # % % # % & & & % = - - = 8 - > - - = 9 = 0 & % q w w e 8 > + ",
"r O 4 4 5 4 6 6 6 6 6 6 5 6 6 6 6 # # % % % # t % % # % $ $ # % % % # % # & & & 0 & 0 - = = - , > - - - = & & % q % y w t * > + ",
"  u i u @ p 6 6 6 6 6 6 6 6 6 w w # % # t % % # $ # % $ # # # # # w % # # % % % % 0 & 0 0 0 - - ; - - - - = 8 & % & & w a O w + ",
"r s d - f 6 w $ $ 6 6 6 6 6 w # # % # # $ $ $ % % $ % # % % # 6 # # w # # # % & & 0 0 0 & 0 8 - g - - - = - & % & # % + d - h + ",
"  @ j k @ 6 $ % $ 6 $ 6 6 w 6 w % # % % # $ $ # % # % % # % # w # w w y w # % & 0 & & - = - - - , - - - & & % & & % # . l z 5 + ",
"  7 4 u 4 6 6 3 6 p 3 p 5 3 3 6 3 6 6 3 7 6 3 6 6 6 6 3 6 3 5 3 3 3 3 6 3 w w # # # w # % # % % & # % # w w w w 5 6 # x c r % + ",
"  $ 6 7 3 6 5 4 ; v b v v v v n v v n n n n b v b b b b b b b b b v b b b 2 m m m m m M N B B B B B B M m 2 2 - 5 4 & X x f - + ",
"  t 6 6 6 6 4 4 V % # % % % % % % % % % % 0 0 % * % 0 % % % % % * = = = = = = = = = - - - - - - - - = 8 = & & - 5 5 % O + h > + ",
"  y $ 6 $ w p 4 : % 6 6 6 6 6 6 0 0 C 0 e w o 4 w 0 % # 6 Z % * 0 0 0 w w & 0 % & & w & = - > - - & q & w & & - 5 5 & & 3 w 2 + ",
"A % t $ $ t + 4 : % s S D F A G A 6 & 6 H J K L P A t i K 4 % & % % % I d % U J S D S Y T R - A S D S F l @ & - 5 5 & & w 8 2 + ",
"  = % $ E # 6 + ; % G J o 4 4 k J d # G P G t 3 W P A + W U $ 4 Q # % D i y W ! @ 6 6 4 ~ & = G J + & s S S 8 - 5 5 & & w & 2 + ",
"  & % % % # 4 4 : % s F 4 % % % J P t ^ S t & * R D S u / r % S ^ + $ S 4 t ( J % 0 & 8 - & ) ( D & 9 8 D S & - 5 5 & & # 8 2 + ",
"  8 % % % % 6 4 : % G J + % # u G _ u J ` % % # 3 / S o G d O P K ' 4 J 3 $ j K U o ' + y & & ] J 5 [ { G ' & - 5 5 & & & ) M + ",
"  - = % % % 7 4 : % F F k s } J S 4 ' J | % %  .t r ^ u ..X.o.K T d ..J # t k P T _ F d 4 8 8 } S j G S s w & - 5 5 & & & 8 2 X ",
"  = & C % % p 4 O.% F J F s G i 4 % @ J d t % % t H Y Q +.F l H d Y s S $ $ d S @ 7 3 w 6 & & G S s j J ' & 8 < 5 @.& & - 9 2 + ",
"  = C % % * 4 7 #.$ X.S 4 % % & t & p J D % t $.5 ! %.% 4 / J A u J F ] % t } d * & & & 8 & 8 ( S w % F F &.& - 5 5 ) - - - 2 X ",
"  = & % % % 6 4 *.% d J 4 & t % & t t ( S ..% % W ! =.-.5 L Y f $ D J ..;.% z J o 6 6 4 @ 6 & k D h 9 y d d 5 - 5 @.- - - - 2 + ",
"A = 8 % % t :.4 : % ` J f % % t t % t t A >.l L W . $.;.p Y D 7 ;./ ! O Z t z J l D F D } ..8 } D 4 & & 5 S j - 5 w 9 - - < 2 X ",
"  8 C * % % p 4 : % # t # # * # * -.* Z * ,.. f t ;.<.;.$.<.1.Z ;.;.-.;.;.Z * <.t % t % % % = C C 8 & & & % % - 5 5 ) & 9 : 2 + ",
"  8 <.% Z % 7 h t ;.$ <.Z * ;.<.;.* Z <.;.;.;.;.2.;.3.2.4.Z 2.2.2.2.;.4.5.;.6.6.7.<.<.<.<.= <., 8.8.= - = & 0 9.4 5 e & & 9 V X ",
"  = * * % % 6 u O o f =.O f O O O 0.Q q.Q Q q.w.q.w.w.e.q.w.w.q.w.q.e.w.w.w.r.r.Q Q Q Q Q f 4 f 4 f 4 4 + 4 @ 4 + 6 & e & ) > + ",
"  = % * % t : 7 f O O O f O t.Q r.Q r.r.r.r.r.y.e.e.e.e.u.e.u.u.u.e.u.y.u.y.y.y.y.r.r.r.p p 7 p 7 7 4 4 4 4 4 4 5 , & & & 9 > X ",
"  & % % % t 6 % % 6 Z t Z ;.Z ;.;.Z ;.2.3.2.i.p.i.a.s.3.i.i.i.i.i.i.i.i.4.4.4.d.f.4.4.6.6.<.<.<.<.<.<.* = % & & & & & & ) ) > + ",
"A = = % <.% * t t * Z Z $.;.;.;.;.;.3.4.4.i.g.i.i.i.h.h.h.h.h.h.h.d.d.j.j.f.j.f.f.f.f.4.4.6.<.<.<.<.<.<.* = * & & & & & & & - + ",
"  0 % = % % t t * Z $.;.;.;.$.;.;.i.4.i.i.4.i.h.h.h.h.k.l.z.k.k.k.z.k.x.j.k.c.j.c.4.f.f.4.4.4.7.8.v.= v.8.= 8.- & 9 9 9 & & - X ",
"  = = % <.%  .Z 1.;.;.$.;.;.2.a.b.i.i.4.h.n.h.k.l.l.l.m.M.M.M.N.M.N.N.B.N.N.k.x.x.c.c.c.V.f.V.7.4.#.#.#.8.#.= #.; O.; & & & C.+ ",
"  = = C % % * $.a.;.;.<.;.1.b.b.g.3.i.h.h.k.l.l.m.m.m.m.x.m.M.B.M.B.Z.N.B.N.N.B.x.x.c.j.c.V.V.7.7.7.#.#.#.#.#.#.= : - 9 & & 0 X ",
"  = y t % t Z ;.1.;.<.;.;.3.3.i.i.i.i.i.n.n.l.m.m.m.m.M.Z.M.Z.Z.Z.Z.Z.Z.Z.Z.B.x.x.c.k.j.d.d.7.f.j.4.7.v.v.v.<.v.= 8 8 % Q =.& O ",
"  % A.9 6 $ $.;.Z ;.1.Z 3.1.p.i.i.3.3.3.p.g.g.n.n.n.l.m.m.m.m.m.l.m.l.l.m.n.n.h.i.i.a.a.a.a.4.4.4.4.2.6.<.<.<.<.= & = + S.- & + ",
"  # | S. .= ;.;.;.1.;.2.1.p.i.i.h.3. .:. . .D.D.s.p.p.p.p.p.p.s.p.s.p.p.g.n.p.p.3.1. .:.:. .1.2.4.2.2.;.6.<.<.<.<.= % 7 %.G = + ",
"  & F.G.t t ;.;.;.;.1.b.3.1.t @ 4.j.g.j.H.J.H.H.g.j.g.g.j.j.H.j.K.j.L.K.u.K.u.=.P.D.K.D.u.$.f y.3.2.;.2.<.6.<.<.<.<.& t @ + > + ",
"  : 3 $ % = <.;.t ;.;.I.b.$.4 o.> s U.D.D.j.D.j.g.g.P.D.g.g.D.D.j.D.P.Y.5.Z 5.T.R.g.u.P.E.W.Q.q.a.a.;.2.;.<.<.<.C = <.9.9.) > + ",
"  < < ; C.v.<.t ;.<.b.i.3.1.4 o.{ G U.F.x F.F.x +...F.F.F.+.F.!.x F.F.F.F.F.F.F.+.x F.~.u.j G ^.D.a.1.2.4.6.<.<.<.<.<.0 8 9 /.+ ",
"A < % 8 v.& <.<.<.6.i.;.a.1.4 o.p q.5.(.).).(.(._.`.'._.].].`._.(.(._.].].].`.`.`.`.`.[.!.O U.~.y. .a.2.4.4.6.<.<.<.0 8 & ) v + ",
"  9 8 * 8.<.;.<.;.3.{.i.i.a.4 o.y.y.}.|. X.XXXXXoXOXOX+X|.@X#X$X#XoXoX%X&X#X@X*X|.=X).].!.R.^.~.y.a.1.I.4.4.6.C <.= <.0 9 ) > + ",
"  & 8 0 $.<.;.$.Z ;.4.4.4.a.3 o.y.u.}.-X;X;X;X:X:X>X,X<X1X,X2X,X>X2X3X3X>X1X2X#X@X#X|.4X6.=.!.~.e.1.a.2.{.4.;.6.C <.<.8 C.9 v + ",
"A & 0 C <.;.;.;.;.2.4.i.i.a.6 o. .D.}.5X:X3X.X3X>X3X,X,X%X1X2X%X,X>X>X3X3X2X&X&X*X@X*X].m G.!.~.e.a.3.4.4.4.2.= = = = = ) ; > X ",
"  & t 0 <.;.<.<.6.4.i.4.i.3.6 o.y.r.}.6X>X3X>X>X>X,X,X1X2X&X1XOX2X>X>X>X;X3X2X&X#X*X*X7Xm X ^.z y.a.3.4.d.4.7.= = = = = - 8 > + ",
"r 8 8 % ;.<.<.<.<.4.4.d.4.3.p o.D.u.}.8XOX2X,X9X,X0X0X0XqX%X&X1XOX2X>X>X9X;X3X1X&X-X*X4Xm wX!.z y.a.i.d.7.7.7.<.<.<.<.* & 0 > + ",
"r = & = * <.<.<.6.4.i.d.h.p.p o.y.y.}.4X&X%X,X,XeXrXtXyXyXuX+X&X&X<X,X>X>X>X X>X&X&X-X4XiXG.!.z q.3.i.j.V.V.7.n 7.#.#.: : : > 3 ",
"s = O.* = Z <.;.2.i.4.i.i.3.6 o.s.r.}.4XuX%X1X0XrXpXpXaXyX&XsX+X%X2X,X,X:X>X>X.X<X&X@XdXiXX !.d q.3.i.fXj.f.f.4.8.8.8.= <.O.> + ",
"r * & ;.Z <.;.$.;.i.I.i.h.1.p I gX .}.6X&XsXuXeXtXpXpXtXyXhXtXsXtX2X0X>X,X:X3X3X3XoX#XdXJ.wX^.d q.p.3.d.4.4.4.6.<.<.8.v.; 8 > + ",
"r - O.& <.;.t ;.5.3.3.3.3.D.7 o.s.jX}.6X<X0XqXyXeXeXaXrXyXuXsX-X5X$X%XXX3X>X;X3X3X3XoXdXJ.X kXd 0.s.a.4.4.{.4.6.= 8.8.O.8.g > + ",
"  = O.5.0 ;.;.Z a.a.a.3.3.1.p o.s.:.}.*X>X<X,XqXeXlXlXeX0X&X5X-X*X-X#X<XXX3X>X;X3X3XXX8XzXX !.d q.D.a.3.3.3.{.<.<.8.#.: O.8.> X ",
"r - = O.<.;.Z ;.;.1.3.3.i.a.7 o.s.jX}.+X3X3X:X,X0XlX9XxX,X&X+X5X*X*X@XOX<X3X3X>X;X3X.X6XzXwX!.d q.a.a.3.3.a.1.Z t 8.8.#.8 - : X ",
"  0 0 % ;.;.<.;.Z 3.I.i.3.1.h s y.jX}.+X;X;X;X9X9X0X9X9X>X2X&X-X6X*X*X@XOX3X3X3X3X;X3X6XB wX^.d 0.D.1.a.3.a.a.t Z * <.8.C.9 > X ",
"  0 0 0 * <.;.$.;.;.s.s.3.a.7 cXD.jXiX%X;X;X;XvX;X9X>X9X>X>X%X+X*X*X*X*X|.OXXX X;X X;XsXM wX!.d 0.1.D.a.a.a.Z * % Z = O.8 ; > o ",
"  & = t <.Z ;.Z Z a.2.3.a.1.4 o.g.jX}.%XbXnXbXbXbXbX;X9X:X3X<X%X+X*X*X*X=X$X3X.XvX;X;XsXB wXF.d 0. .1.s.3.a.Z t t ;.<.= - ; b o ",
"  = 8 & C t t $.$.;.a.I.I.a.5 cXD.jXiX+XnXvXbXnXbXnXnX;X9X:X>XOX&X-X*X*X@X@XOX3X X;XvX#XB R.~.d f 1.1.a.a.Z <.C <.<.<., 8.n b o ",
"  = = t * t t $.t Z ;.a.a.1.4 I D.jX}.7X2X2X<XlX2X2X,X2X0XqX#X+X6X8X4X4X4X6X*X=X+X=X=X).n wX^.d 0. .1.I.a.v.<.C C 8 = & - < M o ",
"A O.& & E # $.$.;.$.Z a.1. .5 H mX{ *.*.*.*.*.H.mXH.H.mXH.B mXH.H.H.H.H.H.H.H.H.H.H.<.MX# wX> d f  .1.1.a.<.% C C C & 6 6 = b o ",
"  C.% # C p t C t  .1.1.D. .5 H { ] MXZ Z Z Z jX-.0 & 3 3 7 O O 4 4 4 u O s . G.x x NXNXx u G z f  .1.1.;.* C y C % 8 p X w v o ",
"  - @ , $ % t  . .t BX:. .p 4 cXQ Q q.:.VXjX:.% 9.@ 4 4 CXu 4 4 5 4 ZXu u s ......~.x Q.G.NX] NXf  . .1.;.C t t y & w Y.F.O : o ",
"  & AXd 6 t % t t t  . .1.:.p s s k k G k j j j k k j j j G j j z j ] k } } d d } j } d } z ..=.E. .1.1.t t E % t h y SXDX] - o ",
"  & @ i R $ E # t BXBXBXE :.:.p 4 Q f =.CXu =.f f u f a a . o a O =.=.a . a i +.i ....( i u f Q y. . .Z  .t 6 t 6 y h wXA.NX& o ",
"  & w 4 4 w # E $.p r.p  .:.FXp 7 p p :. . . .1. . .1.GX .y. .GX1.1.D. . .1. . .BXp BX6 6  .t  .:.VX1. .t t t t 6 w [ =.. a - o ",
"A = w w 6 # 6 # $  .p r.p :.:.:.y.y.y.1.a.a.3.3.g.n.l.l.l.n.l.n.n.n.l.n.fXi.g.3.3.p.p.s.s.1.s.1.1.Z  .t E t 6 6 y h w 5 5 + = o ",
"  - & w [ w 6 $ y $  .y.y.y.y.r.y.y. .D.s.s.3.3.p.i.i.k.HXn.n.n.n.n.i.n.k.h.h.JX3.a.3.a.a.a.a. .:. . .BXt 6 t w h w [ 9.w e > o ",
"  - y w 6 w w w t y :.:.y.w.y.y.y.:.:.1.a.a.3.s.p.p.p.JXh.3.p.3.3.i.h.d.JXi.i.3.a.3.a.a.Z a. .1.t t t t $ t w h ~ [ 9.w e ) v o ",
"A - & y w h w w w $ E :.:.y.y.y.:.:. .1.1.1.s.s.a.a.a.i.i.3.3.3.i.4.4.4.{.a.a.a.a.s.;.Z Z  .:.BXp p p p E w h w [ 9.9.e 9.- 2 o ",
"  - 0 & & & & & 0 8 0 ) & & % % & & 0 & & & & & & & & & = & & & 0 = ) 9 0 ) & & & & & & & 0 & 0 & & & & & 8 ) 8 & 9 - 1 < > 2 o ",
"  . o X X o X X o X o X o X o X o X o X o X X X X X X X o X X X o X X X o X X X X X X X X o X o X X o X o X o X o X o X o X o   "
};
