/* XPM */
static char *result[] = {
/* columns rows colors chars-per-pixel */
"64 64 143 2 ",
"   c #030102",
".  c #0B0503",
"X  c #120A06",
"o  c #180A07",
"O  c #11070B",
"+  c #170F0D",
"@  c #1B0D09",
"#  c #1A100C",
"$  c #121210",
"%  c #1C1313",
"&  c #220F0A",
"*  c #25130C",
"=  c #2B150D",
"-  c #2D180E",
";  c #32150F",
":  c #38170F",
">  c #36190F",
",  c #3A1A0F",
"<  c #241610",
"1  c #281513",
"2  c #2F1C18",
"3  c #331711",
"4  c #341A12",
"5  c #3B1C12",
"6  c #3F2216",
"7  c #37231D",
"8  c #3D241C",
"9  c #2E2923",
"0  c #372423",
"q  c #3B2623",
"w  c #3E2C25",
"e  c #431E14",
"r  c #442215",
"t  c #4B2316",
"y  c #45241B",
"u  c #4C261A",
"i  c #432A1E",
"p  c #4D291D",
"a  c #522517",
"s  c #582417",
"d  c #552917",
"f  c #542618",
"g  c #5C271A",
"h  c #542A1C",
"j  c #5B2C1D",
"k  c #59301F",
"l  c #612C1E",
"z  c #65311F",
"x  c #6C301F",
"c  c #422721",
"v  c #452C23",
"b  c #4B2C22",
"n  c #482F28",
"m  c #532E23",
"M  c #5B2F22",
"N  c #473127",
"B  c #4B3124",
"V  c #47352C",
"C  c #4C332B",
"Z  c #543226",
"A  c #5B3224",
"S  c #54352C",
"D  c #5B362A",
"F  c #53392D",
"G  c #5D3A2C",
"H  c #4C3630",
"J  c #4D3932",
"K  c #4B3F3A",
"L  c #533630",
"P  c #5A3730",
"I  c #533A33",
"U  c #5C3C33",
"Y  c #5C3E38",
"T  c #622F23",
"R  c #643424",
"E  c #6B3525",
"W  c #653A27",
"Q  c #6E3925",
"!  c #643629",
"~  c #6C372A",
"^  c #643B2C",
"/  c #6C3C2C",
"(  c #723623",
")  c #733A26",
"_  c #7A3D26",
"`  c #723728",
"'  c #733D2B",
"]  c #7A3E2B",
"[  c #643E32",
"{  c #6B3E31",
"}  c #623F39",
"|  c #733E31",
" . c #7B3E31",
".. c #5E4037",
"X. c #5C423A",
"o. c #6C412E",
"O. c #794127",
"+. c #75412D",
"@. c #7B422D",
"#. c #654135",
"$. c #6D4233",
"%. c #6C4837",
"&. c #64443A",
"*. c #6D453A",
"=. c #67493E",
"-. c #6D493C",
";. c #744434",
":. c #7B4433",
">. c #754836",
",. c #7C4935",
"<. c #744639",
"1. c #7B4639",
"2. c #75493A",
"3. c #7B4B3B",
"4. c #7E503E",
"5. c #674840",
"6. c #6A4A41",
"7. c #764642",
"8. c #744C42",
"9. c #7C4D41",
"0. c #704F48",
"q. c #7D5142",
"w. c #803F31",
"e. c #81432E",
"r. c #824534",
"t. c #894634",
"y. c #834935",
"u. c #894B36",
"i. c #824639",
"p. c #834C3B",
"a. c #8A4D3B",
"s. c #84513E",
"d. c #8C513E",
"f. c #93553F",
"g. c #824E41",
"h. c #835242",
"j. c #8A5443",
"k. c #8B5947",
"l. c #86564A",
"z. c #89554A",
"x. c #8C5848",
"c. c #925544",
"v. c #945A45",
/* pixels */
"K J I J L J Y J I I I H H J I V J H J X.w 7 L U L S P } U L S L L Y I &.} } U U } #.C &.5.#.&.&.6.0.#.c % 9 H ..X.=.X.X.U I P Z ",
"H H Y Y U U ..Y Y ..C U Y P I P P U [ U v &.<.*.<.3.3.9.h.3.2.h.9.9.l.9.2.2.2.9.q.8.q.8.l.q.2.8.2.9.2.8.c 2 =.&.0.5.=.6.5.=.<.P ",
"I Y 6.5.=.[ [ U *.&.&.2.8.#.U #.*.} #.*.S *.1.{ ;.<.;.1.1.;.;.1.3.$.{ / { ;.$.$.;.;.>.{ { *.$.<.*.>.*.*.Z 4 &.#.=.&.%.&.&.%.2.F ",
"Y &.8.6.9.-.#.%.2.2.<.[ #.[ #.h.<.[ #.2.! ;.| | ;.;.1.| ;.;.| ;.$.1.{ ^ { { ~ | ;.;.' +.{ ;./ ;.;.>.;.*.B 4 ..#.I &.-.-.;.^ ^ ^ ",
"I &.8.8.>.>.>.+.p.3./ ^ ;.,.;.:.+.' >.;.z ( _ ( ) _ _ e.] ] ] ] ] ) @.i.r.] ) ) @.] e.@.+.@.@.] +.@.,.:.k 5 [ $.#.;.$.;.^ #.[ [ ",
"I 6.6.q.1.>.>.;.$.>.;.+.1.,.;.;.1.+.:.:.z R _ _ ] _ ) ] ] ] ' ] ] ' ' ~ +.] _ ) @.e.] w.t.e.@.+.O.@.:.:.j 5 #.<.$.>.>.^ %.$.#.*.",
"X.=.2.9.>.>.>.o.>.o.o.>.3.d.,.:./ o.1.3.h Q e.@.] ) ' ] ) ] E ) ] ;.' ' e.] ] ] e.e.] @.e.e.:.O.,.O.+.p.^ 6 %.<.>.4.$./ ;.*.#.D ",
"Y X.8.q.p.3.>.>.,.$.>.%.,.>.3.,./ +.;.$.A E t.@.] ) ~ ] +.] ( ( ` ) ) ) e.] _ r.e.e.] ] _ @.@.@.+.,.,.,./ r q.&.$.$.o.#.%.%.G F ",
"C U %.q.1.;.a.| >.>.$.;.;.;.;.>.>.;.;.{ M R y.e.O.W ) :.) ) ~ ] ] 1.:.+.e.@.r._ ] ) ) ] ) @.@.O.+.@.+.@.! p <.%.$.o.W o.$.;.#.Z ",
"0 S #.%./ <.2.;.<.3.<.;.#.;.>.o.{ ;.$.<.! ~ +.' @.] ) ) ) E ' ) ' r.t.y.@.@.O.' ] _ ] _ ) O.@.@.+.@.+.+.W G $.o.o...W G o.#.#.D ",
"% @ 5 > 5 t e a 5 a h M h a a h t r u u > / 1.) ] ) ) ] ] e._ ) ( Q ] :.,.O.e.O.+.+.+.' o.) Q O.o.O./ +.! h 3.%.o.$.o.G $.o.D Z ",
"w b h m ! R ! ! / g f E ~ ! E W Q R R R t h ] e.@.) _ ] _ t.] ) ] ' ` e.t.e.e.@.,.;.+.1.;.O.Q ~ Q Q / :.~ m %.o.^ #.D o.^ G G D ",
"P [ / | :.;.| ;.y.i.i.i.y.:.i.p.i.t.i.+.M a  .w.w._ e.O.] ] e.' | ] e.d.u.e.u.,.u.p.d.a.:.@.O.] O.o./ +.~ u *./ W #.^ / ^ G G Z ",
"H [ ;.g.:.:.y.y.y.;.,.1.1.:.i.y.u.i.u.p.| t  .w.( @.] @.w.@._ +.:.] :.u.O.@.u.@.i.@.:. .| ) O.) O.+.+.+.T y #./ ! ^ o./ $.G ^ Z ",
"I *.9.g.1.+.a.y.1.1.;.1.' 1.p.i.p.i.a.g.p.t  .' ] @.@.] +.] t.+.] ] ;.+.,.y.y.,.@.Q / O.] ] ] _ O.@.;.] Q e %.<.3./ / #.$.^ G B ",
"Y 7.1.1.:.1.1.:.1.>.i.y.:.;.d.a.i.i.i.a.1.h  .| ] ] ) ) ] ) @.:.o.+.+.+.u.u.e.@.,.O.:.+.Q +.~ +.r.+.+.:.Q 5 [ ;.{ { $.$.^ #.#.Z ",
"I <.g.1.i.1.;. .:. .1.+.1.y.d.1.u.:.i.1.1.d i.~ Q @._ +.r.] ) ] +.+.] +.+.;.' :.@.@.:.] Q ) ] @.@.,.,.,.Q 6 [ ;.$.[ ^ $.o.$.^ b ",
"U } <.<.| ;.' 1.:.;.:.1.1.:.i.:.;.] i.i.' t | ' ! ] ] ) ] ` ] ) +.:.] +.r.' ' r.+.) ' +.O.) O.+.@.O.+.+.! y [ { | { ! ! #.#.G b ",
"I -.| <. .;.p.;.:.:.>.>.>.i.i.i.y.i.i.y.1.r / ` ~ ' ] Q ' ' ' / :._ ] ' ' ~ | w.' ~ ~ O.;.+.' ;.+.{ +.+.h h >.{ #./ ^ #.#.&.S v ",
"I 8.{ <.;.;.:.| :.:.p.,.p.p.p.:.p.a.y.y.i.e ;.:.+.y.>.;./ ;.:.:.r.~ ' ' ]  .i.| / ] ' :.i.>.3.:.| 1.;.+.5 Z 2.1.;.*.#.>.$.^ ^ B ",
"L 7.9.<.i.:.:.' ;.y.1.p.a.i.i.;.a.u.1.i.1.5 ! 1.+.u.j.3.2.,.1.:.' / / ~ | | ;.| 1./ { ;./ W / ^ ! ! ~ p   < ^ ! m { A M G p Z v ",
"L <.<.;.:.i.:.p.] i.:.u.a.y.u.:.,.:.r.p.u.3 t ! ! h R a r r r 5 5 t 6 6 b 5 5 : ; * @ = 5 5 r p r t a b y p Z A u e e A G r X # ",
"L 8.;.{  .y. .:.;.i.i.u.u.:.1.1.y.1.i.a.j.3 , k ^ ^ ^ $.A A o.^ 3.h.2.$.<.{ 1.;.$.^ : ! 3.q.2.3.9.l.3.g.9.2.2.s.h.y.>.2.2.<.p = ",
"I 7.;.;.:.' ;.' :.y.r.:.r.:.r.a.p.:.y.y.,.5 p 3.>.%.*.>.>.3.s.s.p.p.3.1.1.y.1.1.p.,.t *.#.;.3.<.1.k.3.>.2.3.3.h.3.3.>.9.2.;.{ u ",
"P <.$.<.:.r.r.+.1.p.r. .+.y.a.y.p.:.:.:.:.t ^ 2.4.2.<.3.*.>.3.4.2.3.3.y.1.1.3.p.s.r.a #.;.#.$.>.9.h.3.>.3.4.4.4.3.>.2.h.2.>.$.m ",
"I 9.3.<.i.p.y.y.i.:.:.:.i.i.y.r.+.r.y.p.1.r *.2.2.2.<.h.3.3.3.3.3.2.3.>.<.3.g.1.4.+.a $.3.,.;.h.1.s.%.$.3.s.q.3.3.2.;.3.2.2.<.G ",
"n 9.3.3.r.1.i.:.:.:.i.p.y.:.:.| :.y.p.u.>.t -.2.q.q.9.q.3.9.9.p.h.3.h.g.p.g.j.p.3.@.d %.<.3.2.<.9.<.$.$.3.h.q.8.8.4.2.2.<.<.3.m ",
"Y 2.;.<.{ | i.i.y.r.y.y.,.:.i.;.:.:.p.i.+.r %.2.3.9.q.3.3.3.9.3.3.3.9.3.9.3.3.3.>.>.p 2.4.2.2.>.3.<.*.%.<.4.3.q.3.s.q.3.2.3.7.b ",
"Y 9.>.;.| ;.y.p.a.a.y.] :.d.:.' :.:.,.,.+., #.4.2.q.q.9.2.3.3.9.g.3.3.h.>.3.3.3.1.3.r %.k.d.2.>.;.;.2.3.<.2.4.q.*.h.h.9.g.9.9.m ",
"I 7.{ <. .p.i.a.:.p.i.r.] i.:. .r./ ,.y.3., [ 2.<.2.<.3.3.2.2.3.3.3.g.p.1.2.<.3.3.4.r $.j.j.>.3.#.o.3.2.3.3.3.>.*.3.2.3.1.p.-.m ",
"Y } | 3.1.1.i.:.:.p.a.y.+.| y.:.:.1.,.y.,., ^ 4.-.2.;.9.9.p.9.<.3.3.j.g.3.3.;.<.p.h.u ^ h.>.3.2.;.2.3.2.2.4.j.p.p.$.;.<.g.1.<.G ",
"L *.1.9.{ 1.i.1. .1.i.1.:.+.:.:.:.i.t.u.,.; ^ 2.2.*.>.3.h.h.1.2.2.3.s.3.3.3.p.h.s.,.r ^ 3.%.3.3.;.3.2.;.<.<.>.j.h.;.;.g.g.<.2.b ",
"H 7.9.j.p.| | 1.r.p.i.r.r.' ' :.a.i.1.u.,.= ^ >.>.4.<.d.h.2.3.2.<.-.1.j.>.p.z.s.j.g.5 m 2.3.j.*.,.4.h.3.$.<.3.3.3.3.p.3.g.9.9.p ",
"I g.p.<.i.:.:.1.i.i.:.] :.+.;.:.:.e.+.i.R & D *.3.3.*.j.3.2.3.3.<.>.3.>.3.3.h.3.p.9.5 b 9.q.3.*.>.3.s.3.<.2.2.*.2.3.h.3.j.3.9.u ",
"C 9.p.3.| 1.1.w. .r.1.+.i.] O.:.] i.:.p.E o ^ ;.<.2.2.*.<.4.p.2.;.2.>.3.3.3.q.3.h.2.r h 3.3.%.#.2.<.9.1.2.2.2.3.3.3.3.p.g.9.*.h ",
"L g.3.2.| >.;.r.i.:.;.:.:.:.i.;.:.:.i.p.>.& m >.%.2.3.1.2.%.%.<.1.2.2.<.g.q.3.3.p.q.p u h.p.$.p.<.>.;.3.<.3.3.3.4.>.>.3.3.2.2.m ",
"v g.g.7.1.y.1.1.i.a.] ~  .i.:. . .i.,.y.3.= Z #.>.2.>.h.3.;.*.;.3.h.2.;.3.h.q.;.j.x.b y h.h.2.1.>.<.3.1.2.3.p.3.>.>.1.3.3.>.2.m ",
"Y 7.9.2.p.i.;.| a.i. . .a.p.r.] y.i.r.r.>.3 D 2.3.,.$.>.3.2.>.p.3.3.3.3.3.q.h.2.p.h.m m j.s.>.3.3.3.3.p.3.3.<.1.;.3.>.,.1.3.} m ",
"L 8.g.h.j.1.:.;.i.a.| <.i.+.p.y.,.r.u.d./ r #.3.,.4.%.;.3.<.2.3.*.3.3.3.2.4.3.*.3.h.p p s.x.>.>.3.3.d.1.;.;.3.1.3.j.,.p.1.>.;.m ",
"q 0.9.l.j.y.c.a.j.g.2.1.1.,.s.d.p.s.>.s.k * #.$.%.3.2.2.1.2.3.3.2.;.3.4.3.h.>.3.3.9.m p s.3.3.3.2.3.3.2.{ 2.;.<.g.g.3.3.1.<.;.D ",
"2 8.h.z.y.p.v.v.a.p.p.y.3.p.p.,.y.3.3.s., # ..$.%.2.>.3.2.s.>.>.$.>.1.;.<.3.p.<.i.<.A p 3.3.-.$.3.3.1.p.1.>.>.3.;.>.,.3.>.s.3.Z ",
"% 8 q.z.g.3.j.h.k.k.p.g.3.p.p.1.,.y.u.k.r . B %.%.G *.$.2.>.%.3.^ $.*.~ ;./ | { { { A m %.;.;.*.<.3.y.1.1.>.;.;.1.1.i.;.1.3.p.Z ",
"$   . 5 h h h M A M f M ^ ! Q E / W E k r o 6 t j j d d j k j k t d f t a r e e r = X b <.<.3.4.3.3.1.;.>.y.o./ p.p.o.;.3.j.3.Z ",
"2 < @ r T l j j M A 3 . , E ` ~ / / A +.+.,.+.o./ ;.1.>./ o.@.+.' :.p.p.3.i.@.:.+.R @ t 3.3.q.h.1.1.<.h.p.1.p.>.y.1.1.>.p.p.3.m ",
"C Y [ 2.a.r.@.:.i.p.<.3 j E ) +.+.>.:.,.>.y.y.>.' p.a.y.:.;.,.t.r.i.p.y.d.f.s.+.r.t.A u 4.3.9.h.h.3.2.3.3.,.d.s.p.>.@.>.p.x.q.F ",
"C D $.1.' | +.;.a.p.p.s g l ! +.;.+.:.,.:.,.:.:.] +.r.:./ ] 1.1.] +.,.t.,.O.d.u.,.o.R k 3.4.3.3.h.>.3.3.3.1.3.s.3.:.,.i.h.q.q.U ",
"C Z ~ $.| r.' ' :. .' s E R / ~ o.3.t.r.,.e.) ~ O.:.:.O./ ' | y.:.i.:.i.+.u.d.@./ :.Q k 4.p.>.3.9.3.3.3.>.1.1.>.:.>.p.3.4.2.x.{ ",
"B Z ! | w.w. .| :.| R T ~ ] +.+.+.,.O.O.O.O.@.@.e.+.@.@.+.+.i.p.y.+.+.@.,.@.+.,.+.:.~ h k.h.<.3.4.h.1.2.>.p.,.1.h.y.,.3.,.<.9.{ ",
"N m ~ 1.w.w.) ) :. .E g  .| :.@.+.) Q O.e._ ( _ e._ ) @.+.r.y.] y.@.] ] y.r.:.r.:.1.~ M 3.q.3.9.k.2.;.3.1.1.1.3.1.i.,.s.3.>.<.#.",
"C m ~ ' ] ] ] _ ~ i.~ s `  .] r.O.) ) ( ( ( @._ _ @.O.@.O.e.e.r.r.:. .] ,.:.,.:.:.i.! h 2.>.3.>.;./ / *.;.y.;.>.;.@.1.,.>.1.3.^ ",
"C m ! / ] ` ] w.` r.E s | ' ' :.O.o.( ( ( Q _ ) Q _ _ ) O.,.) @.e.) +.y.@.r.r.O.:.y.E t 2.;.;.<.>.*.<.*.>.;.;.$.;.o.1.;.;.2.2.i ",
"C b D ~ ` ` _ ( ' ' / e { ' +.i.e.z ( ) _ ] @.] ) ) ) Q ) ' +.:.' ( ] @.] ) :.' ,.e.R e ;.$.>.1.2.>.>.>.<.y.2.j.$.>.+.,.3.-.b 1 ",
"n Z ! ! ` ` ] w.] @.o.t { / ' :.,.Q x x ( ) ) ) ) ( ( e.) ) ) ' ] ] )  .) r.] +.@.,.o.@ t t t u u t u 5 3 5 4 4 6 4 = * * + O % ",
"C m { ^ ] ` r.t.@.@.W t ;.' ' ;.@.:.) ) ( E E ) Q E ) _ ] ) ) ( ) ) :. .] +.:.+.,.+.o.= u E R T R R j s m j t d a t f f u 5 & . ",
"n m / / ` ' r.e.( :./ t >.:.+.@.@.+.] Q E z E ( Q ] ( ) ) e.] ] ) ] e.) @.@.+.@.,.+.z 5 E r.w.r.y.r.` ) i.d.u.u.y.i.:.p.p.s.| 1 ",
"n A ! { ] ] ( ~ @.a./ t ;.;./ +.' +.) Q Q ) ] E ) _ ) +.+.y.w.] ) ) ) @.,.O.O.@.+.@.W a i.t.] e.e.] :.] t.r.r.u.@.@.:.+.3.3.1./ ",
"v Z ~ 1.;.+.~ :.u.p./ 6 +.>.O.+./ :.] ' Q +.:.y.+.' ) ' ) ] :.) @.O.Q ) O.O.+.:.;.+.~ A t.t.t.e.@.] r.] y.t.:.r.y.t.p.i.3.d.,.+.",
"v S ^ | ;.;.:.>.y.d.Q , $.;.,.@.) :.' ;.+.;.+.+.] ~ / ' ~ ) @.O.@.~ Q ' ) O.) :.| ' l j y.r.w.y.:.i.r.e.] u.y.y.r.,.i.u.d.s.p.$.",
"n P { 1.:.:.s.y.,.s./ r *.+.:.@.+.:.' +.:.:.:.,.:.>.1.) ' ] e.t.+.) ) _ O.O.e.:.;.+.E j u.r.@.y.] r.a.t.r.i.i.y.u.y.:.y.p.p.p.{ ",
"n } 2.2.:.,.p.p.s.4.o.r / ) ,.>.;./ :.' ' :.:.+.] :.:.+.' +.i.+.) ) ] :.+.e.@.:.;.+.R d u.e.:.@.:.r.] y.i. .r.y.y.p.a.r.i.p.p.^ ",
"V U [ 3.3.p.p.p.g.9.[ = ;.p.>.$.$.#.:.;.$.<.;.+.o.;.:.,.1.>./ / / / +.:.o./ ' +.+.+.k h :.y.:.;.y.' ' :. . .1. .:.i.:.:.,.:.;.G ",
"H ^ $.p.1.a.;.;.1.1.S X D p.1.>.;.<.:.<.1.;.;.;.$.;.;.3.1. .;.;.+.o.;.>.1.>.{ / ~ / k h :.] :.' ] R / ;.{ ] ~  .:./ ~ $./ W / Z ",
"B ^ 3.g.3.1.[ ;.g.p.G X 6 { 3.3.<.<.2.3.9.$.<.3.<.<.;.<.2.2.<.<.;.$.>.>.<.;.*.;.+.;.D h ' ~ ' / A ! R R ! ! W ~ ~ ^ W ! ^ Q R i ",
"B Z D D S m Z Z ^ ^ Z % + 2 A ^ Z G S b b c y b p v Z b b b c 6 6 y p Z v i p Z b Z 5 b { G A Z Z A m Z m Z A Z A G D D Z D m i "
};
