/* XPM */
static char *result[] = {
/* columns rows colors chars-per-pixel */
"64 64 174 2 ",
"   c #202020",
".  c gray22",
"X  c gray25",
"o  c gray19",
"O  c #808080",
"+  c #888888",
"@  c #2A2A2E",
"#  c #101010",
"$  c #171719",
"%  c gray3",
"&  c gray47",
"*  c #282828",
"=  c #22362E",
"-  c #2E4236",
";  c #484848",
":  c #686868",
">  c #A0A0A0",
",  c #606060",
"<  c black",
"1  c #1A2E26",
"2  c #505050",
"3  c #344C3C",
"4  c #989898",
"5  c gray44",
"6  c #566A5A",
"7  c #585858",
"8  c gray66",
"9  c #4B5D51",
"0  c gray10",
"q  c #1D1D1D",
"w  c gray8",
"e  c #272727",
"r  c gray21",
"t  c #3A3A3A",
"y  c #2C2C2C",
"u  c #252525",
"i  c gray17",
"p  c #323232",
"a  c #464646",
"s  c #565656",
"d  c #5B5B5B",
"f  c gray29",
"g  c #343434",
"h  c gray14",
"j  c #2D2D2D",
"k  c #414141",
"l  c #4C4C4C",
"z  c #313131",
"x  c gray30",
"c  c #656565",
"v  c #747474",
"b  c #797979",
"n  c #6A6A6A",
"m  c gray32",
"M  c #373737",
"N  c gray28",
"B  c #626262",
"V  c #535353",
"C  c gray18",
"Z  c gray54",
"A  c gray57",
"S  c #848484",
"D  c gray13",
"F  c #3E3E3E",
"G  c #979797",
"H  c #898989",
"J  c #727272",
"K  c #222222",
"L  c #444444",
"P  c #5F5F5F",
"I  c gray45",
"U  c gray51",
"Y  c #929292",
"T  c #909090",
"R  c #777777",
"E  c gray24",
"W  c #9A9A9A",
"Q  c gray68",
"!  c #939393",
"~  c #717171",
"^  c #7E7E7E",
"/  c #868686",
"(  c #9B9B9B",
")  c #A7A7A7",
"_  c #3C3C3C",
"`  c #B1B1B1",
"'  c #AEAEAE",
"]  c #9F9F9F",
"[  c #3F3F3F",
"{  c gray40",
"}  c gray53",
"|  c gray55",
" . c gray61",
".. c #8B8B8B",
"X. c #515151",
"o. c gray31",
"O. c #B7B7B7",
"+. c #B4B4B4",
"@. c #AAAAAA",
"#. c gray58",
"$. c #4E4E4E",
"%. c #818181",
"&. c gray49",
"*. c gray56",
"=. c gray60",
"-. c #494949",
";. c gray64",
":. c #A2A2A2",
">. c #646464",
",. c #7B7B7B",
"<. c gray63",
"1. c #959595",
"2. c gray67",
"3. c gray75",
"4. c #BCBCBC",
"5. c gray70",
"6. c #434343",
"7. c #2A2A2A",
"8. c #A5A5A5",
"9. c #7C7C7C",
"0. c gray20",
"q. c gray11",
"w. c gray50",
"e. c gray74",
"r. c #B9B9B9",
"t. c #5D5D5D",
"y. c gray15",
"u. c #6D6D6D",
"i. c #8D8D8D",
"p. c gray59",
"a. c #ACACAC",
"s. c #2F2F2F",
"d. c #4B4B4B",
"f. c #676767",
"g. c #A9A9A9",
"h. c gray48",
"j. c #353535",
"k. c #AFAFAF",
"l. c gray26",
"z. c #B2B2B2",
"x. c #9D9D9D",
"c. c #8E8E8E",
"v. c #555555",
"b. c gray16",
"n. c gray33",
"m. c #6C6C6C",
"M. c #838383",
"N. c #A4A4A4",
"B. c gray52",
"V. c gray43",
"C. c #393939",
"Z. c gray38",
"A. c gray73",
"S. c gray34",
"D. c #767676",
"F. c #6F6F6F",
"G. c gray65",
"H. c gray37",
"J. c gray35",
"K. c DimGray",
"L. c gray12",
"P. c #5A5A5A",
"I. c gray39",
"U. c gray71",
"Y. c #232323",
"T. c gray23",
"R. c gray27",
"E. c #191919",
"W. c gray46",
"Q. c gray42",
"!. c gray36",
"~. c #131313",
"^. c #161616",
"/. c white",
/* pixels */
"  . X . o   O + O @ # $ $ $ $ # # $ $ $ # # % & & O O * * = - * = - * * . O + O @ # $ $ $ $ # # $ $ $ # # % & & O O o . X X   * ",
"* ; ; ; ; * : > + , $ $ $ $     #   * *   < * O & + : * o 1 # o $ 1 o o * : > + , $ $ $ $     #   * *   < * O & + : X ; ; ; * 2 ",
"X o ; 3 ; * o > 4 & , # $ $ * * # $ * * * o 5 & & + o o * * 1 ;   * * * o . > 4 & , # $ $ * * # $ * * * o 5 & & + * X ; ; . . 5 ",
", * ; ; - o o > > 4 & O O 6 * @ $ $ # & + O & & O : * o * * * : o * * o * o > > 4 & O O 6 * @ $ $ # & + O & & O : o . ; ; * ; & ",
"& ; o ; ; o o . > 4 + + O 7 $ # $ $ # O + O O O + = * o * $ 7 : : 1 * o * . o > 4 + + O 7 $ # $ $ # O + O O O + o o X ; . . O ; ",
": O - - ; * * o > 4 4 O & : % $ $ $ . 4 + O + + + . o o $ . O 2 O ; # o o o o > 4 4 O & : % $ $ $ . 4 + O + + + * * ; 3 = 5 & * ",
"; O O ; X o o o . 8 4 + O & : @ * ; + + + + + + * = * $ . O & X : + ; # * . o o 8 4 + O & : @ * ; + + + + + + o o o . ; 5 O 7 o ",
"2 7 & & ; * o = . . > 4 + + 4 & & + + + + O 4 o o *   ; & & 6 ; 2 & O 2   * o o . > 4 + + 4 & & + + + + O 4 . = o * X & & 7 7 ; ",
"3 , , : + , * * . o * . 4 4 + O & + + + + * o o * * : + , : , ; 6 : : & & = * o o * $ 4 4 + O & + + + + * o . o * ; + : , , 9 0 ",
"q ; 2 ; : + ,   . o o * - , + + + + + @   * o * * & + , ; : ; w X : 2 7 O + *   o *     , + + + + + ; * = * .   ; + 5 ; ; 2 e r ",
"t y o 7 5 O + ; * o o o   * 9 7 7 2 *   * * o   : + , 5 , . u i e o 7 5 , + &   * * * *   ; 7 7 2 o 1 * o * @ - + O 5 , . p a s ",
"d f g h : O O O * o * o o *   * @ 1 1 o * o * o O : 5 : * j k l a p   : & : + ;   o * o 1 1 * *   * * o * * @ : + & & . z x c v ",
"b n m M   & + + 2 * * * o * = * - 1 * * o o   : & & & * i N B 5 : V t   : & & & * o o * o   = o * * o * = * X + + + X C l B b Z ",
"A S n f j , + + 5   o o o * = * - * o o o * 1 : & O 2 D F , S G H J s . X O : & * 1 o o o * - * = * o o o   7 4 + 5 K L P I U Y ",
"> T R s E ; + 4 + ; * @ o o o * ; o * . *   2 + & O o y l v W Q > ! I V C & & + 7 *   . * * X o o o o * * X & 4 4 7 z s ~ ^ / ( ",
") 4 U : ; . + O & O : * * o o o X o o * * , & & : O * _ , H ) ` ' ] S : [ & & : & : o   * * . o * o * * 7 O & & + 2 [ { & } | G ",
"]  ...I X.; + & , : + & * * o o - o * * & & 6 , & + o o.I W ' O.+.@.#.& V + & , 6 : + . * o - o o *   : 4 : , : + : $.I %.&.*.G ",
"] > =.%.B -.= 9 5 & : + : * o o X * * , , 2 : & 9 X ; B U ;.` O.O.` :...n a ; : & 7 7 : * * . o o * ; + : & & 7 = = >.,.} O } G ",
"] ;.<.#.,.B -.g = : + O O - * o X   ; O : & 5 * j -.{ ,.1.2.+.O.3.4.5. .%.>.6.7., & : O 7   . o * o & O + & o h M X.v + T Z } G ",
"] 8.8 ] | 9.c l 0.q.5 + & : * o . * : & : & @ p f { w.! ] ` e.3.3.e.r.) ! &.t.k y.: 5 : & * o o * 2 O + O o u t o.u.i.;.p.| } *.",
"] ) a.8 =.A w.{ a y - + + & * * . o & & & ; s.d.f.U 1.8 r.4.3.3.O.O.+.g.=.! h.d j.o & & O ; o o * : + + 9 K _ s { T 8.8.;.i.} *.",
"] ) k.Q ;.G | R d _ @ & 4 & o * o ; O & O * l.P ^ T 8.z.e.3.3.k.k.) ) x.( :.c.c l.y.& & O 7 * o * : 4 + o g v.R 1.@.` +.8.G } *.",
"] ) k.k.) x.*.w.n f b.5 4 O ; * o ; & & & s.n.m.M.p.N.k.3.3.O.) ] ] ] G *.( Y m.l o : O 5 , = o . & 4 O u l.m.T a.4.O.k.] *.*.G ",
"] ) k.O.k.] #.B.V.V o : 4 4 ; * * ; O & : C.Z.R S ! ) O.3.O.k.) G *.] G ] 8.G &., M 7 O & , * * . + 4 & j v.M.) A.3.k.] G } *.G ",
"k.O.3.3.3.O.Q G &.S.j.: 4 O ; *   2 & + , [ >.~ H 1.) O.3.O.) G G G ] ) k.k.4 %.>.t 9 + & : * * - O 4 & p , H Q e.O.) G G G G ) ",
"3.3.3.3.3.3.O.8 i.c [ 6 + + 2 * * 7 & O , l.>.v A ] k.3.3.O.) ) ) k.k.O.O.k.( U B t ; O & : * * ; + + : E : ! ' O.] ] ] ] ] ) O.",
"3.3.O.O.O.3.3.5.G V.a & + 4 + & 5 + + + : 6.B D.! k.O.3.3.O.k.k.k.k.k.k.k.)  .| c k 6 + O + & & O 4 + O 6.m.*.:.) ] ] ] ] ) k.3.",
"O.k.) ) k.O.O.a.( R x O & O O + O + + 4 + X , &. .k.O.O.O.k.] k.O.k.) ] ] ] p.*.F.N & 4 + + O + + O & + a V.Z 1.G G ] ] ] k.O.O.",
") *.G G ] ) ] G.4 &.n.: : & , : : : & + 6 X H.h.x.) k.k.) ) k.k.k.) ] G G *.*.} u.2 ; + & : : : 7 & : & f J } c.G G G ] ] k.O.O.",
") ] ] ] G ] ) g.] w.s p X X 3 - ; 3 - 6 * l.H.^ G ] ] ] ] k.O.O.k.) ] G G G Y c.R 7 0.2 3 ; ; 3 - ; X o n.& ..G G ] ) ) ) k.O.k.",
") ] ] G G ] ) a. .,.J.. - 2 ; : 6 ; 2 o * -.K.H W *.*.*.) k.k.) ) ) ) k.k.)  .! O H.F L.; ; ; : 2 2 ; o P.&.c.W ] ] ] ) k.O.O.k.",
") ] ] ] ] ) k.Q G & n.r ; & ; : 9 2 : - 7.-.J ( N.G G ) k.O.k.) ) k.O.O.3.O.Q G...I.X h , 7 ; : ; & 7 p d ,.Z ;.] ] ] k.O.O.O.) ",
") ] ] ] ] ) k.8.A b X.j.. O , , 7 , , * C V b :.N.G ] k.k.k.) ) k.O.3.3.3.3.U.' Y : L y., , 2 , 7 O ; p d ,.A ( ] ) ] k.O.O.O.) ",
"G *.G ] ) ) ) N.p.& J.r 0 & : : , 7 ,   z v.&.( N.) ) k.k.) ) ) k.3.3.3.3.3.4.@.! u.L Y.6 6 , : : & o j V J } <.) k.O.O.O.O.k.] ",
"G *.G ] ) ) ) <...J v.p X X 3 - ; 3 3 6 s.v.h.p.<.) ) ) ) ) ) k.O.O.O.O.k.k.g. .M.Z.T.2 3 ; ; 3 - ; X o x V...G.k.k.O.O.O.O.) G ",
"G *.] ) ) ] ] G w.n l : : & , : : : & + 6 x I Y G.) ) ) ) ) ) k.O.O.k.) ) ) ] c.J n.; + & : : : 7 & : & L : } a.3.O.O.O.O.O.) ] ",
"] G ) ) ] ] ] p.U P 6.O & O O + O + + 4 + L : c.a.) ] ] ] ) k.O.O.k.] ] G ] x.+ n N & 4 + + O + + O & + E , S N.O.k.O.O.O.k.) ] ",
"] ] ] ) ] ] ] 1.w., F & + 4 + & 5 + + + : E K.T 5.k.) ] ] ] k.O.O.) ] G G G 1.B.c k 6 + O + & & O 4 + O M H.U :.O.O.3.O.O.k.] ] ",
"] ] ] G ] G G Y %.c C.6 + + 2 * * 7 & O , E f.1.` O.) G ] ] k.O.O.] ] ] G G | U B E ; O & : * * ; + + : g s h.4 k.O.O.O.k.k.] ] ",
") ) ] ] G G x.G &.d j.: 4 O ; *   2 & + , t : ! ' O.) *.G ] ) k.k.) ) ] G ] 4 } P t 9 + & : * * - O 4 & p m R T 8.k.) O.k.k.) ] ",
"k.k.) ] ] ] N.( B.d.C : 4 4 ; * * ; O & : C.B c.a.+.] G G G ] ) ) ) ) ] ] Q ] M.d j.7 O & , * * . + 4 & j l m...( ) k.O.k.k.) ) ",
"O.O.k.) ) 8.G.W F.l.u 5 4 O ; * o ; & & & o 7 M.( ]  .G G G G ] ) k.) ) k.z.> M.X.j : O 5 , = o . & 4 O u l.B M.p.N.k.k.k.k.) k.",
"O.O.O.Q ;.G.:.M.P C.@ & 4 & o * o ; O & O u N c &.S c.! 1.*.G ] ) k.k.Q z.@.( n l.h & & O 7 * o * : 4 + o z m I H x.@.Q ) k.k.k.",
"k.O.+.8 =.4 B.{ a 7.- + + & * * . o & & & ; s.R.s ~ } ..Y #.] ] ) k.a.` 8 ! h.V p o & & O ; o o * : + + 9 Y.F H.9.c.<.` N.O.k.k.",
") Q 8 4 | U c ; C E.5 + & : * o . * : & : & @ i F J.V./ A W x.) ) Q g.] ! &.t.F K : 5 : & * o o * 2 O + O o j N Z.w.W ] 8 Q k.] ",
"] ( Y c.,.f.-.j = : + O O - * o X   ; O : & 5 * i a { %.c.1. .) ) a.N.1.%.>.6.* , & : O 7   . o * o & O + & o j -.n /  .:.a.) ] ",
"G A ..%.m.-.= 9 5 & : + : * o o X * * , , 2 : & 9 X o.m.U c.Y ] ) g.( B.n a ; : & 7 7 : * * . o o * ; + : & & 7 = V D.c.1.W ] G ",
"G i.S & J.; + & , : + & * * o o - o * * & & 6 , & + o S.u.w.+ ] a.:.c.I o.+ & , 6 : + . * o - o o *   : 4 : , : + : d ^ ..p.) ] ",
"G H U u.l . + O & O : * * o o o X o o * * , & & : O * 6.d D.U W ' ] ^ d M & & : & : o   * * . o * o * * 7 O & & + 2 6.>.h.T N.] ",
"A H R P E ; + 4 + ; * @ o o o * ; o * . *   2 + & O o z X.K.w.G > i.K.a y.& & + 7 *   . * * X o o o o * * X & 4 4 7 0.X.u.|  .;.",
"Z J c x j , + + 5   o o o * = * - * o o o * 1 : & O 2 D T.S.I Z H J o.j X O : & * 1 o o o * - * = * o o o   7 4 + 5 h l.d W.T =.",
"I d N j.L.& + + 2 * * * o * = * - 1 * * o o   : & & & * i 6.J.Q.: V j.  : & & & * o o * o   = o * * o * = * X + + + X C R.B b Z ",
"V [ y   : O O O * o * o o *   * @ 1 1 o * o * o O : 5 : * i F -.a j.  : & : + ;   o * o 1 1 * *   * * o * * @ : + & & . C 6.!.F.",
"p y.o 7 5 O + ; * o o o   * O O + 4 &   * * o   : + , 5 , . u b.u o 7 5 , + &   * * * *   O O + 4 & 1 * o * @ - + O 5 , . b.E $.",
"0 ; 2 ; : + ,   . o o * + 4 O : 2 , O 4 4 * o * * & + , ; : ; ~.X : 2 7 O + *   o *   + 4 O : 2 , O 4 4 = * .   ; + 5 ; ; 2 D s.",
"3 , , : + , * * . o 4 5 7 2 7 7 - X ; ; ; & 4 o * * : + , : , ; 6 : : & & = * o o 4 5 7 2 7 7 - X ; ; ; & 4 . o * ; + : , , 9 ^.",
"2 7 & & ; * o = . 4 + 2 2 , 7 2 . X . 2 2 2 5 O o *   ; & & 6 ; 2 & O 2   * o o 4 + 2 2 , 7 2 . X . 2 2 2 5 O = o * X & & 7 7 ; ",
"; O O ; X o o o . + : 7 7 7 ; * # * . o X 2 6 4 & = * $ . O & X : + ; # * . o o + : 7 7 7 ; * # * . o X 2 6 4 & o o . ; 5 O 7 o ",
": O - - ; * * o 4 & : : , : % # # # * O & ; , 9 & . o o $ . O 2 O ; # o o o o 4 & : : , : % # # # * O & ; , 9 & * * ; 3 = 5 & * ",
"& ; o ; ; o o 4 + & : & : : # 1 $ $ % : O , ; 2 : : * o * $ 7 : : 1 * o * . 4 + & : & : : # 1 $ $ % : O , ; 2 : : o X ; . . O ; ",
", * ; ; - o o + O & 6 : : 2   1 $ $ % ; : O & : 6 4 * o * * * : o * * o * o + O & 6 : : 2   1 $ $ % ; : O & : 6 4 o . ; ; * ; & ",
"X o ; 3 ; * : 4 O & : # # 1         # % % = & , : 4 : o * * 1 ;   * * * o : 4 O & : # # 1         # % % = & , : 4 : X ; ; . . 5 ",
"* ; ; ; ; * + + O 9 % @     * * $   *   $ % < & & + + * o 1 # o $ 1 o o * + + O 9 % @     * * $   *   $ % < & & + + X ; ; ; * 2 ",
"  . X . o   + + & . %     * * $ $   *   # # % & & O + * * = - * = - * * . + + & . %     * * $ $   *   # # % & & O + o . X X   * "
};
