/* XPM */
static char *result[] = {
/* columns rows colors chars-per-pixel */
"64 64 83 1 ",
"  c #0E0F0F",
". c #141413",
"X c #171816",
"o c #1D1D1B",
"O c #1F201F",
"+ c #20201F",
"@ c #242423",
"# c #282725",
"$ c #272827",
"% c #292927",
"& c #272928",
"* c #2D2D2B",
"= c #312F2D",
"- c #2F302E",
"; c #32312F",
": c #343433",
"> c #393735",
", c #373836",
"< c #3A3936",
"1 c #3C3C3B",
"2 c #403E3D",
"3 c #3E403D",
"4 c #42413E",
"5 c #3F4041",
"6 c #444443",
"7 c #494744",
"8 c #474845",
"9 c #4A4946",
"0 c #4A4648",
"q c #4D4D4B",
"w c #514F4B",
"e c #4F504F",
"r c #52514D",
"t c #4F5050",
"y c #545453",
"u c #595752",
"i c #575856",
"p c #5B5955",
"a c #565758",
"s c #575959",
"d c #5C5D5C",
"f c #635E55",
"g c #615E5B",
"h c #5F605F",
"j c #62615E",
"k c #69655F",
"l c #5E5F60",
"z c #5F6161",
"x c #646463",
"c c #686765",
"v c #676866",
"b c #696967",
"n c #666768",
"m c #686768",
"M c #676868",
"N c #6B6C6B",
"B c #736C65",
"V c #706F6D",
"C c #6F706E",
"Z c #71716E",
"A c #6D6F70",
"S c #706F71",
"D c #6F7171",
"F c #737372",
"G c #787673",
"H c #777876",
"J c #797976",
"K c #767979",
"L c #7C7C7A",
"P c #807C74",
"I c #817F7C",
"U c #7F807E",
"Y c #81817E",
"T c #88847D",
"R c #7F7F80",
"E c #7F8081",
"W c #838483",
"Q c #878987",
"! c #8D8B86",
"~ c #8C8C8A",
"^ c #96958F",
"/ c #8F9192",
"( c #929392",
/* pixels */
"TxFFNFGLNHLNKFNxZYcJINGGcbbjbNFVBVZjbNkJvhNZGfdjZbpjryNpqrxpdprx",
"bjLFsMxmNFxMFCv7eGcCKZxjchNFvUUrNihzZbCZvvbCNGHCbNCvFCCHHZMNxDK6",
"PlNmxNxNGFmNmxNrrmFFCNCNvcbvNGF4phpChNvhbvvvxvxCFxvmbbhhZChNxdm6",
"GlNdxCmGmMCNNmNrpNCmNxNbxNvNFFx-3CCvCZjCvvZCNNNMCFxjvvvvxjxCmbs8",
"JxFxmNxbNNNmzNNyrmvxmxzxCcbZZVC*qFvjxbNCvvbbvCvkvvvjvZCvxxmjxxl6",
"JxFNFxxxxDmmNND8qNjxxvxvvNZcVCH:uvhCbcjvCvNvbZCbbcvCNNvvxxvhdsx0",
"GyVNxNNFNCZxcNm7wNbxxcFFNNCbVFF3jNCCbvvbvCbvCbCCGFvvCxvCFxhvxdx6",
"JxnmdmFcCHNhcNMydZCNxvNNcNNNGCZ:qNNxcCZCkCbCNCbZJDCCvbbMNvmmzdx6",
"JjHmxxvxNNNNxmMqqFFNNbNvjxvZFmN,ubjvNGCbZCCvvCbZFbCkjCFNvcCxxxv3",
"JzFmNxxNNxNFvDN7yFNxmNbxxccbCCH;rZbbbvxCZCbxbCCZbNvCvcZbxxcxhhx4",
"ZjNAGFnxNNAmxAnyyNHCxhvjxCvCFFH,dJCNCbNNcCCZZbCZCGNbCvvNNCNvhdm6",
"GxNnNNxxMNNxmNxqqFHmcCvcNNCNFCN7rJZNNZFCNCGZbZNvLFbvZZvNCmvNcvd1",
"cyxNmNNzxFAxxAn8eFCvvCvvxxCvCCC3jJvNvCHZJLCvFNZCGCvNvCCbNNmnvxy8",
"cxNxNZvnSSAnnNDqqDNmxNxvMxNNCFH:jLCZNJFNZLHCFNFJZUFNNFFFFCNAxxMq",
"Zyyypq0yyqdgysN,dGNNmCcxCCNNcCv:ujjpdhyishhhddijCNvkjdxMddzxzln8",
"^rqae7e780w7qq16xWmZNZNvcmmNvcZ-j4+>,;-*-;#*,>,4:quq7e87r011,<8q",
"YKYLFFGLJGCDFLLNpFNGNMmNvvcNCxF:k!vxJGNjvGBZZUYZZTUbNJFZGBjNNGZJ",
"xysdxNxvxdxzshFyyGFMzxNCvvFNvNb;pYYFZbLYZFCFCGUekUMNNnxvdzzxcmdv",
"ZcxxvNNCNvvcNxxqyHmczxmFCcCNNZv,7jbHZZNZbvjvvBU4eLvCDxzxMvxiyihN",
"NxxxvxvmNFNmFvx8aNZNvNMNNCNNCNv*4CbLZNCNbbvvNCZ3eZhhdxddMvxxzdxC",
"cxxcvNhvNbVNbbj1dDNFxxCvvCZCNbv:dFxCZNCCCkhvvFF,yFdzNxzxhhxhdvcN",
"CjxNNxxNNxNNmxdqjDvxxCFvxxCCFvM:4ZccccxGLbhCGFG3jHhNDmFMdbxxvxxN",
"NCCxNvvmmNNNNxsqpCmcxZNvvvvDFNN*3GNNxxMxxNjhNHGqvvxNxDDmcZcxNxhC",
"cvNNCCNCblnNNxdqaMCNxvvxxxFNvNN*3FcFCcxvhxCbMzN8jGxvvzNNMNxhvZvb",
"HvvCDDNNNvmxxhzqyFmvvvNCcmCzCmv-4ZhCJvxCZcCFjsF9qDxzMvNNxvNhhMvc",
"CcvxCFCCNCmMNdxqpZFZMvxCcxvNNxC:1FvxFmmFFNdKchF4rCxNxzzxNxzMNxzN",
"CxxhvmFNNCNNmhzuhxCNxxmmjxvNNmM:<NcNNMNccChbmCZ,jChxxmxxmxphjxhv",
"CsixxxvxmCNczdNrsLFchvCxdzvxcCM,<bFFxvNvhZcvxNF4dNxxMNzszvhdzvxm",
"NcvxvmxzDNvNvbFrpKCMxxxxxxxxmNN-:NCFvxxNvbcvxxG67FvCxzxNxzzMvvNC",
"JFNmMFKHFNNCNCFpjEKNNNvNxxxNvvC,,NNCcvNNcNCZNFF6rWFNHAHDDNMHDCvC",
"iyqqyyslaydsddMppRHFDNNDvxCFFFL3#vxjjxCFZNNCNCK7qxaqeeeqyetqqets",
"*.O%@ooo+;##*%%68$**:#*&-:,**1:.-xhmcvCNbcCNmNJrw;.O@oO@o@ooo@%#",
"ZzszjjdspNpxcdijx36,1q,1q8<888,7hhvZZbCCZZNbZNFq4dq9xjpjjkpjcjjP",
"K(LKGFLLKNNCxxvmmNMNNmmmnnNDHLE<rJbGCNCbZZcNvCH7yLNFLJFNCcMHLNZj",
"NGCGNxxMNMvzjmMvxmxzxxdxddddxLGOrGZZVNNZCNZNbCZ1qzNNNNNmvNxhxvN1",
"xFvDFNNmxNNmZCNvcNMCmvxvvmmzNFm&uZbCZCNCFZNcZNb38vmNZCNFxjNcNvC7",
"mKxvNMNCMhxxcvNmvNCxNcxxNmNxxMx%uZxZZZZbHFvNxxF76NxNNCCZbvNNmmb7",
"xGHDMNNMmxCxmvhFFvZZxvNcNxxxvxx&4xhcCZZcZZvxxxM61xjFNNmxbbvxNNc6",
"dDNNFGNxxNNvxNNZFNFFxCNNZZzxNFv@pZcZNZxNbCCcmFN<6dhZZNcNNxmcxhv8",
"xENMNNFNvFZFNxCFbFFcFNNmxxxxNHM*jJjcbbbcCNFvvcF3<zxcZxNZvcNjxmx1",
"NWGFNlxFFxNNvcNNNZNcNZCvNvdvNCD%fZNvcNZbNNxxvvm37jxNCCCNvbxjNxx1",
"xNVFNxxvcxjNMxxmHmhcmcNcZNdxmCC&rJbZJZNNxCNbNCN6*jCCmNNvbjpjxxb6",
"sKNbvxNzxZvchdNMNvxNNhjNHbxxMNM#hLNZFZNCCNcZFCF8-xNbNccxvNjhxNc1",
"cKbZNxvhvNddNNNvNvxxFNxcFcvCNNM*rCHCvFCmZcxxDHH1,xmNNNNxxbvvbxN4",
"NUxmHZxCxxNMvmCcNMxxZvxMxNvFNFx#jZbNvxxNNxvzCGK65MMCvNFxhxNjxxN2",
"VQZFNCNZxxFNpcvZFFxCNxNFCdvFCCC*rFCZNvxNcbmxMNF81xNmNMMvvxxhxNNw",
"VFxFmmGFMNNNMMNHNLCCFUCCYvFHhCU*uJGQUHFFYLFFFFWq$xxmxxjmNxhxmFFy",
"s@.@@@@%**@oO@%--*-O--#*-;:,O-: u4;46814r7<<184.5FxNvxxNNxNmxmN1",
"rjqyiryryqw8twrwq4r7w4rq,74<4,;rPZrrjfpdfrrerq2jFxxvdhvDNvxxxNN8",
"ZW~GLHKWWQ!WKR^VZET^^~~QQYYLYLJ!JHTWPZZLNZFFJmNbZhdvxdxmNvxxxxN6",
"FxmNMxvxbddmxNRpdFAHdjNFNxcxxMhijdxmxiadzydsppz-xMdxnzdxvxMxxNG6",
"mxNCCNNmNNbxASLygKzmaaCvNZccNNvjcxxxvxvddmdddya<iMNxxNzxmNvvANN8",
"crMUNixNnHxgNLFyqFndsmxxNCvxNNvxmzCcxZNjixxxdyy6pxFnmvlzNmxCmzNq",
"cyxFxdmZFNnmmANyfFxddcxxjvmjhvvxcNxxvxcZGxazydz1xxxxxhdvNmMxMnLy",
"jCjxNNxFFxxnmxAyxLNvvmZxxxxxxxCCdxjhjhFNxFjsvvd1dNmxzxxCNzxxmNFq",
"xNNCxvNxNmxlxmHsfGdcxcKczxdxvvvNmdhvvsNZcxddmzz<yFZNxxmNCzzzxxn8",
"NNFFNvcjNNxxmCDxBZsxxVFNNCmdxNFjvjpCZbxjvddcxxM6dMNmNxzxMCNslmx6",
"cCCmxvhxxxxdccvduGDvxbcmNNZxxmZxvbbZZCvmjxvcbxM6ynvvMxzMMNxxzMNq",
"xZJGvxxhNxxxNNmr7ZcNVNxxxvxxxxcFNZNbFjhZNjjxbvx1yCmCzxxnNxzzxNKq",
"xNCNxxxjNxdNNNCe9FbNmdxNNNlZFcNVcNkZHGcxcbxdhNx1xFxxixxnNhxxxMD6",
"NnDNmvhvjxxNxCGq4bVNxxxbmFmFVmxcxbbNNGDxxNNxssx<jMhxnxlxxdzmxxRe",
"fNHCccvvNCmNxNDqwVpbmNxxxxxhmmglVZjsNCNjxmmbNxn1NDhxxldnxxlnxa(s",
"yFFNxcchcvxmnCm6jYmcdDNxxdxdsydxbGMxNxvxxNFNFLM,HExzxlxldxmxHN(y",
"ZFHGCFFFHFNDKKGqjZrayyq0qqttqqqqqryyqqqy6yqqqrq8Ue15551,,141641q"
};
