/* XPM */
static char *result[] = {
/* columns rows colors chars-per-pixel */
"64 64 38 1 ",
"  c #050505",
". c #080707",
"X c #080807",
"o c #070708",
"O c #070908",
"+ c #0B0B0B",
"@ c #100F0F",
"# c #0F100F",
"$ c #10100F",
"% c #0F0F10",
"& c #100F10",
"* c #0F1010",
"= c #131313",
"- c #181717",
"; c #171817",
": c #181817",
"> c #171718",
", c #181718",
"< c #171818",
"1 c #1C1C1B",
"2 c #201F1F",
"3 c #1F201F",
"4 c #21201F",
"5 c #1F1F20",
"6 c #201F20",
"7 c #1F2020",
"8 c #232323",
"9 c #282727",
"0 c #272827",
"q c #282827",
"w c #272728",
"e c #272828",
"r c #2B2B2B",
"t c #302F2F",
"y c #2F302F",
"u c #30302F",
"i c #323232",
"p c #393939",
/* pixels */
"     .. XXXXOXO+O+XOX.           .  .X .          .          X. ",
"  .O+=>=>===->=>====$+.  O..OXO+=====+=+O   OX@+@+@===>====@$==+",
".O==188889088941:>>==O+@$====>,59q9<>=>$+.O>>=-:1<<188991::===$+",
" O=>1qrtippururr1>>=+O@>=>===>18rii9>+==O.+-===1138qriyq4<:>==+ ",
"O=>=>:2118q1qrrq1-==+O@>>=>:<119rq98>=>:O.=>==:248qriiu9>>=>==+X",
".==>>@+=>>=>9991<=+@$++==:90qqq99994:114+O===19qrrrrrqq<1822<-=O",
" O==+==>=@$>11<>&@&==+O=><89q91151<111>>O.$$=8889888981<3111<>O ",
"   .+OX+++==>>=O+OOX.  @=+=$=++O++++=+OX    O==>======$==$=@+.  ",
"  ....OO+++$=@X OXO     .  X  .XO  OOOO.    O++++++O+     OO+O+ ",
" OOO+&=+===>=$+==+++OO     XX@$$==+==+=@+==+$$=@@+==+O   X+++@+O",
"O+++====:;>:>=>$++++++.   X++@=====>;<21-<=--=@@=+@+++   X++++++",
"=18882<841<:=$==>&>=@O   .=$+=::1<1989q281><<>=>:;=++O   ++=@==>",
"6qiiirqqrq84<111>==+@+.  O>=$=1111884qqrtq1241<<121=++X O@$$--<1",
"riiirriiiq98812>=@===+ . O==$$====>:<189q1<11:>;<1>=$=O O$$>-112",
"88wtiiirw881<--++==++O.. +=>=21=:114:18481>>><11<:>=>$. X@$-1111",
"158qriir981<::=>===>=+OOX+=>=::18484188881<2224221->:=O  ++=-111",
"178riiir9887111--=>=$OO+ $>>>180ww9r9rrr00e88773111<<=O  O===><1",
"189ipirq888171<:<<>==++XX*>>;8rrrrrtipiurre888834111>=+ .++@=-<1",
"59rtre9888888<>:<>==++.X.+=>:8r89erryppiiiq9888473<<++   ++=><11",
"eiiqe9899988<<>>===++X .O++=:39qrqyryiiiir088878711;==O  +$=>-18",
"iiq88888998781>=====+O..O===><8ririrqrqwqqqw8773381>=>+ .+@@=<9t",
"99888151813941:====-$O.O.&=+==6q998819wwew897771<18<==O .++@$=19",
"18848781198841>===<1@O. O+=++=144<17888888888888qrr8==+ .+@====1",
"11187881113882:;<186&+O OO++==<888888<<889999eruiir5=#+ .$&==@=:",
"165781<112188<4981:>++. O+@>:;10q811<6wripiq0rq99981==+ O=+==>><",
"1681<<<22218888421<=++. +++@=;148689rttpppprrq8>=-=>=>+ .++=>-<1",
"188118qrr8wrr2<184<@++  OO+++>14889rr99iuuirrr7=+====>+ O@=>>>11",
"88888rrq9tr81>=:1-=+OO. .O+++=$>59w8118888823<>==>;-==. O=+>=>14",
"<<<<>=-111<>=@=>=++OO+  .+@=====<1<:<28111<1:=>>><1===O X++===::",
"@=+=@$@=&%&+=@@++O+++.  O@====:1:=>><<,:>=<:>>:;<1:===. X@+==-==",
"   .OXOOO.O++O+O++++.   ...X+++++++++++=+=#=$$$+$@++O+   +O$+=$#",
"                 .                OOO   OO  .XX  . XXO     .    ",
"+OO++OO  .      XO++++OO.++O+O         O.XOX  . XXX+++O     OXO+",
":<-:>-=@=@+O  X@=>::->=====>-=+++  O++$$=>>==$$+$+++++@+  +==>=>",
"9q9<-======O  @===><111724212,==+X .+=+$-:14891>=:-=++@$O +====1",
"iir8--==+&=+  O>:=:8811ripitq<&+X   O+++<<<9iit2141<=$$=+X@>-=-4",
"29q81<111;*+..@=>-129899q9941<=O   X@==@==<9uitr93<-=$@=@O@1<==,",
"1888888881==++@=$=<<1111<<>>=@++O  X=<<141112884888488<>=O+18241",
">>,<11<:>=++OO@+@===->====$=&OO+O. .+=>==>====>><1<112>@+.O===>>",
"+%+++@++.OO+. OXX++++++++++   .       .++OX . . XO+@+O++X  O XXO",
"XXO+O..O      O+X++OXO+OOO.....                  .   ...     .  ",
". ... .       +O@++X++++OOO+O.OO.   .. .    .O     ..OOO   .   .",
"OOOO++...   O=+>:>===$@+%+++++=+@+O+O++O    O@O +++++&=+.++OO+O ",
"#==+++OO   X#+>1181<===>1568819981-==+++    OO+X+=>==><1<1212<=+",
"=====@++O. O+$<1221211128qiiitiiir8;=*%+O   .++=-1<<11,18qrri1<<",
":==$==->+. +=>-<>==12288wqtiirriir8<>*++O   @=====<1111118999811",
"2::$$-:==  @=<=++++=>>:188qriiiiq11;><:==O  +->++-11<11<18484262",
"841:1-==+X +=>#$$$$=$>:<18qriirq8111111-=OO.+&=>=-12228651888888",
"998494>=+X.+=$+=>==;<358899riiir82111<->>+. ++<:<;133888eeerrrrq",
"r44808>++O +=><1111388188889ripi9811,-===+  O+>>>><18478qrripiii",
"r0844<$+++ O=>-=:366181888888qrtrq4:>>>==O  +O.=;1834888riiippyr",
"rrrq4;===O. $$=>,<118899e998999qiiq8<=&+=+  ++O=11188888eriuiiyr",
"iiu9:=@+=+  +=#>:-:<28rrrqe88889riit81=@++O.O@+=<8187889wqqwwrry",
"890q1=>+OO .==+><-<-:18rrw711>1119qq8,=@=+. +=+-88378111ww995589",
"38882>++OO .=@$<::-@=<988r81<8<=>11>&@&+=+O ++%2wrre817888888511",
"118q4>>@@O X$+=<-=>11<41798117<11>=$&+@@+O..++@1qrwerure99w88885",
"88981<<=&O .++<<=:4121><1688:=<<-<->==+++OO +&+,<899rruuiiiq9988",
"w9rq2->=@O  +===>8981<138811:>>-221=+++$+OO.++%=>==>489rriiry99w",
"rr94<-@.++O.+@==><4:14rq88921841<<-==+=>++. ++++O+*>189q8889q99q",
"112<>$+++++.+====->==>88<<<188<>==11<=++++  .++&%++#+=>:<1<<<>=>",
"&&++++OO++  O+=====>===+==>=>=$>-:---=+++=...O+@@++======-=->===",
"&@@&+O++++O O@=-<,>>>=$====$@+++$=>>=++++O+O..+====>=-=>=======&",
"OOO.           ..+O  ..O. .      OO+O.OO       OO  X.OOXX+O++OOO",
"                                 .                              "
};
