/* XPM */
static char *result[] = {
/* columns rows colors chars-per-pixel */
"64 64 40 1 ",
"  c #2E2926",
". c #312C26",
"X c #342F29",
"o c #37312A",
"O c #3A342D",
"+ c #3E382F",
"@ c #3F3830",
"# c #433C33",
"$ c #474036",
"% c #494237",
"& c #4D463A",
"* c #4F483B",
"= c #504738",
"- c #534C3E",
"; c #584E3F",
": c #554E40",
"> c #594F40",
", c #575042",
"< c #5B5344",
"1 c #5F5748",
"2 c #5F5849",
"3 c #605646",
"4 c #615847",
"5 c #605748",
"6 c #625A4A",
"7 c #695E4E",
"8 c #6A5F50",
"9 c #66604F",
"0 c #6A614F",
"q c #676051",
"w c #6C6353",
"e c #716754",
"r c #746B56",
"t c #706758",
"y c #756B5B",
"u c #786F5E",
"i c #78705F",
"p c #776F60",
"a c #786F60",
"s c #797061",
/* pixels */
"ywtttttttyttyryyrrew0eeerrrrww7777777778w7e7wee88weetttttwtw97<*",
"yw77296822222269667677764676333433>33337646676436666666262<12<-#",
"t82<<2<<<<<2<1<<<<<<<<<<1<<,;;;;=;====;;><<-4;;;;36><<,,<,*,-,,#",
"p6,::,::<<22,<12<<<3;,;<<<,:;;;-;=;====;;-;;3;==->55<<:,--,,,,:#",
"y2<,::::-,11,1<<<<<<<><<<<<<,:===;==;=-;:,:-;----;,,><,,,::-*<<#",
"y6<:*:::,,,*-;,,15553<3<<1<,::--==;=;==--:>:==---><,<,<,,,:-*2<#",
"r7<,::::,,,,<,,,<<533;3<12,-,-=-;=-;-->>,:-:=-&--><<<<,<,<:*-*4#",
"r9,,,:*:,,,,<1125<333><11<:-<:-;;>;>>>>>,:--->::;<>-:<<:*,***-oO",
"r9,:*---,,;-<2<1611<5<5511<:<>>;>;;><>--=-&*::&&<,:*-,:-*****2&o",
"r9<,,,,<9,<<,2<,<61<<<<<<<1>35>>3>3>>>-::-**&:::<<<,**-,**,*%<,O",
"r9,,<,,2;<<<;<<,,211><3<153<>3>33<;<<;-::*:*:::::,<<----**:*--<@",
"u92<<:<,<<<,,<<2<<1<>35611<<<3<5><><--->,::*::::::**::-******,<@",
"r9<;<,<,,-<,<<<,,,<><<<<1><<<<<>33>>>>--,**::,,,,::*-,,-*&*-*,<@",
"r91,,<<<,,,,,<2<<,<<<>>1<<<<13533>;><;::,:::,,,:,--,*****&**-<,#",
"y91;-,<<,<<2<,<<,,<<<>><>>113543>33;;=>:,,::::,,<&$-**-*---**<<$",
"r9,<,,<-,<,<<2,,>:::>><<<<>,33433>>;;;><<,:,::,,--&**,,-,--*-,<+",
"u0,,,<,,,,<211<<,,;;<;<;<1<115631><><:<,,,:::<,,--<,*::::,:&*:,+",
"y9,,,-,,,,<1,,<,<<41<<<21<1166461><>::,<:,,:><,<<<,-:::*::::::,+",
"i9<<<,<<,<,<<<<<,<,<04;1<<>161<3<<<>><<::::<:,:1<<2*,:*::***:,<@",
"i9<<<<<,::,:,<,,,,<<;<246<1<61><55<<<<1::::,<,:1,,2,,,***%*&:,<@",
"iq12<,,-:,,,:,,,-,,-211<1<656>><33<><>><,,<1:,122,-,,::***&%&<,@",
"y91--,,--::,:,,,11,1<<<<1161><<<<35<6<<>,,,11<1622<,,*::*---*,,@",
"i61,,,,-::-:-<,,,,-1;<;2<15<,<>33<63<<<<<,,111<122<,,:,:------:@",
"p61,11,,-<,,,<::,,,,;144<<<5<3<<3>33,111,<<22,1>,<1,,-::,---*-,@",
"pq<<2,,,,<<,,1::,,,,,<33<<<751>>>><3><552>1221<<<22<,::----=*,,#",
"yq2<2,<:,,,,<<:,,<,,<<,341<215<>><3<>561<,111<<<<<1:,:::,,;--,-+",
"uq2122<,<,,<<::<<<,1<4411<66<5<>>>33,<61><26611<,<2,<,,<-----,:#",
"yq2<<,,,:::211<,,,12169967666<><>-><<<<1622262<1,,<,<,,:-,--:<:O",
"r8q22<,2<1<1<1<<1,26666212626<,>>>3>3556262<286<,>,,<,,,<::*:,-O",
"t6662,<<<,6<16<,1,;11111<<662<<>>>3<><1662<<266662,,<,,,<:::-<-#",
"p6662<<,<1<<56<511<<1,122<<<<<<><<5<<1<622<<<<2<<2<21::::*::,<:O",
"p662<2<<111<633629111<<,:<<<<21:<>5<<<<1<<<22<22<<<<<:*::::::<-O",
"y761<<<<<16<3366686221::><<1<<><<>33<<3<121<<<111<1<<:<,:::#::: ",
"p61<<:<::>666466221<<<::>:<1><3><33636561<1<,,1111111<<,:,:::::O",
"p1<<61<<<533333>261<<,21<<<1513><>33<665<<21<11112<<61<:::::::&O",
"p6<<162<1133><33121<<<<1<<>115,>3>>551672161<11162211<,1,,:::&:o",
"p71<65<<><<><>631<<<1<<<2<<26,>>33365<<<<261121611615<<1<:>::%:o",
"a676331<115<<3661111<22<<2<23<>33636371<<161121216636<<<<::::::o",
"u66<6<,<511<6<>6126622<1,<,2<,;><566<16<<11,21<2121><><1<:>::>&X",
"a1666<,<1165>>:161<<22<><2>25><336<5<<11221:1,1<15<13<<1<<::,:-o",
"s1626<<:<22<<>:<6<<22211<,:<6,;<363<1<<2<1<,<<<<1<1<21<2<:::::: ",
"a16211<<<<>162<<<<<22<><<,::,,;;55><,,<<<<<<<1<1161<22<<,,:::::o",
"a186666<11<112>,<<<<11<><<<,,33<35351<<12<<>><221<<<,<:2,,:::::X",
"u<76667<<<61166<<<,<,22>:<<<,,<<<<><<<,22<<<<<,11121<,2:::::,::o",
"i49w072<<1261221,,11222<,,>,><<<<<<<<2<2<<<2<222<1>1<,<<:&&::::o",
"p16w776611<661,<<>1<,<2<::-:,;;,<<,<11<:,2<<2<<211<>::<:::&:::&O",
"s1667q76722671,,<,,<<>1,,<<<<,,-><<,<11<,,<<<:<<21<<:::::&:::>*o",
"p66727666112221,11,,1<<<,,,<<<;;><<16<<12<<,<>::22<<::::::&::<&o",
"s676671112<1<,<,,<,,,,-,<<<2,,<-,,<<1<<<1,,<<:::1<:,,<:>:::::<: ",
"s6676727762<22<,,,,,::,-,<2<<,;-,,<<<1,<,<<<<:,,>,::,1:,,:%::<:X",
"s4674696<<<<<,,,:,:::::,<,<<,,<-:<,<1,,1<<,,<,:::::,<2,::::::1%o",
"i7621<241612,,,,,,,::<,,,1<<3,-;:<2<<,<2<<<,<,:::::,,<,:,,:::,&X",
"s664<;112666<,,<,::,,<<,<1<<<<<<,,<<<<,<,<,,,:,:,:::,<<1,,:::>%X",
"i96497641<22,<,,:,*,<,<<1111::,<<<,<<<<<2<,,<::::::,2<,<,::::::X",
"i71471442162<,<<,,,<<,<2<1<<<::,<<<,<<,<<<,,,,::::::1,111::::<%X",
"i744<11126676,,,,<<<<<,<11<,::-<22<,,<,<,,<<,::,:::<1,,:,::::>&X",
"i674356222<76<<2<<<<,1<2<1261<,<<2<,<<<,<<2,,,<,<,>,,<<::::%::#X",
"r0646362612662<12<127<<21461<,-<<<,,<2<,<,<<,<<,<,,,<<<,:::::::X",
"u774552<6626<<61<<127667261<,<,<<,,<<<<,<<<,,<,,::<,,,,::::::%% ",
"r74<552176696<11<67277q621222,11<9922<8<,<<,,<,,*:<,,<<::::::::X",
"e444212861211<,<<<<:<2121111,111<2<,<22<<<2,,<:*:,:-:*::::::::# ",
"e7<<<<1<,1<,<<1<<<<<<<,<<<1,<*,-,,<,,,:,:,*,::-**,,::**&&&&::&$.",
"7<;-::::<<,>><<:,<-**-,,,,<-,,<,::***:*::*:,**::*::*:%&:&$::&:#X",
"2-*=:$::%::%%&%#$#@##%*%%$+##$$$@@$$@@@@$@$$$%$%$$$$$$$%#$#$#$O "
};
