/* XPM */
static char *result[] = {
/* columns rows colors chars-per-pixel */
"64 64 214 2 ",
"   c #080F0F",
".  c #0F0F08",
"X  c #18180F",
"o  c #182121",
"O  c #181818",
"+  c #181821",
"@  c gray6",
"#  c #0F1818",
"$  c gray3",
"%  c #0F0F18",
"&  c #182118",
"*  c #211818",
"=  c #180F0F",
"-  c #180F18",
";  c #000800",
":  c #283030",
">  c #1B1B45",
",  c #242C5E",
"<  c #221F51",
"1  c #24284E",
"2  c #151937",
"3  c #08080F",
"4  c #171B37",
"5  c #181A41",
"6  c #242B5E",
"7  c #303941",
"8  c #414B91",
"9  c #507599",
"0  c #302E70",
"q  c #282E72",
"w  c #262B6A",
"e  c #211F59",
"r  c #171B53",
"t  c #282828",
"y  c #226949",
"u  c #1AA517",
"i  c #0F080F",
"p  c #212118",
"a  c #3D4692",
"s  c #555BA7",
"d  c #333077",
"f  c #282E76",
"g  c #2B2C6A",
"h  c #1F2159",
"j  c #161A51",
"k  c #21286A",
"l  c #6E85C2",
"z  c #2E715C",
"x  c #2E347B",
"c  c #225855",
"v  c #2E3B70",
"b  c #1A5043",
"n  c #1F2164",
"m  c #282830",
"M  c #211821",
"N  c #414E7D",
"B  c #8998C3",
"V  c #585E8F",
"C  c #757B9C",
"Z  c #303977",
"A  c #222163",
"S  c #6D77B1",
"D  c #676E97",
"F  c #304139",
"G  c #3D3D7B",
"H  c #1E673D",
"J  c #343B83",
"K  c #3D3F7C",
"L  c #182163",
"P  c #303039",
"I  c #3C4192",
"U  c #282163",
"Y  c #283028",
"T  c gray19",
"R  c #212828",
"E  c #666E82",
"W  c #283039",
"Q  c #134B34",
"!  c #100F45",
"~  c #282821",
"^  c #21216A",
"/  c #130F49",
"(  c #303930",
")  c #0F1946",
"_  c #212128",
"`  c #0C0E41",
"'  c #191B49",
"]  c #303939",
"[  c gray13",
"{  c #080C43",
"}  c #0B0837",
"|  c #0C0937",
" . c #211859",
".. c #0F180F",
"X. c #182128",
"o. c #0F0808",
"O. c #080F08",
"+. c #0F0818",
"@. c #50647B",
"#. c #414951",
"$. c #414949",
"%. c #495951",
"&. c #515151",
"*. c #212821",
"=. c #495959",
"-. c #495151",
";. c #210F0F",
":. c #282130",
">. c #282128",
",. c #282121",
"<. c #212830",
"1. c #213028",
"2. c #72080F",
"3. c #302121",
"4. c #302830",
"5. c #83080F",
"6. c #302828",
"7. c #394141",
"8. c #415149",
"9. c #494949",
"0. c #415151",
"q. c #41080F",
"w. c #410F0F",
"e. c #212818",
"r. c #283021",
"t. c #283930",
"y. c #213030",
"u. c #21180F",
"i. c #282118",
"p. c #182821",
"a. c #000808",
"s. c #080800",
"d. c #080008",
"f. c #414141",
"g. c #414149",
"h. c #394941",
"j. c #393941",
"k. c #0F210F",
"l. c #7B728C",
"z. c #837B9C",
"x. c #7B7283",
"c. c #51596A",
"v. c #515159",
"b. c #596363",
"n. c #393939",
"m. c #DED6EF",
"M. c #838393",
"N. c #6A6A7B",
"B. c #595972",
"V. c #497239",
"C. c #494141",
"Z. c #8C939C",
"A. c #8C8C93",
"S. c #392830",
"D. c gray55",
"F. c #393930",
"G. c #18210F",
"H. c #0F2108",
"J. c black",
"K. c #838C93",
"L. c #394149",
"P. c #837B8C",
"I. c #727283",
"U. c #7B7B8C",
"Y. c #494951",
"T. c #BDAD21",
"R. c #394949",
"E. c #304941",
"W. c #304141",
"Q. c #0F1808",
"!. c #7B7B83",
"~. c #9C9CA5",
"^. c #93939C",
"/. c #636A6A",
"(. c #7B838C",
"). c #838C8C",
"_. c #303949",
"`. c #8C9393",
"'. c #595951",
"]. c #182828",
"[. c #303028",
"{. c #7B839C",
"}. c #72727B",
"|. c #413939",
" X c #83838C",
".X c #413949",
"XX c #515963",
"oX c #414139",
"OX c #394130",
"+X c #63636A",
"@X c #180F21",
"#X c #0F2121",
"$X c #081808",
"%X c #303921",
"&X c #7B7221",
"*X c #BDA518",
"=X c #DEC60F",
"-X c #D6B50F",
";X c #6A6A6A",
":X c #83839C",
">X c #515163",
",X c #637272",
"<X c #495159",
"1X c #515959",
"2X c #595963",
"3X c #415159",
"4X c #0F2118",
"5X c #59636A",
"6X c gray39",
"7X c #596A6A",
"8X c #6A6A72",
"9X c #495149",
"0X c #515149",
"qX c white",
/* pixels */
"  . X o O + O + o O O O @ # O $ @ % + & & + + * & O # O = - ; $   . X o O + O + o O O O @ # O $ @ % + & & + + * & O # O = - ; $ ",
": > > , , < 1 < 1 1 1 < > > > * 2 > , , < 1 < 1 < 1 1 > > > 3 o : 4 5 6 6 < 1 < 1 1 1 < 5 5 5 * 4 5 6 6 < 1 < 1 < 1 1 5 5 5 3 o ",
"7 , 8 9 8 8 0 0 q w q w e r e t , 8 9 8 8 y u y w w w e r e i p 7 6 a s s a d d f g f g h j h t 6 a s s a d d k g f g h j h i p ",
"7 8 l l 9 z x c q c x v b e n m 8 l l 9 8 x x q v v v n e n   M 7 N B B s V C C C V Z Z A h A m N B B B S a C V C D C D h A   M ",
"F G l u z y y y y y c c H n n t G l 9 8 z x J x z J G q n n @ O F K S s S N a a a K V K f L A t K S s s N d Z Z K K K f L A @ O ",
"P v I 8 8 J G c G J I J c U n Y v I z 8 J G x J J 8 z 0 U n @ o P g a a B a B D B K C K f A A Y g a S S S V C D S C a C A A @ o ",
"T , x c c y y u y y z c u e e R , x u J x x u x I J u , e e   + T 6 f d D a V Z s a E Z 6 h h R 6 f d a Z f Z d d K Z 6 h h   + ",
"W e n w n c w b x c v q Q r ! ~ e n y n q w 0 x G v y r r !   o W h ^ k E Z V S B K E f j j / ~ h ^ D D N D V S D C C V j /   o ",
"( r n n n b , c 0 c 0 w Q ! ) _ r n , , H , q v y 0 , r ! ) @ O ( j L ^ Z g g Z Z f K k j ` / _ j L k A ^ 6 f d f Z k ' / / @ O ",
"] > r Q b u 0 c v c e 0 Q ! ) [ > r ) e w 0 w 0 0 1 0 < { ) i _ ] 5 j / L Z E E E K 6 g < ` 5 [ 5 j V L k g g d d h g < ` 5 i _ ",
"Y ) } ! r n e b w b e < Q ! } [ 2 } ! r , H u y , , < ) ! } 3 M Y 5 | / j ^ h g g 6 h < / ` | [ 4 | / j g h g g 6 h < / ` | 3 M ",
"W 2 } Q Q Q b Q b b Q Q Q } } p 2 } ! ! ! r r n e r > ! } } . + W 4 D N / / h j A  .j ' ` | | p 4 | ` / / h j A  .j ' ` | | . + ",
"t ! } } { { { ! ! { ! ! ! } } O } { } ! { { ! ! { ! } { } } $ [ t ` | ` / ` ` ` ` ` ` | ` | | O | ` | / ` ` ` ` ` ` | ` | | $ [ ",
"  O O [ [ o M [ o & M O O O O # ..O X.M & M O o + [ [ O O O o.o   O O [ [ o M [ o & M O O O O # ..O X.M & M O o + [ [ O O O o.o ",
"T 2 > , , 1 < 1 < 1 1 < > > > o 2 > , , 1 1 < 1 1 1 < > > 2   o T 4 5 6 6 1 < 1 < 1 1 < 5 5 5 o 4 5 6 6 1 1 < 1 1 1 < 5 5 4   o ",
"] , 8 9 8 8 0 0 q q w w n r e R , 8 9 8 8 0 0 q q w w n r e O.+ ] 6 a s s a d d k f g g A j h R 6 a s s a d d k f g g A j h O.+ ",
"7 8 l l 9 8 x x 0 x x v n e n _ 8 9 9 z z y x 0 x J v n e n +.o 7 N B B s a Z f d d C E @.h A _ N B B s a Z f d d Z Z A h A +.o ",
"F G 9 9 z z z J J G J z c n n R G z 9 z 8 y J y G y G b n n   + F K S s s N f K Z K E K @.@.A R K S s s N f K Z B D C V L A   + ",
"P v I I 8 J G x G J I J 0 U n O v z I I J G x J J I J 0 U n @ o P Z a a a Z E E E E E K d A A O g a a B D D Z K D a K d A A @ o ",
"W , z c z z y z x I J z y e e O , y x y x u J y J u v H e e @ $ W 6 f d a Z V Z Z E K Z 6 h h O 6 f d D f V Z d D K Z 6 h h @ $ ",
"T e n w n q w 0 x G v q < r ! # e b w n q w 0 x G v q r r ! % + T h E @.@.@.@.g d E Z f  .j / # h ^ k V f V g D D Z f  .j / % + ",
"T < H c H n , q 0 q v y H ! ) = r Q w b n H q H q H w Q ! ) i o T < @.^ A k 6 f d E Z g j ` / = j L ^ V ^ V D B f Z g j ` / i o ",
"P > r ) n w 0 w v 0 e 0 < { ) # > Q ) n w w w 0 0 e 0 ) ! ) # M P 5 @.j L ^ g g Z E h 6 < ` 5 # 5 j / V k g g d d h g j ` 5 # M ",
"Y ) H ! r w e w w , e < ! ! } # ) Q Q Q b H b b H b Q Q ! } % o Y 5 | / j @.@.@.@.C @.@.@.` | # 5 | / N ^ h g g 6 h < / ` | % o ",
": 2 } ! ! ! r r n e r > ! } } @ 2 } ! ! ! r r n e < > ! } }   o : 4 | ` / / h j A  .j ' ` | | @ 4 | ` / / h j A  .j ' ` | |   o ",
"o.# @ @ X % i % @ . @ ..O.% ..$ % i 3 = @ . % @   @ @         i o.# @ @ X % i % @ . @ ..O.% ..$ % i 3 = @ . % @   @ @         i ",
": #.$.# %.: X &.m *.$.: ..%.W ..=.T # -.P ..-.;.[ :.>.R R ,.t <.: #.$.# %.: X &.m *.$.: ..%.W ..=.T # -.P ..-.;.[ :.>.R R ,.t <.",
": [ *...R & O *.[ [ *.[ & R [ o ~ & O 1.& O _ @ <.t 2.3.4.5.,.6.: [ *...R & O *.[ [ *.[ & R [ o ~ & O 1.& O _ @ <.t 2.3.4.5.,.6.",
"P 7 R & 7.R & $.$.8.$.#.$.9.0.$.#.R & 7._ O 7.@ _ t q.,.t w.e.Y P 7 R & 7.R & $.$.8.$.#.$.9.0.$.#.R & 7._ O 7.@ _ t q.,.t w.e.Y ",
"Y <.r.O ( t O t.T : y.Y : Y : Y : *.X : Y O Y i ~ _ u.p y.u.i.: Y <.r.O ( t O t.T : y.Y : Y : Y : *.X : Y O Y i ~ _ u.p y.u.i.: ",
"<.O # [ O ..M # ..X % # @ ..= O @ # + O ..X.# o.p._ p p : [ [ t <.O # [ O ..M # ..X % # @ ..= O @ # + O ..X.# o.p._ p p : [ [ t ",
"O.$ 3 3 $ $ $ $ $ a.3 s.a.d.s.a.$ $ $ $ $ . s.$ $ o.$ $ i $ $ $ O.$ 3 3 $ $ $ $ $ a.3 s.a.d.s.a.$ $ $ $ $ . s.$ $ o.$ $ i $ $ $ ",
"@ t t t t t t t t t t t t t t t t t t t t t t t t t t t t t t @ o o o o o o o o o o o o o o o o o o o o o @ R R R R R R R R *.@ ",
"@ t [ [ [ & #   # [ [ [ [ [ [ # - # - [ [ [ [ @ @ @ @ [ [ [ t @ [ 7.f.f.g.g.7.h.h.f.f.g.f.f.f.f.g.g.j.P R @ R @ @ @ @ @ @ @ k.@ ",
"@ t [ [ [ P l.z.x.+.[ [ [ [ M c.x.v.*.# [ [ O <.c.x.b.o & [ t @ R 7.f.n.7.f.n.j.f.] n.g.7.f.g.n.j.f.n.n.R @ T @ @ @ @ @ @ @ k.O.",
"@ t [ [ [ l.m.M.M.N.- [ [   B.m.M.M.c.  o o O c.m.M.M.c.O o t @ R f.V.C.9.Z.] f.A.S.j.D.n.7.A.F.f.D.( T R @ : G.G.G.G.G.G.G.H.J.",
"@ t [ [ [ K.l.L.P.I.- o [ - U.P.Y.l.x.- o o [ U.P.7.P.U.O o t @ _ C.T.C.j.R.[ T E.R T E.t 4.E.*.T W.R 4.R @ : k.$.= ] = ] @ Q.J.",
"@ t [ [ [ !.~.P.~.x.- o [ # b.^.l.^./.  o o o b.^.P.^.c.O o t @ *.j.C.j.n.@ [ t @ [ t @ [ t @ o t % o : R @ : & ..# @ % @ @ Q.J.",
"@ t [ [ [ 7.(.^.U.M o o [ [ M b.).b.& - o o O <.b.).c.& o o t @ R 7.n.7.7.R [ T [ _ T [ [ 4.~ _ T [ t ] R @ : e.$.@ ] @ ] @ Q.J.",
"@ t [ [ o o @ @   [ o o [ [ #   +.- @ o o [ [ O O O O o o o t @ R 7._.g.f.f.T n.7.] n.7.P n.f.T 7.f.( n._ @ : G.= @ = @ = @ Q.J.",
"@ t [ [ o o o o o o o [ [ [ o o o o o o o [ [ [ o o o o o [ t @ *.h.T.R.9.`.( g.A.T g.D.T $.A.T f.A.T ] R @ T e.$.@ 7.@ 7.@ Q.J.",
"@ t [ [ [ o '.'.'.[ [ [ o o [ '.'.'.[ [ [ [ [ O '.'.'.[ [ [ t @ ].7 E.j.L.E.*.P E.>.( W.t P W.R ] R.*.: *.@ : G.@ @ @ @ @ @ Q.J.",
"@ t [ [ [ [ [ o o O [ [ o o M o o o o [ o [ o o [ [ o O o [ t @ R n.n.n.n.% [ t @ [ m % [ t # [ t @ o T R @ : e.n.# ] # ] @ Q.J.",
"@ t [ [ o o o o o o o o o o o o o o o o o o o o o o o o [ [ t @ _ n.f.n.n.t [ m _ [ : [ p m ,.[ T [ [ T R @ [.& # @ o # # @ Q.J.",
"@ t [ [ [ P l.{.I.7 - o o o M B.}.v.  o [ o o [ c.x.b.- [ [ t @ _ |.V.C.9.A.( g.A.T g. XT $.A.T f.A.T T _ @ : e..X@ 7.@ 7.@ Q.J.",
"@ t [ [ [ l.m.M.M.N.- o o o B.m.M.M.XX  [ o o B.m.M.M.c.- o t ..[ oXT.OXL.E.*.P E.>.( W.t P W.R ] R.*.T _ @ T G.% @ *.# # @ Q.J.",
"@ t [ [ [ K.l.L.P.I.- o o o U.P.Y.l.x.- [ o o U.P.7.P.U.- o t @ *.T F.n.n.% [ t @ [ m % [ t # [ t @ o : R @ : p.h.@ $.@ $.@ Q.J.",
"@ t [ [ [ x.~.P.~.x.- o o o b.^.l.^.+X  [ [ o b.^.P.^.c.o o t @ _ t t t t t t t t t t t t t t t t t t t >.@ : G.@ @ @ @ @ @ Q.J.",
"@ t [ [ [ _ U.^.U.@Xo o o o o b.).b.  o [ [ [ _ b.).c.- o o t @ _ t t t t t t t R t t t t t t t t t t t _ @ [.G.k.k.k.k.k.k.H.J.",
"@ t [ [ [ [       o o o o o #X      #Xo [ [ [ [ - - - o o [ t @ + [ [ [ [ [ [ [ [ [ [ [ [ [ [ [ [ [ [ [ o @ [.k.k.k.k.k.k.k.$XJ.",
"@ t [ [ [ [ [ [ [ o [ [ [ [ o o o [ [ [ [ [ o o o o o o [ [ t @ @ @ @ @ X u.X @ @ @ @ @ @ = @ @ ..@ @ # @ @ @ @ @ @ @ @ @ @ @ J.",
"@ t [ [ o M '.'.'.[ [ [ [ [ [ '.'.'.[ [ [ [ [ O '.'.'.O [ [ t @ + [ %X&X*X=X*X&Xr.y./.m ~ -X~ Y ;Xt : ;XY R R R R R R R t t [ J.",
"@ t [ [ [ [ [ [ [ [ [ [ [ [ [ [ [ [ [ [ [ [ [ [ [ [ [ [ [ [ t @ [ R R R R t R R R R R R R t R R R R R R R R R R R R R R R R R J.",
"@ t [ [ [ [ [ [ [ [ [ [ [ [ [ [ [ [ [ [ [ [ [ [ [ [ [ & [ [ t @ [ [ & & [ [ O [ * o [ p O [ & O [ & O o [ [ [ # *.[ [ o [ o [ J.",
"@ t [ [ & P l.:XI.7 [ [ [ o _ >Xx.v.<.# [ [ [ [ c.I.b.& & [ t @ R ,X( X <X: # <X: # $.: # -.: # -.: # =.1X2X3X# *.$.: # -.t.p.J.",
"@ t [ [ [ l.m.M.M.N.  o [ [ c.m.M.M.c.% [ [ O B.m.M.M.c.@ [ t @ o & @ # p @ o [ ..# O @ # p @ # o @ o p # # # # *.O @ # p @ 4XJ.",
"@ t [ [ [ K.l.L.P.I.  o [ [ U.P.Y.l.x.% o [ O U.P.7.P.U.@ o t @ t 1Xj.# 5X] # 6X] # 1X7 # 5XW.# 5X7 - 7X7X7X7X# *.1X7 # 5XW.p.J.",
"@ t [ [ [ !.~.P.~.x.  o [ [ b.^.l.^.8X+ o [ [ b.^.P.^.c.@ o t @ o & O # o G.o o G.# p G.# [ ..# [ ..o *.4Xk.# # *.p G.# [ ..4XJ.",
"@ t [ [ [ 7.(.^.U.# o o [ [ M b.).b.& % o [ [ _ b.).c.@ o o t @ R 1X2X# ,X7.O 7XF # 1XW.# 5XF # 5XF O 5X7X7X7X# *.1XW.# 5XW.p.J.",
"@ t [ [ [ o       o o o [ [ o   +.- @ o o [ [ o @ @ @ o o o t @ *.R Y # : *.& T Y # Y Y # : Y # t.R [ : R *.*.# *.Y Y # : Y p.J.",
"@ t [ [ [ o o o o o [ [ [ [ o o o o o o [ [ [ o o o o o o [ t @ *.,X8.& ,X9X[ ,X<X# ,Xv.# ,X<X# ,X0Xo 7X7X7X7X# *.,Xv.# ,X<Xp.J.",
"@ t [ [ & o '.'.'.& o o o [ o '.'.'.o & [ [ [ o '.'.'.o [ [ t @ o ] ] & g.F p L.7.# 7.( # 7.F # F ( p f.] ] ] # *.7.( # 7.F p.J.",
"@ [ [ [ [ [ [ [ [ [ [ [ [ [ [ [ [ [ [ [ [ [ [ [ [ [ [ [ [ [ [ @ & p.p.p.p.p.p.p.p.p.p.p.p.p.p.p.p.p.p.p.p.p.p.p.p.p.p.p.p.p.4XJ.",
"@ @ @ @ @ @ @ @ @ @ @ @ @ @ @ @ @ @ @ @ @ @ @ @ @ @ @ @ @ @ @ @ @ @ @ @ @ @ @ @ @ @ @ @ @ @ @ @ @ @ @ @ @ @ @ @ @ @ @ @ @ @   J."
};
