/* XPM */
static char *result[] = {
/* columns rows colors chars-per-pixel */
"64 64 40 1 ",
"  c #1E1D11",
". c #231F0F",
"X c #241F15",
"o c #252214",
"O c #2A2415",
"+ c #2F2917",
"@ c #2C2619",
"# c #2B2919",
"$ c #302A16",
"% c #302719",
"& c #332C1B",
"* c #382E1C",
"= c #323017",
"- c #35301D",
"; c #3A321D",
": c #3D381E",
"> c #312C20",
", c #353222",
"< c #3B3422",
"1 c #3E3925",
"2 c #3C3728",
"3 c #41351D",
"4 c #41381F",
"5 c #413622",
"6 c #423A23",
"7 c #483D25",
"8 c #403728",
"9 c #423C29",
"0 c #493E2A",
"q c #464226",
"w c #494226",
"e c #44402B",
"r c #4A412A",
"t c #4E492A",
"y c #52452A",
"u c #534B2E",
"i c #4A4431",
"p c #4F4832",
"a c #524431",
"s c #524831",
/* pixels */
"++&@OoOO@&%%,,@XX.OXO@&Ooo##&>,*&>XX%XXX#o..#OXXO@&>&@>@OO@o+&@+",
"-000551&16,&*&&*@@&+&&$$++><&**,,<%%*@@@+&OO&&&#&&&<&*55>555090-",
"&1rr5rr005<51;<<&&<*1;;*&<29955*,,,>44*55&$;92$&<;<1<51rrr05rr1&",
"+*415r055,5<<1<<*%***;;;-&<255,,<,,3;6*;r5;51,%&;1;15<;;5rr545*+",
"+$-$*&&*;;;;454;&.&35&&#&----<1&&&++&;&;4&44;&X&;554;;--*&**$;++",
".O&&>&>>#++;4;;;&$O$*&#@&&&--&&&%&&**&*;;;;;;O+&;;;4;&##>>##>>O.",
".O$$&&&&-<;;;%%*&O%%&,&*=-<,&-2&%&<&;;1*;4;;<+&&*%%;;+#&*&**$+.O",
"$$*4666911#$&%%+O*%X*3**--&-<<2-&<<&5;;&&%%&&&5%+$$&&O;166653;$$",
"O*0rq1q1;&o#,@>><;;&;;&*1,*,,,<>9898451<-,&<889&>&%<@#-<1e:qw7*O",
"O555--;1,--##@&<<-<**+;&*;*&*<5692885;;qe1&<8&1&&*>@@-&;1-;*41<O",
"X5*5*;;;;;<-%%%%&*;51&;5;<;<**16990945;;999<<&<<>%,&#<<,-;;*5*5X",
"@O**$;;*<<;-X,<,&&*;<165;0085;1190884;;19992<&,;,>,#-<;<*;;***O%",
"OO&*,99>-+-<><1<5*O56166<5ar<*,1292<<12966<5&&19,>1,,-&&>99>**X+",
"$&,*>92>+*;,<>,<6;O;6<66<106,<10i21<,9999605&$-1<<<2;<&&>29<,*@&",
"$%%%,11><+&<,,,95;+*1664655<&<;19<19,9911505&&$19,2,<&&,,11>&%&+",
"&@%*>>>2,&,&,,,901**5<14656r<-,<2,>15192>15,---99,1,+*%<2>>>&%O+",
"O@,#2;54=&-;;=&;q16,8<57466r<-&+&;-<;&&692005,*1;$-;,=&=55;<&,+@",
"X%#>;4;;-+&<&;5=;19,5555974w<&;<;,6,<,<ea09891,<*4;*<=&-;;1;,#@X",
"X&>#&;-&=--,;&+&,<1;1<<5445<&&11195<0929p0i099<>&<-;<--=&;;+#>&o",
"X@###&-&&<<-;&=+*<;;*19;&*$&&&16156<6061r158<1<<+==;-,<&&;=###@X",
" @>##,9<,<<6;;1;&<<7751;a<<-5&66;56;100ee696<<<*<1;;1<,<,7q,#># ",
" @##<<6600;161<1&<<;567561<&*&<66941442202<665<&1<151<0096<1+## ",
" o##>>,ra6,96165&11&6;;*1<1&*116;14765629096501&<9196<6ar<,<1=o ",
" o#0>;<905<55<68;;;19t369<<1&9-5<1w665r9e29190<&66;56,6r5991p,o ",
"o@>,>>><55458865&&O;505r06;&-2,15<6774ut99<,5<,;16966:67969qq1&X",
" @,>>><09574<565<;O;;15w771;,1-1<5554599069387095969q76q7:;7&2@ ",
"@ #><><0666w5<6<63&*<56676r6,;<-19;&*&12p<ii7<8r<969t65:<1ww## @",
"@o@>,><r4776<5<;13O;;4r656r5<<<,5<<r;r7e0<5<,<1<<1<29,e;qqrq&# @",
"o@$-<+&<44675:;;1;$;355q66r<+=9=-&11<r,966r619<<9921210;:9=<,&+O",
">#-1,*&&$-;;r7;;;=%;655;44<,=,=$&;=,,=+;01661<-25992<97;qt1;<-,#",
"##,<&&&&-$;=655**O$3<65<7070;-,;,<6<;<<1r9991;1599e96wq:1ur;1-#@",
"##&&&$&&$$;;4;1;=$$416526at7=-11;96,0e1q-9219666090896qq1tr;-+##",
"@O++&<&&%55978<,&$;5755;0r67&*16169;6at211<<2<560889eqt6rrr-&OOO",
"OoO;5>51;<7u0*<8$&;5656;<754<>59;95;5092;1<2<*><<9897tq-9t01,+oO",
"#,&1<&&<944901**-;t;;1;;7ur&=-5569444151r61>;66:1699:14;7-;&,--#",
"o#&&<&&;7556<11*-;;;&*&+-709:1<61;4957r6755r6661<9<14644e9&,&+##",
"@o#>,><04766<5<*<+$1;<1&-;-67e,6;1r656w10e6i9t09<<<5596;tsr5+#o#",
"O @#<><0664r5<8<1O$;161;00;3-9*1554675r9r2ii0-11>65<045;rutr&# o",
" @,>2><r75741<6<-+<5156;8aw4;6*11<444511557519925855474<rtt1@<@ ",
"X#><>>#<5444666<$$19<95<5053-;;;19;--$--18<,<<&*<959443*1q21<>#X",
" @#e>,,901<66<57;=<1555544;+*-;ryyy7,19,9e11975*59;96;17qw;1r#o ",
"  o>>><ra6,66<9751&**14766r<*&15777721<<919690<&15166qqrqwqq1#o ",
"X@@#<<69er,6611799&;;;r556r;O$19554*191;11<685<*1;166<ewqw99##Oo",
" #>@>,6<;<<1217<;9&;;16776u5=;5177y770*,2999<<<&;1,<6,,<,6;,### ",
"o####&-&&,<-:;;*11&;*;55w65-,1;187096655061811*<$=&;-<;-+;+O###o",
"o###+--&---;;$-+<;1$*1;;667O,1<19yr60006i0i092<,&$+;,--=&;;&#># ",
"X@>,;4;;-+=;-;5**<101,91e1;#=1,15070re0ii00692>,-4;-<=&-,;1;,>&X",
"@&&&<;55=&-;;*&;1<1r9999<-++=<;<<71;6557<5091<<1;+-;<&==45;<>&@@",
"+@@*>>>2;&-&,2<21,<wr611,,;1=-&+,>,11112*5<*--&99;,,&=&-2&>>*&o+",
"+#@&,22,;+&;,1<9<&&rr6,<15<&1<--5<19,999<905&&&<9<<,<-%<,22,&%&+",
"&&*,>92>&&<,,,219&&56,,,906<9<;9912;<291997<&&&91,,,;,&&>19,**++",
"OX**,96-&&&<,,-,61&062-><955<*19999<<1196511-$58,,,2<&&-,29>,*o@",
"@O****;*;<1&,2&<<>&96;,;9991<56980294;::9999<*,<--<>&<;,*4****O@",
"X5*5*;;;,;11##@#<<,<:5*;99188580i98954;;992<,*<<##%@&<<<;;;$5*8X",
"O555;;;:<-1>>@>*&<&1:6<11,<5558082894;*591-<8%,*-&@@#&,,;;;;555O",
"X*0rq191<1>>1@&>&*91;:&1<,,<,,*<88884;+$%&&&*%$$&>@2#@&<1q10r0*X",
"+$*56999:1=--&@&O%&**5&*--&-<<8&,<<&5;+%$$&$+.$O$%$&+#;15906;;$+",
".O$$*$&&$#&;;+%&&OO$**+*&-<<,><*%&<&;*%&;4;;;%O&&%&;;&O&&;2*$$OO",
".O&>&&#>##&;4;;;&$%%*&@#$=&&*&*%&&*&&*%;;;;;;+O&;;;4;+@#&&>>&&O.",
"$$*&&&**;--;444;&.&55**@--*,&<<*&%&%$;&;4-44<&.&;441;;***&&&$&++",
"$-445r055,5<1<1;&&&;;;;;&&2<85,,<*<>;4;;r5;19&&&;1;1<5,5500545-$",
"&5rr50r00<551;;;*$<&1;;*-<91555*,,,>44;41$$;9<&&<<;15<50rw05rr5&",
"&000515*55,&<-#&@@#+$&&$@#&,*,*,,,@&*O+O$&Oo&&O@&&&-&*<1;11190e-",
"++&+OX@X%>@&&>+@.X@oO+#o@o>#%,*,%,@X$XXXoOXX@@XX@@<&&@*@OOXO+&+&"
};
