/* XPM */
static char *result[] = {
/* columns rows colors chars-per-pixel */
"64 64 44 1 ",
"  c #401810",
". c #2C1414",
"X c #3A160E",
"o c #381C18",
"O c #282828",
"+ c #280E00",
"@ c #2E160A",
"# c #452723",
"$ c #2A2A2E",
"% c gray19",
"& c #522B0E",
"* c #4C2014",
"= c #54281C",
"- c #5C2C24",
"; c gray25",
": c #202020",
"> c #5C3414",
", c #56322A",
"< c #481C08",
"1 c gray22",
"2 c #484848",
"3 c #613E2F",
"4 c #6A3E1E",
"5 c #714A37",
"6 c #653A2B",
"7 c #505050",
"8 c #585858",
"9 c #7D573B",
"0 c #3C5448",
"q c #4B4B55",
"w c #3E3E4A",
"e c #373739",
"r c #2E4236",
"t c #181818",
"y c #3D1F1B",
"u c gray3",
"i c #565662",
"p c #1C1C24",
"a c #101010",
"s c #5A2F26",
"d c #344C3C",
"f c #442104",
"g c #4C241C",
"h c white",
/* pixels */
" .Xoo..oo   oOo+@@X@ X@X X.## ...oXXXXXX@XXX .. X.$%o#&**ooo o#X",
"## *#oooo=-##;#.= ooo#=o##o###ooo#  X  X      o  o%;#*-=-##:###o",
"##-o#o# o===#;#.>=,####==oo#== oooo    X  X < ooo.12##**##o#=###",
"###o*o= o*#,,2#@-#####--o#o#=# oooo    XX <o*   * 12#o#o*#######",
"#o#o #o oooo#;# o*=#####o==ooo oooo    o      o  o13# =#*o##o##*",
"#=#o##o o#o*#1%.===o##o#o##ooo oo#oooo o       * :;;-*o#*o#=o*oo",
"oooo   oo*o#-3#.=##ooo*oooooooooooooooo   *o#***oo;3=#***#*ooooo",
"##o* **#o*#*=3%o-*##oo*o  *oooooooo#ooo     **o *#;3=##=*###oo##",
"*o= oo #o-#=*3#o==oo*##o oo* oooooo*o       X o oo13=-#=*==*oo#o",
"*o# o Xoo*-#*3; >=oo**o=oo oo o  oo#o*oo   o o* ==;2*#-*=***  *o",
"oo#    o#*--=2; =-o** ##   o###   o oooooo * **  #2,=#--#*oo#ooo",
"o *ooo= *-=->,%@*#**oooo  ooo# oo =* =ooo* o==##*o23-##-=ooo#* =",
"=,*=*--=####453#4##-=*=,##-=#,=,-333-3#333#--3,-6,35,,,O#o*=,#,,",
"5553533377785887957552732,355777572202227777887772q8777773557537",
"222;272222222;;;1ww11er%%%%%%%%2;e2;;;;;1;;11%%%%%%11%111;2222;w",
"11%o%##OOOO#O#O@@@ttto:oo::::@.;#y#yXX@@   X@u@  @@@@@@@@OOOO##,",
"#OX&* @@+++X XX * X+X .  XX...o1oX &#    *#o ##oo* o#oo#..*oo. .",
"32#==** o  ***#*=#--####-=ooo*O1#o*=**##-*#####o##-####-oo*oo *.",
"3, * *# oooo#*=#*o*=#o #**oo *#1%. **oo=***ooo#o#*   ***<*  * oX",
"32*= ** ooo   ***  o#o*#o   oo#1%o*>*  ***<* o#*#= =o ** o***=o@",
",3*>**=* o**  oo*** o#*=== oo %r#o*>* o  ***o=o#oo#*o=*  *=* ooX",
",3*>*=** oo  o*    *=##**#ooo*%1#o>== o*    *#-#o*=oo##ooo** oo ",
",3=#=**=#oo  **    *--## #ooo*1;,o*>= **o   *--*o *o*oo=  **o  .",
",2*****=o    **o* **-=   =o#o #1;*->*  ***X === * ****o=****  oo",
",3>#*>=*oo**o**** o>>=X***##*o111o--** ==* o=*=*=-***=##*****ooo",
",;- *>-* oo* ****  ****=o ooo*#w;#-** **o   *****  *oo=  *==oo .",
"#1- >>#o**o o**o   *== *   #o #2;#-*>=#*oo o=-=*=oo*oo*#=*--*oo.",
"#;-#--****ooo**o*oo#=***o o#= %21#==> o**#  **=**o  =###-=*#oo#.",
",2,*>>=--o X   *- *===#o**oo###2;##&&ooo#-==,--,==>=-#=#--#-##,o",
";1,,,333,#,#####-=,##########,1qw22;;,;1;33;;;,,3;;23,,;2;;,%%%1",
"222qqq2277qii777ii727722q27777iii772277777qqqqq2;2i77222;2;222e1",
"$%%%$$$%%$11;;%pp%%O$$$$$:$O$%OO$O:O:O%;%OOO:OO:::::OO::O$$$%$OO",
"a@a@@@@@@@@+O%ouaOO@@@@@@@@@@XXX@@ @X.1;@@@@XX@@@@X      @@@@@@@",
" .Xoo..oo   o%o+@@X@ X@X X.##oooo**&#o$%. XXXX .Xoo..oo#o... o#X",
"## *#oooo=-##2#.= ooo#=o##o###:##-=-*#e;o==ooo## *#oooo##oo####o",
"##-o#o# o===#2#.>=,####==oo#=##o##**##;2.=######-o#o# o##oo =###",
"###o*o= o*###7#@-#####--o#o#=####*o#o#;; #o######o*o= o##oo ####",
"#o#o #o oooo#2# o*=#####o==oo###o*#= #,2ooo=*##o#o #o o#==o o##*",
"#=#o##o o#o*#;%.===o##o#o##ooo=#o*#o*-12:=o,o##=#o##o o###o o*#o",
"oooo   oo*o#-3#.=##ooo*oooooooo*#***#=,2o=##oooooo   ooo#ooooo#o",
"##o* **#o*#*=3%o-*##oo*o  *oo*###*=##=37#=*=####o* **#o##*oooo##",
"*o= oo #o-#=*3#o==oo*##o oo* **==*=#-=32o==oo**o= oo #oo*oo#oo#o",
"*o# o Xoo*-#*3; >=oo**o=oo oo#***=*-##;2==-oo**o# o Xoo *  o  *o",
"oo#    o#*--=2; =-o** ##   o#ooo*#--##,2#*##o*oo#    o#o   ##ooo",
"o *ooo= *-=->,%@*#**oooo  ooooooo=-##s3;o*##==o *ooo= *= oo #* =",
"=,*=*--=####433#4##-=*=,##-=##=*o#O,,333,6-,3--#333#3-333-,=,#,,",
"353,3,,,;;;1,78759795273733557775772027q2777772222777727;,33;33;",
"w;%%::ttptttp:::O1e;;;d;1;1%111w;1%%%$%%%%%%%OO%%O%%%%%%%%%%11;;",
":1a@a@@aaaa@a@a@@oOOO#:##O#::@.2#@@XX@@@@  @:#X   ###,## XX@.X@@",
"#2@f* @@+++X XX * X+X .  XX...o1oX &#    *#o ##oo* o#oo#..*oo. .",
",;y*=** o  ***#*=#--####-=##o*O2#o*=**##-*#####o##-####-oo*oo *o",
",,X  *# oooo#*=#*o*=#o #***  *#2%. **oo=***ooo#o#*   ***<*  * o ",
",1 * ** ooo   ***  o#o*#o = oo#2%o*>*  ***<* o#*#= =o ** o***=oX",
",3 &**=* o**  oo*** o#*===#*o 10#o*>* o  ***o=o#oo#*o=*  *=* oo ",
",3&&*=** oo  o*    *=##**#  o*17#o>== o*    *#-#o*=oo##ooo** oo*",
",5**=**=#oo  **    *--## # oo*;83o*>= **o   *--*o *o*oo=  **o  o",
",7 &***=o    **o* **-=   =o*o ,7;*->*  ***X === * ****o=****  o#",
",5>=*>=*oo**o**** o>>=X***=**o171o--** ==* o=*=*=-***=##*****oo#",
",7#**>-* oo* ****  ****=o =*o*,q;#-** **o   *****  *oo=  *==oo o",
"#2#*>>#o**o o**o   *== *  *-o ,7;#-*>=#*oo o=-=*=oo*oo*#=*--*ooo",
",7#=--****ooo**o*oo#=***o *== ;7;#-=> o**#  **=**o  =###-=*#oo#o",
"37#=>>=--o X   *- *===#o** o##,77#-44 oo#-==,-s,gg>=-#=#--#-##,#",
";2333333,#,#####--3333###533-3333###,#,##3#,-#,;2133,3533#######",
"i722;222;%;2;;;;222211;7227122211;722;1e21227777qi722;2;;1%;;;;;"
};
