/* XPM */
static char *result[] = {
/* columns rows colors chars-per-pixel */
"64 64 137 2 ",
"   c #595949",
".  c #635949",
"X  c #515149",
"o  c #595149",
"O  c #635951",
"+  c #494130",
"@  c #6A6A51",
"#  c #515141",
"$  c #595951",
"%  c #595151",
"&  c #636359",
"*  c #6A5959",
"=  c #6A6351",
"-  c #636351",
";  c #595141",
":  c #302821",
">  c #393021",
",  c #514939",
"<  c #393028",
"1  c #303021",
"2  c #393928",
"3  c #413930",
"4  c #8C9383",
"5  c #83837B",
"6  c #93937B",
"7  c #B5ADA5",
"8  c #B5AD9C",
"9  c #93A593",
"0  c #8C9372",
"q  c #9C9C93",
"w  c #939383",
"e  c #9C937B",
"r  c #7B7B72",
"t  c #8C8C83",
"y  c #939C83",
"u  c #9C8C83",
"i  c #9C938C",
"p  c #939C8C",
"a  c #93A59C",
"s  c #B5B5A5",
"d  c #9C9C83",
"f  c #938C7B",
"g  c #8C7B7B",
"h  c #ADA58C",
"j  c #ADA593",
"k  c #B5B59C",
"l  c #BDBDA5",
"z  c #A59C9C",
"x  c #282118",
"c  c #9C9383",
"v  c #9C9C8C",
"b  c #A59C8C",
"n  c #9C9393",
"m  c #93938C",
"M  c #8C8C7B",
"N  c #8C9C8C",
"B  c #8C9C83",
"V  c #9CA593",
"C  c #938C83",
"Z  c #838C7B",
"A  c #6A6A59",
"S  c #393930",
"D  c #727263",
"F  c #9CA58C",
"G  c #A59C93",
"H  c #ADB5A5",
"J  c #939C7B",
"K  c #8C9C93",
"L  c #9CA59C",
"P  c #ADAD8C",
"I  c #A5AD93",
"U  c #ADA59C",
"Y  c #A5A58C",
"T  c #726A63",
"R  c #938C8C",
"E  c #9CAD8C",
"W  c #413928",
"Q  c #8C937B",
"!  c #8C8C72",
"~  c #8C837B",
"^  c #838372",
"/  c #837B72",
"(  c #7B726A",
")  c #ADAD9C",
"_  c gray84",
"`  c #ADAD93",
"'  c #ADB59C",
"]  c #A5A593",
"[  c #A5AD9C",
"{  c #B5BDAD",
"}  c #BDC6AD",
"|  c #BDBDAD",
" . c #B5BDA5",
".. c #BDB5A5",
"X. c #6A6A63",
"o. c #B5AD93",
"O. c #635959",
"+. c #A5A59C",
"@. c #ADB593",
"#. c #7B7B6A",
"$. c #6A6359",
"%. c #93A58C",
"&. c #A5938C",
"*. c #72726A",
"=. c #9CA583",
"-. c #83937B",
";. c #A5AD8C",
":. c #493930",
">. c #9C8C8C",
",. c #392821",
"<. c #BDC6B5",
"1. c #9C9C7B",
"2. c #494139",
"3. c #ADADA5",
"4. c #7B7272",
"5. c #A5B59C",
"6. c #494939",
"7. c #ADA5A5",
"8. c #9CAD9C",
"9. c #A59383",
"0. c #635141",
"q. c #AD9C8C",
"w. c #8C8372",
"e. c #938C72",
"r. c #726A6A",
"t. c #6A6363",
"y. c #B5A593",
"u. c #303028",
"i. c #7B7263",
"p. c #392828",
"a. c #8C9393",
"s. c #9C8C7B",
"d. c #7B8C7B",
"f. c #9CAD93",
"g. c #8C7B72",
"h. c #A58C83",
"j. c white",
/* pixels */
"  .   X o o   X o . o o O o + @ @ + # $ o % X $ .   $ & * =   o - - - - - -   . ; ; ; ; # : > , # < < : : < < 1 < < < 1 : < 2 3 ",
"= 4 5 6 7 8 9 0 5 q w 4 e 5 3 : : 3 r t y y u i p 5 p a s 8 d f g 5 g g 5 g i h j k k l 8 z 3 x x < d d c q i w v v y b n p m 3 ",
"$ M M f N B V p w M w C M Z A 2 S D m b i f Z w F b c G H v J K 4 L q P v F v I U F v Y Y K T < 3 D R i C U c F E Y v c v v m W ",
"X 6 w w M Q t M M ! M m w c v v c w t C ~ ^ / 5 M m p m q w 4 4 4 p 4 w i t M w f f f w w M w i w v v M i w f w w f t ^ ( b 4 < ",
"o ) c M w _ l ` k ) s ' k k k ) s k ) s ] q ] ) [ H H { } | }  . .s | H s '  .) k ' ) ` .. .s | |  .s k k l k  .k ) v ~ X.p C 2 ",
"  o.b M v k Y ` Y I v v I ] v w v v v i v v m w V [ [ ' ] k ' H [ [ I ) F ] V v v v ] b j ) j Y ' ) ` ] I v ` I ` Y v r O.p d W ",
"  K v w v s j ] Y v ) I ] ] d p 6 w v m 4 w t w i ] I b ` ) [ ' ) ' +.] ` v v [ v ] v Y ] v v v ] Y Y Y Y ` ` @.` Y b #.X.F w < ",
"X 0 w M V s ` j b ] Y k F F w Q v p v 4 w m v v v v v Y ] ] ] ] [ [ ) F I I v ) I v v v v i v v I v ] Y Y v Y ) ` j b ^ $.y Q W ",
". ~ %.4 v l ] ` b ` ` Y Y I F 4 M 4 M w M y v w v F v v ] ` ] ) ] [ I ] v ] Y I b b v ] ] v v v Y d d v Y v v F ` Y Y / & 6 ~ 3 ",
"O v &.w Y ) ] ) h ` @.k I v w B w Q w M y w v F d F d Y Y v +.) I [ ] ] F Y Y Y Y Y Y v w Y p F Y Y i c ] v F ] Y Y ] *.O d p 3 ",
"$ 8 y Q v  .` ` ` Y Y ` Y I F 4 Q m v v w M w w v w v v F v +.[ ' F I F F d v Y Y d Y w w w y d v v Y v w ] Y Y Y I p r X.q ` 3 ",
"  v y M Y ) F v v b @.' @.F I v v w v v Q M Q 6 =.d Y v F ] I [ I V F Y Y F Y =.v Y F w v F Y F F Y ] v Y ] v ) ' ) V *.X.v v 3 ",
"o w -.Q w ' v v Y ;.` F Y ` v Y v F d w v Q M F Q v y F ] v Y ] [ ] F v F I ` ` ` v v d F Y F I ` F Y v v v F ] I ' ] r A ` w :.",
"O e 4 M v ' I Y v ` Y Y Y ` Y v Y y v w Q 6 w v 6 F Y v v Y v v v ] F v Y Y ` Y Y ` v I Y d ;.v Y F v v v Y v ] ) Y v #.$.v c 3 ",
"o 5 M M v ) I ) F I ` ` v Y v Y v d F v w y v F y v w Y y Y v ] F v d v v Y v ) 8 Y b v Y F Y ;.Y ` ) I ] F F v F F w #.$.K i W ",
"+ 3 A w w ' Y Y ` ) F v v d v v F v v p d y v Y y v v v v v v v F v y F w F b ] Y Y j Y Y ` ' ] ' ` I ) Y v ] i ] d F *.$.T 3 > ",
"@ : 2 c y k F @.) F ' I Y v ] F Y v Y F Y d F F w p v d w v w v w v y v w v F I ] I ` Y ) Y ` ` I I ] Y Y ) ] ] ] Y v ( & < x , ",
"@ : S w v  .F Y @.I Y I ] ] [ ] v v V v F ] w F v v y F F d v y v F w v w Q v v ' ) Y ` ` Y v ) ) ] ) ) ] k ) ) v v v r $.3 x # ",
"+ 3 D v d l ;.Y ' Y ' ) [ [ V F ] F ] d I v v v ] v F F v Y F d Y w v Q M v F d d ` k ) ' ) ] Y Y ] Y Y ' ) ` ) I w v D $.*.< < ",
"# r m V ]  .I Y ' Y I F ] F [ I ] F v F ] Y ) ] I V F i I Y Y d d Y d w w w d Y ;.' ` ` ` ) I F Y I ] ' ' ` Y Y ] v w T O R d < ",
"$ C G m ] | ) @.) ` Y ) Y I v v F v F ] ] I F I I ] d p v c v v c Y w v w w w v d ` ` ` @.Y ' F F I Y I ' ) I Y v v w T $ >.t ,.",
"o p q q ] | ' ;.;.Y F d Y F v v y v ] v I ] F v ) I I I F v v w F F v v w v w F Y Y k @.` ` ` ` Y v ] ] ' ) ] ] p v f #.O w c < ",
"  c ] v +.<. .I Y d F 1.F v w F v I Y v ] ] V ] ] I Y Y ] F v y v v C v w m v F d b @.` @.' ` Y ) V I ) ' s ) v w v w (   v m < ",
"$ q +.V ] { ) I I y y Q Q w y v F F ] ] Y v v ] F F v F c F v p v v m v v w v Y Y F @.P Y @.] Y ) [ H ) s ' ' Y p v i ( $.m C 2.",
". V 3.+.+.{ I v v F 4 y 4 M 4 p F ] v ] v i v v ] ] F v v v F v V q I v v ] v d d d v Y Y Y ' @.[ s H H ' ] ' I v v v *.* 1.p 2.",
"  m j q V s ] Y v v p M M v v V I Y F v c ] ] V V F F v Y Y v ] V F ] Y ] b w v y Y Y Y I Y ` ] ' ' s s ) ) F ] v q v T $.B u 2.",
"$ ] ) ] ] s ] F v d p v v Q p p F v Y v ] v V v ] ] v ] v d d F F v Y v ] Y v v v 6 ] Y Y v I [ ) [ s ) ' ] Y m p w m 4.O d &.2.",
"& k 3.c ] ' F F v y Q 4 v w w v v v F ] I v ] [ V [ F ] v d Y v c I v ] v v v c 6 d F v y p v ] [ ' ) Y ] d v F d V v *.& Y j 2.",
"* o.5.v v k y y y y v w d d v y F v I F ] F ] [ ) [ I ] F v Y v b Y v v Y v v d w p y F y v y V V ] ` ` d v w d w p v #.O.v z 2.",
"= ' =.v v I v v y Q v F 6 v v d ] ;.] F F ' ' ' [ F F v v w Y i ] Y v Y I w w w v p w 6 F d y +.` Y ) ] ] w v y w F F #.& z j 6.",
"  ] 7.i ] ' v p y y w M w v y Y F F ) F v ] V I v ] 4 v p v c b Y ] I ` I v Y y p p v v F F v F ] ) [ Y F d F d F F w *.$.E F 2.",
"o 8.z v +.s v v M 4 y w d J 6 F Y F I ) ] Y I ] v V p w M c p b v Y I I I ] ;.Y I y F v F v ] ] ' ] ' ` ` Y d F 6 w M ( O.J u 2.",
"- V L q V s F v y v Q d y Q F Y F I I v Y F v F v 4 w w v v i i v ] ] Y ` Y v v F v Y v d ] F ) ' ] ] Y I P F Y v v w *.$ v t 2.",
"  ) v v v s ] Q y v F w v 6 v v F I F d v F V p v Q F 6 v w Y v v Y ] I I Y ;.;.d d d v d v ] ] ) k ` P P ` Y F d M M X.O.c C 2.",
". l o.i F ) v y w y v d d y v v v F I ] ] F ] Y F F v v ] Y Y v v ' I @.;.` I Y v d v e Y y I ] Y P P h ` Y ;.F y 4 t X.% 9.w 2 ",
"0...e v v k y M d F d F v w Y v v p w p F v v v v v v v ] v ] ) ) ' ] ) Y v d Y Y d c =.y F v Y P c Y j Y ;.' I w v M X.% M C 2 ",
"  q.w.w v I w v w F v w v v v Y Y v v p v F p d v Y I v ' Y F ` Y ' ' ' I Y F F v F y Y v v v Y v v b Y k ' ) ` y v Z X.O w d W ",
"  &.d ~ M I 6 p y w p w w Y Y ] Y v 6 p 4 V F F v y v v v I Y I I ] @.I I V V ] Y v F ] v F F v w c v ] ] ] ' I V m 4 *.O.Y w 2 ",
"O R p ^ M ] w M w p w w v d Y Y I ` F F F F ] v ] Y Y v I I F F I ] k ' ) F v ] F F I ] p F F v v v v v ) Y ) v v v w X.O.d Q W ",
"O I e.~ ^ F Q w 4 d v v v Y ] Y ' F F F V F ] ] y F v F I ] F ) ] Y ' ` I I I ] ] i v v y =.v F d d F I ) ) Y F p v m r.$.6 5 3 ",
"O q N C Z ] p M F ] i v Y v ` ` ` F ] F V v ] I I v ] F F V V F I Y ` F Y Y v v F p V v Y v F v ] ] ] ] ) ] ] ] v w C ( t.m v 3 ",
"O 8 q.w 4 [ M w w F w v b ` Y I I Y v ] ] F I I F V v v ] F ] F ] ] I Y d Y Y i w m i d ] y p v F I Y [ Y y v d m b w *.O.I ` 3 ",
"o ..y.M M v w M d F c w Y Y Y v Y I v [ ] v I ] F V ] v v F ] [ v Y w v d v w F F F ] w F F F Y v I [ ] ] F v F v w w #.* Y w ; ",
", k F M ~ p M M w v y w c v w v Y c ] v v Y [ [ I ) V F [ V ' [ ] v y w Q M w v v ] F v F w w v d Y v I v Y v F i v v ( $.v c # ",
": z p / M V M M 4 d w v v p M d d v w v i U ] ) ] ] [ F F +.H V V V w w w w t v v v v w Q p p p F ] v v Y v F F v v w T o K i : ",
"> 3 T M w [ w v M y 4 Q v M w 6 w M v i G v j ] ) ] Y v +.H [ L V q m w w 4 4 v w F F M t 4 v 4 d v d Y Y d 6 v M m w *.O.T 3 > ",
", x < ^ M [ v p p M v y Q w d Q w C m m v q ] +.F [ ] ] +.+.+.] v v v w M t m t m w i t w w 4 p v w v Y w d v p 4 V m T O < x , ",
"# x 3 M M v w m w v Q 4 y w w c i t t v v G G v v v ] ] ] ) +.] m w v t v w v v v F v F w v p w ] I v d v w v p v m p *.o 3 x # ",
"< < D 5 w ] F w w v w w w F d w v m p v q v ] F F v Y v ) ] v ] F m t d m v v v v m m ] F v p v I v [ ] I v y Q p p t t.X *.< < ",
"< d R M M ) w p v F V ] I v v v v p 4 t w v v F F v v I ] I ] v v v f f w d v F m V v v v ] i v +.I v F v V p F p M M & o R d < ",
": d i w.M I c v ] V ] ] v v ] w v m M t Q w v v i w F +.] ] ] ] d v f w 6 6 d w v v ] v Y i ] v F v v ] ] V F F p t M & X i t : ",
": C i f M ) v v v ] ) V I V p i v C Q 4 w w d 4 m v ] ] ] ] ) ] Y w 6 c f w C w y v v ] v v v V v I I v v m v v t w w T O p e : ",
"< m G w v ) v p I [ ] ] ] ] v v m v w i w w w w w ] ] ] ) ] I v w w v v y Q p M ] ] v v Y w v ] I Y v v w p v p 4 w w X.o i R : ",
"u.R i v 6 ) y p I +.) Y ] ] ] ] v d v v y y w M w v j ] ) ) v Y v M f 4 w 4 w w ] d Y v v w v ] ] Y v Y v Q v m 4 p M D o i R : ",
"< C c w w H y F v ] ] I v ] ] Y Y y v Y y w v p w ] ] ) j v Y w M v v v F 6 F F v Y ] v v d Y v v d v Y p v p m y w M T $ J i : ",
"1 M M w v I V V [ q v ] v ] y v v d v F v F v w i ] i v Y v v w p v Y F y d v i F F Y p d d b Y Y ` v Y v F i v w v M D   d m : ",
"< d 4 p v ' V V [ ) [ V V V F v F v d v v v Y v v ] i v Y w y 4 w p w F F F v ] v I v y v c Y ] ` v Y v v v Y v v w M A O E w : ",
"< w v v v H H H +.] ] [ [ +.+.] ] v c w v b v ] ] ] w v v w M m M 4 w y v w F ] ` ` v Y v d ` ) Y b G i v w v w v w M D O d w : ",
"< w F m ] V +.+.V ] V V +.p v v v c c d f c b b Y v w 6 M Q M M M 4 p 4 4 p w ] v Y F v v v j b j U d ] G w f C M 6 M D O 9.w 2.",
"> v Y m m t 5 ~ / 5 / #.r / *.#.( #.( i.( ( r / ^ ^ *.#.X.X.T X.& X.r ( ( #.( #./ ( *.( ( / / r / / / / ( r T *.A $.A A O b v : ",
"< n h t 4.r.*.t.T X.X.X.X.O O & & O $.O $.$.$.X.T t.O O & % % X O.& O.$.t.$.O.X.X.& $.$.$.T T T T $.T & t.X.O.O o O $ O O K G p.",
"2.i =.v F +.) %.b q.a.E k b A < S r c i b h q ` n 8.+.h v U v >.p Y =.s.` ` V h +.z ] p q b $.< 3 *.R n n w 4 d.M c d b b w y 3 ",
"O 4 M c 7 8 f.0 M q k w e Z 3 : 1 3 r w y y u i p t n 5.b b 5 g.5 t o.R h.m +.q.U I ` U i G S x x < d d t c m M c w Q d i p y   ",
"2.    X o     X . O $ o O o 2.@ @ + # $ o % X $ .   $ & * =   $ @   . 0.    O - o ; 6.; 2.: > , # < < : : : p.: < u.< 1 : < 3 o "
};
