/* XPM */
static char *result[] = {
/* columns rows colors chars-per-pixel */
"64 64 242 2 ",
"   c #0F210F",
".  c gray6",
"X  c #0F0F21",
"o  c #0F0F18",
"O  c #080F0F",
"+  c #180F21",
"@  c #0F1821",
"#  c #0F180F",
"$  c #180F0F",
"%  c #181818",
"&  c #0F2118",
"*  c #08210F",
"=  c gray3",
"-  c #212828",
";  c #182121",
":  c #211821",
">  c gray13",
",  c #303028",
"<  c #133423",
"1  c #242A28",
"2  c #0F1818",
"3  c #393939",
"4  c #393928",
"5  c #303928",
"6  c #393028",
"7  c #283028",
"8  c #213028",
"9  c #213030",
"0  c gray19",
"q  c #283030",
"w  c #212128",
"e  c #212130",
"r  c #416A30",
"t  c #4CB043",
"y  c #211F21",
"u  c #191821",
"i  c #182821",
"p  c #212821",
"a  c #390F18",
"s  c #0F2121",
"d  c #080F08",
"f  c #182128",
"g  c #495149",
"h  c #303039",
"j  c #18180F",
"k  c #182118",
"l  c #282821",
"z  c #636359",
"x  c #BDC6CE",
"c  c #414141",
"v  c #081808",
"b  c #303939",
"n  c #212830",
"m  c #282828",
"M  c #282830",
"N  c #181821",
"B  c black",
"V  c #00080F",
"C  c #080800",
"Z  c #1C212A",
"A  c #233751",
"S  c #2A323C",
"D  c #171A21",
"F  c #0B3F3C",
"G  c #08080F",
"H  c #000100",
"J  c #303659",
"K  c #28333D",
"L  c #232C30",
"P  c #1A1A18",
"I  c #0F181A",
"U  c #394067",
"Y  c #164945",
"T  c #135150",
"R  c #1D2118",
"E  c #374D70",
"W  c #24707B",
"Q  c #0B5C59",
"!  c #2D6786",
"~  c #060808",
"^  c #212118",
"/  c #19494B",
"(  c #165059",
")  c #186161",
"_  c #000808",
"`  c #185F63",
"'  c #1E5559",
"]  c #1A3730",
"[  c #080818",
"{  c #0C3739",
"}  c #0C5559",
"|  c #283930",
" . c #122C2D",
".. c #080F18",
"X. c #000008",
"o. c #182108",
"O. c #18210F",
"+. c #728C8C",
"@. c #6A8383",
"#. c #1D2121",
"$. c #165D43",
"%. c #182828",
"&. c #08180F",
"*. c #0F0F08",
"=. c #0F1808",
"-. c #180F18",
";. c #0F676A",
":. c #495959",
">. c #414949",
",. c #495151",
"<. c #0F0808",
"1. c #002E2E",
"2. c #134334",
"3. c #0F080F",
"4. c #303941",
"5. c #010008",
"6. c #394941",
"7. c #213021",
"8. c #081818",
"9. c #6A6A6A",
"0. c #0F2128",
"q. c #182130",
"w. c #282128",
"e. c #182818",
"r. c #210F0F",
"t. c #838383",
"y. c #182830",
"u. c #080F00",
"i. c #0F1800",
"p. c #0F2100",
"a. c #0F0F00",
"s. c #000800",
"d. c #283039",
"f. c #183030",
"g. c #726A00",
"h. c #7B7200",
"j. c #6A6A00",
"k. c #181800",
"l. c #212100",
"z. c #727B00",
"x. c #A5BD00",
"c. c #837B00",
"v. c #282100",
"b. c #727200",
"n. c #281800",
"m. c #398339",
"M. c #000F08",
"N. c #183039",
"B. c #0F3030",
"V. c #0F2830",
"C. c #181808",
"Z. c #282808",
"A. c #182100",
"S. c #213039",
"D. c #183028",
"F. c #000F00",
"G. c #000F0F",
"H. c #0F2108",
"J. c #082121",
"K. c #080F21",
"L. c #082128",
"P. c #515139",
"I. c #495139",
"U. c #08720F",
"Y. c #49BD00",
"T. c #086A0F",
"R. c #284900",
"E. c #305100",
"W. c #304900",
"Q. c #081821",
"!. c #398341",
"~. c #0F0800",
"^. c #081800",
"/. c #001800",
"(. c #212839",
"). c #41B500",
"_. c #006A0F",
"`. c #284100",
"'. c #283939",
"]. c #282839",
"[. c #514939",
"{. c #082118",
"}. c #000F18",
"|. c #284139",
" X c #395159",
".X c #415163",
"XX c #394151",
"oX c #213939",
"OX c #415159",
"+X c #495159",
"@X c #414959",
"#X c #72720F",
"$X c #394149",
"%X c #495963",
"&X c #515959",
"*X c #414149",
"=X c #394951",
"-X c #415151",
";X c #395151",
":X c #414951",
">X c #595139",
",X c #394959",
"<X c #495163",
"1X c #395163",
"2X c #304951",
"3X c #0F2828",
"4X c #304949",
"5X c #394159",
"6X c #303949",
"7X c #304151",
"8X c #413928",
"9X c #393921",
"0X c #0F2821",
"qX c #283951",
"wX c #283041",
"eX c #082821",
"rX c #283941",
"tX c #213041",
"yX c #415963",
"uX c #49636A",
"iX c #494951",
"pX c #515159",
"aX c #515151",
"sX c #494949",
"dX c #414151",
"fX c #304139",
"gX c #394139",
"hX c #304149",
"jX c #41516A",
"kX c #49596A",
"lX c #41596A",
"zX c #41636A",
"xX c #51636A",
"cX c #496363",
"vX c #181828",
"bX c #082828",
"nX c #393941",
"mX c #304141",
"MX c #394949",
"NX c #494151",
"BX c #394141",
"VX c white",
/* pixels */
"  . X . . . . X . X   X o X . O X O . . X . X + @ + # $ o . % X   . X . . . . X . X   X o X . O X O . . X . X + @ + # $ o . % X ",
". . o . X & . . . . X . . . . . . . . . . . .   . * X @ $ & . * . . o . X & . . . . X . . . . . . . . . . . .   . * X @ $ & . * ",
"= = = = = = = = = = = = = = = = = = = = = = - ; - : > ; , < - = = = = = = = = = = = = = = = = = = = = = = = - ; - : > ; , 1 - = ",
"2 3 4 4 , 4 5 6 5 5 7 8 9 - 0 8 q 0 - 7 ; = q 0 w e - 9 r t y = 2 3 4 4 , 4 5 6 5 5 7 8 9 - 0 8 q 0 - 7 ; = q 0 w e - 9 r t u = ",
"2 - i > i > i i > p i > - i > > p i p p i = q p w % o 2 a < w = 2 - i > i > i i > p i > - i > > p i p p i = q p w % o 2 a 1 w = ",
"s i d = d d d d d d d = d d d d d d d d f = q - . 3 g h % j > = s i d = d d d d d d d = d d d d d d d d f = q - . 3 g h % j > = ",
"% w i ; ; ; i i ; k ; i ; > ; ; ; i ; i ; = q = l z x g c 2 o = % w i ; ; ; i i ; k ; i ; > ; ; ; i ; i ; = q = l z x g c 2 o = ",
"k ; d d d d d d d d d d v d d d d d d d ; = 7 = 2 b g 3 % 2 # = k ; d d d d d d d d d d v d d d d d d d ; = 7 = 2 b g 3 % 2 # = ",
"% - q 7 n q m 8 q q q 8 q 7 q 8 7 m q q M d q w = % m o % 2 > = % - q 7 n q m 8 q q q 8 q 7 q 8 7 m q q M d q w = % m o % 2 > = ",
"N N N N N N N N N N N N N N N N N N N N N N h - w . o 2 o w w = N N N N N N N N N N N N N N N N N N N N N N h - w . o 2 o w w = ",
"% B B V = = = = = = = = = = C C B B B B B = q w - - - w m w 7 = % B B V = = = = = = = = = = C C B B B B B = q w - - - w m w 7 = ",
"; = Z A S m m Z D % o % 2 % F % . . O G H = 7 G w = > O w = - = ; = Z J K L 1 Z u P . P I P . P . . O G B = 7 G w = > O w = - = ",
"> @ U U U S S Y Z D D D D D T R R . . . H = q = i = m = q = > = > @ E W E K K L Z u u u u u P P P . Q . B = q = i = m = q = > = ",
"> f U U ! S S Y Z Z Z Z y Z T R R R o . ~ = q ^ N w w f - ; ; = > f E E J J L K / ( ) ) ( / 1 P P P . . _ = q ^ N w w f - ; ; = ",
"p f U U ! S m ` T T ` T ' ' T Y ] ] ] . ~ = = . . = G = O [ G = p f J E J K K / { L 1 1 L K / 1 P P . . C = = . . = G = O [ G = ",
"; % A U ! S m } Z Z Z m m m m R y % % O ~ = | q q 0 q q q q ; = ; % K E J K / L  ./ ( ) / K 1 / 1 P P O _ = | q q 0 q q q q ; = ",
"f ..Z S ` S m T Z T ' ' ` ` ` ` } F F < X.= 0 o.O.& k # k O.p = f ..Z ( L / K  ./ Z Z 1 1 W 1 L { P I . X.= 0 o.O.& k # k O.p = ",
"; O D y ' Z m T y T m Z m m m R } 2 . O H = q 7 +.> @.i @.k - = ; O u / Z ( L / Z #. .Z ( 1 / #./ I . O B = q 7 +.> @.i @.k - = ",
"; = 2 D T D D } T $.F Y Y Y ] ] $.] < < H = b %.m &.7 . m . > = ; = I { Z Q #.Q u #.#.Z 1 1 ) #.Q . . *.B = b %.m &.7 . m . > = ",
"; _ O 2 Y D D F % ] D y y m Z y T . . ~ H = q > &.=.# # o -.; = ; _ O { u Q u ( P P u ;.W W W ) Q Q Q ~ B = q > &.=.# # o -.; = ",
"; _ O 2 Y 2 D F % F % y y y y y T . O ~ H = 0 - p k k k > % - = ; _ O { I / I { Z P P #.#.1 / #./ . *.~ B = 0 - p k k k > % - = ",
"k X.~ O F } Y } T } ' ' ' ' ' } Y . *.~ H = | - :.& >.& ,.<.i = k X.~ 1.. {  .I {  .#.#.1 2.#. .{ . Q ~ B = | - :.& >.& ,.<.i = ",
"; B ~ G F . o 2 # % % % T % % % T . ~ ~ H = q p 3.O # O = . w = ; B ~ { O I { I # { ( ( { P #.{ I . ~ ~ B = q p 3.O # O = . w = ",
"; B X.~ } G O . . o . % Y % % # F ~ ~ H H = q p 4.% b 2 b = w = ; B 5.{ ~ O I {  .I . P I  .{  .. ~ ~ B B = q p 4.% b 2 b = w = ",
"% B H X.F ~ ~ < G < . G F *.. . F < H H H = | > d O 2 *.*.. > = % B B { ~ ~ ~ . 1.{ Q Q {  .I . ~ ~ B B B = | > d O 2 *.*.. > = ",
"N B H H X.X.X.X.~ ~ X.~ ~ ~ ~ ~ ~ H H H H = q 8 >.2 6.& >.<.; = N B B { 5.5.5.5.~ ~ 5.~ 5.~ ~ ~ ~ B B B B = q 8 >.2 6.& >.<.; = ",
"% B B B B B B B B B B B B B B B B B B B B = q p . &.k O d O w = % B B 1.1.1.1.{ 1.1.1.1.1.1.1.1.1.1.1.B B = q p . &.k O d O w = ",
"= = = = d d v d = = <.= = G = = = = = <.= = 0 7.>.O.>.# >.= ; = = = = 8.d d v d = = <.= = G = = = = = <.= = 0 7.>.O.>.# >.= ; = ",
"2 ; ] r t t t r ; w 9.w 0.t q.w 9.- > 9.k = q w.*.. % . <.. - = 2 ; 2.r t t t r ; w 9.w 0.t q.w 9.- > 9.k = q w.*.. % . <.. - = ",
"% > # O.k e.k % f > N ; ; @ ; ; N w k r.; = q m t.a t.r.t.% > = % > # O.k e.k % f > N ; ; @ ; ; N w k r.; = q m t.a t.r.t.% > = ",
". O . . . . o . . . . . . . o . . O . o . = p p <.= <.= <.= w = . O . . . . o . . . . . . . o . . O . o . = p p <.= <.= <.= w = ",
"= G = = = = = = = = = = = = = = = = = = = = # =.*.O &.=.v *.&.= = G = = = = = = = = = = = = = = = = = = = = # =.*.O &.=.v *.&.= ",
"; ; ; ; ; ; ; ; ; ; ; ; ; ; ; ; ; ; ; ; ; ; ; ; ; ; ; ; ; ; ; ; ; ; ; ; ; ; ; ; ; ; ; ; ; ; ; ; ; ; ; ; ; ; ; ; ; ; ; ; ; ; s O ",
"; 8 7 7 8 8 8 7 7 8 8 8 8 8 8 8 - - - - - - - n n n 9 n 8.8 | | 9 9 9 9 | | 9 9 9 9 9 9 9 | | | | | | | | | | | | | | | | | y.O ",
"; 7 # j =.u.d =.=.d = i.p.i.u.i.i.i.C u.a.*.s.a.*.*.N - O q d.8 ..8.....n n ..8.....8.....f.9 9 9 9 9 9 9 9 9 9 9 9 9 9 9 9 y.O ",
"; q k g.h.j.k.j.h.g.l.z.x.c.v.b.x.c.v.g.h.g.n.g.h.g.N - O q 9 y.@ m.M...8 N.@ m._ ; m.M...B.f.f.f.f.f.f.f.f.f.f.f.f.f.f.f.f.V.O ",
"; 7 # C.O.a.C a.i.a.u.o.Z.k.u.C.A.a.= =.i.=.= =.i.=.N - O q S.8 ..M._ ..D.9 ..F.V G.M.s...V.y.f.f.f.f.f.f.f.f.f.f.f.f.f.f.9 y.O ",
"; q 2 d H.s.B C s.s.s.d v s.s.a.s.B = = s.d = = s.d N - O q 9 9 * J.K.* 9 q * L.....L.....y.9 P.f.P.q I.q P.f.P.9 M q 9 S.S.y.O ",
"; q & U.Y.T.M.R.E.R.M.T.Y.T.M.R.E.R.C R.E.W.u.R.E.E.N - O q 9 9 Q.!.M...9 9 &.m.M...!.M...y.n P.f.P.q P.f.P.q P.9 f.q S.S.S.y.O ",
"; q @ d C.= = C ~.a.. d C.C C u.a.u.s.C u.u.s.C u.d N - O 9 y.y..._ V ..8 9 .._ s.G.M.s...y.M 9 n 9 n 9 f.9 n S.9 S.9 S.S.9 y.O ",
"; 7 # s.^.s.B B B s.B B s.B B s.^.s.B s./.s.B s./.s.@ - O 9 y.V.* ..G.* 9 9 * ..G.....O ..y.q 9 S.9 9 9 S.9 (.S.S.9 S.S.S.d.y.O ",
"; q & T.)._.F.R.E.`.C `.E.`.F._.)._./._.).T./._.).T.N - O 9 y.V.Q.m.M...9 9 Q.m.M...m.M...y.9 P.9 P.q P.q P.q P.| P.d.P.'.P.y.O ",
"; 7 # d /.s.B B s.B B B C B B s.^.s.B M./.s.B M./.F.@ - O 9 y.V..._ s...9 8 .._ s.O M.s...y.9 P.q I.f.P.q P.'.P.].P.d.P.'.[.y.O ",
"; | - - - - - - - - - - - - - - - - - - - - - - - - - - O q n y.O o O {.8 9 * o O }.o G...V.y.f.n f.n d.(.f.(.N.S.d.S.S.S.|.y.O ",
"; | -  X.X.X.X.X.X.X.X.X.X.X.X.X.X.X.X.X.X.X.X.X.X.XXX- O 9 y.V.* m.M...9 y.&.m.M.o m.F...y.9 P.9 P.S.P.d.P.oXP.S.P.S.S.9 S.y.O ",
"; | - .XOX.XOX.X.X.X+X.X.X.XOX.X.X.XOX.X.X.XOX.X.X.X@X- O 9 %.V..._ s...9 y..._ B G...O ..y.9 P.q P.d.P.S.P.].P.d.P.S.S.S.'.y.O ",
"; | - .XOX+X#X$X%X&Xx.*XOX=X#X$XOX-X#X$XOX;X#X$X X X:X- O q - y.....O * y.V.* ..O ........y.0 0 y.S.S.9 S.N.S.N.S.'.S.S.S.oXy.O ",
"; | - .XOX;X$X$X;X;X*X$XOX;X$X$XOX;X$X$X;X;X$X$X;X X:X- O 9 y.V.&.m.M.}.V.V.&.m.M.o m.M...y.q 0 ].9 S.>XS.P.d.P.d.P.].P.'.[.y.O ",
"; | - .XOX,X<X=X1XOX,X=XOXOX X,XOXOXOXOXOXOX.X X X X:X- O 9 y.V..._ V ..y.V...s.V G.M.s...V.y.'.N.(.S.I.d.I.N.P.q P.'.P.].[.y.O ",
"; | - .XOX=X= =X X@XG ,XOX=X= =XOX=XG @XOX@XG 2X X X:X- O 9 y.V.{...O O V.V.* ..O ..}.O ..V.y.9 f.S.f.N.9 f.S.f.f.f.S.d.9 '.y.O ",
"; | - .XOX=X@ =X:XXXX =XOXOXn OXOX:X; :XOXOX9  X X X2X- O 9 y.V.&.m.M...3XV.&.m.M.}.m.M...y.9 >Xf.P.N.P.S.>Xf.P.f.P.f.P.N.[.y.O ",
"; | - .XOXOXf.=X4X=Xn OXOXOXd.OXOX=X(.=XOXOXd.,X X X4X- O 9 y.V.8.M.B ..3XV..._ V O M.V ..y.9 I.f.P.f.P.q I.f.>Xf.P.N.>Xf.P.y.O ",
"; | - .XOX=X. ,X=X=Xn OXOXOXo ,X@X,X. 5X.XOX. 6X X X7X- O q - %...O O ..3XV...O ....O ....V.y.n y.y.y.y.y.n y.y.y.y.y.y.y.y.V.O ",
"; | - .X:Xj 8Xj 6X,XO =X=Xj 9XO.7Xj 9Xj 7X  9Xj 4X X:X- O 8 i 0X........0X3XO ..........&.V.y.y.y.y.y.y.y.y.y.y.y.y.y.y.y.y.V.O ",
"; | - .X=Xd C ~.(.$ 9Xj qX= ~.2 wX= ~.u.d.2 ~.C wX X:X- O 8 eX3X0X3X0X0XV.0X3XV.V.V.V.V.V.y.y.V.V.V.y.y.y.y.y.y.y.y.y.y.y.y.V.O ",
"; | - .XOX,X@ d.d.C C = wXrX@ d.rX7XO d.rXrX..d.rX X=X- O 8 i V.V.V.V.V.V.V.V.V.V.V.V.V.V.V.V.V.V.y.y.y.y.y.y.y.y.y.y.y.y.y.V.O ",
"; | - .XOXOX=XXX$X7XrXtXrXXX@X=X:X:X@X=X@X:XOX=X=X XOX- O 9 y.y.V.V.V.V.V.V.V.V.V.V.V.V.V.V.V.V.V.i y.y.y.y.y.y.y.y.y.y.y.y.V.O ",
"; | - yXyXf %..X<X=Xe V.OXOXf f yXyXf f .X.Xf y.%XuX.X- O 9 y.y.iXpXiXV.V.iX+XiXV.V.iX+XiXV.V.+XaX+Xy.y.y.sXdX*X$XfXgXhXiX2 3XO ",
"; | -  XjXkXkXyXyX%XOX+X.X.XkXkXlXzXkXxX%XcXxX%X%XuXOX- O 9 y.y.; @ f V.V.f vXbXV.V.; i i V.V.- - y.y.y.y.iXnXnXd.7 mX0 hX2 3XO ",
"; | - rXy.y.y.y.V.y.n y.q.q.y.y.y.V.3X%.%.y.y.V.f 6X=X- O 9 y.y.rXMXy.V.V.M MX- V.V.S.g y.V.V.rXMXw y.y.y.iX*XNX3 4.fXBXiX2 3XO ",
"; | - yXkXkXkXkXkXkXkX%X<XkXkXkXkXkXxXxXxXxXxX%XxX%X=X- O 9 y.y.n G.%.V.V.y.V V.V.V.S.O %.V.V.S.G w y.y.y.@ @ 8.@ @ @ 2 2 0X3XO ",
"; | - - - - - - - - - - - - - - - - - - - - - - - - - - O 9 y.y.y.y.y.V.V.y.y.y.y.y.y.0X3XV.V.y.y.y.y.y.y.y.y.y.y.y.y.y.y.y.V.O ",
"s n - - - - - - - - - - - - - - - - - - - - - - - - - ; O 8 9 9 9 9 9 9 9 9 9 9 9 9 9 8 9 9 9 9 9 9 9 9 9 9 9 9 9 9 9 9 9 9 %.O ",
"O O O O O O O O O O O O O O O O O O O O O O O O O O O O O 2 O O O O O O O O O O O O O O O O O O O O O O O O O O O O O O O O O O "
};
