/* XPM */
static char *result[] = {
/* columns rows colors chars-per-pixel */
"64 64 51 1 ",
"  c #120F0C",
". c #16110E",
"X c #18130F",
"o c #1B1611",
"O c #1E1913",
"+ c #231C15",
"@ c #281F17",
"# c #261F18",
"$ c #281F18",
"% c #272017",
"& c #272019",
"* c #2B231B",
"= c #2F281E",
"- c #30271E",
"; c #32281F",
": c #2E2720",
"> c #352B22",
", c #392E24",
"< c #373024",
"1 c #3C3126",
"2 c #3E3428",
"3 c #403427",
"4 c #41362A",
"5 c #453A2D",
"6 c #493C2E",
"7 c #473C30",
"8 c #4B3E31",
"9 c #4E402F",
"0 c #4E4133",
"q c #524535",
"w c #564837",
"e c #544738",
"r c #564939",
"t c #5B4C3C",
"y c #5F503F",
"u c #604F3E",
"i c #61513F",
"p c #5F5040",
"a c #635442",
"s c #685745",
"d c #675846",
"f c #6A5946",
"g c #6D5C49",
"h c #705E4B",
"j c #6F604D",
"k c #73624D",
"l c #78644F",
"z c #766550",
"x c #796652",
"c c #7D6A54",
"v c #816D57",
/* pixels */
"wezd56++,q,6s2q=1*OO1te0+$+o>O:7*OO84*X<ts4gw5-o;q6qt,O@rftrf4+*",
"rqkf6w++*i,>fw2e4,+O#a8e,++>2#27,&O7e,o=ta4kw5;X*66wr+O,rgttg1#;",
"tegdqs@++q5>ea6ae4#O+ata4O#:e,487&$2t4O$6f8kqr,o%8wwi#X%5kwrg-#,",
"r0dath;*+,6*0hq8g2&OOeat8*+&7qpq8>=:t5O+5ark0a1+#qtii++;0lqtg=+3",
"r7aagf41+*2*6krqp0*o#rpat>$O8tpq45;*a8#+>takqf5O+qihs+X*8z8ts*+4",
"r2aaky63***&8gauqa:OOepat5=+,pd8,q;*aq*O=rpgwk6++6agw#+%wkaaw=+6",
"r3ithqe0>@+*0fza0d,Oo5paa8,O$rg7>t>+aq>O&rafwk9O+5ss5@+*8zaaq>+4",
"w6rsawa6-#+;9aciat2Oo,tak4,+oeg8,r;+w01#o6yarj0X@sha3+X48hgpq3@*",
"4wqhtqh8-++;6iviaq0#X*pac7,OO2de<p:O7w5#.+8tqg2#-khi3++84fktr>$+",
"#u4vw8hw-++3qqliiet$X#eacq2OO#17qqoO,pw&X*466f2+*klu5++85ac8q5$#",
"+-5v6qht*++4tthhrwa+X-qacp2OOO&<27*o*ap:O+560d4%+hxt4+#58uvq8e-=",
"++4v8agt*#+8iail0wa#+>racp1OOO&#:72o&tt7*+;>0i5+@hlu5++3qwv8re5*",
"+@3seegr*++wggqc5qt+O1tace,&oo>OO:2O:8qp;%%>204O;hlt4@+,rqzeqqa>",
"+@1wu6gq*%*wkswv1rq++5ydcr>:o#2*#OoO<p7q02&&>62%;hkw,@+,tqgpqtt4",
"-@>rs6s3*3*altyc>r1+&rajxq><O:7<,O.O:p27d21O;4*%*hhw3$+;6rss8f45",
"0+*uf8i1*62wxwgh1t*O=pfgl6<;X>70<2.o$pp2qey&%*+#-hg5q-+,qwaaex85",
"f$+af88>>686v6hu68++4hgsl24=X>5e77#..4g,8h08OoO+3hs1w-+-qqaqtgt0",
"a$$rgw,$86prh6h86$+>8xasj11O+>07p70oO*pa1aaa#oX+,ti1t*++46f4fege",
"0=$8h8##aw8h8es,,+$6akqky2*X&<eqp0e>.o,f:ekq8;+O;qw1u*+@-6f5sqkt",
"4,$5g=+4aaqa4up-$$88gstke2&o*5tr0p77oo+tt2kwg1=O;66,u,@+#qa8ftga",
",4$3t+3wawh,q86O+,qpk8jg0:Oo&2pp2p5e,o+:g*aafq>+*5s;i6*X+5ptpada",
"15$-w*quatq5t>-++48ffpjp2*#.:7pp0r0q3XOor50gtg1+O;g;rq*+$,tgraaa",
"86+$w,qaa88w,*++$8tgtga8,O&o,7pe00y65OO ,t*atk5O+%g,w0,++=qh4apa",
"tq++658th,u3++++:easphp8#&>:,2dp80t88,+O+7*waswOO+s1w04+$$3e5sua",
"a5#+*88tg,q++*++5paagaq>+O,1:,dr06q06t4*X#,,iip,+@s3u83+**,38swa",
"a5#+-qwaa85@++O@8apazq5:*:27#,per5008ra;XXO+ita,++a3uw,-+$:,taqf",
"s8$#,qqfuq3-++#;ppphrq>*:77,:>pet51t6ra5-#X+50f6+Xs6u8-*++-5apws",
"sq*$3q8hu8,X$O>6p8gsq4>:$ee$:,p0t8>r04pr,-X+;6f0++u8uh@+++>5p8aa",
"aq$=5q3ktq;O++qq8ph88,:>1peO:2pqp05q21ra,4*X$,wq@+u8uu@+++w8u8fu",
"uq$>7q1cww,XO-5r8gp8>+$>8pe+#,pqtr,>116d55>O$,ww>+38sw@++>auwrsu",
"tw+$6q3v8t3+@36epep,+o>,pp7OO2p0tr:$1=1re,,X$;8a@o$8u8-++6uw8auw",
"ut$+,85x8q6+@6wap8a:o$:1pe2o#2p7t5>==+>2ee--+,4a3o@8u8$+*68uwwaq",
"qt*+ww6iq68$o,0at0a=O**50e0OO:r0t2,O:O.O2p<.Oq0a5O&684*#,wqqww66",
"qu;@5t9i81q;+$qteqa*o$=5r02OO:e7t5:OO>.oOqpOOepa7O+68-*#6qr6w6q3",
"qu;*4q8gq,r5$+565ry*$O>2t22O+<r2t7*&O:#X.*8:o0gee++05#$*qwr6w5w$",
"qw;*;84si;y0$O*q0rr=:O16p><O+2r0r0:* O2<oo::O7z7y&o6:$+,ryww6q6*",
"qu3+,66gg;a9@$+10e0:=o<6d<9oo0qrq0>>oX:21.o.o4l5t>O3$$+7asw84w;;",
"6w5+;q6gh;s6*++2pt42=O%tj<0:X00p70=:OO.:44Ooo2k8r2o+OO:easw6w5+,",
"6w4+*w6gk5rq*++1ya5w=oOyj2q2X00y2r:&o:oo>8p<O,gy7eoO+$7asuw6q$$3",
"4w4@@w6glrww*#+;rf1r=+&yj2r2.e0y7p:OO*&oO,ta$,ag2rOO$4eahu8w,+-3",
"4q4++65slgtw-++;tg<r;#-ig7q5X0ey7e>o:=:-X;;ge>0g3qX+>qawfu86++,5",
"5q3@@86fkluw*++1wf,r;#1tfee1X0ey7e> #55,*o+8c07d48oX1ts8fu8+++54",
"693++83ulitq++#1ta1t*$1afte,X0erq0:.+0451OO-ag6t48+o8ahtfu,++#42",
"qu6@#w3wlhw6++*,is4q#+,ifar>X7rre01.&5064*X#>lqr48+-8ghfuw-++$3,",
"rt5$#u1qxlw6++*3gu36#+>tga7&o2aep02#&5q804+X-wst66*>tahgr8#$+>6,",
"tr5+$a,evaq6$+;whr15++1rga>#o,g0p01:$7qrr6*X#1gqt6=>aahaq4+#+758",
"tw4+=a2evwq5$+,thq15O+5wfd,Oo:z7p0<:#55rr0,OX;tit0:1sagpr:+##w7a",
"wq4$*a4tx685-*>9ar1=O+1wdf,Oo&g7r0>>X82ttt5;X#4iwr-4aaata#++#wtg",
"t64$1i4tk503@;5wus,*++,wsg1oX*j2y0>>o42wti6-Xo;q8a+1wiwiu+>$*8tg",
"a55$2r9yf2q,%;6ita1-XX;wsg,.o&j<yr=>O;6tta91+O%6tp-$5i6i8@8$,6aa",
"a55@1qeaa4w*+36gri1#XX4wdg*OX*g2yt>1X+0twtw<*+*5tt5$4i3t6+r-54sw",
"sq6+>8rdrq8#%;3ktr1+OOqqag&&o:g7ra2>OO60qti1*+*5e8e$;t4t5$t>;>sq",
"u86$-6tfww5**,3aaw1+oo00pd**X<d75f4>+O28ria1>+#4q8t$*e8u3+u;=*fq",
"t58@*6agqq6-@358ar>#.o00ep*&o2d7:fr>+O;6yae6>+X<q0a,*3ur*+tq+-ir",
"q>q-+qpsi8,3%*66gr4*Xo40qp:#o7d7$ra2OX=5ydq01O+*eep0$*6*+-tt6#4t",
"8,q1@8aaiu11>@3raqt>*X-0ee&Oo2p7O4f5+.*,yd0e4X+#trtt$**O;3st64#w",
"0005#49qig0,4#*,trww-+@4e7$OO<p7X:g0O.&*tare5oo+urat@-++4qfw6u*3",
"0g08*<<3iht14-#;qqeh1#++87:OO<p7X>at&.o%rptr4OOOitar-O+*wil6uw;;",
"0jr0-;1,rak164++*wtht,+X28:OO1p7X&pd*.o%qta88O++taat4O@1sik3iq*@",
"0gar1-1;1ikr,6*+O6iua,@+*5:OO<p0XOed*X.%0rt5>oOO4gtt8O%,fwlqu8++",
"edpp4$,>,5za61*+O>wrty=oO+>+O1r0Xo7a>XX&7we5;XO+1ktrs#+,uwhu6,++",
"epdd4#->1,tz06-+O#;6ar1O++>*O>q0Oo,p,X.+8wrw;+++3krws1+,wufu6@+%",
"qtjd5$*>2,4xqr,*;O+>a08*O+=**>56#X:r>OX&6twt3;#+3gt0h5@@wwfwq-+*",
"qejd44+*24>ar48*1Oo*0qe>$$O+&O;6&o&0<&X*wa6aq3@+,trqs3O;uiiwu3+-"
};
