/* XPM */
static char *result[] = {
/* columns rows colors chars-per-pixel */
"64 64 206 2 ",
"   c #000000",
".  c #0B0001",
"X  c #030C03",
"o  c #01010B",
"O  c #140003",
"+  c #1C0104",
"@  c #1B0008",
"#  c #1D0802",
"$  c #061206",
"%  c #071A07",
"&  c #081608",
"*  c #0A1C0A",
"=  c #0A1306",
"-  c #020213",
";  c #05051D",
":  c #250301",
">  c #2B0301",
",  c #240801",
"<  c #2D0904",
"1  c #240109",
"2  c #2D0208",
"3  c #330301",
"4  c #3D0301",
"5  c #330A04",
"6  c #3B0A02",
"7  c #340309",
"8  c #38070A",
"9  c #33051B",
"0  c #311111",
"q  c #2F0416",
"w  c #0B230B",
"e  c #0D2A0D",
"r  c #0F300F",
"t  c #112311",
"y  c #112D11",
"u  c #123312",
"i  c #153A15",
"p  c #193E19",
"a  c #1A351A",
"s  c #060621",
"d  c #080821",
"f  c #06062B",
"g  c #08082C",
"h  c #070733",
"j  c #0A0A34",
"k  c #0B0B3B",
"l  c #35092A",
"z  c #3C3B35",
"x  c #3E3D39",
"c  c #373633",
"v  c #440201",
"b  c #4C0102",
"n  c #440A01",
"m  c #4C0B05",
"M  c #43020B",
"N  c #4C0109",
"B  c #460C0A",
"V  c #4C0A09",
"C  c #530105",
"Z  c #5A0205",
"A  c #53020B",
"S  c #5A040A",
"D  c #5A090A",
"F  c #560A06",
"G  c #421104",
"H  c #450012",
"J  c #4B0014",
"K  c #4C021A",
"L  c #530012",
"P  c #590213",
"I  c #5D0418",
"U  c #4F1D1B",
"Y  c #4D1212",
"T  c #531312",
"R  c #541D1B",
"E  c #571815",
"W  c #690007",
"Q  c #6E040B",
"!  c #620B0D",
"~  c #6C0C0C",
"^  c #700107",
"/  c #71050B",
"(  c #620018",
")  c #7D1616",
"_  c #55221B",
"`  c #5A221C",
"'  c #64221C",
"]  c #74211D",
"[  c #45082F",
"{  c #531E25",
"}  c #581E27",
"|  c #530230",
" . c #552521",
".. c #59222D",
"X. c #582424",
"o. c #5B243F",
"O. c #5A2536",
"+. c #423E3B",
"@. c #423C36",
"#. c #6A2722",
"$. c #672326",
"%. c #772623",
"&. c #602A38",
"*. c #1A441A",
"=. c #1C4D1C",
"-. c #174217",
";. c #1E531E",
":. c #1E5A1E",
">. c #215521",
",. c #215921",
"<. c #2E5E2E",
"1. c #3E423B",
"2. c #264726",
"3. c #246424",
"4. c #2A672A",
"5. c #336833",
"6. c #367A36",
"7. c #2A722A",
"8. c #44433D",
"9. c #48473F",
"0. c #0D0D44",
"q. c #0D0D4B",
"w. c #111146",
"e. c #10104D",
"r. c #0F0F53",
"t. c #0F0F5D",
"y. c #121255",
"u. c #12125B",
"i. c #3F3C41",
"p. c #141464",
"a. c #16166B",
"s. c #19196C",
"d. c #181865",
"f. c #161673",
"g. c #191973",
"h. c #1B1B7C",
"j. c #171779",
"k. c #454441",
"l. c #494743",
"z. c #4B4B43",
"x. c #4F4F49",
"c. c #514E46",
"v. c #514F48",
"b. c #54534B",
"n. c #5A564E",
"m. c #5B594E",
"M. c #47445E",
"N. c #5C5653",
"B. c #5C5B52",
"V. c #5A5754",
"C. c #635C54",
"Z. c #655E5A",
"A. c #646156",
"S. c #686257",
"D. c #65635A",
"F. c #6A645B",
"G. c #6D685E",
"H. c #494563",
"J. c #6C6860",
"K. c #6C6766",
"L. c #736E64",
"P. c #757166",
"I. c #76736A",
"U. c #7A756C",
"Y. c #7B7A6D",
"T. c #7C7B74",
"R. c #7B7B7A",
"E. c #811E1E",
"W. c #8D2727",
"Q. c #BB3838",
"!. c #807B74",
"~. c #348034",
"^. c #838276",
"/. c #85837A",
"(. c #8D867C",
"). c #8A8A7D",
"_. c #888174",
"`. c #938C7F",
"'. c #1B1B83",
"]. c #1E1E8C",
"[. c #1F1F93",
"{. c #1F1F98",
"}. c #21218C",
"|. c #202087",
" X c #212194",
".X c #22229A",
"XX c #2525A4",
"oX c #2626AB",
"OX c #2A2AAE",
"+X c #2626B2",
"@X c #2A2AB3",
"#X c #2A2ABA",
"$X c #3232B7",
"%X c #2B2BC2",
"&X c #3333D2",
"*X c #847E92",
"=X c #8B8681",
"-X c #8C8B83",
";X c #83838D",
":X c #878789",
">X c #948D81",
",X c #868394",
"<X c #8A8594",
"1X c #92928E",
"2X c #8A88A2",
"3X c #9292AE",
/* pixels */
"b.b.B.n.V.b.x.x.c.c.x.l.x.l.c.x.x.x.x.c.l.b.b.z.c.z.9.l.l.l.k.1.b.n.V.n.n.b.x.x.x.v.z.l.c.z.x.z.x.x.x.x.z.b.b.z.c.z.9.l.l.l.l.1.",
"=XP.P.P.P.L.P.P.P.L.L.L.L.P.I.P.I.P.I.Y.U.U.P.P.P.P.P.P.G.F.G.l.).L.P.P.P.L.I.I.P.P.P.P.P.L.I.I.U.P.U.U.U.U.L.P.P.P.P.L.D.J.F.l.",
"^.G.D.F.G.J.J.P.P.G.G.G.J.F.J.F.D.J.F.D.D.A.D.D.F.A.A.D.Z.Z.S.+.^.G.F.S.G.J.J.I.P.F.G.F.J.J.F.F.D.J.D.D.D.A.A.F.G.A.S.D.F.C.D.1.",
"/.F.F.D.C.B.D.G.S.D.C.S.Z.D.C.S.D.D.C.S.A.A.A.F.A.D.Z.Z.J.L.J.+.^.G.F.D.C.B.D.J.S.S.C.S.Z.S.C.S.A.D.A.D.D.A.C.S.A.D.Z.Z.F.L.J.8.",
"(.G.+.z z z x z z z z x z x z x z z z z z z z z x z z z z J.L.8.(.J.k.x z z x c x c z x z x x z z z z z x c x z z x z z z J.J.k.",
"(.G.x                                                     P.K.8.(.J.x                                                     P.J.l.",
"`.J.x   . + O O . + 1 + . . + 2 O @ O .                   P.J.9.`.G.x   L N S A N N           X * * * * * * %           . I.G.l.",
">XG.z     1 O + . + 1 @   . + 2 . + @ .                   Y.K.9.>XJ.z   + + + + 1 +           u 3.;.=.=.=.=.:.$           Y.K.8.",
">XG.c   O L . > P @                                       U.F.9.>XG.z . P M K N J O           u -.          *.$           U.D.9.",
">XJ.z                                                     Y.Z.9.>XG.x   I A A A ( (           u -.          ;.$           T.S.9.",
">XJ.@.                                                    ^.Z.9.>XJ.+.  O O . O O . .         u *.          :.X           ^.Z.9.",
">XJ.@.                                                    /.G.9.`.J.+.  M N M M v H 8         r *.          :.$           /.G.9.",
">XG.z                                                     =XG.z.>XG.+.  : + + + + @           e ;.          :.X           =XG.z.",
">XJ.@.                                                    ).A.9.>XJ.+.  1 + + + + +           w ;.          ,.X           /.A.9.",
">XJ.z                                                     Y.F.l.>XJ.@.  A A J N N L           * =.          >.X           Y.S.l.",
"(.J.H.@X@X@X@X@X@X@X@X@X@XoX@X@XOX@X@X@X@X@X@X@X@X@X@X@X#X<XA.l.(.J.x   O O O + O .           * ;.          :.X           !.S.l.",
"(.J.H.[.#X@X X#XXX[..X.X.X+X X]. XXX X@X.X].#XXX}.#XOX X%X3XF.l.(.J.8.  K K J L M             % ;.        X :.            ).J.l.",
"(.J.M.oX|.a..X].h.f.XX'.a.XXp.h.'.a.}.f..X'.a.+Xa.s.XX].g.<XF.9.(.J.@.  I A S K               & =.          >.X           ^.Z.l.",
"(.J.M.t.y.[.].u.q.#X0.p.u.'.r.r.g.u.u.q.oXr.p.g. Xu.r..Xf.:XA.9.(.J.x     . O . .             % ;.        X ;.X           ^.Z.9.",
"(.J.i.f h.u.g j p.w.j j r.k j g r.k k g y.q.j g u.t.h h u.2XA.z.(.L.x     + M H 4 .           $ >.        X >.            ^.A.9.",
">XJ.i.p.].j k g XXj k h h.0.k k u.w.k k 0.h.h k 0.].0.k w.:XC.9.(.J.+.  + @ + : + +           $ ;.        X ,.X           ^.S.9.",
"(.J.H. Xy.y.y.XXs.u.u.0.XXy.u.u.u.g.u.y.r.oXy.y.u.s.XXr.y.<XA.8.(.J.+.. 1 @ + + + @           X 3.:.;.;.;.:.,.            ^.A.8.",
"!.J.i.d d ; j 0.d d ; g g.d ; d k k d d ; g u.; d ; 0.y.; =XA.9./.J.@.  A N b M N M H           % w * % w * $             /.A.9.",
"!.L.+.; d d h.d d d ; a.g d d d j w.; d ; ; h.g d d d j.q.=XD.1._.J.1.  . . . . . . .                                     /.C.8.",
"(.G.x s ; j a.s s s s ].; ; ; d g 0.; d ; s k q.s d s s  XR.D.8./.J.x                                                     Y.D.1.",
"!.L.V.*X,X2X;X,X,X,X,X2X,X,X<X,X<X2X;X,X;X,X<X<X,X,X,X;X,X1XF.8.!.J.n.T.!.Y.T.!.T.^.T.!.!.T.T.T.!.!.Y.T.Y.T.^.!.T.!.T.Y.Y.>XF.8.",
"Y.F.Z.Z.S.J.A.D.D.S.S.S.A.A.A.A.D.A.A.A.S.C.C.Z.C.Z.C.C.B.D.A.l.!.S.S.A.S.G.A.A.A.A.F.D.A.S.S.A.S.D.A.A.F.C.Z.C.C.A.C.C.B.D.A.9.",
"U.S.D.B.b.A.m.B.-XC.b.C.m.B.m.G.S.A.F.A.C.Z.F.B.C.m.C.Z.A.A.D.1.U.S.A.B.n.A.B.N.>XB.m.B.m.B.m.G.D.D.S.S.A.C.S.C.D.B.C.C.C.D.D.x ",
"L.C.B.b.-Xm.).B.l.v.-Xx.-XB.-XB.D.A.A.B.C.A.B.P.K.C.n.F.b.n.D.i.P.A.V.n.-Xm.).m.l.v.=Xb.-XB.-XB.D.A.A.B.A.C.B.L.K.C.B.F.b.b.F.k.",
"I.B.S.B.B.z.b.n.-Xb.Z.b.b.x.b.D.D.D.B.B.C.B.B.S.B.b.V.F.l.l.F.8.P.V.A.C.n.z.b.V.-Xb.D.b.b.b.b.D.D.D.B.B.Z.V.B.F.B.b.N.F.z.l.D.k.",
"U.S.B.B.C.B.B.C.z.b.S.C.D.A.A.B.A.A.B.C.D.B.B.b.n.N.C.b.z v.B.9.Y.A.B.B.C.B.B.B.l.b.D.A.B.D.D.B.A.A.B.Z.D.B.b.n.b.N.C.v.z c.V.l.",
"v.9.l.8.8.1.8.8.8.x k.1.1.8.1.x 1.c x c x 1.z x +.1.8.8.8.8.8.x v.9.l.1.8.8.1.8.8.x 8.1.1.8.x x z c x c x 1.x x 8.x 8.8.8.1.8.1.",
"6 8 6 6 6 5 5 > 5 < 3 , > > 2 > < > 5 3 < 5 6 < < < : > , : : , 6 6 6 8 6 5 5 5 < < < > > > > < < > 5 5 5 5 6 < < > , < , : : , ",
"! S F Z A Z D S Z C Z F A Z D D D Z D D Z S Z Z D S C C C C C < D D F Z S Z D Z F C Z Z Z D S S D Z S S Z S Z Z S S C C C C C < ",
"! C b C C A Z F D C N C C b b b N C b b b C b N b b b C b b b : ! C b b b A C D D C C C m C b b b m b b b b b A b b b b b b b : ",
"D Z b N N v b A N b N A b b N b b N b b b b b b N C b b b C C : ! Z C N N v C N N N N b N b N b b N b b b b b N N C b b b Z C : ",
"^ Z > > : > > : > : > > : > > > : : : : > : > : > > : : > b S > Q C > > : > 2 : > > > 2 : > > 2 > : > : > > > > > 2 : : > A Z > ",
"Q A >                                                     Y C < Q Z >         .     o     .                   o .         Y C > ",
"Q Z >   4 8 M 8 1         . + 2 O + + .                   T C > / Z >                                                     E C < ",
"Q A >   C P P A I A v   . . + 2 O @ +                     T Z > Q Z :                       $ u u a * X                   T Z > ",
"Q Z >   + + + + @ + @ .                                   T C > Q C :                   X =.6.~.<.6.4.6.y X               T C > ",
"Q C < o : : > > 1 > @ .                                   E b > / Z >                 w *.:.y 5.t y 4.* >.u &             E b , ",
"Q C 3   v 3 7 3 3 3 O                                     R b 3 / C >               X u y & $ =.. o =.  * * u X           R b 3 ",
"Q A 3   O O + O O +                                       _ C > / C 3               -.*.7.=.>.3.=.=.7.=.p >.u e           _ b 3 ",
"Q Z >                                                     ` C < / Z >             X -.y i   & w     i X   u $ w     . : 5 #.Z < ",
"Q C >                                             s |. Xj ` b > Q A >             w w y w   * *     i X   e X % X   D W.Q.%.b < ",
"Q Z >       - j u. Xh.w.;       - g.#X&XXXy.j k ].&X@XoXXX} C < / Z :             u * *.* & a a t * p w $ e w = & 8 E.E.T ] b 3 ",
"Q C l $X$X$X#X.X%X#X.X$XOXOXd.h.%X#Xh.%X X#X#X&XOXXXXXXXu.O.C > ^ Z >             i u 3.p i 5.5.c p 4.i e p i w = M ~ Y ] ' C > ",
"Q C l {. X+X{.#X'.u.{.[..X].%X#XoXXX].+X.XXX[.oX@X Xt.].oXO.Z < W Z >             y * i *   t t     p X   e & % X 6 V W.0 $.C < ",
"Q Z l +X[.u..Xa.u.'.[.t.d.p.XXj.}.f.y.+Xf.t.a.'.oXt.u.0.d.O.b < Q Z >             * u e y   t a     =.X   u   w   + D 8 E #.C > ",
"W Z 9 f.e.].g.h e.s.- ; k q.].t.f.t.r.d.[.0.p.r.+Xu.r.g s O.b < Q Z >             X *.=.3.u =.>.y y ,.a y =.r w     > V F ' b < ",
"Q A 2 - p.y.j u.'.- s s ; p.h.h k g q.h f.g.j ; q.}.- r.g R N > Q C >               * * =.* e =.* * ;.% w w * X       . . R b < ",
"Q Z q |.|.0.j ].s k s s '.p.- h 0.r.- - f '.g e.k f.].; s } b > Q A >                 u e w & *.    *.  e * *              .b > ",
"/ b 9 e.f f w.w.- ; j..X'.0.- - s k - h 0.s.r.- h k f.k ; ..b < Q C 3                   * ,.:.3.*.;.>.;.-.$               R b > ",
"W A 2 ; d s 0.k q.r.t.- - f p.r.0.f.p.k ; h [.y.g ; f .X0.X.b , W Z >                       y y w r w w                   _ b , ",
"Q Z q q.j ; e.d ; o [.0.k q.0.f s j j q.g h '.k h g g 0..XO.b > W Z >                           X                         ` b > ",
"W C > o o q.j.y.w.; j.j o   - h t.f.;   - s j.q.; g f   j o.b , W Z >                                                     E b > ",
"W Z v R R o. .R U _ ` o.R _ R R { ..R R U { } O.R R R R X.$.C > W C v E R Y U R R _ R _ R U E R R R R R U R R R _ R R E R ' C , ",
"W b b b b N b b v b C b b b b b b b b v b v v b v v v b N b b > W C b b b C b b b b b b b C b b b b b v b v b N v v b b v N b > ",
"S b N v 4 C v v R b v v 4 v v C C b b b b b b b b v b b b b b : Z b N v 4 m v v R b v b 4 v 4 C b b b b b b N b b v v b b b b : ",
"Z b v 4 _ n _ 6 < 6 _ v _ n _ n b C b v b v b A | N v B 4 v b > Z b v 4  .n _ 6 < 4 _ 6 _ n ` n b C b v b v b A | N v B 4 4 b > ",
"! v b v n 3 6 G ` 4 G 6 6 4 6 n n b v n b v v m [ 4 v B 3 > m > D v b v 6 4 6 n ` 4 G 6 6 4 6 n b n v v b n v m [ 4 v V 3 3 m > ",
"F b v v n v n v < 6 m n b G b n n b n n m v 4 4 4 v n 3 : 4 n , F b v v b n n n < 6 m b n m b v n n n b n v v 4 4 v n 3 + 4 n , ",
"6 < < , : : : < , , < , , , : : + + + + # # : # , , , > , < , , 5 < < , , : : > , , < , , , : , + + # O # , + # , , , > , > , > "
};
