/* XPM */
static char *result[] = {
/* columns rows colors chars-per-pixel */
"64 64 69 1 ",
"  c #625544",
". c #675947",
"X c #675A49",
"o c #695C4A",
"O c #6C604F",
"+ c #72624F",
"@ c #6E6253",
"# c #746552",
"$ c #7A6752",
"% c #776956",
"& c #7B6A56",
"* c #776C5C",
"= c #7C6D5A",
"- c #7E705E",
"; c #7D6E62",
": c #7F7260",
"> c #806F5A",
", c #867257",
"< c #8A7357",
"1 c #83725C",
"2 c #8B765B",
"3 c #8E795E",
"4 c #917A5D",
"5 c #837563",
"6 c #897663",
"7 c #867866",
"8 c #8C7A63",
"9 c #867A69",
"0 c #8D7D6A",
"q c #937D63",
"w c #917E6A",
"e c #8F806D",
"r c #968065",
"t c #998266",
"y c #95826B",
"u c #9B856B",
"i c #9E896E",
"p c #938471",
"a c #998671",
"s c #958877",
"d c #9E8A72",
"f c #978A78",
"g c #9D8C7A",
"h c #A18A6F",
"j c #A38D73",
"k c #A28F78",
"l c #A69176",
"z c #A89376",
"x c #A69279",
"c c #AA957B",
"v c #AD987E",
"b c #B09A7F",
"n c #A69682",
"m c #AA9780",
"M c #AE9B82",
"N c #AC9D89",
"B c #B19E85",
"V c #B19F88",
"C c #B4A087",
"Z c #B4A28B",
"A c #B9A58D",
"S c #BAA88F",
"D c #B6A691",
"F c #B9A791",
"G c #BBAA93",
"H c #BEAE99",
"J c #C0AD95",
"K c #C2AF99",
"L c #C2B09B",
/* pixels */
"vxxljjljjxjjjjjjhhiiiuuhhjiiuuhhjajjjjjjlxjjxjljxxljjjjjjjjjljjB",
"lxvg5lxcxxzzzxxklzljjjlzxjjjlzllljlllkljljvxxcxzxxxvccclclx5kMVV",
"ljjlujljjjjhljjjjjllzcczzczzzzlllczczllzzzlzzvczczczzzvccccwlcFA",
"lurlchuujjzlzzzzllhlljlhjjjjjlllzcczczcvvccvvvBvvvcvccvblxcbjqMJ",
"l=6ivxljjjljjjjjlhhjiiiihjhhuuhhhhjllhjlzlllljxzljjjjjjhhllMu10J",
"liuilcv0wczlzxlxllllljlllkllklzlklzzllklzcxxzxxzzvcczzvwwMVBuuMV",
"littlhdljljjljjzzjllllzzzzzzzzzzzmzczzcczccvBvvcvccBBbbljjJJqqcB",
"jjtrj6rczwqhlzjjjlhlhhllhjjhhlllzzzjzzzzjlljzlzljjjhj0wll8wJqqzB",
"jhthj8qzc81wqq883qq38333qq3382226484228222222822331,,$>jl6uAq4lM",
"lhthzhttj#.#%%%$%##%+%++###++@##++++###+#+####+#+###+.#xuqbBq4jz",
"jjthjht8w**0ppppppypyee00eee0000w088000w0000078007061@%gwqlMq<jz",
"lhqhjitzx*>wyadjgjgjlgglgddjgjddaakkddjkxxjgkdkjlljgy=*Bj<hMh4hz",
"ziqhlitzx#$8rtuutuihuuiituuiiiiijdhjhjjjdddhiihhddldu1=Bj<hzh2hh",
"cjtujhtlx-6ujxjgjjdajajjljiiddajdjjjijjjdiijdihhdlldi1=Bz<hzu<hh",
"lhtilurlx*$3ruttttwttqtuuurrttutwquwqqqqqqqqquwqqrr32++Bz4hjh4qh",
"jhrhcirlx:0gvMMVVVCZCAZZAZZZZFZCCAAVVVZVZBZBBVVVMZVMkw5Bc<qhu<hq",
"zjtjjhtjl5exMMBCBBCBBCCCCCCCBBBCCZZZSSZSSSSSSSDSZZCCvp9Bz2tuu2tt",
"zjqhjhrll-1uglhlzzlllhjlhlzzzlzjllzczcczlzzxzjlzljllt1=Bz3ttu3tt",
"jjqhzhtzx-7dzzzczzcclllllllhhjiuiiiiiijiiiiiituiuurr8$%Bz3rtu2rr",
"zjtjzhqzx%&rudldijldiijiiiihjiijjjlzlzzcxvvbbvbCCCCBcp5vz3rtu2rr",
"ljqljjqzx%=rulllzczvvvMvvbBCBCCCCZSACCCCSSZCSSCSZCZMce5vj,<ru4r<",
"lhtjxhtcl9fMAAGGGGJLKLKKGHGJGGSSSSSZDSZCVZBBCNZBZCVVxe:vjrrrir22",
"lhqljhucl7sNZFGGGGGGGGSSGSSSSGADSZZZSZZZZZVVZNDSZCCMke-clrr,u3r<",
"lhtjjhtzl=7kcMMMvMMBMMvvvBBBCCCVCSZbNCbBCZZCCZbCZBVMne:cjr,rurr,",
"lhthjhqcl7pnMZZZCZFAAAZFAGFDDZDDZSZZDDDSSSDZDZZSZZNNve9xlr,,jr,,",
"ljthlhucz=6akxxxxxxxxxxxxxnccvvMMBMBVVVBbNvNNvbNvvvvke:xlrr<jrrr",
"cjqhljqlx=6axxvxvvvmMMMMvMMMMMBBbBvBBvvvvvvvvvxxvxxka:=vcrr<hrr-",
"czuhcjuzj;0xmMMMMMMBMVCCZZZZCCZZZVVZVBZZCZZZCZNCNBvvxe:vbr2rj<rr",
"zcthzktzj-0gccvvmvvxvmmMCMMMBMMMbvvZVBBVCZNCbNNCNbbNke-xzr,rlrrr",
"zlticjtzx=7dxvvvmvvMMMMMMMBBMBBBBNZBBZZZCbbNCZbbbNvvje-zzrrrlr-r",
"cltjcjtzj=8dlcccvcccczcvvvccxcczvvvvcvxvczzlzxllljzju5-zct,rhr<r",
"jjtjjjtzk=5ilxxzlljllzzzccccczzzcxzzzzzzlllljjlllzxlur=zcurrjr=r",
"lhrhhhtcj%=qyidihhahjhjjahjlllzxxcfjllddljllllxcccxlae=lvi,rkt,r",
"lhrhlhtzx%1yjljljkjkkccllxklccnMvvvvvvvccxcmvNMMVVVmxp:lvi,3ju,2",
"llrhzltcj=7ullxccclccMMvMmccncklldjljjxfxgdllxdgllxga7-cvh<rlu,r",
"llrilltzx=0gvmBMMMcMMcMbvMMMMMMcvvvcvvvvcvcvvxxccvvzae-xbh2rlu,r",
"ljtilhtcx:exmZMMBBBVVVBBMMMBMMvMbNNbvbNbMMMMMVMCVVVNxe-cvh33zi3r",
"llthljrcl:pnZZZZZVAVVVVVVVBMBBMBNbvvvNbNmMMMMMMCVMMcde-xbh,rzu,3",
"lzthjltzj-0gmMBMMBBBBBBBMMBBBMMBvvvvvvbbvvvvcvvmvcMxge-cbj22lu,r",
"izuijlrzl-0gxmMmMMMBMMBBBMBMMBNVNNCbNNNDZZZZZZZVBMMMxe:cbj3,lh,,",
"ictijlrzk6sNZDDDGGFGHHHHJHHGHKKJHHHHSHHHHHHGGHHHHHGDNfecbj22zi<<",
"lzrillrzj&6agjjjjajhjjjajjjjjkjjzlcjiijihjidiiuiuhdhy=#lbj2rzi<<",
"lxtizzrzj*6ijzzjljljhuahuhhuiuuuiiituiitiituuuuuuuutr%#lblrrli2r",
"lxtihjrzz&>whlxjjjhhhhhhhuuhuihhhhhiiiihhiiiiiiiiiutr=%lCl22curr",
"lzrhhjtlc+$8qqqqququwtqhutqttttuttttttuiiiiiilllzllld-&cblr<chrr",
"jzttjhrll%>ujjccllljclzjjjjljjjjhlkdjllljjlklzllzclju3=lCh<2vi<<",
"hltiljrhj#>8qhuquuqhhhjhajdjjljxlllxlxxxlxxxcxxlxzxks1&cbzr<vi<<",
"hjttzhrjk10jxmmccMnMMcMBMMMmMVBNbvvvvvNMBBCCBVVBVVNMcs:zCzrrvi<r",
"jlruzj4hz6sMZZDDFFGDGDFDFFDAZZDDGDZDZZZDDZZZZDZZDDDVNf9xCc4rbh44",
"ljruzlrhx9sNDDDDGDDDDDDDVDZVZZVZVVZZVZVVZZZZZZZZZZZCnp:lCc2rbu4r",
"lzrtlltjz*2ajkxxlxzljkclllzkkjjjjjjjjkjjdjjjdihjjdauy1%zCz44bj4r",
"lztrjhtlx%&quuuuihahajjjjjkjxjjxxkxxxxxkkkklkjxlxlllu1-zAc4rbj<r",
"lltrjhrlx%10auuauauauttwwutuawqtqtyuauuuutuyuaauuaiar=#zAz4rCj4r",
"hliuhzu7w. #&&&=&&&&&>&&>>>>>>=>>>1=>>>5>>=1>>>==-=-%XOpjz44bl44",
"jhtuizhra#X#%%%%%%%%#%%&%&=*&**=====*&***%%*%%%%%%%*#@%dxcr3bh44",
"hluuhwqzCdwcnxcxxjkzkjjjjjkjjjjjjgjgjjjiidjiijajijlkleaMAz,4Ch4r",
"hlhqj6qVGMkGASAGFFAAVCZVCBCCCCBCCBBvMBBBBBVVBBvBMMvMMwaBAl&2vh2q",
"ulhqjljjgzzjjxxvzvvvvMcvvccccczzzxcvccvvvMbvvzvMMMcvccbkxzr<vl44",
"hjhhkju16ttrqtttttuuquuututuuuitiiuiiiiihuhuuuhuhhjjjjlw7lh3Bl44",
"l51hncllccBvccllzzzjljlzlzlllllzlxllhllljjhhhhhihjljlljjlzclBw#2",
"hjwMAVBMACAVACAFCCCVZBZVBBBBMMBMMMMvvvMMBBBBBBBMMMBBBMMMjkvMCh<4",
"hxhu8ijhuuuijjjjzjzkjlljjjjjjllhhllzzllcclczccllzcczzcczvcjazzq2",
"kluq=ttttqtutuqtuutttutttuiuuitiiiiuiiiihhuuuuqhuuuuhhhjjjj;tzh4",
"mccccvbBBMMzzczzllxjzczzvzjlzxzxzzllljlllljjhhjhhhhllzjzjjzzzzcj"
};
