/* XPM */
static char *tile116[] = {
/* columns rows colors chars-per-pixel */
"64 64 57 1 ",
"  c #060606",
". c #070708",
"X c #070808",
"o c #0E0E0E",
"O c #0F0F10",
"+ c #0F1010",
"@ c #141414",
"# c #171718",
"$ c #171818",
"% c #1B1B1B",
"& c #1C1F21",
"* c #1F2022",
"= c #232323",
"- c #242729",
"; c #26292A",
": c #2B2B2B",
"> c #262C30",
", c #2A2F32",
"< c #2D3234",
"1 c #2F3539",
"2 c #313333",
"3 c #31373A",
"4 c #343A3D",
"5 c #363E41",
"6 c #393F42",
"7 c #3A4246",
"8 c #3F464A",
"9 c #40494E",
"0 c #444D52",
"q c #475259",
"w c #4A555B",
"e c #4D595E",
"r c #4E5B61",
"t c #515E64",
"y c #536067",
"u c #56646B",
"i c #5D6B72",
"p c #5F6F78",
"a c #646B6E",
"s c #666D70",
"d c #64747D",
"f c #677780",
"g c #677881",
"h c #697B84",
"j c #6D7F89",
"k c #767D81",
"l c #6E828B",
"z c #7C8386",
"x c #71858E",
"c c #838A8D",
"v c #8B9193",
"b c #9B9FA1",
"n c #9DA1A3",
"m c #E7E7E7",
"M c #EBEBEB",
"N c #F3F3F3",
"B c #FBFBFB",
/* pixels */
"#%*%%%%===%=======:::::::2:2::::2::::::22::::=:======%=%%%%%%%@%",
"$%%%%%%%#%%%%%====%:===::=:::::::::=:=::==:=:====%%%%%%%%%%@%%@@",
"$%%#%%%%%@%@%=%%=%=======:==%==::=:==========%===%%%@@%%%@%@@@%@",
"%%#%#%%#%%%%%%=%%=======%==%=%===:===:=%=%==%%%%%=%%%%%%%%%@%%@o",
"%####%%@%%@%%%%=%==%=%====:==%%=======:=%%=%=#%*%%%%%%@%@%@@@@%o",
"$$##%#%%%%%%%==%====%*%*=%===%===%=%=%%%===%=%%%%%@%%%%@%@%%%%%@",
"%%%%##*%@%%==%%%%=%=%%=*%=%===%%==%=%%%=%%%==***%%=%%%%@@%@%%@@o",
"%#%%#%%#%%%%%%%===%==%%%%=%=%%%%%%=%%%=%%%===%$%%%%%%@@%@%@%@%%@",
"%%@%%%%%%%%%%%%%%%%%%%%*==%%%*%*%%%%%*$#%%%%%*%$%%%%%%@%%%%%@%@o",
"%%%%#@%%%@%%%==%==;;-------=-;=;:=:==*--==--;====%%%%@%%%@%@@%%@",
"%%%%%#%#%@%%*=22;444444444444445222233442244,4<:==%%%%@%%%@%@@%@",
"%%%#%%%%%%%==2280eeweweewerwereeewwaewwwwwww09962==%%%%@@@%%%%%@",
"%%%%%%%%#@$*:49euddddddhddfkghfgksdddddddddddit922==%%%%%%%@@%%o",
"%%%%@%##$$$*:9cmmmmmmMMMMMMNMNNNNBNNNNNMMMmMmmmv02:%%%@%%@@%%@%@",
"%%@%%##%@%%=2sbmmmmmMMMMMNNNNBBBBBNBNNNNMMMMmmMns2:%%%@%%%@%@%%@",
"%%%@%%%@#%%=:9dmmMmMMMMNNNBBBBBBBBBBBBBNNNNMMmmc9===%%%%%@%%@%%@",
"#%%%%%%@@%%=:29wydpdddglhjjxjxlxxxxlllllhhggdse7:**%%$%#%%%%%%@@",
"@%%%@%@%@@%%*:379qqeewretyttttuuuruuuytyttrwqw3:=%%%%%##%##%#@#o",
"%%#%%%@@%@@%%==;%31335334444754577775445374<<1*=*%*%%%%%%%###%#@",
"%%%@%@@%@#@@#@#%=&**=***-==*==;=*==;;*==;*%*+**%@$$$%%%##%##@%@o",
"%%$%%@%@@@@%@@@@#@@@@@$$##@@@#%#$#%%###$#%$+o%#@$+%#@%##%$$$%#@@",
"$$$$@@@$@%%@@@@@+@#%$$#$##@#o@@@$@%$###$%$$@@##@@+=$%%$%$$%$%@%@",
"%$%$%@@@@@%@@@o@@@@###@#@@#@@O@@$@$#$##%$%$@oo#@#o=%#$#$@%%@%@@@",
"@%$$%@$@#@@#@@@@@@@@@@@o@O#@@OoO#@@#@@#$%$@@o %#$$@%@@#@$@%@@@%@",
"%%%%@@@@@%@@@@@@o@++@@@oO@@O@o@@@+#@+@###@%%@Xo#@@@%%###%@$@%%@@",
"%%@@%@@%%@@@o@o@@@@@@@o@@@o@@oOO++++#@@#@@#@o@.%oooo%==%@$@%%@%@",
"@@%%%%@@@@@o@@@o@@@@+#OoO@@oo@o@+@@++@#@@#%%o@o@%ooo@@%=%@@@@@@@",
"%%@@@@@@@@@@@@@o++++@+@@@O@O@@oO@@+#@@@@@@@@@ooX#@oo@oo.@%@$%$%@",
"@%@%@@@@o@@o@@@@+@+++@@@o@@@oo@oo@@o++@@@@#@#ooo.@%@oooo. o#@@@@",
"@%%@@@@@@oo@oo@o@@+++@@o@oooo@@oooo@@@+@o@@#@@@@o @%%@@ooo..@@@@",
"%%@%@%@@@@@o@o@o@o@@@@OoOOO@o@@o@@@o@o@o@@@@@%@#@@Xo#=#ooooo.@%@",
"@@@@@@@@@@@o@o@@+@+@o++O@ooo@o@oooo@o@@@@@@#@#%%#@oX.o#%o@oo.@%@",
"@%%@@@@@@@oooo@@@@@@o@oooooooo@oo@ooo@oo@@@%@@%@@@ooXoXX.o o .#o",
"%@@%O@@@@@@@@@oo@@o@@@@Oo@@oo@ooooo+@o@#@#@@@@#@%@@oooo.     .oo",
"@%@@@@@@@@@@@o@@@O@@@o@@@O@ooOo@ooOoo@O@@@@@@@@@%@@@o@oooX.   oo",
"@@#@@@@@@@#@o@@@@@@@O@o@@@@Oo@@ooo+o@oo@@o@@@@%@@@@@@@@@oooo  .o",
"%@###%@@@@@o@o@@@@@@@@@O@@oOO@oo@oo@O@o@@@@%##%@#@@@@@@@@@@@oo@o",
"@#@@@@@@@@@@@@@oo@@oo@Oo@@ooooo@@OO@o@o@@@@@@@@@@@@@@@@@@@@@#@@@",
"@@#@@@@#@@@@oo@o@@o@o@o@@@@@@@@o@oO@oo@@@o#@#@#@@@@@@@o@@@@@@#@@",
"#@#@@@%#@#@@@@@@o@o@@@@o@O@@@@@ooO@@@@@##@@#@#@@@@@@@@@@@@@@@@@@",
"#@#@@@@@%@@@@@@@o@O@@@o@@o@@@oo@@@O@o@@@@@@@@@@@@@@@o@@@@@@@@@#@",
"#@#@@@@@@@@@@@@@O@O@oo@@o@oo@@o@O@@@@@@o@@O@#@#@@@@@@@@@@@@@@@o@",
"@@@@%@@@%@#@@@@@@@@o@@@oo@o@@@o@@@@@@@@O@@@##@@@@o@@O@@@@@@#@##@",
"@@@@@@#@@@@@o@@@@o@@o@o@o@o@@o@@@@@oo@#@@@@#o@@@@@@o@@@@@@@@@@@@",
"@@@@@%@@@@@@@o@@@@@@@@@o@o@o@@o@oOO@@@@@@@@@@@#o@@@@@o@@@@@o@#@@",
"@@@@@@@@@@@@@@@@@@o@@@@@o@@ooo@@@@@o@@O@@oO@@@@@@@o@@o@@@#@@@@@o",
"@@@@@@@@@@@@o@@@@@@OO@@O@o#@@@@@@@@@@@@@@o@@#@@@@@o@@@@@@@##@@#@",
"@%@@%%@@@@@@o@@oo@@@@@@@o@@@@@@@@@@@@@O@@@@@o@@@@@@@@@@O@@o@@@@@",
"@@%@@@@%@@@@@@@@@oo@o@@@@@@%@@@@@@@@@@@@@o@@@@@@@@o@@@@@@@@@@@@@",
"@@%@@%@@@@@o@@@@@@@@o@@@oo@o@@o@@@@@@o@@@@@@@@@@@@@o@@@%@@@@@@@@",
"@@@@@@@@@@@@o@o@@@@@@@@@o@@o@@@o@o@@@@@@@@@@@@@@@@@@@@@@@@@@@@%@",
"@@@@@@@@@@@@@o@@@@@@@@@o@o@@o@@o@@@@o@o@@@@@@@o@@@@@@@@@@@@@%@@@",
"@@@@@@@@@@@@@@@@@@o@ooo@@ooo@@@@o@oo@@o@o@@@@@@@@@@@@@@@@@@@@@@@",
"@@o@@@%@@@%@@@@@@o@@@@@@@@@@@@oo@@@@@@@@@@@@@@@o@@@@@@@#@@%@@@@@",
"%@@@@@@@@@@@@@@%@%@@@@@@@oo@@@o#@@@@@@@@@@@@@@@%@o@%@@@@@@@@#o@@",
"@@@%@@@@@%@@@@@@@@@@@@@@@@@@@@@@@o@@@@@@@@@@@@@@@@@@@#@@@@@@@@@@",
"@%@@@%@@@%@@%@@@%@@@@@@@@@@@@@@@@o@@@@@@@@@@@@@%@@@o@%@@@@@@%@@@",
"@@@@@@oo@@@%@@@@@@@@@@@%@@@@@@@@@@%@@@@@@%@%%@@@@@@@@@@@@@@@@@@@",
"@@o@@@@@@@@@@@@@o@@@@%@@@@@@%@@@@@@@@@@@@@@@@@@@@@@@@@@@@@@@@@@@",
"@@@%@@@%@@@@@@%@@@@@@@@@@@%@@@@%#@@@@@@@@@@@@@@@@%@@%@@@@@%@@@@@",
"@@@@@%@@%@@@@@@@@@@@@@@@@@@@@@@@@@@@@@@@@@@@@@@@@@@@@@@@@@@@@@@@",
"@@@@@@@@@@@@@@%@@@@@@%@@@@@@@%@@@@@@@@@@@@@@@@@@@@@@@@@@@@@@@@@@",
"@@@@@@@@%@@%@@@o@@@%o@%@@o@%@@@@@%@@@@@@@@@@@@@@@@@@@@@@@%@@@@@@",
"@@@@@@@@@@o@@@@@@o@@%@@@@@@@@@@@@@@@@@@@@%@@@@@@@@@@@@@@@@@@@@@o"
};
