/* XPM */
static char *result[] = {
/* columns rows colors chars-per-pixel */
"64 64 198 2 ",
"   c black",
".  c #090000",
"X  c #000900",
"o  c #090900",
"O  c #010008",
"+  c #010908",
"@  c #0A0B0A",
"#  c #080008",
"$  c #180E0E",
"%  c #180F00",
"&  c #091009",
"*  c #0D180E",
"=  c #061802",
"-  c #18180E",
";  c #191306",
":  c #0A0B11",
">  c #0E0F18",
",  c #180F18",
"<  c #091010",
"1  c #0F1916",
"2  c #0F1818",
"3  c #0A101B",
"4  c #101010",
"5  c #10101A",
"6  c #101A1A",
"7  c #181818",
"8  c #181A10",
"9  c #210F0F",
"0  c #300612",
"q  c #390F18",
"w  c #231010",
"e  c #211818",
"r  c #231A17",
"t  c #26130F",
"y  c #0B210F",
"u  c #18210E",
"i  c #0C300C",
"p  c #0F390F",
"a  c #0F2118",
"s  c #182118",
"d  c #182818",
"f  c #152310",
"g  c #143016",
"h  c #222615",
"j  c #212118",
"k  c #2B2B1A",
"l  c #262619",
"z  c #2B2E11",
"x  c #0F0F21",
"c  c #01062D",
"v  c #180F21",
"b  c #0F1821",
"n  c #0C1324",
"m  c #101023",
"M  c #191922",
"N  c #131327",
"B  c #0B0E3E",
"V  c #211C21",
"C  c #210F21",
"Z  c #0F2121",
"A  c #0B2523",
"S  c #192222",
"D  c #192922",
"F  c #182129",
"G  c #1A2828",
"H  c #102325",
"J  c #183921",
"K  c #193129",
"L  c #183021",
"P  c #192632",
"I  c #183030",
"U  c #222221",
"Y  c #282121",
"T  c #212921",
"R  c #2B2B23",
"E  c #212129",
"W  c #222929",
"Q  c #292929",
"!  c #292229",
"~  c #22322A",
"^  c #283028",
"/  c #223626",
"(  c #32322A",
")  c #323B2A",
"_  c #3B382A",
"`  c #242B33",
"'  c #292931",
"]  c #242839",
"[  c #252130",
"{  c #293131",
"}  c #223A31",
"|  c #293A31",
" . c #29313A",
".. c #213939",
"X. c #283939",
"o. c #223131",
"O. c #313131",
"+. c #32333A",
"@. c #313A3A",
"#. c #3A3A3A",
"$. c #32222E",
"%. c #4B1303",
"&. c #64001D",
"*. c #4B2B08",
"=. c #0F410F",
"-. c #0F490F",
";. c #145917",
":. c #186A18",
">. c #186318",
",. c #187218",
"<. c #006A18",
"1. c #005139",
"2. c #004939",
"3. c #214024",
"4. c #284139",
"5. c #214930",
"6. c #304139",
"7. c #285130",
"8. c #215139",
"9. c #354925",
"0. c #007221",
"q. c #217221",
"w. c #217B21",
"e. c #286330",
"r. c #455D36",
"t. c #494527",
"y. c #416A30",
"u. c #0F0F49",
"i. c #131F45",
"p. c #1A1755",
"a. c #172155",
"s. c #2B334D",
"d. c #303941",
"f. c #373749",
"g. c #212159",
"h. c #1D2364",
"j. c #2A286E",
"k. c #303D63",
"l. c #343D6A",
"z. c #2D3470",
"x. c #2E397B",
"c. c #304141",
"v. c #394141",
"b. c #3A4745",
"n. c #006A6A",
"m. c #414949",
"M. c #414146",
"N. c #495149",
"B. c #414951",
"V. c #495151",
"C. c #465656",
"Z. c #515959",
"A. c gray35",
"S. c #636359",
"D. c #515963",
"F. c #414D76",
"G. c #516367",
"H. c #6C6C6C",
"J. c #636A72",
"K. c #902500",
"L. c #9C2121",
"P. c #915E09",
"I. c #BD6A0F",
"U. c #837239",
"Y. c #C67218",
"T. c #008825",
"R. c #218321",
"E. c #728C0B",
"W. c #7B931A",
"Q. c #30987B",
"!. c #03AA68",
"~. c #0C945E",
"^. c #42AD49",
"/. c #42A649",
"(. c #88951A",
"). c #9D8C13",
"_. c #9CBD00",
"`. c #8CA528",
"'. c #EFCE08",
"]. c #9CB058",
"[. c #373C86",
"{. c #3C5581",
"}. c #41578B",
"|. c #49598C",
" X c #475A93",
".X c #50639C",
"XX c #5B699F",
"oX c #59729C",
"OX c #5151AD",
"+X c #0F9C83",
"@X c #399C83",
"#X c #6D8686",
"$X c #7183B6",
"%X c #63A593",
"&X c #18EFB5",
"*X c #838383",
"=X c #BDC6CE",
"-X c #9AA3DD",
/* pixels */
"@ 4 * & 5 * @ 4 4 4 < 3 4 5 * 4 * : 4 > 4 4 4 @ 6 $ 6 , < 4 m @ f : x @ 4 < 4 m @ 5 f m 5 m 4 @ x : 4 < m 4 m v b v 1 $ 3 4 7 5 ",
"4 3 5 : : @ 4 < 4 * @ * > @ @ 4 5 @ * 4 4 @ x 4 4 4 @ 4 Z w 5 y 4 4 > @ m a 4 4 4 4 x @ @ 4 4 * @ 4 4 4 4 @ @ f @ y 5 N $ a < y ",
"+ @ @ @ @ @ @ @ @ @ @ @ + @ @ @ @ @ @ + @ @ 5 G F U M T #.(.Q # @ @ @ o @ . @ @ + @ + @ @ @ + @ @ @ @ @ + @ Q S W M Y S ( J Q @ ",
"7 a 1 S s Z 2 H M Z 2 s S S b 6 a H 1 Z 5 @ ^ Q W W D W $.'.[ @ 2 #._ _ R _ ( ( ) ) Q ~ ` T O.W ' Q W R S @ ^ { E [ W I 7./.7 @ ",
"s F @.d.c.d.c.X.d.c.@.d.6.4.d.6.X.X.6.X.s + ` E W > 3 5 , C W @ 2 W D M d U D D S T D U G d V D T D d T D @ ' T U , > 2 q 3.W @ ",
"7 F c.A.O.X.A.^ c.A.^ d.A.O.c.A.O.c.A.O.F @ { T * #.N.#.7 4 d @ Z D & @ & & @ & & & o @ & @ & @ & & & + F @ { T : #.N.+.7 - 7 @ ",
"7 G X.e ' @.T Q X.U O.@.U ( X.S Q  .U Q s @ { @ Q S.=XV.M., 4 . 7 U D s S Z D d s s F d S U s S s D S D M @ ` @ R S.=XN.M.2 5 @ ",
"s T X.@ ^  .@ Q d.@ G X.@ Q X.@ Q X.@ Q M @ ' @ 6 @.N.#.7 5 * @ s F & & & @ & & & & & + * & & @ & @ & & s @ ^ + 6 @.N.#.- 2 * @ ",
"1 G X.Q ' d.Q R ..' ^ X.' ^ X.Q ' X.Q Q s @ { F @ 7 R 7 4 4 e @ 7 W ' ^ [ { W W { { ` ~ ' ^ { ~ R W { { ' o ` E @ 7 Q 5 7 2 V @ ",
"Z F s F S D F D M T G S F T F D S D F G S @ ^ V U 4 5 6 6 G W . 6 M M M 7 M M M M M M 7 M 7 M M M M M M M M +.W E @ 5 6 > U E + ",
"s     + @ @ @ @ @ @ + @ @ @ o o           @ Q W Q E W V W Q Q @ 7     + + @ @ @ @ + @ @ + @ o o           @ { E T W W F Q M R @ ",
"j @ F +.+.` Q E M 7 5 7 2 7 > 7 4 < @ :   @ { : M : M : U + G @ M + P k.8.] [ ] ] 7 2 7 M 7 > 7 7 : < @   @ W @ E @ V @ E @ W @ ",
"U b l.l.l.+.+.` F M M M 7 M 7 6 h 4 4 4   + { @ D @ ! @ W @ F @ U b k.+X+Xf.+X+X!.s.M M M M V s U 1 4 5   + Q @ D @ Q @ { @ e @ ",
"W F l.l.].].`.r.W.r.W.W.W.W.r.(.E.h > 4 + @ { M M S V D T S S + U F k.k.k.f.` V M V E E U E U V U 7 2 4 + # { l M E M F W S S @ ",
"E M l.l.l.X.` Q F W E W E Q U h h h 4 @ o + @ + @ @ + @ @ + # @ T F k.k.k.f.] ` E V G W Q W W V U V 1 4 o @ @ < @ @ : @ < > @ + ",
"U 7 @.l.].r.(.(.r.(.W.(.r.(.(.(.E.h 7 @ + @ { { Q '  .| { { Q @ S 7 f.k.k.] Q G W ] E G W ' Q V e s 7 @ + @ | { Q O.{ Q ` { M + ",
"F 3 F `  .` ] F F F E E Q W Q l s 7 6 4 O @ ` U d D G M G F D + F 3 F ] ] ] ] G E E E E Q Q Q V s 7 U 4 O @ Q u u a s * s u l @ ",
"S < M U W E W M j D M ` W Q E U 7 2 4 &   @ X.F G + F @ D G M @ S < M U ] ] ] ] G V G G G Q Q U ` ..e.4   @ { ^ #Xj #XD #X7 G @ ",
"S @ 2 6 E.M M M M M M E E W W U 7 < 4 @   @ { G G G W D H d G @ S + 1 s ..e.e.e.8.X.] ] Q ] ] e.e.e.7.@   @ X.G Q * ^ < Q 4 U + ",
"M + < 2 M S M M 7 h M U U W V U 7 : 4 @   @ { & K & F @ / + W @ s + & / e.8.8.e.e.e.e.e.e.e.e.e.7.7.7.@   @ { U 1 * * * 5 , s @ ",
"S + @ 2 2 1 7 6 7 7 7 Y U U U j 7 4 o #   @ ' G I / } T K K I + F + @ e.7.7.7.7.7.7.7.7.7.7.7.7.7.7.7.@   @ O.W T s s s V 7 Q @ ",
"U O + : 3 3 1 6 7 7 U U U U Y 7 7 @ @ @   @ ` : { @ { & { @ G @ s O @ 7.7.7.7.7.7.7.7.7.7.7.7.7.7.7.7.@   @ ^ W C.a m.a V.@ s @ ",
"S   @ @ < < 5 6 * , 7 7 7 7 7 7 * 4 @ +   @ ( ..X.I } { } ` Q @ S   + @ @ : > 4 5 7 7 7 7 7 7 7 4 4 @ +   @ Q T : < * @ @ 4 M @ ",
"S   O + @ @ @ 4 4 > * 7 2 7 7 * @ @ @     @ { | I < { < X.4.K @ S   # + : + @ 4 * 5 : 7 @ 7 2 7 @ @ +     @ { D d.7 +.2 @.+ E @ ",
"7     O + + @ @ : @ @ : @ 4 @ 4 @ @       @ ~ 4.X.5.X.X.4.X.| @ 7   # O r 0 0 0 0 0 0 0 0 r 0 r @ #       @ | S @ & 2 & ; 4 Y + ",
"M       O O O O + @ O + O @ @ @ @         @  .4.6.6.L.O.4.4...@ M       &.&.&.&.&.0 &.&.&.0 &.0 0   #     @ ^ ~ m.6 b.a b.@ 7 @ ",
"7                                         @ { c.c.6.%.' 4.6.X.@ 7                                         @ Q T < 1 s @ & @ W @ ",
"@ @ @ @ & @ & < @ @ @ @ @ + @ @ @ @ + @ @ + { c.c.4.0 ' b.4.4.@ + @ @ @ & & = @ @ @ @ @ @ : @ @ @ @ @ . @ @ O./ m.u m.* m.+ M @ ",
"7 2 +.r.^.^.^.r.6 S ^.V Y J.E T J.W F ^.P @ ( c.c.4.^ { 4.c.4.@ 6 S 7.e./././.e.S U H.F b /.P E H.W U H.s @ Q ! & 4 7 4 @ 4 Q @ ",
"7 S - 1 s g u 7 U U , 6 S 7 S V M M M b 7 @ 1 4 * 1 * & 8 * @ @ 7 U * u s d s 7 F U M M D b S 7 M M s 9 6 @ { Q *Xq *Xw *X7 7 @ ",
"< 5 4 @ < 4 4 @ : @ 4 > @ @ > 4 & $ @ 4 : @ @ @ 4 4 @ 4 @ * 4 # @ @ @ 4 4 4 > @ @ 4 4 @ > @ 5 4 @ @ @ 5 @ @ T l % # @ o o @ E @ ",
"@ + @ @ @ @ . @ @ @ @ @ @ @ @ + @ @ @ @ @ + @ @ @ @ @ @ @ @ @ @ @ : @ # @ + @ @ # @ @ @ @ @ + @ @ @ @ @ @ @ 1 * & : * * & & < @ ",
"        .     X   o                       @ o + . @ @ @ @ @ #   : m 4 N < 4 m < 4 4 4 4 4 4 4 4 N 4 4 m 4 N 4 : 4 m 4 N * 4 4 4 ",
"7 7 2 2 7 2 7 2 t K.t 7 7 6 * 7 7 7 7 7 O d Q s j l r U U s U   m < y 5 4 4 < 4 4 & m 4 4 * 5 4 4 4 4 4 < @ 4 4 Z < 4 4 b 1 m 4 ",
"2 X X   X o X X o %.o X o X X + X @ 7 7 O U 3.J T V Y U k j U   @ @ @ @ @ @ @ @ @ @ @ @ @ @ @ @ @ @ @ @ @ @ H W M E F W #.).O.@ ",
"7 7 7 7 2 7 s 2 7   2 U U.U 7 7 2 2 7 7   L T.!.T.D Y h %.r U   2 #.t._ k ( ( t._ ) _ ) O.) _ _ #._ ( _ S @ { ^ Q W X.E ( ).b.o ",
"7 X X & o X +   X   X o *.o   X   @ 7 7   g !.&X!.K h z K.%.j   6 W G Y G Y D D Q T D Y W D U Q T D R T D @ { Q Q 7 6 2 7 k | @ ",
"s 7 b n.s - 7 7 2 7 2 7 o 7 2 7 2 7 7 7   d <.~.0.T j = %.. j   Z D & @ & & & & & & & @ & & & o & @ & & G @ X.E 2 s.{.s.6 7 U @ ",
"7 X + A X X X   X X X X X X o X   X 7 7   j g J J d V e @ e G   7 Q D D D S D D D s S L F U S G D D D D F @ O.@ ]  X-XC.s.v < @ ",
"7 2 @ + - 7 7 7 7 2 7 2 7 7 7 7 2 7 7 7   U U U U V T Y V Y V   s F & & @ & & * & & & & * & & & @ & @ & S @ { @ x ..C.s.b 6 - @ ",
"+ + + o = : * + < + & @ < < < < & @ @ 7   T V V S U U U T U e   7 ^ X.^ ] { Q ~ X.+.{ ^ X.( X.^ ^ Q { X.' @ X.R @ H s.< > -  .@ ",
"+   ,.= w.& w.X w.= w.X w.X q.X ,.X : 2   s d g g s a T ~.U 7   M M M M M M M V M M M M M M M M M V M 7 M @ { Q U 3 2 5 6 Q { @ ",
"O X R.X w.X w.X w.X R.& R.& R.= w.X @ N   2   X   X = * %X: 7   7 c u.u.p.p.u.p.p.p.p.u.u.u.i.u.u.B B i.B @ { E Q W E Q Q W O.@ ",
"@ X q.X q.X ,.= q.X q.X q.X ,.X ,.X + M   s 7 2 7 2 7 S D.@ -   D u.|.oX.X|.|.}.|.}.|.|.}.j.j.j.j.a.p.g.B @ { : W : U @ Q @ D @ ",
"    :.X :.X :.X >.X :.  :.X :.X :.X @ M   7 + X   X X   Z + 4   G z.$X$X$XXX X[.z.x.j.z.z.z.z.z.a.g.p.g.u.@ | @ U @ W @ Q @ Q + ",
"    ;.X ;.X ;.X ;.  ;.= ;.X ;.X ;.  + M X 7 7 7 7 7 7 6 +   4 o M [.oX$X$XoXoXoX.X|.oXoX|.oX|.z.j.g.g.j.u.* ^ F E E Q Q ~ P { @ ",
"    ;.X ;.X -.X -.X -.X -.+ -.X -.  @ 5   : @ - 4 7 7 $ 4 $ 4   D x.XXXX.XOX}.[.x.x.[.x.[.x.[.[.z.j.h.h.a.<  .] ` ' W Q Q W | @ ",
"    =.  p X =.X =.X =.X =.X =.X =.  @ M   o @ . @ @ o @ X . . . U z..XoXoX.XoX.Xx.[.[.[.[.[.[.[.x.z.h.j.u.&  .E W W W ^ W W { @ ",
"    i o i X i X i X g   i X i   i   : S   j e U j e 7 e s s e   S h.x.[.[.[.[.[.[.x.x.x.[.[.[.[.z.j.g.h.u.@ { W K G / D ~ G | @ ",
"    =   &   =   =   =   =   =   =   @ N   U V . V V @ e l o 7   s g.|.oXoXoXoX.XoX}.|..X|.F.|.z.j.g.p.g.u.& X.^ ^.5.^.X.^.| { @ ",
"b 2 M M 7 6 M 6 F M M M b 2 7 b S 2 M M O e W e C e , j 7 S 7 + G p.j.j.z.j.z.z.j.z.x.[.[.x.z.z.g.p.p.p.B + #.K | ~ | ~ } ^  .@ ",
"  @   + O @   @ O   +   . @     o     +   @ @ 4 $ o % @ $ . $ . M p..XoX.X|.|.oX|.z.z.z.x.z.z.h.p.p.u.i.u.o  .@.@.O.@.O.+.| O.@ ",
"  m.T @ #.T * f.T = #.T @ M.D + M.T @ b.4 B.m.& I.k Y.; _.u I.o M p.a.j.j.h.j.j.j.z.z.z.z.z.z.j.a.a.i.i.B o Q ^ I G I Q F G E @ ",
"* *   * < + * 4 + 4 @ @ * @   * & O * @ @ S 4   $ $ 8 @ ; & - X U i.|.|.|.|..X|.|.F.|.|.}.j.g.j.a.i.i.i.c @ $.P.R @.P.k ) P.k @ ",
"@ m.T # m.T * m.T 1 @.l @ b.T & m.M @ m.N.V.m.M a 2 s b d 6 W O d B B u.p.g.j.j.h.j.z.z.j.j.g.a.a.p.B i.c @ Q *.k X.*.( O.*.k @ ",
"* 4 @ * 4 @ * 4 @ * @ @ * @ + * * @ 4 @ @ 6 4 X 1.2 @XA @Xa @X* M B x.|.x.F..XXX.X.XF..X.XF.F.F.F..Xg.u.c @ R w k X.w k X.$ r @ ",
"@ C.Q @ D.^ * D.^ * V.{ @ D.' @ D.^ @ Z.` & Z.O     + + + + *   M u.B B u.u.u.p.a.a.g.p.g.p.p.p.u.B B B c @ _ k R O.' ' | ( l @ ",
"4 1 @ * 4 & - * @ - < & * 6 @ * 1 @ * 2 & 4 @   +   <   + O < X F B }.[.[.[.x.F.F.F. X XF. X X XB i.B B c @ ( P.R @.P.k _ P.k @ ",
"@ Z.' @ Z.{ & G.{ s m.^ @ Z.Q @ D.{ & D.^ & Z.2 Q.y Q.* Q.+ 1.  7 B c c B c B B B B B u.B B B B B u.B B c @ ( *.k X.*.( O.*.k @ ",
"  7 7   S s 4 U s s s 7 6 S s 2 j s 4 S 1 @ S X < & 2   +     @ @ @ @ + & @ & o @ @ @ @ @ @ @ > n > @ # @ @ ( w k  .t k X.$ j @ ",
"  M.F @ v.U 4 m.^ s m.m.B.B.B.m.M.S 4 v.U 4 v.  +   +   O   + + 6 G y.y.^.^.^.y.G S ^.V ' H.E E ^.N P H.F @ R R Q { R Q X.R R @ ",
"X * *   * 1 @ 7 1 1 W W W Q W Q W S : { T < ' 2 @X& 2.& 1.= Q.+ 7 V - s d h u 6 Y V e S F 7 F F n E F N 7 @ F D G S T S Y U S @ ",
"j j S   @ 4 S 4 4 @ @ 4 4 & @ 4 4 4 7 @ 4 S @   +   X   X   X   7 4 @ * 4 4 7 5 : 4 4 > 4 5 4 4 < @ < : 5 @ 4 4 4 4 @ 5 4 @ 4 @ ",
"  .                                                   O         @ @ # @ @ @ @ @ @ @ @ @ @ @ @ @ @ @ @ @ # @ @ @ @ @ @ @ @ @ @ @ "
};
