/* XPM */
static char *result[] = {
/* columns rows colors chars-per-pixel */
"64 64 84 1 ",
"  c #040300",
". c #080700",
"X c #070806",
"o c #0B0A02",
"O c #0C0C09",
"+ c #110F02",
"@ c #100F0B",
"# c #0F110B",
"$ c #141303",
"% c #181705",
"& c #171806",
"* c #1C1A06",
"= c #13130D",
"- c #18170B",
"; c #171808",
": c #1D1B0A",
"> c #151510",
", c #171811",
"< c #1C1C13",
"1 c #211E07",
"2 c #211E0A",
"3 c #201F13",
"4 c #1F210B",
"5 c #242107",
"6 c #25230C",
"7 c #29260E",
"8 c #2B290F",
"9 c #252413",
"0 c #292611",
"q c #2D2B12",
"w c #25241A",
"e c #29271A",
"r c #2C2B1C",
"t c #312E15",
"y c #302E1B",
"u c #2E3015",
"i c #2F301F",
"p c #333116",
"a c #33321B",
"s c #39361E",
"d c #3A391F",
"f c #2E2D21",
"g c #312F21",
"h c #343323",
"j c #383724",
"k c #373825",
"l c #3C3A25",
"z c #363529",
"x c #393629",
"c c #3C3C2B",
"v c #3E3E30",
"b c #403E26",
"n c #403E2A",
"m c #403F31",
"M c #3F402C",
"N c #424127",
"B c #42422D",
"V c #48472F",
"C c #47482F",
"Z c #444333",
"A c #494734",
"S c #474837",
"D c #4C4C35",
"F c #474639",
"G c #484739",
"H c #4C4C3B",
"J c #504F3A",
"K c #4F503D",
"L c #53533B",
"P c #4D4D40",
"I c #514F42",
"U c #545344",
"Y c #575841",
"T c #5C5C44",
"R c #575649",
"E c #585749",
"W c #57584A",
"Q c #5C5C4A",
"! c #605F4B",
"~ c #62624C",
"^ c #69694F",
"/ c #646352",
"( c #696953",
") c #676659",
/* pixels */
"TTTYYLLK~AwzMPIUUUUUUUUUURUUIUUUUURURUURYULURIULUIUHZexZ~~LJJT!~",
"~TLBhhhB/c>fzccvmcvmBcbBcBBccnnZnbBcccZclNbBlBBBcbvxr<rcLDcMJLT~",
"TDBxw==,ze>egxccccnbllbblbblclcbllbccBllblcblBlcccchr:wf:><hY!T!",
"TZZKh=>>-w-wikxksljljllllllllllljlccclslllllbxxlxlzse,w,,=<F(~LT",
"TzrMz,>3X>#<wrrrqyrrryqryryryryyygghrrqrrtrrrfrryfre<==X<=wSKzMK",
"Lh,,w> X   XOOOOOOOOOOOOOoOOOOOoOXOOOOoOOOOXXOOOOXOXX   XX=i33kD",
"Dl:##        .  .  .    .. .... .. ..  .    ..            X##wlD",
"TZ3=fX    ..o+o++++++$$%&$$%$%%%%$$$$$+$+$$$%&%$$$++o     X3#wAT",
"!!r>wX  oo++$%%%******2111121*571*12511115526;*;**1;$oo.  X$O<LY",
"CAx>X  .o$%%%255652977062286688807767777765565561622*&+o   X>hzc",
"w,>=OX o+;:22608q777666600qq88qq8888888q889760786665*%$o  X:;==9",
"hwww>X o&;:226665768tq088t8888q88t88qqq808q0886896605*%oo =9::-w",
"vhgieX +;:2:22298888qq8qq87888pq8q8tq8qq8q88888868q76*%$  =q769f",
"PcxkgO.$%:666066888888qtqq88t8888pp8q88888qqqq880q8871%$o >u709x",
"UZccaO $:86067q8888qqq88q8ttpptp88pqqqqqpqqq8qqq7qqq72%$o =rq09x",
"UZBlaO &6666888qqttttqqtpqqtpapppttttqqtqqpqqqqqqq8q62*&o =rq09x",
"UZBlaO.$*6546667qqq078qtqqqqpuqtq88q8888qq8q8qq077786*%$o =a07qz",
"UZZcy= +%*%%*:*165567755:565755*1*17554*1*1555251111;$+X  -rq0ez",
"RZZbaO$e%acSklyyBHchfrcHHcz<yBDVllyNDVld;lZHDls6dNJNt0$6: @pqqqz",
"RZmbh-20jCASZBjVHUHGcZHRRHZcAJLLDBNDLDSMvHRLLDblVJJVbyt02&-yq00z",
"RABch0aBLQQRQQ~!//////////!!~!/~~!!~!!!!Q/(~~~LL!!~!LLVbq<6tqqrz",
"RZBBsoX$-99999693ewe<w<we66:66006690e963<0q0966<66966%=oX $yrqqk",
"RZBbzX :o0ar6002qhfr<<was92$2ts80040qre<.9ydt6-o*0yy69o;+ @sat0k",
"RFBch$ $%:992*%26996*::0962*2671:%*6696%%:6922*$*262:$$OX =ayq0k",
"RZBch= X$*%***:1*%55*1711155151154:****1111*2*1****;;$o.X =hrrrx",
"RZZvz#X+*666567787qp8888qtq88q778768qq888tt88877670525*+  =hrrrc",
"EBvvhO %270688888qauptppp8tqttqq8qttttptqptqqqqttqt0072$o =rqrql",
"TZvvhOo%67qq88tppttqppspttttptqtqaptqtttttq8ttttqttt062%o =suqql",
"RVZmhOo%67qq8qtqqpqtaptttqttpttptpt808ttqtqtttttttqq065%o =arrql",
"YZmch= &68qq8qqqqppapttt8ttpsppqttttqtt87tttttttqtqq884&o =auqql",
"RGZZhOo&6qqq878qpttttt8qpppppttqtttq8tq88ttttqt08t0tq6*%o >atqqc",
"YZmczO.%68768qqttqqqqqqtpptpptttqt8qqqtt8tqqqqqqtq8t081%o >aqrqc",
"RZZnz$.%67888ptptt8qttttqqtaqqqtqqqtqtttqtqqqqqqt8tqq7*$o >arrrv",
"RAnBh@.%5688888p8qt0tpstqttptqqqqqqq0ttq0qqtqqq0tqqqq61&o >hyrrc",
"EAbnh@o%*68888tppttttttttqqtqqqqtttqqq00q7qqqt8ttqtt062$o =yrqrv",
"EZBcz=.%5888888pttttqqtttqtt0qqqtyqq0qqqt0qq00qttqqq062$o =yrrec",
"EGBbh#.%660q8pqptpqpt8ttttttqttpttt80q8tt8qqqqqt0qqq665&o >rrrrv",
"EGnnz@o%:6888upq8qqqqtqqtqqqqttptttq0t7qt07qyqqt7q0062%$. >frfrc",
"QZmnh=.+%4566870565578878768888656872117752765655755*&$o  >hfrec",
"EVZnz-=r&qlNhakflZjsy6pZHkz0yxBhrlgbnjrt=ynZmhg<rcnger=:- #ifrrz",
"EZZvz<w<wxZAcxrzFAVj0pBLPvzexZHZjrlZGckefmZHHZcexmmxg396-+>irrwx",
"EAmmhxmGY!~T!!!!)~~^~~~))))//))/!~^/~!//!)))/(/!~//!!RHZhwegrrrl",
"QFmnz939rjaskzzlcclllcccvvccxcvxjjdlllckhlbblckllzljgrr<-#=grewc",
"QFAmz@ ,o:66-9<-9u6q0:rff3<=,wr2%q18t099X168q22;;40:$<Oo  Ogrrrx",
"EAZcx=XX&qsy34$6jNja2fzxlh9;9hhq6*6dljr=-0ajst6*2qzr3+$=>X>grrwk",
"EHBBz=.$%::*:2257655655666667665566555565522626755:**%$X  >irw0k",
"QGBBh@o*5688888pt8qqqqqtqpqtqtqqqqqtqquqyttqtqqqq08866%$. >rwu0k",
"EAZcz$+*688qqqqqqqqtpqqqqttaqtttatppqqaqtqttttqqqqqq66*%$ #iqq0k",
"EZVch@+%7qqqqqq8ttqttqqqpppaqppp8qppqqpqqttppttppqqpqq5*$ =r009z",
"EZBczOo*687q88888878qqppppttqqqt8qqpqqppqtqttaptqpq887:%o =r0qqx",
"RZBch$o*:06070778q8qqttqq88q8q8qqq8pqppqqqppptt7q88806*$o =r999x",
"UZcxf@o%*56666688upqtt88qtqttqq88ptp8tpqqpptqq8q888875*$$ =q0w9x",
"HzhrwOo$:276600q0qq888q8q888888q8t8p8qputq8qqq88888885*$o =ew3<h",
"hw<3-X $*2655:567q686888q880878q8888qq08qt888887888702*+. X3--=e",
"ZBh,=X.$%*2*:2:56626666786668007608806668088676666666*%o. X=,kcZ",
"T~r=-X o+%%%%*%%%%%****151555662555555::52:525*45::**&+.  X,$9L!",
"^Rw,fO .o$$$%$$$$$$$$$%%%;%%*%%%=%%%%%%%;%%%%%%%%%;%;+O   Ow=wH(",
"YFw<>X    oo.o.o.oo..ooooo$oo$$oo$oo$+o$+o++++o+++ooo     X=@3BT",
"Kkewf>XOXX===>=====>===>===========>>===>>===>>===>>#O  XX,h33cL",
"JkrMc<,r=-9rraaryyyyyyaaashaasarassarhasaaaihiiiaaarr<>#<,wccrlJ",
"LllKM,=<<e;6696860666660q06q88706060990q6788q99006993;w<<=<kFMMD",
"LBZDh<,<hr;2665665766066666606666809909070e099996999<;eg3-,uZDKK",
"TTTDckcDLh$:6666:6266667666669960009996667eqw96699934#iDKFMMD!~T",
"!TLKLLT(Tc3rrgffhhiahaahhaahszaaahhhghahhazhhhhizghhr<lL~~TLLLTL"
};
