/* XPM */
static char *result[] = {
/* columns rows colors chars-per-pixel */
"64 64 227 2 ",
"   c #1E1C0B",
".  c #1B1605",
"X  c #19140B",
"o  c #241D0C",
"O  c #261D07",
"+  c #271F11",
"@  c #1E210F",
"#  c #1E2311",
"$  c #25210C",
"%  c #2B240D",
"&  c #242213",
"*  c #2B2413",
"=  c #2D2913",
"-  c #2B2419",
";  c #2E2C1A",
":  c #312B13",
">  c #332C1B",
",  c #372B18",
"<  c #2E3019",
"1  c #34321C",
"2  c #3C341C",
"3  c #39351A",
"4  c #32270F",
"5  c #2D2722",
"6  c #3A2D20",
"7  c #352E22",
"8  c #353222",
"9  c #3B3423",
"0  c #3D3A23",
"q  c #3E3529",
"w  c #3D3A2B",
"e  c #363726",
"r  c #44391D",
"t  c #423325",
"y  c #443B25",
"u  c #4A3D23",
"i  c #42352A",
"p  c #443D2B",
"a  c #4A3E2B",
"s  c #453D33",
"d  c #4A3E32",
"f  c #3D462E",
"g  c #4A401E",
"h  c #4C4225",
"j  c #45422B",
"k  c #4B432B",
"l  c #4C492E",
"z  c #444D2F",
"x  c #52432C",
"c  c #524A2D",
"v  c #544929",
"b  c #444334",
"n  c #4C4434",
"m  c #4C4C34",
"M  c #4C463A",
"N  c #4C4B3A",
"B  c #454636",
"V  c #524533",
"C  c #534B34",
"Z  c #5C4B33",
"A  c #554C3A",
"S  c #5A4E3C",
"D  c #55463A",
"F  c #4E503A",
"G  c #595134",
"H  c #54523C",
"J  c #5B523B",
"K  c #62533C",
"L  c #65593F",
"P  c #604E32",
"I  c #554D41",
"U  c #594C42",
"Y  c #4D5140",
"T  c #545342",
"R  c #5B5543",
"E  c #5C5A44",
"W  c #5C564A",
"Q  c #5C5B4A",
"!  c #555949",
"~  c #5D5D52",
"^  c #635543",
"/  c #645B45",
"(  c #6B5E44",
")  c #635C4B",
"_  c #6B5E4A",
"`  c #61564B",
"'  c #635D52",
"]  c #695F53",
"[  c #5C614D",
"{  c #576049",
"}  c #5D6252",
"|  c #5B6258",
" . c #6B6146",
".. c #64614D",
"X. c #6B634C",
"o. c #6B684F",
"O. c #72664B",
"+. c #736A4D",
"@. c #646353",
"#. c #6B6453",
"$. c #656A53",
"%. c #6C6A55",
"&. c #6A6559",
"*. c #6C6B5A",
"=. c #64695B",
"-. c #726B54",
";. c #736D5B",
":. c #736957",
">. c #6D725D",
",. c #6B735C",
"<. c #74725B",
"1. c #7B745C",
"2. c #7C7A5D",
"3. c #7A7456",
"4. c #6E6C63",
"5. c #746E61",
"6. c #6D7363",
"7. c #6F7669",
"8. c #747363",
"9. c #7B7564",
"0. c #767A64",
"q. c #7C7A64",
"w. c #767469",
"e. c #7B756A",
"r. c #757B6A",
"t. c #7D7B6B",
"y. c #7D7671",
"u. c #7D7B72",
"i. c #797873",
"p. c #827B5C",
"a. c #807957",
"s. c #827562",
"d. c #827C64",
"f. c #81766B",
"g. c #827D6C",
"h. c #897E6E",
"j. c #827D72",
"k. c #827C76",
"l. c #7D8265",
"z. c #7D836C",
"x. c #78836A",
"c. c #7D8372",
"v. c #7F8A74",
"b. c #7D887B",
"n. c #838165",
"m. c #83836C",
"M. c #8A856D",
"N. c #83896C",
"B. c #8A8667",
"V. c #838374",
"C. c #898474",
"Z. c #848975",
"A. c #8B8B75",
"S. c #84857A",
"D. c #8B857B",
"F. c #858A7B",
"G. c #8C8C7B",
"H. c #918D75",
"J. c #928D7C",
"K. c #968A7C",
"L. c #8C937D",
"P. c #8B9479",
"I. c #93927C",
"U. c #9A937D",
"Y. c #95967B",
"T. c #8B8681",
"R. c #858983",
"E. c #8C8C83",
"W. c #8E8D8A",
"Q. c #878988",
"!. c #938E83",
"~. c #918E89",
"^. c #8D9484",
"/. c #8D9A84",
"(. c #8E928B",
"). c #869081",
"_. c #949384",
"`. c #9A9483",
"'. c #939985",
"]. c #9B9B84",
"[. c #93938A",
"{. c #9A958A",
"}. c #959B8C",
"|. c #9C9B8B",
" X c #8E9492",
".X c #949592",
"XX c #939B93",
"oX c #9C9D94",
"OX c #9C9D99",
"+X c #949C99",
"@X c #A29D8B",
"#X c #A19A85",
"$X c #A39F94",
"%X c #96A18E",
"&X c #9CA294",
"*X c #9DA39A",
"=X c #9EAA9B",
"-X c #98A397",
";X c #A2A18B",
":X c #A2A393",
">X c #A3A49B",
",X c #A4A99D",
"<X c #A9A899",
"1X c #9DACA2",
"2X c #A4A6A1",
"3X c #A4ACA3",
"4X c #AAADA5",
"5X c #ABADAB",
"6X c #A6AAA7",
"7X c #A5B2A5",
"8X c #AAB2A5",
"9X c #A6B4AA",
"0X c #ABB3AC",
"qX c #AABAAB",
"wX c #A5B9A7",
"eX c #B1B3AD",
"rX c #B1BBAB",
"tX c #ABADB4",
"yX c #A6ADB2",
"uX c #ACB3B4",
"iX c #ACBBB3",
"pX c #ADB8B9",
"aX c #B2BBB4",
"sX c #B1B9B5",
"dX c #AEC1B5",
"fX c #B3C3BB",
"gX c #B0C0B4",
/* pixels */
"O r t r k d k h u u h x n v x C d x S V V S V J H C V A V n C c c C m V C V Z A J Z J D C l S C a x x V G h l r k h d d g i 2 % ",
"+ y V Z Z P C Z / ( _ X.#.X.#.-.;.3.9.1.8.q.q.q.2.q.;.5.;.;.;.;.:.;.;.;.5.<.q.0.9.e.s.9.8.1.;.;.:.#.#._ X.X.( K Z c Z Z Z C t O ",
"- 2 v A ^ / X.#.;.9.g.d.m.k.C.G.G.S.G.A.A.M.D.G.G.C.C.C.C.S.Z.C.C.Z.u.C.C.k.C.A.D.A.Z.V.D.F.S.G.G.V.k.g.g.e.9.;.-._ ^ ^ C C 2 + ",
"= k D K X.1.A._.I.`._.{.].{._.[.~.G.G.A.G.G.R.L..X{.{.|.|.{.|.{.{.|.|.|.@X{.{.{.G.D.D.D.D.G.J.!.!.{.{.].`.I.`.U.J.A.q.#.S A a > ",
"1 C J ) %.M.V.) Q R ! ! W E W T 0.Z.F.D.V.G.m.=.) { ~ Q } Q Q ~ ! } } { ) Q Q Q $.v.E.V.C.A.Z.q.E E E ! Q ! E ! X.C.g.O./ L V 8 ",
"0 S `  .%.G.q.= $ $ & # = & o } ,Xm.F.u.k.V.j.q - e e w B B M f b w 3 q 8 7 ;   q f.Z.D.V.F.V.*X@.= < ; > - ; : * q.C.#._ ^ S 0 ",
"u E _ X.-.C.e.8 p j d F b q } =Xm.V.f.g.S.m.5.p N } =.&.&.6.*.6.*.@.@.) Q ~ n 7 i 9.m.V.m.m.m.F.=X*.R T s d H b > r.D.<.X.X.R y ",
"a ) :.%.-.E.d.p Q { @.@.R r.3XF.f.g.S.V.V.m.9.M | u.b. X X(. X X XR.b.b.c.e.&.M d d.t.V.V.V.t.f.G.2Xc...Q E ,.@.p i.A.-.#.;.Q h ",
"u ..;.3.1.I.t.m ~ 4.*.6.t.7XD.j.g.t.e.g.t.e.u.M =.R..X-X2X-X=X,X-X+X(.W. XQ.y.! b j.e.t.m.e.g.e.z.A.3XS.*.&.6.&.p t.J.1.;.;.) a ",
"h #.;.;.q.W.g.H *.w.w.E.8XL.e.n.j.t.j.j.e.d.R.A 7.XX1X-X*X3X9XpX7X9X-X*X-X{.T.{ m S.q.g.e.e.j.j.g.u.J.8XE.6.*.*.n e.`.8.8.9.#.y ",
"y &.q.q.t.`.j.T w.z.R.9X`.t.g.n.u.9.V.V.g.r.W.A =.[.3X5X9XpXpXuX8X8X2X2XOXOX).#.U ^.e.V.V.S.1.t.g.g.m.`.0XS.=.7.n g._.f.q.q.&.j ",
"y ;.q.q.t.'.e.U 4./.6XG.A.t.u.t.q.Y T.V.u.t.'.H @.^.*XuXdXdXpX9XtXuXuX4X*X3X.X=.T '.t.z.V.C.Y q.e.t.x.Z._.3XP.x.I u._.9.q.e.;.r ",
"h r.t.t.t.[.t.R F.4X_.C.g.t.V.t.s q (.c.Z.t..XR #.[.1XiXpXfXpX0X9X5XtXiXaXtX1X4.U |.c.N.V.W.0 B l.m.u.t.C.!.3X(.T y.!.z.q.z.r.a ",
"a 9.m.e.t.^.C.<.3XG.m.m.f.y.s.s # f [.b.V.m.OX~ &.R.-XuXdXfXfXfXsXfX0XiXuX>X+Xw.{ OXu.m.b.[.n @ i g.f.f.j.j.J.3Xw.V._.u.q.j.e.p ",
"a ;.u.V.g._.|.'.D.m.t.V.t.0.b o e ! (.C.m.F.,XQ 8.(.+XtXpXaXfXuX0XaXeXyX0X$X Xw.X.>XZ.F.D.[.W 0   n w.V.Z.g.m.D._.}._.g.m.u.9.k ",
"i *.m.V.S.!.G.S.D.t.u.t.q.p % w f T (.c.E.G.<XW ,.|.3XfXfXfXqX5X5XeXsXyX$X*X.Xy.' 3XZ.E.m./.W ' 3 & q u.t.u.k.m.F.K.J.S.t.j.u.w ",
"y *.c.V.S.D.E.D.V.j.g.y.n & 0 ! Q T L.F.A.G.rXX.%.j.&XpXuX0XtX5XsXeX<X5X3X6XXXi.=.aXE.G.F.(.' r.~ ; o n t.f.k.S.G.E.G.S.t.S.t.y ",
"k ;.j.V.S.G.A.F.V.g.9.p   e ! 4.4.@.W.G.[.G.qX#.] V.*X9XsXdX9X9X0X9X:XrX4XOX.Xw...qXG.W.G.!.&.c.0.B &   i 9.V.c.A.G.G.D.u.u.8.q ",
"n ' V.y.S.G.G.D.t.9.d - 8 T ;.q.>.' [.E.W.^.rX#.@.G.3X5X9X3XuXpXeXeX4XeXaX>X+Xt.%.eX^.G.G._.&.L.c.#.p $ = B e.g.R.G.D.S.k.S.%.7 ",
"c &.j.m.D.G.R.u.e.s * 7 U <.S.F.0.' ^.V.G._.4X) ' V.*XyX0XuXfXpXqXtXeX5X0X2X*X4.) 0XJ.G.c.^.>.v.F.v.' d 2 = B e.k.S.G.D.g.u.;.1 ",
"n #.k.g.D.T.F.e.s & q R *.m.E.F.,.&.^.z.E.).4X) ) F.XX1XuXiX7XiX0X4X5XeX4X:X+Xi.' 4XG.^.g.^.>.C.T.'.t.&.M e - s 9.F.D.C.k.k.*.6 ",
"n %.u.S.k.T.V.b O > ! *.V.L.'.W.8.} [.F.S.G.4XQ &.E.2X7XtX3X3XuXtX4X4X5XsX5X{.i.) 4XG.F.S.^.*.F.[.{.F.0.;.A 9 & M Z.D.D.V.V.8.9 ",
"D *.c.j.k.!.3.; = T &.x.F.V.F.E.>.~ _.F.Z.G.0X) @.F.oXuX7XiX9X2X5X4X2X>XtXoX*Xz...0XG.S.F.'.$.P.^.}._.F.t.*.T 8 > 9.D.S.u.t.5.a ",
"c ;.t.j.C.^.9.1 B *.e.C.F.L.G.b.x.~ ^.S.F.G.rXW ! z._.0X2X7X-X}.$X0X5X<X$X&X Xe.E rXG.F.c.^.=.F.[.%XW.L.A.r.%.E 0 y.W.Z.k.k.e.a ",
"i *.g.V.u._.f.j #.e.m.S.S.R.W.z.@.~ ^.G.F.G.iX) H *.^.|.=X*X}.+X2X4X<X3XoXoXL.6.@.rXG.A.F.^.,.E.[.I.(.F.F.c.r.*.p u._.t.f.V.8.a ",
"9 <.V.e.d.`.j.A *.c.N.V.S.D.V.9.@.W L.C.G.J.0X&.N *.c..X-X-X0X7X3X$X4XoX{.oXc.t.@.qXW.G.A.L.=.Q.G.[.W.G.F.b.D.t.N j._.n.e.C.r.a ",
"y <.u.g.g.'.f.n *.u.c.i.e.z.e.8./ Q '.Y.J.'.4X^ H ,.S.R.[.'.%X.X|.>XOX>X,X;X^.t.) 5X_.J.I.^.%.Z.l.L.L.C.j.V.Z.9.N f._.f.n.u.0.k ",
"u u.V.j.g.[.G.) Q @.*.8.<.<.,.6.$.@.[.Y.!.{.<XE H ,.c.F.F.L.^.G.[.A.^.^.&XW.[.y.[ >X].K.Y._.*.,.,.7.8.5.9.>.$.E ..J.[.V.g.S.t.l ",
"V t.V.Z.Z.`.oX3XwXqXrXgXwXwXqXqX9X8X>X`._.].<X4X7X,X3X7X7X9X8XqX9X0X8X7X3X7X,X,X8X<X@X[._.,X7X0XqXqXqXqXqXrXqXqX3XoXI.A.Z.V.q.l ",
"h 0.m.g.M.[.}.}.].OX:X;X;X:X;X}.{.|.|.|.`.&X:X`.P.F._._.].|.:X:X:X;X;X].[.L.N.A._.oX@X[.'.}.|.{.{.:X;X@X;X:X$X'.|.}.[.D.m.Z.e.h ",
"a w.z.m.D.`.I.Y.`.J.`.@X].`.].].{.#XY.|.].`.'.I.I.H.L.`._.I.Y.'.'._.J.J.H.M.M.Z._.'.@X`.].].|.].].|.].[.%X`.I.!.'.'.[.B.N.t.w.h ",
"h <.q.V.A.!.J.G.D.U.Y.'.`.U.Y.`.U.`.].].`.|.{.@X[.`.G.~.J.L._.H.I.Y.A.C.K.C.I.H.#X|.].].]._.Y.].`.`.].H.].Y._.M.!.J.G.G.m.0.;.V ",
"C ;.q.m.Z.H.G.A.d.A.J.H.I.U.`.I.J.I.].].|.;X;X;XY.{.|.`.}.H.I.H.I.I.A.E.A.A.J.J.].|.;X#X#X].U.M.U.#XH.I.P.Y.A.l.m.J._.G.l.t.<.n ",
"x ;.q.d.m.J.L.g.q.B._.H.J.U.U.I.H.Y.].|.|.@X|.|.J._.I.^.F.A.U.U.U.A.C.V.G.m.M.n.U.].|.#X;XY.U.J.J.U.I.K.I.G.h.p.n.H.H.N.d.9.<.V ",
"x 1.q.w.j.J.f.A C A S A G S A T J -.].#X{.|.U.-.A C A V C A D T Z A C C V N C A -.Y.|.{.`.].&.S A H S S D A A A A g.E.g.9.q.;.Z ",
"x ;.9.d.d.`.5.= $ , > > = * ; = % T @X#X%X#XU.b @ o & ; * #   @ - * < 5 $ * * $ m I.;X#X|.@XR * o @ & o # @   X * y.J.g.8.9.-.Z ",
"J ;.q.t.f._.g.= 9 D R C H C J H i W ;X|.{.#X|.T 1 1 w j F B m l H J E k n 0 > 8 U {.].@X|.;XQ b n j j m j p 3 & o q.`.e.q.9.<.Z ",
"J -.q.q.g._.e.1 H %.8.<.<.<.%.,.[ Q |.{.{._.[.T h ! [ ....@.o.<.2.l.q.q.e.] Q F I }.[.{.`.|.) ..@.%.*.o.4.` E i % u.K.q.e.e.<.J ",
"J :.t.C.G.{.m.3 E 1.t.m.q.l.l.;.' ) }.J.`.G.%XM R w.8.9.l.0.8.z.F.G.{.{.I.N.z. .A oXG.Y.I._.' 6.n.e.t.Z.g.q.@.m + m.`.G.Z.9.;.G ",
"A *.9.S.G.`.I.t R ;.l.t.t.t.e.5.&.` ^.g.V.h.>Xb ! t.A.Z.N.Z.N.m.L.H.'.I.!.I.m.@.N :XV.k.m.(.#.l.Z.Z.F.Q.v.q.X.H 7 J.{.G.k.q.-.H ",
"J ;.9.C.E.~.|.<.m ..;.9.q.z.z.2.o.~ ^.m.z.V.XXS [ b.G.A.L.E.I./.[.~.`._.N.F.t._ U *XV.g.i.^.=.z.F.W.F.G.V.*.E b *.|._.D.C.q.;.A ",
"S <.q.V.G.J.%XwXe.E $.<.q.m.n.8...} _.Z.k.k.|.M [ x.[.[././.'.E.'.{.[.G.E.D.e.} M |.V.u.Z.^.%.Z.^.G.C.k.n.Q A t.9X&X!.D.j.q.<.S ",
"S 3.9.g.E.!..X2X7X8./ #.V.g.q.d.%.@.'.m.k.V..XA Q w.G./..X[./.[.|.'._.'.:X!.n.) A .XV.S.m.[.*.C.E.G.b.e.@.H 8.7X3X{.!.G.t.9.1.Z ",
"C ;.0.V.D.K.'.!.*X9X2.` <.1.e.2.$.Q W.t.F.F.{.m $.c.n.A.^./.!.'.].{.'.`.}.A.S.$.m '.S.S.t.W.*.g.m.Z.;.%.R x.7X$X!._.K.D.g.9.<.C ",
"m X.9.n.G.I.W.G.~.2X8X0.)  .9.*.` ) [.A.R.G.3XA $.A.G.Z.F.C.L.L.J.;X[.`._.J.c.) H >XG.Q.F.'.] 9.m.9.<.Y 9.7X>X~.J.W.G.A.t.9.O.m ",
"F #.9.f.F.!.K.G.G.!.*X9Xw.W %.X.E W ^.W.!.G.9XA ..A.L.P.E.Z.Z.A./.[._.'.L.A.;.) C 0XJ.!.G.[.| ;.;.X.T 7.9X*X~.~.H.J.G.G.d.9.#.F ",
"x X.q.j.C.J.E.!.E.J.E.>XwX7.` E A U ^.T.W.G.0XS $.V.G.J.L.^._.[.`.'.`.}.I.A.t. .U eXG.E.T.^.` #.X.R 6.wX2XG.J.!.L.T.J.C.g.q.%.x ",
"C %.q.g.V.{.D.C.!.H.G.G.*X7X6.n e A  XG.A.G.4XN $.N.^.}.}.'.}.[.|.'.'.&X@X_.G.%.S 2X^.G.F.W.R R N 7.9X*XD.G.!.J.M.E.`.g.g.8.3.C ",
"G -.q.q.9.!.G.-.C.J.D.E.G.$X9X6.1 f (.g.Z.G.&XA ) V.]./.'.%X`.I.'.G.G.'.'.H.C.) A >XE.S.m.(.B p 6.wX*XE.!.E.A.S.;.J.!.w.9.1.-.G ",
"H -.9.8.9._.j.2 &.A.D.H.G.J.*X7X=.Y (.m.C.V.>XM G 2.t.C.L./.[.A._.G.I.[.M.d.e.R B >Xz.Z.m.[.Y $.wX=X!.G.A.G.A.#., g.!.s.e.q.;.H ",
"P X.9.q.t.`.i.. ; #.A.D.J.!.!.=X7X%.^.T.D.R.XXB A 3.N.F.C.E.^.'.G.'.Y.A.C.j.3.J M +XL.G.F.^.6.7X>XJ.J.C.J.C.%.* o y.!.9.q.9.#.Z ",
"H -.q.9.e.'.e.  . * -.E.K.D.A.J.>XwX[.V.G.A.|.B Q 9.N.j.B.Z.B.A._.~.m.m.L.A.1.V B [.A.G.F.{.9X*XJ.G.K.D.Z.#.: % = j.!.f.9.8.*.J ",
"J -.e.9.e.[.j.4 o O 4 %.V.C.S.G.G.=XL.V.E.G.'.c C <.d.N.M.n.n.m.j.s.d.n.g.9.+.A z `.G.E.Z.^.&XG.G.S.C.T.#.> = 0 > j.!.e.q.q.;.C ",
"F &.8.9.t.!.k., y 6 * 4 ` j.S.S.G.D.V.D.J.J._.B c +.t.d.B.n.g.g.h.d.B.n.n.9.X.G B '.E.J.D.j.G.G.F.S.j.) 4 , 3 p 1 j.U.d.1.q.#.J ",
"G #.9.9.q.`.f.t k a 2 o % ) g.k.C.F.Z.K.!.G.R.w C +.d.1.1.d.p.s.2.f.p.;.s.-. .h w E.J.!.A.G.F.Z.u.g.) : 3 p n r : u.!.s.9.5.#.J ",
"J #.9.d.f._.i.9 C H k 2 $ % @.t.g.t.V.W.G.G.E.y h +.a.p.M.H.a.p.1.9.3.3.3.*. .u y G.D.G.G.V.j.f.t...- = l Z m r = z._.g.t.9.X.H ",
"S ] 1.r.f.J.V.2 H J H y 1 o % ^ t.n.F.E.F.D.R.q r +.a.p.s.p.B.B.d.a.9.q.1.+._ a i F.W.G.!.k.g.t.) = 3 a J K v a ; i.!.t.d.1.#.A ",
"A O.;.9.g._.t.2 v Z H J k r $ * J e.V.D.H.A.F.t h ( p.3.a.a.p.a.h.p.p.s.3.X.J 3 q G.D.C.D.V.r.E : , x J J ^ G 9 4 c._.d.t.1.%.C ",
"C ( -.9.g._.g.0 J G J J C a : X % E V.G.D.S.G.i r J / ( ( O.( ( O.-.s.:. .^ n > t G.S.G.T.j.E % O , y Z H J a t * j._.f.9.+._ V ",
"S X.O.1.q._.j.2 h r l H m a a 4 . > e.G.C.D._.j * 2 c c Z d v a k S ^ L G c 2 % p _.D.D.G.e.> O % 3 9 r r h a , $ g.!.9.1.+.X.Z ",
"G #.-.<.m.E.C.a m n C U C A c j y 5 T E.S.D._.E.1.g.t.S.j.V.C.j.V.V.j.j.m.t.t.e.G.[.G.Z.D.T 8 q 7 a a y p p p y 6 A.T.n.<.-.#.H ",
"x ( #.;.e.C.J.J.J.G.j.j.j.j.g.V.f.h.F.D.V.Z.D.V.h.h.M.M.j.M.M.9.s.M.A.m.M.B.M.C.g.D.Z.Z.C.G.j.m.g.f.g.j.g.V.G.A.!.!.S.q.-.#.L h ",
"c / X.X.;.;.9.t.w.e.9.;.<.-.:.<.<.9.q.z.u.j.p.1.3.2.p.1.1.3.-.O.( ;.3.1.1.s.2.a.p.s.g.j.t.q.9.9.8.;.;.<.1.1.q.t.t.e.<.:.X.X. .C ",
"c C J A S / / / ) ) _ / J R S / / / ) ^ ) / / _  .X._ / ^ K ^ J K K ^ ^ /  .X._ / / ) ) / / / / ^ J J R / ) / ) / ` ^ A J J J v "
};
