/* XPM */
static char *_6487_e37ab527881ea659cf4d081b0aeedff2d1c843bfbf2170f77fdfb4bcaf8effa3[] = {
/* columns rows colors chars-per-pixel */
"64 64 256 2 ",
"   c #8C837B",
".  c #938C7B",
"X  c #AD938C",
"o  c #837B6A",
"O  c #8C7B7B",
"+  c #93837B",
"@  c #A5A593",
"#  c #6A6359",
"$  c #7B6363",
"%  c #8C8C83",
"&  c #6A6363",
"*  c gray39",
"=  c #635959",
"-  c #6A6A6A",
";  c #837B7B",
":  c #938C8C",
">  c #595151",
",  c #6A5959",
"<  c #7B6A6A",
"1  c #6A6A63",
"2  c #7B837B",
"3  c #939393",
"4  c #596363",
"5  c #83837B",
"6  c #636359",
"7  c #938C83",
"8  c #A5938C",
"9  c #B5ADA5",
"0  c #393939",
"q  c #393930",
"w  c #595141",
"e  c #635151",
"r  c #7B7B7B",
"t  c #413939",
"y  c #303028",
"u  c #514141",
"i  c gray19",
"p  c #515141",
"a  c #414141",
"s  c #393030",
"d  c #514139",
"f  c gray55",
"g  c #8C8383",
"h  c #515151",
"j  c #181818",
"k  c #513939",
"l  c #595159",
"z  c #515951",
"x  c gray35",
"c  c #A58C8C",
"v  c #6A636A",
"b  c #635941",
"n  c #836A6A",
"m  c #8C7B6A",
"M  c #7B6A59",
"N  c #837B63",
"B  c #515139",
"V  c #596351",
"C  c #595139",
"Z  c #392818",
"A  c #30180F",
"S  c #391808",
"D  c #41280F",
"F  c #51280F",
"G  c #51300F",
"H  c #513918",
"J  c #593918",
"K  c #634118",
"L  c #59390F",
"P  c #593018",
"I  c #59300F",
"U  c #63300F",
"Y  c #41300F",
"T  c #39280F",
"R  c #30280F",
"E  c #180F0F",
"W  c #180800",
"Q  c #281800",
"!  c #301808",
"~  c #392808",
"^  c #412808",
"/  c #413008",
"(  c #512808",
")  c #411808",
"_  c #59280F",
"`  c #280F00",
"'  c #280F08",
"]  c #A58C7B",
"[  c #0F0F08",
"{  c black",
"}  c #080000",
"|  c #0F0000",
" . c #0F0800",
".. c #0F0F00",
"X. c #180F08",
"o. c #300F00",
"O. c #281808",
"+. c #300800",
"@. c #280800",
"#. c #392800",
"$. c #391800",
"%. c #393008",
"&. c #39300F",
"*. c #393000",
"=. c #837B59",
"-. c #51390F",
";. c #51410F",
":. c #593908",
">. c #59410F",
",. c #413908",
"<. c #7B6351",
"1. c #413930",
"2. c gray6",
"3. c #635118",
"4. c #635128",
"5. c #634128",
"6. c #63510F",
"7. c #41390F",
"8. c #513908",
"9. c #6A390F",
"0. c #ADA583",
"q. c #6A4118",
"w. c #6A5118",
"e. c #6A410F",
"r. c #6A3918",
"t. c #93836A",
"y. c #6A5128",
"u. c #7B5928",
"i. c #7B5128",
"p. c #835928",
"a. c #8C5930",
"s. c #835918",
"d. c #7B4118",
"f. c #7B410F",
"g. c #7B5918",
"h. c #8C5928",
"j. c #835930",
"k. c #7B5118",
"l. c #6A5918",
"z. c #8C7B63",
"x. c #6A510F",
"c. c #83510F",
"v. c #835118",
"b. c #836A59",
"n. c #8C6A59",
"m. c #8C6330",
"M. c #8C6328",
"N. c #836328",
"B. c #836A63",
"V. c #28180F",
"C. c #8C6A63",
"Z. c #8C5918",
"A. c #936328",
"S. c #936318",
"D. c #A56A30",
"F. c #A56A28",
"G. c #A56328",
"H. c #A57B28",
"J. c #936A30",
"K. c #A56A18",
"L. c #936A28",
"P. c #8C6A30",
"I. c #8C6318",
"U. c #937B63",
"Y. c #A57B30",
"T. c #937B30",
"R. c #AD7B30",
"E. c #8C6A28",
"W. c #936330",
"Q. c #836318",
"!. c #6A6A59",
"~. c #8C6A51",
"^. c #836330",
"/. c #6A6351",
"(. c #836351",
"). c #7B590F",
"_. c #935928",
"`. c #8C5118",
"'. c #513008",
"]. c #6A590F",
"[. c #18180F",
"{. c #83590F",
"}. c #7B6318",
"|. c #7B6359",
" X c #A59383",
".X c #935118",
"XX c #AD6328",
"oX c #AD6A28",
"OX c #B56A30",
"+X c #A55918",
"@X c #AD6A30",
"#X c #635141",
"$X c #A56318",
"%X c #AD7B28",
"&X c #B58330",
"*X c #AD8330",
"=X c #B57B30",
"-X c #BD8C39",
";X c #BD7B30",
":X c #AD7B39",
">X c #B57B39",
",X c #B57B28",
"<X c #AD6330",
"1X c #936A63",
"2X c #593900",
"3X c #634108",
"4X c #A57B39",
"5X c #936A39",
"6X c #6A5951",
"7X c #6A5928",
"8X c #836359",
"9X c #8C6A18",
"0X c #6A6341",
"qX c #835128",
"wX c #594141",
"eX c #836A51",
"rX c #A55928",
"tX c #393028",
"yX c #935918",
"uX c #ADA58C",
"iX c #A5836A",
"pX c #BD8339",
"aX c #594108",
"sX c #30300F",
"dX c #AD9383",
"fX c #8C590F",
"gX c #937B6A",
"hX c #412818",
"jX c #413928",
"kX c #513018",
"lX c #594128",
"zX c #6A4128",
"xX c #593928",
"cX c #513928",
"vX c #838383",
"bX c #836A7B",
"nX c #6A5963",
"mX c #93A593",
"MX c #415141",
"NX c #393039",
"BX c #596359",
"VX c #413941",
"CX c #635963",
"ZX c #838C8C",
"AX c #302830",
"SX c #283028",
"DX c #515959",
"FX c #282828",
"GX c #514151",
"HX c #303939",
"JX c #515159",
"KX c #7B6A7B",
"LX c gray3",
"PX c #0F080F",
"IX c #080008",
"UX c white",
/* pixels */
"  . X X o O + + O   @ # $ o   % @ & # * = # - ; : > = , # < < ; 1 & $ < 2 3 * 4 = , # < < ; 1 & $ < 5 @ 1 6 $ 5 7 8 9 % 1 o o X ",
"$ > $ : 0 q w e = # r q t > > 6 < y y q u w > # < i q u w > = % p u > # 5 @ a i s d w > = % p u > # 5 @ u q > 6 - < f g h p o 8 ",
"# a i h j y t u p u t y a > > h u y s t d p h > u y s d p > u k s t u h l l i i q d p > u t s t u > l > i 0 a z x x x p t a : c ",
"g g h v u e = = e b w e # n o m $ # $ M # e , N N # # # e > B d d p w V $ < < < # # e > C d d p w e & $ 1 < o O O O o e = j 0 $ ",
": f x ; Z A S D F G H J J J J K J J J L P G G L H J K K K L I I G I G G I I U U U K U U U U U I L I I G G G G G G Y T R e y s & ",
". < x ; E W Q ! ! S ~ ^ / ^ ^ ^ ~ / / ^ ^ ^ ^ ^ ~ ^ G I F ( ( ( ^ ( ^ ) ^ ) ( ( ( G I G _ F ( ( ^ ) S S ! ! ! ! ` W W ' = t w $ ",
"] 1 x ; [ { { } } } |  . . . . ..... . . . . . . . .[ W  . . ... .X.[ [ W  .W .. .W W W W X.X.W W W X.W W [ X.X.[ [ X.H # u e $ ",
"m # z < E ..[ W W W ' ' ' o.o.O.O.! +.' ' +.! ! o.Q Q Q @.` o.! o.! o.! #.! A ! $.~ %.&.%.%.%.*.%.*.%.#.%.%.! ! ! O.o.J e p e $ ",
"=.> a < X.! %./ G G J L J K L L -.-.L L L U J K J -.L L J L L ;.:.L -.-.L L L >.K J L J -.L -.-.,./ &.R R ! ! O.O.X.O.J b u 6 $ ",
"<.1.0 1 2.! &.&.-.-.J J >.K J J L >.3.4.4.3.4.3.4.5.K K 4.3.K >.>.J J L J 6.>.>.K K U K J J >.>.-.-.L 7.7.Y Y %.~ ! A J w t r   ",
"M d i & E T -.Y -.-.-.-.-.-.-.-.8.L J >.L >.-.:.8.-.>.J >.>.K J J K 9.6.6.K 6.>.6.K U 6.U K >.6.J J U L >.L -.7.Y ~ %.J e y s w ",
"0.@ > & X.o.T T Y -.-.-.-.-.L L L K >.L K J >.K -.L L L L >.K q.q.q.6.w.q.K 6.6.e.w.q.K r.K 6.6.K K 6.e.K L -.7.7.%.%.J # a t e ",
"t.5 l * X.( -.>.K e.q.y.u.i.p.a.p.s.d.f.g.g.g.h.g.j.p.p.i.p.u.h.u.p.u.p.i.u.i.g.i.g.g.g.y.w.k.q.q.q.l.l.4.K U -.Y T %.K n > p # ",
"z.# > > [ ' ! $.^ / -.:.U U U e.K e.9.e.f.k.f.f.x.w.x.w.f.u.y.f.w.c.i.v.y.g.y.k.y.f.e.e.6.6.K 6.e.K K J J L >.-.T ! ! K m > > 1 ",
"b.e u p X.~ Y G 6.6.w.x.w.f.k.f.e.w.x.x.f.w.f.k.x.f.f.x.f.x.f.x.f.f.w.f.y.k.w.f.y.k.x.f.f.f.w.k.f.w.w.6.U >.6.U Y %.%.K m h > < ",
"n.u t a X.J 5.q.u.u.u.p.p.p.m.s.p.M.u.s.v.u.p.s.u.N.u.u.s.u.h.u.p.u.g.v.u.v.s.g.i.k.k.g.g.k.g.u.y.w.x.e.6.6.U / O.! T K B.u $   ",
"b.p s t W #.Y Y -.-.-.-.-.-.-.7.H >.J >.L L -.-.-.K K 6.q.y.d.e.q.6.K 6.K K w.w.w.K K 3.w.q.w.K K K >.L J K L Y &.&.&.K $ y y e ",
"t.% t t W W X.' V.O.O.' X.O.O.' O.O.A ! O.O.Q ' Q O.Q Q Q O.Q o.O.O.O.o.A O.O.O.O.! A ! R ! ! ! ! R ! ! T T A O.' O.! K $ s y b ",
"C.= u d O.q.i.s.p.Z.A.A.S.D.D.F.F.G.D.H.J.G.K.D.L.J.S.L.S.S.S.L.L.P.L.K.F.L.S.A.Z.Z.I.A.Z.Z.Z.I.I.S.I.p.u.w.q.L :.-.8.K $ t q > ",
"U.e > > O.w.u.y.u.N.P.J.D.Y.Y.Y.Y.Y.Y.Y.T.R.Y.D.T.J.D.J.J.L.J.T.L.J.G.D.L.J.J.Y.J.D.E.J.L.A.M.W.m.D.J.Q.g.f.w.>./ ~ 7.K !.d u > ",
"~.w p > ' Y L -.-.w.g.M.A.P.D.J.F.J.J.m.E.J.T.D.L.^.M.m.J.J.J.J.M.N.p.N.u.i.h.D.J.J.N.N.M.p.N.E.J.J.m.N.g.w.w.-.T %.-.K /.p w b ",
"(.d d = X.O.S %.%.-.L L U q.g.i.k.).g.v.).k.M.I._.p.v.M.M.m.m.I.Z.M.Q.m.Z._.`.m.M.F.D.F.A.L.D.J.J.J.S.A.A.s.s.w.J K J K # h > = ",
"<.1.q 6 O.%.'.L I e.w.x.g.f.k.k.k.f.f.k.f.k.d.k.k.k.k.s.g.c.g.f.d.k.].u.].i.f.g.i.c.i.v.I.I.Q.u.k.i.f.p.s.k.w.x.U L -.3.o > # M ",
"!.i i v [.%.7.L L 6.y.p.m.A.m.M.M.s.s.s.p.M.Z.M.N.M.Q.M.s.{.}.s.p.I.I.I.Q.p.M.m.M.I.g.g.g.`.s.g.).g.y.u.f.q.K :.8.S ! K o u < o ",
"M u i & [.Y -.U >.3.g.M.P.J.P.P.M.p.M.N.M.M.M.M.E.E.s.k.k.f.f.g.s.s.g.g.f.k.g.u.g.g.f.f.w.3.x.w.q.k.w.x.e.6.K 3.>./ %.K |.y i p ",
" X@ l 1 [ X.Q ! ) L w.u.g.i.g.N.M.Z.A.p.I.p.I.p.J.J.W.p.h.p.N.M.P.m.J.E.A.L.F.A.A.E.L.S.A.W.J.J.J.L.D.E.L.M.i.y.K 7.%.K # s q w ",
"m 5 l & X.` ~ Y J 3.g.M.S.`..XA.D.XXXXR.oXXXK.I.Y.OXF.S.J.D.F.L.J.D.D.Y.R.D.R.F.H.J.oXY.D.G.D.J.D.A.+XN.m.M.s.K G ~ ~ K # d d w ",
"z.# h > X.Q %./ -.6.f.v.{.s.Z.I.I.L.F.H.oXD.D.L.R.R.H.F.J.XXD.D.Y.R.@XD.Y.Y.@XD.D.D.XXF.F.F.L.M.G.M.I.Q.I.Z.u.-.! R Y K e p p #X",
"n.e u p X.*.L U U k.p.s.A.$XA.W.L.L.F.F.L.L.G.W.Z.S.S.L.M.W.W.J.J.J.m.I.I.W.A.W.A.W.m.W.M.M.M.Z.S.p.m.M.M.i.q.L Y Y -.K e > > # ",
"n.u t a O.:.>./ ~ 6.s.s.s.s.s.g.{.f.k.k.g.s.v.s.f.f.k.v.f.k.e.w.f.d.k.g.d.w.k.k.q.f.x.d.w.w.y.y.w.6.K K K J J Y &.&.%.6.w u = # ",
"=.p s t X.Y -.&.&.G U I K K K J G ( / ^ / Y / / / %.%.'.%.T ! ! O.! ! A ' O.O.Q Q Q O.! ! ! O.O.O.O.! O.O.O.O.' X.X.X.-.d k g $ ",
"t.% k t X.X.E X.X.X.X.X.' ' V.O.O.O.O.O.! ' A ! ! ~ Y -.-.Y Y -.>.J 6.3.K y.w.w.k.M.E.L.M.A.A.M.m.E.L.L.A.I.Q.g.3.6.K K d s p V ",
"C.= u d ' / J U K >.w.k.s.Z.p.S.L.@XoX%X%X@XR.&X*X&X=X=XR.R.@X=XOX@X%X=X&X-X;X:XR.&X*X>X@X,X=XoX<XR.Y.D.A.J.m.4.&.G J K p t u e ",
"1Xe > > X.! 7.2X3XU f.w.].u.c.s.s.F.D.oXR.R.oXoXL.4XR.R.oXoXD.Y.OXD.F.J.D.Y.L.5XD.R.R.R.Y.%XD.F.D.%XH.D.G.m.-.T A ! ! >.w u > 6X",
"~.w p > X.! / -.L L x.7XN.m.A.W.I.I.J.F.R.oXD.F.L.D.R.Y.D.D.L.Y.R.H.F.F.XXD.L.Y.%X@XD.Y.R.Y.Y.%XY.Y.H.Y.D.A.6.-./ ~ R K V h = 6X",
"8Xu d = A J w.4.7XN.M.J.D.T.T.T.D.J.L.H.F.J.L.G.W.Z.J.S.A.F.W._.W.9XL.E.A.J.D.Y.Y.J.Q.9XJ.A.L.F.J.J.J.A.E.M.g.>.%.%.Y K $ l 5 1 ",
"<.q s 6 O.Y L -.-.3.u.p.m.J.D.J.F.L.J.W.M.A.J.D.J.p.m.M.W.J.J.A.A.Q.p.N.p.u.N.J.J.J.N.Q.N.Q.N.M.J.J.m.h.g.y.w.-.T %.7.K < l 3 5 ",
"0Xs y , X.O.S %.%.-.J L 6.w.g.i.f.).s.c.).f.p.I.M.g.qXM.M.W.m.N.Z.p.Z.M.p._.M.A.M.F.Y.F.L.L.D.J.P.J.L.A.A.v.s.q.K J ;.K < i a V ",
"] < u $ V.%.'.I I e.w.e.k.f.f.k.k.k.c.k.f.k.v.s.k.k.k.s.).v.g.f.d.k.f.g.].k.f.g.i.f.u.v.I.Q.s.p.g.u.k.v.s.k.w.6.U L -.K < i i z ",
"t.# > $ X.%.7.L L 6.y.u.m.M.W.M.N.s.I.}.p.M.I.M.M.M.Q.M.s.g.}.Q.h.I.s.I.I.M.M.m.M.I.s.s.g.s.s.s.{.g.y.k.f.q.6.:.8.S ! K # q s wX",
"z.> h = X.%.-.U >.3.g.M.J.P.P.E.M.p.N.M.A.h.M.M.E.E.Q.v.k.f.x.k.s.p.g.g.).u.g.u.g.g.f.x.w.3.x.w.d.w.w.q.e.6.K 3.6./ %.K # d d w ",
"eXw p > [ X.O.! ) L w.u.s.i.s.N.M.Z.M.N.I.p.Q.N.J.D.m.p.p.M.N.m.M.W.E.M.L.J.G.A.L.E.L.S.A.W.J.J.J.F.D.E.L.h.g.y.J 7.%.K e p w e ",
"M u d 6 X.` #./ J 3.g.M.S.`..XA.D.XXXXR.oXXXK.9XD.OXoXS.J.J.D.L.J.J.D.D.D.Y.D.F.F.J.oXY.D.G.D.J.D.A.I.N.m.h.p.K G ~ ~ K e > > # ",
"M 1.t # ' Q %./ -.6.f.v.{.s.I.I.I.L.F.H.%XD.D.L.Y.R.H.F.L.XXD.L.Y.Y.@XD.Y.R.oX@XY.D.XXF.F.F.F.M.rXM.I.Q.Z.Z.u.-.! R Y K w u = , ",
"eXtXs # O.*.L U 9.l.u.s.A.$XF.J.L.L.F.F.L.L.rXW.Z.S.S.L.A.W.J.D.D.J.m.I.I.A.A.J.A.W.m.W.A.M.L.s.yXM.m.M.`.i.w.3XY Y -.K d t g $ ",
"b.tXy , ! :.>./ ~ >.s.s.s.v.s.g.).c.k.k.g.Q.s.s.f.f.k.g.k.k.x.w.f.d.k.g.q.d.k.k.f.e.x.w.w.w.u.y.w.6.K K K J J G &.&.~ -.d s p V ",
"uX< u $ O.Y -.&.&.G U I K K J J G ( / ^ / Y / / / %.%./ / T o.! O.! ! A ' ' O.O.` Q O.! ! ! ! O.O.O.! O.O.O.O.' X.X.X.A u t u e ",
"] 6 h < X.X.E X.X.X.X.X.' ' V.O.O.O.O.O.! ' A ! ! ~ Y -.-.Y Y -.>.J 6.3.K y.w.3.k.M.M.L.M.A.A.M.m.E.L.L.A.I.Q.g.3.6.J T w u > 6X",
"iX> > < O.8.J U K 3.w.g.s.Z.h.S.F.D.%X%X%X@XR.&X*X&X=X=XR.OX:XR.OX@XR.=X&XpX=X:XR.=XR.:X@XoXR.F.D.F.Y.D.A.P.P.y.&.G J T e > # /.",
"z.w > $ A aX>.6.p.M._.A.L.D.<XD.Y.Y.:X:XY.%XY.D.Y.Y.Y.D.J.D.J.L.D.J.Y.D.J.m.M.J.m.J.M.M.s.Q.p.Q.p.Q.Q.p.p.k.x.6.~ %.%.T & l 5 N ",
"b.t a 6 O.Y &.Y 3.g.u.Q.M.m.M.W.D.L.m.W.N.s.p.p.M.m.W.S.Q.Q.N.Q.M.M.J.W.Z.v.u.s.v.s.p.h.N.s.yXM.Q.I.s.v.i.d.x.6./ / ! T 1 > @   ",
"<.q y w X.%./ / :.e.y.w.w.w.y.q.k.k.p.g.g.u.v.k.k.k.u.s.u.s.N.M.M.M.h.Q.s.h.s.N.h.M.9XL.m.M._.m.M.Z.yXh.g.9.L 8.sXA O.T 1 i t V ",
"dX; t u X.%.-.I 6.w.g.s.g.k.s.p.f.v.Z.M.M.M.M.I.M.I.fX`.Z.I.A.M.I.Z.v.s.s.A.A.N.A.rXF.L.s.N.p.g.d.x.f.K L 8./ %.R O.X.T < 0 q w ",
"t.# u w O.! -.U K w.7Xs.u.Z.K.F.I.yXS.L.L.F.F.K.K.$X$X$XS.M.S.s.v.`.k.c.k.u.g.w.x.q.e.x.K x.d.x.y.q.6.6.6.L -.-./ ~ A T < a > /.",
"gXe p e O.A &.-.J f.g.g.p._.A.rXm.W.p.`.p.W.^.N.u.u.k.k.d.y.k.k.k.s.g.s.s.u.p.s.g.u.g.M.p.g.v.s.u.s.g.g.g.w.6.L '.&.A hX; z 6 M ",
"iXe u = ' ! ~ T 7.L L L >.q.6.w.u.g.w.d.w.k.w.l.w.w.w.p.u.l.p.u.u.g.u.k.g.M.h.u.u.d.s.g.k.g.g.w.y.w.w.6.U ;.-.Y $.! ' T ; x 1 o ",
"iXw t = X.o.~ Y ,.L L :.3X6.3.y.g.l.w.w.6.e.e.6.e.3.y.w.e.e.e.6.U K J U >.>.6.J >.L >.J L L K J >.-.-.-.G 7.Y Y ! ' X.R ; x < 5 ",
"gXq y e X.' ! ~ ~ ~ / G G / G G G G G G G Y G G G G L U U U K K L L L I L G G G G G I L U L L L G G Y ~ ~ ~ ~ ~ ! ! ' V.< x f : ",
"z.0 j = jXhXkXP H J 4.K K 5.3.4.4.J 5.K K J J J lXJ 4.y.y.y.y.y.zXzXzXzXzX5.5.5.K K K q.y.y.y.y.K K K xXH H H J J H cXtXv h vX< ",
"X : h f - < ; O bX; : = & < o 5 7 6 = = = 6 & < 5 > > 6 # 1 1 < nX& & 1 < % 6 x > = # & 1 < & & & & < % 6 = 1 r vXvXmXvX* 0 MX1 ",
"8 o * 3 s NX> l x * r i 0 h > BX< y y 0 a h > 6 < i s a h x 6 vXa u x & ; @ a i s VX> > = f h h CX* r @ a 0 x - - - ZXZXa 0 p $ ",
": - h h j AX0 a a a 0 SXa DXx h u FXi 0 a p > h a y s a u h a VXi VXGXh l l i HX0 t u h a VXi VXGXGXJXl i 0 a h x x x h HXa z 1 ",
"< ; r v x x x x x h h h * - r KX- * * v * x x KX- = = = x > a 0 VXa h x & 1 * v * x > h a 0 VXa p x * 1 * - KXr vX; r v CX= x x ",
"LX2.PXLXLXLXLXLXLXLXLXLXLXLX[ LXLXLXLXLXLXLXLX2.LXLXLXLXLXLXLXIXLXLXLXLXLXLXLXLXLXLXLXLXLXIXLXLXLXLXLXLXLXLXPX2.2.2.[ LXLX[ [ LX"
};
