/* XPM */
static char *result[] = {
/* columns rows colors chars-per-pixel */
"64 64 33 1 ",
"  c #4A0000",
". c #550000",
"X c #5D0000",
"o c #640000",
"O c #6B0000",
"+ c #740000",
"@ c #7C0000",
"# c #840000",
"$ c #8C0000",
"% c #8F0C02",
"& c #940000",
"* c #9B0100",
"= c #930F03",
"- c #990C03",
"; c #9B1204",
": c #9F1805",
"> c #A40100",
", c #AB0301",
"< c #A40B02",
"1 c #AC0C03",
"2 c #B30501",
"3 c #B90701",
"4 c #B40902",
"5 c #BC0901",
"6 c #A01604",
"7 c #AD1204",
"8 c #A31E06",
"9 c #AE1C06",
"0 c #B31404",
"q c #B31805",
"w c #A62607",
"e c #AA2106",
"r c #C20A02",
/* pixels */
"O++++Oo++@$&**>>>,<7qqqq077<1111110000044440441,>>>>*&#+OOO++@+O",
"O. .X..XXXXoXoooOOOO+O+O++++++oOOOOOO++++++@OoooOoOOOoXXX..X. .O",
"O.#3>*#*>>>>>$@#$&>>$&$&&*>>>$$&**&&>>,,>#+@%#&**@$&@>>>*#*>5#.o",
"O.#$#@@$>>>*$@*&$$>$$#$&&$$$@#$&&&&$#$><##>25554$&>&#>>>$@@@$#.O",
"O.@&>#&$&#@#&&>>*#&$#>>#&>>@$#>>>5523*&*@$41>>>>,>>@#+#$$&#>$#.O",
"O.$$*#&&+*#$$$$$#$&&#**&#>>@$$#>r2&$>3$$,$,&&#>>-,&#$#*@&&#*$$.O",
"#.+@@+@@&>*$@$$$&>&&&$@@&>&$$&&#$&$&>2$#,2##@&23<$$*#&>&@@+@@+.#",
"&.$534@##$&*&@*>,>*$$&**$$,>>#&>>&&*>$&&#*43232*##@#####*2$&##.#",
",.***5,@#$***#>2,&**&&$@$*,&,55331*$@$>>*$@##@@*>>*$$$>>$*2$&,.@",
"2o&+#,<#*&$$#*>*2>>**>$>&@&#225535,&&#&&>>>>&<5>>$#&>&>>&$2**&O@",
">o$*$##@$&>>,>$*2,###$###*&#>>$##$>*$$&**$$@*2>>#*>12>5>&$,2*#O+",
">o>>132&&@*>2>$,,$>*&$$@$$$&&#&>>*#$#&$@$&*&*52>$**2>33>$*2r,$O+",
">X>**$#*#&222>$22,$#**@&>>$*&<22$#&$*$>,,<,,**&*#&>2>,>$$&<25&o@",
"3O>$&*@+<>>&$@+&25,*>&#&&#>2,r3>>&##&25*&r&><3$*&@*2,#$$@#+35#O@",
"3O$$###*2*$$##@+#>>*&#*&$25,&#&**$$@<2>#@@#<4>,*$&@#&>>#*>$42$O#",
"3+>&#&@2>$$>#>&#@##+@@@$*3,22>$$#$>@>rr3,2r3>>2>&**#@>@+>>*>>#X@",
"2O*#**#,*&&$$##*$@$*,<>&$555r32>>*#$#*>,22>>>***,>>>#*#@&>*>&*.+",
"2X##*$@<22*&&**>+$*,>$$*#@*>2**&$$*>*$#@+@@#$&,2>&>#**#@>3>&$$.#",
">o$@#$&#*3323*$@#&,,*@&@>#$###$&*>>*&&$>>>>&$22>**$@2>*#,>&#&@.$",
",o&$*>>>*&$$#$*&$$,2>*2$&@#$$$#*>&@&*$&>>>>>$3>>&$>@,52>>*@**&o@",
"7o@4$>2,,r222>*$@$&,r55*+$*#>>*$&#>>>*@$$$#$>2>*&$*$$,2>>$<5>&o$",
"9.$r$>45rrr3>$&>$@@@@@@@#$#>555*+&>>$$>$$#&&*&&&*##&$,>*$@3*##o&",
"eo,5$&$#*2,>$&*&$$#$&&*>@@$33>3>@##&*><**$#&**>&$>,*&$+$$$5,$@o<",
"8X,<+#*>>>>*#$#*>>,$&>*@*#&**>5>$&>>*,,,5>*&,>$$r3125@$+$&22$+.e",
":.&$&>&###&*@$>54<>3#>$&>&#$&25>$>>>&<>>24*<,>@>3*>>$@$@&&***&Ow",
";o#*>&#>>&$#+*,,$&#3&&#>>55552>#*2>#>,22>&*4>*#$453,*#@#&$***#ow",
"%O>>>@22$#&&@@&&&$$*$*#&>>>>&$$,2>>$*$*>*+,2>>@##>*&&&>>>#***$O:",
"#o>,>,>>$+>,@$+@#$##*$#@++##$*2,>>>#@@@+@@&252>$@+#*2>>$>$#@&>+;",
"#o5>>&@@$,5>@&>*&$**@&&*>$*>&*&#@&#@##@>>$*>>*>**224>>@#++$##@o=",
"@O4,>>>#@<>$#*>,22>#*>*&##*$*&*>*@#,3533r>$*$*#$&$>>>$$&+#$>*#.-",
";o#$&$#+#+@$&,&$&>2&#$$#+$>#>*>>$@>r2>$&>,*$&$*>&>$*$#&&+&#><@X<",
";o,>**@##@*&2#,*&<&*&#@#***#$&*$+*2,>&#$$@@$##>*$>&&#$$&##$>>,o<",
"<o>>>$##*$$&,#>>$&#&>,>*@$##&**<$#$$#&**$##$@+@$&&$&$*@##@**>>o-",
"<X#>>#&+&&#&2##$$>$*35>@>>,*&2,&****>>>&@*>>>&@&&&>>#@+#+#$&&#o-",
"-.#*>$@+&#$$5,*&>>@&r22$>*&14,>*&&>>&#@+@1>>>*$&>22**><##>>>,4O#",
"=o@##&++#@>@*22,>&#>r22&&&@*3*>$$#@$#@****>>*#@&>>,225>$#@$>>5o#",
";+>&##$>$>>>$#$$###>2555$$*54*&$<2*##&,,,++&&&>$*&&>5>+$>><>>2o#",
":o&***#>>>&$#,,,2>$$>,3r532>,2*,*55<&&$$@***,3>>$##&>&##22#>>>o%",
"wO#***$*###*>5#@,,>&@$****$@*,,4,4$$#&$&>>&$*35,>&####&>>#&>&#o:",
"wo&-*&&$+##>,2*$$*$#$$####&>24,#&,&$@>,52$#=&+&>>>$##*$##&>&$&.6",
"8.+$22&$@$@&>>>$+$*>2455,>*&*>25,*$@&<32*<5>>*@#>#&>>>>,>*#+<<o8",
"<o+$,r$&$+####@@$$&33,,1,+@$$$551$*,>522,,*>>>*#&$#*>>4*#$&$r,Xe",
"*O##*5@$*>,>$#*>&*,5,*&*&&522,r,&3<##*55&,###@#$&$&##rr552*$5$.q",
"$o&*5>#>>2,**>>>$&5r><#@@*,,$13@>#,2>&@>#>,$$$&22&#&*25,,2>&4@o7",
"@o&**@*>>232&$$$$@<r3&&&@++++#5*2252>>#&&,#*>52,>>>&#$&*>>>*$&o<",
"$.@&#$>,#*>5>*&&##&&$#@@@###***<&**&$@$>,<@>4*$$*>##@33*$&$#@$o,",
"#.&$$>3,@$*&>$*>,##$##*,*$&#+&*#+@##$*$#$$$,,>2<#$#$>*22<+$&#$.2",
"+.*&*<>&@@&*&&>2>#@*#>,5>>+$@2&@###*&$&>>$*$<2r52###,&$>2#**#*O2",
"@X$><*>>+@>#&#,2&#$>#>25,#+$>r$>>@$@#**>2<$$$&322#&,>&$>2@&@&>+3",
"#o$,5#>*@>>>*$$#$,&>&&-@+#&222#>$&@#>$*>2,#>@&>>#$*&3#>,>###$&O3",
"@O#33@#@$$$$&$$&>5$>,,@$&$<2>&#&&@@>>#>22>#>&+#@@@@@*>><+@&&$>O2",
"@o&52>&$$>,525>#*>,&,4@#&&$>>*$##&#>>&22>$$>>*$$$>*#+2&#*#$<*>X>",
"+O$2r,*$>22&*,2*&>*&2,@O+@*##$$&&##>>*@#++$*>>>&$>>>#*@**,3,>>o>",
"+O#&22$&,3>#&3>$&>$*$>Oo##$>&$>>>*#2*&@++$$##$>>#*>&#>&#@##$*#o2",
"@O***,$&>>$$2>$$>$&5>##@,*#*&*>*&&#<$$#>2,>>>&$**#***$&*#<,#O&o,",
"@.,&$4*$>>$&$#&,>#>52@,#3,$&*#*$*>@2,$>22>&#@#$#>*$##*$#@,5<*>.,",
"#.#@&$2*#$#@#*,2*#>,r+2$*,*@>>*@$$#>$*,,*$#&>>##**$##&$$#@435$.$",
"#.+@@+@@$>&$##$$$>&&*$#@&>*$#&&#$&$&>2$$,4##@&25*$$*#&>$@@+@@+.#",
"O.$$*#*&@*#$$$$$#$$&#&*&#>>@$$#*r2&$>3$$>$<&&$>><>$#$#*@&&#*$$.O",
"O.#$>#&$$$@#&&>>*#*&#>*$*>>@$#>>>5525*&*#$24>*>>,>>@#@#&$&#>$#.O",
"O.#&#@@$>>>&$@*&$$*$&@$&&$$&@#$&&&&$#&>>##>,5r5,$&>&@>>>$@@#&#.O",
"O.@5>*#*>>>>>$@#$&>>$&$&&&*>>$$&*&*&*>>>,#+@$#&>*@$&@>>>*#*>3@.O",
"O. ....ooXoXXooOOOOOO+O+O++@++oOOOOOO@@+++@+OoOoooOOOooXX..X. .O",
"O++++OoO+#$&***>*,777qqqq77171111010q000040444,,>>>>>$@+OOO++++O"
};
