/* XPM */
static char *result[] = {
/* columns rows colors chars-per-pixel */
"64 64 51 1 ",
"  c #040404",
". c #0B0B0B",
"X c #131313",
"o c #1B1B1B",
"O c #242424",
"+ c #2B2B2B",
"@ c #333333",
"# c #3D3B35",
"$ c #3D3D3B",
"% c #423D37",
"& c #423E3A",
"* c #3E423B",
"= c #44433D",
"- c #48473F",
"; c #444443",
": c #494743",
"> c #4B4B43",
", c #4B4B4A",
"< c #514E46",
"1 c #514F48",
"2 c #54534B",
"3 c #5A564E",
"4 c #5B594E",
"5 c #525251",
"6 c #5D5753",
"7 c #5C5B52",
"8 c #5E5958",
"9 c #635C54",
"0 c #655E5A",
"q c #646156",
"w c #686257",
"e c #65635A",
"r c #6A645B",
"t c #6D685E",
"y c #6C6766",
"u c #6C6860",
"i c #736E64",
"p c #757166",
"a c #76736A",
"s c #7A756C",
"d c #7A7A6D",
"f c #7D7C72",
"g c #817C74",
"h c #838276",
"j c #888174",
"k c #85837A",
"l c #8C867C",
"z c #8A8A7D",
"x c #938C7F",
"c c #8C8B83",
"v c #948D81",
/* pixels */
"5273222><<>>1:>,,>12>22><>-::;;=5372321<><<:<>>>1><2>22><>::;;:*",
"zipaaiaapiipppasspadaspppsputut-zipaapaapippppasfpssaspppppitut:",
"ktwwtutapttruerueuewqeewteeew0w&jtwrtutaaryyurueeueeqewwtewew9q*",
"ktwe98wuwe9w0e9weeweqqwe9q0wuuu&kwre96eue0880e909eeeqeww9e09uuu=",
"lt$###*###*#==$$###%#%$######ru;lu=#$$*#$$$$$$$$##*#########$tu;",
"lt#  ..XXXXX....... .        pt;xu#   .XXXXXX.X.... .        pu=",
"vu= .XooOOOoooooXoXXX..      at-xr# .XXooOOooooXoXXXX...     at:",
"vt#.XoO++@@@OO+OOOOoXoX...   au-vu#.XoO@@@@++O+OOOOoXoX...   su-",
"cy@.o+@@$=$$$@@++++OOOooX..  se-vi#.oO@@$;$$@@@@@++OOoooX..  ae-",
"cy;XO@@$::,;;$@@@@++OOOoo... fw-vt&XO@@;;,,;;$@@@@++OOOoo... f0-",
"cy;XO@$,,55,;;$$$@@+++Ooo... kw:vu&XO@$;,55,;;$$#@++++Ooo..  kw:",
"vy;XO@$,,55,;;$$@@@+++OooX.. kw:vt&oO@$;,55,;;;$#@@+++OOoXX. zw-",
"vt&XO@@;,,5;;$$@@@@+O+OooX.. cr>vt&XO+$;,,,;;;$@@@@+O+OooX.. cr>",
"vy%Xo+@;;,;$$$@@@++O+OoooX.. z9:vu%XO+@;;,;;;@@@@++OOOoooX.. z0-",
"vu%.oO@$$$;$@@@+++OOOoooo..  dw:vu&.oO+$$$$$@@++++OOOoooXX.  dw:",
"ly&.XO+@@@@@@++++OooooXXXX.  fw:lt%.XO+@@$@@@+++OOoOooXXX..  gw:",
"lt%.XoO+++@@@++O+OOooXoXX..  kt:lu=.XoO+@+@@+++++OOooXXX...  cu;",
"lu&.XoO+++++++++OOOOooXXX..  kw:xr&.XoO+++++++++OOOOoooX.X.  fw:",
"lu%.XooOO++O+OOOOOOoooXXX..  kw:lu&.XooOO++O+OOOOOoOXoXXX... h0-",
"lu&..XoOOOOOoOOOOooooXXX...  hq=lu$..XooOOOoOOoOOoooooXX...  k9-",
"cr&..XXooooooooooooXXXXX.. . k9-cu&..XXooooOoooooooXoXX...   h9-",
"lt% .X.XoXXXXXXooXXX..X...   kq-lt% .XXXXXXXXoXXoXXXX.X..    kq-",
"gu&  ....XX......X.....      kq=kr%  ..XX.X...X........ .    k9-",
"gi#   .... ..... ......      kw*gt%      ..... ........ .    kq=",
"gt%                          ae=lu%                 .        dw=",
"lt1gfdfffhgghfgfhffkffkgghgdfzr=gu2ffdfgfhhggfhfggdgffkggfgddzr$",
"gr00wuqeewreqeqqeew9w99999969eq-gwwwwr9q9eweqwqqweqqw9999q996ew-",
"s9q92w47c939474rwqeww9w8q9997ee*s0w72q76v777774treeww9w997997ee*",
"i972c4z7:<c5c7cqeeq7q99iu96e22e;i772c4z4:2c2c7cqeqq79q7iy97e23e;",
"s4e94>25c2q2211qee94777w826u>>e;s7e77>24c29222,qew77977w826u>>e=",
"dw779779>2w97wq7qq49e77226q>#17-dw779977:2qq9ee6qq79q772269<#16:",
"<--*=*===$;**==$*@*@**#$=$====&%<::*==*;=*=***$$##*@$*#$=$===*=*",
"2275242>><1>,>,,1><1>22<>>:,:::=537422,1,<<:<>>,<><<>22><>>:::;*",
"zppaauaapiiipaaydpsfaappappurur:zpaapiaaippippasfpsdsspppppurut:",
"ktwrtuuaatueutyyqureqwwrrwwee0w&htwrtutapey0uuuequeeeewwteeew9q*",
"kwww98wtww9eeq08qeqeqq9w9e00uuu&jwwr97euu08y0w6wqeweqqww9q00uiu=",
"lt=###=#*#%$$$$;##*#####$####tu=lu=#$*$%$$$$$$$$$#$##########uu;",
"xt#   .XXXXX.X..... .        pu;lu#    XXXX.X.X.... .        pu=",
"xu$ .XXOOOOoooooXoXXX....    ar-xt# .XoooOOooooXoXXXX...     at:",
"vu#.Xo+++@@++OOOOOOooXX..    su-vu#.Xo++@@@++O+OOOOooXX...   gu=",
"vt#.o++$$$$$@@@@+++OOOoXX..  sr-vi#.oO@@$;$$@@@@@++OOoooX..  au=",
"vt=XO+@;;,,,;$@@@@@+OOOoo..  fw-vt&XO@@;;,,;;$@@@@++OOOoo... d9:",
"vu&XO@;;,55,;;$$#@@+++OooX.. h0-vu=XO@$;,55,;;$$#@++++Ooo..  kw:",
"vu=XO@$;,55,,;$@@@@+++OooX.. zr:vt-XO@$;,55,;;;$#@@+++OOoXX. zw:",
"vt&XO+$;,,5;;$$@#+@+OOOooX.  ct:vt&XO+$;,,,;;;$@@@@+O+OooX.. cr>",
"vy&Xo+@;;,;;$$@@@++++OoooX.. kw-vu&XO+@;;,;;$@@@@++OOOoooX.. z0-",
"vy$.oO@$;$$$@@@+++OOOoOoXX.. dw:vu%.oO+$$$$$@@@+++OOOoooXX.  dw:",
"lt$.oo+@@@@@@+++OOooooXXX..  fw:lt%.XO+@@$@@@+++OOoOooXXX..  gw:",
"lt&.XoO+++@@+++++OOooooX...  kt:lu=.XoO+@+@@+++++OOooXoX...  cu;",
"lu%.XoO+++++++++OOOoooXXX..  kw:lt&.XoO+++++++++OOOOooXX.X.  fw:",
"lu&.XoOO++OO+OOOOOOoooXXXX.  hq-xt$.XooOO++O+OOOOOoOoXXXX... h0-",
"lu&..XooOOOOOoOOOoooXXXX...  h9-lt$..XooOOOoOOoOOoooooXX...  k9-",
"vy&..XXoooooooooooooXXXX..   k9-cu%..XooooooooooooooXXX.X.   h9-",
"lr% ..XXXXoXXXXXoXX..X...    lq-lt%  XXXXoXXXoXXoXXXX.X..    kq-",
"gu%  ...X..X...XX.X......    k9-gu%  ..XXXX.X.XX........     k9-",
"lt%    ... ....... ....      kq*lu#      . . .  ......       jq=",
"ku#                          ae=gi#                 .        dw=",
"gu2fffffgghggfgfghggfhhggggddcr*gu2ffdfgfhghgfgfgjdgffhggggddzr$",
"gweeweqq9wrwqwqweeqqw99999949q9-gwwwwe9wqwwwqwqweeq9w9999q996ew-",
"swq75q64v778474twqweqqw7q79qeq0;s0w75q76c748774treeww9w9e7999ee*",
"i973c4k7:2c2c7c7eqq79q6py93e22w*p782c4z4>1c2c7cqwq9qq97py97e22e;",
"s3e94>44c272222qeq87987e826u>:e:a4e77>27c2e2251qqe77977w826u>>e;",
"dw679979:2e09eq7qq79q84223q2#<4-dw479779:2qq9qe6qq77q862239<#17-",
"<-:*==$==*=*****###@$*#$=$======1::*-=*==*****$$##*@$*#$=*===*=$"
};
