/* XPM */
static char *result[] = {
/* columns rows colors chars-per-pixel */
"64 64 181 2 ",
"   c #497230",
".  c #496A28",
"X  c #496A30",
"o  c #597B39",
"O  c #598341",
"+  c #598C41",
"@  c #497B30",
"#  c #417B28",
"$  c #418330",
"%  c #498C30",
"&  c #499330",
"*  c #418C28",
"=  c #599349",
"-  c #599341",
";  c #418328",
":  c #418321",
">  c #397B21",
",  c #397228",
"<  c #598C49",
"1  c #497B39",
"2  c #416A28",
"3  c #498C21",
"4  c #418318",
"5  c #417221",
"6  c #417B21",
"7  c #498330",
"8  c #598C39",
"9  c #498328",
"0  c #418C21",
"q  c #418C18",
"w  c #6A9C51",
"e  c #417228",
"r  c #416A21",
"t  c #497B28",
"y  c #517B30",
"u  c #638C49",
"i  c #497228",
"p  c #518339",
"a  c #517B39",
"s  c #597B30",
"d  c #598339",
"f  c #638349",
"g  c #417B30",
"h  c #519339",
"j  c #499C30",
"k  c #396A21",
"l  c #6A9359",
"z  c #417B18",
"x  c #497B21",
"c  c #518330",
"v  c #397B18",
"b  c #598349",
"n  c #396321",
"m  c #7B9C63",
"M  c #597B41",
"N  c #497221",
"B  c #637B41",
"V  c #6A8C51",
"C  c #397221",
"Z  c #498C28",
"A  c #519C39",
"S  c #419321",
"D  c #729C59",
"F  c #397218",
"G  c #498318",
"H  c #729359",
"J  c #517230",
"K  c #638341",
"L  c #637B49",
"P  c #416A30",
"I  c #518C41",
"U  c #518C39",
"Y  c #397B28",
"T  c #638C41",
"R  c #499321",
"E  c #499328",
"W  c #499C28",
"Q  c #417218",
"!  c #729363",
"~  c #638C51",
"^  c #639349",
"/  c #599C41",
"(  c #498321",
")  c #517239",
"_  c #497239",
"`  c #518C30",
"'  c #6A8C59",
"]  c #517B41",
"[  c #498339",
"{  c #419328",
"}  c #6A8C49",
"|  c #498C39",
" . c #83B56A",
".. c #519330",
"X. c #516A30",
"o. c #519C28",
"O. c #396A28",
"+. c #306318",
"@. c #306A18",
"#. c #417230",
"$. c #599339",
"%. c #6A9351",
"&. c #499339",
"*. c #307B21",
"=. c #519341",
"-. c #307221",
";. c #419330",
":. c #398328",
">. c #518341",
",. c #598330",
"<. c #519C30",
"1. c #639C49",
"2. c #417B39",
"3. c #306A21",
"4. c #418339",
"5. c #518328",
"6. c #599C39",
"7. c #398330",
"8. c #418C39",
"9. c #418C30",
"0. c #419C30",
"q. c #639C59",
"w. c #639C41",
"e. c #307B28",
"r. c #498341",
"t. c #498C41",
"y. c #6A9C59",
"u. c #729C63",
"i. c #518C49",
"p. c #396A18",
"a. c #639351",
"s. c #416A18",
"d. c #398321",
"f. c #639C51",
"g. c #396318",
"h. c #398C21",
"j. c #6AA551",
"k. c #599C49",
"l. c #516A39",
"z. c #419C21",
"x. c #49A521",
"c. c #7BAD6A",
"v. c #416328",
"b. c #496328",
"n. c #638351",
"m. c #597B49",
"M. c #496A39",
"N. c #597241",
"B. c #39630F",
"V. c #519328",
"C. c #59A541",
"Z. c #51A530",
"A. c #395918",
"S. c #59A530",
"D. c #398318",
"F. c #59A539",
"G. c #286A18",
"H. c #6A9349",
"J. c #416321",
"K. c #496A21",
"L. c #307218",
"P. c #7BA56A",
"I. c #306321",
"U. c #72A563",
"Y. c #396328",
"T. c #307B18",
"R. c #306A0F",
"E. c #728C59",
"W. c #30720F",
"Q. c #639341",
"!. c #63A541",
"~. c #6A9C63",
"^. c #287B18",
"/. c #418341",
"(. c #639359",
"). c #419339",
"_. c #305918",
"`. c #51A539",
"'. c #499C39",
"]. c #72A559",
"[. c white",
/* pixels */
"    . X     o O + @ # # $ % % & * $ $ = - % # # ; : > , @ < 1 2 3 4 5 6 6 : 6 7 8 8 9 : : 4 0 0 3 q 6 6 7 w e r t y O u 1 i p O ",
"X a X 2 r t s d O f O g , # g ; * ; $ ; 7 h j ; # # 0 6 k a l p 0 3 z 5 6 x 6 t p 8 c x 6 6 z z z z v 4 z y O r y o b   r n k r ",
"  m M n r N s O M B V M @ g # C # Z 7 7 $ 7 % A 7 @ # S > 2 < D : 6 6 C 5 5 6 C 5 5 C 6 6 6 6 6 F F F 4 G 6 H . J K L u   P 2 2 ",
"a f M r r 5 t o M M L V M @ i e 5 # 7 7 I U 7 % h U   * 0 Y t 7 : : + T 5 C 6 6 6 > 6 : R E W W 0 F 5 Q z Q i M . M O ! a @ l O ",
"M H M 2 5 5 5 y O 8   M ~ b a t # 6 : U ^ ^ U 7 % U p e 0 0 # : Z Z / ^ p 5 k : : : : S 0 0 6 6 9 i @ y z ( Z o )   a M a r 2   ",
"_ a P 5 C C r X o ` 9 i M ' ] i 6 x # @ O + I c [ 7 O @ : { : 6 ; * ` % 9 ; k C > 0 S E 6 6 k 5 c d y } i ( E E V 9 i X   @ e e ",
"M   e # > 6 5 e ` o : Z   f V   6 ( ( 9 c p p 7 | U < u e : 0 > : R E E 0 E 7 ^ ; * E W 0 > k k y u M B f r : E 9 7 t @ a a ] O ",
"~ ]   e > * : 5 c d 7 0 : ) m ) t ( ( R Z 9 t 7 @ 7 + u 7 # * : { S E 0 S W h  .U ; ..Z * ; > k 2 O f M X.r 5 t o.Z 6 k k r 2 1 ",
"  V ] g k : ; 6 @ ` O : > 2 M u @ ( ( 3 E E E 9 9 7 p U [ # # ; 0 0 E 3 { E h / % # 7 % ; > : > O.  f ) k k C # 9 9 C +.@.@.k k ",
"e O ' ] #.# Z Z t ` $.c > > 9 V %.c N 3 3 3 E W Z c p p U 7 ; # ; * Z 3 R 0 & A &.I [ 7 ; C C C   #._ #.e Y *.C > Z : @.k C 6 e ",
"#.] b _ a 1 7 7 ; @ ..U : 6 : 9 O o 7 * : : : 3 Z E ..+ + p 7 7 9 * : E 0 S % U A =.b @ % Z , @ < #.-.# ;.:.Y -., C ; * 6 6 # # ",
"1 f _ #.1 1 >.U 7 t ..U ,.: 6 0 Z # 0 : 6 6 6 : Z * Z <.1.^ U U Z E ; : S { ; =.&.&.g 2.g 7 # 1 >.3.> { { ;.:.4.< >.Y % % 9 9 # ",
"  l 2 k 1 p < u 7 7 ` 5.y t 6 : 5 6 6 k k t @ 7 ; : 9 9 6.<.h ..& Z * 6 : { * 4.&.;.:.Y g g # >.>.3.W { 7.| &.&.h ^ @ # # 5 C C ",
"1 b O.5 @ + u >.@ # 9 7 @ y 6 # 5 5 e 5   a a y t # ; Z Z % % h <.W E % # S * :.8.9.0.:.Y # g I [ Y W Y $ q.=.& & / 8 # k 5 5 k ",
"M O t p < # @ # # 5 e 9 i y o O O $.w.O a @ 2 r r 5 6 Z # ; Z ..& ` E ; p ; { :.g :.7.7.e.Y g r.#.# W ; ^ w 7 7 7 w w # F 6 e e ",
"e   # + + ; : : ; 0 ; 3 : @ d } d 6 F 6 6 6 6 5 F 5 k 6 6 5 6 E o.Z ; > # [ E * :.$ t.= r.$ 7 [ g ; E [ = ; ; 7 [ - ^ e C 6 # 5 ",
"r k C e # # # > 0 0 : Z 3 : 5 6 6 : : : : : : 0 0 0 0 6 : 0 W E E & ; # > > % E 7.$ y.u.i.| | 2.g & E I [ ; ; ; Z 7 p 7 5 6 6 5 ",
"5 C C 6 > 6 p C : 0 : : 6 : : : : : z p.p.5 > 6 : 0 E R W E E o.W W % [ [ C ; E % a.= i.i.>.t.g g Z E h $ ; ; & 7 6 : 7 p k C k ",
"6 6 6 : : > @ a : 0 ( 6 5 z Q s.s.r r e @ a # : : : S E 3 E Z Z 9 S ; - I # C % % ^ = | U r.[ $ # 0 E & # d.E p < 7 : ; c O k 6 ",
"; Z 9 : 0 : 6 p e : 6 r 6 5 r J o J X r 2   1 9 9 6 : : : ( 6 6 Z : 0 0 # >.1 7 % | f.[ g g [ 1 ; ; & E > * ; , O y.% : ; 7 @ # ",
"` Z 9 # ; 0 : t @ 6 r r   y M L ) X k g.+.2 @ 9 Z # : 6 6 6 5 6 : ; 0 0 h.# >.1 7 &.h =.U g g g # * E W * E 0 > e < O 7 9 7 c p ",
"1.- U p t 6 : 0 % e 2 t X e X i 2 r 6 : 5 P a ; :   t 6 6 t ; 6 5 5 e > 0 d.# a ] @ U h f.- 1 1 g ; Z * d.d.:.> Y @ 1 [ ^ h 7 U ",
"% ` p 7 @ # d.6 : %.e t 7 2 e ; Z Z Z t   1 y 0 # e @ # e : E E : k # k > 0 0 > 7 >.1 7 h j.k.I I # : * d.:.d.Y # O., @ u ^ % ; ",
"Z Z 9 9 7 7 @ * 6 # 7 # Z # ; t 7 p l.2 i t Z Z t   @ t i E E R ; # 5 # C d.z.S 0 % I @ ; U j.w f.7 C d.d.:.> > Y e #.g u a ; * ",
"Z Z 9 c p + + % % % 5 C 6 5 t y O L . r % t @ c       i Z E Z 2   9 p 7 > v h.z.x.W * =.U | = c.y.1 k Y ; # g e # #.< >.b   5 ; ",
"t 9 9 @ O < $.` @ 9 9 k k r t X.X.X v.2 r ) V u M   r Z E 9 i 1 c 9 + p 6 C C > 0 z.z.E E E 7 # g @ e C C # [ < a @ >.[ g e r 5 ",
"e 6 6 e @ >.p   i   i i X J b.v.. i t @   a O a a a 9 Z 9 i d U ..E p p @ @ w + ; d.S 0 0 { E ; # 9 - @ k , #.] u p c ` 7 # # e ",
"e e r 5 t 7 t e e   y B K ) r r 9 % ` h c @ @ @ y y Z # a n.u U t 9 Z i t   @ @ U U * * Z & - [ e # 7 7 # J ] O P t 9 9 # # # e ",
"2 5 6 : 0 R Z 6 6 t y d o i 5 9 % ..<.$.7 7 h c @ @ e ] m.m.m.y t 9 9 ; t t t t 9 % h ..& ..U I < >.C > 6 2 M.m   5 ( 3 6 5 C k ",
"n 6 : : 0 0 3 0 # t i .   2 # Z <.- $.<.% ..7 i 2 P M V N.P a c Z & E 3 0 Z 6 6 9 : E j | h &.&.=.< @ C k i v.N.f 2 6 3 : 6 k g.",
"g.s.p.F : 6 6 ( Z 6 5 6 5 6 9 ../ 1.6.<.Z E t e   b O 7 k e ..% t # ; 0 W W S 0 6 0 W & I y.=.& & / 7 5 k i i ) f V @ 6 : 5 p.g.",
"g.g.p.B.z 6 x ` V.9 9 ( E E Z - w C.Z.c Z Z C e a l U C ; ; 3.2 #.#.# > 0 z.S 0 0 : E 9.= 1.% % % ^ - C k # 2 . ) M a @ 0 6 p.A.",
"k s.s.Q N 5.8 d 8 $.....o.` p w ^ S.Z.@ # 6 C F > % ; Y ; Y C , 1 @ a a k > d.d.D.0 0 % - % * Z ..>.O C F 5 2 2 . . i e 7 7 e n ",
"6 > Q z x 5.T u ^ %.- c a @ + + + F.Z.p 6 C : 0 @.G.> Y =.% * ; * Z p u @ @ # : d.D.d.; 7 > # ; # Z 5 r k 6 # 9 e e r # # | # 6 ",
"; 6 z 6 6 t c T %.D H.+ U ` p a O y.S.- 7 # 7 Z : : > g ..% : : S S % ^ l a p 9 : > > 6 e C # @ 9 6 r i @ t 7 % Z ; # # g % % Z ",
"- t C Q 5 t @ + ^ %.a.a.+ O O @ >.%.A C.1.c 9 Z Z R Z Z E R 0 d.0 S 0 E c 1 @ 1 ; 6 r k k C e # @ v.X M M O a 7 | & & * 9.7 | - ",
"h 9 6 6 c U + u + + U | 7 I + + 8 < U h / h 9 : : : R E : 6 R : v 0 d.0 : > e e i 2 e 5 6 6 2 9 v.l.n.m.a a a O I | ..& E & % h ",
"0 0 6 9 U ^ w + c 7 7 ; $ % / / U - A A ..% ; > 6 > : x t 5 Q F > v 0 h.h.0 > 5   @ t 6 : 6 n J.X M N.l.M.) ) ] O + =.& E S { E ",
"{ 0 d.6 7 7 + 7 7 7 7 $ % & ; 7 & ..h h % ; 6 v > v 6 6 i M . K.r p.z D.D.d.d.: : : : : 0 6 6 6 6 t t 2 v.2 P a O >.U U * 0 S { ",
"S { > 6 7 - ^ p >.^ I % & ; > 7 I - = = + @ 3.G.L.C v > : r ) K s s i 6 L.> D.> > : 6 : : : 0 : : : * 9 g e P _ ] O p # > C > d.",
"; ; ; 9 [ w %.>.< y.= % * ; 1 P.U [ 1.^ + < y.] k @.-.6 C I.n 2 a a o ,.C k > > C F > : : 0 * 0 * Z 0 % ..U 7 7 O < p e # # @ 7 ",
"8 7 Z ` U + u p p < 1 g | 7 1 l @ # - ^ I U a.y.O #.# # # ]   #.2 2 5 i r k   @ 2 n p.F : : : E 0 0 6 # % - - % 7 + ~ #.@ 7 p 8 ",
"+ ` ` % % 7 ` 7 [ #.@ h h 7 [ < # # [ f.+ I U.f.[ # ; 7 1 ] #.@ g e 6 5 r r k _ M X n @.C > : : ; 6 > 3.O.p U Z E E 7 1 1 @ a + ",
"U ` 9 6 6 : 7 [ 7 O.[ U | # 1 a 3.-.@ ^ I [ ^ & 7 g @ % p _ P #.@ Z % 9 6 5 s.n M.' X n @.> : : # # 6 > C > 6 : E E S : e # a 8 ",
"6 : 6 t x p - >.  e e # ; # I 1 Y > 7 a.= U h E #.O.@ % ..]   P e 6 : Z & 9 6 5 Y.X f 2 g.> > > e O.k # > > > v d.0 0 : : 6 6 6 ",
"z 6 t d %.D a 2 O.e g % % | h & * ; 7 I | 9.& Z g O.  a % ..p ] _ 2 5 6 ; Z % 9 5 P M ) Y.p.> > e 2 k C : 6 > > T.R.@.6 ; # 5 z ",
"5 t d d @ E % # ; % ..A A F.F.Z.Z.o.W E R E { * $ ] P _ p % % % p ] @   t t E E 9 5 ) n.m.2 @.C C O.1 O.> : > > v -.k #.p @ 5 6 ",
"F Q r 6 Z <.h % % 7 % ` h A ..- h ....& E E E E & + %.  e c ` & W ..7 #   @ y 7 Z #   f E.n.X k C C e O g # ; 6 e e e k n F p.z ",
"R.@.9 9 % ..- $.h ; : E W W W W o.<.A U 7 g $ Z E E % + a # 7 c ` % Z Z #   p a 7 9 2 M E.! ! b 2 n k   u >.y p 7 >.] 2 k p.W.W.",
"5 p + # 7 1.1.$.U ; 0 0 * Z * * E E E E ..+ ' n.[ E { 9 a.O 1 @ p c 9 Z : e   a $...2 ) ! n.] X X _ ) ] O u U c [ y a   e 5 ; 9 ",
"@ Q.7 # U w / 6.h E { * ; % : : ; ; 7 U % % < l l ] 9 { % u O a @ @ # ; 9 6 1 ] V T   X f L X 2 Y.P M f f O 7 t t # e @   e t t ",
"t 7 e @ & * ..!.h E { E & j.^ 7 7 [ + [ g $ [ >.b V O @ i @ t 7 7 @ 2 # e k e O u w V a ) ]     P ] M M.M.X t 5 k r p.k a a i i ",
"@ @ @ ~ Z # E <.& d.<.j W E h >.< y.~.i.4.r.r.] #.1 u ~ + y t t 9 @ e @ @ @ 1 O b u %.d X 2 v.P m.V _ Y.2 e 6 ; * C k 5 e f m.J ",
"f a O O @ > h & 6.d.^.E j E E * 9.&.8.r.4./.i.(.1 #.  >.M 1 2 5 5 k k P   a >.O ~ f d @ e   2 m.O @ k 5 E * ; > 6 C C > #   V ! ",
"f u.V a #.e h ..<.F.> ^.; Z % & j & &.;.).).&.&.| ; @ t 1 a r n p.+._.v.n   1 @ 1 a 7 # k e 1 l [ k : E > , # P 3.3.C C k n 2   ",
"e   ~ b #.#.+ % E j A { T.$ g $ $ 9.& &.`.j '.;.&.j ......t 5 p.5 6 C # 6 k C C C > : * : L.6 % ; > * > O.$ 2.2.O.e >.[ e k 5 5 ",
"6 ; 1 H u p + U Z E W ..% [ < r.g $ $ % & 7 [ >.[ 7 7 7 7 Z Z Z E 0 : # ; C v : : 0 0 0 E { T.G.-.* | I [ $ U f.| $ = y.[ g e C ",
"; 9 [ u.%.p U U 7 % E E * ; + c.= = = [ + y.%.H.O O p p y @ t 9 # e # @ g 0 : L.v > L.L.T.0 : d.: g < f.| ; 9.9.| 7 I I [ [ p g ",
"^ | p a.~ [ 7 7 % U | Z { { ; [ y.c.a.< ].^ @ t @ @ @ @ @ y         1   g : d.v > k 3.@.L.> d.> $ 1 >.7 $ ; * * 7 >.I I 7 7 + u.",
"U 7 7 [ 7 7 9 ; ; 7 I = | E E * $ [ [ p w p 6 ; @ e 5 6 9 Z t 1 ] ] >.@ Y d.d.: d.# >.O O.L.> > # [ [ | % | % * $ [ 1 [ 7 9 # [ ",
"9.* * ; ; % & &.& % % [ ^ = * * * E Z % = U * 7 O @ #.e 6 6 : t   @ ] 1 g ; : { { E & ` U @ 3.C # [ [ 7 7 U | % ; Y C ; 7 % Z Z ",
"Z ; 9 7 Z Z 9.% & & & % 9.[ < I 7 * * { % U 7 U + % Z @ e n p.; 6 k # ] ^ U ; 0 S E W & E Y # , O.e e , O.e # : 0 d.: ; ; ; Z % ",
"# 7 [ p @ @ # ; ; 9.% &.h % $ I ^ = % ; % h U U ..E % | >.@ I.k @.@.6 , g I 7 6 6 : : 0 W 0 : 6 C e 1   #.e C : 0 : > > C C g # ",
"u p a a a a a e C > ; % &.j & % $ 7 1.U % U 7 Z E * ; @ >.] 2 n @.p.# 5 C 5 # # # 6 6 4 0 R 0 0 4 C @ ^ u.a C : : C k 2 @ a %.%."
};
