/* XPM */
static char *result[] = {
/* columns rows colors chars-per-pixel */
"64 64 45 1 ",
"  c #0E0504",
". c #0F0804",
"X c #120606",
"o c #150806",
"O c #190907",
"+ c #160908",
"@ c #1C0B09",
"# c #230E0B",
"$ c #290F0D",
"% c #26100D",
"& c #2C110E",
"* c #32130F",
"= c #2E1210",
"- c #341411",
"; c #3B1613",
": c #371811",
"> c #3D1814",
", c #411714",
"< c #431A16",
"1 c #4A1C17",
"2 c #461B18",
"3 c #4C1D19",
"4 c #521E1A",
"5 c #4E201A",
"6 c #54211B",
"7 c #5B231D",
"8 c #62251F",
"9 c #68281F",
"0 c #5E2520",
"q c #642621",
"w c #692722",
"e c #662822",
"r c #6C2A23",
"t c #732C25",
"y c #792D26",
"u c #742D28",
"i c #7A2F29",
"p c #7B3027",
"a c #76312B",
"s c #7C3128",
"d c #83332B",
"f c #8B352D",
"g c #89382E",
"h c #933931",
"j c #9E3E35",
/* pixels */
"-$#@@@@#@@@#-2441232,32,&&*$$@$$$=##OooX  X++%-%%&&->33tt4,11556",
"2>&#@@#@++##$--;***;*,-*#@##$#$#$#@@+XoXX  XX#&-&*&%;323t7622775",
"61*&$@#@O##@$$-*#@$#$&$$#OO#@##@+++XX  XX. X+%%-%$&-,6=;tp977376",
"y0<,-@#*##@####$#@%#@@##@OO@##+@++o+XXXoo+XXoO#%$#&-,;%;738dt69t",
"r6,;-##-$%#$$$--&%%%##%%@@@##@#+o#####@@O+X  XO#$O#%;*-177688777",
"7<;,,%@###*:2wr4<;*,2;&%@@@@@@@#@#&--$&#O+@@ oo$$#%&&*>4pt26r757",
"4>;>>%@@$*<27yt,;;<51>:%##@@#+@#$$&;**-$$$%$OooO$*$;;->9y831a668",
"<>;->=+@*,37974-<587<2*&$$$@@@@@@=-<<21;--&%#Ooo##$*;-,8993<r667",
"4<;;;$@@-,5r73><rt6>=:;;-*$#@@OO#$;42>,261-%O#oXo@#---<78q7247q8",
"t011;#O@*<552640rq5:->1,;*#@##@@$=-12118dr1%##@Ooo#$%>0eydqq8448",
"86673#Xo%-1><6qr71>%$-;-&%$#@@##&--,167qss4;##OOoo+@%26qdy8q8q37",
"4,373%@o&1<>->qq6-**$--&%#@OoO#&&><2,q843802<%##+XXo@*>17erqqt7q",
"8611:=Oo%:-;,<52-$&%&=*$#@##@O@&&<786tr6,6q3>&##@.   #;>;qut7q7r",
"766,-$@X@#=<222&$#$#$$##@@@##@#;;<8e7auq832,*-*@@    @--;66rfyr7",
"53<>-@+o+O%>-:=@@#O#@##@@##$#@&;>>368yrr72;*;**#oo Xo@#=;>:6tyyw",
"6>>1=@oXo@&>2*#O+@O@@$$##$###@$**,;><7rr3,*;,;*%#@oooX@#$$-;,ryt",
"6,>,-#o X@$,;=+o@%##%>*&***#O@@#$-;;:3r7,>>><>$$$##+oX+#=-24<qww",
"a2:>-@X X@###@o+###$*;;-;<;&@#o#--<<<6w7>-66<<::%#%#@o++##-<24qf",
"q>>,;@X Xo+@@ooOO@$&;<*&<432:#@@-<42,3e6<<303,>:-%-#@X+ +#$-,24i",
"1>;:$@XXXXX@@ X@#@;>13>;33177&@@#><<<37122:>,2,:-;$@++o++#;322q4",
",,2-&@OooOooX OX@&,19422,2366;%@@=;,4rr32,*&,5>;3<-$@@++o#;<3<26",
"62;&$#@+O@oX XXX#;,3t7<3444::*##@$-;4r7,*>>23,2>1>--%@o+O@#:<><3",
"5<:%%#OOoXX   o#;423478w9w2*#*%##@#-,73;-;<74463<$:;%+o+OO@*;>36",
"5;%#%%O+@o@oX XO*7<<17tdr31,*$%#%@#%>2>>47530qr0<*&-#+XoXo#&*;<3",
"3%@@#@O@#@OOX XO$>;,<3qq4474>*%@%%#*<>>:7943wtq<*%&&#Oo@Xo@%%-;2",
"=+ +Xoo@@#+O#XX#->-4153078rw71-%#@##>5:,8873773<-#$-$+@@Xo@O@=->",
"#X XXoO@@%OO#o+$2;-*>16tr68re02%@oO@;4<;1784,><2>&#%$#&$Xo@XO#&;",
"%+XXo@%%%%%@@o@>242-676e04esrq7;@Ooo#:,<;113,;>>;-#=-&-#oo++@###",
"oo+O@=&%%%#@++o-34737qr746teetr6$Ooo@@&*;<142***-=&--*$@oo@@@@#@",
"@@@#%=#$&&$+  +-125767rtuqr78tr1*@oO#OO#*:*;:;&$$%->;-#O+Oo@OoO#",
"=&&*%-#&-;$+XX@;2,,136qrue7477r1;#OoOoO@##@#*<$$$&---#@@+OoOoOo#",
"&=&->-%%%-%@o +%--;36420u83143r3*&#Ooo######$###$%$#@@O+Ooo@O##$",
"<**,3*$$@@#@@+o#=->54>:1qqqq7483,&*#@OO@###$#@#@o@##@@++oo+@#=;>",
"2;#,2*%-=#@@@@X@==;30<><448r9rt7*&&###%#$%%####@O@@O++oooo@@$=>>",
"<3*22-*-:=#@@@+@&-;2031344347yf7*&#%#@#@#**;>;$#@@%O+o o o@%$-><",
"<2187<;;-==%@@@@$;><365643>;2891*&@#OO@@%;-;23*$%%%@o+   +@=-,22",
",378w021-=-=#@++$>,34434<,<<<56,*$######,<*$$;*&%=@oo.  Xo#&-264",
"39w4usq3--=-#@o+$<>68363>;>2111*%&#@##*;3;##-*&%##+ o oooO@%-477",
"7rt7tiq3;-%-$@Xo*2><rw422,,,<<1&@%#$*:>63;->2*#@++  .++oo@#-;367",
"88846ww4<:--%++@$>><087774;2<,*@o@#*>*:12;24;$##@o   . +@$;-*27t",
"974746d832>2%Oo@$-;<<30rr7433;#OO.@#-23,*;5<&#&*@o  ooO+#-;;;<3w",
"d77q64di7634%O@o#$::--60r413<#OO@o$*>7e2<2>##%$&@ooX@#$$&*242,4t",
"97778wdhd621%@@+@$$$#=:<2;--#@@@$$&:6r6,**$O#*;*@+oX#&$=*-274;<8",
"8978rrtyy2,2*%@@+@$$$=2<,-&#@@@#&&&<qt;-;*##$*-#+X+@$%#=$7788448",
"rftqtrft622*:%@#@O$-->23;%#@@@#$$&<7y922&#@$$*#O   @$=;;;2;3747q",
"4dftwrjt72*-$%@@O@#=$--;&##@@$%$&*59t9rq%@$$**O    #-;<<7224rr97",
"0ddrqwdwq32,--#@@#$%$%*##@@@@&*&*,99rtyt%#&<4&OoXXX@*-*476349784",
"rdr00wiw77>--=%@+@%@$$$#@OoO@$$*;7dt9ia3*#&23#oooX+$%>;;45214788",
"qqq88rr673*%%-%@o@$@#$%@@@oO%&**>3iu7w7;->-2-o. X++@=;**;;<36rey",
"44ry87r32;;&*--#oO##@@O@O+O=&-2:<4tr42>;;q6;#X .X@X+@%&&-;322688",
"2,7777rq41;%&-$+X o@@@@@@#%-*>5<0qer2134371%OX .oooo@@@$*-,*#&>7",
",>,436887<-#%=@+o Xo #@@@=:,>>2<436r0>-27q-@XX.o@o+#%@@%%&-;*#&2",
";;:276662-&&&#X X  Oo@@##$253222,6rq2-*18>@+Oo.O@+&2;@@%%&*->>2;",
"-;-213<2,-$##+XX XXO@@%@@;11,;,<,7e>>24t7=#+ooo@++$-$@OoO@%-*>22",
"--&2>;*-;=$#@o+@O@O##@##$-22;&><;-=%<447,$oo@@@@#$$$#@O XX@%%**:",
"%-;,>;**%$=$+oO%#@@####@#*;,;;<32&#-304;$@XX+@+@#$*#$$&#o X#%-*-",
"&*-;---=%$#Oo@###O#:%%#O@$;21<:<,-*4t7;%#OXOoX+o#*&*-*--@Xo+#$-;",
"&%$&,>-%#+XoOOo@$**<;*#@##&:;;*%2q667,*%@OoXoo+@%;<,$$%;$@+@#$;;",
"%=*;>-%$+oXX@###*:,<21*$###%*$%&27q62;-&%@oXo+@&%-62-%=>-#@+++##",
"@=-;-$@oXoo@#$*;:*13372<*#@##%*,36q72;-%@@@OO@*>-->2--,>--@@oooo",
"o@%-$@o X@#$*--,4;3<;2qw3%##@#;73<6<&#%#@@Ooo$*<<;,3,;1>---&O+X ",
"XoO@@oX @#$=-,127;21*,rr3&#@#@#;1<*%##@o@OoXX$;,2;*;2qr6>>2,=@oX",
"+.Xo+XX+@@#=-5q5<674:2942-##@@@##&#@#$#Oo@oOO&;**;&*:0tt7186>##+",
"#+ o+X+@@@#-<1653wtt7773-$####@#@@@o##@OXXo#@&:$;,;*27rrt1242>>="
};
