/* XPM */
static char *result[] = {
/* columns rows colors chars-per-pixel */
"64 64 27 1 ",
"  c #280E00",
". c #160A0A",
"X c gray3",
"o c #522B0E",
"O c #391A07",
"+ c #3D1A0B",
"@ c #301000",
"# c #210F0F",
"$ c black",
"% c #54281C",
"& c #442104",
"* c #4C2014",
"= c #2E160A",
"- c #401810",
"; c #281600",
": c #381C18",
"> c #3A160E",
", c #3D1F1B",
"< c #481C08",
"1 c #2C1414",
"2 c #101010",
"3 c #080810",
"4 c #171719",
"5 c #392607",
"6 c #181818",
"7 c #282828",
"8 c white",
/* pixels */
" ...X.X.............   X.....XX..XXXXXX.X.. XXXXXXXXXXXXX.X     ",
"oOOO++++++++@       . ..XXXXX  #####X.....#.#..    ........ @@ $",
"%o&**+&&&&&&&&&&==#.. &&&--&;OO:>>>,#:O===&++=@@@@@+OO@OO@@++@ $",
"+O&O=OO&&*o-OO---+++=O@@O@@@@@@#>===-++++++++++++OO=@@===OOO++++",
"<<<&oo&+&&========OO++++-+OO===,O@@@==-O+-+++OOOOOOO++O&OOO<<<:<",
"=OO@@@-<-=O======@=O=@@@@@@@@@=@@&@@@@O<O&+O-&===O++OO=====:::&+",
"@@@@@@OO=@++O+O---+-+++=@@@@=1===O&&O=+OOOOO==@@@@@@@==O@O@=OOO&",
"2223333333333333333333333333333333333333333333333333333333333333",
"222222XXXXXXXXX222222222222XXXXXXXX22222222233333333333333333333",
"222 22222222222222222 2222222@@42XX233334@333        333332     ",
"44@@@@@422@2444222 22222XX222444222X2222           2222        2",
"@@44@44422224444422444222222222222@422XXX2444442222222 2 22 2222",
"442442224XX22222222222244444@444@2XXXXX222422222222444@O@@2@@4@@",
":=1:::::::444444444442244@@OO@@@4444@@@44444@@@@44@@@@@@O@@@@@@@",
"->1:+&+@+@==@==O&&-O=+++&+++<+OOO&<<<<OOOO++&+=O@@@O@@@=++&===&+",
"ooo+&&+&&&+&+-&+====@O++++O&&&OOoo&&&OOOO=OOO&&O@@@@&&&+&&++++-o",
"&&+++==++-------@@@O5+o&@@OOOOOO<&O<<<<+OOO&&&&++==@@OOOOOO++O:+",
"===###==&-++++&&OOOOOOOOO&&<&OOO@O++++&O&&O&&=O======OOOO&&&OO@=",
"+++++++++&o&&+==O=OO&&O+<&&oO<<&&&&O&&&<OO@&O=@@@@=@@O@OOOOOO&&+",
"&&&=++===+++++==OOOOOO&&<<&<&OOOOOOO&&&&<++o<oO+++&&&OOOOOO&->+&",
"++++o&o+=&&&&--+&&&@OO+OOO&OO+&@@==+=+&++o@+++<oo<+++O&&O+<&<&&+",
"+--&&--&o++-++--OOO&<O&+OO&&&&&&&&-&-<<&+-&&++++O@==OOOO&&<<::==",
"+@+@=6=@@@=+++=@=+=@@@@+O++@@&;;#=++++1-*@@@@@@@@@+&&@OO+OOOOOOO",
"..;;    2222222    2222222.==;...X#     #2222222222;;==;==;;= 22",
"XXXX.............#.#..#####......X.....XX.........#..#.....22222",
"#===#=+=--=+++++&o+4+&--==++++++=+o&&&oo&o&&&o&-=+++++&o&--===##",
"+-+===#++++++++++++=+++++-----+++#====++&-+++-+&-+=7==========+=",
"o&&+==++===-----+======++++=++=+++++++===+==---+O++++++++o+-o-+&",
"+++++--++----&&ooooooo&&&-+++==+++++=====#===-+-+++O++++++#----+",
"===++-====+++=+++---&--++========##======+++=-O&+O-&+=====++++==",
"=:11O+===::::::>::&:==# 666===@@@@@===@=@@=OOOO1=@@@==@@@@@@@@@=",
"222@===@@@@@==========+#@@=2@2==22121222222222  2222222....=... ",
" ...X.X.............   X.....XX..XXXXXX.X.. XXXXXXXXXXXXX.X     ",
"oOOO++++++++@       . ..XXXXX  #####X.....#.#..    ........ @@ $",
"%o&**+&&&&&&&&&&==#.. &&&--&;OO:>>>,#:O===&++=@@@@@+OO@OO@@++@ $",
"+O&O=OO&&*o-OO---+++=O@@O@@@@@@#>===-++++++++++++OO=@@===OOO++++",
"<<<&oo&+&&========OO++++-+OO===,O@@@==-O+-+++OOOOOOO++O&OOO<<<:<",
"=OO@@@-<-=O======@=O=@@@@@@@@@=@@&@@@@O<O&+O-&===O++OO=====:::&+",
"@@@@@@OO=@++O+O---+-+++=@@@@=1===O&&O=+OOOOO==@@@@@@@==O@O@=OOO&",
"2223333333333333333333333333333333333333333333333333333333333333",
"222222XXXXXXXXX222222222222XXXXXXXX22222222233333333333333333333",
"222 22222222222222222 2222222@@42XX233334@333        333332     ",
"44@@@@@422@2444222 22222XX222444222X2222           2222        2",
"@@44@44422224444422444222222222222@422XXX2444442222222 2 22 2222",
"442442224XX22222222222244444@444@2XXXXX222422222222444@O@@2@@4@@",
":=1:::::::444444444442244@@OO@@@4444@@@44444@@@@44@@@@@@O@@@@@@@",
"->1:+&+@+@==@==O&&-O=+++&+++<+OOO&<<<<OOOO++&+=O@@@O@@@=++&===&+",
"ooo+&&+&&&+&+-&+====@O++++O&&&OOoo&&&OOOO=OOO&&O@@@@&&&+&&++++-o",
"&&+++==++-------@@@O5+o&@@OOOOOO<&O<<<<+OOO&&&&++==@@OOOOOO++O:+",
"===###==&-++++&&OOOOOOOOO&&<&OOO@O++++&O&&O&&=O======OOOO&&&OO@=",
"+++++++++&o&&+==O=OO&&O+<&&oO<<&&&&O&&&<OO@&O=@@@@=@@O@OOOOOO&&+",
"&&&=++===+++++==OOOOOO&&<<&<&OOOOOOO&&&&<++o<oO+++&&&OOOOOO&->+&",
"++++o&o+=&&&&--+&&&@OO+OOO&OO+&@@==+=+&++o@+++<oo<+++O&&O+<&<&&+",
"+--&&--&o++-++--OOO&<O&+OO&&&&&&&&-&-<<&+-&&++++O@==OOOO&&<<::==",
"+@+@=6=@@@=+++=@=+=@@@@+O++@@&;;#=++++1-*@@@@@@@@@+&&@OO+OOOOOOO",
"..;;    2222222    2222222.==;...X#     #2222222222;;==;==;;= 22",
"XXXX.............#.#..#####......X.....XX.........#..#.....22222",
"#===#=+=--=+++++&o+4+&--==++++++=+o&&&oo&o&&&o&-=+++++&o&--===##",
"+-+===#++++++++++++=+++++-----+++#====++&-+++-+&-+=7==========+=",
"o&&+==++===-----+======++++=++=+++++++===+==---+O++++++++o+-o-+&",
"+++++--++----&&ooooooo&&&-+++==+++++=====#===-+-+++O++++++#----+",
"===++-====+++=+++---&--++========##======+++=-O&+O-&+=====++++==",
"=:11O+===::::::>::&:==# 666===@@@@@===@=@@=OOOO1=@@@==@@@@@@@@@=",
"222@===@@@@@==========+#@@=2@2==22121222222222  2222222....=... "
};
