/* XPM */
static char *result[] = {
/* columns rows colors chars-per-pixel */
"64 64 191 2 ",
"   c black",
".  c #080000",
"X  c #000900",
"o  c #090A00",
"O  c #080008",
"+  c #000C08",
"@  c #0D0D0D",
"#  c #000008",
"$  c #180E0E",
"%  c #001800",
"&  c #0E180E",
"*  c #18180E",
"=  c #0F0F18",
"-  c #180F18",
";  c #0E1818",
":  c #181818",
">  c #210F0F",
",  c #30180F",
"<  c #211818",
"1  c #301818",
"2  c #21180F",
"3  c #0F210F",
"4  c #18210F",
"5  c #0F2118",
"6  c #182118",
"7  c #182818",
"8  c #0F3018",
"9  c #183018",
"0  c #212118",
"q  c #262318",
"w  c #303018",
"e  c #213018",
"r  c #0F0F21",
"t  c #181821",
"y  c #0F0F30",
"u  c #181830",
"i  c #0F1821",
"p  c #211821",
"a  c #281821",
"s  c #301830",
"d  c #0F2121",
"f  c #182121",
"g  c #182821",
"h  c #182128",
"j  c #182828",
"k  c #0F3021",
"l  c #183021",
"z  c #183028",
"x  c #183039",
"c  c gray13",
"v  c #282121",
"b  c #212821",
"n  c #282821",
"m  c #212128",
"M  c #282128",
"N  c #212828",
"B  c #282828",
"V  c #302524",
"C  c #213028",
"Z  c #283028",
"A  c #283525",
"S  c #303028",
"D  c #373228",
"F  c #282830",
"G  c #222432",
"H  c #213030",
"J  c #283030",
"K  c #213930",
"L  c #283930",
"P  c #283039",
"I  c #283939",
"U  c #213239",
"Y  c gray19",
"T  c #303930",
"R  c #393930",
"E  c #303039",
"W  c #303939",
"Q  c #393939",
"!  c #393037",
"~  c #470F0F",
"^  c #6B1814",
"/  c #46390F",
"(  c #413939",
")  c #722118",
"_  c #214130",
"`  c #284139",
"'  c #394130",
"]  c #394139",
"[  c #324337",
"{  c #285930",
"}  c #306330",
"|  c #416300",
" . c #416A00",
".. c #414139",
"X. c #414130",
"o. c #4C5630",
"O. c #656535",
"+. c #727239",
"@. c #726A39",
"#. c #393041",
"$. c #303941",
"%. c #393941",
"&. c #353545",
"*. c #413944",
"=. c #394141",
"-. c #394149",
";. c #364644",
":. c #267268",
">. c #414141",
",. c #414941",
"<. c #414149",
"1. c #494149",
"2. c #414949",
"3. c #494949",
"4. c #494641",
"5. c #514949",
"6. c #495147",
"7. c #414951",
"8. c #494951",
"9. c #454151",
"0. c #495151",
"q. c #445154",
"w. c #515151",
"e. c #515159",
"r. c #555855",
"t. c #53514B",
"y. c #635959",
"u. c #596359",
"i. c #636359",
"p. c #515163",
"a. c #545964",
"s. c #635967",
"d. c #516363",
"f. c #596A6A",
"g. c #596367",
"h. c #596772",
"j. c #636A6A",
"k. c #6A6A6A",
"l. c #656565",
"z. c #726A6A",
"x. c #6A726A",
"c. c #63726A",
"v. c #636A72",
"b. c #6A6A72",
"n. c #686372",
"m. c #726A72",
"M. c #667373",
"N. c #727272",
"B. c #72727B",
"V. c #727B6A",
"C. c #832118",
"Z. c #837B18",
"A. c #936F18",
"S. c #A5720F",
"D. c #AD7B0F",
"F. c #A57B0F",
"G. c #837272",
"H. c #088C18",
"J. c #088C21",
"K. c #419339",
"L. c #63D600",
"P. c #6ADE00",
"I. c #28836A",
"U. c #49AD41",
"Y. c #6A8372",
"T. c #728372",
"R. c #8C8321",
"E. c #FFDE0F",
"W. c #838372",
"Q. c #686A83",
"!. c #726A83",
"~. c #6A7283",
"^. c #727283",
"/. c #72728C",
"(. c #837285",
"). c #6A8385",
"_. c #728383",
"`. c #74878C",
"'. c #728393",
"]. c #848386",
"[. c #838A96",
"{. c #88939B",
"}. c #8C96A6",
"|. c #9397A8",
" X c #8C8CA5",
".X c #96A6AC",
"XX c #9CADB5",
"oX c #AAB8BC",
"OX c #A5ADBD",
"+X c #B5BDC6",
"@X c #B0C6C6",
/* pixels */
"O O @ o @ @ O @ @ @ @ @ @ @ @ @ o + @ @ O + @ @ + @ @ + @ = = o O @ @ & + @ @ o @ @ @ @ $ O @ @ O @ O @ o @ @ @ @ @ @ + @ O O + ",
": N P =.8.9.q.2.8.;.2.8.-.3.,.-.] Q ! -.S @ C B z Z N F B H g @ t Z %.0.0.8.2.8.2.8.*.w.3.3.3.,.Q ( >.[ - B N B B B M F H m M @ ",
"f 8.).{.|. X]./.^.m.b.n.n.M.m.z.l.l.p.l.=.@ J f g h t h g g 5 + Q ~.].|.{.[.].M.~.k.k.b.l.~.z.l.s.0.l.0.@ I I.j H :.N Z :.N j O ",
"c v.oXoXoXXX}.'.N.v.m.b.~.m.W.Q.l.r.y.a.=.@ J f f 6 f h f g h @ 0.XX@XoX.X X[._.~.c.Q.k.Q.T.x.l.r.u.a.7.@ F K 6 B H t B K 6 0 @ ",
"N ].@X@XOX.X{.].Y.^._.^._.].).N.j.l.r.k.-.& A h g = d & f f d @ l.OX@XoX.X}.[.).^._.(.B.]._.W.b.k.a.j.u.@ B @ : c @ : c @ f c @ ",
"h '.XXOX.X}.{.`.!.].].'.].`.].T.^.l.d.l.0.@ H f N 6 j h g j h & g..XoX.X}.{._.Q.(.]./.].].].].k.M.f.l.d.= Z q : m f f m 7 p B + ",
"m M.{. X`.{.`._.^.(./.`.].].].`.N.x.n.v.0.& B ; f & 7 @ h & g @ a.'. X{.[.'.].).`./._.]._.].].Y.N.l.x.e.@ S D B B Y N T D v B O ",
"c f.~.'.'.[./.^.].).W.(.G.].]._.N.l.l.j.3.@ Z c C N j g A g j = 8.`./.(.[._.^.)._.^.].G.].].'.T.k.l.l.u.; R A.n D A.q T A.V B O ",
"t e.h.!.Q.~.~._.j.T.]._.].]._.m.c.l.u.u.<.& B ; j = g & g @ j @ 0.v.v.~.^.).Q.Q.~.]._.(.].T._.z.j.r.s.w.@ D / 0 B / < V / < B @ ",
"f p.h.j.~.h.M.j.b.x.~.].[.W.V.N.k.p.w.w.] @ N Z H z H j J U z = *.n.v.f.M.n.c.M.k.m.B.]._.G.G.l.u.u.y.1.& B $ : t @ : c = : j O ",
"f 8.a.f.j.x.d.Q.h.N.Y.^.N.T.m.M.r.e.3.5.Q = B J A ; N @ H K K @ ..a.a.v.v.l.n.f.].b.(.T._.N.z.l.e.0.3.>.@ N 6 : c : : p : : 0 O ",
"c <.p.p.g.s.l.g.x.b.m.N.N.Q.z.c.u.6.,.5.Q @ J J H H I H L K z @ ;.3.p.g.f.f.k.b.l.k.V.b.z.m.c.u.8.4.3.=.@ B V a B n v B v B N @ ",
"f 4.7.0.w.g.h.j.b.z.!.G.z.k.l.l.i.6.1.6.! = J K I J L L K H H = Q <.e.p.u.v.n.b.k.(.N.G.b.j.V.l.0.4.5.%.= D C.a V ^ q n ) v b O ",
"f =.,.1.0.d.n.v.l.f.G.k.N.l.l.i.w.3.,.<.Y @ J L L T ^ Y I L K @ W <.3.3.g.g.b.l.l.k.x.k.c.l.r.w.8.>.3.Q @ V ~ < v ~ < q ~ < 0 @ ",
"0 ! %.=.-.0.s.p.l.y.j.j.i.l.y.t.3.4.%.=.J @ F ` I I ~ F I ` N @ F Q &.-.3.p.u.d.g.j.g.l.i.u.r.3.3.%.] E @ j @ : : $ ; t $ 5 f O ",
"t I %.%.-.7.9.3.a.d.p.w.r.u.t.5.2.Q Q Q J @ C ` ` I $ B W I ` @ E Q %.%.2.7.9.p.p.e.p.e.l.t.t.,.Q Q ( S @ b v : f : < 6 f : c @ ",
"0 &.#.%.;.<.-.<.9.2.<.>.1.3.2.,.*.>...Q N & c I I K N N ` ` H @ P %.$.-.<.&.=.<.2.>.<.<.3.3.<...=.>.%.J @ v B n N c v M M B b @ ",
"f F F J P E W &.I Q E Q Q Q Q Q Q ] P S n @ & & & & ; & & & * @ N F J K E &.W W Q E %.Q Q Q Q W Q ! Y D @ b B B D B B B b B N @ ",
"O @ @ & ; 3 @ $ @ @ * @ @ @ @ @ - @ @ ; @ O o @ o + & O O & @ + @ O O & ; 3 ; ; @ o = @ @ ; @ @ : @ @ ; @ @ @ @ @ @ O O @ @ @ o ",
": q A } K.U.K.{ c f w.h v w.v b p.N N :.j h t : f 6 t 6 f f h ; h t @ } K.U.K.} g p r.f 7 r.b c p.g j :.h p : t c f : p j t 6 @ ",
"6 : 4 4 5 7 6 6 f f p c c q h t < c h I 7 f f f t t : d : r : f f : h f : 7 5 4 h v 6 c m f m v : p j L h c c f f h f c f f t @ ",
"d : ; : : - & 6 - ; : ; $ 6 - = 6 : @ f t 6 t ; @ O @ @ + @ @ @ o @ @ & : & ; f = & t ; = 6 : ; < : @ h q : t * 6 : : : : < ; @ ",
"f Q b ; -.j ; -.A 6 ] z ; -.C @ <.b ; <.8.0.-.a Z Y J T T T Y J 4 Q j @ =.C & <.C 4 W C ; ..B & =.b = ;.-.q.2.7 &.=.>.Q 2.<.=.@ ",
"; : @ * ; & : : @ ; * @ ; < $ : 5 @ 5 6 - f : @ Z o.O.+.+.+.O.] 4 : ; ; 6 * : 6 @ * 5 @ ; : @ : 6 = ; : 5 f : = =.=.%.- <.>.*.+ ",
"v 7.J : r.J = e.P q 2.P ; 0.E @ e.L @ e.I & 0.N L ' ] ..R [ Q T f -.P ; 0.Y & 0.Y f 2.W @ 0.I $ r.Z ; e.E ; 0.N Q b %.@ =.m >.= ",
"; : ; 6 f & : f @ 6 4 ; : 6 ; : t & : c @ 5 h @ R o.O.+.] Q Q I 0 7 ; 7 6 = 6 t & 0 6 & 4 f & : f & 6 c ; ; t @ Q : %.$ <.t <.@ ",
"f 3.7.p.u.Z = 0.P b 2.P ; d.J * d.Z ; 0.Y & e.M [ ( ] ....;.] W N 2.8.0.a.J ; w.E b <.W - p.Y & d.S & 0.J & p.c &.N 2.: -.B <.@ ",
": b c f b 0 ; F b b h c f b b : C h : N f : N @ ] o.O.+.+.+.O.] b g b : N 6 * C c b b f 6 b b v N 6 ; B 6 5 N & <.7.3.t w.s.a.@ ",
"6 W N 6 -.N : %.7.q.3.2.2.8.2.q.<.N 6 =.N 5 -.; Y R ' ' X.' W W b I N : >.m : <.2.8.7.3.2.7.7.2.<.M 5 ;.N 6 =.: 2.3.3.w.d.y.p.@ ",
": B B @ T Z * L J Z A K J H J B Z N & P N ; Z = ' 6.O.+.+.] [ W Z N B 6 J Z : J C F J J Z H Z J Z A ; P N ; Y ; <.<.6 7.a p.e.* ",
"; ; @ t : & t : @ @ & = = @ @ @ = @ : : @ t ; @ S R R R ' E T T n $ & f : = f ; @ @ @ @ @ @ @ = @ @ t : $ p - @ Q <.N -.A -.7.@ ",
"@ @ + @ O @ o + @ o O + o O @ X o # @ @ @ + O O O @ @ @ @ + @ @ O + @ O + o @ O + @ o @ @ O o @ o o @ O + @ # @ & @ @ O @ = @ o ",
";.H W W Q W W I W H I Q W W K W W Q Q W Q K Q Q Q _ _ _ _ _ _ W J I W Q W W W W H W W W H g T Y Y Y Y Y S W T Y Y Y Z J z 6 Y f ",
": : : : : : : 9 7 : : : 9 : : : : : 9 : : : : : : : : : 1 : : ; : : : : : : * : 9 : : : : : : : s : : ; 1 : : : : : : u 9 : : : ",
": : : : 1 : : : ; : w : : : : : : : 1 : : - : : : : : : : : : : : : : : : : : = : : : : : : : : : 1 : : : : : : : : : : : : : : ",
": : : = : @ : @ - @ @ & = = = @ @ : = = @ @ : : : @ @ = = @ @ & y = = 1 : : @ : : : : : @ : : = : @ = @ = * : : @ y = @ @ : : : ",
"9 : u Q #.: -.: -.= = H H.L.H.% % |  .| o o |  . .X X H.L.H.X X H.L.H.9 Z H.L.H.% % |  .| o o |  .| X X H.P.H.X % H.L.H.9 : : : ",
": : : = & : y @ r @ @ : X o X   . X . X       . X   X X o X X   X o X t ; X o X   X X X X     X X X     X o X     X o X k 6 9 : ",
"1 : : : u * - : u & & Y % * @ @ o O o $ 1 m @ * o O O & & & X X @ & & z v + * @ O @ @ o * : : + * o O O & & % X X @ & & d * * : ",
": : = f.[.h.P *.B.: : 9 J.P.H.+ + |  .| + % H.P.H.+ +  . . .X X |  . .6 9 J.P.H.+ + |  .| + + H.P.H.@ +  . .| o o |  . .9 : : ; ",
": : : : s : & = H = = 9 @ 4 o     O X X X X @ + X X X & o . @ . o o @ 9 m @ 9 X     O X X X X & + o X X @ o X o o @ @ + 6 : : - ",
": : : Y Y * ; : : = = 6 ; 8 : @ & : u : ; ; k 8 8 & ; 9 u : : & u 9 5 u * e z 5 ; ; : 9 ; : : : 8 : = ; k H 8 $ = u 8 : ; : : : ",
": : : `.|.&.u H 7.u t : ] Z.Q @ @ ] Z.%.& * R.E.F.; ; ] Z.%.@ @ [ Z.%.3 8 R.E.S.; ; ] Z.Q & @ Q Z.%.& & D.E.R.2 @ ] Z.%.@ : : : ",
": : : u u ; w ; u t u & & @ @ = - ; = @ @ @ 8 * @ = @ ; @ @ @ @ u & @ = @ d 8 @ = & ; @ @ @ $ ; $ @ = @ k 3 @ = @ : @ @ @ : : : ",
": : : S & T u : u u u : : w 1 ; ; u 9 : = = u < e ; ; : : 9 : : 1 w 1 ; ; : : u : : u 1 u ; ; u 1 u ; ; : 1 u t = 1 w 1 : : : 1 ",
": : - [.U u B.u t : : 1 D.E.D.$ $ >.Z.Q @ = *.Z.#.; * ..Z.#., $ D.E.D.* @ ..Z.Q @ @ >.Z.%.@ = ..Z.%.= @ ..Z.%.& $ D.E.D.$ : : < ",
"1 : : : @ = : : & @ $ @ : @ : : : @ @ = @ = : u @ @ & : : @ & @ @ = @ : : = : : & & @ $ = = @ @ ; = = @ @ ; & - = @ @ : = : : 9 ",
": u : = y @ ; & @ @ = @ = = ; @ @ : = & @ @ : : * = @ @ = @ $ @ y = = : : : @ * : : 9 : @ : : ; : @ @ @ @ u : : @ y = @ @ : : : ",
": : : >.R : =.* %.= = = F.E.F.= = ] Z.%.: : ] Z.%.@ $ Q Z.%.= = D.E.D.@ @ ,.R.=.= & ,.Z.<.@ @ ,.Z.-.@ @ ,.Z.<.@ y D.E.F.@ ; ; : ",
"9 : : y & : = = = @ & @ = y = @ @ = @ * = - = @ = $ $ = @ @ @ = y r = = - * @ = $ $ = @ $ - - : @ $ - - ; @ @ @ $ y r @ - : : - ",
"6 : : : u : - : u ; & @ = w , = = - & 9 @ $ , w w ; ; : : ; = = : : : = = ; : u ; ; w w 9 $ $ , w w - = , w * ; = : : 9 = : : : ",
": : : f.[.h.U Q B.; ; ; F.E.S.$ $ ] Z.#.$ @ S.E.S.* * Q Z.Q = @ Q Z.[ @ = Q Z.Q $ $ D.E.D., * D.E.D., 2 D.E.D.* @ ,.R.*.@ : : : ",
": ; : 9 s 6 = = H = = y * , @ @ = = @ @ & ; 9 * @ @ = & @ @ & & ; @ @ & @ ; @ @ @ @ 9 , * & & 1 * = ; & 9 , - @ 8 : = @ * : : u ",
": : : Y Y 9 ; : ; = = : ; 8 : @ @ : u ; ; ; d k 8 ; u 9 u - = ; u 9 ; : ; 8 H 8 = ; : 9 : : : : 8 : ; ; d Z 8 ; = u 8 : & : : 9 ",
": : : `.|.&.u J -.G t 9 Q Z.%.@ @ ] Z.Q & & D.E.S.; ; ] Z.%.@ @ ] Z.%.8 3 D.E.F.; ; ] Z.%.@ @ ] Z.%.& @ D.E.D.& @ ..Z.%.@ : : : ",
": : : u u ; e ; u : : ; @ = @ = = ; @ @ $ @ 8 ; @ $ @ ; = @ @ * u & = ; = k 5 @ @ @ ; = = $ @ ; @ @ @ & k 3 @ = & : $ @ @ u t : ",
"; : : T k H u 6 u u u ; : w 1 ; ; u : ; = = u p < & ; : u : : : 1 w 1 = : : : u : : u 1 u ; 8 u 1 u ; ; : 1 : u r 1 w 1 : : : : ",
": - : [.U u B.u t : : 1 F.E.D.$ $ >.Z.%.@ @ >.Z.Q & ; >.Z.Q @ , D.E.D.$ , ;.Z.%.@ @ =.Z.%.@ @ ,.Z.Q @ = >.Z.%.& $ D.E.D.@ : : : ",
"* : : x 1 : u 9 : : : : * , @ @ @ : @ @ @ - : @ = @ @ u @ $ @ @ : $ $ @ @ : @ @ @ @ : @ @ @ - : @ @ = @ : @ @ $ = 1 $ > @ : : : ",
": : u t : : : s : : : : : : : : : - : : 9 : : 9 : 9 : : 9 : - 1 : : : : 1 : : : 9 : 8 : : - : : : : : : : : : u : : - = : : : u ",
": : : 1 : - : : : : : - - : : : : = : - : : 1 : : ; : : : u : - : : : : : s : * : : : : : : : - : : - : 9 : : : : * : : : 9 : : ",
": : : < : : : : : : : : : : : : : : u : : : : : : : : : u : 1 : : : - : : : : : : : : 9 6 * : 1 * : : : : : : : ; : : : : : : : ",
"=.W W =.=.Q Q Q ] Q ] Q Q ] W Q Q =.] Q =.W =.=.] Q Q Q Q W ;.;.W W =.=.Q Q Q ] W ] Q Q ] W Q W =.=.Q ;.W =.=.=.Q Q Q Q W Q Q Q ",
"= = = = = = = = = = = = = = = = - - - - - : : : : : : : : : : : : : : : : : : : : : : : : : : : : : : : : : : : : : : : : : : : "
};
