/* XPM */
static char *result[] = {
/* columns rows colors chars-per-pixel */
"64 64 18 1 ",
"  c #B5B593",
". c #BDB593",
"X c #B5AD93",
"o c #BDBD9C",
"O c #C6C6A5",
"+ c #C6BD9C",
"@ c #C6BDA5",
"# c #CEC6A5",
"$ c #B5AD8C",
"% c #BDB59C",
"& c #ADA58C",
"* c #ADA583",
"= c #ADAD8C",
"- c #CEC6AD",
"; c #A5A583",
": c #D6CEB5",
"> c #BDBDA5",
", c white",
/* pixels */
"  .XoO+@#+.. $.%@+$$$..$%.oX..@o  .XoO+@#+.. $.%@+$$$..$%.oX..@o",
"oX$$.%oO%O %%$$&oo.$$.X+...%X.o+oX$$.%oO%O %%$$&oo.$$.X+...%X.o+",
"% % $ .@O%o .**$*%.$**$+oX+o..%o% % $ .@O%o .**$*%.$**$+oX+o..%o",
"@@=+o$-@@oX$.$**. .*=$=X%.+o+%.o@@=+o$-@@oX$.$**. .*=$=X%.+o+%.o",
"++ X.&$ o%OX= $$o%.=*..+%%#ooo%o++ X.&$ o%OX= $$o%.=*..+%%#ooo%o",
"o+%.=$X.++%.X$=$.XX$$   +*X%%%.%o+%.=$X.++%.X$=$.XX$$   +*X%%%.%",
". .$$X$$X.X.$ $X.X. XX.X.%..oo X. .$$X$$X.X.$ $X.X. XX.X.%..oo X",
". .oX=X.  %X$$X=&X X.. .%.o.% ... .oX=X.  %X$$X=&X X.. .%.o.% ..",
"$ . +*$X%X*$$ .+ ..%%..o%%%.. ..$ . +*$X%X*$$ .+ ..%%..o%%%.. ..",
"%.. ..$@@O$ .$$$$ %%o%o@%%o.....%.. ..$@@O$ .$$$$ %%o%o@%%o.....",
"%o.o%.  %.$.. X$.X.%o+.o +$  %..%o.o%.  %.$.. X$.X.%o+.o +$  %..",
"+o+o$ %+o+%o.. .   .%oO%@o% $$ .+o+o$ %+o+%o.. .   .%oO%@o% $$ .",
"%o%.%.oo%%o%.o.o.%X oo%..$ X XX.%o%.%.oo%%o%.o.o.%X oo%..$ X XX.",
".X%%$o+%+o+Xoo.o%+@.% .X @...$X .X%%$o+%+o+Xoo.o%+@.% .X @...$X ",
"+@o.XX o+ .o.. $.o%o@X%o...$$*X.+@o.XX o+ .o.. $.o%o@X%o...$$*X.",
" .o#O.O%o+$*.oX X..X.%oo#.X;..=X .o#O.O%o+$*.oX X..X.%oo#.X;..=X",
"ooo@-+%# o. XXX.@. %o#o%:@$=.$.+ooo@-+%# o. XXX.@. %o#o%:@$=.$.+",
"O@+ ..%o@X%.$X. .+ $+.O.%%X . .OO@+ ..%o@X%.$X. .+ $+.O.%%X . .O",
"@@o%XX$ *+... X%%o..  XX ...o+oo@@o%XX$ *+... X%%o..  XX ...o+oo",
"+% .$XX$$$.X$Xo.%%%$.X..$$ ..%o@+% .$XX$$$.X$Xo.%%%$.X..$$ ..%o@",
"Oo+%+X$ $$=$$Xoo@.%.$$$ .X$ ..OOOo+%+X$ $$=$$Xoo@.%.$$$ .X$ ..OO",
">@ .X.$....$ $o@o..$$$$$$= X%%@o>@ .X.$....$ $o@o..$$$$$$= X%%@o",
"-o+o%%.+X$$$$$...X=$.$$$$$X %..#-o+o%%.+X$$$$$...X=$.$$$$$X %..#",
"%-O+%.. % . $X$..$=$X$. X .%o...%-O+%.. % . $X$..$=$X$. X .%o...",
"oo+o+Xo+..$%..  . %. . $.%oo@o. oo+o+Xo+..$%..  . %. . $.%oo@o. ",
"@.% %+&o%@%..o+%.%. %$$.%o+@+o..@.% %+&o%@%..o+%.%. %$$.%o+@+o..",
"+o.+ %o.X$ .%%+o%. &..=$ +Ooo%..+o.+ %o.X$ .%%+o%. &..=$ +Ooo%..",
".$  ..O#o X. .o%O  . =X..@o%% X..$  ..O#o X. .o%O  . =X..@o%% X.",
". $X @+o%%$X.+.%.oo X=.%o+.%.X .. $X @+o%%$X.+.%.oo X=.%o+.%.X .",
".$.$$. .X$. % . @o@o%.$+%o..XXXX.$.$$. .X$. % . @o@o%.$+%o..XXXX",
"XX$$$ oX$X...& % # ++o$.o.. X$.XXX$$$ oX$X...& % # ++o$.o.. X$.X",
".$$X.$$ ...+ += &*$.o.$%%+@+ ..X.$$X.$$ ...+ += &*$.o.$%%+@+ ..X",
"  .XoO+@#+.. $.%@+$$$..$%.oX..@o  .XoO+@#+.. $.%@+$$$..$%.oX..@o",
"oX$$.%oO%O %%$$&oo.$$.X+...%X.o+oX$$.%oO%O %%$$&oo.$$.X+...%X.o+",
"% % $ .@O%o .**$*%.$**$+oX+o..%o% % $ .@O%o .**$*%.$**$+oX+o..%o",
"@@=+o$-@@oX$.$**. .*=$=X%.+o+%.o@@=+o$-@@oX$.$**. .*=$=X%.+o+%.o",
"++ X.&$ o%OX= $$o%.=*..+%%#ooo%o++ X.&$ o%OX= $$o%.=*..+%%#ooo%o",
"o+%.=$X.++%.X$=$.XX$$   +*X%%%.%o+%.=$X.++%.X$=$.XX$$   +*X%%%.%",
". .$$X$$X.X.$ $X.X. XX.X.%..oo X. .$$X$$X.X.$ $X.X. XX.X.%..oo X",
". .oX=X.  %X$$X=&X X.. .%.o.% ... .oX=X.  %X$$X=&X X.. .%.o.% ..",
"$ . +*$X%X*$$ .+ ..%%..o%%%.. ..$ . +*$X%X*$$ .+ ..%%..o%%%.. ..",
"%.. ..$@@O$ .$$$$ %%o%o@%%o.....%.. ..$@@O$ .$$$$ %%o%o@%%o.....",
"%o.o%.  %.$.. X$.X.%o+.o +$  %..%o.o%.  %.$.. X$.X.%o+.o +$  %..",
"+o+o$ %+o+%o.. .   .%oO%@o% $$ .+o+o$ %+o+%o.. .   .%oO%@o% $$ .",
"%o%.%.oo%%o%.o.o.%X oo%..$ X XX.%o%.%.oo%%o%.o.o.%X oo%..$ X XX.",
".X%%$o+%+o+Xoo.o%+@.% .X @...$X .X%%$o+%+o+Xoo.o%+@.% .X @...$X ",
"+@o.XX o+ .o.. $.o%o@X%o...$$*X.+@o.XX o+ .o.. $.o%o@X%o...$$*X.",
" .o#O.O%o+$*.oX X..X.%oo#.X;..=X .o#O.O%o+$*.oX X..X.%oo#.X;..=X",
"ooo@-+%# o. XXX.@. %o#o%:@$=.$.+ooo@-+%# o. XXX.@. %o#o%:@$=.$.+",
"O@+ ..%o@X%.$X. .+ $+.O.%%X . .OO@+ ..%o@X%.$X. .+ $+.O.%%X . .O",
"@@o%XX$ *+... X%%o..  XX ...o+oo@@o%XX$ *+... X%%o..  XX ...o+oo",
"+% .$XX$$$.X$Xo.%%%$.X..$$ ..%o@+% .$XX$$$.X$Xo.%%%$.X..$$ ..%o@",
"Oo+%+X$ $$=$$Xoo@.%.$$$ .X$ ..OOOo+%+X$ $$=$$Xoo@.%.$$$ .X$ ..OO",
">@ .X.$....$ $o@o..$$$$$$= X%%@o>@ .X.$....$ $o@o..$$$$$$= X%%@o",
"-o+o%%.+X$$$$$...X=$.$$$$$X %..#-o+o%%.+X$$$$$...X=$.$$$$$X %..#",
"%-O+%.. % . $X$..$=$X$. X .%o...%-O+%.. % . $X$..$=$X$. X .%o...",
"oo+o+Xo+..$%..  . %. . $.%oo@o. oo+o+Xo+..$%..  . %. . $.%oo@o. ",
"@.% %+&o%@%..o+%.%. %$$.%o+@+o..@.% %+&o%@%..o+%.%. %$$.%o+@+o..",
"+o.+ %o.X$ .%%+o%. &..=$ +Ooo%..+o.+ %o.X$ .%%+o%. &..=$ +Ooo%..",
".$  ..O#o X. .o%O  . =X..@o%% X..$  ..O#o X. .o%O  . =X..@o%% X.",
". $X @+o%%$X.+.%.oo X=.%o+.%.X .. $X @+o%%$X.+.%.oo X=.%o+.%.X .",
".$.$$. .X$. % . @o@o%.$+%o..XXXX.$.$$. .X$. % . @o@o%.$+%o..XXXX",
"XX$$$ oX$X...& % # ++o$.o.. X$.XXX$$$ oX$X...& % # ++o$.o.. X$.X",
".$$X.$$ ...+ += &*$.o.$%%+@+ ..X.$$X.$$ ...+ += &*$.o.$%%+@+ ..X"
};
