/* XPM */
static char *result[] = {
/* columns rows colors chars-per-pixel */
"64 64 143 2 ",
"   c #3C3225",
".  c #413627",
"X  c #453A27",
"o  c #423728",
"O  c #463A29",
"+  c #4A3D2A",
"@  c #4D412C",
"#  c #53452C",
"$  c #56492E",
"%  c #5A4B2F",
"&  c #534532",
"*  c #564932",
"=  c #5B4D33",
"-  c #5E4F39",
";  c #5F5139",
":  c #635334",
">  c #695735",
",  c #695936",
"<  c #60523B",
"1  c #6B5B3B",
"2  c #715C35",
"3  c #715E39",
"4  c #7E6736",
"5  c #74633E",
"6  c #78653B",
"7  c #7F6B3F",
"8  c #736242",
"9  c #7A6742",
"0  c #7F6C42",
"q  c #886C33",
"w  c #836C3D",
"e  c #8A6F3A",
"r  c #95793B",
"t  c #9D7D3B",
"y  c #826E45",
"u  c #857046",
"i  c #8B7544",
"p  c #8F7944",
"a  c #847148",
"s  c #8B764B",
"d  c #8F794A",
"f  c #907640",
"g  c #937B44",
"h  c #947D4C",
"j  c #8B7750",
"k  c #8C7A52",
"l  c #957E51",
"z  c #9D803F",
"x  c #A3833D",
"c  c #AB883E",
"v  c #9E8245",
"b  c #95804F",
"n  c #9B834C",
"m  c #968151",
"M  c #9C8553",
"N  c #9D8857",
"B  c #99865C",
"V  c #9F8A5B",
"C  c #A38543",
"Z  c #A88741",
"A  c #A78844",
"S  c #AC8B43",
"D  c #A1864C",
"F  c #A58A4C",
"G  c #AD8E4B",
"H  c #B08E44",
"J  c #B08F49",
"K  c #AE904D",
"L  c #B59244",
"P  c #B99447",
"I  c #B3934D",
"U  c #B9964B",
"Y  c #BC994D",
"T  c #A48B54",
"R  c #AA8F53",
"E  c #A48E5C",
"W  c #AD9154",
"Q  c #AC935A",
"!  c #B29453",
"~  c #B59956",
"^  c #BD9C54",
"/  c #B1965A",
"(  c #B49A5C",
")  c #BC9E5B",
"_  c #BDA15D",
"`  c #A59061",
"'  c #AC9662",
"]  c #AF9864",
"[  c #AE9968",
"{  c #B49C63",
"}  c #B99E63",
"|  c #B69E69",
" . c #BCA264",
".. c #B7A16B",
"X. c #BCA46B",
"o. c #B6A272",
"O. c #BBA572",
"+. c #BFA971",
"@. c #C09F56",
"#. c #C09F59",
"$. c #C1A156",
"%. c #C2A25C",
"&. c #C4A563",
"*. c #C6A965",
"=. c #C8AA66",
"-. c #C1A769",
";. c #C6AA6B",
":. c #C9AD6C",
">. c #CCB16E",
",. c #C5AC72",
"<. c #C9AE72",
"1. c #C3AE7D",
"2. c #C7B077",
"3. c #CCB274",
"4. c #C7B07C",
"5. c #CDB47B",
"6. c #CFB87E",
"7. c #D1B676",
"8. c #D3B877",
"9. c #D0B77B",
"0. c #D2B97D",
"q. c #CEB781",
"w. c #CFB882",
"e. c #CCB788",
"r. c #D3BB83",
"t. c #D8BF83",
"y. c #D3BD8B",
"u. c #D5BE91",
"i. c #D7C086",
"p. c #D8C086",
"a. c #D7C08A",
"s. c #DAC38C",
"d. c #D6C193",
"f. c #DAC592",
"g. c #DEC993",
"h. c #D9C59A",
"j. c #DCCA9D",
"k. c #E0CC96",
"l. c #E1CD99",
"z. c #E3D19C",
"x. c #DDCBA2",
"c. c #DDCDA9",
"v. c #E4D4A4",
/* pixels */
"  # # % # % + = % % # # : = - % # # $ + + . # + * * = = = = = * % % = = = * = < < < - = - - & + . O + - = - - - < = < - = + + . ",
"+ R ;.^ U #.:.:.3.y.,.%.L %.&.&.&.@.9.,.3 O : f ) &.#.^ 5.q.y.y.w.9.y.u.y.u.y.w.q.<.w.y.r.5.3.E . 8  .=.#.9.r.5.#.#.#.*.Z e * + ",
"+ ~ %.*.5.,.*.3.<.=.<.<.3.:.u.c.u.u.9.5.M . i 5.y.h.y.<.&.u.q.9.y.0.q.y.h.r.q.=.5.<.<.u.e.;.3.-.. Q @.U *.@.@.k.u.*.t.t.:.#.w O ",
"+ R ) &.9.;.;.:.r.y.&.#.3.y.5.%.3.q.e.{ { X R #.:.q.;.y.y.9.w.u.>.0.:.:.5.9.0.9.%.3.5.:.y.:.&.#.O ;.%.&.=.:.#.r.k.7.^ 0.7.:.C + ",
"O ~ &.5.*.9.r.5.&.9.r.&.@.&.y.3.#.9.F E { O Q #.#.*.<.5.w.y.5.,.3.7.8.7.#.q.r.9.t.=.<.9.=.&.r.4.O ,.3.y.w.<.r.u.0.s.7.@.3.8.:.+ ",
"X &.r.d.^ *.y.5.u.=.u.9.&.3.9.u.:.w.X.-.Q o / 9.&.Y r.&.#.,.5.5.X.<.<.8.9.u.;.<.q.t.3.&.#.:.;.X.+ ;.%.w.h.w.#.0.r.r.0.0.H 3.;.+ ",
"O %.3.q.^ U :.*.&.u.y.y.&.<.5.r.8.3.<.w./ O / U 8.:.*.9.:.} 9.r.2.*.3.7.t.<.y.:.r.q.8.0.&.&. .#.O :.3.q.3.y.%.#.y.r.) *.&.;.R + ",
"O ;.=.=.*.U @.:.y.r.r.:.u.&.y.u.3.=.u.w.( O } @.#.8.#.:.r.5.,.6.w.q.<.:.u.q.:.9.f.5.@.#.q.q.=.G o ,.^ u.&.w.t.@.3.<.r.:.!  ./ + ",
"+ } ! =.h.%.&.;.9.r.&.=.:.y.&.=.#.:.k.*.W O } &.*.<.s.;.*.q.y.2.5.2.;.2.y.q.<.:.q.r.&.&.@.#.q.#.O ;.P #.s.&.&.r.&.&.:.^ :.$.( + ",
"+ ! L &.5.l.5.<.&.9.u.<.u.<.y.=.#.<.r.t.W + { C :.9.0.>.=.3.=.=.3.) U Y -.:.;.&.y.u.#.;.<.@.&.I O -.&.Y =.r.<.9.y.5.3.5.@.:. .+ ",
"+ ,.7.&.:.y.7.@.3.;.9.9.,.y.=.y.:.0.*.9./ O i W &.5.r.&.&.Y #.<.=.&.<.;.&.:.:.&.#.&.&.#.! @.{ 9 O &.%.<.@.:.t.<.u.d.:.5.=.) X.# ",
"+ #.q.y.:.5.&.t.y.&.&.9.r.:.;.<.&.0.r.@.} + > T } { | } } | } / Q / E Q E E Q Q Q { } X.} { 8 = O  .;.#.7.@.0.d.;.^ :.&.~ F &.+ ",
"+ I %.5.r.<.:.&.r.<.;.@.q.u.<.=.0.=.y.%./   o o + + + O + + o + + O + + O O + + + + + + + + o + o  .<.y.7.7.&.s.q.Y #.9.:.C X.+ ",
"+ ) } :.0.>.y.3.5.r.y.@.=.q.3.%.<.y.t.#.Q + : { :.:.&.#.*.=. .K J #. . .) ! T ~ ) =.:.<.{ U t > O  .&.3.u.h.3.^ r.q.*.&.7.) X.@ ",
"+ c #.7.#.:.r.r.;.y.<.y.y.3.q.q.%.0.3.<.E + l 8.9.r.w.&.) ;.q.;.;.,.%.=.;.;.4.&.&.;.;.#.@.@.#.u X  .=.0.0.=.y.<.%.7.5.) %.$.} + ",
"+ @.%.&.=.&.#.=.q.;.#.P &.5.<.:.9.:.0.<.E +  .3.3.<.<.u.y.*.5.y.3.;.&.&.3.3.%.y.y.@.&.<.;.q.&.t X  .k.=.$.7.u.:.9.*.*.&._ 2.X.@ ",
"+ q &.U %.#.7.:.%.&.*.*.^ U U %.,.9.5.%.u O | 5.r.;.2.y.<.w.5.*.u.%.<.q.2.5.5.u.y.y.,.r.d.O.;.W X  .&.0.^ &.f.&.&.d.<.! X.| ;.+ ",
"O 2 y u a j j j k y u s k j k s j k s 0 $ X _ _ %.6.<.<.,.&.^ 9.y.e.:.#.w.,.#.3.q.*.*._ ;.F  ./ . *.%.~ t.*.;.7.:.*.*.J X.!  .& ",
". % % % % * $ # $ % = $ * % = : : = : $ #   Q *.^ _ _ :.y.:.:.:.y.r.w.;.<.y.#.*.5.^ f.f.,.W / ( O ;.t.*.0.7.) *.0.=.#.Y :.| ( & ",
"+ @.#.@.@.=.=.) *.:.<.7.r.0.8.<.5.3.8.) , + { *.*.w.L P <.r.7.7.0.@.#.3.L 9.q.A s.9.&.d.z.&.{ ( X :.:.s.Y t.0.&.;.%.9.#.&.;.X.+ ",
"+ ,.*.:.r.t.9.&.*.Y 7.d.<.<.r.q.w.y.6.&.i O { p.>.g.r.7._ 3.p.5.=.5.@.<.*.Y *.*.&.f.s.=.y.0.3. .X ,.3.:.>.%.f.7.<.<.:.y.<.&. .# ",
"O ^ &.&.8.r.y.f.y.0.#.&.3.*.<.6.y.q.<.9.W O / 8.3.%.i.>.6.=.>.8.=.3.t.%.*.=.9.5.w.H 7.t.5.a.*. .X ;.5.$.:.g.<.g.r.^ %.%.*.:.,.@ ",
"O :.3.5.t.9.:.<.7.y.q.<.#.%.y.9.:.r.w.6./ + 1.:.p.p.%.g.8.0.0.*.0.3.5.u.&.*.:.0.<.6.&.%.i.3.&.{ O +.2.y.I q.f.;.s.3.^ ^ *.Y 5.@ ",
"O -.a.t.%.t.;.:.k.8.r.w.*.3.;.7.0.7.<.w.( + ..8.p.g.t.3.g.s.7.6.7.8.0.r.g.3.&.U *.=.@.U ^ g.( Q X +.P &.t.<.r.t.%.7.t.^ 2.:.5.+ ",
"+  .3.t.p.~ g.i.8.0.3.=.5.5.<.Y #.r.t.*.G O R :.3.i.3._ =.g.s.>.r.:.t.s.:.:.7.^ c 5.r.:.P ! ) ( O 5.>.Y _ s.5.r.t.q.*.;.A G  .& ",
"+ 2.7.&.3.g.^ s.p._ 8.t.:.5.<.^ Y #.;.%.v O / ) 2.3.s.7._ Y 6.g.t.=.:.8.<.<.=.3.%.^ Y 3.i.=.K Q O X.8.i.Y _ 3.&.:.t.8.5.;.;. .* ",
"+ ) g.r.^ :.g.t.p.i.( 3.8.,.^ L 7.:.^ &.{ + T -.0.0.=.s.5.:._ 2.k.r.0.:.g.t.*.@.i.a._ >.6.3.&.Q O  .A 3.p.>.$.>.>.%.>.*.5.g.5.* ",
"@ ( &.t.t.5.*.8.>.>.;._ 0.9.%.%.#.7.%.t X.# T &.r.s.i._ g.i.X.+.#.r.<.t.r.t.0.:.H =.i.5.5.i.:. .O  .5.Y %.p.~  .6.0.7.5.w.2.Q & ",
"@ ( r.:.t.0.>.$.=.i.=.c 0.>.U r.3.<.&.:.} # D I >.i.0.:.) 2.2.5.2.g.5.6.5.5.6.0.7._ =.=.:.:. .( O ) _ 8.%.%.,. .;.$.0.r.6.6...@ ",
"@ I ;.) :.i.0.*.$. .3.3._ 3.5.*.:.=.:.) y . h I _ ^ =.5.5. . .,.s.0.i.r.r.<.-.s.2.s.g.6.+.2.X.s X b ! r.i.5.i.i.g.5. .X.s.5.m @ ",
"+ A  .{  .X.8.2.%.W ( ;.( Q _ { | / / ' 1 @ : h v T W Q K _ M (  .;.;.,.X. ./ 1.r.6.5.5.+.2.E ,   8 F / X.X.,.-.X.{ T M V b : + ",
"+ # O O O O + + @ @ @ @ @ + + + + + @ & + O @ @ @ @ + + O O   X @ @ @ + @ + O X O O O + O @   @ O O O O X X + O O O + @ + O +   ",
"+ l G G t R D D l M M E ] | O.| | | | | ] { } | ( F G / u # O # V W n W / R F ..] R W E R W R h J G Q D D D D l Q { R R / ] n O ",
"+ S H 3.<.q.y.<.%.<.y.q.y.x.u.<.9.w.h.u.] / *.5.q.y.r.<.<., O B y.2.&.@.i.^ L 5.5.<.2.<.Y U ;.;.U 9.J Q R | -. .L U t &.^ &.) + ",
"+ :.@.@.x.x.;.u.l.h.w.3.#.*.9.w.w.5.2.w.,.q.f.f.u.h.;.6.5.h @ _ y.5.t.>.Y i.:.Y 3.<.:.f.y.<.;.=.;.@.=.%./ &.=.r.u.7.y.y.=.@.#.+ ",
"+ #.9.;. .x.w.q.<.h.u.f.x.<.&.Y  .3.x.q.<.d.7.k.7.5.d.r.0.h + :.%.;.<.x.t.Y 0.0.Y :.<. .f.k.;.&.9.5.2.^ #.t.%.y.w.:.0.w.&.y.%.+ ",
"+ <.@.y.#.#.y.w.<.9.w.h.l.<.<.<.#.q.q.y. .:.k.0.s.&.<.y.3.b O %.t.:.#.;.d.g.) *.k.%.=.y.@.:.p.y.%.3.k.l.y.%.u.s.*.&.%.0.t.:.q.+ ",
"+ <.<.h.0.y.r.5.u.r.l.r.f.f.r.<.=.3.9.<.;.;.9.l.t.k.r.%.;.n @ &.7.:.y.&.&.y.s.7.#.r.3.5.*.Y :.f.7.;.@.u.v.u.H &.a.w.^ t.0.0.%.+ ",
"+ *.w.<.&.^ 8.&.=.y.f.k.9.s.k.y.=.&.;.e.h.<.%.%.p.t.s.r.5.h @ :.s.#.7.k.*.@.:.r.g.r.5.%.:.@.U *.r.k.q.r.9.u.y.=.S ;.y.&.g.%.:.+ ",
"O #.t.y.=.U ^ @.9.y.r.9.s.t.t.f.r.@.&.<.q.r.q.&.%.3. .5.8.M @  .%.y.<.5.v.y.^ %.f.f.*.y.:.<.&.;.=.=.s.u.#.y.0.7.7.^ :.;.&.=.c O ",
"+ ! <.g.f.#.&.*.:.:.y.t.r.y.:.:.<.9.%.#.7.=.q.5.:.z.&.,.6.T @ :.=.#.0.9.w.d.r.) Y r.w.;.,.7.*.y.,.;.( 0.q.) &.y.6.*.&.t.:.>.^ + ",
"O <.@.*.q.h.9.9.t.y.:.7.r.9.<.=.:.w.9.;.9.7.;.y.g.r.w.-.s.E @ ( &.-.<.2.6.:.*.;.*.<.5.;.! &.5.:.,.;.;.,.5.) ^ ,.;.;.( ,.;.5.*.+ ",
"+ r.0.&.3.r.:.0.3.k.0.@.<.9.<.5.@.9.w.f.3.0.:.u.j.g.r.g.&.M O >  .^ &.T S n U P ^ &.Z ) / ) ) }  .W } ( { &.;. . .( D T T n r + ",
"+ #.s.t.<.s.<.<.f.7.l.s.#.:.r.<.=.q.q.t.f.5.k.9.0.j.r.g.g.u   X + + + + + O O o o O O X X o   o O + + + + + + O O O + O O O +   ",
"+ 7.%.%.5.9.s.:.u.r.8.k.d.<.:.:.<.3.*.:.t.r.:.l.q.w.z.p.t.n + > T { ..,.,...,.,.X.....X.l , @ : n } <.2.q.,.X.-.;.+.X.X.2.;.b + ",
"+ &.g.@.#.#.y.y.=.r.<.:.k.0.:.:.&.<.5.y.r.s.f.f.d.y.y.3.i.M + g 3.-.5.7.:.;.;.;.-.5.,.;.;.n + i 3._ *.%.<.<.#.Y Y %.%.*.*._ n O ",
"# I :.0.J 9.:.0.<.3.*.:.*.k.3.:.9.@.#.<.3.r.t.k.7.h.u.0.0.T + Q 0.r.%.3.5.:.6.*.&.<.%.%.H W # ' k.y.3.<.q.*.q.<.&.;.0.5.P =.K + ",
"+ <.*.*.#.^ <.#.<.r. .^ :.3.p.<.9.s.<.:.s.f.y.:.f.7.5.7.s.E @ ~ ;.g.*.%.6.s.6.<.h.<.:.:.) @.# ..s.9.3.6.5.<.y.*.<.2.s.5.r.6.>.+ ",
"+ _ t.%.0.g.r.=.=.k.3.<.:.*.*.7.&.g.k.r.@.g.s.t.y.r.k.<.5.T @ ! ! y.t.y.u.q.<.y.<.y.u.w.<. .$ o.r.^ 5.:.#.*.d.&.&.y.s.s.^ 7.;.O ",
"# ' :.f.=.&.0.0.5.>.f.<.:.&.^ &.&.<.g.s.t.:.k.g.6.6.0.7.s.n @  .R #.3.r.u.x.q.;.q.<.y.q.;.<.# ' :.3.:.J t.=.3.7.:.;.3.g.<.;.3.+ ",
"@  .*.&.s.>.^ @.3.5.r.g.<.6.U J ;.3.3.8.t.y.r.y.7.3.s.&.t.p + ^ =.#.=.q.u.k.9.&.3.#.<.u.:.3.# ' &.*.=.>.r.s.<.d.k.:.<.y.k.3.-.+ ",
"@ ) *.W 3.7.3.%.7.5.:.^ ) -.{ ) &. .;.&.) ~ %.U %.t.t.8.*.5 + I :.7.r.9.;.k.u.%.;.,.^ <.) ,.@ | #.P Y 0.=.7.3.:.y.s.3.<.:.5.,.# ",
"O 6 7 s h b p d l M N N d m N ` E N h l l l E E E E N h j * O ^ H 5.r.s.0.@.y.r.r.y.&.) ,.;.@ ' 0.7.@.*.7.:.9.:.3.0.t.>.^ r.&.@ ",
"  @ # @ @ @ # # $ $ = = $ # # & # # $ $ $ $ $ $ $ $ $ # X X X Y =.3.3.<.k.t.:.t.w.3.u.3.) ;.# [ 3.9.0.&.:.k.7.7.:.&.*.=.7.5.} @ ",
"@ p W &.Y %.~ ~ %.;.*.&.*.*.&.<.:.:.;.<.7.9.7.3.,.:.*.5.Q @ @ Y P :.5.&.<.y.r.:.r.#.q.;.*.} @ o.@.=.t.t.} 5.k.7.( t.=.H :.2.~ @ ",
"+ _ 2.^ %.:.Z _ 5.&.Y &.<.y.U &.q.Y G Y :.5.>.p.p.3.*.%.w.g @ K @.@.7.5.&.*.k.:.@.#.,.^ U  .# O.@.@.<.t.t.9.r.k.5.^ g.^ j.<.) @ ",
"+ *.:.2.Y Z *.=.%.7.%.6._ r.&.H 3.0.s.7.@.*.:.s.i.7.5.I ^ Q @ ) U @.*.t.:.%.&.t.%.<.5.^ L ~ # o.>.8.*.:.t.i.5.0.l.7._ 8.*.6.;.@ ",
"O  .$.c *.L 5.*.t.Y 8.t.r.r.0.^ U =.y.0.5.H L $.5.^ 0.g.^ Q @ ( <.U %.#.:.:.@.H r.5.^ P Y _ & [ *.3.0.*.%.p.s.>.%.3.8._ ^ :.%.O ",
"+ &.! %.%._ :.*.%.t.:.;.7.5.*.t.:.%.>.s.p.0.*.*.&.a.;.3.:.T @ Q 7.H U } *.:.=.7.%.k.y.:.#._ # ' *.*.8.s.$.8.g.r.i.&.:.i.^ ) ^ O ",
"+ ,.*.3.0.&.=.=.P *.3.%.3.t.W F 7.>.! %.7.p.k.8.%.@.f.3.;.{ + / ! 0.=.<.:.U @.7.=.P 0.7.&.{ # O.>.8.=.:.g.:.0.z.a.y.3.>.a.*.W O ",
"+ / 5.Y $.r.S %.3.%.^ 3.0.$.7.) #.3.=.K ~ 5.t.s.8.~ @.*.G T + W c @.9.:.r.3.^ Y 5.$.*.3.&.( + [ :.3.7.s.0.g.$.0.t.t.Y I 3.r.^ O ",
"+ M H &.G &.~ x G %.Y Y &.3.t ^ R ^ *.:.=.L ^ :.3.) *.%.P h + I @.t x %.^ #.5.G #.0.%.$.~ T # E &.t.:.r.8.5.0._ 5.t.3.:.^ K h + ",
"X 7 v ! 1.!  .~ F W  .+.;.X.,.,...Q /  .;.;.;.( (  . .( / y + r t J J Z ~ I Z | ! Z ) A r i @ 0 W ;. .Q  .X.;.2...&.| X.;.Q i + ",
"  O O X X @ O O X O O + O O O O O O O O O O O + + O X O O X   O + O O O O + O O O O O O O O   X O O + O O O O O O O O X X X X   "
};
