/* XPM */
static char *result[] = {
/* columns rows colors chars-per-pixel */
"64 64 186 2 ",
"   c #283030",
".  c #0F0F18",
"X  c gray6",
"o  c #0F2121",
"O  c #0F180F",
"+  c #212118",
"@  c gray13",
"#  c #182118",
"$  c #181818",
"%  c #0F1818",
"&  c #180F18",
"*  c #181821",
"=  c #180F0F",
"-  c #182121",
";  c gray3",
":  c #080F08",
">  c #08080F",
",  c #0F0F08",
"<  c #080F0F",
"1  c #212830",
"2  c #212128",
"3  c #182828",
"4  c #393941",
"5  c #A12418",
"6  c #0F0808",
"7  c #0F1821",
"8  c #182128",
"9  c #303930",
"0  c #5E591C",
"q  c #283939",
"w  c #212828",
"e  c #303939",
"r  c gray19",
"t  c #283028",
"y  c #282828",
"u  c #282830",
"i  c #303028",
"p  c #414128",
"a  c #393928",
"s  c #393921",
"d  c #514939",
"f  c #494921",
"g  c #212821",
"h  c #A38D12",
"j  c #394949",
"k  c #415151",
"l  c #394141",
"z  c #304141",
"x  c #304139",
"c  c #211821",
"v  c #303021",
"b  c #182821",
"n  c #210F0F",
"m  c #211818",
"M  c gray39",
"N  c #393039",
"B  c #6A6A6A",
"V  c #393939",
"C  c #6A7272",
"Z  c gray35",
"A  c #515963",
"S  c #302830",
"D  c #495149",
"F  c #213049",
"G  c #414963",
"H  c #283039",
"J  c #6A6A63",
"K  c #B5BDC6",
"L  c #495151",
"P  c #414141",
"I  c #213028",
"U  c #496393",
"Y  c #9CA5DE",
"T  c #415159",
"R  c #394149",
"E  c #081808",
"W  c #08180F",
"Q  c #0F1808",
"!  c #283941",
"~  c #18180F",
"^  c #303039",
"/  c #282121",
"(  c #0F1828",
")  c #515159",
"_  c #59636A",
"`  c #63636A",
"'  c #515959",
"]  c #515151",
"[  c #494951",
"{  c #494949",
"}  c #414949",
"|  c #08286A",
" . c #0F3072",
".. c #21418C",
"X. c #213983",
"o. c #183972",
"O. c #6A7283",
"+. c #9393A5",
"@. c #93A5B5",
"#. c #8C8C93",
"$. c #83838C",
"%. c #838383",
"&. c #728383",
"*. c #727283",
"=. c #6A726A",
"-. c #596363",
";. c #41598C",
":. c #596AA5",
">. c #516A9C",
",. c #41638C",
"<. c #395183",
"1. c #6A6A72",
"2. c #284993",
"3. c #39599C",
"4. c #516AAD",
"5. c #305193",
"6. c #28498C",
"7. c #214993",
"8. c #394139",
"9. c #838C8C",
"0. c #72838C",
"q. c #727272",
"w. c #5183A5",
"e. c #728C93",
"r. c #59596A",
"t. c #30519C",
"y. c #728393",
"u. c #636A6A",
"i. c #516359",
"p. c #213030",
"a. c #6A6A83",
"s. c #284172",
"d. c #419C41",
"f. c #213930",
"g. c #51AD59",
"h. c #636A63",
"j. c #595963",
"k. c #596A6A",
"l. c #414149",
"z. c #515149",
"x. c #302821",
"c. c #282818",
"v. c #282821",
"b. c #51636A",
"n. c #6A6363",
"m. c #A58C0F",
"M. c #393030",
"N. c #41300F",
"B. c #282118",
"V. c #515163",
"C. c #414951",
"Z. c #495159",
"A. c #635959",
"S. c #0F286A",
"D. c #0F080F",
"F. c #394941",
"G. c #213939",
"H. c #281818",
"J. c #283021",
"K. c #24392E",
"L. c #3B6A2D",
"P. c #49B549",
"I. c #378B37",
"U. c #18210F",
"Y. c #213021",
"T. c #283928",
"R. c #C6CEDE",
"E. c #BDBD21",
"W. c #8C7241",
"Q. c #413939",
"!. c #282128",
"~. c gray61",
"^. c #212818",
"/. c #0F210F",
"(. c #510F08",
"). c #419C39",
"_. c #181808",
"`. c #726A18",
"'. c #EACB0F",
"]. c #304121",
"[. c #182818",
"{. c #495959",
"}. c #0F590F",
"|. c #51690F",
" X c #081818",
".X c white",
/* pixels */
"  . . X X X X o . . X O . O + + @ # $ X % X . X X X X X X X . X . X O & $ $ X X X X . . X X * $ $ X X X X X X X . . = . X X X X ",
"- ; ; : > ; ; ; ; ; : > ; : , ; > ; < ; ; ; 1 2 2 - 2 3 4 5 2 ; 6 . : < X ; ; ; ; > ; ; > ; : X ; ; : ; ; ; 7 * @ 8 8 @ 9 0 q : ",
"@ % - @ - w w w w - w - w @ 1 w w 3 w - o ; e r   w t w y 5 u X @ i i p a s s s a s s s a s a d f s s i g X             e h 9 X ",
"- w q q q j j k k j l l z q z x q q x q # ; r   w $ % $ * c y < - w t r   w g 1 t u   @ w w v s 3 b w g b <   y w $ % % n m e < ",
"- 2 z M N k B V j C V 4 Z v 4 A r q Z S - ; 9 w % V D N $ & y , o w : : : : : : : : : : : : : : : : : b b ; q @ % F G F 7 $ w > ",
"- t z @ u l   r z y V H - t q @ y q # y - ;   ; y J K L P & % ; - w g - - y I w - # 8 g - @ I w - w I w b ;   > 1 U Y G T . = 6 ",
"w w q X y H X r R $ V z X y x : y q ; y w ; r ; % 9 D V $ . O ; # @ : : E : : : : : : : W Q : : : : : o @ % l ; 7 F G ! 7 % ~ ; ",
"- w e y y !   r ! y r z ^ y z y ^ z y t * ; l 2 ; # / $ X O 2 ; $       u w y I           y     y       e % u g ; ( 1 7 . ~   ; ",
"g - - w w w w w w - - b 8 g - - w w - w - ;   g 2 X % . % w w ; O O O O O O O O O O O O O O O O O O O O O O   w @ X % . $ w   ; ",
"- u l ) _ _ ` _ ` ' ) ] ] ] [ ] { P P } V ; r w y 2 2 2 w y r ; $ |  . ...X.X.X.X. ...o.X.X.o.X. . . .X. .;   w w w 2 w y u 9 ; ",
"- L O.+.+.@.#.$.O.%.&.*.=.C %.C C M -.C L ;   < 2 . @ X y X ^ ; - X.;.:.>.U U U ,.;.U U U ;.<.<.,.;.<.X.X.;   > @ % c X   X w ; ",
"- 1.K K K K +.$.&.1.1.B C *.%.B O.=.) 1.k X   ; r $ r X e X u ; - 2.3.4.4.4.3.3.3.5.2.2.6.6.6.7...X...6. .O 8.X y $ ^ X ^ X w ; ",
"2 9.K K K @.+.0.C &.*.%.0.$.&.&.q.M _ C ' X   @ 4 u       y u ; - 5.:.@.+.:.w.:.>.,.>.:.U >.U >.,.>.<...X.;   - r 2 l       q ; ",
"# e.K K @.+.$.O.&.$.0.#.%.%.$.%.q.B 1.q.r.X . X $ X X X ; > ; ; - 2.3.3.4.4.3.3.t.5.t.5.5.5.5.2.2.....6.X.; q 2 ^ y V V   r q ; ",
"- *.+.+.+.y.0.%.C %.*.&.q.%.%.%.O.q.u.1.i.. 9 e   e l x e e V ; - 2.U w.:.:.:.>.,.;.>.>.:.:.U >.,.<.<.6.o.;   2 y w ^   u ^ q ; ",
"# =.0.O.$.$.O.%.*.O.q.%.%.%.e.%.&.B M q.) : e   w - I I q   p.X - 6.5.3.3.3.3.t.t.5.2.2.5.5.5.5.6.......X.>   - I 3 x w g p.r ; ",
"w _ a.&.*.&.O.&.u.9.&.%.*.%.%.*.B B M M } ;   3 w *   $ b 3 3 : @ ..U :.:.>.>.>.:.<.,.>.,.;.,.U s.,.<.6.o.:   I d.f.g.x g.q e ; ",
"- A &.u.u._ q.u.0.q.%.%.%.&.q.%.h.h.j.M P >   I I 3 I w I w 3 ; - X.2.2.5.5.t.2.2.2.2.2.2.5.5.6...X...X. .: r I I I f.q j l   ; ",
"@ ) -.u.*.=.k.O.B q.q.C O.%.q.=.M Z -.) l.; r : p.X I : I < w ; - X.>.>.>.,.;.:.U <.>.,.U >.<.,.,.>.s.X. .;   e e 9 l 4 V l e ; ",
"- ' j.C ` 1.u.q.C q.C %.q.%.` q.i.z.] ] D X   p.f.I q q f.p.I ; * X.....6.2.6...6.6.6.6.6.2.6.6...X.X.X. .X x.c./     w t v.v.; ",
"$ ] b.) A h.1.` q.1.%.B q.=.n.=.' D { z.4 ;   > z O q : q X I ; - o.;.,.,.,.>.>.U U ,.,.,.>.<.,.U ,.<.X. .X v m.g t m.y l m.g ; ",
"* } [ L ] M C 1.` q.B q.=.B h.M M [ { l.e ; r x x q x p.f.q p.; * X.X.X.X...X.......6.6.6.6...X.X.X.X.o. .< M.N.c.  N.v e N.B.; ",
"$ 4 l l.} L V.-.r.M M *.B n.M Z ] D 8.} e X r x z % x X q x q ; *  .s.,.<.,.<.s.s.<.<.s.U >.,.U <.s.s.X. .X / = v.  = c.H = c.; ",
"; l l.l.C.V.Z.V.-.-.j.` M j.A.z.z.P { P V ;   q z j j j q q q ; *  .X.o.X.X.o.X.X.X.o.X.X.o.X.X.X.X.X.o.| < v./ /   / g   / B.; ",
"$ l.l.l.k [ R P [ } ] { { [ { P P { P P 9 $ l x x l m.9 j x f.; -  .s.,.<.s.<.<.,.s.s.<.,.s.,.s.s.s.s.X. .; v m.g t m.y l m.x.; ",
"$ 4   ^ C.e l 4 V L 4 { P l l P V 8.P V y : e q z x N.e j x x ; $  . .| S. . .S. .S. . .S. . . . . . . .| X M.N.c.  N.v e N.c.; ",
"X X X X < $ : < ; ; ; ; ; 6 ; ; X @ ; > ; D.H F.j G.H.9 x x x ; ; ; ; ; O : X : X ; ; ; ; : ; 6 D.; X > ; ; / = v.  = c.H = J.; ",
"; - K.L.d.P.d.L.- * M & - M   w M - 8 I.8 ;   x G.x y w x G.G.; $ - K.L.d.P.d.L.- $ M * y M @ 2 I./ 8 I.- ; v./ /   / g   / v.; ",
"y # O O O U.~ $ - * = * - $ - - $ - - % * ; O O O O O Q O O X ; $ 2 O % $ o ~ O - * m * - $ * @ / * - % * ; - # - * - - @ - - ; ",
"- . X X X . X X X X $ . X X X X X X X X X ; < X @ $ X X X X $ ; $ X X X X X X $ X X X X X % X X $ X X X . : X X X X X X X X X ; ",
"- ; ; ; ; ; ; ; ; ; ; ; ; > X < . ; ; ; ; ; ; ; ; ; ; ; ; ; X ; ; > : X ; ; ; ; ; ; ; ; ; ; ; ; ; ; X > ; ; ; ; ; ; ; ; ; ; ; ; ",
"$ y y y u S r u S y t t S r r M.u y u v y ; # t b g g g g w t ; $ - 8 w 8 @ - * - * 3 - - @ - * w - * - $ ; - g t t I w g J.Y.; ",
"* * $ $ $ $ * # $ $ $ y - - @ * $ $ $ % y ; , > , > # # + # g ; * V 4 8.V 4 r V e V ^ ^ V ^ V ^ r N   P - ; g ~ ] ) ] ' ] { t ; ",
"* $ . % . * % $ % $ $ % @ - + % % X % - w ; o w w w O w g I g ; # e M.r r 9 r u r     r P r r u u r v u - ;   . P P l.{ } P J.; ",
"* 4 *.$.*.4 % % 2 j.%.) w $ % u j.%.Z c * ; ^ l P l @ g t 9 T.; - r 0 r e #.y r #.y S #.y   #.y r #.t y # ; 8.X < > < ; ; X : ; ",
"$ 1.R.$.$.=.$ % j.R.&.%.V.% * j.R.%.&.j.% > 1 ) ' # L O %.8.O.; * S E.r r x $ w G.@ v.G.# 2 f.$ w q t @ * ; 9 E l 6 9 O Q W.: ; ",
"- 9.*.l C O.% $ %.*.l.&.&.$ g %.*.4 *.*.$ < w C q.% % O # O o ; #   Q.    X $ w ; $ w ; @ @ > % @ X % y * ; t O : . ; O Q U.: ; ",
"2 q.+.C +.q.% % Z +.q.+.B $ $ -.+.1.#.j.$ ;   %.%.# V.# 1.v.' ; # S u   r - $ y $ $ y $ $ @ # $ g $ $ M.- ; 9 O } ; V U.~ W.: ; ",
"2 l %.$.%.e % % !.-.9.-.@ $ % w j.9.j.@ - <   ~.~.$ b O # O $ ; - r r r e V y u r     r u u r y   r w y * ;   Q , ; 6 Q O ^.: ; ",
"1 * $ . % $ - * $ % & $ $ - - - * % % $ $ < 1 %.%.# L g *.J.O.; # ^ 0 ^ V #.y e #.@ ^ #.y e #.g r #.y   # 6   /.} ; l O Q W.: ; ",
"u - $ 8 $ 8 - w - * @ $ - 2 2 - $ * $ - - X w B &.. % O # % # ; - e E.G.^ f.$ u G.@ y f.2 y f.-   G.- g # ;   Q ; ; 6 U.Q Y.: ; ",
"1 3 - Z $ 8 > @ > - ) O - < 3 > - ) O @ - < 1 ' ' % L # O.t ' X - q f.  S > $ 2 ; ~ r ; $ g < $ y ; O y $ ; t ~ l X e O U.W., ; ",
"  2 $ $ * w w w 8 * . $ 2 w r - * . $ w - X w l l $ 8.% l % 8.; * S S r S @ $ 2 $ # w $ $ w m y @ $ $ y - ; t O < > # Q /.c.: ; ",
"H w 8 - @ e < w < - $ - w ; w > #   - w @ < 4 } l V o # ~ O o ; * r r   r y g u S 2 y v.y y t y y y !.  * ;   /.l.X l O Q W.E ; ",
"H u w * e w ^ ^ w u - w w w 1 w 2 - w 1 - X w y w - O v.(.G.).; $ r 0 M.P #.!.y #.B.y #.@ S #.@ y #.+ v.* ; 8.Q X ; $ /.Q ^.; ; ",
"- u - l.% 2 < u < - ] $ 1 > 1 > - } % u u < $ $ X X $ v.(.g K.; # v E.Q.S G.m r G.m @ G.m y G.$ g G.$ w $ ;   /.R : l U.t %._.; ",
"; 1 - % - 1 u   1 - %   1 p.H 1 w $ w 1 - X - # y e V x 9 I I ; * S M.y y 6 $ # D.$ @ 6 $ $ = @ @ 6 $ @ - X t O ; ; D.O U.U.: ; ",
"$ w w 2 w u   u 1 2 - ^ u u   1 2 8 2 w - X C g &.  C @ C r ' ; * @ @ @ @ @ @ @ y @ g @ @ @ g w g @ @ @ - ; e O O O O /.O _.; ; ",
"$ - * # 2 y * - - $ * 1 - - - - u $ % - - X } D.F.X R : l $ e ; $ # # $ * @ $ $ $ @ $ $ $ # $ - $ $ # - % - - : , : X : , < , 6 ",
"- > $ < , , n ; ; ; ; ; ; ; ; > 6 ; ; 6 X ; X W # % U.O O W O ; ; ; ; < , , = X X X X X ; ; ; X : ; ; X ; X : ; ; ; ; ; ; D.; : ",
"@ # s `.h '.h `.@ 2 h.y g h @ w n.w w B   X : ; ; ; ; ; ; ; ; ; $ - ].`.h '.h `.# - ` - - h   g n.- g h.g b 2 - - I g w y t w 6 ",
"$ - m v.x.v.+ ~ w * $ - 2 m - u $   u $ - % $ $ - - 8 - 8 - - ; $ w m + + + + $ - 8 # w - $ w - $ - - $ - g w 1 w - t y g I y X ",
"# $ y @ y @ @ @ # @ % $ m ~ c $ $ $ $ $ $ % $ $ % = % $ # @ ~ ; $ @ @ $ @ $ $ $ $ # @ $ $ O $ $ $ ~ % $ $ $ $ X $ $ $ g t ^ # ; ",
"8 }   < L   X ' t [.} 9 < ) x $ L w : ' -.' C.; O t J.J.c.g g ; - ) 9 X ) 9 < Z.r [.} t : k t X L I X {.i.' k - l j T C.T {.{.D.",
"- X : # . ; # X : # X > # O : v.X ; # ~ < b $ X t }.d.d.P.d.|.; $ % > # ~ < # $ X U.X X b O : [.% X # ~ # # O ; j j {.X k V.i.< ",
"# ) e $ _ e > k.e # ' l < _ e X k.e < _ e . k.X # ^.c.J.v.T.t 6 2 ' e X k.e X O.e # ' 4 : _ l X k.l X k.l X _ @ k - T O k w {.> ",
"- # X @ g X # % , g O - g % X # O : - # O # # X T.}.d.d.d.^.^.> # X X # $ O - # : [.~ O # $ O # - O @ ~ # g $ X {.. r.@ i.O i.; ",
"- ' ' A O.R : k.e [.' e % C e X C ^ O _ V O *.~ 8.9 9 J.J.c.g ; - j.' A &.l O u.e g ' e X _ e X u.e X b.H X -.w A b C X {.w b.; ",
"$ - # v.9 t $ @ g v.g g + t g # r g $ y b $ g ; t }.d.d.d.d.}.; # ^ Y.- w g $ @ [.t w g $ w g # u b $ g # g 9 @ {.` O.O r.-._ ; ",
"; P u w ' e g j.A -.j.Z.L Z.' Z.) w % L S # [ > ^.v + v c.^.g D.g ' V # Z.w # L Z.' ' A ' ) L Z.' 2 % L 2 ~ L % k i.T A -.k.C ; ",
"$   9 v.} F.t } } 9   t 9   T.  9 t O e t % e ; ^.}.d.d.}.J.g > - 9 8.# l 9 + l 9 e 9 9 t q t 8.9 t O e   ~ e $ T G O i. Xb.O.: ",
"$ X < # X X $ % , D.< D.< D.< > , X # $ X # $ ; ^.^.Y.J.v.^.^.: @ % X # % X - # X X X < , , X < X . @ % X - O ; k i.j b.x k.b.< ",
"$ ; ; ; ; ; ; ; ; ; ; : 6 ; X ; ; ; ; ; ; ; > ; ; ; ; > ; ; ; ; ; ; ; ; ; ; ; ; ; ; ; > ; ; ; ; ; ; ; ; ; ; > ; ; ; ; ; X < X X ",
"$ - - - - - - - @ 2 2 - 2 - @ - @ w w 8 y 3 w 3 2 w w w w w y w w w b g 3 w 3 2 3 w - g 8 w - 2 3 2 3 w 3 w g w 3 @ w w w w # - "
};
