/* XPM */
static char *result[] = {
/* columns rows colors chars-per-pixel */
"64 64 27 1 ",
"  c #452723",
". c #2C1414",
"X c #171719",
"o c #56322A",
"O c #484848",
"+ c #8D6643",
"@ c #280E00",
"# c gray3",
"$ c black",
"% c #505050",
"& c #613E2F",
"* c #202020",
"= c #381C18",
"- c #7D573B",
"; c #282828",
": c #714A37",
"> c gray22",
", c gray19",
"< c gray47",
"1 c gray25",
"2 c #585858",
"3 c #606060",
"4 c #A67E5A",
"5 c #373739",
"6 c #101010",
"7 c #686868",
"8 c white",
/* pixels */
" .X.X oO+ . @XXXX#XX##X$%X@@$XXXXXXXX#X.%%&&ooo%Oo&oO o&   %  . ",
".oX.  OOO  XXXXX#X@##X$*%XX@@X.XXXX@@@X=%-O%o%ooOOo&Ooo % oooo  ",
"X .  oOO+=.@@@XXXX@@#X;XO#XX#XXX@X@XXX$.O:Oo&oo&Ooooo oooo  O  .",
"o=.= ooO+ .X.X@XX@@@XX.*O@;#XX@XX.=XX#X>O-OOOo  ooo   o    o= o.",
"     o O+. @XX@XX@.XX#$#O;;;##X#XXXXXXX>&:Ooooo%oo o   o oOo o .",
" . =o oO+ X#XXXX@#XX#X#$&;;#X#@##$X#XXX,&:OOoooo ooo    ooo     ",
"   = ooO+o.X@X@XX$######%#XX#XXX@X@XXXX&O-OOooo  =o  o     o..  ",
"oo    .+< XX@#.X#XX#XX$#%1,,o======o====1&o,,oooo,,,,,,======= o",
"&&&&1112: ;XX@XXX@X#@##X-&-3--33-&::-3&--::--3-33:%%:3-:o&&:--->",
"oOOOOOOO+ X@XXX@.XX#@##*4%%%%%o%%%%%%%%%%o%%%oo%oo  o  23O % o >",
" o  . .O3o.@@X@XXXX#XX@o+ ooo  o&o&o%o&%%%oo%oo%oo     22  ..=  ",
" ..... %: XX@@X@X@@X#X$.-      oooooooo%&o%ooooooo =   -2   .  =",
"X.@X.  %- @X#XXX##XX@X. -oo = %%o%o%%&%&%o%%o%oooo   o O-=o  o @",
".X@X.  %-=XXX@XX@X#XX@# %     o  oooooooo ooo ooo  o   %+ ....XX",
"@XX@@  &-  .@X@XXXXXXXX %.  o ooo o ooo oo&    oo ooo =-- =...XX",
"XXXX.=11-o   @X@#@XXXXXo%=  ooo o.o o oo o        ooo o-4=  ..=@",
"X@XXX@ 1-.. @X@XX@@.XXX1% o o                        o ++=. ...X",
".=XXX@X1-.. XXX..X. .@X1- %o    oo o ooo o   o  oo  oo +-  ..X@.",
"XXX .X 14==;=X@X=....XX - o o &  o   o o&oo    o o oo= -+o.XXX.@",
"XXX@.X.,% .....X X.@...o%.o o oo      o oooooooooo oo o:- ....@X",
"XX#XX..,OO;;@.XX.=.@. X.- % &ooooooooooooooooo oooooooo%-....@X@",
"XX#XX..1O@;@.X@XX=.@@X o- %oooooooooooooo&&1   ooo o%oo%- XXX@XX",
"@X@X X@1%=@;@XXXXX@@X@@ %    ooo&oo%oo111&&1&&o&oooooo1%%=X.===X",
"XX@X.XX5%:;XX@X@XXX#XX#%%  o oo&&&oOOOo111OOOOOOO&1111O%+ ..XX.X",
"X@X X  5-:11&ooooooo&&&1>;o,,o,ooooooo,,,ooo&ooooooooo,o&  . XX@",
"@XXX XX5%%----%%--4+++++--%-%%%%%%%%-%%-:--&--3--%-:---:- XX=X.X",
"@X@X X.1%%%O%ooo%%o%%o%%o  ooo    =  .o &%%2%%O-:111OO3:3.= = =X",
"XX#XX..,&3OOO o%ooOoo%o   ooo   ... XX.*:1O111&&o &11%2--..XX@XX",
"XXXX=X.,%:OOOoOOoOOooo   ooo X...  @..@ :O11o&o1ooo1%O%:3 . ..@X",
"X@X@.X ,%:OoOOooOOOoooo  ooo ...  .X. . :111o&1o11oOo&&:%  ..=XX",
"@XX.XX.1%3O&ooOooOoOOoo% oo  =.X.X=@  . :&&ooOooOo11%o&:%  XXXXX",
".@XX@X 1%-O oOooooooo% oo   ..@ .@X. X  :ooo o11ooo1OO&:% . ...X",
"XXX...=1O-oooOOo&Oo %oo%  oo .. . X.==  :oo o111&oo1O1O:% . ..=@",
"@XX@X o=O+%&OooOOOOo%oooo oOo ...=X.X o ooo%o1111o1OO1O1%= ...XX",
"XX@X =  O<%ooOoOOOoooooOo oOoO =. X=o o &, oooo1oooOO11o- @...@X",
"=X@..   O-OO&&OoOOoooooooOoOO o=.  .. o=&O % ooo oOooo1o:o=X  .X",
".@@X.   O-Ooooo ooo    o oo o  .  . .o .&1 o ooOOoOoooOo+=     .",
"  ..@= o:-%OOOoo OoOo o  %oo     .o=%o X&>   oooo1ooo%o&%   .   ",
" OoooooO::%OOooooo        oo     . .  oo&> o oooo oo oO&2   =   ",
"O&OOOoo:3:5o55oooo555555,,,,=,,=,,,====.:1  oo1o1o1   % OOOO2OOO",
"32--&---<3----3-33-33-3-:::-+---%+-++%%%1o   ooo o    oo-:333::+",
"%%O%%%%o%%%%o%oo%%%%%%%%+&.  . o= =  o% %o Oo1    o o  o+-o%o%%%",
"  oo==             .  oo+o@X.XXX#@@XX##$oooO oo O oooo %--o  oo ",
"      o     ==. &o    o%+oX@XXXX#@###@XXoo o 1O1o =oooo%--      ",
" .    o     ooo  o ooo o-=@X##XXX#@##XXX     Ooo .   oo%2-      ",
"o  oooo o oooo  o oooo o-oX@@XXX@###XX## o;   1 .X .X o 2:oo =  ",
"  oooo% ooo%oooo%o   X. -oX@X@XX#@#XXXX#o&   o ..@ ..   2%o     ",
"   ooooo     o=oo  =  ..- X#@XX##XX@XX#$%  ..= .  X..  oO-o   ==",
"O  ooooo=o oo = . o.  ..-o.#@XXX#XX#@@#$%o   .X.... .. oO- o o& ",
" o    oo     = . .=   ..%oXXX@@XX#$##@##>o..   = @X  . OO-  o&&o",
"Oo o  oo  o     . .    .%o@.@@XXXXX#$#X#,o o. XXXX=. .=1O-o o%oo",
"oOOOo O o  oo        = .%o = =XXX@#$##$$, *= .=...@X@  OO-&ooo%%",
"OOoooooo&o oo  o  .... X%  =.@.@####@X#X%  %..oX=  ..X OO+%%%%%%",
"o&OO%oOo ooo  o ... ..o.%&=.XX@XXXXXXX@X>  oo   =X  .X.12-%%&%&&",
"=o %ooOo       =. X    @%=..=XXX@X#XX@XX> o  ooo  ..@.oOO-o&%o&o",
"&&111111oooo oo ooo    .%oX.XXXXXXXX@X#.-;=6..=======.=,1:%-%%--",
"77-77-7:&&&&::::1::::2%%%o=..X@=X@@X.=X -%=,,,==,,***,,,O3++++<+",
"o    o %+++-7-----------22XX @.X=XX@X@X -:%%%%o%%%%%O1111%o%%oo ",
"  . X .%-  = **== = % o % @X.XXXXX.XX@X %:2O111OOOOOO1ooo oooo  ",
"@...@.o%+%X.=@X@X@XX=XXX%.=XX.XXX..@X@#o%:%% o%&ooOoOoo  o%  %o ",
"  .@.X@%+%.@XX#XXX#$@@@X% @.@XX@X=..@.@%::%%ooOOoOOo&O   ooo...X",
"..X.. .%: ..XX.@X@XX@@XX%@X@@@X@XX.X.XX%%-%OoOooOOoOoo    1  . .",
"X... X %-o.....XXX@XXXXo%XX@#XXXXXXX@X@ :-- &OOOo%ooo&o1 o=   X ",
"..X.. o%4=.@.XXX@XXX@@XX%.@@XXXXX#.@XX@o%%%oO%ooooo 11o o ooo.@."
};
