/* XPM */
static char *result[] = {
/* columns rows colors chars-per-pixel */
"64 64 29 1 ",
"  c #2F2B26",
". c #342F29",
"X c #37312A",
"o c #3A342D",
"O c #3E382F",
"+ c #3F3930",
"@ c #433C33",
"# c #474137",
"$ c #4A4336",
"% c #474238",
"& c #4A4439",
"* c #4E483B",
"= c #524C3E",
"- c #554E41",
"; c #584F41",
": c #575042",
"> c #5B5345",
", c #5F5748",
"< c #5F5849",
"1 c #605746",
"2 c #625947",
"3 c #605748",
"4 c #635B4B",
"5 c #685F4E",
"6 c #66604F",
"7 c #69604F",
"8 c #676051",
"9 c #6A6252",
"0 c #706653",
/* pixels */
"$&$*&$$$&*$$$*&&$$$$&$$*$&&%%%%%%&%%%&@-%%%%%%###&####%%$&$$$*$*",
"$99946775634647955869998499969990984444446869975464335346796999#",
"#775555,2>,2433446476444344<,>43444,,4<,>,,>7>>>,><3257>2653579$",
"$555341,22>,444449953333<4<>>><<44<,,:,:::,,4=>=>>3<57735352277$",
"$77435,,55>,<44344944,4,344<3>>><<<;,,<,:-:,>-:;=:<>,4525342277$",
"$7544073,5=>446494444,>>43<<,>>,>;>;,;:::::>:-:::,2244245705547$",
"$7745053,3,=533484444,,,>><<>>>>>>-:>;;::-:>>:>>>,>,44544475399$",
"$7542>2>===&>:=;&*---***::>::*=---------****::*&===>==>4,4>2557$",
"$7443,,>>>>=:;*=;*-:-*==;;:===:=----***==&=>;-&;:*;;=>>1,,23449&",
"$9945,<,>@&#$&+#@+@@#@@%#@o+@#%Oo+@o@oO##@@@#@@@@+%$$$@>,,,4489$",
"$953,2,>>@2,:<>,<,,<>:<3,3<<<323>,<;2252>>2>4<,<,>,:13@=>23,359$",
"$656433:>O42>,><344>,,><,,,336,,>4662====>;;>434<>,>,5@>=335457$",
"$973,35>>O::><>364,,<4>>3>>,34574,;>>>;;=;<,,,443><<>>O>>33,599$",
"$94,>,>,>@>::<-=**-;:::*--=-=-===-*%====*=:>---&==,:=>@=,,<>>49$",
"&943,>,,>@:;:<>&=-;::*-=:**-=&**&;-*=>==*=*:;---*>,:=>@>,>,,349&",
"&99<,,,2=O>=:>>+@@%@++@%&+++#@@O@@@@@@@@@#+O@@@@+:>:=>O>,,,<<99$",
"&943,<,>>@=>=>=+>>;>22,53453433>><>:>>::>>22,::>+;:-:;@>>>,>,47&",
"$944>>>>;O=>;>>@:;:;:,,>,>>,,43,3<><,>,,,>,=::::+>>::=O>>>>>259$",
"&944,,>>>O=>;>:+;:>>=>>,>,,<,64>>>;>,<<,>>:>>:::+:>:>=O>>>,,446%",
"%44<<<>>>+>==>;+>=::>:>><<,43,2,,>;>,>,,>>:>::->+;>-=;@>>==>>>3%",
"%93545:,>O;;=>=@:::>:,,,<3<3,>:>,>,<,,>>;:>:::->+;>;=:+><:::>;,%",
"%94943,>;O>>=>=O>=>==>,=>,,,<<,>>,,<444,>>:;;:=:O;>=:>o&=<>>>>,&",
"%6493,>:=@>;;>=O>:>=:=>>:;:><34,,<>><3<,3,::-::>O=::>>X=:>>>>>,%",
"&4444<,,>O>>;>=O>:==:>>=:,>>4<3<>,3:3>>><:><<>>:X*:>>>X*>>>:>>,&",
"&643<,,>;+,;>>=O==>::::>,<>,,344>>438<>,<,>><<:>o&-,,>X=:=>=>>3&",
"%64,<>>>;+>>>>=O,>:,>>>>,,4<><>>>,<34>,<>>>>>>><X*-->:X*>>1=214%",
"%943,,<>;+>>1;=X,==>>:>,,>3<><,<>,34,,3,,>:,>,>< &-;;:X-=>>>344*",
"%94,>><>-+,:===O>>:>>>3,,:,>,>>,3<332<<,3,:<>,,>o*-,>>X-=>=>>>6%",
"#43,>>>:=O>>>=*o>=>>,><<3<>,,>,><343,5<43<,3>>>:X*;>>>X**;>:3>3%",
"%43>>;:>-O>=1*=X52>,,>443<,,,><<<44<>34433>,>>>>o=>>,>O*=>:>431&",
"%43<>==>=O>====o>25,233,,>>>;>:,:>,>,334643,>>:>X=:>,-O=->>>433%",
"%543>>>>=o>;=>=X>2,,3343<>>>:>>,,3,<<343333,>,,>X*:=->X*-,>>,35%",
"#6<>>>1==o:;=:*X>444<,,4,>>>,>>>>>>>>,<,2,>,,,4,X====2@==1>,124%",
"%,45;,,==o>>>;=X,544->>>,>>,>>,><><3>:>>,=>,,>=1O=*>=>o=1==>,34%",
"&,24>=>=&O>,>>=X;44<,>>>>,,<>>,,<,>,<>>>>>>,=>=4X=*1=>@=>=>1,35$",
"&3=,>>>$=X>>>;=X-<4444>-><>,,4,>>>:<,,,>,4=>>:>1O===1=@=>>>=,34#",
"&6,>>>>==o>>,=&o,,<,>,,>,4,4434<:><,,,,,4,=>>>=>O==>>>@=>,>>,49%",
"&43,=>>==X:;;;&.<,,;>44,>>>,444>>>>>>>,:=>=>>==,X==>>>@=>,,,<37%",
"%43<>>>:*X:>;;*.<;>>>,,,>,,,4<>>:>;>>>,>,==,>==,o=>>>,@=>>,3,45%",
"&,>>>>=:=X>,1=*O>>,>4,>->,,,4<>,;:;>>>>>=,>,=>:=o=>>=2@=>,,3346&",
"&,>>>>>>=X>>>;*X->>>4>,<4<,<5,,<--*<,>>>:,>::>>>+=>:;>+;>,34644%",
"%,>>>:>;=X>>>>*.:>-;<<>,4<>473<,:>:<>,><><:>,,,>O-:::>+;:>,4545%",
"%3,>>>,=$X>>>,*X>::<,<>>>>>444>>>,,:>>,3,,>,421=O;>=>,O>,,,4949%",
"%3;;::;;>@===>;O>><>><>-::>,,43<,<>>>>>34<,>>2>>+=>=-;O>,-46649%",
"%3>:::::>O>==1=o>22,>4,>:>:,33,><<,>>>,3>,3,,34>@=,=-:+>,>43<46@",
"&,>>:>:=>O=:;1=@=12133;-::=:<<:>>>><,>,4>,22,22=+;,:--+>>;,,446-",
"%,=>-,::;O=>>>>@>>11,>,-=::>>>:,>,<3,,<333,,21>=+:>:--O>;>;>488@",
"&3:>:::>>@;;=>=@>>;,13>>>:>>:>>,>,4333454222>>>>+;:;;;@;>,,,,49&",
"%4>==>>,>O1=>>>O@@%@++@@@+@@@@@+O@@#@+o%#@+o@##@+>>;=>@12,>,,79$",
"%4,>=>>>=@=>>,>$*------*----==;*****-*=;===:;-==&,,:=>@=,>,,,49&",
"$2=2>==,>@==:,==**;-;--&-*--$*==-*-=----*>:>;-====>:=>@>,,,>,69$",
"#5>>>=>>1@=>,1,364,,,4--;::;>>22744<,:,<>><,,>443><,>=O>>44,379$",
"%3>>=1=>>+4<>,>,444><,>-:==2552,,,434>,,<,>,,353<>,><3O>>444455$",
"&4>,>,>=>@3,:,>,<,<<>->>24,,=>,>3443,,<,<3:,33>,,,<:<3@>:333459$",
"&5>2=>>>>@&%$&@@@+@@@@+@@+O+#@@@o%%@+O@#%@@@@#@@@+&%&&@>,,<4459$",
"$954722,>>:-;:*=-&----%-:***=====>==*:;;=**-:=*=-*:;-:>>>,34447$",
"$7544>,,*==$>==56----%&---------;=*>:::-=**=::=*:==>*=:*>3>2477$",
"$954775244,>34,,<>-;>----;->-->:>>>>,,<:>,,344365334:>423695477$",
"$574407224>=345,<<;;>;;----<;>;,,>:,34<4,>,446595444::2,3796457$",
"$77227,>64>,,534<<>>>>-><<<<><,,>>><<43<<4,44653334,,>55,,73477$",
"$554,5,>,,,<4542>>>6>,;>->,>,,44,,>>,34<333436654444,>121342555$",
"$955557,2>,33343,>,4>,,><<<,,64444,,,343434865564334,,>43745477$",
"$99967767744848988888844884455909994999667996744996645777797990$",
"*$$$$$$&$$$$$*&%@-@-@%@-@@-@%%%%%%%%&&&&*$$&&$$&$$&$$$$&&$$$&$$$"
};
