/* XPM */
static char *result[] = {
/* columns rows colors chars-per-pixel */
"64 64 35 1 ",
"  c #150F0F",
". c #1C0F0F",
"X c #12110F",
"o c #131313",
"O c #1B1212",
"+ c #191917",
"@ c #171718",
"# c #191718",
"$ c #161818",
"% c #1B1B1B",
"& c #230D0D",
"* c #2C0B0B",
"= c #3E0707",
"- c #340A0A",
"; c #3B0909",
": c #3E0D10",
"> c #231313",
", c #291312",
"< c #211C1C",
"1 c #201F20",
"2 c #1F2121",
"3 c #212121",
"4 c #430606",
"5 c #4C0404",
"6 c #410909",
"7 c #540303",
"8 c #5C0101",
"9 c #630000",
"0 c #6B0000",
"q c #730000",
"w c #7A0000",
"e c #820000",
"r c #8C0000",
"t c #950000",
"y c #980000",
/* pixels */
"ooooo$%ooo.&ooooooXoooOOOOOooOooooo+@oooo..+oooooooooO>OOOOooooo",
"#>%%%%%%+ooO@%%%%oo@$ooOooooooo oo@O%%%ooo.o%%O@$oo$%OO$$%$O%$$%",
"005*-,<%++oo%2%OO;6544455454-57887=5;<1$ooo$3%>&7898757890747788",
"qw0985-,oooo%%o-8778778q0957785754455-%$ooO%%o&77899099880q97788",
"5746;;;-oooo%o&;--*;;;;589775546554555,oooo%o>---*;4;44447754;46",
"566;;;44=ooo%o---**-*-=578777544775775-.ooo$.-&&&&&-455777775=;-",
"54444574;ooo%.*&&**;;-;578887754457777-.ooO%*&&*-;;455557575554;",
"554445774oooO.&&&*-4=44477775777557508;&oooo*&&-644577777777754=",
"444;46458.o  O&&*-;5554575555554467405*&o o &&--4545777775775544",
"6646;;658oo o.&*-;47774464444464554408;& o o&*--45589987777754=;",
"4444=;;44oo OO*&-;4777446464444=;;;708;&o oo.*-=79890wwq9885=4=4",
"444;=;64&Ooo%%&*-45578855===4465447808;>ooo%#*-4570weewq99877757",
"7744666&%$oo%1&*-;45887754=45774558075,%%oo%%&&-;4780q0qqq977577",
"45=;-;O%2oXo%3o&*-;;;444;4555900w0094.%%ooo%3o&*-645457854445555",
"--***>%3$ooo%31+&-----;455555777875;*%3%ooo$2%%>&***-----*------",
"&&%oo%%oooooooo@ooooO>&&. Oo.>O o%%@%%%oooooo$$oOooOo......OOOO%",
"o oooooooooooooooooooooo ooooXooooooXXooo ooXXooo ooo oXXXXXXoXX",
"$OoOoooooooo$oooo$$ooO$$@%@oooo.ooXoXXoooXooXoooooooooooXXXoo Oo",
"31o#454;**&&..OOO&&--&&OO%11o@X o$$oooo@@oOo$$%O%%o$+%%%$$$oooo#",
"%o-8554;=--*&&&**-6;;-**;-O%#ooo@1%oO***&...  .&&&*-;&OO%2%@ooo%",
"o-55446;;-**&*-&*&***-**---&oXXo%1o *****&*******;;46=46-O1#ooo%",
"&94*---;-44;-**&*******--**&.oXo%o &&*&&*------;6;64;--;--&oooo%",
"904---6577556--;;;;---**--**.ooo#o ...&&*--44445556;---6--*.oXo%",
"804;;=59899885444444=;;;4;-*&ooO% O   &*--4577779875455;=-*.ooo#",
"98544479000q0855557556445;;-*ooooO. >.**--=787880q0880877=-*oo  ",
"*7;445890qwq095777757444754;*oo O. ..&--=4577779qq97899874=-oooo",
">444557790q0088777546;;6456;.ooX@OO.&&--=4455549e0908788755*oXo#",
"%;444457788877575544---;45=&%$oX$@&&**-==44444=799985447754&oXo1",
"3+*;;=457790988985=4444557>%1%XX%1.&*--5555448887744=;4775&%$oo%",
"%3$-4459qwwwq000999775556*%3+ooo%3O.-=664778900974;;--=64O%1$oo%",
"Oo$ooO..&*-&&&.&-&Oo--oo%%%ooo o%1<@,==--;;=44444-;;;;-->11$oXoo",
"oooooooXooXXoo Xooooooooooo. o.o@o@@oooOoO&&.O...>OO#@@#%%$oooXX",
"XX..XXoooooo &Xooo ooooo..   oXooo ooooXooo.&ooooooo oX. O  o oX",
"Xoo Xoo%@@oo  o@$ooooooooooooXX XXooo@@@@ooX.o$$oooooooooo  ooXX",
"-**& O>%1%oooo@1%oO*==-----*&..   . Oo%1%$o  O3%o.4555;****&&.  ",
"44;-&...O%@ooo2%oO**44;;;-***&&..&&..*,O%$ooo%1o&4=-;;-*---**&..",
"4---&&&..&oooo%o &&&*------;-&&..&.&&***.oooo%o>;-*&&&&**-**&&..",
"7876-**&&**ooo%o .&&&--;4444-***&*-**--*&.ooo%.-*&&&&**--*--*-**",
"0q095=--*4-ooo%o .>*--458855=;-**--;=55-&&ooo%&&&&&&--===-;6=6=5",
"00q97555=7=ooOo ..&-65789954=4=;==;--65=*&ooo$&&&&&-444444454479",
"wew086;7995oo oO.&*4579575444=;;44;;;584-*o OOO&*---445644444579",
"erw05-=7q06ooooo.&*448084;;-;==655=;4584*-o OoO&*-57644555555550",
"qe095559q9*@oX@@&&*;49rq7=;;;54554=55505->ooo%%*6478555789998580",
"erwqq9qww-%#oX%1O*-579ww08009778545558q5&%$oo%%*457888900qew09qe",
"ttreeqqq&%1#oo%2o&-7758790wre098757998q,%%@oo%3o-58890rrtttrwett",
"888756;,11#ooo%21@*--;==447874=-458885-%3%oXo$1%O6780weq09977999",
"##*&$o@%%$oXXoooO$oooo O  ..O....OO@oo%%oooooooo@ooOoO..&&&&&.&O",
"Xoooo ooooXXXXXoooXX XooXXoo ooooooXooooooo oooooXooXXXXooXX ooo",
"OoooO+$OoooO$o%$o%o%$$%%Ooooo.o%%ooo$ooo@o+oo$$Oo$@o$$%$oooo o%O",
"oO*&*&&&&&&OOooooOoOoO#%21o+ooo3%oO&&&&&>.O oOo o.>OOO%3%%oooo3%",
"&464444=6;-**&&&&&&&&&&&O%%ooo%%oo&..&&&&&&&&>&.&**----O%%ooo%2o",
"56555555766;;--&&&&&&----&oooo%o &*-**---******&&&&-;--;-oooo%oO",
"44;----=---;;***&&*&**-***&ooo%o..&*&*---------*----*--;-*oXo%o>",
"555;;----655;;---;;;-----**ooo%  O.&&*--;;44577=;=;==4=-=;oXO%oO",
"98746444587554=444444;-;4;;oooo o .&*;44445789855555545477oXoo .",
"900889878899087575544;55756oXoo  ..*-4479977797898778809q9Xooo..",
"900990weeeewq07555566479907ooooo..&*-4580q078000qqqqqqqq09ooXoo.",
"79879wreertew08465757780ew7oo oo .&-;=50wwq090qqettew08q07ooooO.",
"799qqqwwweewqw087780qq90q0-@o %@.&-;6890qq0q00wwrtttw9wrw-Ooo%%&",
"80qw9qtttwqqwq0009ertrwe9-%ooo%1>*-59errtrewwttrertertyr6%%oo%%&",
"799879ww090ww00090999986>%1%XX%3o&689errttwettttytrweew-%%@Xo%2O",
">------;;;;;;---------&%1%@ooo%%%+,;4455477575557774;6-%1@oXo%2%",
"%O%OOOO&OOOOOOOOoO*&O#%%%ooooooo%oOoO#OO,&&.OOO.OO%O%>#1%oXoo$%2",
"%$$$o$o%ooo$Oooo$Ooooo%ooooooooooooooooooo+%o%%$$%+%o%o%Oooooo@%"
};
