/* XPM */
static char *result[] = {
/* columns rows colors chars-per-pixel */
"64 64 31 1 ",
"  c #0E0C0B",
". c #120F0E",
"X c #13110F",
"o c #151312",
"O c #191615",
"+ c #1C1817",
"@ c #1D1A18",
"# c #201817",
"$ c #221D1B",
"% c #25201E",
"& c #29211E",
"* c #272220",
"= c #2B2523",
"- c #2F2927",
"; c #2F2A29",
": c #302726",
"> c #302927",
", c #342C2B",
"< c #382F2D",
"1 c #36302E",
"2 c #39302E",
"3 c #3D3432",
"4 c #3F3835",
"5 c #413634",
"6 c #423836",
"7 c #453B39",
"8 c #493E3C",
"9 c #4C413F",
"0 c #50423F",
"q c #4E4341",
"w c #514542",
/* pixels */
"$+O..X.oXXoO$=:=-;-&->-%++OoooO+++XX.        .@*@%$*=1,276,&&%=;",
"*$+o...oXXooo+$$+%%$&&%$+oooXooooXXXX        .$@@$@$*:,2664,-=&-",
"==$Oo.Xoo.o..O..XXXOOoooooooXXoXXX..         O@$$@$$%-,,2673,---",
">>*++.ooX.XX....oXXX.XXX..XX...X.  X    .   .o@@%@@@%=,1<2696,>-",
",>*$+oo.XXoOO+#$$@OXoXXX...o... .X.ooOoO...  .O$$@@@%%=;,22672,,",
">=*$+o...o+$*:,,&$+@%@@o.. .... ..O+@++OOoo.  .O%$@@$%*=,2>,66<,",
">=*%$oX.o@%*,3,=$$%%&%@OX........o+@$$%$$+Oo.  .+@@@$%&-,2,>266>",
">==$$o.o@$=,3,:$%&;=$%$@+X......Xo@%=:===$@O.   XO@%%%*,22<>,65<",
"-==*@o .@$=3<,-*=,;&%%%@++o...XXo@%=:=--,>%Ooo    O@$%=1662,2622",
",-=*$O .O$===,312,;=%%%@++o. ..Xo$*=>,,233,$oX.    O@%=1662,<662",
",--=*o .O$%$*;1321-&$$$@++oXo.Xo@$=>,256551=@Oo.    O$%;695,,662",
",=;=$o  O#$$$*33>*%%@$@$++oo...+@$-<,378574-$OOX.   o+$=,675<663",
",==*@O  oO+@$-3;$$++++++oo.o..X+@$><<686683==@ooX    O+%&2962675",
",=*=%o   oO@%=-$ooOOOOO...o...o#$%>,288786,==$OXo.   .O+&-277676",
"1=*=@o  ..o@%$+ooooXoX........O#$*><267761:=*%@OXX    XO@&>69795",
"2=**+.   .O$$+oo.....XXX......X@$*=>,3372,==*%$@OXX   XO+@&>5999",
"2=*%+o.   .++.    .oo+@+XoXXXXXO$*=,,<631===**%@oXX.   OO@$;17q8",
"3-**@O    ..     .oO@+$@@@OOOXXo$&*>>373-==*=*%$Ooo.   .o+$*;2qq",
"6-*$+X          ooO+**$$$%$$+XXX+%*=,57,===**=%@+OOXX    O$*=,7w",
"6-%$+           oO$====*=$==$O..+%*=>36,-==***$@$$@oX    o@**-6q",
"3=%@+o         .o$&=:>:===*=*$o.X@%=>332-==%%*$%=;*Oo.   o+%%=17",
",=@+Ooo.       .O$==:><>-=*=*@o. o@=>,,2,-%==**;1**@O     +$%*-,",
"=*@+oo .       .@%*==:321,=**@OoXX+&:,>1,-=-,,,3;*@$o     .+$**=",
"=*@oo.         X$$$*=:<33,-=*$+Oo.O&==->,>>,,261*@@@o     .+$$**",
"*@oo           .%%$%=;,,133,=$+ooXO$&===,2<<<55-$$@@o..   .o+@%$",
"Oo.            X%$+**:,:,,352=$OoXXO%===>21,363=%$+@o.oX   oo+@+",
".       Xo     +%+$=*::,;=1431=+oXXXO%=-:2,,,3,>>%+@+o+o     o++",
"     .ooooo    +%$$==::;,:,333,%oXXXo+$=:>::>>=--*O@@O@X    Xoo.",
"    .OOOoo  .  +$$*:;;1<,:12353=+XXXXXo+$==:>*==%$O@$OoX   . X  ",
"....oOOO++X    O$%*=,<12,,1,233=$oXXXXXo+#$**=&*$@@%$oX    .    ",
"O+++++oO++X    o#**:,,,1,:,,,,3:$OXX.XXXXooO$%$$$$$$oX         X",
"@@@@$$OOoOo    o+$=:,,;,;,2,,,2;@OoXXXXooXXXOOOOO@@oX X      oo+",
"*%$$*$++o.o..  o@$*;2;*=>,322,,-@OOXXXXXoooX....X...   X   .O$$$",
"*$$**$$$Oo. .. o@%=,3;=:><2322,:@+O. XXOOooX...... .       X+$$%",
"*$*=:*$$@+o..  .$%*-1,=-,,,,,22-@+XXXXXOOOO$@OX.X...       O+$**",
"*==,2*$*@+O.   .@=*-1,-->>:=:23&+oXXXXXX@$%$*$+OX...      XO$%==",
"%:,231=*$++o.  .@==,2,-->>-=>1>&OX..XXO+$$%$$@$@Oo      .X++$*==",
":<3574;;*@+O.   @**,32,->>>=:,=+X. XX+$%**@@$$@+o.     .Xo+$**-:",
"<223773;*$@+o.  O*%*353,>>>>,:$XX  o+%&=*$$::$O.       Xo+$%=>,2",
",2<<4741=$@@o  .O$%$>5652<,<1:+X  X+%%*&$*:,%oo.       o+$%=>,22",
"122<3795:$$@o.  o$$$$,256522,$X . O%***$$->=+o+o     .oO+$=-<222",
"222,27q81=*$o.  .+$$@$=,332,%oX  oO%*;=$=>=@o++$.    XO+$$:<2<<3",
"223<39q71:$$o.. .OOo@@$$==%$oX  XO@%-,%$:=@X++@@.   .O+@$=,<<2<2",
"25558q851=*$O.. .oOO$$$$&$+XX .XO@@&,=$==$XOO+$O   .X+@$%:,,<<<2",
"235qw9971;*$Oo.. oOO$==$#Oo. ..oO$%&1&%-%ooOO@OX    O+@$&,,1<223",
",6qwwqq72;$$Ooo.  oO@$*$+X....oOO+&>>-;=@O@+$$.     O+@*><,,,222",
"5qww87q7;=$@OOo.  .OOOOo.. ...++#%>,1,,=+++*-@.    o+@$&:,::,,22",
"6ww73585;*$++Oo.. ..ooo. . ..oO@%>2,,,;%++*;=.     X+@%&=&=:><22",
"57753783*$@+++oX    .....   o++$*111,-=$$=,>@      Xo@$$****;114",
"2355,77,$$++o+OX   ...    .X++$$*,,3,=:*=23>o     . oo+@$$*;;;33",
",><,,363>=$+++..    .    .o+$$*%*,33;=,:,5<*o    ..  .oo@$**=,,1",
"*=:,,1,55-+@Oo..        .O##$$***,32=$%,35*+.    ...  ooo@%*===&",
"**=><<,33=++oo         .X+$&==**:13;%@=55>@o.   ..oOo  ooO+%$%%*",
"**:<<<>,;@Oo..      . . o$===%*=:,,*@%,5,$o.    .O++oo  .o+@%$**",
"**>>,>=*%+o..   .....  XO$:=$$*>:=$+%<3,*OX.   .o@$O+Ooo .o%%$%%",
"$==:=**$+Oo.    ....X..XX+$&$$=>=$+%152=$o.    .O$$@+@@o..XO@@@$",
"@***$$$+Oo.    XXo+++oXX.X@*==*%@+=,33=@+X.    .+$+@$%%+....O@@@",
"@@$$@@+OoX    .o+$$%%+oX.XO$==$oO=,33,$+o.     o+$+%%%%$OoX oO@@",
"O@$$$@+O.   .Xo@@*==-=@X.XX+@@+O%,36<=$OX     Xo+@$%*==%@Oo. .oo",
".+$$$+.    .oO@%*:>:->=+X.XXXo+=:,35,$Oo.     o@@$%==-,:*+Oo.   ",
" .O+O..   Xo+@**>>:=:,<,$XX...$,1,3;$O.X..  .o#*%$=,2,2>-%@+o.  ",
"  ...    X.+@%*=>>:-,<2<*oXXX.O$===%OX...   XO$$%%=-2333;-*@OO  ",
"        ..o+%*=->>,<<32:%ooXoXXXoOoo.X.X   .o+$*$*%=,263,-*%@@O ",
"o.     ...o+**=-,,<<<,:*$+oO.X.X.Xoo....   ooO$$****>23432-*%*@O"
};
