/* XPM */
static char *result[] = {
/* columns rows colors chars-per-pixel */
"64 64 188 2 ",
"   c #800000",
".  c red",
"X  c #300B0B",
"o  c #210D0D",
"O  c #1E0E0E",
"+  c #2C0C0C",
"@  c #200D0D",
"#  c #4C0707",
"$  c #290C0C",
"%  c #340B0B",
"&  c #A30606",
"*  c #2E0E0E",
"=  c #111111",
"-  c #CB0303",
";  c #1C0E0E",
":  c #460808",
">  c #170F0F",
",  c #4E0606",
"<  c #DF0202",
"1  c #5D0B0B",
"2  c #C70303",
"3  c #190F0F",
"4  c #4D0707",
"5  c #490C0C",
"6  c #3C0D0D",
"7  c #C30303",
"8  c #2D0C0C",
"9  c #140F0F",
"0  c #171010",
"q  c #4B0808",
"w  c #660A0A",
"e  c #CF0303",
"r  c #CF0202",
"t  c #C20303",
"y  c #2B0C0C",
"u  c #6F0101",
"i  c #111010",
"p  c #490707",
"a  c #480707",
"s  c #160F0F",
"d  c #2D0B0B",
"f  c #121010",
"g  c #320B0B",
"h  c #350A0A",
"j  c #180F0F",
"k  c #460707",
"l  c #FA0000",
"z  c #D20202",
"x  c #380B0B",
"c  c #1A0E0E",
"v  c #150F0F",
"b  c #810909",
"n  c #590B0B",
"m  c #340D0D",
"M  c #270E0E",
"N  c #2B0E0E",
"B  c #3D0D0D",
"V  c #910707",
"C  c #131010",
"Z  c #820808",
"A  c #470C0C",
"S  c #900707",
"D  c #760101",
"F  c #790101",
"G  c #6F0202",
"H  c #560505",
"J  c #6C0202",
"K  c #370A0A",
"L  c #6B0202",
"P  c #270C0C",
"I  c #770000",
"U  c #2E0B0B",
"Y  c #7C0000",
"T  c #680303",
"R  c #1B0E0E",
"E  c #700202",
"W  c #390A0A",
"Q  c #330B0B",
"!  c #690202",
"~  c #680202",
"^  c #310C0C",
"/  c #130F0F",
"(  c #660303",
")  c #3B0A0A",
"_  c #430808",
"`  c #400909",
"'  c #F80000",
"]  c #700909",
"[  c #230F0F",
"{  c #440C0C",
"}  c #AB0606",
"|  c #B60404",
" . c #550B0B",
".. c #290E0E",
"X. c #670A0A",
"o. c #F30000",
"O. c #2E0C0C",
"+. c #330E0E",
"@. c #A70505",
"#. c #C90303",
"$. c #860808",
"%. c #510B0B",
"&. c #840808",
"*. c #880707",
"=. c #530B0B",
"-. c #E60101",
";. c #F40000",
":. c #6D0909",
">. c #250F0F",
",. c #5C0B0B",
"<. c #4F0C0C",
"1. c #F90000",
"2. c #610404",
"3. c #4A0808",
"4. c #5B0404",
"5. c #440808",
"6. c #6A0202",
"7. c #710909",
"8. c #1E0F0F",
"9. c #7B0000",
"0. c #750909",
"q. c #2A0E0E",
"w. c #240E0E",
"e. c #340A0A",
"r. c #5E0404",
"t. c #640303",
"y. c #5F0404",
"u. c #3A0A0A",
"i. c #4A0707",
"p. c #780909",
"a. c #710101",
"s. c #3E0A0A",
"d. c #7B0808",
"f. c #300E0E",
"g. c #1F0E0E",
"h. c #3D0909",
"j. c #470808",
"k. c #7F0808",
"l. c #310E0E",
"z. c #270D0D",
"x. c #580505",
"c. c #EF0101",
"v. c #FE0000",
"b. c #7E0000",
"n. c #F20000",
"m. c #680A0A",
"M. c #1F0F0F",
"N. c #B20404",
"B. c #4E0707",
"V. c #ED0000",
"C. c #450C0C",
"Z. c #490D0D",
"A. c #5C0404",
"S. c #400D0D",
"D. c #5E0A0A",
"F. c #2B0D0D",
"G. c #760000",
"H. c #AD0505",
"J. c #250E0E",
"K. c #D30202",
"L. c #CC0303",
"P. c #A60505",
"I. c #650B0B",
"U. c #650303",
"Y. c #9A0606",
"T. c #6F0909",
"R. c #630303",
"E. c #280C0C",
"W. c #670303",
"Q. c #930707",
"!. c #5A0B0B",
"~. c #C10303",
"^. c #B30404",
"/. c #250D0D",
"(. c #550606",
"). c #610A0A",
"_. c #570B0B",
"`. c #580606",
"'. c #3C0909",
"]. c #1A0F0F",
"[. c #7A0000",
"{. c #6A0A0A",
"}. c #D00202",
"|. c #460C0C",
" X c #4B0C0C",
".X c #D50303",
"XX c #600505",
"oX c white",
/* pixels */
"                                                                . . . . . . . . . . . . . . . . . . . . . . . . . . . . . . . . ",
"                                                                . . . . . . . . . . . . . . . . . . . . . . . . . . . . . . . . ",
"                                                                . . . . . . . . . . . . . . . . . . . . . . . . . . . . . . . . ",
"                                  X o O         + @ #     $ @ % . . . . . . . . . . . & * = - . . . . . . . . . . . . . . . . . ",
"                                  X = %         ; = :     > = , . . . . . . . . . < 1 = = = 2 . . . . . . . . . . . . . . . . . ",
"                                  X = X         3 = :     > = 4 . . . . . . . . . 5 = 6 = = 7 . . . . . . . . . . . . . . . . . ",
"                                  X = 8         9 = :     0 = q . . . . . . . . . w e r = = t . . . . . . . . . . . . . . . . . ",
"                                  X = y u u u u i = :     0 = p . . . . . . . . . . . r = = t . . . . . . . . . . . . . . . . . ",
"                                  X = = = = = = = = :     0 = a . . . . . . . . . . . r = = t . . . . . . . . . . . . . . . . . ",
"                                  X = = = = = = = = :     s = a . . . . . . . . . . . r = = t . . . . . . . . . . . . . . . . . ",
"                                  X = d         f = :     s = a . . . . . . . . . . . r = = t . . . . . . . . . . . . . . . . . ",
"                                  X = g         9 = :     s = a . . . . . . . . . . . r = = t . . . . . . . . . . . . . . . . . ",
"                                  X = h         j = :     s = k l l l . . . . . . . . z = = t . . . . . . . . . . . . . . . . . ",
"                                  X = x         c = :     v = = = = = b . . . . . n m M = = N B V . . . . . . . . . . . . . . . ",
"                                  X = x         = = :     o C C = = = Z . . . . . A = = = = = = S . . . . . . . . . . . . . . . ",
"                                    D             F             . . . . . . . . . . . . . . . . . . . . . . . . . . . . . . . . ",
"                                                                . . . . . . . . . . . . . . . . . . . . . . . . . . . . . . . . ",
"                                                                . . . . . . . . . . . . . . . . . . . . . . . . . . . . . . . . ",
"                                                                . . . . . . . . . . . . . . . . . . . . . . . . . . . . . . . . ",
"                                                                . . . . . . . . . . . . . . . . . . . . . . . . . . . . . . . . ",
"                                                                . . . . . . . . . . . . . . . . . . . . . . . . . . . . . . . . ",
"                                                                . . . . . . . . . . . . . . . . . . . . . . . . . . . . . . . . ",
"                                                                . . . . . . . . . . . . . . . . . . . . . . . . . . . . . . . . ",
"                                                                . . . . . . . . . . . . . . . . . . . . . . . . . . . . . . . . ",
"                                                                . . . . . . . . . . . . . . . . . . . . . . . . . . . . . . . . ",
"                                              G H J     K g L   . . . . . . . . . . . . . . . . . . . . . . . . . . . . . . . . ",
"                          9 P P P P P P P P I U = +   Y = = T   . . . . . . . . . . . . . . . . . . . . . . . . . . . . . . . . ",
"                          R = = = = = = = = E W C Q   Y = = T   . . . . . . . . . . . . . . . . . . . . . . . . . . . . . . . . ",
"                          ! ~ ~ ^ = / ( ( T           Y = = T   . . . . . . . . . . . . . . . . . . . . . . . . . . . . . . . . ",
"                                ) = 9         _ $ `   Y = = T   . ' ] B [ { } . . . |  ...j X.o.. . . . . . . . . . . . . . . . ",
"                                ) = 0         % = O.  Y = = T   . +.= = = = = @.. #.= = = = = e . . . . . . . . . . . . . . . . ",
"                                ) = j         % = O.  Y = = T   $.= %.. . &.= 6 . *.= =.. . -.;.. . . . . . . . . . . . . . . . ",
". . . . . . . . . . . . . . . . :.= >.. . . . ,.= <.. 1.= = - . y = Q 2.2.3.= /   4.= = 5.6.                                    ",
". . . . . . . . . . . . . . . . 7.= M . . . . ,.= <.. 1.= = - . 8.= = = = = = = 9.  % = = = K                                   ",
". . . . . . . . . . . . . . . . 0.= q.. . . . ,.= <.. 1.= = - . w.= e.4.4.4.r.t.      y.u.= = i.                                ",
". . . . . . . . . . . . . . . . p.= * . . . . ,.= <.. 1.= = - . ^ = d         Y   a.      s.= %                                 ",
". . . . . . . . . . . . . . . . d.= f.. . . . ,.= <.. 1.= = - . t.= = g.: h.> e.  5.O ` j.= = p                                 ",
". . . . . . . . . . . . . . . . k.= l.. . . . ,.= <.. 1.= = - .   4.z.= = = f :   x.> = = i h.                                  ",
". . . . . . . . . . . . . . . . . ' . . . . . . c.. . . v.v.. .       I t.E b.        G ~ Y                                     ",
". . . . . . . . . . . . . . . . . . . . . . . . . . . . . . . .                                                                 ",
". . . . . . . . . . . . . . . . . . . . . . . . . . . . . . . .                                                                 ",
". . . . . . . . . . . . . . . . . . . . . . . . . . . . . . . .                                                                 ",
". . . . . . . . . . . . . . . . . . . . . . . . . . . . . . . .                                                                 ",
". . . . . . . . . . . . . . . . . . . . . . . . . . . . . . . .                                                                 ",
". . . . . . . . . . . . . . . . . . . . . . . . . . . . . . . .                                                                 ",
". . . . . . . . . . . . . . . . . . . . . . . . . . . . . . . .                                                                 ",
". . . . . . . . . . . . . . . . . . . . . . . . . . . . . . . .                                                                 ",
". . . . . . . . . . . . . . . . . . . . . . . . . . . . . . . .                                                                 ",
". . . . . . . . . . . . . . . . . . . . . . . . . . . . . . . .                                                                 ",
". . . . . . . . . . . . . . . . . . . . . . . . . . . . . . . .                                                                 ",
". . . . . . . . . . . . . . . . . . . . . . . . . . . . . . . .                                                                 ",
". . . . . . . . . . . . . . . . . . . n.m.z . . . . . . . M.N..             4 B.                                                ",
". . . . . . . . . . . . . . . . . . . V.= = m.z . . . . . C.= Z.A.          i.= = 4                                             ",
". . . . . . . . . . . . . . . . . . . . @.S.= = m.z . . . 2 D.= = F.A.      G._ = = R 4                                         ",
". . . . . . . . . . . . . . . . . . . . . . H.J.= = m.K.. . . L.X = = F.A.      G.: = = R 4                                     ",
". . . . . . . . . . . . . . . . . . . . . . . . P.= = I.. . . .   6.@ = 9           F W = = U.                                  ",
". . . . . . . . . . . . . . . . . . . . . . . Y.[ = = T.. . . . R.E.= = @         G.K = = f W.                                  ",
". . . . . . . . . . . . . . . . . . . . . Q.M = = !.~.. . . ^.A = = /.(.      L W = = v : G.                                    ",
". . . . . . . . . . . . . . . . . . . . N = = ).#.. . . . _.= = P `.        '.= = ].p [.                                        ",
". . . . . . . . . . . . . . . . . . . V.= {.}.. . . . . . |. XN.            i.8.B.b.                                            ",
". . . . . . . . . . . . . . . . . . . . .X. . . . . . . . L.. .             XX                                                  ",
". . . . . . . . . . . . . . . . . . . . . . . . . . . . . . . .                                                                 ",
". . . . . . . . . . . . . . . . . . . . . . . . . . . . . . . .                                                                 ",
". . . . . . . . . . . . . . . . . . . . . . . . . . . . . . . .                                                                 "
};
