/* XPM */
static char *result[] = {
/* columns rows colors chars-per-pixel */
"64 64 131 2 ",
"   c #15110D",
".  c #171512",
"X  c #1B1712",
"o  c #231B16",
"O  c #241E19",
"+  c #291F19",
"@  c #27211B",
"#  c #2B241D",
"$  c #2E2722",
"%  c #2F2923",
"&  c #312B24",
"*  c #383225",
"=  c #373029",
"-  c #3A352B",
";  c #3C3A2D",
":  c #3E3C31",
">  c #423D2F",
",  c #423E31",
"<  c #434234",
"1  c #4A4235",
"2  c #454538",
"3  c #4C453A",
"4  c #504737",
"5  c #514638",
"6  c #524A3D",
"7  c #5A513F",
"8  c #4E4E41",
"9  c #534E42",
"0  c #565243",
"q  c #5C5444",
"w  c #5C5649",
"e  c #57594A",
"r  c #5C5B4B",
"t  c #645B47",
"y  c #605749",
"u  c #645C4A",
"i  c #6B634E",
"p  c #666353",
"a  c #6D6552",
"s  c #636854",
"d  c #6F6954",
"f  c #6C6E58",
"g  c #706752",
"h  c #736B55",
"j  c #786D57",
"k  c #746D5B",
"l  c #796F59",
"z  c #76725E",
"x  c #7A735D",
"c  c #777261",
"v  c #7B7563",
"b  c #777A64",
"n  c #7E7966",
"m  c #7E7A69",
"M  c #80755F",
"N  c #807764",
"B  c #827A66",
"V  c #827D6A",
"C  c #887F6C",
"Z  c #85816E",
"A  c #89836E",
"S  c #90886F",
"D  c #868572",
"F  c #8A8673",
"G  c #8C8976",
"H  c #8D8778",
"J  c #8E8B7A",
"K  c #928C76",
"L  c #928E7B",
"P  c #94927E",
"I  c #99947E",
"U  c #928F80",
"Y  c #959483",
"T  c #999683",
"R  c #979886",
"E  c #9B9985",
"W  c #979789",
"Q  c #999689",
"!  c #97988C",
"~  c #9D9C8A",
"^  c #9E9E91",
"/  c #A19C86",
"(  c #A19E8B",
")  c #A09F91",
"_  c #9FA08E",
"`  c #9FA092",
"'  c #9DA39B",
"]  c #A3A18D",
"[  c #A8A38D",
"{  c #A4A393",
"}  c #A9A592",
"|  c #A7A897",
" . c #ABA995",
".. c #A6A699",
"X. c #A9A69A",
"o. c #A6A89A",
"O. c #ABAB9C",
"+. c #B1AB96",
"@. c #B2AE9B",
"#. c #AFB09E",
"$. c #B3B09C",
"%. c #B8B29D",
"&. c #9AA3A2",
"*. c #9FABA8",
"=. c #A0A7A0",
"-. c #A2AAA4",
";. c #ADADA1",
":. c #A3ADAA",
">. c #A9AFA8",
",. c #AFB0A3",
"<. c #A7B1AD",
"1. c #B4B4A3",
"2. c #B9B5A2",
"3. c #BCBBA7",
"4. c #BEBDAA",
"5. c #A7B4B1",
"6. c #AAB3B1",
"7. c #C0BFAB",
"8. c #C3C1AD",
"9. c #C5C4B2",
"0. c #C9C6B4",
"q. c #CBC9B6",
"w. c #CBCCBC",
"e. c #D1CEBA",
"r. c #D3D2BE",
"t. c #D5D4C2",
"y. c #D8D6C2",
"u. c #DAD9C6",
"i. c #D5D6C8",
"p. c #DBDCCC",
"a. c #DDDFD1",
/* pixels */
"Y Q Q W Y Y Q W Q R R Q E Q ~ Q R R ~ R Q Q R ~ ~ ~ ~ ~ ~ ~ Q ^ &.~ ) { { } X.) X.{ ..{ o.X.;.O.O...X.X.X.O.;.;.O...o.o.{ ;.X.{ ",
"J W Y Y ~ R ~ ( R ~ ~ R ( ~ ) ~ ~ ~ ~ ] ( E ! ] Q ] ~ ~ ) Q ( ! &.) { X.X.{ X.X...o.X.X...X.O.;.;.;.,.1.O.O.O.,.,.X.o.o.X.O.X.O.",
"Q Q U W R ~ ( ~ R E ] T Y ( ] ( E E R ( ( ] _ ] _ ] { Q { ~ ~ ! &.{ { ) } X.+.X.O.} { X.O.} ..o.#.| O.| | | X.| o.1.2.,.X.O.X.;.",
"Q Q U W _ D e 2 , > < ; < < ; < < ; - ; - - ; ; : r Y { ( Q _ ` -.) X.} X...U w 2 1 < > 2 < 2 < < < 2 : < : < ; 2 8 m O.;.$.X.X.",
"Y T R ( b # X o o # # @ # + # # # % # & $ $ $ # X   = Z ^ ~ Q ` &.] { ] { s # o o + $ # # # # + % # # & & # % # O .   9 } $.O.O.",
"Y ~ T Z - - > 6 3 6 9 0 w 0 0 w 0 e w w 9 w 0 6 2 = O - Q ~ { ' &.} { { b * 1 6 0 0 q y q y y q w w q y u 0 y q 6 3 & # p | ] [ ",
"E ~ ] f 4 q i a i i i a i i d i i a h h g g g a a u 9 - m { Q ! :.{ | ~ q q t i h l x h l N l x l h x x z h x j h i q , - T { X.",
"~ ~ ~ s 7 h z v B C B B A C v B C C C B C D N x x g u 1 p ~ E ~ &.] } T i h x x B C A Z C S F A G A A A A C Z A C v h u , J } } ",
"~ R R f p k C F F F H D D H G F D H G H F A F F B v l w a } / ) :.( { T j x V A G L L J K L L L H U U U L U L Y A S N j 7 F } { ",
"E ] E x h v D D G G H F J U L G J L L U Y L L L H C N g k { / ) :.E / E c C D J W K T T Y R Q T U E Q Q W U W L L J H C t A } ~ ",
"R E T Z c F J J L P Y Y T L J W J U J Y Y T L Y L J C c v ( / X.<.E ] Y C H L Y Q Q Y E Q ( R Q Q Q ~ ^ Q ~ Q ~ T Q U A d L { ] ",
"( ] R Z c F L J L P L U W Y U U T L W Y U U T U Y K F v c ) / X.<.] ~ E D F W U Y ~ E ~ ~ { ] ) ~ ! ^ ) ! ~ ^ Q W W U F k J [ X.",
"T E E A v D H J J P P T Q Q Q ~ Y U U Y Q Y L T U L D k c ( ( X.<.} ( E F J W Q Q ~ { { ~ { ^ { { ) ) ) ~ Q ) ^ ~ Q U H c J X.[ ",
"R ( Y m C J T U T Y L Y Q R Q T ~ Y Y Y Y W U W W L H c m ( Q X.6.] E ~ G Y W ^ ~ { ^ ~ ~ ..{ ^ ) ) ..) ^ ^ ^ ^ ^ ) Q L k Y ] { ",
"R ~ E D m J J L U T R Y Q R Q ~ ~ ~ W Q E Y Q ~ Q U K v V / / X.6.} [ T L J ! ~ ~ { ) { ^ { { ^ ) ) ^ ) ..{ ) ..` ^ ~ U b L { | ",
"/ E R Z V G T L Y R Q Y Y W T W T Y T T W ~ ~ Q Q W J c B ( Q @.6.[ ~ _ J J ( ^ Q ~ ~ { ^ { ......{ ....` ) { ` ` ^ ~ J c P }  .",
"T E R D Z J T T Y Q Y Y ~ Q Q W R J R W R T Y ~ U Y J v V ~ ( X.<.] E _ L J ~ E ~ ` { ` ) ^ { { ) ......{ { { { ..! W H v U ( X.",
"E ( ~ Z C J T U Y Q Q Y Y ~ T ~ ~ T W Y T ~ W T T U J b v ~ ( X.<.] ] _ G L ! W ! ` ~ { ..^ ..` ....) ..^ { { ..~ ^ W J b J [ } ",
"E ( T F D J Y U Q E ~ ~ E Q E ~ Q W W W W Y Q Q Q T J b v ( / X.<.] ~ E G Y Y ! ~ { ~ ` { ^ ....;.) ..^ ^ ` { ..) ^ Q L v L [ } ",
"E E E Z m G U Y E T E E Q W Y T T R ~ Y Q T T R Y T J V V ( ( @.*.] { ~ J J ~ ~ { ] ` ^ { ~ ` ..) ) ) X.^ ..{ { ^ ~ ~ L V L ] [ ",
"T _ Y D D J T Y R Y R Q ~ ! ~ Q Q ~ ( R ~ Y T Q Q Y H m B ( ( { *.] ] R H J Y ~ ~ ` _ ~ ^ { ..} ^ ..{ ) X.{ ^ ^ { ` ~ L m Y } ] ",
"E Y ~ Z Z H Y T T T / R Y W R ~ Y Q E Q W R Y Y Q P J Z B ] ( X.:.] ~ _ J L W ~ _ _ ` ~ ^ ^ { ^ ) ) { ..` } { ..~ ` W L v W ] { ",
"P I ~ G Z H J T R Q R Y R R ~ Y Q Y ~ Q R R R Y Q L H V n / / { <.[ ] Q G J R ~ ~ ~ ` | { ..` ` X.) { ..~ { ` { { ( T J b P } [ ",
"T ~ E D Z U J Y R ~ T T ~ R ~ R R Y R Y ~ R Y Y Y Q H B m E Q X.<.] ] ] G Y Y ~ E { { ~ { } { { X...{ ) { { | ~ ) ) Q L c Y ] } ",
"Y ~ Y F Z J U Y Y E P Y R ~ T Y E Q E ~ Y E Y R E T H C n Q / { :./ ( E G Y Q ] ~ { { ~ { { { ^ ` ^ ^ { ..` ..) ^ ) W L m J ] ] ",
"P E E Z D J Y U P _ P R R ! Q W R Q Y / Q I Y E Q L P V v T / { :.] / ~ J P Q E ~ _ ] _ | ..{ { { } ..^ { } ) { ) ~ Q U n K } ] ",
"L Y R J Z D J R Y I Y R Y Y Y R E R Q Y Y Y T Y Y T G N n ( ( ..-.E ] T G L ~ ~ _ { ] _ { { { ..` ^ { { ` ] { { { ` T Y v I [ [ ",
"R Y R G Z D L Y _ Y Y E Y ~ ~ Y Q T Q Q Y W E E Y P F A n / / } ' / ( ] J J W ` ~ ~ _ { ` _ ( { { { } _ ` ) { ( ~ ^ W J v Y  .[ ",
"P E P J m G L Y P R Y Y Y R R Y Y Y P Q ~ E T Y Y Y L V V E / { ' / [ I F P R ! E { _ { { ` } ..` { ~ { { ~ ] { ^ ~ Y Y c L ] ( ",
"R E _ D D G L Y Y E Y Y Y R R ! R T Y R R R E Q R Y G V Z E E X.' ] ] ] G J R R ~ _ _ ` _ } ` ^ { { { { ] _ { { ~ ! U H n H } [ ",
"P Y E J F D L Y Y E E Y Y Y R ~ Y Y R R Q Y R P R J G m n Q ( X.o.] E ] L P _ E ] { ~ { ~ _ ~ } ) } { { { { _ { ` ^ T U B J ( [ ",
"Y R E G m G Y R Y E Y Y Y ~ Y Y T Y Y W R E Y Y Q L J b B E / { o./ ] E D P ! R _ ` ] ~ { { ] X.{ ~ ^ ..` ] ` { { W W U B K [  .",
"T E Y J D P J T T Y E E T W T Y R ~ R Y R P Y Y Y Y H n V E / { -.E ] _ K P ~ R _ _ _ { _ { | _ ] _ ] { { ] _ ~ ] ] T J m W ] ( ",
"P E R G D L W J Q Y R R Y Y T Y Q R E Y ~ R W Y Q L J m V / I | o.] / T J P T _ { ~ _ ~ ] ] { _ ] _ _ { X.{ { _ { ~ Y L V U ( [ ",
"P ( ~ D V F P Y Y Y R Q Y W ~ ~ T Y Q ~ R R T T P Y L B V / / X.' [ _ _ J G Y ] _ ~ ] _ ~ ] { ` { ] { { { ' | { ~ ~ T Y x G ( [ ",
"P ( Y G m L Y Y E Q R R ~ _ R R R E R ~ ( R T T ~ L L n m / / { ' [ ] E L Y _ E ~ _ { _ ` ] ] { ` { ] { } _ ~ { ~ ` Q J B P ] ] ",
"T E I J m G R Y T E ~ ~ Q R R T R ~ Y ~ ~ E R ~ W L L V m ] T X.o.] _ ] J P Y R _ _ ` _ ~ _ _ { { ] { ] } { } { Q { R Y v J ] } ",
"P E R G n H P Q Y R ~ ~ R ( ~ E T R ~ R ~ R ~ ~ T P J c C T I { o.] E ] L J R _ E _ _ _ { { [ { _ ] { { _ { { _ _ _ R Y c L [ [ ",
"P P P F m D T R E P R Q E R R ~ Y R R T E R Y Y Y L G V C T T { <.] _ I G G R _ _ E ~ { ] _ ~ ] ] { { | ^ ` ~ ] ] Q R J n P [ ( ",
"P I Y Z V G J R E E R E ~ R ~ ~ T Q R E R R Y R L J J m n / / o.o.] ] _ K P R _ ] _ ] _ _ ~ ] _ } ` ] { } ~ ] _ _ R R J v G ] ] ",
"P E I Z b J P Y Y R R ~ R ~ ~ Q R E Y R ~ T Y Y L Y D n m E T _ ' ] } _ G P P _ R _ E _ { { _ ] } ] { ~ ] { ~ ~ ~ _ E L b H [ ] ",
"I I I D m D J Y P E E R Q ~ ~ R Q Q Y Y Y P Y L P L D m n E T { ' { I _ G K _ R _ ] E _ ] ] ] ~ ` ` ~ _ { { ~ _ _ ~ Y P x P [ ] ",
"I P I D b G Y P Y P E Y ~ T Q Y R R Y Y Y Y Y Y P P J v B T I } o.] ] ] A P _ R _ ] _ { { ] _ ] ~ { ~ ] _ ~ ~ ~ R ~ Q G v K [ [ ",
"R P Y G V D L L P E R R R R E T T E P R R Y T R P P F B n E / { o.] ] I D G _ _ _ ] { } _ ` { ` { { { ~ ~ { ~ R ( ~ ~ P N I / ] ",
"I T E F Z F J P T R T T E R R R Y T Y R Y Y R Y T P K B B I E { *._ ] E K K I _ _ ] _ { _ _ _ _ { ~ _ ( ^ ( ] ^ ~ R Q L n Q [ [ ",
"P I I F v F J P R Y R Y T Q T Y P R Y P L ~ E Y P J J b V E / ) -.] ] I G L R _ _ _ ] ] _ _ ] ` { { ^ { ~ { ] ~ ~ Q P L n L ( } ",
"I _ E F b G I P P R P R R Y E E Y P Y E R E Y Y P P G v b E / ] -._ ] ] G P _ _ ] ] ] _ E { ~ ~ _ { { { ] ( ~ ] E T Y K N P / ] ",
"I I E Z N L L P T P Y T R Q E Y Q E P T R E P P J P G V n / E ] ,._ I ] D K R I _ _ ] I ] [ { ] E _ _ ] { ] { _ E T E L v L ] ( ",
"I I I D B J P Y E I E Y R R Y R T T P T R T P T E P G A x / / X.#.[ ] [ J P P I _ _ E _ ] _ _ ] { ] ~ { { ~ ~ E R E T L c K ] ] ",
"P I I D Z K L P Y P T T E R E E T Y R E E T Q T E I F B N I E ~ :.I ] I P I I _ ] _ _ _ _ _ ] { ~ ] _ ] ~ ] { ~ ] ( I K B L ] ] ",
"I P I G m A P Y P P _ E ~ R _ R P E E R R T / I P P G b v / E ] ' I ] I G P I _ I ] _ } _ ] ] { _ ~ ~ { ] ~ ] ( ~ R I A c J [ [ ",
"I I I D b J J P _ T I _ R E T P Y T T T E E T I Q L L B v I / ] o.] I _ K J _ _ _ ] _ _ } ] { ] ~ ] ] ] ] ~ ~ _ R ] T P B L ( ( ",
"I I I Z b K P R I T ~ R _ _ T T T R R T Y / / T I L K B B / _ E ' E ] _ G J _ I _ I [ ] _ _ _ ] ] ] E ( ~ / E E ] Q P S B I ] / ",
"I I I G V K P P I E / E R P T Y E P I T I Y / Q T P G B v E I ] ' _ ] I G K I _ _ _ / [ ] _ I [ ] E ] ] ~ E ] E / T Y K x K [ [ ",
"P I _ G n K L I T E E T I E T T P P T I / L Y I T P K v c I I E ' ] ] I K K I ] ] ] ] / [ [ ] ] ( ] E _ ] ] ] ] / P I S v K ] [ ",
"K _ K S n G P P E I I T I E E P I Y Q P I T / I P L S b c ] ] ] ` ] [ I K I I _ ] E ] ] [ I _ ] E R _ E ] ( ] I / T P K x I ] [ ",
"P I I A Z J K P I T E I E P I P E P K I I T / K I P K B B I ~ ] ' E E I K I E E ] ] I ] ] I ] I I ] ] ] E ] / / E E T K M P [ [ ",
"I I I G n D G P I I P I T P I T L P L / I P I I I P F N B I T ( o.] ] ] I I I I I ] ] I ] ] ] ] ] E E / / / ] / I / I K x / [ / ",
"K I I ] Z Z L K I K I P E K I K L P P I I K I I A K S B L E / ~ ' _ _ _ E G I I I I I _ I I I I E I I / E / I I P I L S K / / [ ",
"I K I / $.T R [ / / ( } ] ] } [ ] [ / [ / ( / ( / E ( ( E I I ( o.] E I %.%.]  .+.+.@.} +.+.%.+.$.%.$.+. .+.+.} [ ( / } ( / / ( ",
"K P P K $.r.w.w.r.r.r.r.r.e.r.r.r.r.r.r.e.r.q.e.0.0.2.( / E / R ` / ] E / 0.u.i.a.p.p.i.y.u.u.u.y.p.u.u.y.r.r.u.r.w.9.2./ E { [ ",
"P P K K G ] 1.7.9.9.q.0.0.4.8.8.8.4.0.8.7.3.8.7.3. .E E I E I ] ' ] ] _ I E #.9.w.q.w.q.9.0.0.8.q.q.q.0.8.q.0.q.q.3. .E ( ~ } } ",
"P I I I I P P I ! _ Y ] E P ] / E E Y E I T E ( / I / I I I I ~ ` _ / E E ] E [ ] ] E [ [ [ ] ] ] ] ] ] / E ] ] ] E ( ] ( / ~ [ ",
"I P I P I _ I _ I E I ] ] ] I ] / E T ] / E / ] ] ] [ / / E T ~ ' [ E E / / ] { ] ] [ ] [ ] ] [ [ ] ] ] ( [ / ] / ( E ] ( ] ] T "
};
