/* XPM */
static char *_e5202874d254736f5b7800060ef680d0rHLZaODo0XJRqRC[] = {
/* columns rows colors chars-per-pixel */
"64 64 244 2 ",
"   c #595949",
".  c #6A6349",
"X  c #515949",
"o  c #595149",
"O  c #6A5949",
"+  c #515149",
"@  c #636359",
"#  c #494139",
"$  c #727251",
"%  c #515141",
"&  c #595951",
"*  c #635959",
"=  c #596351",
"-  c #596349",
";  c #6A6359",
":  c #72636A",
">  c #6A6351",
",  c #6A5141",
"<  c #595941",
"1  c #514141",
"2  c #393021",
"3  c #515139",
"4  c #413021",
"5  c #392821",
"6  c #413928",
"7  c #9CAD8C",
"8  c #8C937B",
"9  c #ADAD8C",
"0  c #D6C6BD",
"q  c #D6CEAD",
"w  c #ADC6AD",
"e  c #9CAD7B",
"r  c #93937B",
"t  c #B5B5AD",
"y  c #9CAD93",
"u  c #B59C8C",
"i  c #8C837B",
"p  c #9C9C93",
"a  c #ADB593",
"s  c #ADAD93",
"d  c #B59C93",
"f  c #B59C9C",
"g  c #ADB59C",
"h  c #ADC6B5",
"j  c #D6DEBD",
"k  c #D6C6AD",
"l  c #B5B593",
"z  c #9C938C",
"x  c #93838C",
"c  c #8C8383",
"v  c #B5AD9C",
"b  c #CEB59C",
"n  c #CEB5AD",
"m  c #D6CEB5",
"M  c #DEDEBD",
"N  c #BDB59C",
"B  c #413930",
"V  c #282118",
"C  c #282818",
"Z  c #413028",
"A  c #B5AD93",
"S  c #B5ADAD",
"D  c #B5B59C",
"F  c #ADAD9C",
"G  c #493928",
"H  c #9C9C8C",
"J  c #ADC693",
"K  c #939C8C",
"L  c #727259",
"P  c #7B7B6A",
"I  c #AD9C9C",
"U  c #BDAD9C",
"Y  c #B5C693",
"T  c #BDB5AD",
"R  c #BDCEB5",
"E  c #ADB58C",
"W  c #9CB59C",
"Q  c #B5C69C",
"!  c #CEC69C",
"~  c #BDCEAD",
"^  c #BDB5B5",
"/  c #BDC693",
"(  c #9CB5AD",
")  c #72726A",
"_  c #AD9C93",
"`  c #CEC6B5",
"'  c #B5AD8C",
"]  c #9C937B",
"[  c #93938C",
"{  c #93837B",
"}  c #AD9C8C",
"|  c #8C7B72",
" . c white",
".. c #DEE7CE",
"X. c #CECEAD",
"o. c #BDC6AD",
"O. c #CECEB5",
"+. c #BDC6B5",
"@. c #CECEBD",
"#. c #D6E7CE",
"$. c #BDC69C",
"%. c #D6CEBD",
"&. c #D6DEB5",
"*. c #8C8372",
"=. c #393930",
"-. c #494141",
";. c #494941",
":. c #394139",
">. c #414139",
",. c #393939",
"<. c #414941",
"1. c #414939",
"2. c #414141",
"3. c #415149",
"4. c #495149",
"5. c #6A6A63",
"6. c #282821",
"7. c black",
"8. c gray3",
"9. c #181818",
"0. c gray6",
"q. c #0F0808",
"w. c #000800",
"e. c gray13",
"r. c #212818",
"t. c #0F1808",
"y. c #180F0F",
"u. c #080F08",
"i. c #7B726A",
"p. c #726359",
"a. c #182118",
"s. c #21180F",
"d. c #282828",
"f. c #211818",
"g. c #283028",
"h. c #494949",
"j. c #393028",
"k. c #6A6363",
"l. c #7B7B72",
"z. c #6A5951",
"x. c #212821",
"c. c #080800",
"v. c #CEC6AD",
"b. c #282121",
"n. c #0F080F",
"m. c #595151",
"M. c #493939",
"N. c #93AD8C",
"B. c #212118",
"V. c #B5C6AD",
"C. c #9C9C7B",
"Z. c #6A7263",
"A. c #495128",
"S. c #726A63",
"D. c #BDAD93",
"F. c gray35",
"G. c #DEE7BD",
"H. c #6A6A72",
"J. c #303028",
"K. c #393030",
"L. c #8C7B6A",
"P. c #CEDEB5",
"I. c #CED6CE",
"U. c #6A726A",
"Y. c #CEC6BD",
"T. c gray39",
"R. c #B5AD7B",
"E. c #93AD93",
"W. c #636A63",
"Q. c #514139",
"!. c #212828",
"~. c #B5C6B5",
"^. c #DECEBD",
"/. c #636A59",
"(. c #6A5959",
"). c #0F0F18",
"_. c #0F0F21",
"`. c #181828",
"'. c #08080F",
"]. c #181808",
"[. c #211808",
"{. c #282108",
"}. c gray19",
"|. c #282128",
" X c #212130",
".X c #282839",
"XX c #303041",
"oX c #302841",
"OX c #302828",
"+X c #302821",
"@X c #413939",
"#X c #393941",
"$X c #515951",
"%X c #302830",
"&X c #7B7B83",
"*X c #414151",
"=X c #727B6A",
"-X c #180F18",
";X c #212139",
":X c #303051",
">X c #393963",
",X c #49416A",
"<X c #514149",
"1X c #514159",
"2X c #514172",
"3X c #514183",
"4X c #59516A",
"5X c #725941",
"6X c #7B6341",
"7X c #725939",
"8X c #6A5159",
"9X c #93720F",
"0X c #9C9CA5",
"qX c #000008",
"wX c #7B728C",
"eX c #BDB58C",
"rX c #937B51",
"tX c #AD9C7B",
"yX c #392828",
"uX c #000021",
"iX c #392849",
"pX c #7B7272",
"aX c #302128",
"sX c #AD9372",
"dX c #281818",
"fX c #513921",
"gX c #493039",
"hX c #180F21",
"jX c #0F000F",
"kX c #080000",
"lX c #0F0000",
"zX c #393039",
"xX c #413049",
"cX c #281830",
"vX c #210F21",
"bX c #595141",
"nX c #9CADAD",
"mX c #CEB5B5",
"MX c #BDB593",
"NX c #AD938C",
"BX c #AD939C",
"VX c #BD9C93",
"CX c #BDADAD",
"ZX c #6A7251",
/* pixels */
"  .   X o O   + O O   O @ o # $ $ # % & * & X = O - * ; : $   O @ > > > > >   . , < O < 1 2 2 3 3 4 4 5 2 2 2 2 2 4 2 2 2 2 6 6 ",
"> 7 8 9 0 q w e r t y y u 8 6 2 2 6 i p a s d f g 8 a h j k l z x c x x x x v b n m m M q N B V C Z l l A S v 9 D F y l v g F G ",
"> H H z J y w y s H s p H K L B 6 P I U v H K s Y N A T R F E W F Q D ! D Q v ~ ^ D D / N ( ) 6 6 P _ v _ ` ' Q Q N D A D v p 6 ",
"X 9 y s H H H H ] r r s s A D A A _ p p [ r { r [ y F F t s p y y F p y F H H s } } } y s H s A s D D H A H H s y } H r | N p 6 ",
"  ` 9 H s  ...X.q o.j O.O.O.m O.m R O.O.T D o.` +.@.O.j ..M ..@.j R #.O.O.O.j +.O.O.~ $.%.%.m ..M j m O.O.&.m &.m O.A [ ) s _ 6 ",
"O o.N z D &.$.! D N s y D D H H y s _ H s p H H F t D o.N ! o.O.t t D o.s D F y s 7 ' s D N D y $.N D l l y $.N X.N D *.; a A =.",
"  g D _ D %.o.-.;.:.>.>.:.:.,.=.,.=.,.<.:.:.<.>.:.>.<.>.:.:.<.>.<.1.:.:.2.:.,.:.>.2.:.2.=.:.>.:.>.<.>.<.3.>.:.:.4.> D *.) D y 6 ",
"  H y H D j $.5.6.7.8.8.8.8.9.0.7.8.8.8.q.8.w.8.8.q.q.9.8.q.e.r.e.q.e.8.0.8.7.8.8.7.t.y.u.8.7.7.7.8.7.7.8.w.7.7.4.i.D { p.a H 6 ",
"O z g 7 D j o.5.e.0.7.8.u.8.9.a.s.d.t.e.d.r.f.B C :.g.e.:.:.g.=.g.a.g.e.g.a.0.0.7.7.8.8.7.8.0.7.7.8.7.8.8.8.7.u.;.L D { ; 7 r 6 ",
"* D A s N O.N 5.e.8.8.0.0.g.e.e.:.r.d.y.r.=.g.=.2.B + h.g.j.2.2.g.2.2.h.:.2.d.g.:.=.:.g.e.g.=.d.e.7.9.d.e.q.0.u.2.k.D l.> a F 6 ",
"z.O.' H D j o.5.x.7.0.7.0.0.9.y.c.9.q.0.y.0.e.9.9.d.d.e.e.9.s.y.0.y.e.9.q.0.9.7.7.7.0.7.0.7.0.7.0.q.0.8.8.8.8.7.:.L s *.) D v.G ",
"  D 7 H $.v.D 5.b.9.n.9.9.e.d.:.g.2.:.:.2.B m.2.+ B M.C g.a.0.e.r.C j.j.g.=.a.y.8.9.r.9.0.7.7.8.8.7.7.7.s.f.9.7.>.) D l.) v D G ",
"O y N.H s O.l 5.e.8.7.8.7.e.q.9.0.q.9.B.s.e.d.e.9.d.e.e.9.0.B.y.B.B.q.f.0.0.0.0.9.8.9.9.7.0.7.0.8.8.7.7.0.7.8.8.:.i.V.*.L v.y M.",
"@ u 7 H D O.o.5.d.e.9.9.a.a.j.g.2.a.+ h.m.m.+ h.+ * h.h.+ B + j.f.q.e.9.s.y.0.0.e.q.9.8.0.9.8.w.9.t.8.7.0.0.7.7.<.; D *.: D A G ",
"o 8 K C.s R $.Z.e.8.0.0.9.8.e.f.0.0.y.9.0.e.9.f.g.d.d.y.9.y.f.d.f.B.s.f.A.9.B A.+ h.h.* :.+   h.h.h.2.g.y.y.8.u.<.k.s *.; W v 6 ",
"# 6 L 9 y O.$.5.e.0.8.0.y.q.0.e.y.0.y.B.e.e.d.s.d.d.d.e.e.s.g.e.h.g.B.g.4.S.  :.  S.* @ * * 2.g.:.9.8.8.0.8.0.7.2.; D l.L ) 6 2 ",
"$ 2 B y D.&.D Z.e.e.d.e.j.2.+ 2.* @   + m.F.+ S.* S.S.* S.m.S.S.* @ S.S.@ S.* S.* *   @ S.@ * @ * 2.+ =.B :.e.g.;.: A *.k.6 V 3 ",
"$ 2 6 s l j l 5.d.d.e.d.g.2.m.m.F.+ m.=.F.S.  A.j.  S.2.2.X j.2.  r.* :.d.=.g.:.:.r.a.g.B y.j.9.9.9.8.0.7.0.c.7.>.; D i p.6 C 3 ",
"# 6 P D s G.$.5.d.q.8.q.y.B.s.e.e.j.d.r.C e.d.d.j.j.2.B B j.B B e.j.j.s.d.s.=.e.s.0.s.e.u.0.0.0.0.9.0.8.7.0.7.8.<.> D P : P 4 Z ",
"% i F D o.j o.5.e.e.e.g.d.=.:.B m.F.* A.S.- S.S.S.B S.c c S.S.B     j.d.y.:.d.=.m.:.q.9.r.0.w.+ m.s.g.2.r.8.d.s.<.p.s i.z._ l 4 ",
"& _ T F $.#.~ H.6.e.s.=.g.r.2.2.m.F.+ @ S.S.S.S.S.* c c i c S.S.  c   2.A.@ * S.0.F.j.h.C 2.J.a.h.r.K.h.2.0.s.9.<.k.7 i.z.I p 2 ",
"* a D t T ..O.Z.e.8.q.9.9.e.y.e.e.g.=.f.e.d.B B B 2.* + * m.B B B j.j.d.d.A.e.g.d.e.y.s.B.9.u.e.q.0.8.7.a.8.0.7.>.; H L.z.y ' Z ",
"  d T F +...P.5.d.u.e.g.d.2.B m.+ :.2.0.=.X S.S.c c c c c i c c S.c S.* S.* @ * A.h.r.C 2.h.g.C r.7.7.t.d.y.a.7.2.k.} |   s I Z ",
"@ v ^ t $.I.! U.d.8.w.e.j.C 9.d.j.f.y.:.a.d.2.B 2.+ S.* S.+ B B B B j.g.j.d.d.d.B.y.B.8.r.8.w.0.9.8.7.y.8.0.a.u.>.; y L.; _ p # ",
". D Y.+.V.I.o.5.d.a.y.a.g.2.g.:.* g.A.r.2.2.S.S.c S.S.c i c c c S.S.c S.h.* S.* + * @ h.h.m.2.;.B h.h.2.2.e.g.d.>.: D | T.R.g # ",
"  s o.D T j D 5.d.t.f.r.0.C d.2.A.j.- 3 B.d.B j.2.2.* * + 2.+ m.B B j.j.B j.d.:.d.0.9.0.0.0.0.8.9.8.0.0.0.8.0.7.<.p.F i.@ E.d # ",
"* $.` o.t j $.5.e.9.f.d.2.:.+ m.2.:.e.6.5.        c S.c c c c c X   c h.    g.h.s.d.0.9.9.9.9.0.9.0.8.8.0.7.7.8.<.k.y i z.l U # ",
"; m I.s o.O.D 5.b.9.d.d.2.=.+ m.F.S.S.  * S.S.S.c i i c i i S.i i c c S.S.* @ m.S.S.h.* * * * h.* h.2.2.=.r.d.u.:.; D | @ $.T 1 ",
": k X.D l m y 5.6.r.e.J.j.2.j.X =.2.r.m.A.S.S.S.S.i c S.S.S.c S.S.S.S.S.=.h.g.* + * + :.r.h.g.@ r.m.h.2.d.u.e.d.2.> g | T.v N 1 ",
"$ O.Y D D o.l W.e.u.d.e.e.f.9.m.g.g.:.g.d.d.j.e.B j.2.B j.  j.B j.B j.j.A.A.3 t.C 0.9.8.0.e.C e.9.8.9.8.9.0.8.8.>.; D l.@ T n Q.",
"  N +.F o.O.W 5.!.0.7.0.0.9.w.y.9.  ;.C B.y.d.e.e.e.A.B h.A.B B 2.  =.3 5.  :.s.=.r.e.y.9.y.8.B.0.e.7.7.9.0.8.7.<.k.7 l.: Q Q # ",
"O ~.^ D $.j D 5.e.8.0.w.8.q.q.B.s.9.y.y.r.e.y.s.e.s.d.j.j.j.e.e.d.  * 5.5.S.S.B h.J.m.F.2.+ h.h.* 2.h.2.d.g.d.e.;.; H l.> E d # ",
"@ D ~.t t %.D 5.6.t.7.9.y.r.B.r.m.r.C B h.e.y.B.B   B g.:.g.h.y.d.e.s.:.A.:.g.j.8.9.r.C =.h.=.+ 9.2.h.h.9.8.a.7.>.: p l.& v p # ",
"  O.F g D j D 5.e.7.0.8.0.e.0.y.e.0.B.r.C d.d.s.B.B.B.e.y.y.B.9.s.d.f.0.y.B.e.q.0.8.9.8.0.0.0.0.9.e.0.r.2.0.d.7.>.& H ) ; d _ # ",
". G.v.F D +.l W.x.e.q.g.9.>.g.h.g.A.B :.@ @ S.* @ * A.f.:.j.:.e.d.r.e.s.e.0.s.0.s.e.0.8.q.9.0.8.9.9.9.f.C 9.0.7.>.; H ) & D.y 6 ",
", ^.9 A D &.y 5.e.t.f.=.r.:.:.h.m.h.@ * * + m.F.S.S.S.S.* * S.S.* @ * m.m.+ * h.h.* h.+ m.+ m.h.h.h.h.2.:.g.d.d.<.k.r ) * z } 6 ",
"  U ] y D o.s /.d.e.9.9.d.g.2.2.h.h.m.F.+ S.m.+ * + h.    S.* A.S.:.* @ 0.e.* @ h.h.+ * F.m.=.2.h.9.w.C 0.8.f.s.1.; [ ) z.s l 6 ",
"O U l r H $.H W.e.0.8.0.q.8.8.0.0.0.9.9.9.e.e.0.y.g.:.r.=.B r.:.B h.9.e.0.n.0.e.e.d.e.9.e.0.e.9.0.9.7.0.7.8.q.8.2.k.p P ; $.y 6 ",
"* I y r H o.9 @ d.0.8.q.n.7.8.9.8.q.w.J.y.0.0.q.9.C C 0.r.h.0.2.  :.* + * + j.m.h.+ m.h.* + m.+ 2.2.=.g.:.=.g.e.2.p.y ) (.A H 6 ",
"z.$.H r r D H W.x.u.u.t.7.u.u.w.t.a.C 8.a.8.8.a.0.w.w.0.s.9.w.C a.s.0.y.r.0.e.8.q.9.9.e.e.9.u.9.0.9.9.0.9.7.0.7.<.k.F i.: 9 r 6 ",
"> t y _ H o.s @ e.7.7.y.f.t.7.8.w.C 9.:.t.r.j.0.g.8.C 7.0.g.w.u.0.8.B.q.j.j.y.C j.r.9.=.u.w.J.8.8.r.2.8.7.7.u.u.<.(.H | p.F F 6 ",
"z.` b } p ~ H @ e.u.t.u.a.8.7.r.q.B.2.B =.m.:.2.C C 2.2.j.q.B.2.y.r.=.w.7.7.0.w.0.8.7.w.8.7.7.7.8.0.a.8.8.7.7.7.<.: s l.z.o.$.M.",
"  ^.k H H D H @ e.8.7.7.w.0.0.0.7.7.q.7.8.8.t.0.8.0.9.7.w.8.7.w.0.9.0.7.7.0.7.8.7.7.8.7.0.8.7.7.8.u.8.7.7.7.7.7.>.z.y *.; $.s O ",
"1 m Q ] r s H = d.w.7.7.8.9.9.7.7.8.0.7.8.g.7.9.8.7.8.0.0.9.0.8.9.8.0.0.8.9.8.9.7.7.8.0.7.7.8.0.8.8.8.7.7.0.u.7.>.p.A | k.l A Q.",
"2 T g i H T H = !.8.8.0.7.0.0.0.8.9.9.8.0.0.0.0.9.8.0.7.8.7.9.8.0.8.7.0.0.8.0.y.0.7.0.8.8.8.7.0.8.8.0.7.0.w.8.7.2.: H i.& ( v 5 ",
"2 6 i.H p $.s F.!.9.9.e.9.9.e.d.d.e.d.g.=.=.g.:.=.d.e.=.:.2.=.:.e.d.=.d.d.d.g.d.y.s.9.9.d.d.=.:.d.g.d.e.q.0.7.8.>.; s l.(.L 6 2 ",
"3 V 6 r r ` s = !.7.7.7.7.8.8.8.t.w.0.e.7.0.a.t.8.8.r.9.t.g.d.C r.a.u.g.:.e.:.=.0.=.a.u.=.d.=.9.d.9.e.e.u.7.t.0.<.) p ) z.6 V 3 ",
"3 C 6 [ H D y & e.8.7.7.7.7.t.a.9.u.q.e.u.s.u.u.f.8.8.7.u.7.7.8.e.7.8.8.7.c.7.w.7.a.8.8.7.w.7.w.7.t.7.7.7.8.8.7.<.; F | o 6 C 3 ",
"4 Z P r s o.D & B.8.0.8.c.7.7.7.7.7.7.8.0.)._.`.`.).'.8.8.8.8.8.c.q.].[.[.{.V [.].8.8.8.8.7.7.8.7.8.8.7.8.8.8.7.;.) H U.+ P 4 Z ",
"4 l _ H H O.y = e.0.d.}.e.B.e.e.e.e.e.e.|. X.XXXoX Xd.|.e.b.e.e.b.6.OX+XK.2 2 2 K.6.6.b.b.d.d.d.6.e.e.b.b.e.9.8.;.; [ ; O p l 4 ",
"5 l v r H o.s & x.9.@X2.=.,.,.,.,.,.,.,.,.,.,.#X,.@X@X,.,.,.,.,.,.@X,.=.=.,.=.@X@X@X,.,.,.@X@X@X@X,.=.K.}.}.e.8.;.k.H k.o f p 5 ",
"2 _ f H C.O.l $X6.d.@X}.d.-.h.}.d.K.K.d.,.F.K.d.K.,.d.}.+ 2.K.}.@X}.b.2.h.d.OX@X}.}.h.-.d.d.@X=.e.J.-.OXe.}.%X9.4.p.y i.> g ' 5 ",
"2 F N s A O.a & }.,.,.d.B.+ k.d.e.@X=.9..X&XXX X*X2.e.J.=Xh.9.}.2.OX0.& 5.f.d.-.}.e.T.T.f.e.-.,.-Xd.T.d.f.=.}.B.+ ) s L   A I J.",
"2 I v v 7 O.y $X@XK.OXOX9.0.9.f.d.=.}.|.e.;X:X>X,X*X}.e.e.-Xe.=.,.K.B.V 6.b.K.>.=.d.e.e.b.=.2.>.J.d.J.d.K.@X@X}.& ) H P O A I +X",
"j.p A y s P.s * + <X+ + + o * m.* + o * 1X2X3X3X2X4X* k.(.m.O <X1   O 5X6X7X5XO z.z.(.& z.m.* m.* z.z.p.k.; z.o + *.H i.& 7 v 5 ",
"2 H H s a R 8X9X9X9X9X9XP s s D D s D D F 0XqXqXqXwX[ f D 9X9X8Xr l eX8.q.q.q.rXtXD $.s A.A.A.A.9X8XH N D D 9X9X9X8X*.)   l I 2 ",
"2 A y s D R 8X9X9X9X9X9XyXl.W s D D y F F 0XuXuXuXiXpXp z 9X9XaX) } sXdXdXdXdXfXL.N D H 9X9X9X9X9XaX| s D } 9X9X9XV k.L > Y 9 +X",
"4 s l D D t gX9X9X9X9X9Xy.) D o.$.A l s f wXqXqXqXhXp.r z.9X9X-X& *.O 8.0.t.q.V L.D 9 P A.A.A.A.A.-X) p _ ) 9X9X9XjXO ) > A y 2 ",
"2 y D s o.p gXjXkXkXkXlXzX) s D v A A A [ m.xXcX XK.) [ L 8XV %X; ) M.y.t.kX7.G P l y * 7.7.7.7.7.gXi.v i 1 aXvX-XV T.) z.D.s M.",
"2 l N y F [ ) ; + + 1 -.* P l.*.| *.L.L.| i.(.* * * L P L = + <X& Z.) > bX1 1 O i.P L.L > m.+ 1 1 z.i.*.& * o + M.-.z.L > N l 2 ",
"Z v ! p | i.l.: ) p.k.; ; z.> ; T.> @ > p.k.: p.S.; & z.k.* + + ; k.> p.: z.z.p.: ; : p.: p.p.: ) (.) ; k.p.> * + & O & z.F t 2 ",
"-.A l D D V.` a N b nXQ &.U L 6 6 *.9 v N b D v.v ~.+.! v mXl I F MXY NXX.! D ! ^ ^ D g D U ) Z 6 P _ v S s p 8 ] ' E N U y a G ",
"O y K ' %.m Q 7 H D q y ' K 6 2 2 6 i p s a d v W z nXO.MXN x { r p q BXVXF +.n $.~ v.^ A CX6 C C 4 l l p ' I H s y H l S g a O ",
"#   O X   O     O O * O > o # $ $ # % * O &   = O . * ; p.: < @ ZX  O ,     z.> O < 1 O Q.2 2 3 3 Z 4 5 5 5 J.2 J.2 4 2 5 2 G   "
};
