/* XPM */
static char *result[] = {
/* columns rows colors chars-per-pixel */
"64 64 210 2 ",
"   c #080000",
".  c #000800",
"X  c #080800",
"o  c #080008",
"O  c #000808",
"+  c #0B0B0B",
"@  c #000008",
"#  c #180F0E",
"$  c #0E180F",
"%  c #18180F",
"&  c #0E0F18",
"*  c #180F18",
"=  c #0F1818",
"-  c #181818",
";  c #280F0F",
":  c #390F0D",
">  c #211818",
",  c #210F18",
"<  c #0F210F",
"1  c #18210F",
"2  c #0F2118",
"3  c #182118",
"4  c #182818",
"5  c #212118",
"6  c #252518",
"7  c #2E2E10",
"8  c #0F1821",
"9  c #181821",
"0  c #060B2D",
"q  c #211821",
"w  c #301821",
"e  c #0F2121",
"r  c #182121",
"t  c #182821",
"y  c #182128",
"u  c #182828",
"i  c #183028",
"p  c gray13",
"a  c #212821",
"s  c #282821",
"d  c #212128",
"f  c #282128",
"g  c #212828",
"h  c #282828",
"j  c #302828",
"k  c #342527",
"l  c #213028",
"z  c #283028",
"x  c #253625",
"c  c #303028",
"v  c #393028",
"b  c #212830",
"n  c #282830",
"m  c #262637",
"M  c #302830",
"N  c #392830",
"B  c #213030",
"V  c #283030",
"C  c #213930",
"Z  c #283930",
"A  c #283039",
"S  c #283939",
"D  c #213939",
"F  c gray19",
"G  c #393030",
"H  c #303930",
"J  c #303039",
"K  c #393039",
"L  c #303939",
"P  c #393939",
"I  c #393930",
"U  c #49090F",
"Y  c #590F0F",
"T  c #6E1831",
"R  c #453028",
"E  c #413939",
"W  c #49292E",
"Q  c #672135",
"!  c #522910",
"~  c #0C4139",
"^  c #254135",
"/  c #304139",
"(  c #394139",
")  c #305935",
"_  c #284128",
"`  c #306330",
"'  c #366735",
"]  c #397239",
"[  c #414139",
"{  c #485222",
"}  c #6A7221",
"|  c #081546",
" . c #303941",
".. c #393941",
"X. c #393243",
"o. c #080C67",
"O. c #413941",
"+. c #413949",
"@. c #394141",
"#. c #394149",
"$. c #394949",
"%. c #344441",
"&. c #397241",
"*. c #414141",
"=. c #494141",
"-. c #414941",
";. c #494941",
":. c #414149",
">. c #494149",
",. c #414949",
"<. c #494949",
"1. c #514949",
"2. c #495149",
"3. c #445146",
"4. c #515149",
"5. c #414951",
"6. c #494951",
"7. c #454555",
"8. c #514951",
"9. c #415151",
"0. c #495151",
"q. c #495159",
"w. c #495956",
"e. c #515151",
"r. c #515951",
"t. c #595951",
"y. c #515159",
"u. c #515959",
"i. c gray35",
"p. c #595155",
"a. c #635959",
"s. c #516359",
"d. c #596359",
"f. c #636359",
"g. c #515963",
"h. c #595963",
"j. c #545668",
"k. c #635966",
"l. c #516363",
"z. c #596363",
"x. c #59636A",
"c. c #596A6A",
"v. c #596A63",
"b. c #596372",
"n. c #596A72",
"m. c gray39",
"M. c #63636A",
"N. c #636A6A",
"B. c #686765",
"V. c #726A6A",
"C. c #66726A",
"Z. c #72726A",
"A. c #636372",
"S. c #636A72",
"D. c #6A6A72",
"F. c #6A6372",
"G. c #726A72",
"H. c #637272",
"J. c #6A7272",
"K. c #727272",
"L. c #862830",
"P. c #932839",
"I. c #AD2C39",
"U. c #AD1839",
"Y. c #C61839",
"T. c #B52441",
"R. c #83726A",
"E. c #399139",
"W. c #419539",
"Q. c #49A539",
"!. c #418341",
"~. c #419C41",
"^. c #6A8372",
"/. c #728372",
"(. c #7B8C7B",
"). c #51B549",
"_. c #182990",
"`. c #21418C",
"'. c #676A83",
"]. c #726A83",
"[. c #6A7283",
"{. c #647285",
"}. c #727283",
"|. c #72728C",
" X c #6D7293",
".X c #837283",
"XX c #83728C",
"oX c #6A8385",
"OX c #728383",
"+X c #72838C",
"@X c #728C8C",
"#X c #728C93",
"$X c #838383",
"%X c #84858C",
"&X c #848896",
"*X c #89939A",
"=X c #9C9898",
"-X c #8996A6",
";X c #9494A8",
":X c #8B94AD",
">X c #95A5AA",
",X c #9CA5B5",
"<X c #A5ABB7",
"1X c #A6B5B7",
"2X c #A5ADAD",
"3X c #A59C9C",
"4X c #B5C6BD",
"5X c #ABBBC6",
"6X c #B5BDC6",
"7X c #B2C6C7",
/* pixels */
"o + X O o +   + @ +   O + O + O + X + o + . r 9 = 9 = 3 r q 3 + O o + X O + +   + O + + + @ + + + + X O o + h z V F F n H Q w + ",
"= - 9 - * 0 9 0 # ; = & $ = + = 7 + $ e 3 o h a a d y p f Q 9 + 2 - r 2 9 9 8 3 r 3 9 - 2 % e y $ 3 9 3 = + h a g d d g k T.w + ",
"- 3 9 3 8 | 0 + > , y h V B n b } 9 - g y X V r r = = = $ + q X - r V J V A S Z A Z A V h D C J C A Z V 8 + n f p 9 - - * w y O ",
"r d $ & _.| & U ; + + $ = % > { 7 + + & d + z y % F *.V - - p + - p Z 6.M L 2.V L 6.c S 6.j L 6.j S e.h 9 + h a = F <.c 9 & 9 + ",
"- p 8 o.0 + U ; - e t 2 p t u } e 9 r $ g X h + p a.2X-.P = - @ r p B q g B p g Z p h Z f s z a s V q h r + s + p u.>X,.P - $ + ",
"- d o.8 + U - $ + $ + O $ + 3 ( & = & + A + B + = F *.c - $ & O - t b $ s n + g l & g B & p Z & h Z $ f 9 + h + = F =.F - $ $ o ",
"9 | & + : # & $ $ $ $ $ $ + s 1 O $ $ + S + h p + > y = & = 9 + - p B g g b f h A a h V p z z g h l g s - + u p + > 5 = - - 9 O ",
"- % * U > & $ + $ $ O $ & % 7 # $ + + $ M $ V y d + % = & f p . 8 9 p a p r g t a r t d d r p r g a r p 4 + z a p $ = * & p y o ",
"= p F O.6.7.<.<.$.#.6.<.<.<.4.;.@.E ..@.L + z y p 5 g 9 p a d + 3 g J #.#.7.6.6.7.6.6.<.,.<.2.<.@.( ..O.F + h g g d p p p d h + ",
"r 8.OX*X;X*X&XOX{.K.A.'.H.M.[.V.u.g.e.h...$ h & p & r + t X d X r <.}.-X;X*X&X+XG.[.k.{.M.b.G.S.h.r.0.h.@.$ h + r + r & p + 9 + ",
"p S.1X7X5X<X;X&X/.A.H.S.C.}.Z.G.j.v.q.m.@.# z + p + d + g O p O 5 D.1X7X5X,X*X%X^.].H.C.K.}.J.Z.x.a.g.a.@.+ g & p # y + h # 9 O ",
"t +X5X5X5X;X*X+X}.'.OX}..X+X$X/.S.a.s.A.,.+ u q r r r f r p 3 o g %X7X6X1X,X*X+XoX}.OX}..XOX$X^.A.d.a.S.,.& g 3 9 r d r 3 3 r + ",
"d }.1X1X>X-X#X%X[.$X$X$X$XOX&X.XJ.A.u.F.5.+ O + + + + # + & + X g }.<X<X>X:X*XoX].OX.XOX$XOX$X.XS.H.l.z.$.& + & o + + + + + + O ",
"p J.-X-X-X&X%XOX[.}.}.|.$X$X%X$XD.D.z.B.6.$ m $ W # R > $ R O + a H.:X#X-X-X@XOX.XOX+X$X$X$X%XOX[.Z.j.D.<.$ n n l z g z g V g X ",
"9 b.[.+X%X%X}.}.OXOX/..X}.$X%X}.}.B.f.x.,.+ h $ $ $ + $ + # + . r b.[. X%X&X+X+XOX[..X}.}.%X%X%XJ.Z.f.z.,.$ h t t y y r t r t + ",
"r u.{.D. X}.oX[.H.}.OX.X$X.X}./.B.m.t.y.#.X h $  .+ H 3 $  .X o r u.'.[.[.|.{.H.'.OX}.OXXX%XOXZ.C.i.f.h.*.& B y r + e + r e 9 O ",
"9 q.k.H.c.A.'.N.H.Z.V.|.$X(./.Z.z.u.j.f.P + h = q & 6 = < r + + 9 q.j.M.H.x.H.H.C.V.}..X$X/.K.K.d.y.e.8.P $ b r u t t y t y t + ",
"3 <.v.s.b.H.N.M.D.Z.G./.[..XZ.G.t.g.2.<.@.+ h % $ + - $ - & + o p 6.g.N.b.x.N.x.D.^.K.J.oXK.K.B.a.e.<.4.P & h $ g + 4 & r + a O ",
"p 5.0.j.z.m.z.M.B.}.Z.OXZ.V.F.B.a.2.*.4.P + n $ 2 = = < * - + X p 5.g.g.b.k.n.F.N.N.]./.B.G.Z.S.r.0.;.2./ + V t l y u t l d g + ",
"q :.,.6.4.u.D.m.J.M.Z.K.V.Z.f.Z.t.2.*.<.P + l & 5.& ( a + >.+ + p =.6.2.w.z.M.b.V.H.K.K.].C.a.Z.r.2.[ 3.c & h $ u & g $ g + 4 o ",
"9 @...<.6.l.k.S.m.F.K.V.J.m.h.i.e.<.*.*.S + h % & # % + % & $ O - @.*.:.q.u.A.N.M.Z.K.S.Z.m.f.i.0.1.-.*.V & n B B i C u B l B + ",
"r L K ..:.5.p.u.s.h.f.M.B.h.e.e.>.=.P ( z + h < A $ h - - n O + p J P @...5.i.g.a.j.m.N.a.d.e.a.<.;.( P z # V l l $ l = l D i X ",
"3 X...%.:.7.6.7.j.y.e.y.i.e.4.6.;.P P I M + z - + & = $ 3 $ + X - L P ( :.,.<.7.g.s.i.y.k.p.e.1.,.P E P h # g D C C P z Z V C X ",
"r %.X...#.#.:.$.>.:.*.=.,.,.,.O.O.>.@.P h + z 3 @.+ P f r P X o r .. ...@.:.+.*.:.,.:.<.:.,.:.*.O.*.[ @.x + n C S A ! b C Z V + ",
"- V h V A A J P H  .P ..( P P P ..P I K g + h y + = 9 = 5 $ e + 3 m b n A V A J K P P P P P P E L P K c h + z D ^ z : s S S Z + ",
"+ O + + $ < + + + + + + + + + + & + + + O + b g { = { a u { & . o + + # $ < $ $ + + + + # # & + $ + + & + + h S / S > s S L D + ",
"= 3 _ ] W.).~.` p a t.y p z.p d h.u y `.y + n g = + 3 + h # - + - 8 x ` E.Q.W.` t 9 Y r > y.p a y.u y e.p + h C ^ C g z Z Z C O ",
"9 9 % % = 1 = % r r - p r - r 9 - - 9 = r + l z T + Q : l T + O 3 r 1 4 3 4 3 = r r - q r r p 9 3 r 9 9 3 + % r = $ $ $ $ & $ + ",
"+ $ + + & $ = + $ & = & $ # $ & & + & & $ + z V + + - # s # + X = + + & & + = = & & & $ # & $ * = & = & = X $ + $ $ & $ $ = # + ",
"+ O + + + o o + + X o X + O + X + + o +   + $ $ $ $ $ $ + + $ o X o + + + + o O + X + X o o + O X + + X o + O + + o + + O + + o ",
"- - 9 9 3 9 5 - - 9 9 q r 9 9 9 3 - q - - X o O + o X + $ +   X > 3 r p d r r y q y p a r y p f r q 9 3 - + 3 9 3 > r p p t 5 O ",
"3 9 J *.0.9.0.5.5.6.6.<.8.<.<.<.@.E @.:.A + + + o + 9 3 9 - r + 9 d L ,.6.q.0.5.0.6.6.6.<.<.<.:.-.P @.:.H + $ & + $ 9 6 3 r a o ",
"r <.[.;X;X-X*X|.Z.F.A.A.S.M.K.N.z.r.0.m.@.+ r h l d $ r a t p + p <.[.*X;X&X&X}.OXS.D.A.S.A.K.A.i.h.e.g.@.+ t y g d 3 t a a 5 O ",
"r D.1X7X7X>X-XXX[.[.N.}.H.K.K.J.a.x.e.m.@.+ V *.*.L 3 p z z z O p A.1X7X1X<X;X%X^.A.G.A.}.}.K.Z.h.f.e.m.@.& m @.*.H r a z z h + ",
"r %X7X7X1X:X*X%XOXG.OX[..XOX/.G.H.m.i.A.,.+ n y.u.3 -.$ OXz J.+ g @X7X6X1X>X*X+X}.G.OX[.}.$XOXK.J.d.a.z.,.+ g 0.u.a @.3 C.z c.+ ",
"t +X1X1X,X#X*X+XG.$XOXOX+X&X*X$XG.A.g.D.2.+ h D.H.< r = p $ 3 + a {.1X<X;X-X*X%X'.$X%X%X$X$X%X$XZ.B.c.m.5.+ h N.H.- r 1 r 3 t + ",
"r J.-X*X*X&X+X$XoXOX%X%X$X$X$XOX}.H.i.m.5.+ n $X%Xy ,.r c.g 0.X y H.-X-X-X*X#X X^.|.+X+X$X%X$X$X}.^.h.C.<.# V OX%Xa #.p l.z ,.& ",
"r A.OX X&X+X X[.oX|.[..X$X%X%XOXOXm.i.D.-.+ A >X3X3 3 = 6 - 3 + r z.+X X%X+X[.oXOXoXK..X|.$X%X+XJ.m.d.m.,.+ S =X=Xt r 2 t - 3 + ",
"r u.n.'.oXOXK.{.H.OXOX}.%X(.}.V.N.i.m.t.*.$ l $X&X5 ,.x n.z n.+ y u.c.].oX|.oX[.'.OX|.OX$X$XOXZ.V.d.k.u.:.+ B /.%Xg @.s z.Z g.+ ",
"r 6.b.c.b.'.c.H.F.D.}.OX$X$XZ.G.v.y.e.s.@.+ b N.{.< - $ > 2 9 O r 5.k.C.x.S.S.N.C.D.D.%X.X$XR.[.d.u.e.e.*.+ h S.C.t p $ a - r O ",
"3 <.g.j.F.x.H.x.G.V.[.K.K..XK.G.p.y.2.<...$ d w.t.3 ,.r N.h 0.+ p 5.x.h.x.J.x.A.b.}.'./.OX}.Z.V.p.e.6.<. .# n 0.r.r @.p s.n 9.+ ",
"r ,.j.l.u.m.x.F.N.{./.V.K.K.Z.V.p.2.=.2.P + z ( @.r L 1 / % P + p <.q.l.x.z.b.D.C.N.Z.R.V.Z.K.B.r.2.;.1.n $ g @.( r H 3 L 2 L + ",
"r ,.5.q.l.h.k.H.m.M.V..XK.m.m.Z.r.6.<.<.S +  ...( L - - 5 = 2 o d $.<.e.e.z.A.H.M.K.J.OXB.B.k.^.e.2.*.<.L + L / ..H 2 & h $ 3 + ",
"3 #.O.<.6.l.M.x.z.A.Z.H.B.m.a.t.e.2.*.,.H + t g g 9 $ 6 Y.c ~.+ 9 @.:.,.;.g.c.A.m.m.D.M.R.B.d.a.e.1.=.O.A & t d u r $ k U.c E.$ ",
"3 L J ..*.6.j.u.v.z.m.k.B.i.h.e.;.:.@.P A o + X + # - 6 U a ~ + r K L ..*.6.g.g.d.x.B.m.x.i.k.e.<.*.@...V + + + # $ = 6 U t ~ + ",
"9 P ..@.$.5.#.6.q.f.p.q.r.s.8.2.*.[ P E c + 4 3 a s u p x g a O 3 L ..@.#.,.+.7.g.r.y.g.t.y.4.8.-.P E P A + r r > a h h z 6 x + ",
"3 ......#.+.$.$.>.:.:.,.<.,.<.#.O.*.@.P f # M.5 c.h c.h N.z 2.+ 9 .... .@.+.#.-.>.,.*.=.6.>.:.*.O.[ O.P h $ h.h z.V d.g g.h 2.+ ",
"9 A h h L L L L J / K ..( X.P E ( @.P c d + S $ S + ..$ S + P o = n b g Z L L L S L L P P ..( E L O.P F g & c & L $ L & L $ J & ",
"+ + + & + + $ + + X $ + + + + + & + o & O O $ $ $ $ $ & < $ $ + + + + $ < $ $ & + + + # X # + + & $ + # + o & # $ $ - + < $ $ o ",
"= 9 _ ' ~.).E.` r y i.p 9 i.p p i.r t `.8 + O + X + + X o + X o 2 r C ` W.Q.E.` r y 8.g > { 5 a p.r p i.p + X + + O + + + + + X ",
"3 r = - 3 3 - = p r 9 r r r r r - r 3 9 r 9 r 9 r 9 9 9 9 r 9 + - > % 3 3 t = - 3 r 6 9 r 6 9 r 9 r r - y - r 8 9 9 3 - r 9 = O ",
"9 - # $ = * = - - * 1 % $ = & % 3 - $ - - = = $ - $ > $ * & # + 3 - - & 9 - $ 9 * $ - - $ 9 - = - * # - 9 9 = $ = % - = = * $ O ",
"r %.s $ ,.g + $.h < @.h + <.h + 5.a # 9.9.q.-.& V V h L F F h O 5 P h $ ..a $ ..h 3 @.h $ $.g $ @.a & ,.<.0.#.$ g G j j M h h + ",
"3 & # $ 3 + 2 = + % = + - $ + 2 * + % - & r * + M ) ' !.!.&.` + = - + % 5 $ 3 3 $ 1 - + 3 - $ - - + = - # r $ + k L.P.I.I.v u o ",
"r 0.L $ u.S # u.L 3 <.L + g.D = l.V # u.L $ y.+ V L / F L H V + p ,.z & 0.J $ q.b 6 -.F * 0.L * w.M - q.J = 0.& s R W W E R h + ",
"3 * & 3 3 $ 3 - $ 1 = & 3 3 + 2 - + % - $ 3 - + L ) ' &.P ..L + > 3 = r y $ = 3 - % 3 $ % r = 2 3 $ $ p = = 3 + h L.P.I.T.I.G o ",
"r 0.0.y.j.J $ l.K 3 2.S & g.J $ g.F $ g.F # u.+ S ( ( / P ( L o p 5.5.6.u.V - w.S a 5.A $ r.m 3 w.V $ q.V $ 2.& V W E N N G h + ",
"3 r 3 3 h 3 $ g 3 p p r - 5 u 3 h 3 & d 3 $ 5 + X.) ' &.W.] ' O - t a 3 g r < h t a p p - h r 3 d 4 % a 3 > h + z L.L.F k c s + ",
"9 ( g % ,.g 2 <.9.,.6.0.5.0.3.0.,.g - $.y - $.o c L L L J J V + r ..d 3 @.p 9 ,.,.5.5.,.5.9.5.5.,.g - $.g - @.+ n v R N N j V + ",
"3 V V = L z - m z z C z V h z h Z g - J l - V + L ) ] ] !./ L O 3 z z = V h 2 z z z V z V z V z z h = F g 3 b + j L.P.I.I.M c X ",
"- $ + t % + g % X # & + & # + & + & h = # p & + A P S m L L M + - # + r - % f = + & + + & + $ + $ $ q = $ q = + h N h G n z h + ",
"X + + o O + + + + + X O + X O X O X + X X + O O + + + X + + o + X + O + + O O o + O X o o + + O + o + + O + + + + o + + + + + + ",
"& - = = = & = = = = = = - = > - - 8 - & - 8 & - $ > & 8 * = & * - $ * = & & & & - & = - $ & & * - & + & & - = & * = - * & & * + ",
"= 3 8 - = 9 9 = = 2 - 9 - - - = 9 - - - r 8 3 8 8 & 8 - - 8 = = $ $ $ & = + # & = = & # + # + & + # & & + # $ & & & $ = + = + # "
};
