/* XPM */
static char *result[] = {
/* columns rows colors chars-per-pixel */
"64 64 256 2 ",
"   c black",
".  c #010101",
"X  c #020202",
"o  c gray1",
"O  c #040404",
"+  c gray2",
"@  c #060606",
"#  c #070707",
"$  c gray3",
"%  c #090909",
"&  c gray4",
"*  c #0B0B0B",
"=  c #0C0C0C",
"-  c gray5",
";  c #0E0E0E",
":  c gray6",
">  c #101010",
",  c #111111",
"<  c gray7",
"1  c #131313",
"2  c gray8",
"3  c #151515",
"4  c #161616",
"5  c gray9",
"6  c #181818",
"7  c #191919",
"8  c gray10",
"9  c #1B1B1B",
"0  c gray11",
"q  c #1D1D1D",
"w  c #1E1E1E",
"e  c gray12",
"r  c #202020",
"t  c gray13",
"y  c #222222",
"u  c #232323",
"i  c gray14",
"p  c #252525",
"a  c gray15",
"s  c #272727",
"d  c #282828",
"f  c gray16",
"g  c #2A2A2A",
"h  c gray17",
"j  c #2C2C2C",
"k  c #2D2D2D",
"l  c gray18",
"z  c #2F2F2F",
"x  c gray19",
"c  c #313131",
"v  c #323232",
"b  c gray20",
"n  c #343434",
"m  c #353535",
"M  c gray21",
"N  c #373737",
"B  c gray22",
"V  c #393939",
"C  c #3A3A3A",
"Z  c gray23",
"A  c #3C3C3C",
"S  c gray24",
"D  c #3E3E3E",
"F  c #3F3F3F",
"G  c gray25",
"H  c #414141",
"J  c gray26",
"K  c #434343",
"L  c #444444",
"P  c gray27",
"I  c #464646",
"U  c gray28",
"Y  c #484848",
"T  c #494949",
"R  c gray29",
"E  c #4B4B4B",
"W  c #4C4C4C",
"Q  c gray30",
"!  c #4E4E4E",
"~  c gray31",
"^  c #505050",
"/  c #515151",
"(  c gray32",
")  c #535353",
"_  c gray33",
"`  c #555555",
"'  c #565656",
"]  c gray34",
"[  c #585858",
"{  c gray35",
"}  c #5A5A5A",
"|  c #5B5B5B",
" . c gray36",
".. c #5D5D5D",
"X. c gray37",
"o. c #5F5F5F",
"O. c #606060",
"+. c gray38",
"@. c #626262",
"#. c gray39",
"$. c #646464",
"%. c #656565",
"&. c gray40",
"*. c #676767",
"=. c #686868",
"-. c DimGray",
";. c #6A6A6A",
":. c gray42",
">. c #6C6C6C",
",. c #6D6D6D",
"<. c gray43",
"1. c #6F6F6F",
"2. c gray44",
"3. c #717171",
"4. c #727272",
"5. c gray45",
"6. c #747474",
"7. c gray46",
"8. c #767676",
"9. c #777777",
"0. c gray47",
"q. c #797979",
"w. c gray48",
"e. c #7B7B7B",
"r. c #7C7C7C",
"t. c gray49",
"y. c #7E7E7E",
"u. c gray50",
"i. c #808080",
"p. c #818181",
"a. c gray51",
"s. c #838383",
"d. c #848484",
"f. c gray52",
"g. c #868686",
"h. c gray53",
"j. c #888888",
"k. c #898989",
"l. c gray54",
"z. c #8B8B8B",
"x. c gray55",
"c. c #8D8D8D",
"v. c #8E8E8E",
"b. c gray56",
"n. c #909090",
"m. c gray57",
"M. c #929292",
"N. c #939393",
"B. c gray58",
"V. c #959595",
"C. c gray59",
"Z. c #979797",
"A. c #989898",
"S. c gray60",
"D. c #9A9A9A",
"F. c #9B9B9B",
"G. c gray61",
"H. c #9D9D9D",
"J. c gray62",
"K. c #9F9F9F",
"L. c #A0A0A0",
"P. c gray63",
"I. c #A2A2A2",
"U. c gray64",
"Y. c #A4A4A4",
"T. c #A5A5A5",
"R. c gray65",
"E. c #A7A7A7",
"W. c gray66",
"Q. c #A9A9A9",
"!. c #AAAAAA",
"~. c gray67",
"^. c #ACACAC",
"/. c gray68",
"(. c #AEAEAE",
"). c #AFAFAF",
"_. c gray69",
"`. c #B1B1B1",
"'. c #B2B2B2",
"]. c gray70",
"[. c #B4B4B4",
"{. c gray71",
"}. c #B6B6B6",
"|. c #B7B7B7",
" X c gray72",
".X c #B9B9B9",
"XX c gray73",
"oX c #BBBBBB",
"OX c #BCBCBC",
"+X c gray74",
"@X c gray",
"#X c gray75",
"$X c #C0C0C0",
"%X c #C1C1C1",
"&X c gray76",
"*X c #C3C3C3",
"=X c gray77",
"-X c #C5C5C5",
";X c #C6C6C6",
":X c gray78",
">X c #C8C8C8",
",X c gray79",
"<X c #CACACA",
"1X c #CBCBCB",
"2X c gray80",
"3X c #CDCDCD",
"4X c #CECECE",
"5X c gray81",
"6X c #D0D0D0",
"7X c gray82",
"8X c #D2D2D2",
"9X c LightGray",
"0X c gray83",
"qX c #D5D5D5",
"wX c gray84",
"eX c #D7D7D7",
"rX c #D8D8D8",
"tX c gray85",
"yX c #DADADA",
"uX c gray86",
"iX c gainsboro",
"pX c #DDDDDD",
"aX c gray87",
"sX c #DFDFDF",
"dX c gray88",
"fX c #E1E1E1",
"gX c #E2E2E2",
"hX c gray89",
"jX c #E4E4E4",
"kX c gray90",
"lX c #E6E6E6",
"zX c #E7E7E7",
"xX c gray91",
"cX c #E9E9E9",
"vX c #EAEAEA",
"bX c gray92",
"nX c #ECECEC",
"mX c gray93",
"MX c #EEEEEE",
"NX c #EFEFEF",
"BX c gray94",
"VX c #F1F1F1",
"CX c gray95",
"ZX c #F3F3F3",
"AX c #F4F4F4",
"SX c gray96",
"DX c #F6F6F6",
"FX c gray97",
"GX c #F8F8F8",
"HX c #F9F9F9",
"JX c gray98",
"KX c #FBFBFB",
"LX c gray99",
"PX c #FDFDFD",
"IX c #FEFEFE",
"UX c white",
/* pixels */
"> > > > > > > > > > r r r r r > 5 5 5 5 r r r 5 5 > > 5 5 5 > > r > > > 5 > > > > > > 5 d r d r > > 5 > > 5 > > > > > > > > > > ",
"> 5 r 5 > > > > 5 d r g g g g > r N N N g g d g g 5 5 d d r g g g r d r d > > $ > > d d N N d g > d d 5 r r r g r 5 5 > 5 5 5 r ",
"r g r r r 5 5 5 r r g g g g 5 > d B B B N d d d N r g g g g d N B d g g r 5 5 > > 5 g d N N N d > g g r r r r g r r r r r r g r ",
"d d d r d d d d d d d r 5 g 5 > N G C Y N N d d d d N d d d N B B N d d g r r 5 5 r g N B N d 5 > g d r d d d d d d d d d d N d ",
"g x g g x g g x g z z d g r d 5 B C K C z x d x x B B x x B G ^ G G G B x d d d d r 5 B Y Y G 5 > N d Y x B x G x g x B x B Y B ",
"g B x x B x x z x G z z g g s > d C C C C x d N x B B x B G G G G G G B N d d d x x 5 B Y B B s s N Y Y x x x x x d x B x G ^ G ",
"g x x x x x x B z z B s s s s > d z Y z C B C B B B G x B G G Y Y G G B N N N d x N d B G g N s > d B B N d x x x g r B x Y ^ x ",
"x g x x x x x B x x C s s 5 s > d z G C C z K C z x G x B G G Y Y G G x B B N d N G r N G g s s 8 d x G d d d d x x r x x ^ Y x ",
"C G G x B B x x x x B z s 5 s > d B G B Y z ' C C x x d x B B Y G B B N B N g r N B d N G N z g 8 d Y x x x d d x g x Y G Y G g ",
"x x x x x B x x g x x d r d 8 > N G G G G B ' s C s x x x G G G x N N B B N d s B C d B G B N s 8 d x x r d x d x g Y N x B x g ",
"G x x x x x g x g x x N d d 8 > B G G Y B G ' d d d x x B G G G x G x G N N 5 s C z d B G B s s s N x Y r d d d G x Y z s G x g ",
"G x x z x x x G g z x d d d 8 > d B G B Y ^ ' x B x x x G x G x B G G B B z s s z s s s C z N r r d Y G d d x x d G N N x B B s ",
"x N g G G G x z g G x d r d s > d x ^ Y Y Y K x B d x x x x x x Y G Y x B z s 8 G 8 d z z z N r > N G B x d d x d G x z g B N x ",
"x s g G G G x x N G x r 5 d 8 > N x [ ^ G Y Y B G d x x B x x G G Y Y G G B s 5 B r s s z d z r r N d G x r x x d G N B g B N x ",
"B N g G Y G g x N N x r d s 8 > d d ^ ^ [ ^ B G [ d x x x B x Y [ Y Y G G N s s s z s r s s N r > d G B d d x d 9 B G x G x G z ",
"G G g N Y Y g x N F B N d s 8 > N G G Y ^ ^ Y G ^ d d x G G x Y ^ Y Y G B N s r d z s d s d N g > d G G x Y x x 5 x G x x G F G ",
"K G g G Y F N x B G z d d s 8 > N F ^ Y Y G Y Y ^ x d G G G x ^ ^ Y Y G G z d s d s r r 9 d N g > N x x Y G G G d x G x G G K N ",
"K B x Y K Y g z x F z d d s 8 > B F K ^ G B Y Y Y x d x Y x B Y Y Y G B G B d 8 d s r r d N N g > d x x G B G G 9 G G B x G @.' ",
"G G N K K K N G N F z s r s r 5 B ^ K Y W x G Y Y x d d G x x Y Y ^ x d G N 5 s 5 5 r d d d N r > r G d B B G G 9 B G G x B ' ' ",
"Y B N F K K N G B N z d r s r > B C K Y Y d G Y F G r x B x x G Y ^ G x G d r 5 r 5 d d x N d r > r x B B G G G 9 x G G B B ' @.",
"G N N G K ^ G C z z z d r r d 5 z C K z C z B Y Y x d x G x x G Y Y G B G d r > r > x r r N N 5 > r x G Y ' ' G d G G G x B ' ' ",
"N N N Y ^ Y G C C C z d r d r > z C K z z C G ^ W N x x G x B G Y Y Y Y Y B r r r r d r x d N r r d G K K ' ' G d x G x d B K ^ ",
"G G N G K F N C z C x s s d d 5 B F C B C C N F W B d d B x G Y K ^ ^ ^ Y x r 5 > r r r d d N r > d ^ K ' ' K B x G B x x B K ' ",
"G K N G Y F x G G C B s r g d > z G C B Y C ^ G G x d x x g B F Y ' ^ ' G d 5 > d r r r G r N r 5 d G Y ' @.' B r G G B x B G ' ",
"Y K N F G F z G G G G s 5 g g 3 G G C g C W W Y G x d d x x x x Y Y ' ' B x > 0 x 5 r r x d N r r d Y Y [ @.[ G x B G G B B G K ",
"K K N F F F z K G G B d d N d 5 G C F z G ^ W W G y d x d B x N G G K ' G x 5 r x r r r x d N r > r G Y ^ ' ' G x x G G B G K K ",
"K F N N N F G K Y B x d g g d 5 N C N x G Y Y Y Y x x B d G x x z G ' ' ^ x d d z d 5 d d d d r > d G x G ^ G B G d G G G K ' ' ",
"K K N N F F G K Y x d B d g d 5 g z K Y G F Y Y F x d G x G x g x Y ' ' ^ x r d N x d r d d B r > d d x G F G B x x G C K G ' K ",
"K K N F F F G K ^ B d G N g d 5 N C K Y G Y Y Y F d d G d B g g x Y ' ' ^ B r x N N r r d d N r > d x x G F N Y x B G C x B ' K ",
"K F N Y F F G K ^ B d B N g d 5 B C Y ^ G K Y G F x d r r x x x x G Y G Y x d r B C d r r d N g > N G x N F N W d x B B G G K ' ",
"K F N N F Y x Y Y B d B N g d 5 B C G G G K ^ F F d d r r g G G G G C Y G N x d C K x 0 r 5 d g > r F x N F N N d x Y B B G K ' ",
"z N g g N B N N N d r d g d r > d N g N g z B N N r 5 r 5 r N N B N z N d N g r G z d r r 5 d d > : g r N N g N r d d d g N z C ",
"8 5 5 5 5 5 5 s 8 8 8 s 5 5 r > 5 r 5 5 r 8 5 5 5 > > > > > r r 8 5 5 5 5 5 5 s 8 8 8 s 5 5 r > 5 r 5 5 r 8 5 5 5 > > > > > r > ",
"s s d d g s s s g r r s s s s s s g d g g s z s s 5 r 8 8 r > > s s d d g s s s g r r s s s s s s g d g g s z s s 5 r 8 8 r > $ ",
"z z z g s s N N s s s s B z d N s z s z N g B d z s r > s s r 5 z z z g s s N N s s s s B z d N s z s z N g B d z s r > s s r > ",
"z N z s s z z s B s r d B N g g g B z B d g B N N d s > d s 8 5 z N z s s z z s B s r d B N g g g B z B d g B N N d s > d s 8 > ",
"Y z C z N z C C C G r G Y B N B N G G Y N G G G N r d z x g s s Y z C z N z C C C G r G Y B N B N G G Y N G G G N r d z x g s > ",
"N G z z z z z G Y G d G G d N B N G N F F Y N G G r d z x x s r N G z z z z z G Y G d G G d N B N G N F F Y N G G r d z x x s 5 ",
"N N F z z N F G Y G d B Y d B B N G N G ^ G F G N x x B z x s 8 N N F z z N F G Y G d B Y d B B N G N G ^ G F G N x x B z x s > ",
"N B N G N z N G G G d d B F N B B B N B Y G Y x G y B N C x s 8 N B N G N z N G G G d d B F N B B B N B Y G Y x G y B N C x s > ",
"N x F N N N N G B Y x x Y z G N B G N G Y G Y g G x B g z g s 8 N x F N N N N G B Y x x Y z G N B G N G Y G Y g G x B g z g s > ",
"N x Y N N N G N B G d d N G N N B G B N Y F N x x x B g s d s 8 N x Y N N N G N B G d d N G N N B G B N Y F N x x x B g s d s > ",
"N N N N x N N N B G x d x N G N F G N G G N N x g d g g C s r > N N N N x N N N B G x d x N G N F G N G G N N x g d g g C s r > ",
"N B x G x N N N B B B d d N G F F G N N G F N x d d x d Y z g > N B x G x N N N B B B d d N G F F G N N G F N x d d x d Y z g > ",
"N g d x x x G N N x x d x B G N F B g N ^ Y N x 8 r d d x x d r N g d x x x G N N x x d x B G N F B g N ^ Y N x 8 r d d x x d > ",
"x r r x x g x G G B x r B G G G F N g G G Y G g r d r N B x r 5 x r r x x g x G G B x r B G G G F N g G G Y G g r d r N B x r > ",
"x d d x x g x G G G B 9 G G G G F N g N F Y G N : B 5 5 x d r > x d d x x g x G G G B 9 G G G G F N g N F Y G N : B 5 5 x d r > ",
"x x d x g N G Y G Y G x N Y Y Y N G B B G Y G N r N r d x x r 5 x x d x g N G Y G Y G x N Y Y Y N G B B G Y G N r N r d x x r > ",
"x x g d N Y G Y G G G d B Y Y Y Y Y G G ^ Y G x d N d r d B r 5 x x g d N Y G Y G G G d B Y Y Y Y Y G G ^ Y G x d N d r d B r > ",
"x x d d N Y G Y G B B d G W Y Y W ^ Y G ^ G N N d d r r d Y s 5 x x d d N Y G Y G B B d G W Y Y W ^ Y G ^ G N N d d r r d Y s > ",
"x x x d N G B G G B G x G ^ Y [ [ O.[ G Y B N x d B d r B ^ s r x x x d N G B G G B G x G ^ Y [ [ O.[ G Y B N x d B d r B ^ s > ",
"N B x x N N B B x x G x B Y ^ ^ [ O.[ Y Y Y B d d r d d N Y z r N B x x N N B B x x G x B Y ^ ^ [ O.[ Y Y Y B d d r d d N Y z > ",
"G x x N N N B x g x B B B Y Y Y ^ O.[ Y G G B N r d d x B ^ z r G x x N N N B x g x B B B Y Y Y ^ O.[ Y G G B N r d d x B ^ z > ",
"G G G N N x x x B B B G G G G G B ^ [ G Y Y B r d d r x C K z r G G G N N x x x B B B G G G G G B ^ [ G Y Y B r d d r x C K z 5 ",
"G G G G g x B G B B x B G G G B x Y ^ Y Y G B N d r r x z C s r G G G G g x B G B B x B G G G B x Y ^ Y Y G B N d r r x z C s 5 ",
"G G G B d x G G G x x x G ^ ^ B x G Y Y Y G B N B d r x z G s r G G G B d x G G G x x x G ^ ^ B x G Y Y Y G B N B d r x z G s > ",
"G ^ Y B d x B G G x g x G Y ^ B B G Y G G G B B N r d B B z s d G ^ Y B d x B G G x g x G Y ^ B B G Y G G G B B N r d B B z s > ",
"G ^ ^ B g g x ^ Y B x x G ^ ^ G B Y ^ G G G B x N d x B B z s r G ^ ^ B g g x ^ Y B x x G ^ ^ G B Y ^ G G G B x N d x B B z s > ",
"G ^ [ G x x x G G B B B G Y Y G Y ^ [ Y B B B Y d d x B B z s > G ^ [ G x x x G G B B B G Y Y G Y ^ [ Y B B B Y d d x B B z s > ",
"G Y Y ^ g N B d g x x B G Y Y Y Y ^ ^ Y B B G Y N r d N z z s > G Y Y ^ g N B d g x x B G Y Y Y Y ^ ^ Y B B G Y N r d N z z s > ",
"Y ^ W N x N G G d d x x ^ ^ Y ^ ^ ^ Y G B B G G N d d z z z s > Y ^ W N x N G G d d x x ^ ^ Y ^ ^ ^ Y G B B G G N d d z z z s 5 ",
"^ ^ F x x G x d d r d x G Y G Y Y Y Y G B B G B x d r z z z d > ^ ^ F x x G x d d r d x G Y G Y Y Y Y G B B G B x d r z z z d > ",
"N G g d x x d x N x G B B G Y G G Y Y Y G B x B N d d N B B d > N G g d x x d x N x G B B G Y G G Y Y Y G B x B N d d N B B d 5 ",
"r d x x g g d d N B G G B G G G G Y Y Y G Y G G x g d N N N r > r d x x g g d d N B G G B G G G G Y Y Y G Y G G x g d N N N r r "
};
