/* XPM */
static char *result[] = {
/* columns rows colors chars-per-pixel */
"64 64 255 2 ",
"   c #595949",
".  c #635949",
"X  c #51514B",
"o  c #595149",
"O  c #635951",
"+  c #494130",
"@  c #696A59",
"#  c #575341",
"$  c #595951",
"%  c #595151",
"&  c #636359",
"*  c #6A5959",
"=  c #676651",
"-  c #635149",
";  c #534641",
":  c #302821",
">  c #39321F",
",  c #534D39",
"<  c #393028",
"1  c #303221",
"2  c #393928",
"3  c #413930",
"4  c #8C9583",
"5  c #86837C",
"6  c #93967B",
"7  c #B3ABA5",
"8  c #B5AD9C",
"9  c #9AA693",
"0  c #8B937B",
"q  c #878772",
"w  c #9C9B93",
"e  c #939383",
"r  c #9C927B",
"t  c #7E7972",
"y  c #8C8C83",
"u  c #939C83",
"i  c #9E8C83",
"p  c #9C938C",
"a  c #939C8C",
"s  c #919D9C",
"d  c #B9BDA5",
"f  c #9C9C83",
"g  c #938C7B",
"h  c #88797D",
"j  c #ADA58C",
"k  c #AEA393",
"l  c #B5B59C",
"z  c #A5A29C",
"x  c #2A2118",
"c  c #9C9383",
"v  c #9C9C8C",
"b  c #A69C8C",
"n  c #93938C",
"m  c #8C8C7B",
"M  c #93A58C",
"N  c #938C83",
"B  c #818C7B",
"V  c #393930",
"C  c #717263",
"Z  c #9CA58C",
"A  c #A5A593",
"S  c #ADB5A5",
"D  c #8C9C8C",
"F  c #A9AD8C",
"G  c #A5AD93",
"H  c #ADA39C",
"J  c #A5A58C",
"K  c #726A63",
"L  c #9C8C8C",
"P  c #9CAD8C",
"I  c #7B726A",
"U  c #ADAD9C",
"Y  c #CACEC6",
"T  c #BABEAD",
"R  c #AEAD93",
"E  c #B6B5A5",
"W  c #ADB59C",
"Q  c #A3AE9C",
"!  c #6A6A63",
"~  c #635959",
"^  c #413728",
"/  c #494941",
"(  c #414139",
")  c #414941",
"_  c #414C39",
"`  c #414141",
"'  c #495349",
"]  c #515951",
"[  c #6A6359",
"{  c #7B7B6A",
"}  c #282828",
"|  c gray6",
" . c #0F0F08",
".. c #080F0F",
"X. c #0F1818",
"o. c #181818",
"O. c #72726A",
"+. c gray13",
"@. c black",
"#. c gray3",
"$. c #0F080F",
"%. c #0F0808",
"&. c #180F18",
"*. c #212128",
"=. c #212828",
"-. c #1F2A1F",
";. c #211818",
":. c #180F0F",
">. c #0F0F18",
",. c #080300",
"<. c #000008",
"1. c #182121",
"2. c #080F18",
"3. c #69726A",
"4. c #303941",
"5. c #394949",
"6. c #414951",
"7. c #304141",
"8. c #303939",
"9. c #495351",
"0. c #283030",
"q. c #394149",
"w. c #393941",
"e. c #283039",
"r. c #283939",
"t. c #182828",
"y. c #213030",
"u. c #000808",
"i. c #3D5359",
"p. c #415350",
"a. c #08080F",
"s. c #282121",
"d. c #182128",
"f. c #394141",
"g. c #495359",
"h. c #505B63",
"j. c #606363",
"k. c #414949",
"l. c #51636A",
"z. c #213039",
"x. c #1F393B",
"c. c #284141",
"v. c #081818",
"b. c #183030",
"n. c gray19",
"m. c #393939",
"M. c #494951",
"N. c #413741",
"B. c #303039",
"V. c #282128",
"C. c #414149",
"Z. c #181821",
"A. c #282830",
"S. c #283941",
"D. c #302830",
"F. c #393039",
"G. c #413939",
"H. c #30414C",
"J. c #61717B",
"K. c #5B6A72",
"L. c #494149",
"P. c #212830",
"I. c #495141",
"U. c #687983",
"Y. c #72757B",
"T. c #555059",
"R. c #494949",
"E. c #493F41",
"W. c #5D5963",
"Q. c #66636A",
"!. c #534949",
"~. c #6A6163",
"^. c #575C59",
"/. c #2E4B4C",
"(. c #282821",
"). c #303930",
"_. c #635159",
"`. c #6E6A72",
"'. c #554951",
"]. c #414151",
"[. c #00080F",
"{. c #211821",
"}. c #494139",
"|. c #534149",
" X c #000F0F",
".X c #0F2828",
"XX c #080008",
"oX c #393030",
"OX c #392830",
"+X c #635151",
"@X c #413039",
"#X c #0C211F",
"$X c #394E51",
"%X c #6E6A6A",
"&X c #413030",
"*X c #72838F",
"=X c #302828",
"-X c #918B8C",
";X c #A59C93",
":X c #889393",
">X c #393949",
",X c #515949",
"<X c #463949",
"1X c #211828",
"2X c #9C9C7B",
"3X c #2D2130",
"4X c #180F21",
"5X c #182830",
"6X c #6A7272",
"7X c #A5938C",
"8X c #302128",
"9X c #A5A580",
"0X c #494939",
"qX c #394939",
"wX c #2B2839",
"eX c #2E3028",
"rX c #0F0818",
"tX c #A59383",
"yX c #212118",
"uX c #938C6E",
"iX c #59546A",
"pX c #0F0F24",
"aX c #415141",
"sX c #284139",
"dX c #302121",
"fX c #0F1821",
"gX c #304941",
"hX c #3C4663",
"jX c #2C364D",
"kX c #1A0F05",
"lX c #2C1F0B",
"zX c #1C1808",
"xX c #161828",
"cX c #2C2812",
"vX c #0F0800",
"bX c #596351",
"nX c #1C1D33",
"mX c #000800",
"MX c #302E41",
"NX c #392828",
"BX c #4E4972",
"VX c #695741",
"CX c #591D06",
"ZX c #2128E7",
"AX c #6E1F00",
"SX c #FFAA24",
"DX c #7D7260",
"FX c #1C4900",
"GX c #A34100",
"HX c #6359FA",
"JX c #A583FF",
"KX c #FFEF51",
"LX c #499300",
"PX c #9CA583",
"IX c white",
/* pixels */
"  .   X o o   X o . o o O o + @ @ + # $ o % X $ .   $ & * =   o = = = = = =   . # - # # ; : > , # < < : : < < 1 < < < 1 : < 2 3 ",
"= 4 5 6 7 8 9 0 q w e 4 r 5 3 : : 3 t y u u i p a 5 a s d 8 f g h h h h h h p j k l l d l z 3 x x < f f c w p e v v u b w a n 3 ",
"$ m m m M u 9 a e m e N m B @ 2 V C n b p g B e Z b e A S n 6 D n 9 9 F v Z v G H Z v J J D K < 3 C L p N H c Z P J v c v v n 3 ",
"X 6 e e m m y m m m m e e c v v c e y N 5 q t 5 m n a n v e 4 4 4 a y e p y m e g g g c e m e p e v v m p e g e e g y q I b 4 < ",
"o U c m e Y T R l R E W l l l U E l U E A w A U Q S S T T T T d d S T S E W d U l W U R E E E T T d E l l d l d l U v 5 ! a N 2 ",
"  R b m v E R R J G v v G A v e v v v p v v n e w Q Q W A l l S Q Q G U Z A 9 v v v A b A U R b W U R A G v R G R J v t ~ a f ^ ",
"  a v e v E A / / ( ) _ ` ( _ ( ) ( ) ) ) ) ) ) _ ) ` ` ( ) ) ( ( ` ) ) ) ) ) ) ) ) ) ) ( ) ( ` ) / ' ' ] ) / ) X [ b { ! Z e < ",
"X 0 4 m 9 E R ! } | | | | | | | | |  .| | |  .| | | | | | | | | | | | | | | | | |  .| | |  .|  . . . .| .. .X.o.] O.J t [ u 0 3 ",
"- m Z 4 v d A O.+.@.@.#.$.%.| | | | &.*.=.+.+.*.+.o.*.-.;.+.o.&.o.:.| X.o.o.| | >.X...,.@.@.@.@.<...>.1.+.,.@.2.' K J t [ 6 5 3 ",
"O v p e J U A 3.-.@.@.#.&.o.1.1.+.} 4.5.5.6.6.7.8.8.9.5.0.q.4.} *.8.w.0.e.7.r.t.y.r.r.X.| X.X.u.X.7.i.i.p.1.@.a.' K A O.= f a 3 ",
"$ 8 f 0 v E R O.s.@.@.#.o.1.d.*.=.7.9.f.4.g.h.q.4.g.j.k.8.h.l.8.=.h.h.8.y.5.i.z.t.5.i.t.1.x.c.v.X.7.c.t.t.b.u.@./ C v t ! w R 3 ",
"  v u m J Q Z O.-.@.@.#.o.:.o.+.=.r.8.n.n.w.k.m.m.g.M.N.B.5.9.w.V.6.C.8.+.f.f.=.Z.8.8.*.X.t.1.2.v.v.2.@.u.v.@.@./ O.9 O.! v v 3 ",
"o e 0 0 e W v C } #.<.$.+.A.} *.z.S.0.D.F.F.m.G.N.k.N.G.m.f.f.8.} w.A.B.*.0.*.*.1.-.Z.Z.X.v...........u...2.@.<./ O.A t @ R e + ",
"O r 4 m v W R C } ..u.| H.J.K.q.e.c.B.F.f.C.L.L.M.9.L.L.C.C.f.f.D.k.F.w.} e.A.0.=.P.=.V.1.1.Z.o.Z.v.Z...X.v.u.u.I.! J { [ v c 3 ",
"o 5 B m v U G O.} ..u.| 5.U.Y.6.8.f.8.T.j.R.E.W.Q.9.!.~.Q.M.C.W.h.9.F.^.h.7.} M.9.0.*.q./.d.>.e.8.X.2.A.y.v.u.u.R.! e { & a p 3 ",
"+ 3 @ e e W J O.(.<.@.$.=.).8.} n.N.C.W.Q.R.E._.Q.~ _.`.`._.'.Q.K.T.N.T.j.].B.g.W.B.&.0.e.X.#.t.=.%.#.Z.d.1.[.<./ [ J O.[ K V > ",
"@ : 2 c f l Z O.(.<.,.| {.o.;.s.D.C.E.G.M._.L.}.|.`._.% % % R.N.N.` w.B.B.B.B.V.} A.X.#.,.#.#.,.@.@.@.@. X.X X@./ K v { & < x , ",
"@ : V e v d Z O.} #.XX| } =.} } B.w.oXOX!._.!.|.W.`.+Xo |.E.N.@XOXn.D.V.+.+.+.:.{.A.o.%.$.#.#.XX@.@.@.@. X#Xu.<.I.[ v t [ 3 x # ",
"+ 3 C v f d F O.} #.u.o.f.$X5.C.C.N.oX@X'.W.~ ~ %Xt ~.+X'.|.E.@X&XOXD.V.s.*.{.o.*.0.o.&.X.| | | | | | | Z.#Xu.#./ [ Z C [ O.< < ",
"# t n 9 A d G C } #.u.o.9.i.p.g.h.'.F.&X!.`.h h y *X~.~ _.'.|.@X@XF.D.=Xs.*.*.;.V.w.w.e.B.4.c.4.f.C.q.q.H.1.u.#.' K e K O -Xf < ",
"$ y ;Xn A T U O.} #.XX&.B.8.n.B.L.L.oX@X|.%Xh *X:XY.~.j.+X'.E.@X@XF.D.V.V.} *.;.{.4.5.4.4.7.7.q.q.>X4.4.0.v.u.u.' ! e K $ L N : ",
"o a w w A T W O.(.#.#.| V.} s.s.F.w.@X}.|.W.`.Y.Y.`.Q.W.~ W._.g.M.k.q.w.4.4.8.e.e.B.B.B.A.Z.>.| | a.#.u.@.[.u.@./ ! g { O e c < ",
",Xc A v z T d O.} #.XX:.} A.V.=X` M.G.G.% `.`.Y.*XY.j._.~.Y.K.j.W.h.g.i.M.6.$X].q.q.w.m.w.=.#.XX,.@.@.@.@.[.u.XX' [ e I   v n < ",
"$ w z 9 A T W O.(.#.#.| } A.} =Xw.6.F.@X% Q._.~ O.Y.* % Q.`.% |.L.<Xw.F.B.0.A.} =.V.+.+.=.b.| #.#.XX<.@.@.u.@.@./ ! v I [ n N }.",
". 9 7 z z T A O.} a.#.:.B.7.8.B.w.C.F.&X'.T.|.; W.`.+X|._.Q.|.@XOXD.D.V.V.1X+.&.&.>.>.a.X.t.>.a.#.#.#.XX@.u.u.#./ K v O.* 2Xa }.",
"  n k 9 A S A 3.} ..#.o.f.i.i.h.p.M.M.|.W.W.|.; _.`.~.T.Q.~.<XN.F.B.D.=X3XA.} 1X4XZ.1X>.1.8.A.d.d.5X*.d.Z.d...#.' K v K [ 4 i }.",
"$ A U A A E A C (.#.#.| e.7.f.8.7.g.j.Q.Q.T.L.L.'.6XY.`.Y.Q.g.L.<Xk.q.m.4.q.7.A.P.y.5XZ.Z.r./.H.S.c.H.4.S.x...u.' [ n t $ f 7X}.",
"& l 7 e A W Z ! (.#.#.| +.=.{.{.} B.w.F.w.` C.L.L.M.M.<X'.j.h.T.g.g.p.6.6.p.k.f.f.q.P.Z.>.X.Z.>...2.X...| ..<.@.R.! w O.~ J k }.",
"* R Q v v l u C (.#.#.| *.*.;.;.+.1XV.V.D.F.@X@XF.w.F.8XN.W.w.D.B.B.B.D.n.n.0.+.V.8.1.| #.a.<.@.@.<.<.@.@.<.u.@./ [ v { ~ v z }.",
"= W 9Xv v G v 3.} a.#.>.8.H.8.B.} 1XV.V.D.D.F.OXOXF.D.8XN.^.D.8XV.A.3Xs.: =XV.o.+.e.Z.%.%.a.#.<.@.#.<.<.@. Xu.<.' ! Z { & z k 0X",
"  A H n A W v 3.} ..#.o.p.i.p.$Xq.C.k.k.M.9.T.'.9.T.M.'.j.W.D.V.A.D.D.s.} A.} o.*.6.k.7.w.f.8.4.B.8.B.0.P.y.a.#.' ! e O.[ Z Z }.",
"o Q z w z E v O.(.#.#.>.e.8.A.A.f.g.i.g.h.h.h.h.l.l.h.l.l.p.} V.*.=.s.s.(.qX).| o.5.^.6.6.k.6.q.f.w.4.A.5Xb.a.u.R.[ m I ~ u i }.",
"= 9 9 w 9 E Z 3.(.#.#.| 1.=.o.Z.*.P.P.V.A.B.wXB.B.B.e.n.0.wX3X*.*.e.N.G.( ` k.m.0.8.4.e.y.e.y.=.t.d.d.1.o.1.u.u.R.! e O.$ v y }.",
"  U p w v E A ! (.#.#.a.d.=.4X4XZ.Z.{.{.*.*.V.V.*.A.*.+.*.A.*.*.*.q.% f.) ) ) f.7.8.r.y.P.P.P.P.t.t.t.1.Z.d.a.@./ & m ! ~ c N + ",
". d R p Z Q v C =.#.#.#.1.t.&.&.Z.Z.4XZ.*.*.1X1X*.A.+.1X*.A.*.d.{.` w.+.} eX} -.+.-.1.X.2.2.X.2.a.rX[.<.@.v.u.@./ ~.4 ~.% tXe 2 ",
"- E r v v l u ! } a.#.| S.7.0.y.*.o.;.;.+.*.V.s.V.P.+.+.+.*.*.{.;.f.m.yX(.} y.yXo.+.1...a.....[.<.<.[.<.@. X<.@.' ! m K % m N 2 ",
"  b uXe Z G e ! } ..u.X.$Xi.$X$X5.C.C.C.M.M.M.g.g.g.M.M.M.M.6.C.M.h.8.yX} } -.1.o.1.o.>.a.2.>.a.<.a.a.<.@...u.@.' K m ! O e f 3 ",
"  7Xf 5 m G 6 ! (.#.#.$.=.P.X.1.q.K.K.K.K.Q.l.iXiXiXW.h.h.j.W.h.iXh.} +.(.).f.0.P.0.P.t.=.=.=.1.1.>.[.@.a.d...@.X ! 4 O.~ J e 2 ",
"O -Xa q m A e ! (.#.u.@...2.#.XX&.r.e.P.4.e.4X4XZ.Z.X.&.o.Z.Z.pXX.Z.1.yX(./ aXsXr.r.S.x.r.r.r.0.r.t.u.@.Z.r...@.' ! n ! ~ f 0 3 ",
"O G uX5 q Z 0 ! +.#.XX#.Z.1.a.$.1.P.$.#.=.B.4X>.>.>.a.$...$.2.a.a.>.Z.o.dX( y.| 2.2.v...a.2. X<.X..Xu.@.X.1.u.@.X ! p K ~.6 5 3 ",
"O w D N m A a ! -.a.u...y.x.d.1.t.P.a.%.*.B.*.1X1XZ.o.o.X.Z.o.>.o.o.o.;.(.( yX,.XX#.XX@.@.<.<.@...1...@.X.#Xu.@.' [ N t ~.n v 3 ",
"O 8 b e 4 Q m ! =...#.X.i.$XS.7.$X4.2.$.0.g.h.g.6.6.C.f.C.C.` ` f.f.` ` # I.eXX.Z.1.fXv.2.v.2.@.X.S.r.b.r..Xu.u.X %Xe O.O G R 3 ",
"o E k g m w e ! -...#...H./.x.S.h.q.P.t.S.K.U.J.J.J.J.U.*XU.J.J.J.U.J.3.3.& p.gX/./.$X/.c.H.x.#Xb.5.i.i.i.H. X<.' [ e { ~ k e # ",
", l J m 5 v m & +.a.XX#..Xx.b.t.7.x.b.t.b.i.hXH.hXi.$XK.Y.g.h.7.i.l.p.qX( 2 ).eXt.x./.$Xc.z.r./.S.P.y.y.S.sXu.@.' K v I [ v c , ",
": z D t m 9 m & =...#.<.#.1.x.b.z.1.u.>.4.>XjXjXjXH.$X/.0.} m.0.d.1.-.r.1 1 x kX#...0.7.S.d.5Xi.7.=.P.e.4.v.@.#.' K e K o D p : ",
"> 3 K m e U e & } ..#.@.@.1.l.K.l.l.4.A.B.H.hXhXS.jXS.z.q.h.M.e...#.(.,XqX2 lXzX#...e.C.4.=.b.$XS.t.4.q.8.#.@.<.' ~.n O.~ K 3 > ",
", x < q B U v & =...u.@.@.=.U.*X*X:X*X4.2.jXhXz.xXxX..P.U.:Xi...,.#.-.aXaX> cXzXvX#.>.=.X....Xx.#Xu.X.1...@.@.@.I.%Xn K O < x , ",
"# x 3 B m v e bX+.XX<.@.@.a.y.4.4.H.H.X.<.xX5XnXpXrX<.X.q.$X=.@.@.#.zXcXcXcXlXlX .@.@.u.@.@.u.u.mX@.@.u.@.@.@.@.R.~.a O.o 3 x # ",
"< < C 5 e A Z $ +.#.| #.@.@.@.@.@.@.@.<.a.>.xXnXxXpXa.#.<.#.@.u.#.%.zXzXlXlXcXlXkX#.#.@.#.@.@.@.@.<.@.@.@.#.#.@.' ! y ! X O.< < ",
"< f L m m U e $ -.| } n.s.+.+.+.+.+.+.V.} A.MXMXMX3X} V.s.+.} (.s.} : > < 3 ^ ^ > } (.(.} } } } } } V.s.} s.o.#./ & m & o -Xf < ",
": f p q m G c $ -.o.G.` m.m.m.m.m.m.m.m.m.m.w.w.m.G.G.m.m.m.m.m.m.G.G.m.m.V V G.G.G.m.m.G.G.G.G.G.m.V V oXn.+.#.' & m & X p N : ",
": N p g m U v ] (.=XN.n.} E.R.n.} oXV } m.^.oX} oXG.} n.T.` oXn.G.n.s.` E.} eXG.n.n.R.E.} } G.V s.eXE.=X+.n.D.o.' [ e K O a r : ",
"< n ;Xe v U v ] n.m.m.} yX% ! } +.G.V o.B.Y.4.3X<X` +.n.O.R.o.oX` eX| $ ! yX} E.n.s.j.~.;.+.E.m.:.} j.eXo.V n.+.X ! e ! o p -XNX",
"eX-Xp v 6 U u ] G.oX=X=Xo.| &.o.=XV n.V.{.wXjXhXhX].B.+.;.o.+.V m.oXyXs.(.s.oX( m.} +.+.s.m.` ( n.} eX} oXG.G.n.$ ! m C o p n : ",
"< N c e e S u % R.!.!.!.; !.% % % !.X % '.T.BXBXBXiXT.~ ~ % o !.; o . VXVXVXVX. o ~ ~ % +Xo % o % O O [ ~ ~ O !.!.{ m K $ 6 p : ",
"1 g m e v G Z CXCXCXCXCXO.e n v v v Z v n :XZXZXZX`.h v v AXAX! m v 2XSXSXSXSXDXuXb J e FXFXFXFXFX{ g w v Z AXAXAXC { K   f n : ",
"< f 4 n Z Q 5 GXGXGXGXGX=XY.u v Z v f n n -XHXJXHXMX%XN m GXGX} @ g uXKXKXKXKX+ DXJ v m LXLXLXLXLX=XI e Z N GXGXGX(.& [ O P e : ",
"< e v v v 9 L.AXAXAXAXAX:.! v A A v f e p Y.ZXHXZX4X* t O AXAX&.$ { - SXSXSXSXx DXJ e C FXFXFXFXFX:.~.e N K AXAXAX%.$ @ O f e : ",
"< e Z n A y m.%.#.XX,.#.oXK n v v c c p 5 % `.iXT.F.! 5 ! !.} } [ ! }.@   # , ^ DXv e % oXs.yX%.%.oXK v t E.=X;. .(.[ K O tXe }.",
"> v J n n m %X~ X !.E.E.% %XO.{ I { I DXI K ~ % % $ [ I @ $ !.; $ & K O o ; ; o K O.C ! = % !.; ; +XK { $ % o !.G.E.O [ O b v : ",
"< w j y t %XO.~.! [ & & [ O O & & O [ O [ ~ [ ~.~.& ^.O & o X !.^.~ = [ [ O % [ ~.& [ [ [ [ [ [ ~.~ K ~ ~.[ ~ % # $ o $ O a w NX",
"}.p f v Z z U a b b :XP l b @ 2 V t c p b j w R w Q z j v H v L v J PXr k F Z j z z A a w ;X[ oX3 C -Xp w e 4 B m c f b b e u 3 ",
"O 4 m f 7 8 9 0 m w l e r B 3 : : 3 t e u u i p a y w Q b b 5 h q y R -Xi n z ;Xk G R H p ;XV x x < f f y c -Xm f 4 0 f w a u   ",
"}.    X o     X - O $ o O o }.@ @ 0X# $ o % X $ .   % & * =     @   . - .   O = o # ; # ; : > , # < < : : : < 1 < NX< > : NX3 o "
};
