/* XPM */
static char *result[] = {
/* columns rows colors chars-per-pixel */
"64 64 48 1 ",
"  c #646158",
". c #6A675E",
"X c #6B685E",
"o c #6E6B62",
"O c #716E65",
"+ c #747067",
"@ c #767269",
"# c #79756C",
"$ c #7C786F",
"% c #7C7971",
"& c #837F73",
"* c #868276",
"= c #86837A",
"- c #8B857A",
"; c #8D897D",
": c #938E83",
"> c #969185",
", c #999486",
"< c #9B9689",
"1 c #9E9A8D",
"2 c #A29D8E",
"3 c #A29D91",
"4 c #A6A193",
"5 c #AAA495",
"6 c #A6A298",
"7 c #ACA798",
"8 c #AEA99A",
"9 c #B2AC9D",
"0 c #B5AFA1",
"q c #B6B1A2",
"w c #BAB4A6",
"e c #BDB7A8",
"r c #BFB9AA",
"t c #C2BCAC",
"y c #C5BFB0",
"u c #C6C1B2",
"i c #C9C3B5",
"p c #CCC6B9",
"a c #CEC9BC",
"s c #D0CBBE",
"d c #D4CEC1",
"f c #D6D1C5",
"g c #D9D3C7",
"h c #DBD5C9",
"j c #DED8CE",
"k c #E0D9CF",
"l c #E2DBD1",
"z c #E7E0D6",
/* pixels */
"+O@@O#+#+.o##@o@@%O++O#o# +& ++##$o$@oo@OOOOOOXX%OOOo@@@@o#+o@+@",
"#<11<<<<<><13;<3:3=21<3::=36:1=:8:=1:::<1<>1>1163&,1,1>>1>11>1<@",
"#>aqttetqwuu9qauetqer0iw0weywreuuudi7pr6ay2wway99wfsquituwrrqw>%",
"@<yeetuutrwqttpuetttiyy00ypreru0gdeq8pw7fq5pywq9twt9uuirwruwwd<o",
"@>ettetqr8wrarrttqeptqeqiayryue7swq10u6tgeit9wusirursuwywtiutt>X",
"#<tttet0tttputwuwtttttttyrreyyeyqwt1p8pas8y98hspwtttti8irraqre>#",
"@<ytuetquqtpwqtrey9yyt9tetewyyerfpqtq9dp8ys9tj49atwturwteruqt91+",
"@1putett8rpr5tprtt9yyq8yryrqireyk94w8rswtsuqyu9aiqwurqtutrrryu3X",
"+<tt0wwtwuarwawwqyeyyttyytttyyyqs94wruuup94i4wtiwrw9rryuqtiuuu>@",
"+2uruwwuutuwruwrytyttyqytwytte3et58pethtwtwiqtus4wy8ruyquiywiq>O",
"@;utttwauwwurqquytyeqywttyew7q0yuwu9qip8qiqutqsq8arqafwyttwryq<o",
"+<wuur0ttwurwwpa99y80yetytqttytdweu5yut8rwer5waqwuwtwuyirttity>@",
"X18ue8wpuwtwupt8>yp0tyytyeeywtyt2e59upetsqiuutay9rhw9aittrurtq>@",
"o<qd<9uuwqpt9trwypptytye00tet0ywew8uuaqui9us1wawqtaqttutwuutqw>X",
"#<z92agpqtt85awuettett9y3yt0t0ywurwputwfiqsi5qayqtiry9atwyrwtt&X",
"+<a8rfuwrtw9qst80wetteed3dye0wtyttttq<phywu89>astwhtquiwwttwiq;X",
"+2peruttytq5af98yayttywt0yt8wyyttttywupirw82qisut8drwur7qittrt1O",
"@<ttetwtttqwgyqtyytywyttwy0t0yytwtuuty9wr5wpusuwuq8ruwr2psyurw<@",
"O:eq90wpq8tyyq79tyqtttqttt8d8dyywiiwwywta8uuwwwui86putywuyuuqq6@",
"+<u99wtsqqsttw9tpq8y39yqy80dytywtytwuuw9uquqwirui51agurt>9wyrr6o",
"+;eqepuj9ityyt2wl0tttkttytwyqtt0tttytt9wtuq5auwpq<qhtiu7;ufitr1O",
"O2quttuttttyw29patttwgttt30dttttiutttyytr8rr9wuu;8sgww999lsfut<#",
"#,iu5tptttwwq9spywtwwytt08yyqtqturwtyywtwqu;9srw4ssptqtsatrq4r1O",
"&;ue5fpe9t9wttitwatwy0ywtywyyttt9wiywwtytu9ppsqwwaawwwwsrw15ug;X",
"o#u2wue9tpetqyy9yytw0yyytttyytq0ttpwti99p9;auwwruiuwurutqrqspi;&",
"O;94sqttpty94ppttyt0ydy80yq0yy0tywyyyt;ps88suuwwutiauwitruuiwr2$",
"&;,eyeutttt2qspwtyt0yt73yytyttttywuy5qys88riuu7tw5uswwwwriwut4<%",
"X:tsyfsett7tyyswyt9yyt0ddyy00tttiyu;wiit5ss9ui9suuuswt7qaywuwr2#",
"O:wptstttttst7stytty00tytq53atqttttttwiyuh7wswww9s9wri7suirpwt1o",
"O:erttetwttt99swwt0t7yyyt3tadttqiurrwiyru5wsu8quisw9jiutit8urw;$",
"O1ttettyqttw9yy7tttyttwy08ytt0tquyqyyyyqqrsu8uusr9wttt95twqstr2#",
"O2tytqptyyywtittdttyw2ty3ydttt0qtrwprttrrsuwwrt92wuwuuq9tutwrw; ",
" -p99pytystqtit7w97ut0wwwuqurupqiwwrtrwwri8uwqt9rwiryrrtp9itw8;&",
"+23ttyyqy93tt9t29u9uquu0wr8iwuuqtqyrt99tyrwirt5qswytwwwywqt9wr;&",
"&:tt9yt,ptyy99p7aauwwut0uuurru409iyrwqrwwqir9qqqtrttrwuuwt9yyi;&",
"o2y0ty99atqwqyytqwuqutwrur7wr94jryytww9twyq99y98pswwutwt995tit;X",
"@3t03ttqtt2ywyt9uttwtw0uw09uw8upqtywtwqatt9rtuwpswqttttqwruutp;&",
"&>qy9t92pytywtiwqtwwwurquuurtuirtitqwqtrtwrqtiutt9tttts;wiwuwp*&",
"#3yy99qydytytwty9uww8wqtr890wrw9utrqrtr5yw99purwiqttitw5udttwp;X",
"%<ytqtytyttq95pt8taw7uurw2wwiwr9ttqytwwrp;rdrqryi9triwtwtuu9ut&X",
"o:ytqt00w9t9wuwyttitwwtu0wpsuwwqtq9irwut59saqqpttqttytttqwqqpt;&",
"O20dyw3yitpwtiwwwtu8w8uuwt0euwq0wrqy85r;9rsuqyrtyqt9ttt29wuupr;&",
"#,yye0yyewtwtywwutu7i5uut7tuwww0tt5r9ruwwuguqttuyty3yay2t9pqtw2O",
"O2y00t0t9t2wswttw9uwt5iiwwuwwertp9qurwia9usrrqrtyy92gyt9ttptit*&",
"O3t3wtty7twyiqyw5wu09yiiwwteqirr5wt59wiu4pty9;isyyttat2yyqtipt;&",
"#30wyyyyttiwttww5twyittq<uuwwu8wwaq9utpw9us99tduyttttttyttttiy;O",
"#<0y30yytt99tut9qwiw7ttq9sq8wwr8wuwtrwwwpsu9wityyqttty2t99yttt2+",
"+1e0wdd0tiqtyi2wpt9qiiytu94eutq4utr9rpqrq;qqti9tytttyt5a2tpyqt2+",
"o:t0tay0aw9wy99yuu9afrwrt58fa8wu08uwpu815yyiap4tyttttt0t0dytyt<+",
" &e3yaytw3qstqttairquwruy2rfu8uu5wuuqrw8dursp0-dytyqttwyyytttt<@",
"o:qefyw32tyaw0q8qtqtuttqrwur94wrp8rw7utwe0rgr1qj0qtqtyyttttywt<o",
"+:etpt0qkd8iewtywgutrtqwuwrw89tr45fwrrt55raq2rdp299yyt0ywwttww2.",
"@:7ppt5ep04iwys2wiuwwtttutet8qhw8efwwdu<whu0yhepqyyfttty0ttytt<O",
"O<yitq9piwwiitq3puw7uy8089wurtuqtwu8rar4wdrrypquyttyyyt0yttyyt:+",
"O>qtwye5t30ytw9qauqtsw8twaiutttwwwe8aw81qftwyyrrtqqyytt0yyyt0t1+",
"@:0pyt3qtwgtwywwfqwtqeqwsuttrw5i>wwwuw<upatyurry00tyt<ytttt00p<O",
"X3purrrwypd7st9wl8wiqdq9iuw7uwtu5f0wuw4kyed00rryewdy08zq0yytwd1@",
"O1wwurqrriw9e29trwuuruqqau07urr54u0uwwia8ey1ir00wyettea30de8yy<@",
"@<wrr6raty30q9rqttwtu84uuer6girw5utw4ui8rl0wd03rft>e0teeyyqtsy<@",
"o>wawrdetwqyfwwputqru3eftewwtyrqeuur5auufy0ry06yaw6dtaqyyytyyt>#",
"o<iaqrruqeuru9qrtsrsu4spwuwwws64usiuwpurwr90ty9wyeyeyttyyyqtye>@",
"#>r8wuwrryrrwqqtuyrutertrwwtuw4fwwwrqirw9yywye7eyd0eyeyyytttte>#",
"@<3>11>3><1<<1*46<2>1:<11>>:1=>8:*1;63->:3<13:6:3<:31<:<1><>11<#",
"@O@o@#o+++#o+oo%oXOOOO++@oX@$o%##+@ =+ #o#O++o%+@o@##O.@%@#O#@O@"
};
