/* XPM */
static char *result[] = {
/* columns rows colors chars-per-pixel */
"64 64 30 1 ",
"  c #26231F",
". c #2A2621",
"X c #2E2923",
"o c #332E27",
"O c #342F29",
"+ c #36322A",
"@ c #39332B",
"# c #3F3A2F",
"$ c #403A2F",
"% c #433D32",
"& c #464035",
"* c #494337",
"= c #4B453A",
"- c #4E483D",
"; c #514A3E",
": c #4F4940",
"> c #524B41",
", c #575044",
"< c #5A5345",
"1 c #5C5448",
"2 c #5F594C",
"3 c #625B4E",
"4 c #655E51",
"5 c #676052",
"6 c #6A6254",
"7 c #6E6758",
"8 c #6F6859",
"9 c #726A5B",
"0 c #786F61",
"q c #7B7364",
/* pixels */
"169900q0qqq0qqqqqqqqqqq0qqqqqqqqqqqqqqqqqqqqqqqqqqqq0qq0q0000943",
"6344444744644666446444344444344333334444433446446646444774444434",
"O>>>:>>>>>>:>>>:>::>::::::::::=::=:::::::::::::::>>:>>:>:>>:>>>O",
"Oo443434444444444439673444744477404447444377944444464434344334OO",
"O.466444644664644464444444433331333343344444474446466446666644XO",
"+o8;;,>>:>>:>:>>>>:>::::::::::::=::::::::::::::,:>>::>>:;;;;>8OO",
"oo<O33433346464644444433434444444444444433474444444444333333o3OO",
"oO= 46466546646464647444444433433334443444444644666666466656.%oO",
"oO=.>>>>->>:::>::::>:::::::::::::::::::::::::::::>>:->>:%,>>.;OO",
"oo=O64444345434577666444444334466462444644667747433443344646O%oO",
"oo*o65464455645444444434443332432223334333344344644664456646o%oo",
"o+*O,:>:>>>::>>::::>::::::::::%::=::::::::::::::>>>::>>>:>:1o%$o",
"oO*o*o3654444544474743334444447776464444332664764444444563$%o%$o",
"Oo=+*O4465656465444444443334343333323433464644464646556663o%$%oo",
"+o=o*O4::>>::>>:>::>:::::::::::%=:::::::::::::::::>:>:>>-3$%$%o$",
"oo=o-o,o764464644444444444444446644344344424644447374466o<o%$%XX",
"oo*o*o=o446464444644444443333333233333336555565566465645o%O%$%oo",
"oo*+*o=o:>>->>:>>>:>>>>>:::::::::=::::>>::::::::::>:->:>o:$%$%oo",
"oo*o*o;o866877473344334433344644446633332513253264677666o>$%$:oo",
"+o=o=o=o846444464444444334343333333343333366565566465667o%o%o%oo",
"oo=o=o=o<>>>->>>:::>344444466877669666344463>::>:>>-::>1$>O>o%$o",
"oo*o*o=o=.4677444446:3746468874466777666663:6443446766.-o%O%o%oo",
"oo*o=o;o-O4444444444>>34774707476770966766>>4666664666O>o%O%$%oo",
"oo=o*o=o=+7:>>,;:>-:,>>477677777766976673,%>>:>%:>>::6O%$%O%o%oo",
"oo=o*o=o=o<.87664764,;;;3666766646676763;;;;66664667.1$=o%o%$=OO",
"+o*o*o=o*+=.64444474;;;;;36677666677743:;;;;66666666.%o%o:$%X%oo",
"oo*o*o*o%o=.;;;;>>:>;;;;;;378886679972::;>1%;;%>::>:X%$$o%$%$%oo",
"oo*o%o%o%o&.64464494;;;;;;;3877647772>>>;;,;66966646o%o%o%X%o%oo",
"oo%o*o%o*o*o66644444,,==;;;;39666694>%1%>%1,66364646o=o=o%$%o%OO",
"oX*o%o%.&+=o3;;;>>::;-;=;;;,;366663,>>,<%>>;:::::>>1o=o%X%X%o%oO",
"o.*o*o$o&+*o=.990097=;;-;;;;;;3663;%>>%,%,,%690999X%o=$%o%X%$%.o",
"Xo*o%o%o*o*o;.664444;;;,;;;%;%;36%;,%>%,,>,%665557X>O%o%o%o%X%oX",
"Xo&o&X&X*o=o=o8-;--;<;;;;;;;*;-<1%;%;%,;,;;;;;->-7o=o=+=X$X%o%oX",
"o &X&X&X*+=o=@;X6787;<;;;;;;=;<<11;%;;;;;;,<7877.,@%o=o*o%o%o$Xo",
"XX&X&X*X*+=o=+;X5586;;;;;;;;;;<<<11;;;;,;;;;4444.<O=o=o*X*o*o%Xo",
"XX$X$.& *o=o=o;o;-;;;;;;;;;;;2;-;>1<>;;,;;;;;->>.;O=o=o=X%.$.$X.",
"XX$X$X&X*o*o=o* 5545=;;;;;;<<;;+o;,1<;%,;;;;4343.=o;o%o*o%o$o$.o",
"XX&o&X& *o=o*o& 4555;=;;;;<<;;@<1o;,1<;;;;=;4643X%o=o;o*.$.%X%..",
"X & & &X*o*o&o&X<=--;==;;;<;=@<-;1@%;1<;-=-;;;-3X%O%X*o=o$.%X*o.",
"XX*o*X*X&o&X&o& *.55===;3<;;@<;=%;1$%;1<;===44.* %O%o$o%.=.*o%X.",
"XX*X*X$ &o#X*o& *.55===<<;-+<;-#$;;<O=;3<===46.*.%o=X%O% %.*X*.o",
"X * &X& &O$o&X&o*.-:==<<;=X<;-%+@%%;<.=;<,*=;;.*o%o%o%o%.%X&.* .",
"X &X&X*X$o$o&+$X&X&3*<<;=O<;=#+<<@%=;3o%;<<*3*.%.%o%X%o%o*.%.$ o",
" X&X& &X&+$X#X& &.=5<<,=+<;=#@<;;,$$=;<$=;<<4*X*.%X%.$+%.& &o%o ",
"X &X* & $o&o&X*o* o+<;=+<;=%o<;=%,1$$%;1$*;3oo.%X=o%o$o%.% =.%X.",
"XX%X*X&X*o$ &X* & =<-*+1;*#X<;=#%%;1X$=;3o*;<*.$.%X%X%o%X$o=.%.o",
"XX& &X& &o&X& * & <;=+<<*#X<;=&O$$%;<o$%;<$*;<.*X%o% %o=.%.% %X.",
"X * & &X&o& &o& *<=*+<-&%o<-&&o<,$%%;<o$%;<o*=<*.%o%o%o%X%X%.=..",
"XX*o*.*.&o*.*X&.<;=+<;*%O<;=%o<<<<o&=;<o&*;<@*;<.%o%.*o&.&X&X=.X",
"X *.*.* *o%X%X&<;=+<;-&+<;=##<,--,<+#=;<o&=;<@=;1%o%X%o&.&.*X=..",
"X.=X;.*.%X$X%.;;=+<;=#+,-=#+<;-&%-,<+%*-<+#=;<@=-<.%X%X&.*.=.=..",
". *.=.%.%o& *<;=o<-=%O<-=#+<;;#XX#;;<o#=-<o%=-<@=-<% &X&.&.-X&..",
"..*X*.*.&X$ ;;=@<-=&#;;=#X<;=&o<<O&=-<o%=-<o&=;;@=>,.#X&.*X*.* .",
". %.*.&.*O$,;*$;-=%+<=&&O<-=%o<<<<+#=-<o&&-<@&=-,@%;,%X* * *.&..",
"..*.%.*.* <;*@<;=#+<;=&@<;-#@<<=-,<+%-;<+&=;2@$=;<@=-<.*.* &.*..",
". &.*.* =<;&+<;&#+<;&#@<;-#+<;-&&;;<o#-;<+#&;;@&%>,@&>,= *.* &. ",
"X * *X*X<;*+;;&&#;;&&o<;=$+<;;&oX#;;<+#*;;@&*=;@$*;;@&;<X& &o&  ",
"  * & *;=&+<;*#+;=*&@;;=&X<;=#o3<O$-;1X&=;<@&&;;@$*;;+%=<& $ & X",
"X $ & ;;&+;=&#+;-&##<;-&+<;=#@<;<1@$-;<+&=;<+&&;;#$%;3O%;, & $ X",
"  & *;=*+<;&#+<;&#@<;;&+<;-$#;;;-;<@#-;<+&=;;@$&=<+$$=<$&-<& &  ",
" X& ;;*#;*&&+;=*&+;;&##;;=$+;;=&&&;1+#*;<@$&;3@$&*;@$$=;@*;; &X ",
"  &;**+;=&#@;=&&@<;=&+<;=$+<-&& X#*;<+#=;<+&*;;+$&;;@$%=;@**;&  ",
"Xo;;*+;==#+;==#+<;=&+;;=&o<-=&+<<o&*;1o&=;;+&=;3@$==;$$==;+=;;+ ",
" &&&#;;=$o;;=$+;;=$@;;=&+;;<$@;;;;@$;;;+&;;;+$=;;@$=;;o$;;;@%%* "
};
