/* XPM */
static char *result[] = {
/* columns rows colors chars-per-pixel */
"64 64 54 1 ",
"  c #452723",
". c #56322A",
"X c #3D1F1B",
"o c #4C241C",
"O c #54281C",
"+ c #4C2014",
"@ c #5A2F26",
"# c #613E2F",
"$ c #6A3E1E",
"% c #381C18",
"& c #74402C",
"* c #714A37",
"= c #7D573B",
"- c #8C603C",
"; c #705120",
": c #805430",
"> c #8D6643",
", c #986340",
"< c #926D3E",
"1 c #8D5A3B",
"2 c #714337",
"3 c #A1724F",
"4 c #9D794B",
"5 c #9A6E4E",
"6 c #9A6B5E",
"7 c #9D6E4B",
"8 c #A57853",
"9 c #A67E5A",
"0 c #96734A",
"q c #724826",
"w c #653A2B",
"e c #905C50",
"r c #854E33",
"t c #945B3C",
"y c #AC825C",
"u c gray19",
"i c #3A160E",
"p c #5C2C24",
"a c #401810",
"s c #86524A",
"d c #8A5236",
"f c #AA864E",
"g c #311717",
"h c #7C483C",
"j c #AD8963",
"k c #B18E6F",
"l c #481C08",
"z c #3D1A0B",
"x c #391A07",
"c c #5C3414",
"v c #522B0E",
"b c #282828",
"n c #2C1414",
"m c white",
/* pixels */
" ..   ...  ......      XXXXXX X   XXXX XXX      oOO +XOOO@.....@",
" ...##.#@@#########################...$#..#. .##.@O .........  %",
" X.##&*#***=#*===**==****#***#####****#-=******#*#*;#*#===**#.X%",
".@##**:======-----=========*#*#*#**====->--===*====*=**----=.# %",
" .#&=-,-:;,---=--=-----<===--**###==**=*---====---==1**==-=*#.  ",
" .2===34-::,5675>>>5>>>5>>>=--#*#*=-=##=-==>>>>5>>>=**###=-==&# ",
" @2#=-387,-:589436->55>0>>>>==-=**>0=**#*#*>=->>>==*#*q*=====&wX",
" @*=>-7887:-,5343,555e>>>>-->>=>=*=105=*##*>=10>>==**=*r**=-=#&.",
"  #*>-,735-,1---733<<499>53,,77t1**=><1**==>>*1==1====**r=-===&.",
" @.=>==8->0--e5>55->49y9551>>,t--*5>1>===1==**=*-->>>====>>>>*#.",
"  .*===1=>>>>=**===-44y455*===1=*-,>=***###==*#1->>>75,-->>0>=#.",
" X#*>==*=>>>>1==*=15<9451*====****->**=*##*===*1>>==>>583-5>>=&.",
"XX.*-***-55>5>=1>---<9>==******=**===*=***==***===***=>3,,3>>*#u",
"iX#*=====>>=>5><5>-->>-=***=>===*=>=*=====>5=***=***=>56--3->=# ",
"X@#**-====5==5<5>>>>50>=***15==**=>>=**=1=33>***=***=>35533-=&&.",
"iO#****==>5>->-5>>==>*==**=1=*#=*=5==#**>=>05*#*****=*-55,,>>&#.",
" O*#**#==>>55>>>===1=*****1*#*#**>5=******15>******1>=>5>>55>:&.",
"Op##*##=>=5>>>>51=1===***=*##*=#=5=*==1***=>==**>==05>>=>>>5>:& ",
" pp**#===>>>1>505>1==*==>>>=*>>=*===>55=***--**>>5399>>>>=>>=:& ",
"X#p#*#*===>>11>>50=1*=-5>055>>51*=*=>5>==*=,tt,3yy990>1==>>>:&..",
"X.#**###==1=11>>>>1**-,,5555=*1>=*=>>5>***=tt74,559>=1=*=5>>>&#%",
"X ##**##*=-1=-1>>*==*=,,5955=*=**=>>>9>====t770,yy0=1=**>0>>==# ",
"X .***##*=1===1>=1====,3959555>>==>>59955>-,t373yy9-1*=>0>>>>=# ",
"X ..#==*======>===*1==,389y9y5>=*1=59y5599733979395-1*=50>>>1=. ",
"a .#====->=====***1==-=-389y393===>5>555yy9t393=111=*#*=*=>1=*# ",
"aX.*=-=-=1====**==**=--=38883---=*=*#=>>9053783=*=1**#*==1==*$. ",
" .*==---1>1==*****##2==,-,398===*****==>5>5353===1=###*==*1=#w  ",
" #=---->5>>===******===-,7788--=*==****==*==5,==-1*#*****=11*.. ",
" #---=>>>1***=***##====--=7875>=*#***=1=*###>==-=1*****=**==#.  ",
" w--==>5>-==****####==*===73-=>1=====>5>##****-====*#******=.p  ",
"pw====>5>1>***==*##2*-==>=,,->>>>11>-15>=***1-==1>********>=#.  ",
" w===>5>>>=**=**=**=--,,5>--,3>>-1===1>5====**==--1==**,==*=*.  ",
"pw=>5>==>1=*=#=*=rr*=-,87,--5,55>-====5--s*q======1=*=--=-==$.. ",
"p$==5===>=**#**-=d---,3877-33-->1>>==>5>53:qq:--*===**5537==*.. ",
"p$*=>-===*#*#*-===--17733--,--1*=>>>>55->3,:qq:>->====---,,==## ",
"pwq==s--====-=>5-*=*=s,,-====---5995505>553-*======*#**=-77,=*# ",
"pq*==>>>>>>>>>55====-77,--==>5>559f055509993***==>>==>>=-,5>=*# ",
"$w*=-55>>>e0>>>,--,73,7--0-=5999yy5909000>50>**=*=55>>=*=>5-==# ",
"p.=,,5599555>>-===,77,=>55>999559<-95995>=>5>==1***>1**=*=50--#%",
"pw==733>4559>11>>=>33>>5999955>><<<59995>>>>>>55>=***#*1=>>>--*%",
"pw*,338555**==>==>559059y95<55>=>>>>5900595055590==#=***>>>5--#X",
"pp=-3365>>>1=>0-=->55005><<5>===>>>>5999595>55>>>**===*>>05--=* ",
" p*>383y>>5>353>>>>>>>>>=>50>===>>>>5999y955>=*****==**=>>=>>=# ",
"% *-388y99>>5=--=>>>>=>*=>59>*==>>>>>59y95005*****#*1>=>>=-->=# ",
"aw*=>88799>--===*====>====5>>*>5>>>=559995555>*==**==500>=1->*. ",
"gw#h5888j9y>>>>*=*===****====>55>=-*>>595>5>>====>==>5995>>>>=. ",
"Xw*:5,83k5y5>5>1==***===*====>>>5>*5>559>5>5=>==>>==5>>055>-=*. ",
"+.*:-,885555>=====-=*=======>5==>>=5>595>>90>=>==>>>>5yy555>=*# ",
"+.*1->>995>>>===-,->=1>=5**====>>>>>9905>=55**===>>>>5599555==*X",
"+#*:---05005>,>>5,=51>>5,=**=***=>5>9995>>>>=*==*=*===5>95>--*&X",
"l#*:=-=5>5551>>>,5*=1>>55,******=>>559yy5>>=>=>5=***><>==>>>**.p",
"i#*=-==5---=-=,,-3=*=15,,5>=***=>>==>5555>>===>51***1->>*>>-*#.o",
"lw*=s*==**==e5-=--====53535=*>=*=>==*>>>>>-=>>=>5==*=:::=1>=:#..",
"zpw*==***==>>-5,---===-,8y3>>>>=>>=*==>50>-===>>=>=**r**=1>:q&w ",
"iw*r======*=>-3>r,7,,7,>88j5>>5>5>>>=>>>>>-*=>50335-==:**=5&&w.%",
"xq*:--*===-==,557>3--3358jyy583555>=>--5>>===5535883>===>53=:..X",
"lqr:***d=--5=1,8y8355888y8j83yjy355>=5>>>>11>50338335*==>55>:&# ",
"+qq::**::-=>7,38yy83-58yjy335yy8353==>>1>>>=**>>5343>->=155-&&*.",
"aOqq::*qd::5>,77885>55>-335>--53753,-=:1111>-===>3-=-==>=>:&::&.",
"acqwq:$q&::-,-=,35>e>=::=1-::---,,---=1:1111==***=>>====*==::&# ",
"vpp22wq..q::::::===s==qqq::::::d-:===::::11:==**w**==*****#&&#.%",
"op.##*h22*r**q*22**#*##*#&##****:*=####::1:*##w###******##*###X%",
"X . OOO#2*&&&ww###. ....@#Owww#@@&#@@#@#p*#@ . .....  % .. .Xg%%",
"ggbbbXbX.# XXX XXXXX%g%%%+a++O..... X%X  .@.... @@O+aiX%   XXgn%"
};
