/* XPM */
static char *result[] = {
/* columns rows colors chars-per-pixel */
"64 64 92 1 ",
"  c #221D19",
". c #26211C",
"X c #29231E",
"o c #2C2621",
"O c #2E2822",
"+ c #332C25",
"@ c #362F28",
"# c #373027",
"$ c #373028",
"% c #3B332B",
"& c #3F3730",
"* c #3F3932",
"= c #40372D",
"- c #42392F",
"; c #453B31",
": c #493E33",
"> c #4C4236",
", c #4E4439",
"< c #51463A",
"1 c #554A3C",
"2 c #594D3E",
"3 c #564C41",
"4 c #5A4E41",
"5 c #5D5143",
"6 c #5E5448",
"7 c #625545",
"8 c #665847",
"9 c #625648",
"0 c #66594A",
"q c #6B5C4C",
"w c #675E52",
"e c #6A5E50",
"r c #6F604E",
"t c #71614F",
"y c #6D6152",
"u c #6F675C",
"i c #746553",
"p c #786754",
"a c #766956",
"s c #7A6956",
"d c #726759",
"f c #76695A",
"g c #7D6D5A",
"h c #7F705E",
"j c #766C60",
"k c #7A6F61",
"l c #7E7162",
"z c #7D7369",
"x c #806F5B",
"c c #84725D",
"v c #88755F",
"b c #847562",
"n c #897661",
"m c #867866",
"M c #8C7A64",
"N c #867A6A",
"B c #8C7D6A",
"V c #927E66",
"C c #917F69",
"Z c #8A7F71",
"A c #8F806E",
"S c #95826B",
"D c #99856D",
"F c #8D8272",
"G c #938572",
"H c #9A8771",
"J c #978976",
"K c #9C8A74",
"L c #93877A",
"P c #968979",
"I c #9D8D7A",
"U c #9E907D",
"Y c #A08D77",
"T c #A18E79",
"R c #A4927D",
"E c #9F9080",
"W c #A69582",
"Q c #A89783",
"! c #A69885",
"~ c #AA9986",
"^ c #A79B89",
"/ c #AC9D8A",
"( c #AEA18E",
") c #B1A28F",
"_ c #B3A492",
"` c #B5A996",
"' c #B9AC9B",
"] c #BCB09E",
"[ c #BCAFA0",
"{ c #BEB2A1",
"} c #C1B5A6",
"| c #C4BAA8",
/* pixels */
"  . ++%%=+++++=%#==++@O=O+@@+OO+O+%@=OO++@&%=:=+%;-@+Oo@+o++@X  ",
"    p70ibBVr52:=1qxbZZiMCbmcCCxZbqbCrydjbbsxPZ9:yjj4yfB43ye40%XX",
"  @qVSVRHiixtsxnVvVT`ccVnHC/QYTVxY/xCQ_~YYQQQCT)}/xgBnpnCnZLi9XX",
" Xe5xigHWipMnMV)VtCYxnCvxxHYYVxx_EYT~CCxvVMVQ'EYxxCZsbECCZnMcf%.",
" %08itnH/VVYTYYVTxxsMVxxMWTxc8pDVVWWCVqxnvvv/YYxCCspMZVbKWnxKg6.",
" #77xxTTnpH/WccMxviqvvVDCMRMxxxYCYTxqMtnHYnCVYRcVYHMH/n/KJit)E4o",
"X=78txYHxiYCYYC8p8vvxxYTVYccvxVRYvx8vvvxxxD_QCxxRCCxJ//c0xqpYb3O",
" -,1sHVStVRpRptxSxVxttY/vnC)vDYnxYCvnxptxYRYRsqVYxcHMEYYpitnyq0%",
" -qtpVxxxxxVxqMnIIgtcbJVVDYQSVVVCRvMnpVgVcVCttnxgaSmvhDnnnx~pis;",
" ;rixDYYKCxstvcHPggJVi/QvVDVstxDvvCvpKCVxsqpxVCxMIl!pUmvHC_DvtN:",
"X:iiHnR)CVttMxV~siVvpHTxccqq7RV~WYxxTYCCMttCYbmbIvchhmvHssYVnmf$",
" <4sxxpV~xpcsVnEpCxfMHni7qxx_vSDVxvCVxcxcWMYiBnsSABSAMvIixHCIGe@",
" 1qScxrDVcvCWYpVgHxWDv78pYHVTDSVYvMQvxxV/iMcMxsYMSRJpnMAcSSABg9&",
" -xvxnHMiv_~xpptnRQxnxVcVHDvHVYYvMYvrxYQcVcCnggDgSIviIJKDQtAB46@",
" -88tVvxvYvitq9svxsrVVVpvDcvxdmgxVxxxTYixVnxiqqxKUJRIMRSYchasud$",
" :81ivMCv~xqtir0iBVttqiHSpVDxxbMxxxMvxpxMEnnC9xYAFGhqgSD8rdtbly+",
" 12;1V)cvRpq1t8cBNpStMtcV5ScxxfGiCnixpnTSVcqcnYBhscvDSvptSbSfG6+",
" =815Mnxtvvv2xcAmhvVcspVxsvYqbGqssxxgVYvVWciMM~Va8iSVcpDvpmBNA6#",
" %q2qxpncggctqcUlynSSMiDpxWVinpp0cxq1sxpRYMK9BHGprKSccYR8gBIyh81",
"X=1tqv7VhBgqcpAgi4gcgccg1YY8Hid8tcr157HvpSnqcTcxsQRivKWD8cbaudl3",
"X;148iVDnUgynIFiddpmhmMcVntxniVi2tiqgD/nttgt8BIGKKDDRSqqyyfAahN;",
" ;tqixpnJnJcsIGydqjnag7DDMt5pSn1,sxcgxi5ixc7ieBIDSscs77prrFr0h4*",
" 1971piZmID4JGsbyfbciqicVvxvHV75iSVbs0pbBmpLNEPrDTifgsvq5fgrmyy*",
" -9q7Md0nKcFbill2isi78qqqcxSKbiScgKMipbbbFPJEm0bNMDbctic5,0rmuN+",
" :1:;3kiGnIdqgddrgcqfSD5tpqBIBcncBc94:1fbgNhgBDfrAh2152tvt1fyAf%",
" ::17qdf5ddpL0,103fFk0ti8fZlpyeHmiq9fqfbyl6qhMxq7iSmhr2Ar750lfd%",
" %7i790qeeNl5>3l6lGmppRbwbmMkZjmGfsbn0kqq,5AGinv8iSi2,r855ryry5#",
" X>9ekkx33f50zLdLNmSGPd4dwNNjeBdgbBp7<>17yIN64yd26Sg2,>>22y84y5#",
"  X<>>,2798eNfgy510f921de341d00lq51116fduqq6000ry2<5,>,rr62562$.",
"  X=>:78<511%1>1-<=+;;>$;@@;,,*O%;:wy036>3<,,<>>#.%**1><,,,,>*..",
"   oXXX oX          .o  Oo                        .... .....o...",
"                                                                ",
"X;,<-><Oo%3,-*&;%<1>%$X+#XO%%&2r1;;<>%+-><;#;74;O+@+=%OXX.OX@@XO",
"O->8h;r0lSGfMfU8nAyyFGDDGypccSD)/x9BVWWFw53n//YYT'}/Y)Cfdjt491=X",
"X%7aK^SRUMNSd/ASKUJR!NJ(`RI]((I(mW{MJB'QDHQW~YY_}/xxHR`'/V}}iy7@",
".5a5GvhR(gASW(R`QA)!hG(`((~_{!/c''TIE(KxvVVVQ`THxxC'Y/_CTE`cBbq%",
".<2lciS^'/R){~TR(JhsR((!G^(^AFBQRJIW)K0xnvvv~YYxVCnZ)/nCEQsgQ9k@",
".>85vU_!UKQ|QnRJBvpm(IIIRK(vDDxDDK/^qntnHYnSSKRxVYT~//V_KVsL_bgO",
".126h!JSSnUDTYSghiSUADT(DKvS/vSRKcxqvVvgxxD)RDxcTH/T)Q'M7xtcVP5O",
".>><nUnmcKQhTspnSnRUIpR)vvI]MHHMgKDvvsptvTRYRsqSYHVYCQRYiptnNi4+",
".-0tscbJ/MxVM8BG`U!BMR/VVSR/DSvVDRvMMpDgKKVSttMsnpGUSWMcvnx_mn4o",
".>qhSSUW~ScxbSTQGGIWIW/QvVDSsixKcvKvsRDDTSttcVYSvcT'MMPnVD`Yn01X",
".,sSRS//SVdMTRHmScMSMRYvxvqq5YMRRYgvQYK`'itSRRQtxMWAdSIMinKCxs7o",
".>2pmnsVWxcK/HBQhMMWDKvt7qxs)vDDVxcDScQRDRVRD~JiD/hgIUnnbBKCnp8+",
" 1qDcgtDMcMDWRBcsKT/Dv88sYDMTSSSYvVRVGRR/pDQVncIgiBQBnaInDBD0q8+",
".-pvSvKMpc_~cgggcR~hMpSvSDDvHVKIvVYVpR/)KDDKWMssgAVMqgSbHIgpqg7+",
".-72xVvxnYnPSFJgcnngMVVpvDvvxpspxVvsM/`cvSVDxqpMSxfsSBGGInc1xp1+",
".2q8pvvSv^MJPGAqfbGptrtDSpVDxitcipsVIJcnMRQVVFPSsybbqxKS7y5qcixo",
".1q51p/vxRxptJqMmmhStMtvV5SvtnLrqSvnISMRDMcrGWVhqixxVSxpiKvSts1X",
".-178xnxpnvv2cvSfhnSgspVgpvKBGa6pixcxMYvSQcAAmSc08pVVxpHvtxx7s++",
".#2qtxxnvxxxircbprMMSvtSpxRDfssp8xxqqpgtRIUSfSDMitYVxcYV87tx1s;X",
".%1pxv5nxp88xt87t2cmttvg2YMtnBhqicqtttSvsKhgA^hSpQRpnKCn0vt72g2%",
".:7qpqnDpxt0vs8pasbr7gvcMcpAnbSs7tptrM`AGimgLARvSSVDTx0qt7g2702%",
".;q78xixxsVcsxcamrraph7DnMAaNDM0,psphJhdimANhrrsnnsci87pq,r7i7<#",
".-2>5st1gVS1gmai2rrhsrtcMBmMnMy5tSMgJhachNNAi<qtnct0psv012iqh87+",
".-q87n12cVhqppq85aiy88rthSmBDftVcpYRhscr0hhmt1qqpMxpxtiv7>8<iiiX",
".%>&5r1rcvsyq54thah77DD2Nlgmccgvcgx51:,qptpqtcg87nt5175ict<rra8+",
" >>2d52r070qi12i0188q8th839qiqqDxq75p18rq817tch81pnpi22Vrq5r<02$",
" %>rd8rh00hyg861002rtgDtd4qc151qtqqtp777252crrnM70V8<>rrq788;32%",
" X1rrrdr8gbg685sirghcs8ug071srs5qtvp7<:7hrD822rs:<Ms058588p2hh>.",
" .>r>>5rm7aigiq1815y68rly9qggt2775117t18p7>-15iq280c8527852,85+ ",
"  X2rr5y2<8y0y,4->2828ua>7170>;qri88>8:s52->2<1>9,b7r5-;:>1<5>. ",
"  .>>*2%#%&%$*,5>--&%>>&;%%;X+--%>%++##%&--&#%+#%----#%+%;#++X  ",
"    .................. ....   X .. ...  . . .. .X.... ....      "
};
