/* XPM */
static char *result[] = {
/* columns rows colors chars-per-pixel */
"64 64 236 2 ",
"   c #010100",
".  c #080301",
"X  c #0C0902",
"o  c #0F0A09",
"O  c #0C0406",
"+  c #130C03",
"@  c #180F02",
"#  c #130E09",
"$  c #190F08",
"%  c #131205",
"&  c #1C1906",
"*  c #1C130B",
"=  c #1B1509",
"-  c #141413",
";  c #191414",
":  c #1D1B14",
">  c #1A1918",
",  c #161912",
"<  c #210F08",
"1  c #231409",
"2  c #23190B",
"3  c #2A1B0C",
"4  c #241905",
"5  c #321D0B",
"6  c #391F08",
"7  c #261C14",
"8  c #361E11",
"9  c #1D2219",
"0  c #2B220E",
"q  c #27240E",
"w  c #33230D",
"e  c #3B250D",
"r  c #382A0D",
"t  c #23221A",
"y  c #2B2417",
"u  c #332414",
"i  c #3C2A12",
"p  c #352618",
"a  c #332A1B",
"s  c #3C2B1A",
"d  c #382713",
"f  c #3C3119",
"g  c #292722",
"h  c #342D23",
"j  c #2E3026",
"k  c #3B3223",
"l  c #363329",
"z  c #343430",
"x  c #3B3B34",
"c  c #422A0E",
"v  c #48290F",
"b  c #48320F",
"n  c #51340F",
"m  c #432B13",
"M  c #422C19",
"N  c #482B15",
"B  c #433112",
"V  c #4A3214",
"C  c #43321B",
"Z  c #4B321B",
"A  c #4C3A1A",
"S  c #533313",
"D  c #523419",
"F  c #5A3419",
"G  c #543A1A",
"H  c #5B3B1A",
"J  c #593913",
"K  c #643C1A",
"L  c #653916",
"P  c #443322",
"I  c #4B3423",
"U  c #4C3A22",
"Y  c #4C3B2B",
"T  c #433928",
"R  c #533B22",
"E  c #5B3D22",
"W  c #533D2A",
"Q  c #533521",
"!  c #433C32",
"~  c #493D32",
"^  c #633D23",
"/  c #5B421A",
"(  c #63421A",
")  c #6C431A",
"_  c #6C491B",
"`  c #76481B",
"'  c #7C531C",
"]  c #49412B",
"[  c #534124",
"{  c #5C4323",
"}  c #5C442A",
"|  c #59462A",
" . c #434236",
".. c #4C4234",
"X. c #4A4938",
"o. c #5B4532",
"O. c #594A36",
"+. c #5B5136",
"@. c #634322",
"#. c #6B4424",
"$. c #644A25",
"%. c #6C4B23",
"&. c #644529",
"*. c #644B2A",
"=. c #6B4C2B",
"-. c #68462B",
";. c #734B22",
":. c #7B4C22",
">. c #744B2A",
",. c #774926",
"<. c #6C522A",
"1. c #685329",
"2. c #735124",
"3. c #7C5323",
"4. c #74532B",
"5. c #7B532A",
"6. c #7C592B",
"7. c #795A25",
"8. c #634A32",
"9. c #6A4B30",
"0. c #624C38",
"q. c #744D30",
"w. c #6A5231",
"e. c #64523C",
"r. c #695539",
"t. c #735433",
"y. c #7B5331",
"u. c #745B33",
"i. c #7B5A33",
"p. c #76593A",
"a. c #755939",
"s. c #7A6337",
"d. c #7F602F",
"f. c #3D3E41",
"g. c #4C4B43",
"h. c #575246",
"j. c #675942",
"k. c #785D43",
"l. c #615D54",
"z. c #7D6046",
"x. c #796848",
"c. c #6E6855",
"v. c #726C63",
"b. c #797E6D",
"n. c #767368",
"m. c #6B6962",
"M. c #844C1C",
"N. c #83531B",
"B. c #89591B",
"V. c #945B1C",
"C. c #98621D",
"Z. c #844F29",
"A. c #845423",
"S. c #845925",
"D. c #8B5B23",
"F. c #83542A",
"G. c #835A2B",
"H. c #8B5B2A",
"J. c #8A5525",
"K. c #925C23",
"L. c #925D29",
"P. c #9A5A24",
"I. c #835A31",
"U. c #835E39",
"Y. c #885931",
"T. c #8C632B",
"R. c #88622A",
"E. c #936324",
"W. c #9B6324",
"Q. c #93632A",
"!. c #996829",
"~. c #836334",
"^. c #8C6433",
"/. c #8E6A36",
"(. c #84613A",
"). c #89633A",
"_. c #836A3A",
"`. c #896A39",
"'. c #956231",
"]. c #916A34",
"[. c #9B6A37",
"{. c #8F7238",
"}. c #9B7238",
"|. c #A46A26",
" X c #A86A28",
".X c #B87828",
"XX c #A16A32",
"oX c #A16B39",
"OX c #A96E31",
"+X c #A17336",
"@X c #AE7231",
"#X c #AC753A",
"$X c #B0773B",
"%X c #B67A31",
"&X c #AE6F26",
"*X c #AD6D17",
"=X c #C17F27",
"-X c #8E6A41",
";X c #866643",
":X c #946D41",
">X c #8E7449",
",X c #917641",
"<X c #9D7644",
"1X c #947749",
"2X c #88755A",
"3X c #A37842",
"4X c #8A7E68",
"5X c #857F74",
"6X c #7C8070",
"7X c #BF8136",
"8X c #C98834",
"9X c #C68532",
"0X c #C28028",
"qX c #9D824A",
"wX c #998258",
"eX c #A68649",
"rX c #B18A49",
"tX c #B68745",
"yX c #8C836B",
"uX c #838275",
"iX c #8E8C7A",
"pX c #8A8476",
"aX c #948E7A",
"sX c #9A937C",
"dX c #A1977E",
"fX c #C68C42",
"gX c #9C9C8C",
"hX c #969483",
"jX c #959690",
"kX c #A59C8E",
"lX c #A3A68C",
"zX c #B2AB90",
"xX c #9DA08A",
"cX c #C1BDA6",
"vX c #C3C0AD",
"bX c #C8C8B6",
/* pixels */
": 9 g k k l j g g > > t g g > -           o 3 a B n n n b n v V c V M C B S S V C e c M y y 4 .           2 5 3 c N B Z b B C N ",
"a k Y ....~ k k k h g g g j g >           % s N G G ( ( ( ) ( ( @.E I I I H H G K L G P k p 7 o         X u V H G G Q G Q I P C ",
"j a ~.<XrXrXwXqXeXwX4X4X>XqXx.! O - - o o 8 F.#X0X8X.X8X8XtX9X8XfXeX3XrX$X8X8X8X&X&X$Xx.e.j.| # # - # o + ,.H. X%X8X8X$X#X<X<X<X",
"t h _.rXrXrXeX4XqX1X>X1XrXfX1Xe.x m.n.l.j p G.}.%X8X8X8X.X7X8X8X,X&.p.>X,X#X7X@X@XP.[.`.k.Y.&.h g.m.l.x 7 5. X X8X8X9X$X$X:X3X#X",
"a P ~.rXI.;X;Xp.8.*.&.p.p.y.&.a f.uXjXm.z 2 B _ ' B.B.N.` ` M.K M.,.q.*.U U E ;.` v N ^ E #.D Y n.hXhXl.7 N S ` N.D.J.:.` 4.`.Q.",
"a C ~.eX/.s.z.k.(.i.p.U.^.U.w.U g  .g.x t 2 H ' C.V.B.B.B.N.N.L K.Q.:.` %.#.#.' J.J J ' :.` J $ z ! ! y 1 E @.` 5.H.H.5.( 0.;XJ.",
"j M ~.rX&.&.*.1.-X(.k.;X-X`.i.} O o o O O 1 _ Q.W.W.E.K.C.Q.E.M.K H S V 7.R.J.' D.' _ 6.S.A._ X   O o O O $.3.H.E.!.L.G.4.I =.D ",
"a C ~.rX$.2 y i.s.;X_.z.[.}.(.}           2 ' W.!.E.K.V.W.!.!.XX#.w 5 %.H.E.C.W.E.A.Z.I.S.` ) +         o _ S.P.D.|.*XQ.s.W w e ",
"s Z ].rX4.C E ;Xz.z.z.-X(.-XU.8.2         m S.W.&XP.V.V.C.|.|.!.F.E F S.T.E.!.W.Q.T.D.,.) ` J 1         4 ( D.C.V.P.W.S.9.=.( ' ",
"f C ~.rXi.~.).-X-XU.a.-X-X-X(.p.R * o o 1 @.D.|.&XV.V.C.C.&XOX'.r.'.L.` ;.H.E.Q.G.H.J.L ;.#.` M + X . # c ' V.!.W.K. XA.*.H. X X",
"f f r.rXH.~.`.:X-Xs.p.-X-X,X-X~.6.{ U F } 6.Q.|.*XP.V.C. X@X!.].<.U.|.` ;.H.R.%.( 4.6.) K K ` G M i w M ) B.V.!.!. XW.E.i.|.|.C.",
"s s <.$X~.G.).-X-Xi.Q I [ R [ U Q P P C G A K ( L S v G ( ` |.T.X.} H.) ) ` G C 0 5 e c e 3 8 5 w d 3 w e c S ( H H J G I G Z D ",
"s i 7.<X6.G./.-X~.=.U 7 u y p r y u q y w w 6 e e 5 5 5 w ) B.G.F F A.) H L i 0 7 2 4 4 1 3 3 4 < 2 2 1 5 w 5 w w w w 0 0 u 3 u ",
"s i ~.rXi.G.].T.^.t.*.s % * $ $ % o % % O X X o @ $ @ + c b L L F 3.K.D.3.( c % $ + # + $ $ % + o + # $ $ $ < + $ + $ % $ $ $ $ ",
"C s T.rX~.6.G.H.d.=.[ f : - X o % o       X X + % & 4 n b H ) ) #.I.T.Q.!._ B 4       . X . X X X . . . . X X X   . X . X .   . ",
"B m ~.rX7.4./.i.,.[ / T u : # & $ X     . 2 q 2 q q 4 r e ) ` K ,.G.L./.^.%.r q o                                               ",
"f m G.}.[ 2.`.i.@.H ( u $ w 3 u 1 X     X A / r r q 0 e 4 ) N.:.' G.].T.^.{ d w 3 X     o # 4 4 & % X + o X X + % X # % & + + @ ",
"r i s.1Xk 1.H.F.H.H.1.1 X A G G T 7 2 % m $.1.' { / n 0 4 _ A.M.:.D.XX'.6.U , q C 7 o > $ 1 0 r r 0 w s f 0 i f 0 q & $ & 3 c 0 ",
"i C G.rX[ +.].'.:.G.&.p % [ [ R R R V 0 b _ 2.' ( n r X 4 ) B.D.H.T.XXT.4.Z y q *.C y f $ $ o + % % % o % % 2 0 q , & & & & b / ",
"s C E.%X*..._.{.i.=.R f 2 7 $ 4 * & % X % 4 q & X X % + c ) C. XH.3.Q.S.{ A [ s U a y f X X X               X X           X 4 c ",
"i V ].%X%.A O.(.`.u.G C % X X . X X . X . + X . X     X J _ C. XQ.:.H.6.| Z u q 1 O . + o X X X X X X   . X   X             X X ",
"i m E.8XS.r.X.e.a.4.Z I h -   .               X X X % w n _ C.+XQ.'.H.4.-.Z 3 . .                         .       X       .     ",
"e i D.fX[.a.g.e.X.r.| yXsXhXgXgXgXsXgXlXgXsXxXxXdXsX5X[ J ) D.E.` 7.2.4.4.$.| c.hXgXgXgXsXiXiXyXc.aXhXpXgXgXgXgXgXiXhXhXhXhXaXhX",
"r B T.8XA T ] [ g.c.j.m.v.m.n.n.n.6Xb.b.6X6X6Xn.6Xn.h.f b J ` H v S Z <.7.%.X.X.v.b.6X6Xb.m.c.e.r.+.l.j.n.6X6X6Xn.v.n.n.n.b.m.n.",
"u C ].fX/ 9 t i.s.+.g.z l z z z l l j x z z x z j z t = m G H G 1 # s O.r.-.T t z x f.z z l z j j y y j z z z j h l z z z z j j ",
"c V ].fXG.C I ^.-X0. .- # o o : > > > - > - , : - o o * r s a { P 7 P ~ o.! y o o O , > 9 = - ; % ; - > : > - ; , > > 7 : - ; > ",
"B V E.8X!.e.p.].~.| l > o o % 2 3 3 3 7 2 2 5 1 4 # # 4 m I Q y.%.Z Q t.t.P g ; o o o - - # $ $ $ $ # $ 1 2 : $ # * ; > ; 2 4 2 ",
"C V Q.8XH.0.r.y.7.$.T j > : a 9.1.<.4.3.=.W E W ! * ; 2 a P $.3.F K K 5.7.E I s 0 7 Q } &.#.#.@.K K H K %.%.E R } R R E R E F { ",
"c m K.8Xu.w.r.~.4.%.G a 9 > y O.z.(.`.R.s...+.} I 7 = 2 y k [ e.W M D F *.C M h u w #.F.W. XW.E.D.A.M.M.E.H.6.,.>.F.Z.J.S.F.S.D.",
"B m ~.rX7.+.j.U.i.<.} k g > 9 x g.j.x.-X1.X.8.~.^ 8 7 8 M k ] ..! p M $.=.R Z p s m >.I.K.S.S.H.R.J.A.N.T.D.F.=.%.5.F.G.F.S.:.) ",
"f m F.rX<.e.0.6.{ u.W T : 7 t ! X.g.j.j.z.e.u.(.3.d 3 u d s !  .k k W 4.3.{ Z M u d #.Q.I.y.I.H.J.A.` #.E.!.G.<.:.D.S.S.3.A.N.' ",
"s i 6.tX7.w.k.i.i.i.*.P a h a X.X.g.g.X.X.+.j.(.G.e 3 w i P ~ Y ~ ~ =.F.S.@.I s s s ;.L.H.Y.H.:.3.;.Q 2.H.G.I.-.w.H.F.G.:.A.B.B.",
"C v E.fXS.p.;X/.^.s.} P C i C k.+.X...X.O.Y T O.H.e 3 3 i Q | &.o.W 7.Y.6.( Z M e i >.6.i.H.R.D.) #.K K G.S.y.y.q.t.5.y.5.S.A.S.",
"b b W.8XE.i.~.].'.~.$.U s p f t.p.a.e.e.j.O.~ t.7.w 3 w M Z E 9.e.9.Y.~.y.{ Q M r w -.r.e.I.R.T.3.N ( @.I.G.H.I.6.a.u.6.S.A.H.S.",
"c V ].fXR.6.U.H.T.i.} W f d s p.t.r.p.p.p.t.&.p.A.w 7 5 8 N -.p.p.a.H.I.=.Q U M d s *.W *.6.S.J.L F L #.J.Q.T.y.X.Y *.w.9.u.4.6.",
"m V Q.fX7.6.U.G.R.a.} U s p f 4.p.p.p.y.y.u.9.;.` e 3 3 w M #.s.p.>.7.%.3.@.Z N y u ! ....R j.l.4XsXpXdXlXlX;X4.~ k .. .....~ ..",
"m C ].8XS.`./.^./.a.e.Y Z d m 4.p.k.p.U.).a.4.L I.s 7 0 w c =.U.p.i.6.G.i.$.Q y 9 y x ! k p O O v.4Xk   ; c.Z #...z ! !  .! ! x ",
"B m ].fXI.>X1X+X^.x.c.m.uXpX5X4X4X5X5XpXuXuXn.j.5Xc.Y I i D p.U.;X;X).I.(.w.c.n.b.6XuXuX5Xh.  o dXaX!   7 yX$.n.uXpXpXaX6XuXuXuX",
"c C ].fX]./.{.}.{.2XyXzXbXvXvXcXbXbXbXcXbXcXcXkXkXsXx.x.I ^ 6.].U.k.i.Y.i.r.hXcXvXcXvXcXlX;Xx W hXkX! ; h zXU.zXbXbXbXvXbXvXbXcX",
"c V Q.fXA @.=.' [.>Xa.iXgXgXhXsXgXlXkXgXgXgXhX4X>Xj.j.O.R @.,.Q E W E d.5.p.c.iXhXhXgXiXiX5Xm.v.kXzXaXkX4XlX2XyXxXkXgXxXxXgXgXiX",
"m A /.fX-.3 r H.|.H.C !  . . . . .g.X...g.!  .! ! k : 7 f ( I.5.d 3 H I.H.=...z  . .X. .5X~ O * yX;Xt   ; aXr.! g. .X. . . . . .",
"c e '.fX7.[ $./.}.S.{ * X   . o # X o X # o + X X     @ i ^ 6.G.E Z :.J.3.;.C #   . O + d 5     l.e.t . $ 0.5 X X o O o O X X X ",
"B c E.8X6.R.[./.].~.R 0 $ o X * 7 7 3 3 3 5 3 6 6 # . 4 B { 5.6.I.F.3.A.3.%.Z > # + * 1 & X             . + # $ : * * # $ : & 2 ",
"r b E.fX6.~.[.+X].~.} C a 3 u | =.*.*.$.4.%.' B.N.w 4 w Z $.3.I.t.5.` ) H.%.G w 3 3 F #.w $ + @ X + + O O + w G @.R I Q W @.-.@.",
"c b E.0X' T.oX+X].I.} R i d s 5.~.a.~.).U.Y.Q.&X|.e 6 e U _ E.E.,.#.L S M.;.R s d d ,.6.H w 4 1 5 4 @ 1 3 0 C -.5.&.^ 5.5.S.Y.:.",
"c c N..X' T.+X[.[.~.$.{ V r H G.R.R.I.i.i.6.R.Q.L.J w c Z ) M.J.Z.M.L L K ,.H s i B 6.G.3.} $._ _ H m N E W _ >.=.&.^ #.,.#.:.3.",
"c c 6.T.%.R.}.|.].~.} / H ( _ =.} 1.-.2._ %.;.;.%.` H c V _ A.` M.L.A.` N.;.G e E #.-.>.-.%.;.' ` G s u k R ^ E P Y A } &.H _ _ ",
"r i E.7X1.~.{.}.].i.} / / N.3.1.w.=.1.<.5.2.2.S.A.S._ G V K K.A.) A.K.V.P.` Z I | W | 7.2.3.' A.:.G p d E H #.@.P P W &.=.=.;.;.",
"f f /.fX<._.<X,X-Xs.| G _ C.R.7.t.t.y.5.>.3.J.D.E.N.3.@.F ( S.I.K ` K.~.I.$.[ =.8...9.7.G.D.D.S.7.( H -.5.>.:.#.G Y 9.9.^ W >.,.",
"f C _.eX7._.,X1X>X`.*.<.!.]./.d.i.I.G.y.5.J.E.Q.Q.K.H.5._ E 6.I.^ L ) E X.Y W 9.! &.F.R.t.y.P.P.J.) #.q.G.F.A.H ..~ o.W h.W #.@.",
"f f ~.rXu.`.,X,X,X_.,X<X%XXX{./.U.U.(.'.^.^.].!.|.|.K.H.Q.A.3.J.` L _ *.! ..e.X.Y =.'.].w.I.!. XA.` Q.^.T.H.H.I...! ~ O.} o.9.&.",
"f C _.rXu.s.>X,X,XqXeXrXtX7X+X<X3X1X1X<X#X3X$X$X$X$X$X$X+X[.>.5.J.L ` U.e.(.;Xk.k.:X<XoX3XoX+X;X-XoXoXoX+XoX#X:Xe.g.O.h.e.r.k.e.",
"a f ~.rX<.{.qX,X,X,X,X>X{.R.H.~.i.y.y.I.S.H.'.!.u.G.7.6.J.Y.=.^ L Z.D.T.i.p.I.y.>.Z.Y.W.H.D.A.W -.6.,.F.E.H.H.F.j.0.0.9.p.8.8.8.",
"a f s.rXs.,XqX>X>X{.,X,X{.`.6.s.p.p.a.e.>.4.H.].8.S.S.S.L.L.F.:.L M.K.T.F.Y.Y.I.5.F.Y.Q.A.H.S.4.Z.F.3.J.K.J.A.q.~ 9.y.q.y.Z.Z.q.",
"a j d.rX_._.;X,X_.;X_.s.1X,X(.e.X.~ ~ ~ ! } ~.s.W H.T.H.Q.Q.K.J.W.!.W.H.H.Y.G.F.4.S.J.N.C.V.6.i.A.J.S.A.J.S.3.t.I 8.q.p.y.).U.^.",
"a a s.<X[ 1.1.| _._.s.s.,X{.s.9.O.W 8.O.0.q.G.i.E D.Q./.W.W.D.D.K.W.L.Q.Y.I.Y.p.Y.L.E.C.*XB.0.8.y.t.>.H.F.>.6.6.q.q.5.F.S.'.L.5.",
"f a u.qX7.y y 1._.s.s.{.{./.^.p.;Xp.I.i.y.F.E.R.$.K.!.!.T.D.B.%.K ,.( D.Q.G.p.9.I.'.Q.|.*X' ~ ..o.8.>.H.6.,.6.y.q.Z.y.y.5.H ;.G ",
"f f r.qXs.| | `.{.1X{.-X{.`./.i.U.p.F.Y.F.L.|.T.>.K.E.T.H.K.S.J.e 5 ` !.H.L.G.9.I.L.L.W.*XD.*.*.9.9.6.S.F.F.S.2.>.>.Z.Y.F./ 3 8 ",
"f f s.qXeXrXrXrXeXrXrXrXrX3X+X<X-X:XoXoX[.XX@X#XXX@X%X%X@X%X%XOXA.` |.%XoX+XoXoX+X#X@X=X0X0X%XoX+XoXOX@X&X@X@X/.U.].XX'.oXY.H :.",
"f f s.qXrXrXrXrXeXrXrXrXrXeX+X<X[.].#X@X@X]. X&XW.|..X0X%X%X%X@X@X$X$X$XoX@X$XXX.X@X@X.X0X.X&XoXXXOXOX%X0X.X#X].'.'.Q.].oXQ.H.!.",
"a a s T T U ] [ ] [ [ [ ] U Z Z Z M V S N c S J J H ( / F J S n V S G J V S Z G G G H ) L F Z F S D V D H S D N M Z N Z N M V v ",
"a q % % % # # o o O o o # O O X # X # o + X + @ + $ $ @ @ + + X + o + + + + + X o $ % + % + + + $ $ $ $ $ $ $ $ $ $ * $ $ o # $ ",
"0 q : = 3 2 4 2 4 = 1 2 & = * + * $ $ 1 $ % # + $ $ $ $ $ $ % + + $ < # $ $ + $ $ $ $ $ 4 < 1 < < $ & $ 1 * 1 < $ $ $ $ < 1 1 $ ",
"                                                                                                                                "
};
