/* XPM */
static char *result[] = {
/* columns rows colors chars-per-pixel */
"64 64 251 2 ",
"   c #464646",
".  c #494949",
"X  c #4B4B4B",
"o  c #4C4C4C",
"O  c #4E4E4E",
"+  c #434343",
"@  c #414141",
"#  c #414140",
"$  c #3C3C3C",
"%  c #393939",
"&  c #373737",
"*  c #343434",
"=  c #323232",
"-  c gray19",
";  c #2D2D2D",
":  c #2A2A2A",
">  c #282828",
",  c #272727",
"<  c gray14",
"1  c #222222",
"2  c gray13",
"3  c #1E1E1E",
"4  c gray11",
"5  c gray10",
"6  c #191919",
"7  c gray9",
"8  c #131313",
"9  c gray7",
"0  c #101010",
"q  c #0E0E0E",
"w  c #0B0B0B",
"e  c gray3",
"r  c #060606",
"t  c gray1",
"y  c #3F3F3F",
"u  c gray18",
"i  c #0C0C0C",
"p  c #0E0C0C",
"a  c #4C4B4B",
"s  c #343232",
"d  c #4E4945",
"f  c #5C5043",
"g  c #6D573D",
"h  c #836037",
"j  c #A17036",
"k  c #B77933",
"l  c #CC8128",
"z  c #E38C24",
"x  c #C37D28",
"c  c #9A6C34",
"v  c #675137",
"b  c #554837",
"n  c #413D3B",
"m  c #49453F",
"M  c #E5912D",
"N  c #F39524",
"B  c #FC9926",
"V  c #FF9B24",
"C  c #FF9C27",
"Z  c #FF9B26",
"A  c #96662E",
"S  c #795B34",
"D  c #5F4B33",
"F  c #3D3933",
"G  c #2E4E1C",
"H  c #3C7B18",
"J  c #3C8613",
"K  c #46AD0C",
"L  c #377C13",
"P  c #3D920F",
"I  c #46B909",
"U  c #49C306",
"Y  c #3DA008",
"T  c #30710C",
"R  c #1B3010",
"E  c #36641C",
"W  c #46A713",
"Q  c #49B70F",
"!  c #53DA0A",
"~  c #57EA08",
"^  c #4DC80B",
"/  c #50D706",
"(  c #1E410C",
")  c #120F0F",
"_  c #F9961F",
"`  c #FD9A24",
"'  c #FC9A28",
"]  c #FF9C28",
"[  c #FF9D2A",
"{  c #FF9E2B",
"}  c #FC9823",
"|  c #FD981F",
" . c #98611F",
".. c #2C411F",
"X. c #2C4C1A",
"o. c #2A4919",
"O. c #284917",
"+. c #2E6410",
"@. c #274913",
"#. c #213F0F",
"$. c #A26928",
"%. c #FF9E2C",
"&. c #FF9F2E",
"*. c #FF9A23",
"=. c #FF981E",
"-. c #393430",
";. c #439517",
":. c #54D30F",
">. c #5FF60C",
",. c #51D20C",
"<. c #50D20A",
"1. c #4DCF06",
"2. c #34790C",
"3. c #1A1918",
"4. c #171513",
"5. c #4E4134",
"6. c #FFA02E",
"7. c #FFA030",
"8. c #FF991F",
"9. c #463D33",
"0. c #50C312",
"q. c #41A50C",
"w. c #40A10B",
"e. c #30501F",
"r. c #397916",
"t. c #45A312",
"y. c #347612",
"u. c #28550F",
"i. c #FD9B27",
"p. c #F99B2C",
"a. c #E69330",
"s. c #FC9E30",
"d. c #FFA132",
"f. c #F6992B",
"g. c #437626",
"h. c #4EA31F",
"j. c #3F7F1C",
"k. c #499221",
"l. c #50AF1B",
"z. c #41AD06",
"x. c #2E6E0C",
"c. c #DE8F30",
"v. c #FD9D2C",
"b. c #AE722E",
"n. c #61E319",
"m. c #59D316",
"M. c #4BA817",
"N. c #59DE13",
"B. c #5DEC0E",
"V. c #50CD0F",
"C. c #24550A",
"Z. c #1D1C1A",
"A. c #1A1A19",
"S. c #D78B30",
"D. c #FD9D2B",
"F. c #FB9824",
"G. c #33432B",
"H. c #395728",
"J. c #345524",
"K. c #131F0C",
"L. c #5BD319",
"P. c #55D312",
"I. c #2E4522",
"U. c #378E08",
"Y. c #FA9A2A",
"T. c #C78330",
"R. c #FC9D2E",
"E. c #B8772B",
"W. c #D78524",
"Q. c #FC961B",
"!. c #4C3C2A",
"~. c #3B731B",
"^. c #2E7708",
"/. c #FC9924",
"(. c #F2901B",
"). c #FF971B",
"_. c #FC951A",
"`. c #775328",
"'. c #3D6D24",
"]. c #4DAF17",
"[. c #4CA51A",
"{. c #FF961A",
"}. c #2B3424",
"|. c #E3881D",
" X c #FF9518",
".X c #FB9318",
"XX c #FF9517",
"oX c #6E4E28",
"OX c #FB9113",
"+X c #86551A",
"@X c #2D2A28",
"#X c #34302E",
"$X c #F88F13",
"%X c #5C4124",
"&X c #77501F",
"*X c #53D30E",
"=X c #2E491C",
"-X c #244513",
";X c #A76618",
":X c #FB9010",
">X c #BE7118",
",X c #3D3428",
"<X c #FF9313",
"1X c #342C23",
"2X c #995D17",
"3X c #232C1D",
"4X c #0F170C",
"5X c #3D950C",
"6X c #FB8F0F",
"7X c #FF910F",
"8X c #2E2822",
"9X c #FD8E0B",
"0X c #FF900C",
"qX c #CD750C",
"wX c #FD8F0C",
"eX c #26241F",
"rX c #FF8F0B",
"tX c #23231E",
"yX c #FF8E09",
"uX c #FB8D0A",
"iX c #2A261F",
"pX c #B9690C",
"aX c #FF8D06",
"sX c #F88A0A",
"dX c #613F17",
"fX c #281F18",
"gX c #F38708",
"hX c #593913",
"jX c #F38809",
"kX c #FB8A05",
"lX c #FF8C03",
"zX c #E88109",
"xX c #8B500E",
"cX c #FB8901",
"vX c #FF8B03",
"bX c #FF8A01",
"nX c #1D1A18",
"mX c #FD8B05",
"MX c #181615",
"NX c #462D0F",
"BX c #834D0B",
"VX c #E07B03",
"CX c #FD8901",
"ZX c #FD8A01",
"AX c #1C1810",
"SX c #0C0C0B",
"DX c #F38503",
"FX c #0F0E0B",
"GX c #0F0E0C",
"HX c #010101",
"JX c white",
/* pixels */
"  .   . . . . X X X o o o O O O O O O O O o o X X .     + + @ # $ % % & * = - - ; : > , < 1 1 2 3 4 5 5 6 7 8 9 0 q w e r r t t ",
"      . . . . . . . X O o o O O O O O O O o X . . . .   @ # # y $ $ % & * = = u ; : > , < < 1 2 3 4 5 5 6 7 8 9 0 q i e e r t t ",
"+ +           . . . . . o o O O O O o o o o X . . .   + @ # y $ $ % & * * = - - u : > , < 1 1 2 3 3 4 5 6 7 8 9 0 q p w e r t t ",
"+ + + + +           . . X X . X X X . a o X . . .     + # y $ $ % % * * = = - u ; ; > , < 1 1 2 3 3 4 5 6 7 8 8 0 q p w w r r t ",
"+ + + + + + + + +   +   . . . . . . . . . .       + + @ # y $ % & & * s = - - u ; : > , < < 1 2 3 3 4 5 6 7 8 8 0 0 q i w r r t ",
"# @ @ @ + @ # @ @ + +     d f g h j k l z z x k c h v b n n % % & * s s = - u ; ; : > > < 1 2 2 3 3 3 4 6 6 7 8 9 0 q i w e r t ",
"# # # # # # # # # @ @ + + +   . . . .         + + # y $ y $ % % & * = = - - u : : : > , , 1 2 2 3 3 3 4 5 6 7 8 9 0 q p w e r r ",
"y y y y y y y y # m v h c x M N B V V C C C V Z V B N z x A S D F * = - - - ; ; > : > , < G H J K J L P L I U Y T R q p w w e r ",
"$ $ y y $ $ $ y y # # # @ + + + + + + + + + @ # # # y $ $ % & * & = = - - - ; : : : > > , E W Q ! K K ~ K U ^ / Y ( ) p i w e r ",
"$ $ $ $ $ $ $ m A z _ ` ' ] [ [ [ { { [ [ [ ] ] ] ] C Z V } | _ z  .F - - u ; : : : > , , 1 1 2 3 3 3 4 4 4 7 7 8 9 0 q i w e r ",
"% % $ $ $ $ $ $ y y @ # # + + + + + + + + + + # # # y y $ % % % * = s = - - ; : : : : > , ..G G X.X.X.o.o.O.+.@.#.R 0 q i w e r ",
"% % % $ % $ n $.} V C ] [ { %.%.%.&.&.&.&.%.%.%.{ [ ] ] Z Z *.*.=._ $.-.- - u : : : > > , ;.:.~ >.,.,.<.<.<.~ / 1.2.0 q i w e r ",
"% % % % % % $ $ y # # # # @ @ + + + + + + @ @ @ # # y y $ $ % % & * * = = - u ; ; : > > , , 1 1 2 3 3 3 4 4 4 3.4.8 0 q p w e r ",
"& % $ % % % 5.x Z Z [ [ %.%.&.6.6.7.7.7.7.6.&.&.%.%.{ { [ C V V *.8.x 9.= - u ; ; : > > > E W W W Q Q 0.^ K q.w.w.2.9 q p w e r ",
"% % % % % $ $ $ y # # # @ + + + + + + +   + + + # # # # y $ % % % & s * * = - u ; : > : , e.H H r.t.t.Q ^ J y.y.T u.9 q p w e r ",
"% % % % % $ 5.x i.] [ p.M a.s.7.7.7.7.d.d.7.7.&.&.&.{ p.M M f.V *.| x 9.* = - u ; ; : > , , < 1 1 1 3 3 3 4 5 6 7 4.9 q p w e r ",
"& % % % % $ $ y y # # @ @ + + + + + + +   + + + + @ # # y $ $ % % % * * = = - g.h.j.k.l.j.j.j.;.;.;.J r.r.L P J T z.T x.( w w e ",
"& % % $ % $ b l Z [ f.k S c c.d.7.7.d.7.6.7.6.&.&.{ v.c.A S b.N *.8.l 9.= - - k.n.l.l.m.M.M.M.N.B.B.V.t.t.Q ~ ! w.U q.Y C.w w e ",
"& & % $ % % $ $ y y y @ @ + + +     + + + + + + @ @ # y y $ % % % & * * = - - u ; ; : > , , , < 2 2 2 3 3 Z.A.5 7 8 9 0 q w w e ",
"& % % $ % $ b l Z ] p.k g h S.s.7.7.7.7.7.7.7.6.&.%.D.S.h v b.F.*.=.l 5.= - - G.H.H.J.J.J.> , < 1 2 2 3 4 4 5 5 7 R #.( K.w w e ",
"& % % $ % $ $ $ $ y @ # @ + + + + + + + + + + @ @ # # y $ % % % % & * * = - - g.L.L.L.m.P.I.< < 1 2 2 2 3 4 5 5 7 U.1.1.C.w w e ",
"& % % % $ $ b l *.C Y.k g S T.R.7.6.6.6.&.6.6.&.%.{ D.T.S v E.F.8.=.l 9.= - - u ; : > , , < < < 1 2 2 3 4 4 4 5 6 8 9 0 p w w e ",
"& % % % $ $ $ $ $ $ $ y # @ @ @ + + @ @ @ @ @ # # y $ $ % % % % & & * = - - - k.L.L.N.B.B.P.P.N.0.2 3 3 4 4 4 5 7 u.T x.C.w w e ",
"& % % % % $ b W.*.V C k v v k p.%.&.&.&.%.&.%.[ [ ] Y.E.v D E.| 8.Q.W.!.- u ; G.J.J.~.;.j.e.e.;.G 2 3 3 3 4 4 5 7 x.Y Y ^.w w e ",
"% % % % % $ $ % % $ $ n $ y y # # # # # # # # y y $ $ % % % & & * s - - - u ; ; : > , , < < < 1 1 2 2 3 4 4 4 6 7 8 9 0 p w w e ",
"& % % % % % D N 8.V /.l D n b S.[ { { { { [ ] C C Z N v 9.S (.=.).)._.`.- ; ; '.N.N.B.].M.W W E 2 2 2 3 4 4 4 5 6 u.Y Y ^.w w e ",
"& % % % % % % & % % % % $ $ $ $ $ # # y $ $ $ $ $ % % % % & * s = = - u u ; ; H.[.k.;.j.H H H e.2 2 3 3 4 4 4 5 6 #.T x.C.w w e ",
"& & % & % % S Q.=.8.` W.D $ m z C ] ] C C Z Z Z V V F.D % `.(.).).{.{. .; ; : > , , , < < 1 1 1 2 2 3 3 4 4 4 5 6 8 9 ) q w w e ",
"% & % % % % % % % % % & & % % % % % % % % % % % % % % * & * = = = = - u ; : > }.J.e.e.e.G G }.2 2 2 3 3 4 4 4 5 6 #.Y Y U.i w e ",
"% & & & & % `.(.).=.=.E.9.F S N *.*.V V V *.*.*.*.*.8.$.9.5.|.).{. X.X`.; : > J.m.P.P.P.:.:.E 1 2 2 3 3 3 4 4 5 6 R T x.x.w w e ",
"& & & & * & & & * & & & & * * % % % % % % % % % & & & * * = = = - - u ; ; > > , , < , 1 1 1 1 1 2 3 3 3 4 4 4 5 6 7 8 0 q i w e ",
"& & & * * * * `.{.{.).W.D 9.E.8.8.8.8.=.8.8.8.8.=.=.).|.5.D |.{. XXX`.: : > , , G e.e.G ..1 1 1 2 3 3 3 4 4 4 5 6 #.Y Y ^.i w e ",
"& & & * * s = = s s = * * * * * & * * * * * * * * * s = = - - - u u : : > , , , 0.P.:.:.t.1 1 2 2 3 3 3 4 3 4 5 6 R T x.C.i w e ",
"& & & * * = s  ..X.X(.(.`.5.|.).).=.=.=.=.=.=.=.=.).)._.oX`.(.(.OXOX+X@X> , , < < 1 1 1 1 1 2 2 3 2 3 3 3 4 4 5 7 8 8 0 q i w e ",
"* & * * * s - - = - - - - #X= = = = s * s s = = = = = - - - u ; : : : > , , < < < 1 1 1 1 2 2 3 3 3 3 3 3 4 4 5 6 7 8 0 q i w e ",
"* * s * s = #X`.$XOX$.!.#X%X(.{.{.{.{.{.{.{.{.{.{.{. X{.+X#X!. .OX$X&X> , < < < 0.:.*X:.:.*X*X*X,.,.,.,.,.<.<.<.<.<.1.1.1.I w e ",
"* * = = = = - u ; ; u u u ; ; - - - - - - - - - - u u ; ; ; : : : > , , , < 1 1 =XG G G G G X.X.X.X.X.X.o.o.O.O.@.-X#.( ( ( w e ",
"* s = - - = - -.;X:X>X,Xu oX$XXXXXXX XXX|.|.XXXXXXXXXX<X .: ,X>X:X;X1X< < 1 1 1 2 2 2 2 2 2 2 2 3 3 3 3 3 4 4 5 6 7 8 0 q i w e ",
"s s = - - ; u ; ; : > > : : : ; ; ; ; ; ; ; ; ; : : : : > > > > , < < < 1 1 1 1 2 1 1 1 2 2 2 3 3 2 3 3 4 4 4 5 6 7 8 0 q p w e ",
"= = = - u ; : : ,X+X .,X@X&XOX<X<X<X<X<X;X;X<X<X<X<X<X<X;X@X,X2X+X1X< < < 1 2 2 2 ~.H J ;.r.3XG 3 3 3 3 4 4 4 5 6 7 x.x.x.4Xw e ",
"= - - - ; : > > > > , > > , , > > > > > : : : : > > > > , , , , < < < 1 1 1 2 2 2 ;.W *X~ t.3XL 2 3 3 3 4 4 4 5 6 7 5Xw.Y 4Xw e ",
"- - u ; ; : > , , , < , 1X2X6X7X7X7X<X$X%X%X$X7X7X7X7X6X2X1X, , < < 1 1 1 2 1 1 1 2 2 2 3 2 2 2 2 2 3 3 4 4 4 5 5 6 8 0 q q w e ",
"- - u ; : : > , < < < < < < < , , , , , , , , , , < < , , , < < 1 1 1 1 2 1 2 2 2 2 2 3 3 3 3 3 2 3 3 3 4 4 5 5 6 7 8 9 q i w e ",
"- u ; ; : > > , < < < 1 8X2X9X0X0X0X0XqX1X1XqX0X0X0X0XwX2X8X< 1 1 1 1 1 1 2 2 3 2 2 2 3 2 3 3 2 3 3 3 3 4 4 5 5 6 7 8 8 q i w e ",
"; u ; : : > , < < < < 1 1 1 1 1 < < < < < < < < < , < < < 1 1 1 1 1 1 1 1 1 2 2 2 2 3 2 2 2 2 3 3 3 3 3 3 4 5 5 5 7 8 9 q i w e ",
"; ; ; : > > , < 1 1 1 1 eX+X9XrX0X0X0XqX1X1XqX7XrX0X0XrX+X< 1 1 1 1 1 1 1 2 2 2 2 3 3 2 2 3 3 3 3 3 3 3 4 4 5 5 6 6 8 0 q p w e ",
"; ; : > > , < < 1 2 2 2 2 2 2 1 1 1 < 1 1 1 < 1 < 1 < 1 1 1 < 1 1 1 1 1 2 2 3 2 3 3 3 2 2 3 3 3 3 3 3 3 3 4 5 5 6 7 8 0 q p w e ",
"; : : > , , < 1 1 2 2 3 tX2XyXyXyXrXuX+XiXiX+XuXrXrXrXrX2XiX1 1 1 1 2 2 2 2 2 2 2 3 3 3 3 2 3 3 3 3 3 3 4 4 5 5 6 7 8 0 q p w e ",
": > > , , < < 1 1 2 3 2 3 3 3 2 2 2 2 2 2 2 1 1 1 1 1 1 1 1 1 2 2 2 2 2 2 2 2 2 3 3 3 3 3 3 3 3 3 3 4 4 4 4 5 6 6 7 8 0 q p w e ",
"> > , , < < 1 1 2 3 3 3 1XpXaXaXaXaXsXdXeXeXdXuXyXrXyXyXpX1X2 2 2 2 2 2 2 2 2 3 3 3 3 3 3 3 3 3 3 3 4 4 4 5 5 6 6 7 8 0 q i w e ",
"> , , < 1 1 2 2 2 3 3 4 4 3 3 3 3 3 3 2 2 2 2 2 2 2 2 2 2 2 2 2 2 2 2 2 2 2 3 3 3 3 3 3 3 3 3 4 3 3 4 4 4 5 5 6 7 7 8 0 q i w e ",
", , < 1 1 2 2 3 3 3 3 3 fX;XaXaXaXaXgXhXtX2 hXjXyXaXaXaX;X8X3 2 2 2 2 2 3 3 3 3 3 3 3 3 4 4 4 4 4 4 4 4 5 5 5 6 7 8 9 0 p i w e ",
"< < 1 1 2 2 3 3 4 4 4 4 4 A.4 4 4 4 4 4 4 3 3 4 3 3 3 3 3 3 3 3 3 3 3 4 4 4 4 4 4 4 4 4 4 4 4 4 4 4 4 5 5 5 6 7 7 8 0 0 p w w e ",
"1 1 2 2 3 3 3 4 4 5 5 5 Z.hXkXlXlXlXzXdX3 3 dXzXaXaXaXkXdX3 3 4 4 4 4 4 4 4 4 4 4 4 4 4 4 4 4 4 4 5 5 5 5 5 6 7 8 8 0 q p w w r ",
"2 2 3 3 3 4 4 4 5 5 6 6 6 6 6 5 5 5 5 5 Z.4 4 4 4 4 4 4 5 4 4 4 4 5 4 4 4 4 4 4 4 4 5 5 5 5 5 5 5 5 5 5 6 6 7 8 8 9 0 q i w e r ",
"3 3 4 4 5 5 5 6 6 6 6 3.fXxXcXvXvXbXqXhXnXnXdXqXmXlXlXkXxXfXA.6 5 6 5 5 5 5 5 5 x.y.P P J y.y.y.I ! ~ J 2.K I T T q.U U.( w e r ",
"4 5 5 5 6 6 6 7 7 7 8 7 7 7 7 7 7 7 7 7 MX7 7 7 7 6 6 7 7 7 6 6 6 6 6 6 6 6 6 6 5XK ~ ~ ^ q.q.q.K I w.w.q.1.U Y Y I U z.C.e r r ",
"6 6 6 7 7 7 7 8 8 8 4.NXBXVXCXbXvXZXpXNXAXAXNXpXZXvXvXZXVXBXNXMX8 7 7 7 7 7 7 7 7 7 7 7 7 7 8 7 8 8 8 8 8 8 0 0 q q SXw e e r r ",
"7 7 7 8 8 8 8 8 8 9 9 0 0 0 0 0 9 9 9 9 9 9 9 9 9 8 8 8 8 9 8 8 8 8 8 8 8 8 8 8 8 8 8 8 8 8 8 8 8 9 9 9 0 0 q q q p w e e r r t ",
"8 8 8 8 9 0 0 0 0 0 ) NXVXCXbXbXDXqXhXAX) ) AXhXqXDXvXvXcXVXNX0 0 0 0 0 0 0 0 0 0 0 0 0 0 0 0 0 0 0 0 0 q q q p w w e e r r t t ",
"9 0 0 0 0 q q q q q q i i p p p p SXSXSXp p p SXq q q q q q q q q q q q q q q q q q q q q q q q q q q p p p i w w e e r r t t t ",
"q q q q p p i i w i i i SXp FXSXSXSXSXSXSXSXSXSXSXp SXFXGXp i i i p i i i i i i i i i i i i i i i i i i w w w e e e r r t t t HX",
"p p i i w w w w w e w w w w w w w w w w w w w w w w w w w w w w w w w w w w w w w w w w w w w w w w e e e e e e r r t t t t HXHX",
"w w w w w e e e e e e r e e e e e e e e e e e r e e e e e r e e e e e e e e e e e e e e e e e e e e e e e r r r r t t t t HXHXHX"
};
