/* XPM */
static char *result[] = {
/* columns rows colors chars-per-pixel */
"64 64 239 2 ",
"   c #020201",
".  c #020800",
"X  c #0A0A03",
"o  c #0C0C09",
"O  c #090501",
"+  c #110D01",
"@  c #130E0B",
"#  c #180F0D",
"$  c #0F130A",
"%  c #14150C",
"&  c #1A140D",
"*  c #14190C",
"=  c #18190E",
"-  c #171203",
";  c #1B1B13",
":  c #1A1B19",
">  c #1B1613",
",  c #211A0F",
"<  c #251B04",
"1  c #221B12",
"2  c #221A19",
"3  c #281A11",
"4  c #1A220F",
"5  c #17210D",
"6  c #1A2114",
"7  c #1B2119",
"8  c #26220B",
"9  c #3C2C01",
"0  c #342703",
"q  c #3C3008",
"w  c #222214",
"e  c #23221A",
"r  c #29231A",
"t  c #232919",
"y  c #2A291A",
"u  c #222916",
"i  c #31231B",
"p  c #322A1B",
"a  c #3A2D19",
"s  c #30311E",
"d  c #242221",
"f  c #2B2422",
"g  c #2A2922",
"h  c #2C2928",
"j  c #312421",
"k  c #312923",
"l  c #312A28",
"z  c #392D28",
"x  c #392923",
"c  c #2B3122",
"v  c #323123",
"b  c #3C3224",
"n  c #313B22",
"m  c #323229",
"M  c #3A322A",
"N  c #343B2A",
"B  c #3C3B2B",
"V  c #3F3B25",
"C  c #313030",
"Z  c #3B3430",
"A  c #3B3A31",
"S  c #3C3C39",
"D  c #353A30",
"F  c #443201",
"G  c #4D3A04",
"H  c #4C3608",
"J  c #493707",
"K  c #543D08",
"L  c #543F05",
"P  c #413329",
"I  c #443C2C",
"U  c #453727",
"Y  c #413531",
"T  c #423C32",
"R  c #4A3D32",
"E  c #413C39",
"W  c #493D39",
"Q  c #39412D",
"!  c #374128",
"~  c #3B4132",
"^  c #3C4139",
"/  c #5C4508",
"(  c #574207",
")  c #614908",
"_  c #6A5308",
"`  c #46432C",
"'  c #53492B",
"]  c #57442E",
"[  c #424132",
"{  c #4B4434",
"}  c #43423A",
"|  c #4A433B",
" . c #42493A",
".. c #4B4A3B",
"X. c #474B32",
"o. c #524334",
"O. c #524C34",
"+. c #5C4935",
"@. c #52443B",
"#. c #544C3C",
"$. c #5B4736",
"%. c #565036",
"&. c #55523B",
"*. c #5B523A",
"=. c #5A593F",
"-. c #48523C",
";. c #63533A",
":. c #454441",
">. c #494441",
",. c #464941",
"<. c #4B4A43",
"1. c #4C4A49",
"2. c #524B43",
"3. c #534D4A",
"4. c #594C42",
"5. c #4C5343",
"6. c #4B5149",
"7. c #545243",
"8. c #5A5343",
"9. c #53534B",
"0. c #59534B",
"q. c #53594B",
"w. c #5A5A4B",
"e. c #585A46",
"r. c #545251",
"t. c #595351",
"y. c #555951",
"u. c #5A5A52",
"i. c #5A5B59",
"p. c #62554A",
"a. c #625A4B",
"s. c #6A5E4D",
"d. c #645746",
"f. c #735E4F",
"g. c #625552",
"h. c #625A52",
"j. c #6A5E53",
"k. c #625A59",
"l. c #705F58",
"z. c #5A624C",
"x. c #57634C",
"c. c #5A6252",
"v. c #596059",
"b. c #5B6454",
"n. c #62624C",
"m. c #6A634C",
"M. c #6A684E",
"N. c #75644C",
"B. c #626254",
"V. c #6B6455",
"C. c #626A54",
"Z. c #6B6A53",
"A. c #63635A",
"S. c #6A6359",
"D. c #626A5A",
"F. c #6B6A5A",
"G. c #716657",
"H. c #746B53",
"J. c #726B5B",
"K. c #7B6B5A",
"L. c #766756",
"P. c #6C745D",
"I. c #637259",
"U. c #73725A",
"Y. c #7A735C",
"T. c #7A795F",
"R. c #75775B",
"E. c #605F60",
"W. c #636261",
"Q. c #6A6362",
"!. c #6A6A62",
"~. c #666A64",
"^. c #726B63",
"/. c #756A67",
"(. c #6B7263",
"). c #6C7467",
"_. c #737364",
"`. c #7B7363",
"'. c #727C64",
"]. c #7B7A62",
"[. c #727269",
"{. c #7A736A",
"}. c #727A6A",
"|. c #7B7A6A",
" X c #7B7B71",
".X c #7D7372",
"XX c #83775D",
"oX c #806E5A",
"OX c #847363",
"+X c #847B64",
"@X c #81736A",
"#X c #837B6A",
"$X c #8B7C6A",
"%X c #8B7B61",
"&X c #837B72",
"*X c #857B79",
"=X c #877974",
"-X c #937A66",
";X c #7A826A",
":X c #7B8372",
">X c #83826A",
",X c #8C846C",
"<X c #8A8868",
"1X c #94856E",
"2X c #848272",
"3X c #8B8371",
"4X c #8C8B73",
"5X c #84837B",
"6X c #8B837B",
"7X c #8B8B7B",
"8X c #838A77",
"9X c #938C72",
"0X c #938C7A",
"qX c #968979",
"wX c #93937C",
"eX c #9B937B",
"rX c #979577",
"tX c #8E9077",
"yX c #8B8C82",
"uX c #8B8A87",
"iX c #928D85",
"pX c #939383",
"aX c #9C9483",
"sX c #9C9B83",
"dX c #92958B",
"fX c #9C9D8B",
"gX c #999788",
"hX c #9B9992",
"jX c #8D9383",
"kX c #A49B83",
"lX c #A59C8B",
"zX c #A79888",
"xX c #A59C92",
"cX c #ACA48C",
"vX c #A6A387",
"bX c #B2A98B",
"nX c #ACA491",
"mX c #A2A292",
"MX c #9EA191",
/* pixels */
"0.8.V.n.p.8.a.V.J.^.F.F.J.F.T.T.R.Y.XX1X9X9X9X<X,XXX<X+XT.].<X<XT.U.Z.Z.D.M.V.D.H.P.F.U.|.|._._.F.n.z.z.w.a.w.q.i.c.c.i.0.7.2.@.",
"a.j.Z.w.#.U.,X+XY.H.J._.^.U.U.Y.T.XXT.T.R.U.K.H.H.U.U.Y.T.XX<X<XrXrXrX<X>X>X#X+X`.T.|.#X>X].].;X;XP.;X(.'.'.'.(.'.:XjX`.{ T 9.8.",
"4.J.V.{ O.<XY.a.' T T T { } O.9.w.a.d.e.%.O.O.O.X.O.' O.' %.=.;.*.+.%.$.o.O.;.&.4.#.#.d.8.8.*.d.e.%.&....... . .7.A._.3X9.D &.w.",
"8.].G.B O.<XM.O.&.0.h._. X X_._.|.>X>XOX+XY.Y.oXK.Y.K.T.XXoX<XXX<XXX-XXX-X$XOX%X+X$XOX,X1X1X1X1X,X+X|.#X,X7X6X2.N B 7.pXB.c 0.g.",
"p.|.].v O.<XM.e.{ W  X5X_.S.k.S.j.S.F.G.j.j.j.l.m.V.s.j.j.G.G.J.K.G.j.G.S.l.G.^.l.L.G.K.K.L.K.L.K.L.G.Y..X0XpX(.g w { sXB.B w.B.",
"^.2X].b m.rXY.n.` A [.W.u.>.| ..| ..W { R R R R { $.#.#.O.#.{ ] ` @.$.{ $.@.W Y W #.W W T @.R { { { ..2.s.{.iXi.f % ..sXZ.A z.V.",
"^.4X{.R H.eXXXH.O.W {.9.<.9.!.3X4X4X=X$X$XXX`.oXXX+X,X1X9X9X9X1X,X3X=X$X#X@XY.`.@X^.s.G.Y.@XXX/.`.|._.A.w.A.pXA.M > 8.sXn.A a.F.",
"/.3X`.O.K.rXU.a.[ ^ |.-. .A.6XpXaXaXaXkXkXaXqXeXeX0XkXkXcXvXbXvXcXvXkXaXpXqXqXqXwXeX0X=X4XeXkXxXvXlXtX[.!.}.hXA.Z = 7.wX8.I n.J.",
"G.&XJ.' K.9Xm.z.[ [ }.^ Q I.iXdX0XiXkXkXzXbXzXzXzXvXvXcXbXbXbXbXbXbXcXmXaXkXgXsXaXlXaXiXrXaXlXcXlXfXgX;X^.|.dXv.M % #.wXw.I M.].",
"S.@XH.U oX9XM.e.[ B ;XX.Q b.yXwXdXwXaXzXzXbXzXxXbXnXbXcXnXcXbXcXbXcXcXcXcXmXlXnXnXcXlXcXlXzXlXlXlXsXmX7X(. XdXq.l = ..0X7.[ M.|.",
"s.`.K.a H.rXn.w.A A '. .^ A.5XyXwXiXpXgXlXzXxXxXxXnXmXvXnXcXcXcXcXlXcXnXcXlXfXvXvXvXkXvXkXzXlXkXsXpXmXjX!.}.dXq.x % -.7X7.{ P.U.",
"p.`.G.a ;.<Xm.d.[ B (.^ ~ A.:XyXuXuXdXuXxXhXhXgXgXfXfXsXfXMXfXlXlXlXvXlXfXlXfXvXlXkXkXkXeXeXzXaXpXdXhX8XD.).yX3.g * X.7X&.` z.C.",
"d.&XK.p ' $Xn.w.Q D '.^ ^ u.8X7XdXiXhXdXhXaXgXsXgXsXgXfXfXsXsXsXkXsXvXmXsXsXvXfXkXkXsXeXeXeXeXpXeXfXMX5XA.).uX9.g * X.4X2.V x.e.",
"s.=X`.U U K.d.7.B n (. .^ y.:XyXyXyXuXdXiXiXiXpX0XwXyXtXwXpXaXsXeXeXrXsXsXfXdXsXpXrXeXeXeXeX0XrXwXpXdX XS.).uX6.M *  .>X..B z.w.",
"h.|.J.U ' oXa.7.A N P. .S i.*X5X5XuXuXuXiXiXiXiXpX7XyX7X4X4X9X9XeXwXwXwXwXwXwXtX4X0X9X9XqXqX0XrXyX7XjX:Xv.!.yX6.A > [ ;X..[ B.b.",
"4._.F.a $.XXg.0.A D (.^ ~ u.*X7X5X6XyXiXiXiXqX6X6X6X2X2X2X2X3X4XrXwXwX4X4X4XtXtXwX0XrX9X3X3X,X9X4X7XjX|.A.Q.5X1.A * [ P...[ B.Z.",
"| ^.G.p ' OXj.e.A N (. .S r.&X5X=X6X6X6X6X6X6X*X3X*X6X|.2X&X>X>X3X4X4X4X3X4X4X4X4X3X3X3X,X,X,X$X:X2X7X XA.!.5X1.C # [ P.&.W d.w.",
"o.F.V.p ' XXg.0.N N (. .E y.|.6X6X&X*X6X6X*XiX*X=X X>X|.{.|.>X#X3X6X3X8X3X4X2X2X2X<X>X$X>X2X$X#X3X&X5X[.u.A.*X>.C > E '.7.M 8.8.",
"R h.Z.a +.OXp.e.A m (. .E t.[.=X6X X&X&X=X*X=X=X&X X{.{.[.|.|.#X2X#X2X|.2X6X8X;X>X>X>X#X=X>X#X3X>X|.6X[.u.A. XE C # } '.#.Y *.p.",
"I 0.B.a ' OXh.0.D N I.^ E t.[.{.|. X&X=X*X*X@X$X.X{./.).{._.|.|.|.2X#X#X X}.:X X;X#X2X>X$X>X#X+X@X.X*X[.u.S. XS m # } J.#.z | 4.",
"R 0.w.r U K.4.4.B c I. .E 0.^.{.{.=X*X.X$X@X.X.X{.[.[.!./.!.[.`.|. X|.{.}.|. X:X;X:X|.|.>X+X|.|.|.|.2X/.t.k..XE h @ T J.| M #.4.",
"{ w.w.y I `.&.2.Z c I. .E t.^.{.{.{.|.@X.X.X@X@X[.^.Q./.!._.[.[.!._.[.[.[.|.:X X|.:X}.|.`.|.`.`.{.{.=X^.t.k..XS l # E ^...z 4.d.",
"R e.e.y M V.e.3.D m D.X.} 0.^.{.{.[./..X@X@X{./.^.[.!.!.!.D.!.[.[.).!.(.).}.[.'.).}.'.[.].[.`.OX`.|.#X!.t.u.[.S m o T F.| M 4.0.",
"` p.9.r y B.8.7.B c I.X.^ 0.F.^.^.^././..X@X@X@X_.!.!.Q.Q.A.J.!.).!.!.!.~.!.).}._.'.[._._.^.`.^.U._.{.!.9.u.[.S l # M F.<.M 4.3.",
"R 9.O.1 e d.<...m c C.Q } 9.S.Q.^.!.Q.^./.{./././.!.D.D.Z.!.P.!.!.!.!.!.~.!.(.).}.[.(.!.!././.Y.^.^.`.A.t.u./.D l > M }. .m } | ",
"I 7.8.r t n.....c c C.~ E 0.Q.J.F.F.^.[.[._./.!.!.F.A.S.B.D.F.~.!.~.W.~.!.!.(.D.(.P.F.~.!.Q.S.F.L.J.^.S.0.u./.D C # M P.A c | <.",
"Y =.7.r r a.{ } v g C.Q [ 0.S.S.Q.E.Q./.Q./.Q.(.~.F.B.B.z.A.D.!.!.!.W.~.D.~.D.~.I.b.b.A.A.S.F.S.S.S.^.j.2.3.^.z h @ M D.n c | 9.",
"M | ..y y w.{ ..h g A.Q ^ 3.A.G.Q.l.S.W.A.Q.S.S.A.A.w.B.x.b.A.A.S.W.A.W.A.A.A.D.b.A.A.A.A.S.S.S.j.S.J.p.2.0.Q.l f # M b.n m 4...",
"M [ ` r y w.{ ..m y A.[ [ 3.A.S.Q.Q.Q.Q.Q.Q.F.Q.S.A.w.u.w.y.c.A.~.E.k.A.v.W.A.A.D.b.B.u.h.A.S.S.B.l.G.p.@.0.l.h h # b z.n h { ..",
"U [ { r 3 e...| m g A.^ } >.A.F.F.S.S.W.!.A.S.A.u.b.y.w.y.u.c.i.W.W.k.v.i.i.A.A.b.u.u.w.u.h.h.j.h.S.S.p.4.3.A.l j % y z.n v | <.",
"z [ ` , r w...| m g i.~ S <.y.A.v.S.W.A.A.A.A.h.n.w.w.q.0.q.y.h.i.v.i.k.h.A.k.C.b.u.u.u.h.h.h.k.k.S.S.g.W 0.l.l k # s B.n y E { ",
"P T I , j a...| h g A.N ^ ,.y.b.u.u.h.i.i.k.A.a.u.w.0.q.u.w.u.u.v.k.i.u.u.b.c.w.w.y.u.q.w.t.u.g.u.g.j.3.W @.k.g k # v C.n e m M ",
"b [ R r y &.T T c g i.D ^  .q.q.u.i.u.b.h.u.u.g.t.8.9.3.9.9.u.i.v.u.y.y.r.q.t.u.y.q.q.0.9.t.t.g.g.t.g.2.Y | h.l j # z e.t e k M ",
"a [ I , 3 #.[ S d y u.Q ^  .6.q.u.q.c.y.w.u.u.0.0.6.7.<.3.6.6.0.9.r.r.q.0.6.9.u.u.y.r.0.9.9.t.t.t.g.p.2.T | h.k f o y e.y e z I ",
"j T [ e h 9.R } h d u.~ Q  .q.q.x.q.q.x.w.0.q.3.6.2.1.,.:.<.6.3.1.r.r.0.0.9.w.q.y.q.7.6.3.9.0.t.t.t.3.E Z W g.g f # g c.B r z I ",
"i T E g y w.S } d d y.A ~  .5.q.q.5.q.9.9.9.6.9.<.<.| } | E ,.>.6.1.r.1.1.9.1.6.6.6.5.9.6.4.9.u.3.t.0.T z | h.f f @ z -.c f Y A ",
"i N I g g 9...^ d d u.D D ^ ,.5.6.9.5.q.2.<.:...>.E } [ } S | 1.1.1.>.2.4.9.q.3.q.1.1.<.1.3.3.1.3.9.1.E z E g.d e o g &.y w f f ",
"i k m 5 e ..[ B c 7 r.D m ^ 5.1.-.<.-.5.<...<.} } | } T } } E <.>.2.1.1.2.6.6.r.q.q.5.<...1.2.<.3.1.>.E M R t.d e $ e e.c = e f ",
"y m g * w  .A A d e r.A Z S  .:.5.<.,.5.:. .[ W } W E } A T S :.>.1.3.#.#.<.<.6.5. .,.<.<.1.3.3.3.>.<.E l A w.d d @ 6 w.c = g j ",
"i c c > 8 [ A m d : r.Z Z S <.1. .>. .,.} } | | | } E [ S E } } :.1.1.<.>...6.5.<.,.} ,.....<.1.1.3.<.Z l T t.d e @ 8 x.Q > f z ",
"3 h c * 5 Q N m e 7 t.z l ^ :.1.:.:.}  .} { E } } A E } E } } E :.<.:.,.>.| ..<...<.,.| E E | >.>.:.S A l Z 3.f d o u z.Q = e t ",
"r y y = 5 ` m m e e 3.m z } :.:.:.,.} } [ E I E } W E W E | } E E } :.1.W | >.,.,. .} E E >.>.>.:.} Z M f M <.: 7 $ 4 q.Q = f k ",
"r y 1 $ 5 Q c m 7 7 9.k z S :.:.1.} } E Q [ A [ W { | } | ^ | | :.1.:.<.@.5.<.<...>. .[ R >.3.>.<.} A E i M W 2 e @ 5 q.A % f h ",
"= y 8 $ * Q g y e : 3.j l S S } S } S T T A A B } E | >.| W >.:.:.:.>.} <.<.,.,.,.:.| } R W >.>.} E T Z i z | r e o 5 q.c o 2 j ",
"r e u + * ! t g e : 1.y j D ^ S S S A Z M B B M I E } | W  .} <.>.<.2.>...,.}  .} ,.| } { E >.>.S D Z z j z W r 7 $ 6 7.c % h z ",
"g t 8 $ 4 ` t y 7 > ..r k C D D B Z M N M M T T I B [ ` W [ ^ }  .} } ..} } ^ } } } } ~ I E E E A Z D M j P W e e o 4  .t = 2 d ",
"t r r X 4 ` y t 6 = <.r r c l C Z m C l z M M I T B T B T } } ^ } } S T } }  .^ ^ ^ E Z T E E E S z Z z j P ..e e o =  .e > r r ",
"; w 6 + = n w t 6 >  .r r l h m B A Z C Z Z T M I I Z T I T [ } S [ [ [ ~ [ S A D ^ E I I A Y A Z z z Z i P { , e o ; 6.t > r i ",
"> 7 8 o * n 5 u 6 ; <.r r l m m m N A z z Z T M P P W I I M Z Z D Y B Q Q ^ A N N A z m z I Z A Z M z m j P | ; e o 4 q.t 2 y x ",
"8 e e % 5 ! 4 u 5 6  .r 3 g l s l M m x x Z P b P P Y Y b z T Z A A B b B m v N N M Z V P Y Y P Z z z z j U @.1 w o 4 ^ c 7 r p ",
"y 7 7 $ 4 ` u t 6 e  .y r r g g y p k j k l l a b b z z v M M z Z N M p s c p v V m M b a M P z M z z j l @.2.: 7 $ 5 X.w % , 3 ",
"r e w @ 5 ! u 6 * : y.5.N M b v m M N V B B B I I B I P I N B B I N b V V V B B X.[ [ U V P R I Y I Y P | p.E : = o 5 X.; @ , 1 ",
"= ; ; o 6 ! 6 6 * o m r.B.V.m.m.m.V.M.M.H.G.K.K.L.H.Y.K.H.H.N.L.N.N.N.s.a.M.M.M.N.U.H.N.f.N.f.f.f.f.j.f.k.E : # * o * n = o & , ",
": = > o = B 5 6 * o o : m M M M M A A B M Z Y B T P I T T I T A T B T B ~ B B A M S P I B M b B Y M M m h > $ @ % X * ` = % - & ",
"% % * X w N 4 = = $ o . o . X X X . X X . X X X X X . X . X . X X X . O . X X X O X O X X X O O X X   X X o o o = o & { & + # , ",
"+ > > o w Q = = = $ o X o X o X o X X o o o + X o X X X X X X o X X o X X X X o X o o o X o o o o o o o o o o o = $ r #.: @ , & ",
"o o @   ; ..c t 7 e ; 2 t e = = = * * = $ = * * - = * * * = = 1 5 = & * & - = = , = & - & & # * # , # % o > 1 t t g o.#.; @ & , ",
"o $ o o o s #.{ e.4.+.;.+.$.+.R I I S [ ` ..+.+.;.;.*.*.*.&.%.#.%.+.$.O.*.*.%.*.&.=.=.%.{ o.o.@.W R $.o.{ ] R W { o.' b @ o # @ ",
"* o O o o o * ; : 2 3 3 3 2 2 ; > : : > , : t f y y y e = 6 e t s p r r e 2 6 1 ; 2 e e e : ; : 2 : : : d 2 2 e 7 ; ; o O @ # # ",
"% $ o X o o o O o @ # @ > @ # + o @ o o $ X X O X X o o X $ o o @ o X + X X X X o O o O X X O . O o X X X . X   o o X X o - + # ",
"K K K q o     O .   < F ( K / H + O o O   O @ 9 0 J F H - X o X O     - 9 G G F 9 +           < F H H F 0 @             0 _ ) _ ",
"9 _ K / G <           X 9 ( ) / ( 0           - G H 9 J H q O           X 0 F G K G <           < K K K H ( < X X     X   @ ( _ ",
"- L ) / ) / q +   O O     , H ) _ ) L X       O   < G F F H 0 -     O       8 9 F G G 9 +   O   O - F / ( K / 0 +         O   0 ",
"O O i K ) G K F -       O O X q K ) ) ( 9           X J K K 0 F 0 O           + H 9 F L / 0           0 ( K H G _ H . O     O   "
};
