/* XPM */
static char *result[] = {
/* columns rows colors chars-per-pixel */
"64 64 203 2 ",
"   c black",
".  c #080000",
"X  c #000800",
"o  c #080800",
"O  c #000008",
"+  c #080008",
"@  c #000908",
"#  c #0A0C0B",
"$  c #180F0E",
"%  c #0D180E",
"&  c #18180F",
"*  c #0F0E18",
"=  c #180F18",
"-  c #0E1818",
";  c #181818",
":  c #280800",
">  c #210F0F",
",  c #21180F",
"<  c #211818",
"1  c #281818",
"2  c #310C0C",
"3  c #082800",
"4  c #18210F",
"5  c #0F390F",
"6  c #0F2118",
"7  c #182118",
"8  c #182818",
"9  c #163716",
"0  c #212600",
"q  c #212118",
"w  c #282118",
"e  c #212818",
"r  c #302118",
"t  c #181821",
"y  c #211821",
"u  c #251825",
"i  c #0F2121",
"p  c #182121",
"a  c #182821",
"s  c #182128",
"d  c #182828",
"f  c #182130",
"g  c #0F3030",
"h  c #183939",
"j  c gray13",
"k  c #282121",
"l  c #212821",
"z  c #282821",
"x  c #212128",
"c  c #282128",
"v  c #212828",
"b  c #282828",
"n  c #302821",
"m  c #302828",
"M  c #302121",
"N  c #213028",
"B  c #283028",
"V  c #283021",
"C  c #303028",
"Z  c #212130",
"A  c #212830",
"S  c #282830",
"D  c #212839",
"F  c #282839",
"G  c #232136",
"H  c #302830",
"J  c #392735",
"K  c #283030",
"L  c #283039",
"P  c #243336",
"I  c gray19",
"U  c #303930",
"Y  c #393930",
"T  c #303039",
"R  c #303939",
"E  c #393939",
"W  c #393030",
"Q  c #410C0F",
"!  c #413921",
"~  c #413928",
"^  c #413939",
"/  c #5A180C",
"(  c #0F4118",
")  c #184118",
"_  c #184918",
"`  c #185118",
"'  c #185918",
"]  c #185121",
"[  c #234325",
"{  c #284139",
"}  c #304139",
"|  c #394139",
" . c #285539",
".. c #634100",
"X. c #414139",
"o. c #726A21",
"O. c #726A39",
"+. c #263941",
"@. c #303941",
"#. c #393941",
"$. c #393646",
"%. c #212841",
"&. c #413941",
"*. c #214941",
"=. c #304141",
"-. c #394141",
";. c #304941",
":. c #394941",
">. c #304149",
",. c #394149",
"<. c #394949",
"1. c #304949",
"2. c #394951",
"3. c #394454",
"4. c #285149",
"5. c #086363",
"6. c #414141",
"7. c #414941",
"8. c #494941",
"9. c #414149",
"0. c #414949",
"q. c #494949",
"w. c #494146",
"e. c #495149",
"r. c #435147",
"t. c #515146",
"y. c #414951",
"u. c #494951",
"i. c #444151",
"p. c #514951",
"a. c #415151",
"s. c #495151",
"d. c #495159",
"f. c #495954",
"g. c #515151",
"h. c #515959",
"j. c #555656",
"k. c #514949",
"l. c #635959",
"z. c #516359",
"x. c #596359",
"c. c #636359",
"v. c #495163",
"b. c #595163",
"n. c #595963",
"m. c #535965",
"M. c #635967",
"N. c #516363",
"B. c #596363",
"V. c #51636A",
"C. c #596A6A",
"Z. c #596767",
"A. c #596772",
"S. c #63636A",
"D. c #6A636A",
"F. c #6A6A6A",
"G. c #666764",
"H. c #726A6A",
"J. c #6A726A",
"K. c #72726A",
"L. c #636A72",
"P. c #6A6A72",
"I. c #636372",
"U. c #726A72",
"Y. c #6A7272",
"T. c #637272",
"R. c #727272",
"E. c #83080F",
"W. c #A11C1C",
"Q. c #A57200",
"!. c #B57B00",
"~. c #728372",
"^. c #6A8372",
"/. c #4DCE6F",
"(. c #51C659",
"). c #B5AD21",
"_. c #C6E70F",
"`. c #C6DE0F",
"'. c #686A83",
"]. c #6A7283",
"[. c #6A728C",
"{. c #727283",
"}. c #72728C",
"|. c #837285",
" X c #6A8384",
".X c #728383",
"XX c #72838C",
"oX c #728C83",
"OX c #729093",
"+X c #838383",
"@X c #83848C",
"#X c #8C8C93",
"$X c #838C93",
"%X c #859398",
"&X c #9C9393",
"*X c #8C9AA7",
"=X c #9399A8",
"-X c #97A7AB",
";X c #93A5B5",
":X c #A5ADBD",
">X c #ADB8BD",
",X c #B5BDBD",
"<X c #ADBDC6",
/* pixels */
"# # & a ; t ; t p ; ; ; $ - ; # % * t ; 7 t t y ; ; - ; $ = X # # O # o # # @ # o $ o # + # # # o # + o # o # # + + # # + + @ + ",
"K i.P..X'.D.A.l.V.j.D.d.u.s.0.< ,.L.@X].C.L.b.M.x.S.z.q.u.9.# p t t 7 t t 7 ; ; , W.w 8 j ; ; - 7 p t p # # # $ * # # # # # # # ",
"@.%X,X:X*XXXU.Y.U.|.Y.J.m.N.q.b $X>X>X*XXXR.Y.T.U..XD.n.N.q.* < p % # # % # % # % 2 % # % # % # % # j y # & k z < & 7 j e w 1 # ",
"@.-X<X;X=X@X].+XXX+X+XR.P.G.b.S -X>X-X*X@X]..X|..X+XJ.F.D.N.# ; j 7 6 p 8 ; 6 p ; # 7 8 O.v ; s y p p 7 * S ^ 6.K ; j V n b p # ",
"} $X*X%XOX@X].}.+X+X@X].J.C.z.b OX*X*X|..X].|.+X@X+X{.H.C.h.* ; t % # % # # # % # # % # / % # # # # j j @ b p.g.j X.6 S.b F.b # ",
"F '..XXX.X{..X~.|.+X@X{.F.M.s.B P. X}.[.{.XXR.XX+X+XR.F.G.q.% p l t a 5.6 7 < - ; - & q % ; 8 & t ; p p # S F.R.; p $ j q k 7 # ",
"C M.C.P.L.F.K.].@X+XR.R.n.N.q.d A.I.'.Y.T.{.+X@X+X~.K.n.N.w.# t 7 # % g @ # # # % # # # % # # % # # t ; # S +X+Xl ^ e n.v q.1 # ",
"L b.Z.I.F.L.P..XR.|.Y.G.g.g.9.w d.M.C.G.P.P.].K.+XU.M.u.p.6.* p t p - % & < q 8 p 7 e ; t 7 t ; e t j b + H &X&Xj ; ; z ; y < @ ",
"U s.s.V.I.D.T.U.R.Y.F.c.t.q.-.x u.v.z.S.S.R.P.~.F.G.F.e.7.#.* ; % * * # # * % % * * * # * # * # # # * s # b +X+Xl 6.z Z.C h.j # ",
"R i.9.s.P.I.P.U.Y.G.S.b.q.6.-.j 9.q.b.Z.P.Z.U.F.L.G.j.k.7.E # x # o + + + @ o + @ # # @ O # + @ # # * p # b G.F.q 7 & j 4 j < # ",
"B -.-.9.u.b.h.C.l.x.j.8.w.E U j } #.9.u.b.N.n.S.x.g.t.6.R T # y # + # + # @ @ o ' # # + @ # @ + o + # s # b u.p.p 6.j B.b q.q # ",
"L #.-.3.9.0.y.w.q.q.q.&.| X.U q $.#.<.9.<.y.q.q.s.y.6.-.| C # t # o # @ ' # o # ' % ' o + o + o # o * u # b ^ E ; E 4 Y ; E $ o ",
"b R K @.@.$.R -.&.9.6.6.6.E I ; K S R C T Y T E E R U E C b # l % @ _ % ` @ @ % ' # ' o @ # o # ` # # p # I E ^ T $ > u & 8 % # ",
"# ; ; p j 7 u j p 7 y ; ; ; ; - % ; s u 7 y ; p t j j ; ; ; # t # # ' % _ # o o ` % _ % _ # @ o _ @ * p # t v b t $ M W.n V ; + ",
"C q.].+X].Y.I.S.S.S.S.z.e.v.<.p q.R.XX}.Y.F.S.D.G.S.b.k.s.-.# p # # 9 # _ # @ # ) # _ # _ o # % ) % # t o * % # * $ z Q z g q # ",
"R %X,X:X=XXXP.P.L.R. XD.c.m.q.v $X,X:X=X@XT.].T.P.].S.G.G.<.# t @ # ( # ( o ( # ) # _ # ) # 9 @ 9 @ # p * ; & q c k z n z b ; @ ",
"@.;X<X-XOXXX{.XX|.@X+XH.D.G.N.x =X<X-X=X}.{.oX|..X+X~.I.c.v.* s # # 5 # 9 # 9 # 9 @ 5 # 9 # 9 # 5 # # u = B.j B.m j.z x.z q.; # ",
"R $X*X%X%XoX|.{.+X+X$X|.J.B.z.v $X*X*X@X~.|.|.+X+X+XR.F.n.z.# t % @ @ # # # @ o # # # @ + o # # # # * p + W $ S * U % U $ H & # ",
"T '..X[.XX'.[. X@X$X.XR.G.F.u.; C. X}.}.]..X]..X@XoX.Xc.G.s.$ p t t t t p p q s 7 t s 7 7 p t s t ; j t # # # # # # # # # # # + ",
"L V.P.L.'.Y.'.R.XX+X~.F.N.s.q.; V.D.T.'.P.'.|.+X+X~.F.Z.h.q.* o @ % # + * # # # # # * + # % + # # # # # + # ; % p j t t p p 7 @ ",
"m z.M.T.A.F.Y.R.]..XK.c.g.q.-.- s.N.S.C.F.F.^.R.R.{.B.g.q.,.* t * | v $ -.b & 7.d & E z % -.d % 6.l * | 7 9.9.j p x s p p p p # ",
"I g.b.N.S.L.D.R.R.K.G.G.e.8.X.& y.b.N.G.P.J.R.|.K.c.F.e.q.| # p # $ % ; ; # - 7 % % % # 7 ; % ; - % 7 & % v 8 # 7 ; t 7 ; ; = # ",
"T 0.w.s.Z.D.C.H.Y.F.c.g.p.9.R - ,.0.s.I.G.S.K.J.G.M.j.q.8.#.- t # | l % $.v 4 #.v 4 R b % -.z % &.b * &.r.a.0.j =.,.<.>.2.2.>.# ",
"B -.R 9.g.v.z.S.c.N.p.t.&.E R - #.#.9.s.u.N.G.Z.G.g.q.X.E R * p # ; * 7 - % 6 ; % & - * - 7 * 7 ; % & ; - 7 7 * @.,.<.- y.3.<.% ",
"K #.$.#.,.9.9.0.&.0.0.X.| R B # E R >.#.0.9.6.X.8.7.| E | S * s % d.K - h.I e f.T 7 9.I % d.H ; h.K - d.K % s.p =.v -.* <.x <.* ",
"# - # % & * * * $ # * % # * % # * $ # $ $ # * * # * * # # % # # # & % ; 7 - 7 7 % 7 6 % ; ; % ; 7 * ; p % - 7 * =.* >.% 2.; 2.# ",
"K y.0.- z.B & g.S l 0.B % f.L % N.K - u.T % s.> y J z v v k b A u v d * f.I % f.I p 0.T - s.K % m.K ; s.K % d.v <.v 3.- y.N y.# ",
"K j z % v 7 ; l j j l j 7 v c p z 7 ; N 7 ; x # x m / k H E.k m E.n x # l a ; b a l l a ; b v q v q - v 7 & v & <.y.3.p z.V.d.# ",
"T @.v 7 -.v 8 0.0.r.<.0.0.q.a.0.y.v 7 -.x ; -.$ u b Q c b Q 8 B Q k d % ,.j ; -.B z 7.u.u.0.y.0.<.j ; -.v q -.; 0.a.s.v.N.V.v.# ",
"B A B ; U b ; P I K P B K b K b K l & B B ; b # b x , q N , w S $ 1 v # 7 7 ; p 7 8 v K A b m v K v & T e 8 S - 2.y.i y.p V.N.% ",
"A ; - t ; % y - % & * - % % $ ; % * t ; % s - # a c q q K l j b q q u # $ % l - # * $ = % = % = - $ p ; - s - * #.1.A 2.B a.2.* ",
"# # # # # + # o # @ # + @ + o @ # # # + # # o # # # + o * + o # @ # # + @ # X # # @ # + # # # # # # @ # # o # o @ * # # # * # X ",
"p p p p p p p p p p p p p p p p p p p p p p p p p p p p p p p p t p p p p p p p p p p p p p p p p p p p p p p p p p p p p p p   ",
"p B U U U U U U U U U U U U U U U U U U U U U U U U U U U U U U U U U U U U U U U U U U U U U U U U U U U U U U U U U U U U B - ",
"p U b b b b b b b b b b b b b b b b v v b b b b b b b b b b b S b b b b b b S S b b b b b b b b b b b b b b b b b b b b b b B - ",
"p U b b b b b b b b v v b b b b b b b v v b b b b b b b b b b b S b b b b b b S S b b b b b b b b b b b b b b b b b b b b b b   ",
"p U b b 8.z b x v b A S 8.b b S b b b A S 8.b H S b b b b 8.b T F v b b b 8.b F b b b b X X X X X X X X X X X X X X X X X b b   ",
"p U b Y 8.z R x Z b A R 8.b Y A Z b b A R 7.b Y A Z b b Y 7.z R %.v b b Y 7.b T b b b b j j j j j j j j j j j j j j j j j b b   ",
"p U b Y 8.; K f G b v B 8.; z f A b b v B 8.; z f A b b C 8.7 b f D b v C 8.7 b A A b b X X X X X X X X X X X X X X X X X b b   ",
"p U b & ; ; % Z Z b b % 7 & # Z G b b v $ 7 & # Z D b b $ ; & # Z A b b $ & & $ v S b b b b b b b b b b b b b b b c b b b b b   ",
"p U v k $ $ s A b b b l $ $ l D A v b b j $ $ j D v b A j * $ x A A b b x $ ; j A v b b b b b b b b b b b b b b b b b b b b b   ",
"p U b v Z Z A b b b b v v v Z D b b b b v v x Z D b b b b v x Z A v b b x j j x A b b b                       @ # # + # o v b   ",
"p U b b b b b b b b b b c b b b b b b b b b b b b b b b b b b b b b b b b b b k b b b b   #.T T J T L L T T L o 3 `.0 #.# b b   ",
"p U b b b ).b b #XR b #XJ b +XU b b o.b b #XR b #XJ b +XU b b b b R [ h *.{ :.h b b b b                           o     # b b   ",
"p U b b b b b b <.q b } v b =.v b b b b b ,.c b } b b =.v b b b b [ (. ./. ./. .b b b b # ; t & - i - i ; t ; # - 6 * - # b b   ",
"p U b b b b b b * j b * j b * p b b b b b % j b * j b - p b b b v R 4.*. . . .{ b b b b   #.L +.#.L #.L } +.L   3 /.% #.+ b b   ",
"p U b b b b b b v j b j j b j b b b b b b v j b j x b j b b b b b b b b b b b b b b b b                           X     # b b   ",
"p U b b b b b b b b b b b b b b b b b b b b b b b b b b b b b b b ~ b b E b b ~ b b b b # t ; y ; y ; y ; y ; = & < & < + b b   ",
"p U b b b ).b b #XU b #XU b #XI b b ).b b #XU b #XI b #XK b b b b !.b b !.b b Q.b b b b   +.#.T J T L T #.T #.X 3 _.0 #.# b b   ",
"p U b b b b b b ;.l b } c b <.l b b b b b ;.l b ;.c b <.z b b b b ..b b ..b b ..b b b b         O                 o     @ c b   ",
"p U b b b b b b * j b * j b % t b b b b b * j b % j b $ p b b b b : b b : b b : b b b b = ; t ; t ; y ; y ; t % ; ; = ; # b b   ",
"p U b b b b b b b b b b b b b b b b b b b b b b c b b v b b b b b ! b b E b b ! b b b b   #.L #.+.T #.T } #.D   3 /.% $.# b b   ",
"p U b b b o.b b #XU b #XI b #XI b b o.b b #XU b #XI b #XC b b b b !.b b !.b b Q.b b b b                           X     + b b   ",
"p U b b b b b b ;.z b ;.c b <.l b b b b b ;.l b ;.c b <.z b b b b ..b b ..b b ..b b b b = ; y ; u ; t ; y ; t $ ; ; ; ; # b b   ",
"p U b b b b b b * u b % j b % t b b b b b * j b % j b * p b b b b : b b : b b : b b b b   #.T T J T L T T #.T X 3 _.0 #.# b b   ",
"p U b b b b b b b v b b b b b b b b b b b b b b c b b b v b b b b ! b b E b b ! b b b b                           o       b b   ",
"p U b b b ).b b #XU b #XH b #XT b b o.b b #XU b #XI b #XI b b b b !.b b !.b b !.b b b b b b b b b b b b b b b b b b b b b b b   ",
"p U b b b b b b ;.l b ;.c b <.l b b b b b ;.l b ;.c b ,.l b b b b ..b b ..b b ..b b b b b b b b b b b b b b b b b b b b b b b   ",
"p U b b b b b b % j b % j b $ p b b b b b % u b % y b % p b b b b : b b : b b : b b b b b ).b b b b o.b b b b o.b b b b o.b b   ",
"p U b b b b b b u j b j q b j p b b b b b x j b j q b j j b b b b b b b b b b b b b b b b b b b b b b b b b b b b b b b b b b   ",
"p B b b b b b b v l b l l b l l b b b b b v v b v z b v z b b b b b b b b b b b b b b c b b b b b b b b b b b b b b b b b b l   ",
"                                X O   +   O O O O . @ @ . O   X . X O   o +   O O O @ @ +   O O X O @ O   O o X O X X X     @ + ",
"<.@.=.0.0.-.-.-.:.@.:.-.-.:.=.-.-.0.0.6.0.=.0.0.0.-.-.-.-.=.0.<.@.=.0.0.-.-.-.:.@.:.-.-.:.=.-.-.0.0.6.0.=.0.0.0.-.-.-.-.=.-.-.-.",
"c x x b x b c b v c b b x F v x v j v c b c x v b c k b c D c c x v c v b c b v c b b x F v x v j v c b c x v b c k b c D b b B "
};
