/* XPM */
static char *result[] = {
/* columns rows colors chars-per-pixel */
"64 64 65 1 ",
"  c #51300F",
". c #6A5118",
"X c #6A5918",
"o c #7B5918",
"O c #6A5928",
"+ c #8C6A30",
"@ c #7B5928",
"# c #836328",
"$ c #8C6330",
"% c #8C6A28",
"& c #836A28",
"* c #836A30",
"= c #937B30",
"- c #936A30",
"; c #937B39",
": c #A57B39",
"> c #A57B30",
", c #A58330",
"< c #7B6328",
"1 c #39280F",
"2 c #0F0800",
"3 c #59390F",
"4 c #51390F",
"5 c #59410F",
"6 c #594118",
"7 c #51410F",
"8 c #41390F",
"9 c #41300F",
"0 c #39300F",
"q c #393008",
"w c #302808",
"e c #180F08",
"r c #301808",
"t c #281808",
"y c #392808",
"u c #080000",
"i c #59510F",
"p c #41280F",
"a c #280F08",
"s c black",
"d c #080800",
"f c #6A5128",
"g c #180F00",
"h c #180800",
"j c #836330",
"k c #0F0F00",
"l c #0F0000",
"z c #0F0808",
"x c #391808",
"c c #634118",
"v c #635118",
"b c #936A28",
"n c #0F0F08",
"m c #8C7B30",
"M c #593918",
"N c #63410F",
"B c #30280F",
"V c #181808",
"C c #595118",
"Z c #7B5118",
"A c #7B6330",
"S c #8C7B39",
"D c #835918",
"F c #6A4118",
"G c white",
/* pixels */
" .XoXoXoO+@##@$@%%&+%+*+=-=;==+=====:>:>:>:>:>:>>,>>>>>=>==&&<12",
"345555565644444445744488999999999999909888899999444888999990q0we",
"4rww199999999 909444449909 9449444 44944343449944574449901t22t82",
"59r14434444443444 994999999999999999994 99999999 4  91yyyyt2e94u",
"i9wr8wyy00y0y99999901qy9999999999999999999 9 4 9444 9yyyypwa990u",
"51rt2sssuuuuuuuuuuuuuuuuuuuuuuuuuuuuuuuuuuuuuduudud22ususud19rys",
"#1ayusssssssssssssssssssssssssssssssssssssssssssssssssssss2f9a0u",
"%9r0ussssssssssssssssssssssssssssssssssssssusuuuuussssssss2<4r0u",
"#910ussuu222geg222hgggge22222g2222222h2ge2h22222uussssssss2j410u",
"%4p0ussuu222ggh2hgeaaaaaeeggeaggggg22g22gggkg222222uuuusss2#3 9u",
"#39yusduu22222l222222222222hkg22ggaegagggaggagge2gg2222uus2@3 8u",
"%599usssud22222h2g22kkkk222h2hgaaatteaeeeteeeggggeeag22uuu2<6 9u",
"+399u22eaarrrrwyyyrrwwyywywwwwwqyqwywwrrrwwwrtttttttege2uuz*635d",
"%499usssuu22eeaaeaearrrrtrttrrrrrrrxrwtttraaeeeeeeegk2g2ss2+635d",
"&399uuu2ggattrrrattrrrrrrrrrrtrrrrrrrrrrtrtrtrtrrtteegggus2+c 9u",
"%5 9dgearrwyy00yyqwwrwyyyqwwwwywywwywrwwrrrwrrwyrttaegguss2+69ys",
"%39yssuu222222222gggggkkkeettrwrrtttttrrttatrtttaeggeg2uuse+v39u",
"b59yssuuuuddddddddd2ddddddd2d222ddd2d222ddd2ddddddddduusssk+c39u",
"+491dry90944455555555535444444444445774499949999949qwwtg22e+v 9u",
";349dtwrw084777755777575444444444454444444849898948qrrthuse+v49u",
"%499u22d2twy984444899844809094489qqqww04480000098480wrt2sse=v34d",
"%4yyssssu2kgatwwrwwwwy099w1999909000090994744444889 91ytg2t=v33u",
"-4pyusl2hattrrwrrrrrrrwyrrrywwrrrrrrrrwwryy1000ywwryyrrte2e+.34u",
"=4  usu22etw9990011y11090909ywyy1900qq9000ywwywwwwrwraeh2snmv4 u",
"=344dd2ggty988990y00909000yrrrrwyywwwrwrrrtrtattrtttageagun;v49u",
"+499usssu2aryrwy9p9000qq949y10y9998949499988494844488ywtguk;X3 2",
";M9ysssu2ew99194335v53487N3 84444477575454574348449090ye2skm. 9u",
"= yxussu2eryqy99944554445v5445445555555555555449499001w2sse+v44d",
"- 0yudghary19449944444499984948448899948499999909090yrthuue=.542",
"-4 ydgguueyw11ywwyrryyyywrryrwtrrrrrrrwwrrrrwwwwrtttte22uun+.492",
";M99u22uu2aeeegg22l22ddduuuuusssuuuuuudduddd2d2ddddddduussk+.44d",
"=3  usssssuuddddddddddd2ddd2ddd2ggattrwtw94444498844489yttB=. 9u",
"b399d2eeearyy994465ivvvXvXvvvv66v56vvO.6vvvvccv5555444qtd2r+c442",
"b59yssu2gerrrwyy035vvc5545v55545v5444544455555554574392ussn+c34u",
"+491usud2gtry9999944554445v54445v544544555555555555549g2sskmv 9u",
";349dVtety08444444444444494844494888484744998484498990wgsse+v49u",
"%499u22d2twy9844488899448y9094499qyqww04480q00098880wrt2sse=v34d",
"%4yyssssu2kgatwwrwwwwy099w1999909000090994744444889 91ytg2t=v33u",
"-4pyusl2hattrrwrrrrrrrwyrrrywwrrrrrrrrwwryy1000ywwryyrrte2e+.34u",
"=4  usu22etw9990011y11090909ywyy1900qq9000ywwywwwwrwraeh2snmv4 u",
"=344dd2ggty988990y00909000yrrrrwyywwwrwrrrtrtattrtttageagun;v49u",
"+499usssu2aryrwy9p9000qq949y10y9998949499988494844488ywtguk;X3 2",
";M9ysssu2ew99194335v53487N3 84444477575454574348449090ye2skm. 9u",
"= yxussu2eryqy99944554445v5445445555555555555449499001w2sse+v44d",
"- 0yudghary19449944444499984948448899948499999909090yrthuue=.542",
"-4 ydgguueyw11ywwyrryyyywrryrwtrrrrrrrwwrrrrwwwwrtttte22uun+.492",
";M99u22uu2aeeegg22l22ddduuuuusssuuuuuudduddd2d2ddddddduussk+.44d",
"=3  usssssuuddddddddddd2ddd2ddd2ggattrwtw94444498844489yttB=. 9u",
"b499d2eettwyq99456Ci5vvXvXvvvv66v5CvvOv6vvCv55555554889td2r+c432",
"#3 1degew094435555CC7555555444444474488888980q1yqqq0wrrgsse+.332",
"+639dusuawy0999948990qy00989yywq09890ywyyyy0yy90qyyyrrtglu2+Z34d",
"%44pusuu2etrrttrrrwwwwyrryyywyq0090qy00y999999999090wa2uuskm.442",
"#3 rsulhgtwwwrwwwy9009900091009990y009909949yy0wrrrth2usssk;X34d",
"&v 1usuggtryy9449  44444444  99111xyrrrttattatrttaegg222usk;.44d",
"+. pussu2rryy99499000900ywrrrtrrrwwyyyywyyyqwwyywywwrta2us2+.4 u",
"+.41usssu22hgaarrrrrtrtttttwwtwwwwwwwqywwrwwwrwrttteg22uss2m. 92",
"%c1yussuu22geaatrwtttttettttaaaegkhggggg22kg22gg222ulussss2*v1yu",
"&5ar2sssud222222keggk2ggeaeg2g2222h22duuuuu2luuuuuusssssss2@vrru",
"c022d222222nk22nkgnnkkkneeen2nnzneeenk222222222222kk222222n959yu",
"<4tw4@<#A<jj**++++++*++++++++m;+m;;;=+&#&+++*+++++Sm++****A54582",
"49y0pMv.vccccvccc6cvv.vcvvv.....v....XX...vvXXXXXXXX...v.v6rgw4r",
"011agw5.v....o.vv.X..X....XXX..Z....XoD.o.N5.X..cv5533333 ye22ry",
"tryraty95556cvvvv.Ovv.55c.o@Xv5vvvv.vcFFZ..c.c3499499973349yreud",
"t222uu222222222222k22hh2hge2g22gkggeggegggeeaagg2gggghggggggk2ss"
};
