/* XPM */
static char *result[] = {
/* columns rows colors chars-per-pixel */
"64 64 32 1 ",
"  c gray22",
". c gray25",
"X c #484848",
"o c #505050",
"O c #606060",
"+ c #585858",
"@ c #54281C",
"# c #522B0E",
"$ c #452723",
"% c #5C3414",
"& c gray19",
"* c #4B4B55",
"= c #565662",
"- c #56322A",
"; c #282828",
": c #381C18",
"> c #4C2014",
", c #373739",
"< c #202020",
"1 c #171719",
"2 c #2C1414",
"3 c #101010",
"4 c #613E2F",
"5 c #714A37",
"6 c #686868",
"7 c gray44",
"8 c #606070",
"9 c #52230E",
"0 c #2A2A2E",
"q c #7D573B",
"w c #3E3E4A",
"e c white",
/* pixels */
"   ......   ..XX....XooOOO+. .@#$%.& *+++ooXooXoX X.XXX.....X.. ",
" &&     .    .... ..*=o+OO+. .@$$-X  o+Xo*XX**X.. ..X*XX.    .. ",
" &;    ......*. . .Xoooo++oX . @@&X  o++o*XX**X. ...XX.....     ",
" ;; ..ooX...X.....X*ooooo+o.&. $@&   o+=o*X.X*X . .... &..*..&  ",
" && ..XXX..XXX.XX***Xoo+++o...@:#-   o+=o*Xo**.X .....   *. X   ",
" && ....XX..XoXXX**..Xo+=+o. X@$&.X .o=X**ooo**XXXX....XX  ...  ",
"&  .....XX.XX.XXXX*.X.o+=O=...#$& .&.o=***o+o**XX*X.....XX...  &",
"&;&......o...XX*XXX...o+X+o...%:$>.&.*****Xoo**X.. X  ..**X.   &",
";&..XX. ..XX..X.XXoXXXXXX+X.&-%:$>  &****XooXoXX..XX.   .*.. &&;",
" ..XXX.  X*XX...XXoXXXX..oX. $$>$- &&*XXoXoX*.XXX ...* & .. .&  ",
" ..XXXXX****oX...XoXX.X.....&$:@>- &.XX..X*XXXXXXX....   ... .  ",
"..XXXXX*X**XX*.XX**XX.... X ;&$@>- &&X.X.X**XXX**X.......... .  ",
"..X**XXXXXX  oXoXX*oXX..... ;&$@>% , XXXXX**X.X*...  ....XXXX...",
".. *XX.-.X.... ...XXXXXX. . ;;$@>  ,;*.X.X**...X. *  ...XXXXXX..",
".. ... ..... . ..oXXX*Xo.  &;&%>@ $&&XXXXooo...XXXXX....XX...X .",
" . ... ........XXXXX**X    ;;,%@>.&,&XXX. XX..X**XXX.......  .  ",
" .    .& &       .X ...  & ;;,-:>.$&;& .  ..  .....  &&    .  &&",
";<<<<<<12;;<<<<<<<<<<<<<;;;;& @$: $&<<<<<<<<;;<<<<<;3111<<<<;<<;",
";;;;;<&;;;;;;<<;<<;;;;<<<;;;;  :$   ;<;;<;;;<<;&&;;<;<<;<<<<<;;&",
"&&&&&&&&&&& &&&&&&   &;;&; &&&-$#$ &&&&&&&&&&&&&&&&&;;&&&&&&&&&&",
"...  .4-.... ...X*oooX.... X. -#@-. .ooX.......XXXX. &.......  .",
"o++++oo5Xo++OO++++OOOOO+6OOo. -#@& .+OOOOOOo+OOO66O+++++OOO++oo+",
"oooooooooooo+o+oo+++++ooo++o &&--&;&O76OX=ooo+OOOOO+oo++ooooo+oo",
"XXX.XXX.....XXXXXX*oooX.o66o &:->&&&+OO+XXX**=Xooo++oo.  ...X...",
"  .....     .XX.o**XoX..X++o &&#2&& .+++=X=o=o*o****o.. ....    ",
"      X... ..X .XXXXXXo.XX++ &&>: & oO+oo***X*ooX* XX. .;&;&&  .",
"    ..-.....XX&..XXX.. ...oX& $>@ &.+6ooo=*oXX.X**.X..  &;&&  & ",
"     .......X.X...XX....XXoX&&$>>  .o6=o==ooXXXXXX.... &&;X   X&",
"    .......X.X.X..XX...XXXoX&&$:>,& X6=====+XXXX*XX   X       ..",
".  ..........  . XXXXXXXXXoX&&$:#$& o8==o++oooo.Xo   ..X.. .   .",
"....X....  . .&..XXoo****ooX;;$$#$  o+oo=o=XoooooX   .. XXX.   .",
"...Xo. ....X.&& XXooo****ooX&&$-##- X+oo=oXXXoooo.....XXX*X.    ",
"...XX.XXXX..X.. o*oo*X**XXoX&.---#  o+o+++**XooXXX.... XX*.     ",
"...XX.XX.X    ..X**XXXX*XX+X&$->-#. o+++O=***+oXXX.....XX.    & ",
".XXXX ...X && ...XX..XXXXXoX&$ --$ &o++*++oXXX=oXX...44**.  &&& ",
".XXX......X& ....XX......Xo.;& $#- &Xooo++oXXXooXXXX.4.XXX. && .",
".XX.. .* .X. .X..XXXX... ...;& #@- &.*oo+ooXXXooXXXX. ..XX.    .",
".XX....4-&& .X. ..X**X......;& #@- ;.XXooooXXXo+XXXX.; ..X......",
"XXXX...4---...   .X***XXXXX.;&$%%- &.XXooooX*XoXX.XX.  ...Xo..XX",
".XXXX.XXX ..X&.& .XXXXooXXX.&&$@9.  XXXo**...oXX .X.  ..X*....  ",
" .    -       &&&     ..  ..,&#%9. &...X..       &   .          ",
";<<<<<<<<<;&;<<<<<<<<<<<&&&& -@@@. &&&<;<<<<;;<<<<<<;<<<<;;<<<<<",
"<;;;;;;;<;<;;;;;;<<;0&&;;;& ;-$>@- &&;;;;;;;;;;;;;&&;;;;;;<<<<<$",
"&;;;;&&;;;&&&&&&;;;&&&&&&&& &&-@4X..&&;&,&&&&&&;;&&&;;;;&&;;;;,&",
"   ...........XX.........  X..-%4oX...... ....            &&&,& ",
"ooXoo++++oooo+O+OO++++++66O6XX %4oX .o+O+OOOOOO+o+++++++ooooooXX",
"oXXXo=o=ooXX.oqOOO+oo++OOO6+.o.-Xo;;.+OOOO++oooooooXXXX.....XXXX",
"X...X*XXXX.X .oooo++oo+OO+6O,.->-*;; O+OO++oXoooo+ooX &;;;&& .XX",
"*X..X*XXX.. .XooooXooo=+++OX&&>--X;& O+++++oXo++ooXo. &;; &&& .*",
"*X...XX .&  .X*o+ooooo+oo=OX&&>>>.;& +oo++ooXXXX..o.. &&&&&&;&X*",
"*X.....    .X**o=**XXoooo++X,w>>-4$&.+oo+oXooooXXXXX.     &&&  X",
"*.....&..*..X***XX*oo=oooo+X, @@$-$; +oooo.Xo++*oXXX..    &&& ..",
"X....X..*XX X**XXXoooooooo+X, @>:%-;.+oooX..+oo*XX....        X*",
"X...XX. *XX.XXXXXoooooooooOX&  @:--&.+ooXXXXXXXXXX.  .  ....  XX",
"XX.XXXXX*X..XXXX*ooooooo**oX  .---$&.+ooXXXXXX+XXX.   & ....  .X",
"*XXXX.X*X. *XXXX*==ooooo*XXX&&&-&-&& o*XXXoXXXX.XXX &&& ...  .*X",
"*XXX..X*..  .XX*oooo=Xoo+XXX ; ---&& .*XX&+.o....X. .&& ... .,-*",
" ......X.....XXXXoooooo==XXX&&.--4&; **X..ooX.......&.. ... XX, ",
"0;.  ... XXX.X*XXXoo+Xoooo+X&&  -%;; *XXXXooX...   ..&  ...XX4  ",
".; .    ..XXXX*X.Xo+ooo++XXX;;$--%&; XXXXXXXXX..X..     ...XXX.*",
"*...  &   . ...XXXoooo++o.XX&.$@#%&  XXXXXXXXX....      ....X.**",
"*X..      ....XXXX*ooo++oXX.; $@#-. &Xo.Xoo**XX     &&   ....***",
"*X.........X.XXXXXoooX+oo.X.& $$@-; XX.oXo+o*XX.    &&  . ..XX**",
"X. ........XXXXXXXXX XX*XXX.& --@-&&Xooooooo* XX.   &&      .XX*"
};
