/* XPM */
static char *result[] = {
/* columns rows colors chars-per-pixel */
"64 64 20 1 ",
"  c #101010",
". c #282828",
"X c #171719",
"o c gray3",
"O c #202020",
"+ c #2A2A2E",
"@ c gray22",
"# c black",
"$ c #484848",
"% c #606060",
"& c gray25",
"* c gray19",
"= c gray47",
"- c #686868",
"; c gray44",
": c #585858",
"> c #505050",
", c #808080",
"< c #888888",
"1 c white",
/* pixels */
" ...XoX oooo XOXO XX+X++++OoOOooooooXo  XX+XOXXXXoOOoooo.X O@.O#",
"o.$%& O .$@*&*.@@$@*&*.@@$@*&*.@$@*&*.O@$@*&*....$@*&*.@O*@$%=$#",
"o*-;:.X @=.@%-$.@=.@%-$.@=.@%-$@=.@%-$.@=.@%-$%.@=.@%-$. X ...@o",
" &%->.X @%.$-;%.@%.$-;%.@%.$-;%@%.$-;%.@%.$-;%%.@%.$-;%. X.&$@*o",
" *@$&.X O$.&>:&XO$.&>:&XO$.&>:&O$.&>:&XO$.&>:&&XO$.&>:&X X.>-%&#",
" @... X  @ ... o @ ... o @ ...  @ ... o @ .... o @ ... o X.:;-*#",
"o$=%$@*OX*XXXXOXX*XXXXOXX*XXXXOX*XXXXOXX*XXXXXOXX*XXXXOX O &%$.o",
"o@@@O X..O      .O      .O     .O      .O       .O       XoX.OXo",
"o@..XoX %;--%%%%%%--%%%:%;--%%%%%%--%%%:-;--%%%%%%--%%%:.X O@@.o",
"o.$%& O :;%%:::::>>>>>$&:;%%:::::>>>>>$&:;%%::::>>>>>>$&O*@$%=$o",
"o*-;:.X :,:>$&&&&@@@@@*.:,:>$&&&&@@@@@*.:,:>$&&&&@@@@@*. X ...@o",
"o&%->.X -,:>$$$&&&&&@@@@-,:>$$$&&&&&@@@@%,:>$$$&&&&&&@@@ X.&$@*o",
"O*@$&.X ;<:>$$$&&&&&@@@@;<:>$$$&&&&&@@@@-<:>$$$&&&&&@@@@ X.>-%& ",
"O@... X ;<>$$$&&&&&&@@@@;<>$$$&&&&&&@@@@;<>$$$&&&&&&@@@@ X.:;-*X",
"o$=%$@*O=<>$$&&&&&&&@@@@=<>$$&&&&&&&@@@@;<>$$&&&&&&&@@@@ O &%$.O",
"X.@@O X.=,:>$&&&&&&&@@@@=,:>$&&&&&&&@@@@;<:>$&&&&&&&@@@@ XoX..@X",
"X...XoX =,:>$&&&&&&&@@@@=,:>$&&&&&&&@@@@;,:>$&&&&&&&@@@@.X O@@@O",
"X.%%& O =,:>$&&&&&&&@@@@=,:>$&&&&&&&@@@@;,:>$&&&&&&&@@@@O*@$%=$ ",
"X.$%&.X =,>>$$&&&&&&@@@@=,>>$$&&&&&&@@@@;,>>$$&&&&&&@@@@ X ...@X",
"O*-;:.X =,>>$$&&&&&&@@@@=,>>$$&&&&&&@@@@=,>>$$&&&&&&@@@@ X.&$@*X",
"X&%->.X =,>>$$$$&&&&&@&@=,>>$$$$&&&&&@&@;,>>$$$$&&&&&@&@ X.>-%&+",
"+*@$&.X =,:>$$$$$$&&&&&@=,:>$$$$$$&&&&&@;,:>$$$$$$&&&&&@ X.:;-*X",
"X@... X =,:>$$$$$$$&&&&@=,:>$$$$$$$&&&&@=<:>$$$$$$$&&&&@ O &%$.+",
"X$=%$@*O--$&&&&&&&&@@@*@--$&&&&&&&&@@@*@%-$&&&&&&&&@@@*@ XoX..@+",
" @@@O X.%;--%%%%%%--%%%:%;--%%%%%%--%%%:-;--%%%%%%--%%%:.X O@@@+",
" O..XoX :;%%:::::>>>>>$&:;%%:::::>>>>>$&:;%%::::>>>>>>$&O*@$%=$+",
"o.$%& O :,:>$&&&&@@@@@*.:,:>$&&&&@@@@@*.:,:>$&&&&@@@@@*. X ...@O",
"X*-;:.X -,:>$$$&&&&&@@@@-,:>$$$&&&&&@@@@%,:>$$$&&&&&&@@@ X.&$@*o",
"o&%->.X ;<:>$$$&&&&&@@@@;<:>$$$&&&&&@@@@-<:>$$$&&&&&@@@@ X.>-%&O",
"o*@$&.X ;<>$$$&&&&&&@@@@;<>$$$&&&&&&@@@@;<>$$$&&&&&&@@@@ X.:;-*O",
"o@... X =<>$$&&&&&&&@@@@=<>$$&&&&&&&@@@@;<>$$&&&&&&&@@@@ O &%$.o",
"o$=%$@*O=,:>$&&&&&&&@@@@=,:>$&&&&&&&@@@@;<:>$&&&&&&&@@@@.X O@@@o",
"o@@@O X.=,:>$&&&&&&&@@@@=,:>$&&&&&&&@@@@;,:>$&&&&&&&@@@@O*@$%=$o",
"o.$%& O =,:>$&&&&&&&@@@@=,:>$&&&&&&&@@@@;,:>$&&&&&&&@@@@ X ...@o",
"O*-;:.X =,>>$$&&&&&&@@@@=,>>$$&&&&&&@@@@;,>>$$&&&&&&@@@@ X.&$@*o",
"O&%->.X =,>>$$&&&&&&@@@@=,>>$$&&&&&&@@@@=,>>$$&&&&&&@@@@ X.>-%&o",
"o*@$&.X =,>>$$$$&&&&&@&@=,>>$$$$&&&&&@&@;,>>$$$$&&&&&@&@ X.:;-*X",
"O@... X =,:>$$$$$$&&&&&@=,:>$$$$$$&&&&&@;,:>$$$$$$&&&&&@ O &%$.o",
"+$=%$@*O=,:>$$$$$$$&&&&@=,:>$$$$$$$&&&&@=<:>$$$$$$$&&&&@ XoX..O ",
"+@@@O X.--$&&&&&&&&@@@*@--$&&&&&&&&@@@*@%-$&&&&&&&&@@@*@.X O@@@ ",
"+@..XoX %;--%%%%%%%-%%%:%;--%%%%%%%-%%%:-;--%%%%%%%-%%%:O*@$%=$X",
"+.$%& O :;%%:::::>>>>>$&:;%%:::::>>>>>$&:;%%:::::>>>>>$& X ...@X",
"X*-;:.X :=:>$&&&&@@@@@*.:=:>$&&&&@@@@@*.:=:>$&&&&@@@@@*. X.&$@*+",
"+&%->.X -,:>$$$&&&&&@@@@-,:>$$$&&&&&@@@@%,:>$$$&&&&&&@@@ X.>-%&X",
"X*@$&.X ;<:>$$$&&&&&@@@@;<:>$$$&&&&&@@@@-<:>$$$&&&&&@@@@ X.:;-*O",
"X@... X ;<>$$$&&&&&&@@@@;<>$$$&&&&&&@@@@;<>$$$&&&&&&@@@@ X.&%$.X",
" $=%$@*O=<>$$&&&&&&&@@@@=<>$$&&&&&&&@@@@;<>$$&&&&&&&@@@@ O &%%.X",
"O@@@O X.=,:>$&&&&&&&@@@@=,:>$&&&&&&&@@@@;,:>$&&&&&&&@@@@ XoX...X",
"X@..XoX =,:>$&&&&&&&@@@@=,:>$&&&&&&&@@@@;,:>$&&&&&&&@@@@.X O@@.X",
"O.$%& O =,:>$&&&&&&&@@@@=,:>$&&&&&&&@@@@;,:>$&&&&&&&@@@@O*@$%=$o",
"X*-;:.X =,>>$$&&&&&&@@@@=,>>$$&&&&&&@@@@;,>>$$&&&&&&@@@@ X ...@O",
" &%->.X =,>>$$&&&&&&@@@@=,>>$$&&&&&&@@@@=,>>$$&&&&&&@@@@ X.&$@*O",
"o*@$&.X =,>>$$$$&&&&&@&@=,>>$$$$&&&&&@&@;,>>$$$$&&&&&@&@ X.>-%&o",
"o@... X =,:>$$$$$$&&&&&@=,:>$$$$$$&&&&&@;,:>$$$$$$&&&&&@ X.:;-*o",
"o$=%$@*O=,:>$$$$$$$&&&&@=,:>$$$$$$$&&&&@=<:>$$$$$$$&&&&@ O &%$.o",
"o.@@O X.--$$&&&&&&&@@@*@--$$&&&&&&&@@@*@%-$$&&&&&&&@@@*@ XoX..@o",
"o      O.      O.       O.      O.     O.      O.      O.X O@@@o",
"oXOXXXX*XXOXXXX*XXOXXXXX*XXOXXXX*XOXXXX*XXOXXXX*XXOXXXX*O*@$%=$o",
"#o ... @ o ... @ o .... @ o ... @  ... @ o ... @ o ... @ X ...@ ",
"#X&:>&.$OX&:>&.$OX&&:>&.$OX&:>&.$O&:>&.$OX&:>&.$OX&:>&.$ X.&$@* ",
"o.%;-$.%@.%;-$.%@.%%;-$.%@.%;-$.%@%;-$.%@.%;-$.%@.%;-$.% X.>-%& ",
"o.$-%@.=@.$-%@.=@.%$-%@.=@.$-%@.=@$-%@.=@.$-%@.=@.$-%@.= X.:;-*o",
"#..*&*@$@@.*&*@$....*&*@$@O.*&*@$@.*&*@$@@.*&*@$@@.*&*@$ O &%$.o",
"# oo   ooooooOOoXXXXOX+XX  oXooooooOOoO++++X+XX OXOX ooo XoX... "
};
