/* XPM */
static char *result[] = {
/* columns rows colors chars-per-pixel */
"64 64 51 1 ",
"  c #2A2622",
". c #2F2A24",
"X c #312B26",
"o c #332E29",
"O c #36322C",
"+ c #3A342D",
"@ c #3E392F",
"# c #3E3731",
"$ c #3F3833",
"% c #403732",
"& c #433C35",
"* c #483F37",
"= c #463F38",
"- c #483F39",
"; c #464037",
": c #494037",
"> c #474039",
", c #4B423B",
"< c #4F483E",
"1 c #50473C",
"2 c #534B3E",
"3 c #584D3F",
"4 c #504740",
"5 c #564E41",
"6 c #584F41",
"7 c #575042",
"8 c #5C5345",
"9 c #5F5748",
"0 c #5F5849",
"q c #605747",
"w c #605749",
"e c #635B4C",
"r c #685F4F",
"t c #675F50",
"y c #685F50",
"u c #66604F",
"i c #68604F",
"p c #676050",
"a c #6B6353",
"s c #6F6857",
"d c #706757",
"f c #716857",
"g c #716758",
"h c #746C5B",
"j c #786F5F",
"k c #77705E",
"l c #78715F",
"z c #7B7463",
"x c #807765",
"c c #807866",
"v c #817968",
/* pixels */
"hsdssffhjhhhhhzhkkkhkfjhhhhhhhhh,hhkhhzhjkkjhjjjkkkjkkhjkjffaafg",
"rreeerpsparyappaiiaaaspsasggasgt4ksaaaassasaapspsappaapiiurweeee",
"wwew9epirerpprppiiaffaapusaeeer9>fhtepreeeeee8wwewer88389qwew69w",
"69889reere9paapsifhapiiresp0ee87>haeee0098eee8889889898937w878w6",
"890seauesfeeraaradfipuurrpirie95-fswttteq7ee85866899861756788885",
"898teparri9eiaaafiiiie0errree995=ae8977877678555585555<225676975",
"68888ereee9qreerieeree9999798872=pe7884721288568886552,:2228w788",
"89899909eqqqerqeeq97e97879998582=at8279854529586685998576679w997",
"99eeeerureueepeise99e09ep0000896=fs899855575e98799wwew98899q9898",
"99eperuairpprrprurreeepeprett9e5:fp899ee9898wwwww96ee878999e8898",
"99e9epraiepe0eeer0rre0uueprerpr8%fe899e955998999e8weww9e88qq8988",
"98eeeurprepr0e0eurrqee0eee9rrp82%awe9858598599e9w786882221678738",
"78q89eee8687908ere989w88e9889e82=p798665452285888565555761278688",
"788999956886795e999ewe8899899re2%ae91897852885895888590985873772",
"8e89eewww9979999qeerwe88eapprpr8&fe0788599889ee99rw9we9e88ww86q7",
"eeeeeee899e788997999699qeree9r85&i98w958888886888889869w9599666q",
"=,,>>,,>=&=====,==,,,>44<<,,<1,,-,,==-,:,-&&**====&%%%%&%&&$$%$#",
"fsfjghggjgffhshfsfhfsasssfssagfdaapgdasasaarrpiisssaaasaspayteeo",
"fasatattee9eterpter9ttw9eerttwetpeeeeq9qeeee9e8qrewwer9ere99958+",
"ksrept9099974889e9e99e99r98899eeweere8w9qe8789899w9weeeieieeewt%",
"kfafga0ee098580ee0t0ettpeeeeeetteyaree989ee9r9eeeee99epeerewwwe%",
"jfasaeee00e0478990eteeerre009eewwwrii9qe9qq9e88799eue9e09e99986$",
"fuuie897798889799e0e9609988998889qeye89e87qq52796288780eqe88966+",
"kaapare00988949999958998999ww257eerpeerrreereeeeerepeeuureweeeq%",
"zgspprerere8e8e898w90ee990eee9e9uriarreeeeiierqeeerureereeewew8%",
"faywe90ee99090e8e7899889er99w69999eaqee9qeq99999889909099088682+",
"kfpu0ee99998898694585555599889889eeee988qee98q97qq89999489978w6%",
"jhayeer9ereeeee9e69998ettwttrteweipauipreeieeir9ee9ee98879q8we6@",
"jair99e908eee9ee9e989eyyerptt9eweraieeie98iiaireeeeeweww989w896@",
"jpe998978899999ew899eww89eetr0erwewqreeewqqeerrereqe9w862666885@",
"fee09222869588976889e8999969e99e88q9q8889886qrirre98685512156w2O",
"jaee8998898544222578686889857577877737889889qeq6661ew8585215651O",
",4,=,>=,>====>,=>>,,,>,,>4,<,,,,:-,-:,>>,,-,,=%*,,,=-====%%&&$$#",
"jjjjjjzzzzzzzzzzzzzzzzzzzzzzzzza<zzzzzzzzzzzzjjzzzzzjhjkjjhjzfhf",
"assassasgatssafspassffsssgfffhfe&zdffffhffghsssasasaassaaaspaasa",
"e0ee0995799899898999t0eeptarya82Ojawieiarreeeeq89eereeeee9qeteee",
"999988989898999w99889799890eee22Odreq97q8eq86qqq39q8q9w958888809",
"ee0e9e9900989e99e9e909990r9eer72ojrree9ewq8ww6662987889985279990",
"eetttte99t999weeueeeeeeeureiaue3Ozdpuairrreereee8988888we8880eee",
"0ppe90et09tteweee9uue0rueersiae2Ozieerpreewqeeerq98e977ee9reeete",
"0epteee9ee0ee9et9eepreeperea9pe3Ozppreyeeree88eewewe885ee8eeqere",
"e00009e800e9w89w9ee00eeprrreqre3+zreeqqereqq8eeew888856996wq99e9",
"9990900978988w89900e99e9wriure93Ojreeereqee88w68866862<2799qw999",
"809787887777598689998988eqq9ee82Ohe8qerrereqwq8w698125588937w989",
"099898889989999990996899ee99e891Ohreqerreqqe886869866556266wqq99",
"tt009e958749985889e9ee9eeiuee892@krrereereweere8weww96ww869q9889",
"t0tt9t07888889979tetptteeeriiur2Ozpeerryydseereepyew988e8qeqew8q",
"aatt09785774755799e9rww9rpirqer5Oge6q88qqyeqeqqqw8w659588888eqqr",
",4,,,44,>,>===>>==>=====&=&&=%&&&4111222262111*1,,,,*-,,-,----*%",
"hhhshshhhgszsjzjjzhzhhkjkzzzzhfzkzzzxxxxxzxxxxxxvxxzxjxhlxjjhh6o",
"gsatteet900t90eeeeytrastrssaspddjdgdadjhgaddaiiddddyddaiarrwre6o",
"dr457689777754898899889e9999wew9e8ww86wqwqqw66qq6386wq8qew8rw82X",
"fr899980ee99999958999ertwereaueerrrerewwreqreq883299639qrrwrew2X",
"jp2reet0teeete0979r9eppeereeureeweeerwrqeqqewqqre9ww98rdrrarrw3o",
"hp9r8ee099e9e9599eeu9etrrreeree7qeeeeqqwrre8qqqqq8qqqqqirrwwee3o",
"ku789999e0e88w895809reeeeepyeeee9eeerwqweq83wweqq7328eqerrreee3o",
"ft557740989850785475w99ew9w976697ee88eqw923899eq03722338ere6ew3X",
"sa55278458884554<<<2878888898986399q8eq8383228e872333339rwq36w2X",
"gs8877599097559575778899ewee8898qeeeeewee9387qeq87830083qwww822o",
"ss890778777977978788898889w9886qe98qweqeu0338e8q009007836wqew62o",
"yg88859858588777889ee8ee68966338w36q8w36833q000u38838138q36w8w1X",
"ty952752<64497887755295368w9q26636332668223q332330882133223w66*.",
"t955298549857584272::533688133q323322226833u333333332322122633*X",
"&=-,,,=;>=======&%#@%=&=%%%%&&%%&&&&*&**;;:1:<::<<;:**::*:****+ "
};
