/* XPM */
static char *result[] = {
/* columns rows colors chars-per-pixel */
"64 64 189 2 ",
"   c #040B01",
".  c #061301",
"X  c #0B1C03",
"o  c #0E1E08",
"O  c #081403",
"+  c #121F0C",
"@  c #0D2304",
"#  c #14230D",
"$  c #162A0D",
"%  c #182F0F",
"&  c #19350E",
"*  c #172511",
"=  c #192614",
"-  c #172910",
";  c #1B2C13",
":  c #1D2619",
">  c #1E2C19",
",  c #1D3214",
"<  c #1F3018",
"1  c #222E1C",
"2  c #203616",
"3  c #213A16",
"4  c #23341C",
"5  c #253B1D",
"6  c #283D1F",
"7  c #252F21",
"8  c #263421",
"9  c #293624",
"0  c #273920",
"q  c #2B3C24",
"w  c #2E362A",
"e  c #2E3C29",
"r  c #313D2C",
"t  c #343F30",
"y  c #29421E",
"u  c #27431B",
"i  c #2D4225",
"p  c #2E4823",
"a  c #2F4028",
"s  c #304727",
"d  c #314A26",
"f  c #32442B",
"g  c #354A2C",
"h  c #384E2F",
"j  c #35512A",
"k  c #39552E",
"l  c #3C5C2F",
"z  c #364431",
"x  c #394634",
"c  c #374930",
"v  c #3A4C33",
"b  c #3D4739",
"n  c #3E4C39",
"m  c #3D5234",
"M  c #3E5933",
"N  c #3F5038",
"B  c #414D3C",
"V  c #405737",
"C  c #415A36",
"Z  c #42543B",
"A  c #455B3C",
"S  c #485E3F",
"D  c #46603B",
"F  c #49633E",
"G  c #454E41",
"H  c #465341",
"J  c #495544",
"K  c #475840",
"L  c #4A5C43",
"P  c #4C5549",
"I  c #4E5C49",
"U  c #515D4C",
"Y  c #545E50",
"T  c #4D6344",
"R  c #4F6B43",
"E  c #4F6148",
"W  c #506547",
"Q  c #516B46",
"!  c #52644B",
"~  c #556B4C",
"^  c #586D4F",
"/  c #537146",
"(  c #56714A",
")  c #58724E",
"_  c #566451",
"`  c #596653",
"'  c #576950",
"]  c #5B6C53",
"[  c #5E6D59",
"{  c #5D7354",
"}  c #5E7953",
"|  c #616E5C",
" . c #607657",
".. c #617A56",
"X. c #63745B",
"o. c #657B5C",
"O. c #687D5F",
"+. c #667461",
"@. c #697664",
"#. c #677960",
"$. c #6A7C63",
"%. c #6E7E68",
"&. c #717E6C",
"*. c #638157",
"=. c #66825B",
"-. c #69825E",
";. c #6C8A5F",
":. c #6D8364",
">. c #6E8A62",
",. c #6F8168",
"<. c #708667",
"1. c #718A66",
"2. c #72856B",
"3. c #758A6C",
"4. c #788E6F",
"5. c #76926A",
"6. c #79946E",
"7. c #769569",
"8. c #778771",
"9. c #798673",
"0. c #778870",
"q. c #7A8D73",
"w. c #7E8C79",
"e. c #7D9374",
"r. c #7E9973",
"t. c #7F9178",
"y. c #808D7A",
"u. c #809777",
"i. c #819C75",
"p. c #83957B",
"a. c #859B7C",
"s. c #889D7F",
"d. c #82A076",
"f. c #86A47A",
"g. c #89A47E",
"h. c #8AA97E",
"j. c #879581",
"k. c #879980",
"l. c #8A9C82",
"z. c #8F9E89",
"x. c #899683",
"c. c #8DA384",
"v. c #8EAA82",
"b. c #8FA188",
"n. c #90A687",
"m. c #92AC87",
"M. c #93A48B",
"N. c #95AB8B",
"B. c #98AE8F",
"V. c #94B387",
"C. c #96B28B",
"Z. c #99B48E",
"A. c #9BBA8F",
"S. c #96A591",
"D. c #98A692",
"F. c #9BAC94",
"G. c #9FAE99",
"H. c #9DB294",
"J. c #9EBB92",
"K. c #A0AD9A",
"L. c #A0B497",
"P. c #A1BD95",
"I. c #A2B49B",
"U. c #A5BB9C",
"Y. c #A8BE9F",
"T. c #A7B6A0",
"R. c #A7B8A0",
"E. c #AABCA2",
"W. c #AFBDA9",
"Q. c #B2BFAC",
"!. c #A2C195",
"~. c #A6C29B",
"^. c #A9C59E",
"/. c #ABCB9E",
"(. c #AEC4A4",
"). c #ADC9A1",
"_. c #B0C7A7",
"`. c #B2C4AB",
"'. c #B5CAAC",
"]. c #B7D6AA",
"[. c #B2D0A6",
"{. c #B7C6B2",
"}. c #BACDB2",
"|. c #BED3B5",
" X c #C2D4BA",
".X c #C6DABD",
"XX c #CBDCC3",
"oX c #DDEFD5",
"OX c #E7F9DF",
/* pixels */
"|.} S D S D R $ M ~ ) ~ T T { V 3 5 q O.y.&.z B B B K f m { } g <.e.r.r.5.=.r.J.F 7.V.U.U.U.c @ X i { , M ' ^ T ' { c q a A T T ",
"~.F 4.P.J.m.(.) M C g M T W m L W , 5 ] %.w U U _ U B ! g W ..T p.3.e.7.r.r.r.r.} r.r.H.(.H.b.E e.b.b.<.. T T T m i :.A i d < N ",
">.} 5.7.f.V.h.7.( f.h.C.C.C.[.k <.S 6 4 v Z G P ! _ Z v T Z ~ 3.i.r.h.r.5.a.} g :.,.>.p.e.N.C } o.{ :.m.:., M g m 3.b.M.T < g p ",
"R r.7.=.*.7.h.d.} ).!.!.A.~.A.r.S Z s c z J U J H | _ U q X.A q.>.} ( F k C A ^ A o.{ e.r.l.T } ~ D T $.<.5 i <.m.r.N.I.H.c.q < ",
">.;.>.} F l f.A.l !./.!.!.h.].F ( <.1.u.1 z z J B U I U ] 9 f I M R *.{ } } } } T ~ 3.a.-.T T ..) { } ,.m i j T <.e.a.r.:.<.s ^ ",
"=.( k F / / / h.*.7.V.v.A.h.*./ } <. .q.^ 1 4 e z U U I +.f v c M M j j F D M Z S ~ r.M M W F T ~ ~ =.o., i N d d T o.:.1., c R ",
"D .. .T R M T i.i.p P.m.V.-.l -. .o. .1.6.f q 4 1 1 1 + . : ] q.:...o.=.j d M M M & S ) ] o.X.[ m { X.g i i c K i L 8.w.i A W L ",
"} s T } ( Q F R h.M g.m.-.j ) ..)  .) -.o.^ 4 $ * * 7 B z.9.9 L :.c.J.~.(.~.J.J.~.*.p ] ' X.` [ T L L < c 5 d N A c } g c A L ~ ",
"%.q.W g T { T M T g Z. .T o.^ }  .S A Q k d O.4.2.x @.F.I._ o.r A Z } c.i.m.m.P.~.6.6 V ' X.| | $.a > e ; < = v N > ] v 4 5 v E ",
"~ ~ o.o.v a ..,.p m m S e.o.{ X.A h Q u j 5.3.<.p.U x.y.z.X.z.Z 5 o.M C r.3.6.>.i.e., v  .X.U ` a L 9 O = q ; 8 ; z %.p.#.x < a ",
"F W M d >.).~.e.S ..W p , C N g W A 6 1.u.=...{ <.! &.M.K.L X.z.u d T ~ g F $.M.b.k.q f x n A 1 +.T.S.j.9 ; 9 e e _ [ [ 8.E L g ",
"T C d 6.H.m.v.M D } m o.:.i $ , 5 f o.F } Q ( 3.4.S 8.p.n.! $.s.r.@ M ~ ~ T m f Z W 4 v 2 n e 9.w.D.S.S.S.x + 7 x @.+.X.@.n X.$.",
"j C C./.a.Z.~ F { { m :.:.0.- T I B U W h Q Q o.y.! 9.a.B.] $.4.c.M d s c g e E I E 7 1 x 9 B [ +.,.9.w.y.! r U a ` @.,.X.N { [ ",
"C ^.m.f.m.>.M } ) M o.o.,.:.X q U H 9 s g F Q  .^ A o.x.M.2.o.<.v.c.% a g E { Z H c ` 1 B L J G J ] %.9.` r I I J n ,.@.N ' ] ~ ",
" .e.c.v.c.% $.{ } n :.@.8.z.; 8 B P Z B S A ~ S 2 B @.y.n.8.^  .w.` ' q V T A K 2 2.#.o t w P P 0 _ 2.%.e I x J [ n ` 0.n { ' } ",
":.T g.m.T >.' ] A X.2.[ @.j.r 7 w G A K q  .m 2 h K e X.S.X.$.3.L [ H.Z N A m p 2.0.$.* r w 9 G L z I 8 B x I c J I c _ E L ~ H ",
"~ V ! ' e ! ~ ~ g 3.O.X.$.9.9 r 7 w t I V 4 h h s V B h O.2.! ~ 3.a.l.2.q m T q.2.0._ 0 8 r 9 e n E e J Y b U G G z b.XX{.XX|.XX",
"K ] k.W.I.0 A ^ W <...O.%.X.+ t r w 1 r Z 6 q A g V B v A X.v l.c.p.r.Z T N p.,.X.Z 8 ] H e q 9 9 x x 8 b U t b n J S.G.}.U.T.W.",
"Z o.%.G.}.G.8 a 4.$.$.$.4.r P t 1 7 9 5 s $ $ 5 2 B x z b . M.p.0.m.{ E 3.K E N ' G.[ J +.! 8 0 0 i x 9 x J G n x ] b.q.q.a.w.e.",
"' #.~ I.k..XB.~ 3.o. .2.Z 8 I J Y w 1 1 2 y.o.@ $ ; * * v D.g q.a.:.M $.T q 8 j.G.G.p.4 ` ` [ Z 0 a n 9 z > 9 n n z.p.S.$.M.t.l.",
" .X.L U.K.F..X~  .2.4.^ 0 z t H B I B f 4.u.p.n.3.4 ] K.W.M.F.B { , :.~ 5 i a ] S.F.,.e 0 q g E i i - ; e > * : c @.0.} ~ } } } ",
"X.2.! W.F.B. X@.f ~ W v 6 r 9 4 e 1 4 f ^ W $.u.y.A D.p.y.l.2.$.'.J.S < c v a K l.0.@.%.t.l.T.E.H.J.G.E ; [ +.@.[ L c q.e.k.r.M.",
"X.&.Z T.M.8.Z ] S ; O.4.e $ 1 9 1 A O.S } } F  .y.Z 4.%.$.z.9.p.H._.|.T , i f 8 I _ a I.E.L.U.H.F._.`.$.n [ _ Y _ [ T { :.:.,.<.",
"V $.U G.A U X.%.q.! s.Y.E.v ] ~ r ' o.o.6 Q ^ o.V B 2.&.9.S.O.p.U.B.B.'.a - B { @.E T K p.F.B.U.U.J.G.q 9 Y Y E ! ! K N.:.T <.r.",
"x U b U @.+.| ! %.{ o.P.Z.^ C W W A W O.C } ..V 5 V A %.$.l.o.l.p.J.R.E.L W X._ m L L p.' 3.p.4.p.b.o.a t G _ [ U ' m l.R.t.K ] ",
"_ Z ] n B H J ! ] -.M H.H.P.M L ! A W  .>.j 5 h Z B B B 3.L.Z E.c.{ ..L A g v [ [ v 3.l.'.$.W o.4.b.N 8 9 > J [ U ` v ,.t.J.a.# ",
"] H K.B Y J U J ' :.m J.C.).Q M A s S { -.6 h f B A A B B $.A ^ ] X.{ %.o.; 5 m A A c.e.b.(.H.$.} @.0 9 q z 9 H ! ' v ! T [ c L ",
"H U F.y.r _ ] J ! L m m.m.v.T y Z B 6 A S 2 V h q B r 5 g S B  . .[ X.! f v $.A f e.e.p.,.,.p.3.,.X H b z t 9 n L B 0 p.t.0.z E ",
"v 2.p.W.x Z ! Z Z m 2 4.:.y k V P U ^ f f 1 # s q 5 w Z | X. .B z c q c m { r.c.v.S ~ 1.~ N g f q o q I N n 8 q T c ,.l.k.p.z H ",
"v p.y.F.W.9 L [ ] :.~ V , F M D B B U f g h # 1 B w B ` | Y O.q x n Z f g N } e.s.v.Z i A L Z f f < > e q N f > < H 3.o.t.l.J n ",
"S 4.q.s.I.x @.| %.L W n.$.% m i r r 4 I I.K.%.e = B Y B B B @.B c n x m q T { T :.3.i a A Z f a l.L < q f 8 m a 0.{ i { ,.' n w ",
"L 1.o.q.M.9 e A Z v 4.<.c.W % 6 e w 9 K.z.K.' W.J z z B Z B Y U > Z V N s ~ { T =.=.u N a N c H T.M.X e a c a N :.<.#.m N z P _ ",
"V { ] ] s ^ W q g O.6.-.3.4.$ Z L L 2 L.M.z.2.F.o.a Z c a N A ' 8 9 e * T K m W F S 3 g v x c j.j.Q.n : f a u } ..{ p.c v I H U ",
"^ <.M.<.[ v f V W F ..=.O.A c v Z B f M.L.o.q.G.' q I A T N i 0 z * 9 w.p.l.r.^ S 5 3 V s : 8.F.j.T.[ 4 f 5 M :.....6.v a J G J ",
"g.a.c.Y.^  XB.] k S :.1.p.s e g V B 4 F.F. .E.I.^ s m L A W T ! r e w.! E +.e.t.M. .; v q o.D.M.S.E.p.- g q 4.} =.} ,.v ; z 8 7 ",
") e.1.s.:.l.I.I.:.% o.3.%.4 e g Z V s S.3.9.B.M.%.4 a L m _ A a z _ c _ ' L ~ ~ ] S 5 f q M.w.p.p.K.}.A , T :.) } } 1.A r z t b ",
"d.Q ;.u.H.) Z.P.P.m.! p.A w r B V h q B.~ I.p.q.! ; 4 2 g a a < H @.I z E ' { +.e g Z g 2.K.a.n.q.x.R.,.q $.$.:.} ) ) m , 1 9 e ",
"h.h.o.F 1.{ e.n.b.c.5 X.r t r x Z B g K.g T X.X.p.] $ e - < x c q N E ] m H [ 4 Z S B T V ] z.p.X.I N { l.T & h T D i B.X.; Z b ",
"h.i.C.h.7.d M k m g ] 9 w =   : g B 6 W q.p.w.4.3.I.o.2 a t.`.k.q n L N H 9 q H Z x K S ^ z m 4.t.m c.p.0.|.H.3.j Z .X|. Xo.O 8 ",
"f.g.g.A.-.6 Q ^ { W I x Y @.@.: # % | M.4.e.p.<.X.q.n.Z c.S.G.I.I 0 I a K l.8 a g v e f S | v g L p.,.e.o.:.e.l.3.R c.'._. Xw.# ",
"i.d.i.7.j k C S A Z x H Y U +.y.! g 9.4.$.8.<.u.4...$.L ,.:.t.b.G.a x ,.z.b.q a i < q i $ m 4 e.!  .4.3.<.O.q.l.g u c.b.P.}.XXE ",
"Z.d.6...u S k V S _ 4 Y J Y P Y ] r V ^ <.o.o.] ' 4.$.T %.p.w.j.b.T b.b.l.G._ = 4 < < 2 6 O ^ Y.B.<.$.2.q.<.p.' Z S :.l.c.B.R.|.",
"Q 4.i.u W k C A W Z v P U B B Z J B B h S C s s m } { ~ e.,.q.k.X.v N o.t.{ T ! C ' T E - m Z e.n.F.<.! q.M.X.g T W h } { ,.3.b.",
"F s g y C p S Z L e ' J U B B U A 4 1 4 g S S V m s , 3.c.l.#.N N _ $.E d #.b.E e.e.l.b.2 ] v ] k.n.I.u.! X.v ' N { 6 c.l.2.{ } ",
"g v g * $ @ g W A z | U Z S B 2 e f e e S B s h T 1.c.T a.Z g ! ] _ ' N r.r.1.R r.>.=.:., Z X.f o.M.B.I.F.4 U L V v V ! q.q.a.3.",
"c f f g A W % s 4 ! Z J B g p.r z B q r q A u.m.Z.Z.c.N.y ] ] { ` ` E m :.a.6.k e.1.e.p c m A T Z 3.$.z.&.4 n c Z S v  .{ o.{ %.",
"r x v 6 l._.S | r _ Z B | Y.I.% B t Z 5 h N.n.i.h.r.:.e..., i s n N E N t.e.>.D r.7.} 6 s h x I 2 a V U z | U B z e V L V T W A ",
"r z v # }.!  .$.Z e Z M.E.{.O.q B z c e B F u.u.:.=.6.h.m s.:.Z 0 q 0 c ~ 5.*.*.5.i.p s m v n A 2 g n g f x z A v q { $.X.g ! e.",
"g f q g (.v ..$.{ ^ >.] :.J.q i b x f ; g d T 5.5.1.r.r.C =.m.m.<.g ! L W V y -.:.u.6 g B B Z V 4 0 f v ; ' ! ^  .q ! ] ~ ] K.I.",
"f r 6 9.m 2.{ -.) S :.e.3.( q 3 8 8 f %.p C M *.;.>.7.*.) =.-.r.X.4 s V h W 2 o.Q V % 6 V B V 6 f 0 2 ; g q.:.3.3.v  .m I P.Y.F.",
"r f g K ] $.o.o. .S p.:...4.i :.~ f 3.3.v S D 5.5.7.>.D 3.) <.3.U c e g V 2 S <.:.B. .X g V V > f q 2 g ~ T V  .3.m { T B.L.<.! ",
"c n 6 r <.| <.<.F s :...p.m S ) L 8. .3.{ s F ..=.r.>.Q =.~ ^ <.A g s V S s o.o. .^ y.A X 6 B ; $ , ~ X.:.P.4.d T .., T W L  .^ ",
"f z 4 [ $.$.o.n T T m 0.T W ^ 5 o.o.$.:.-.y j ..>.f.=.{ $.{ $.V f 4 s Z g W O. ...O.o.g q V 6 5 ~ ..-.{ R _.L.m.{ 3  .4.O.o.O.$.",
"r x e @.K g v ! W p.{ L a N A 3.$.:.O.q M -.y & r.p.C p.o.T s n L L f 2 h O.o.|  .o.6 f s B A f T T T o.F U.'.P.}.Z $.o.O. .^ ^ ",
"v Z &.8.p.z.a ^ ] o.o.T :.~ T $...Z M r.p.o.C :., ) M  .a m A B A A L Z V 3.$.^ $.S q g 5 1 g 5 5.o.o.=.T ~ S ^ S $ V ! 2.2.2. .",
"b q._ 8.l.M.m ] Z  .:.N #.b.l.a k 3.p.1.3.C e.6.D i A 5 a a e 9 4 A S Z f ^ | o. .2 g q 5 f q - { ;.-.o.1.=.3.-.^ Y.s 4 6 ! V A ",
"e U X.! y.z._ Z ~ ! $.v o.X.p. .:.3...6.g :.1.e.p i S 4 4 1 8 9 5 4 c J f _ O.U - 1 4 f h 5 4 V V { ~ ~ ] { W B Y. XOX` 6 h g q ",
"r J f U X.p.n.c L $.~ ^ X.| o.| ..3.3.=.Q 3.1...$ f L q r I x 1 1 = e K v ^ B $.L.2.W 2 , 4 S s.<._.E.B.L.I.s. .W.I. XoX%.i W ^ ",
"0 U A J ` $.y.A E ] W O.$.#.X.B { 3.4.m f.:.4.g g g v I * f L U A Z 1 + B 4 p.`.Q.{.W. XF.e u.>.M.S  X X`.'.I U.D.S.`. Xp.g $. .",
"e f B J ! o.l.X.K ] n f s 0 r g p p.S e.:.q.o., i B v n   x : b Z Z Z P 4 | p.z.F.M.H.F.V q <.y.y.3.S { Z Z I I.a.z.L.'.u.e  .<.",
"f v Z g 1 A S O.f g r Z B v x f ; v S V m X.S 4 v g v r U * z 1 7 r Z H 4 H r H | &.p.! g B ~ y.y.$.] #.o.%.A z.l.K.N. Xu.h ^ ) ",
"f r 4 v M.x.y.~ | Z 4 r e s 1 c q  .p.4.<.L 4 g s g 6 #.W.B = r 9 9 w w 1 &.9.@.| | | 9 Z F g $.3.F ] %.8.8.I S.D.M.s.W.C % Q { ",
"v e f F.x.s.4.L O.M.v 4 6 f K x 4 L ] <.p.F.g 6 n g f D.K.T.U : r r 1 = w | @.@.@.&.2.! , V U { Z A g W ! %.@.o.s.s.H.V s.u.3 C ",
"(.q v 2.a.l.X.! O.n.F.c J B e 6 E.@.S [ { w.$.- v e z.D.D.F.{.@.O 1 t H r r | @.| _ | ~ B p.a.{ ! a.] e ! B I 8. .| S L.g.).P.j "
};
