/* XPM */
static char *result[] = {
/* columns rows colors chars-per-pixel */
"64 64 225 2 ",
"   c #030000",
".  c #090301",
"X  c #0D0803",
"o  c #0C0909",
"O  c #120904",
"+  c #130C0A",
"@  c #190F0B",
"#  c #160905",
"$  c #161007",
"%  c #14110C",
"&  c #1C130D",
"*  c #1B180F",
"=  c #191007",
"-  c #1B1412",
";  c #1C1914",
":  c #1D1C1A",
">  c #141312",
",  c #21140E",
"<  c #22180F",
"1  c #281A0F",
"2  c #231A13",
"3  c #281C13",
"4  c #231D1A",
"5  c #291E1A",
"6  c #201712",
"7  c #2B2115",
"8  c #24211C",
"9  c #2B221B",
"0  c #30241C",
"q  c #32291E",
"w  c #211E21",
"e  c #1F2120",
"r  c #252322",
"t  c #2A2521",
"y  c #2C2923",
"u  c #282529",
"i  c #302621",
"p  c #322A23",
"a  c #3A2E25",
"s  c #342D29",
"d  c #392C2A",
"f  c #343026",
"g  c #35312A",
"h  c #3B332B",
"j  c #3D3426",
"k  c #343331",
"l  c #3D3531",
"z  c #3D3931",
"x  c #3F3C38",
"c  c #42352C",
"v  c #433A2D",
"b  c #4B3C2E",
"n  c #433B33",
"m  c #4B3E33",
"M  c #443D3A",
"N  c #493E39",
"B  c #513E31",
"V  c #4F422C",
"C  c #4D4333",
"Z  c #43413D",
"A  c #4C443A",
"S  c #4F493D",
"D  c #524434",
"F  c #53473B",
"G  c #544A3C",
"H  c #5B4C3C",
"J  c #5A4A35",
"K  c #63533D",
"L  c #4B4543",
"P  c #4D4945",
"I  c #4A4747",
"U  c #544B42",
"Y  c #5A4D42",
"T  c #524D4C",
"R  c #534947",
"E  c #555144",
"W  c #5D5144",
"Q  c #5C534A",
"!  c #54524D",
"~  c #5A5555",
"^  c #5B5B55",
"/  c #5D5B58",
"(  c #575052",
")  c #594E52",
"_  c #635544",
"`  c #6D5D46",
"'  c #63554C",
"]  c #655B4C",
"[  c #6A5D4D",
"{  c #715E4C",
"}  c #725E47",
"|  c #695E52",
" . c #645D58",
".. c #6B614F",
"X. c #706244",
"o. c #73634D",
"O. c #78684E",
"+. c #6D6354",
"@. c #68645C",
"#. c #726454",
"$. c #766855",
"%. c #7B6B55",
"&. c #74665C",
"*. c #746A5C",
"=. c #7B6D5C",
"-. c #786651",
";. c #7E725E",
":. c #6E6A64",
">. c #696563",
",. c #736C65",
"<. c #7B6F61",
"1. c #766F6C",
"2. c #766761",
"3. c #7E7363",
"4. c #75726D",
"5. c #7D7B6C",
"6. c #767572",
"7. c #7D7672",
"8. c #7C7A72",
"9. c #797A7A",
"0. c #7C7678",
"q. c #72706D",
"w. c #846D56",
"e. c #816E5A",
"r. c #8B6F51",
"t. c #847256",
"y. c #84725C",
"u. c #8B755C",
"i. c #8D7A5D",
"p. c #897458",
"a. c #92765D",
"s. c #937C5C",
"d. c #987D5F",
"f. c #917757",
"g. c #816D60",
"h. c #827463",
"j. c #8A7662",
"k. c #867A65",
"l. c #8D7C64",
"z. c #847669",
"x. c #867B6A",
"c. c #8B7D6B",
"v. c #937E63",
"b. c #9B7E64",
"n. c #927E6B",
"m. c #827B73",
"M. c #8C7D72",
"N. c #847D7B",
"B. c #95825D",
"V. c #9A825F",
"C. c #8E816C",
"Z. c #958364",
"A. c #9C8364",
"S. c #9F8A64",
"D. c #94836B",
"F. c #9B856B",
"G. c #9C8A6C",
"H. c #858375",
"J. c #8D8373",
"K. c #84837C",
"L. c #8B867B",
"P. c #8C897D",
"I. c #8C8977",
"U. c #948572",
"Y. c #9B8672",
"T. c #958973",
"R. c #9C8B73",
"E. c #958679",
"W. c #958C7A",
"Q. c #9C8C7A",
"!. c #9A877A",
"~. c #9D927D",
"^. c #A08564",
"/. c #A3866B",
"(. c #A48C6D",
"). c #A98C6D",
"_. c #A38966",
"`. c #A08773",
"'. c #A38C73",
"]. c #A98F73",
"[. c #A38D7A",
"{. c #AB8F7D",
"}. c #A59175",
"|. c #AB9274",
" X c #A4927B",
".X c #AA947A",
"XX c #AD9A7E",
"oX c #B29575",
"OX c #B3967A",
"+X c #B39A7D",
"@X c #8D8486",
"#X c #8D8A82",
"$X c #8D8E89",
"%X c #868180",
"&X c #918E8B",
"*X c #978D85",
"=X c #939385",
"-X c #979887",
";X c #93938C",
":X c #9B948C",
">X c #949A8F",
",X c #9D998D",
"<X c #9F9280",
"1X c #988E91",
"2X c #969990",
"3X c #9C9C92",
"4X c #9A9593",
"5X c #A38E82",
"6X c #A39382",
"7X c #A4958B",
"8X c #A79789",
"9X c #B49D83",
"0X c #A09690",
"qX c #A39B94",
"wX c #A49D9B",
"eX c #A99C9D",
"rX c #AAA297",
"tX c #A79FA0",
"yX c #ABA6A1",
"uX c #B5A9A7",
"iX c #B2A9A7",
"pX c #C4B9B8",
"aX c #C5B9B7",
"sX c #C6C2BB",
"dX c #CAC2C0",
/* pixels */
"-X8.1.;XK.@.rXuXsXpXpXpXqXtXqXwXN.3X,X3X,XqX3X,X:X*X0X:XI.P.$X>X#X$XP.=X#X$X&X;X2X;X;X2X2X2X2X2X3X#X2XrXeX@XL.=X$X#X#XP.#XP.:X@.",
"-X4.L.:X:. .H.P.L.J.J.L.K.#X1X1X,.x.T.~.~.R.F.G.Z.A.B.U.I.C.I.I.H.8.8.8.7.4.1.6.6.6.9.9.9.K.%XH.9.q.yXyXuX&XK.#XW.~.I.I.L.^ q.^ ",
";X4.: : u : w r 8 e w ; u L Z L g ; : 4 : 4 : 8 : e 8 8 r 8 9 8 8 8 8 8 8 r 5 w 8 8 8 9 r 8 8 8 e ; ~ ! ~ ~ t w e e r r u : u : ",
"L./ ; z S S G P G G F A Z ^ :.~ n z N U G A G A F G G G D D A A H G G D H H F F G F S C P S G G G g Z I I L 9 N E S G U S A C v ",
"#XL.u G h.k.l.l.k.x.x.k.,.@X#XN.,.%.h.h.z.h.h.z.j.c.c.h.u.y.t.j.t.i.l.f.c.c.u.y.y.t.u.u.l.b.v.u.i.-.m.7.>.&XF t.y.e.j.v.C.;.=.] ",
"rXH.u S h.G.'.F.F.Y.Y.D.' 2.) +.@.k.M.n.Y.Y.Y.U.D.U.[.[.D.Z.D.W.B.B.R.A.F.D.G.D.Z.v.Z.F.).'.F.A.A.;.@.@. .m.` v.v.v.D.`.G.G.C.] ",
"3X#Xu G y.x.D./.n.C.D.D.D.D.U.`.E.Y.Y.A.`.`.R.T.s.k.l.F.R.D.T.W.R.G.U.F./.R.Y.U.D.D.v.l.c.Z.F.D.U.c.k.c.n.j.n.v.v.D.Y.'.R.D.l.[ ",
"5.^ : U k.c.D.D.A.v.D.D.D.D.Y.Q.R.R.'.'.).'.'.R.G.D.n.D.Z.n.U.U.U.T.[.].|..X[.R.G.U.v.n.D.F.'.R.U.Z.l.C.v.D.D.v.`.!.Y.R.Q.R.U.#.",
"0Xm.r U y.b.D.A.Z.V.B.S.S.G.F.F.G.D.G.G.D.v.v.D.'.R.D.D.Z.D.D.Y.C.U.R..X|.`.'.}.R.R.'.'.Y.].'.`.G.s.l.k.D.D.D.A./.Q.R.].6X6XW.*.",
"yXL.w J d.).'.(.Z.v.B.Z.S.(.A.D.Z.D.D.D.Z.D.Z.Z.F.F.G.D.F.D.U.!.J.Q.R.'.G.A.S.F.Z.Z.G.`.(.}.'.'.D.G.D.D.F.D.A.Z.Y.Y./.F.U.!.U.*.",
"rXP.w W v./.v.%.C.3.;.3.*.=.3.<.*.=.=.3.k.k.y.y.e.e.;.G.l.R.G.U.T.T.F.V.Z.V.o.t.O.O.o.%.t.u.u.w.t.%.O.%.j.j.y.=.y.w.=.=.c.U.D.$.",
"=XN.4 R j.n.n.g.g 8 : 4 8 4 8 4 ; 8 4 y y 9 8 9 8 2 8 9 !.XX XT.D.B.Z.V.s.s.t.c 2 8 ; 3 8 8 4 4 : 2 2 4 4 4 4 4 4 4 5 5XU.*XE.2.",
"-X4.: H z.U.E.c.:                     % o . . o         '.9X XU.D.x.Z._.s.A.p.c .               .                      XU.W.W.<.",
"-X4.: Q M.5X[.!.:                     % - X   +     . .  X9X XJ.U.D.G.).A.G.r.c               .   . .     .         . 3.h.U.J.@.",
"=X6.: Y E.6X6XJ.4             . . .   9 4 & X 2 . . . . R.XX XT.C.D.R.R.D.Z.r.a .   .     . . . . . . . . . . . . . . e.3.U.c.| ",
";X6.: Q T.~.Q.x.:           . . . . . h d 2 O a X X X X D. X.XU.J.U.R.R.Z.D.p.0     . .   . . . X X . . . . X X X X X =.=.U.x.[ ",
"3X9.8 P x.T.U.3.:     .     . X X . . c p 5 + j # O X X t.'.}.D.U.D.R.Q.v.].r.9     . . . . . . X X . X   . X X X X X g.c.[.!.&.",
">XK.8 U z.J.H.;.;       .   . . X X . c g 5 $ h O O O O u.R.'.A.D.U.Q.R.^.).s.p     . .   O X X X X X X . . X X # X X c.!.8X!.&.",
">X%X4 U x.U.U.k.:     . . . . X X . . c a 7 = j $ # X O v./.G.F.Z.D.Y.D.A._.u.p     . .   X # + X # # . . . # X X O X U.*X6X!.2.",
">XK.r U c.Q.U.x.' N n n h v v m C C m K H J V _ b b b b D.v.F.R.Z.D.F.R.F.F.U.] N N m b v B D D m m b m v n C m B b B 6Xc.[.U.#.",
">X9.9 R M.Q.U.] h.g.=.$.+.o.#.=.=.$.-.-.-.O.X.` } o.#.h.K A.F.(.A.Z.D.G.U.v._ *.k.g.<.e.w.t.w.t.#.+.#...+.*.#.$.#.=.z.Q n..XE.&.",
"3X9.r Q J.*XU.n.A././.^.b.A.G.U.T.D.l.v.Z.l.i.i.i.i.l.l.v.V.'.R./.D.U.D.U.A.D.Z./.Q.`.].oX|.OX}.Y.Y.D.j.z.C.U.G.R.C.Z.Q.[.5XY.&.",
";X9.5 R M.W.n.C.G./.A.A.^.(.'.D.U.C.Z.v.v.Z.Z.v.l.Z.l.B.B._.G.G.Z.G.Y.D.A.D.F.F.).(.'.oX|.|.XX.XG.Y.D.j.C.U.D.v.T.T.D.Q.Q.6X!.2.",
";X6.r U M.U.Y.l.G.R.D.G.F.D.U.U.D.C.T.T.T.R.G.G.G.G.G.'.D.F.F.v.f.j.G.U.Z.F.a.Z.v.Z.v.F.].|.].'.(.F.D.F.}.R.G.D.G.R.D.j.D.R.!.&.",
";X6.w U z.E.c.#.| U F R U U H S A S G E W E H G G G G #.l.}.(.Z.v.b.^.Y.d.Z.X.K D C V D H H H G D C V A H H G G H F F k.c.Q.U.2.",
";X6.5 R x.E.U.z.y .   .               + > X . % . . . .  XXX'.Z.A./.].F.d.s.l.c . .                         .   . . . rXY.*XT.&.",
"&X1.5 P M.W.W.3.:                     + > X . > . . .   F.9X}.f.Z.G.].[.V.u.=.5 .         . .   . . . .       . . .   x.U.5XU.+.",
"&X4.r U m.W.W.3.;             . .   . > ; % o 4 o   . . G.9X}.B.A.!.Q.Q.b.b.w.y .     .   X X X o o o X   . . . . . . h.c.Q.M. .",
"#X7.8 P z.T.W.3.;     . . . . . X X . p k 5 & s 8 X O O D.|.'.F.R.'.Q.Y./.).a.p . . X . . @ & = $ + & # X X # o . o + 3.z.J.C. .",
"=X7.4 P z.W.W.3.: .   . . . . X # X X l n 9 6 n f X # O v.G.S.F.D.U.R.(.oXoXb.a . . X + X 7 a l / *. .! T Y F C v m j 5.h.x.3.[ ",
"P.8.8 G z.J.T.3.;     . . . . @ ; 2 ; h Z a 0 l T P M s i.A.F.G.U.D.`.|.].].b.n > : k L F N z g y t s d d k l M M I 9 ;.3.k.3.Q ",
";X8.t U 3.C.C.3.8 - ; k I T T T y s z z N p 9 s t g y y i.A.G.G.D.D.'.[.'.`.j.d o o & 2 , 3 7 4 4 9 7 2 , , - , & - = ;.3.C.;.^ ",
"#XH.t A h.C.C.3.8 . . o # # # , - , , n M q & A p 1 , & i.G.).G.R.D.Y.[.[.`.g.p   o o + X 3 9 5 9 5 9 2 6 2 2 6 , @ q =.=.z.3.Q ",
"2XH.r C 3.C.C.y.:   . . X X . @ @ @ - k A q = h a = < , a.G.(.(.D.U.`.[.5XM.<.p o . % % # 3 9 9 9 5 9 2 , 3 3 , 6 , 9 #.=.k.=.Q ",
"$XJ.8 A 3.J.T.k.4 . . . o O . , & @ & l Z p 1 z f , , < Z..X).|.R.R.{.8X7X`.z.p o o + @ + 5 5 9 7 7 5 3 3 , 6 6 6 , 6 &.*.h.=.Q ",
"L.C.8 N h.c.C.;.-   . X X o . @ - & @ n A q 2 n j , 3 , Z.|.(.].R.Q.OX7X5X*Xg.t . o @ @ = 5 7 7 0 7 8 3 3 6 3 6 , , , &.<.x.5.] ",
"#XU.8 A ;.l.C.;.;   . X o # . @ @ , + n A t 3 z d , 2 * f.A.F.G.Y.[.6X5XE.U.=.9 o o @ @ = 5 9 9 9 9 0 4 2 1 3 , * < < *.<.c.5.] ",
";XT.: C t.s.C.;.2 . . X # o X @ @ ; + M L p 2 n h * < , u.b.A.A.n.'.'.R.Y.n.e.y o o @ , = 0 p i p i i 4 4 , 3 2 < * < #.<.x.3.[ ",
"3XB.8 C t.B.B.t.: . X o o # O , , - @ M L 0 3 C h , 1 3 u.^.Z.F.v.v.`.(.R.D.y.d o o & , = 5 i i i 0 i 5 2 3 3 6 3 2 3 *.=.C.x.[ ",
":XB.8 F ;.i.s.t.: .   o # # o @ 2 , @ N U 5 i M n , 4 3 d.).).|.b.v.R.`.6XG.h.y . o @ & @ 5 p p p y p 9 2 2 2 5 2 2 4 %.%.C.z.[ ",
":XA.: G y.l.l.%.; . X o + # o @ , , & m U % p p N 9 , 2 F.oXoX|.v.v.[.R.W.U.y.s X o @ 2 = 5 q p i t p 9 5 2 4 3 3 2 4 $.=.l.z...",
":XG.: S y.C.C.%.2 . . o + @ + & 2 2 * M U 9 O # q 3 < * v.OX+X).v.U.[.R.U.Z.;.y o o + 2 @ 5 p p p d p 5 2 2 4 4 w 5 9 =.;.C.C...",
"qXG.: G h.D.T.x.] n m N N n m F Y H F [ ..J V D H D b D D.A.OX(.D.v.D.Y.U.D.J.[ N A F F D H _ W R Y Y Y U U U Y W Y Y 5X3.C.3...",
"0X!.8 G z.U.C.] k.g.=.$.#.o.o.=.*.$.-.-.O.o.X.` [ o.-.3._ A.oX}.D.Q.Y.Y.D.Z._ *.c.<.<.w.w.w.w.t.#.#.+.#.| &.$.%.#.e.k.' c.D.C...",
",X~.; S k.U.c.C.A././.A.Z.A.G.D.T.D.l.v.Z.l.i.i.p.i.l.l.s.Z.'.(.D.[.R.R.F.D.D.b./.[.'.].oX|.OX.XY.D.D.j.k.c.U.D.Q.D.v.Q.Q.!.C.+.",
"qX<Xw G k.U.D.c.F./.^.A.^.).'.U.C.Z.Z.Z.v.l.Z.v.Z.A.B.i.B.S.'.G.D.Y.R.].R./.F.F.(.'.].|.].|.+X.X`.R.D.l.J.U.D.l.T.T.D.R.~.Q.D.+.",
",XT.: S j.U.G.l.G.G.D.G.G.D.D.T.D.J.T.T.R.R.F.G.G.F.R.'.G.G.R.D.G.R.G.[.[.G.v.Z.v.Z.v.F.].|.|.'.(.G.D.F.'.R./.F.G.Y.D.j.D.U.n.#.",
"3Xc.; U k.U.c.#.Z g d s p d s g p p y z C h h h h s f W k. X!.Z.[.`.F.}.Q.Q.} K D D V D H G J G D C V D H H G F H F F k.c.W.U.+.",
"eXC.> E c.U.n.x.. o   o o o   o o o . > - o o > > . o n  X6XD.D..XR.D.R.Q.Q.l.h o o o X X X o o X o o o . X o o o   . rXR.Q.U.+.",
"eXH.; G c.R.Y.=.o . o o   o   o + + o ; : % o - ; o o h c.U.U.D.8X].U.U.W.W.m.g o o o o o o % + o % > % X X o o o o o h.U.6XQ.2.",
"uXx.: S k.U.R.;.    o o + o o % ; ; 4 d g : - y s = - h k.W.U.Y.).'.C.H.W.W.5.f o o + o o % > - - ; ; > + % % % o > o e.v.[.W.<.",
"pXH.: S x.U.U.y.o o > > @ & % ; p t i N R p 7 z L 8 9 v =.M.U.D.D.G.U.J.I.W.z.p o o & : > 8 y y p y y y , 8 8 2 8 4 t %.i.].!.=.",
"dXI.: Q U.<XT.=.o o + - 2 6 - 4 s y p L R g 9 G P 9 7 m $.k.c.U.G.'.E.T.!.D.h.f o o 2 8 2 p g y s h a s 3 7 7 9 i t 9 w.l..X[.=.",
"pXL.; Q E.5XQ.h.  o + 2 4 6 , 4 s y s L P d 7 v N 9 7 m +.c.H.U.v.G.U.D.U.D.p.a o > 4 y 8 a h h h d h d 2 9 7 q i p 9 w.v./.v.o.",
"pXH.4 U M.Q.!.h.o o + 4 2 2 - 2 s d p ( T h 7 9 c q q C =.c.D.D.Z./.b.D.D.D.y.f o + 4 p y s h z l l h l 9 9 p q i p p %.y.A.j.} ",
"pXH.r S j.A.R.k.o o + 2 w ; - 4 p d y P E z 7 , q q 0 D y.b.v.D.F.F.F.Y.C.D.h.f > > 4 p y g h z l z z h 7 y p y i i p =.e.b.j.} ",
"aXJ.r S j.U.U.m.L M A F S U Y _ W ' _ _ H K J A J H D ` Z.s.s.A.A.Y.F.R.U.A.J.[ F F R Y H _ ] ] _ W W Q H E Y E Y H H  X3.Z.a.} ",
"uXP.w F k.U.D.] z.g.=.$.{ #.#.*.=.$.-.#.O.O.X.X.[ o.-.h._ s.s.j.a.Y.F.`.D.Z._ 2.c.<.<.w.w.w.w.t.#.+.#.+.+.*.$.$.$.=.z.Q C.A.a.} ",
"yXL.r D h.C.x.v.b././.A.Z.A.F.D.I.D.v.v.Z.l.i.i.u.i.l.l.s.B.A.i.Z.U.`.`.Y.F.D.Z.(.!.'.].oXoXOX}.Y.U.D.j.k.C.U.D.Q.D.l.Q.[.F.b.} ",
"#X<.: V =.k.x.C./././.b.^.).`.Y.D.D.v.v.v.l.Z.v.B.A.Z.i.B.S._.b.F.F.'.Y.F.A.F.F.).).'.|.].{.+X.XR.Y.D.l.c.J.D.Z.T.R.C.Q.<XQ.n.#.",
"L.q.r C =.c.c.D.A.^.^.Z.A.(./.F.D.A.A.D.Z.l.l.Z.G.G.F.Z.Z.A.A.'.'.G.!.'.F.D.Y././.G.'.'.Y.Y.[.'.'.C.Z.j.D.U.C.x.C.C.D.D.Y.!.U.&.",
"rX:Xe D y.A.A.A.A.A.Z.D.E.4X8XqXH.F.D.D.l.v.Z.Z.D.U.D.D.F.].|.|.'.].R.R.Y.G.R.'.'.G.'.|.[.n.D.Y.R.z.:X,X0X:X3.k.k.Z.C.D.D.U.D.$.",
"*X;X: H u.F.j.C.k.i.l.h. .0XsX;X..x.c.k.k.k.u.u.i.t.l.l.F.].G.v.C.D.M.c.[.D.D.`.}.R.U.U.`.R.n.Y.D.$.@XaXyX;X[ k.t.3.h.j.v.l.h.{ ",
"P.&X: n [ $.-.-.+.#.+.[ ~ >.M >.Q ..+.[ ..+.....` ` ..o.-.$.+.] #.#.#.| %.#.+.=.%.-.#.&.$.*.&.=.-.Y 4.~ ) 0.Y +.` _ ] o.} [ { { "
};
