/* XPM */
static char *result[] = {
/* columns rows colors chars-per-pixel */
"64 64 248 2 ",
"   c #040404",
".  c #0D0603",
"X  c #0A0B09",
"o  c #150C05",
"O  c #1B0D04",
"+  c #160906",
"@  c #0B1606",
"#  c #0A1806",
"$  c #12140D",
"%  c #1A160A",
"&  c #0C1418",
"*  c #161914",
"=  c #191E14",
"-  c #161818",
";  c #0B0D12",
":  c #240E05",
">  c #28170A",
",  c #3A1B0A",
"<  c #361A0A",
"1  c #261D17",
"2  c #341C12",
"3  c #0C2703",
"4  c #142704",
"5  c #173803",
"6  c #1C2519",
"7  c #1F2A19",
"8  c #1C2115",
"9  c #0C3903",
"0  c #3C230D",
"q  c #34230C",
"w  c #242A1B",
"e  c #392616",
"r  c #28301F",
"t  c #24341D",
"y  c #2F2E18",
"u  c #191E24",
"i  c #182329",
"p  c #1C2D36",
"a  c #252A26",
"s  c #2B3622",
"d  c #2C3A24",
"f  c #313A28",
"g  c #393B33",
"h  c #263034",
"j  c #4C1807",
"k  c #49250C",
"l  c #462914",
"z  c #4C2B12",
"x  c #462A17",
"c  c #582C13",
"v  c #4B3118",
"b  c #553216",
"n  c #593618",
"m  c #5D391A",
"M  c #57351A",
"N  c #512E0E",
"B  c #632A0C",
"V  c #673919",
"C  c #773816",
"Z  c #762B0D",
"A  c #563C25",
"S  c #49362B",
"D  c #643C24",
"F  c #164703",
"G  c #1A5A03",
"H  c #1C7803",
"J  c #1B6803",
"K  c #35442B",
"L  c #3B4B2F",
"P  c #3D4D32",
"I  c #3C4438",
"U  c #28460E",
"Y  c #77451B",
"T  c #6D411D",
"R  c #5B4129",
"E  c #435537",
"W  c #485C3B",
"Q  c #465738",
"!  c #4E4836",
"~  c #694427",
"^  c #7A4B25",
"/  c #734B2B",
"(  c #774926",
")  c #7B512C",
"_  c #7E5321",
"`  c #6A4C34",
"'  c #785638",
"]  c #6F5034",
"[  c #4E633E",
"{  c #60673E",
"}  c #2C3B42",
"|  c #39464B",
" . c #4D524F",
".. c #6C5A49",
"X. c #546A44",
"o. c #5B7348",
"O. c #596053",
"+. c #637D4D",
"@. c #786854",
"#. c #706E55",
"$. c #5B6569",
"%. c #6C716E",
"&. c #4E5C64",
"*. c #862E0C",
"=. c #84340E",
"-. c #8E350D",
";. c #843914",
":. c #863713",
">. c #943C13",
",. c #8C3310",
"<. c #88481B",
"1. c #95471A",
"2. c #93531D",
"3. c #A74B1A",
"4. c #814E25",
"5. c #8A4D22",
"6. c #885528",
"7. c #965728",
"8. c #825531",
"9. c #8D5A35",
"0. c #875B36",
"q. c #945D33",
"w. c #9C4E20",
"e. c #A65A27",
"r. c #B15B2A",
"t. c #99632D",
"y. c #8D6638",
"u. c #996537",
"i. c #96643A",
"p. c #956E34",
"a. c #AA632D",
"s. c #BD6A2D",
"d. c #BB6427",
"f. c #A9673D",
"g. c #A76938",
"h. c #B56D33",
"j. c #BC6D32",
"k. c #B56D3A",
"l. c #BD6F39",
"z. c #B46534",
"x. c #BD7333",
"c. c #B5743D",
"v. c #BD753B",
"b. c #BE7B3D",
"n. c #B6793B",
"m. c #AB7732",
"M. c #CA6A1F",
"N. c #C56A24",
"B. c #CC6C24",
"V. c #C36B2B",
"C. c #C66625",
"Z. c #C5722B",
"A. c #CA722A",
"S. c #CD7226",
"D. c #D17427",
"F. c #C26E32",
"G. c #C76B33",
"H. c #C47533",
"J. c #CB7C33",
"K. c #C47539",
"L. c #C47B3A",
"P. c #C97934",
"I. c #D06D29",
"U. c #976B46",
"Y. c #9C754C",
"T. c #8B6D4E",
"R. c #AC6D40",
"E. c #A56C43",
"W. c #AC7547",
"Q. c #B47544",
"!. c #B67D45",
"~. c #BC7C45",
"^. c #B77B4A",
"/. c #B57C50",
"(. c #AD774E",
"). c #897B65",
"_. c #8A5F43",
"`. c #C17C45",
"'. c #D77A44",
"]. c #1E8903",
"[. c #209A03",
"{. c #218E03",
"}. c #24AC03",
"|. c #26C003",
" X c #6A8653",
".X c #758E5A",
"XX c #7E9D64",
"oX c #7B8A71",
"OX c #B88E3C",
"+X c #F2AD07",
"@X c #CC8338",
"#X c #D2863F",
"$X c #DD9D19",
"%X c #FCD303",
"&X c #FAC103",
"*X c #BA8455",
"=X c #BD895D",
"-X c #B78759",
";X c #B28C56",
":X c #8C8A79",
">X c #B5926E",
",X c #8BAB71",
"<X c #9B874E",
"1X c #C5864B",
"2X c #C98447",
"3X c #CB8D53",
"4X c #C38B5A",
"5X c #C48854",
"6X c #CA915B",
"7X c #C9905B",
"8X c #D69859",
"9X c #D38F4C",
"0X c #C08C64",
"qX c #C8966A",
"wX c #D89A68",
"eX c #D49C68",
"rX c #CA9C77",
"tX c #C19774",
"yX c #D69F74",
"uX c #DAA46C",
"iX c #DCA066",
"pX c #CDA17C",
"aX c #D9A579",
"sX c #C9A169",
"dX c #E0A664",
"fX c #D1A046",
"gX c #9DCA79",
"hX c #6F7D83",
"jX c #78858A",
"kX c #9D9083",
"lX c #8B9393",
"zX c #9BBF80",
"xX c #BAA38A",
"cX c #ABA786",
"vX c #AEB4B4",
"bX c #96A1A6",
"nX c #C29F80",
"mX c #D3A981",
"MX c #C0AA92",
"NX c #D1B18D",
"BX c #C3BBAF",
"VX c #A8CD91",
"CX c #DFC89D",
"ZX c #D7CBAF",
"AX c #E9DDB7",
"SX c #DFD7C6",
"DX c #C1C5C5",
"FX c #F3F3D1",
/* pixels */
"uXwXwXwX8X4X3X1Xl.w.d.F.h.j.j.I.A.B.V.C.C.C.d.M.M.B.s.S.A.s.H.B.C.V.V.C.B.C.C.B.A.S.C.B.S.A.S.A.G.H.H.H.H.P.wXdX8X8X6X8X8X8X9Xd.",
"x.B Z *.-.=.:.>.:.1.s.j.h.V.j.s.s.V.V.V.C.N.C.C.M.s.B.B.S.A.D.B.F.B.C.C.V.C.G.I.M.B.M.M.S.Z.S.H.H.A.G.j.d.3.>.-.-.>.-.*.=.-.3.-.",
"K.=.3.x.k.x.v.v.k.z.z.7.5.F.s.V.Z.P.s.d.N.N.B.B.S.Z.B.B.C.V.j.s.D.C.M.M.C.N.C.B.M.S.M.M.D.S.Z.B.B.B.B.D.I.A.H.x.Z.H.K.K.x.h.l.,.",
"K.=.w.j.H.k.z.v.k.k.7.>   e j.x.s.N.M.Z.S.N.B.M.M.D.B.V.D.B.B.B.B.C.C.M.M.d.C.C.B.B.B.V.V.M.M.Z.N.V.j.D.P.P.Z.Z.P.G.l.j.j.z.~.3.",
"2X1.r.k.z.x.x.v.h.k.k.2 % 2.T     > J.B.D.Y   . > M.M.S.M.C.Z.B @ > : o k <.M.M.V O O : N.B.d.C.5.z N < a.4.5.6.7.H.G.k.L.L.2X1.",
"R.>.z.k.k.k.h.h.c.b o . +   . b N > B.M.d.T     > S.N.N.N.e.O . o O > < : <.d.N.2.O . o a.B.M.V.k > % 0 x.N.P.J.G.P.A.H.n.x.v.>.",
"1.w.x.F.k.k.h.h.h.  > o > . c + > 0 s.N.V.Y o   o Z.M.N.d.c : . k B.B.C.B.d.C.B.Z.> > o <.B.C.d.b 0 l 5.Z.N.P.D.A.x.h.H.F.K.e.>.",
"H.l.L.j.k.h.x.k.(   5.o +   7.  l X .     . .   o C.N.N.B N 0 k V.C.C.B.N.V.d.M.S.B % O 0 S.D.Y l < k Z.x.P.J.P.Z.V.F.J.j.H.l.x.",
"z.s.V.h.v.x.K.k.7.( + +     e l ( X             + d.V.S.N o > : > : . B , <.V.V.N.w.o O O e.M.N o O V x.V.A.A.D.Z.j.x.H.K.L.j.j.",
"h.s.k.V.h.s.k.x.h.s.% + V   b g.h.q Z.H.h.Y . : O s.A.d.c : 0 k > , k >   Y A.N.d.V.l > > c 2.  . . r.B.V.V.F.s.V.F.j.s.Z.j.x.k.",
"P.x.x.x.A.H.k.k.c.v.  o 6.o q > . < h.s.v.Y o   O V.V.C.w.o > O e.N.N.s.s.V.Z.N.V.N.T % o , k o   < V.C.V.F.V.Z.J.V.s.s.V.s.F.B.",
"d.A.P.H.H.F.x.c.j.x.O > 6.  x + X z H.x.H.5.X   0 r.z N d.V   z < m a.Z.V.d.C 0 b V.a.o O > X : . 2.5.> 2 V.V.s.P.J.F.j.j.V.F.A.",
"x.Z.x.v.H.x.K.h.Z.x.v > a.> v   X 0 @XJ.@X<.O o > > +   q s.C       o o   z . X . Y x.2 : o o . O s.. o o m V.l.s.j.x.@XH.H.P.C.",
"Z.k.h.V.x.V.h.s.H.t.> < Y M n @ . q J.x.h.Y   . , d.q > e.N.H.s.d.T b > . ^ c o k N.H.V.> o   O x.h.Y . : z.J.F.s.H.Z.P.L.J.P.K.",
"P.P.x.x.x.V.H.h.x.j.P.x.Z.@XP.x.H.J.H.Z.H.x.@XJ.x.x.s.D.s.G.V.s.x.@XP.K.@XP.s.s.h.j.k.V.h.H.H.z.k.j.H.H.H.J.J.H.x.@XK.2X2X`.2X@X",
"V.h.z.5.V n n n n n b n n n n n n m M b m n c b c n n T w.Z.H.H.x.K.2X@X@Xv.x.s.F.V.j.l.x.s.x.k.j.j.j.x.P.K.x.H.@X@X2X9X2X1X9X2X",
"Z.a.V C W.aXaXpXaXaXaXaXaXmXaXaXaXaXaXaXaXaXaXaXaXaXaXqX3.7.z.F.@X#X2X6.      # @ # # # 4 # @ 3 3 3 4 # # 3 @ # 3 @ #   @ X uX1X",
"h.T 1.aX3XF.F.P.H.H.F.s.@XJ.x.F.G.P.j.J.F.h.F.J.G.F.V.F.K.3.j.F.H.K.J.6.@   # 3 9 9 3 3 3 3 4 4 3 4 4 3 4 4 3 # 3 X @     # sX1X",
"@XY z.8X@Xh.H.H.V.J.J.@X@X@XJ.v.K.c.J.H.H.x.j.H.H.s.s.L.z.<.h.`.s.j.K.4.3 3 9 H |.H G F ].[.[.}.].}.].}.J |.].|.].|.H 9 # # wX@X",
"x.6.x.3XS.F.j.`.dXuXwX8X8X8X8X1X2Xx.K.H.J.P.s.F.x.z.V.j.a.^ z.3Xj.j.x.<.9 9 J }.|.|.{.G [.H }.}.}.|.}.|.}.}.}.|.}.|.[.F 3 3 7XK.",
"P.5.j.8X@XJ.eXsX(.E.@X@XJ.F.~.=X9XJ.h.j.j.j.h.h.h.k.V.s.r.4.f.`.s.j.z.6.5 F ].}.|.|.[.G F F G G G G F F F F F F F G 5 5 @ 4 3XL.",
"x.5.F.9XH.8XeX#X`.i.` h.K.U.Y.`.K.n.d.d.x.K.P.J.F.j.h.j.a.^ z.4Xh.x.x._ 9 9 G }.|.}.G 5 5 5 G |.J }.J [.{.[.{.[.J 5 5 # @ # 3Xk.",
"J.5.h.8X1XeX~.H.P.k.v ; % a 8.~.H.J.j.1.j.K.x.k.H.x.h.h.z.^ z.`.H.h.h.Y 3 3 F ].[.].5 5 5 F [.|.}.|.}.|.}.}.}.|.].F 5 4 @ 4 8XK.",
"@X^ z.5X9X!.a.4.A : %.vXvX%.$.%.| hXvX' a.x.j.H.J.x.x.x.r.4.l.5Xx.x.L.6.    # G H G 3 3 4 5 F G J G G J J G J G 5 5 4 #   # qX2X",
"H.4.K.4X9X2X3X3X4X..%.h i u i & ; p p i bXjX| Q.h.k.h.k.g.^ z.3Xb.v.^.)       3 3 3 # X # # # 3 4 3 4 4 4 4 4 4 4 @ $ @   4 rX2X",
"n.) k.3Xh.K.L.`.v.^.kX:XkXcXg $ %   X X ; ; | jX_.f.k.l.a.( k.5Xc.Q.`.5XrXrXpXnXrXrXrXrXnXrXtXrXtXrXrX>XrX>X>X>XtXqX>XrXmXmXeX1X",
"L.6.Q.3Xx.h.L.K.6.>X`.r.e.7.' S e , : : O   & hX%.! g.z.g.( l.qX~.`.0X6X4X3X`.L.h.c.n.k.c.W.~.~.!.Q.k.!.!.Q.h.m.c.v.J.1X*X5X7X4X",
"L.^ k.6XQ.x.;.1.Q.~.v.v.h.f.g.6.C j Z 6.V x -   } h ( a.a.( z.=XQ.`.qXS                                                   ..4X*X",
"2X( k.0Xv.c.k.<.Z 1.1.w.1.C j j B e.K.h.r.4.b &  .p 1 6.a.( R.=X!.3XqXS   + D j > :XS e pXt.0 N x l e :Xy 4 ! O + D j . . ../.*X",
"Q./ R.=XQ.Q.Q.K.L.j.w.:.Z -.w.h.c.v.c.l.z.7.C e - - - ` 9.( f.4Xb.1X1XM o O : > q y l n m T _ 6.6.6.4.Y Y n n k 0 < > : o ] b.L.",
"c.) (.xXkXkXkX:XkXkXkXkXkXkXkXkXkXkXkXkXkX@.V l & u   x 6./ k.=Xc.b.c.b q N v b R _ t.<XOXOXfXfXfXfXOXOXOXp.m.t.6./ ~ S v ) *Xn.",
"`.) R.Y.7.q.u.t.q.t.u.t.7.q.7.t.q.q.9.7.9.4.4.T X     e ( ~ f.=XQ.v.c.b O O O : q N N _ <X<X;X,X;XsX;X;X<Xp._ Y m b z 0 q D Q.b.",
"~.) R.Y.8.( m A T 5.( n T ^ ( ~ T ( V ~ 7.q.9.V ; } - % / D R.0Xc.W.Q.c < +X+X+X&X%X%X$X<X(.A ;X$X&XOX;X;XAXZXT.FXcXO.BX .C `.Q.",
"c.) R.T.0.q.t.( 0.q.m.g.t.( a.q.g.9.q.q.u.q.7.9.;     1 D ` R.>XW.!.k.C B B B B V T ) p.*X5X6X6XsXY.-X;X<XAXMX{ FXcX@.ZX%.;.W.Q.",
"(.) R.Y.8.u.y.7.8.6.8.q.t.9.9.9.9.y.i.u.u.q.i.9.  p ; o A ~ i.(.E.Q.R.e.2.+X%X%X%X%X%X$X*X;X' *X$X%Xm.*XU.ZX).s FX>Xa ZX .V k.b.",
"Q.) f.(.q.q.u.6.9.u.u.u.7.u.E.i.0.g.E.g.i.9.U.E.+     > D A 0.Y.U.u.R.z.x.c.y.9.y.y.y.Y.3X3X*X3X7Xy.E.c.U.kX%.1 bX:X6 :X&.T c.b.",
"!.^ f.Y.~ 8.u.8.T ) R ) ^ 8.( / ' ) / y.Y.). .&   lX-   + S _.T.8.9.W.iXuX&X%X%X%X%X&X+X;XaXT.;X$X%X$X=X1XL.I.V.:XlXS G.V.J.2X2X",
"*X^ g.Y.u.q.t.y.t.y.u.u.9.U._.y.i.i.i.bXlXu       ;   X hXDXlX%.` / f.NXCXCXxXpXMXMXMXZXSXSXSXSXCXNXmXZXSXFXFXFXSXSXCXNXNXCXwXL.",
"n.) k.(.~ ) ) 9.A T S 9.~ A ) ~ R y.@.h &.      a u   I jXh u a p ! A 0 : + + % O + . o @ X . . o . . . . + . + : O O : : < N ^ ",
"Q.] R.T.t.0.0.t.u.t.t.t.i.9.9.9.u.T.vXbX    % ;       g a a u u u h S ` A e < < , , > > : > % > O o O o O O : : > > < < k D U.W.",
"W.) k.Y.v / D ~ M 2 ~ R e b e 0.0 e & ;   o + X X   2 v _.wXwXE.x e ` ..S e 1 2 2 e e 1 q 1 > > > 8 > 1 > : w q 2 2 e x ~ ..4X=X",
"k.^ R.mXxXxXxXxXxXNXxXxXxXMXxXxXxXxXh }   ;  .p     A q.c 1 - + c 5.8.` X     .   - = s o.{ .XK E ,XgXP L  X XP - . ; & ; ..nX1X",
"c.) E.U.4.] ) ) ) 8.8.) 8.) ] ' 0./ w     a | $   + e 7.1 ;   . k V 2 A     X     8 6 t t K K K K L P [ [ { [ P s   X X .  .sX1X",
"c./ R.5Xv.c.c.~.c.2XQ.c.*Xn.c.c./.E.q.a   lX .    2 A ;.O I  .$ M l e A     X - W o.W +..XXXXXgXVXgXXX.X X X X{ Q         ! 0X~.",
"l.^ R.3X5XNXuXuXaXuXyXpXyXrXmXrXmXrXrXA  .&.;   % x D Z : lX$.- < : x m   X X + 8         t K K L t % 4 $ X K [ w w . . . S =Xv.",
"Q.( R.4X1X8X8XfX*X*X*X3X*X4X5X=X*X0X=X).DX$.  ; > A ) x , $. .+ : + V D   ; = w K = K W d  X.XXXgX[ d X.W r XXXXd w : . . ` -XQ.",
"c.( g.3X*X;X2X*X`.@X~.Q.!.Q.*X^./.(.(.).&.& ;   - D 6.x , oXhXu > k ^ T.  X 6 a L E  X.X[  XXXXX,Xo.W  X[ Q VXzX+.% : + X  .*XQ.",
"~.) c.=Xs.-.Z =.=.1.=.C ;.<.>.C C C ) vX&.  X X ; 2 8.8.c O.$.- < V 9...    X 6 6 w t r d d K K K d s s d d d +.X.> , + + @.^.c.",
"L.) W.7Xb.!.c.Q.c.!.c.*XQ.W./.(.W.^.>X| u & . ; & = ~ 9.V 1 2 : < ( q.@.;   $ 6 r r < k > E [ o.o.+.+.+. XX.o. XE < > o $ ..Q.c.",
"b.6.g.4Xb.~.n.^.!.W.W.Q.c.W.OX*XW.(.hXjXX ;   +     A / x > < j A U.(._.; ; @ @ $ 8 $ x ] R w 7 t t w o.[ t [ .X` M w 8    .^.c.",
"b.) R.0X5X-X5X5X5X=X=X5X*X5X*X*X-XY..   X $ > * u   % / ` x l c 8./.>XT.$ = 6 6 t L s 7 t M v v l v l v v v R R L t K f $ @.^.Q.",
"@X) c.qXqXuXqXsXqX>XrXeXqXqXqXqXtX$.%.h $ > x w * X ; ~ _.A C U.(.>XrXT.* i t 6 L [ Q U Q K 7 t t 7 # % % 8 7 6 7 t t f 6 #.v.*X",
"W.~ E.4X5X/.1Xb.Q.!.Q.!.n.2XQ.Q.Q.>   ; o k ( x $ ; * A 0.` 8.>X>X4X=X).+ 8 6 6 K E P P W W K d P L t t t t t t 6 = t a = #.^.Q.",
"!./ E.=Xk.w.Z C C C =.C Z C ;.C D $.| ; O v 9.~     ; a ' ] 7./.0X0X/...X = 6 6 t L 7 6 d d 7 t X.K $ 6 = @ $ t W = t P s ..^.Q.",
"~.^ R.=XW.R.Q.W.R.Q.c.W.h.c.c.W.y.      v ) p.g.a | ; e ' ( U.0X0X/.0X..$ = w 6 t K t 6 d K 7 s Q K 4 t 6 $ * 7 W * d E f @.*X~.",
"R.) R.=XQ.Q.~.Q.b.~.Q.!.c.n.n.*X..jX}   A 0.g.g.h h + 1 ' ../.mX0X0X0X0.* - 7 6 t r w t E E K P L K 6 P P t d K K 6 r ! f %.~.Q.",
"k.^ f.0Xc.Q.~.!.Q.v.Q.*XL.Q.Q.*Xm X   % ~ q.U.).%.$.+ S ` ' (.tX/.5X0X..% % - a W :X.XL Q W K  XvXzXo.L W f P ,X,X+.h s f @.0X^.",
"qX8.n.7XaXaXqXeXpXuXqXuXuXqXeXeX%.%.|   x q.;X$.p & + S ' ' (.qX/././.' ; * $ r  .+.%.P t d Q XX,X,X+.L r d X.oX:X.XE 6 a ).nX5X",
"7XY g.3X1X1X`.v.Q.c.`.Q.n.~.W.Q.u.: u lXbXhXjXi     x D 8.' W.tX/././...X X + i I L I g 6 8 g W X.+.O.L = s W +.W I f 8 - %.rXR.",
"^.<.7.c.g.c.h.z.r.a.a.a.a.a.a.e.;.c .           . % x D A ) NXqX*X4XtXT.- $ $ r K g I g t 8 K I W o.X.K = d  .X.P I h 6 + @.tXr.",
"1Xe.k.e.B j , k , , < k , , j < < : . .   X . . . . % l <.aXpX=X/.0X0XNXNXnXcXxXnXrXtXnXpXnX>X=XqXrXrXpXpXpXpXrXtX0X0XqXqXqX0Xe.",
"3Xc.~.1XqXaXaXmXaXpXaXaXmXmXmXpXmXyX/...S e S ` ] (.qXmXCXmXuXaXaXaXaXmXyXyXyX8X`.~.~.~.*X*X/.~.~.Q.!.2X~.~.`.~.~.~.R.^.2X1XeXr.",
"'.8X9XwXiXdXdXuXwXiXeXwXwXwXwXwXwXdX6X`.z.7.q.r.G.G.'.'.'.'.'.'.'.'.'.'.'.'.'.'.9XwXiXwXeXwXwXeXwXwXwXuXwXyXwXyXuXiXwXuXdXaX'.,.",
"3.,.,.*.-.>.=.*.=.*.*.=.-.*.=.=.*.*.*.,.C *.=.,.,.*.=.*.=.*.Z ,.-.:.=.=.C =.:.*.=.C ;.;.=.C =.:.:.C =.:.*.:.C *.*.:.:.=.>.=.-.,."
};
