/* XPM */
static char *result[] = {
/* columns rows colors chars-per-pixel */
"64 64 100 2 ",
"   c #020202",
".  c #080505",
"X  c #090907",
"o  c #0C0B0B",
"O  c #110E0E",
"+  c #11110F",
"@  c #141313",
"#  c #191716",
"$  c #1A1915",
"%  c #1C1B1B",
"&  c #201E1E",
"*  c #21211D",
"=  c #222121",
"-  c #282626",
";  c #2A2A28",
":  c #2C322E",
">  c #343834",
",  c #363F3B",
"<  c #39423B",
"1  c #3C4944",
"2  c #434746",
"3  c #414A45",
"4  c #444E4A",
"5  c #47524C",
"6  c #4B534E",
"7  c #465050",
"8  c #4D5452",
"9  c #4D5B54",
"0  c #4F5B59",
"q  c #515755",
"w  c #535B56",
"e  c #565D5A",
"r  c #595E5D",
"t  c #56625C",
"y  c #5A635D",
"u  c #5E685F",
"i  c #566360",
"p  c #5D6562",
"a  c #5E6964",
"s  c #5F6C69",
"d  c #5E706D",
"f  c #616663",
"g  c #636C65",
"h  c #626C68",
"j  c #64716C",
"k  c #6A736D",
"l  c #6B786E",
"z  c #6C7471",
"x  c #6D7A72",
"c  c #707573",
"v  c #727C75",
"b  c #737D7A",
"n  c #787F7A",
"m  c #6E8376",
"M  c #76827C",
"N  c #79857E",
"B  c #76897E",
"V  c #7B8B7F",
"C  c #758581",
"Z  c #7B8781",
"A  c #7D8B84",
"S  c #7C8D8A",
"D  c #7E9085",
"F  c #818C86",
"G  c #838F8A",
"H  c #829187",
"J  c #85938C",
"K  c #8A948E",
"L  c #86998E",
"P  c #8B998F",
"I  c #879690",
"U  c #8B9692",
"Y  c #879892",
"T  c #8D9A94",
"R  c #8E9B98",
"E  c #929B96",
"W  c #939C99",
"Q  c #989E9B",
"!  c #8DA297",
"~  c #8FA098",
"^  c #91A197",
"/  c #94A49C",
"(  c #99A39C",
")  c #96AA9E",
"_  c #99AC9D",
"`  c #96A6A1",
"'  c #99A6A1",
"]  c #97AAA1",
"[  c #9CABA4",
"{  c #9EAEA9",
"}  c #9EB1A9",
"|  c #A0ADA6",
" . c #A1AEAA",
".. c #A1B1A6",
"X. c #A3B2AC",
"o. c #AAB4AE",
"O. c #ABB9AF",
"+. c #A7B6B1",
"@. c #AAB6B2",
"#. c #ACB9B5",
/* pixels */
"/ ' { { { [ ( { ( ) ! ^ | .. .+. .X.+.X. .' ' _ `  .| o.@.o.@.o.' X.( ] / / ]  .'  .+.] [ ..| X.[ ..{ [ ' ) ( ..X.[ [ { [ ]  .{ ",
"W ' '  .{ ) ! [ ..! ] ' ] ' ) X.X.[ '  .) ~ [ | ' ( | @...X.o.[ ..+.{  ./ R X...{ ..{ ) } .._ [ ..( ~ ' ] ` ~ ] ] [ {  ._ ' { ' ",
"A C Z M Z A M F G B V A F Z S F I J Z F Z F J K G F F Z J J K J G G Z F F S G J A Z F A F G F V F Z B J G F A Z A B S J Z Z b Z ",
"K U G F N F K K K J D F K J T U K G J J F J F G P J K F K J U J I A J J H H C F J B F S J H T J K F K P J I F A H S V Z J K P T ",
"n Z b b x j t t u u p a a u f y t 0 e u a q e i y f a p f a y p y 9 r y q w t e t i y t i e p i t r t y y g t a y q h v c m N N ",
"( ` W Z N r + O @ + @ + o + @ o o O o o O . o o X X > w 3 e a p a p t 3 r < o . . . . . . . o o o + @ + @ @ @ + O + y M J K ( Q ",
"| { ' F A f     .   . .     .   . .   .     . .   . q x f B Z M Z Z B f N g @   . .   . .   X .   . .   . .   .     t N J [ [ ^ ",
" .@.{ F J y X o X . o o . o o . o o . o + . o X . X a M N Q ^ U W ' E k F k $   . o . o o . o o . o o X X o . o o O e S G } ..' ",
"' #.' A U e o o o o O o o o o o + O . + o . + o . o k J A [ ..W ' #.' Z U b #   X X X O O X O O X o + . + o . o o + w G Z [ X.W ",
"f +.{ J K r   . .   o o   o .   X o   o .   o .   X x U S ] A h a @.' I P Z $   . o   X o   o X   X X   o o   o X . w L F ' Z h ",
"j  .X.I E t o O @ o @ @ o @ @ o @ @ X @ @ o @ @ . o v R F ' L < k  .+.J E b % o + @ o # @ O @ @ o # @ o @ @ o % + + e T F _ L < ",
"/ +...F T r o O @ o @ @ O # @ o # # o # # o # @ o @ v ^ J ] ' Y ` +.} G T M % X @ @ + @ # o % # O # # + # # o # @ o e ~ J ' [ Y ",
" . .] A P t   X o   O O   o o   O O   o o   o o   o x E J / { ` { { ) S P N %   X o   O o   + O   O O   o o   o o   w T G ` { / ",
"X. .' A J e X @ # O # % @ % % @ & % @ & % @ = % o @ j U F } ( [ X. ._ A K v * o # # + = % O & # o # # O @ % o % # o 9 J G { ` [ ",
"{ X.[ S S w o @ @ O % # o % # o % % o % % @ % $ o $ a J S { { | { X.' S Z m $ X @ # + % & @ % % + % % O % % O % @ o 8 J S { } | ",
"( ^ _ Z Z t   o o   + @   + O   @ @   + @   @ o   o h J J ' [ ) ( ^ ] A A x $   o +   @ @   @ O   @ +   o @   + o   q K G _ [ ` ",
"_ T ' V B t O $ % @ & = @ & & @ = = @ = = @ & % + # z R G ] ` ' ) T _ V B m * o @ & @ = = @ = & @ = & + = & + = @ X p R G ` ( ] ",
"] ) ^ B H w X @ % + & & @ & & + & & + & % o & % o # a T J ' [ X.] ) ^ C H j % o % @ O % % o = # o & % O % % o & @ X e U J [ ] X.",
"{ ( ..G Z y . o @   @ @   @ @   @ @   @ @   @ @   o k J J } | X.{ ( ..G Z v *   o +   @ @   @ @   + +   + @   @ o   e J J {  .X.",
"_ { [ S U j o $ % @ = = @ = & @ = = @ = & @ = % + # z J S { } ..]  .[ F L M = o # % @ = = @ & & @ = % @ & & @ & % o i K S { X...",
"o./ ! C L g + @ % o & & @ % % @ & & @ = & @ & & o # z / G [ +.+.o./ ! B U b % o # = # = - % = - # = = @ % - @ & % o p W J ' +.o.",
"A { ( A F g   o @   @ @   @ @   @ @   @ @   @ @   + c W R +.#.U A { ( A A b %   O O   @ @   @ @   @ @   + @   @ o   p E W +.#.T ",
"v X. .A A g + $ % @ = = @ % = @ & = @ % & @ & % o # z E W +.W k b  .} Z A x = X @ % o # = o @ & o # & o # % o @ # o p E E X.W k ",
"M [ ..M F h o @ % + = & @ % % @ & & @ & & @ = % o @ z U R @.' q Z [ ..M A C % o @ % O = & @ = & @ & = + % = @ = % o p U R #.[ 8 ",
"T { ' Z G h . o @   @ @   @ @   @ @   @ @   @ +   + z Q R +.] R T  .' Z J M $   O +   @ @   @ @   @ @   @ @   @ o   p Q R +.' R ",
"[ ( ' C K z + @ & @ = = @ = % @ = & @ & & + % & o @ z W R X.[ [ ' ( ' C K N = o @ % @ & = @ & = @ & % @ = & # = % o p W R  .{ [ ",
"[ / / A K k o @ % @ = & @ % = @ = & @ & & @ = % O # z Q U ' '  .{ / ^ S U Z * o # # @ & & @ = & @ & & @ & & @ & % o f W I [ `  .",
"' { [ Z T h . o @   @ @   @ @   @ +   @ @   @ O   + c W I [  . .' } ' Z U M %   o o   @ @   @ @   @ @   @ @   @ o   f W I '  . .",
"{ { { b K k @ % % % ; = # - = @ = = @ - = @ = & @ # c Q G  . .[ {  .{ b P n * O # % @ - - @ - = @ - & % - = # - % + a W G { { [ ",
"{ ' ' A J f + # = @ = = # & = @ = - @ & = @ = = @ @ h T U {  .' [ _ ' A J c * X # & @ & - @ = = @ & = @ & = @ & % + r U T {  .' ",
"] { ] A J y   o @   @ @   @ @   @ @   @ @   @ o   o z W I ' ' [ [ { ' A K x %   o +   @ @   @ @   @ @   @ O   @ o   p Q K [ ' [ ",
"[ .. .G F g + $ # @ % = O % & @ & & @ & & @ & & @ # k I K { { | ' {  .G H x = o # @ @ & = @ & & @ & & @ = % @ & % o r I K  .[  .",
"......A A p o @ @ o % # o # % o % % o % % o & # o @ k J F /  ...}  ...F A x & o @ % @ % = @ = = @ % = @ = = @ % % O p J A /  ...",
"+.[ [ B A s   o @   @ @   O O   @ @   @ O   @ o   o k G K _ X.o.X.[ ] Z D v %   o o . O @ . @ @   @ + . @ O   @ o   p G K _ X.+.",
"W X.] S S h + # # @ = & @ & % @ & & @ & % @ & % O @ z T K o...J ^ X.] A F v = o @ # @ = = @ = % @ & % @ & % @ = % o p U K o. .J ",
"i ..' N F g o @ + o # # o # @ o % % o % % o % @ o @ k E F [ H t t X._ Z F m & o @ # O % % O % % o % % o % % o # # o i W A { G e ",
"k ( ! Z F h . o o   + + . o o . + @   O o   @ o   o z Q G ..T w j ( / Z G M $   o O . o O . @ O   + + . o o   + o   y Q G ..T e ",
"/ ) ) S I j o # % @ = % @ = % @ & % @ & % @ % % o # x Q K ^ [ [ / ) ( A U M % o @ @ o # % o % % o % # + % # o % # X y Q K ^ [ ' ",
"' [ ) K G h O @ # o % % o # # o # % O % % O % # O @ k Q J [ { [ ] [ ] J J b $ o @ # o # % o # % o # # o # @ o # + X a Q K [ [ [ ",
"} ' [ F U a . o o   o O . o o . + +   o o   O X   X k W J | | _ } ' [ F T v $   X o . o +   @ o   O O   o O   o o   y E J ...._ ",
"} { ~ B K f o o # o @ % o @ # o @ % o @ # o @ @ . o k W U  .X...} { T V U x =   o @ X + # o O # o @ # X @ @ X @ @ . p W U ..X...",
"_ { / V J a o @ # O @ % o # # o @ % o % # o % @ o O k R U  . .[ _ { ( V J x % o @ $ o # % o # # o @ % O # % o # @ X y T K |  .{ ",
"| [ ..S J g   o o   o O . o o . O O   + o   O X   X z E K X. .[ | } { F J v %   o o   o o . o o   O o   O o   o o   y E K X.{ [ ",
"( ..[ A J g o @ @ o % # o # # o @ % o @ # O @ @ X O z Q K | | _ ) ..] Z J v % . . @ X @ @ o @ # o @ # o @ # O @ @ . r Q P | | ' ",
"( ..) F T a o + @ o @ @ o # @ o @ @ o # @ o # + X o v ' E @. ._ ' { ) A U x %   + @ o @ # o # @ o # # o # @ O @ @ X p Q E +. .[ ",
"{ ..{ J J t . . o . o o . o o . o o . o O   o X   X c Q E @.o.X.[ .._ C F x $   . X   o o   o O . o o   O o   o X   r W E +.o. .",
"o.[ [ F J a o o @ o # @ o @ @ o # @ o # # o # @ X + c U Z | +.#.o.[ ) l Z z % X + @ o # # O @ # o @ # o # @ o # @ X e U P | @.O.",
"{ X.) F Z p o o O o @ @ o @ @ o @ # o # @ o @ @ o o k T Z | +.[ [ ..L t M x $ X O + o @ @ o @ @ o @ @ o @ @ o @ O o e W T ..o.| ",
"a #.[ S J a   o o   o o   o o   O o . o o . o X . X z Y d ] ! j a X.! t M x $   X X   o o   o o . o o   o X   o X X w R I +.T j ",
"d ..X.V B g + O @ o @ @ o @ @ o @ @ o @ @ o @ @ X o z G a ! ` w d { ~ 9 x m $ . o + o @ @ o @ @ X @ @ X @ @ X @ O @ w I I [ ' 0 ",
"' [ | F H y + o o . @ O . @ @ . @ O X @ O X @ o . o d I a L ` ` ] ] L 9 Z l $ . + @ X @ @ o @ @ X @ @ o @ @ o @ O # 8 U T X.' ` ",
"..| | J F t o o o   o o   . o     o . o o   o X   . z R t S ) ( ..] Y t B l $   X     X X   X X   X o . o X   o X @ 7 W K X.' ` ",
"{ _ X.S M y $ o O o @ @ o @ @ o @ @ o @ + o @ O . + s R t S ` [ { / Y t x x # . O o o O O X + @ X O @ X o o   O o # 1 W J / [ [ ",
" ./ W A D t @ o O X o o . o O X o o o o O X o O . X i I t D / / } ^ Z w M z $ . o o o o O . O o o o o X o @ o @ o % 1 J J { ] ^ ",
"' ^ ) G D q @   .   X .   . .   X X   X   . X .   . i S i A ! ^ ] L m 5 C k #       . . .   . .   . X . o   .   . @ < J S { X._ ",
"/ ] X.F H e % . o . O o . O o X o o . o o . X X . . e b 5 a C m B m j < M h @ . o o   X X . X o . X o   o .   o o @ 3 S A [ { W ",
"` ' [ Z G p ; % % @ # @ O O O o o o X o + X X + X . 2 g , 5 w 6 5 6 4 : f 6 O . o . . o o   o o o + @ @ % # % * * * 6 G Z | } { ",
"z h k z v h r r e w e e y p e q 0 w 5 8 7 5 w w 8 8 q 7 8 w w e w 6 6 6 6 q 4 4 7 7 3 3 4 3 6 w e p r e q q q 4 6 6 f N k k k z ",
"J J U Q K G J R Q W T E Q R K J U R J G U R ^ T U J J J J J L W ( ( J K K U K J T J G J I T E T J R W T W Q Q E U P F G W Q E U ",
"U Z K J T F Z I R R T W T J F J J G J F J F I S F Z F Z S N H Y J J J Z K U T U U C A S J J I U J J T J E E P K U J M N Z F F K ",
"_ ) { [ [ { _ [  .+.#.X.+.[ { { [ ] _ { { ) ] ' ' [ } ] ( _ ` [ [ } o.{ [ @.+. ./ } _ { ..W X.X.{ X... .@.+.| X.| _ ) ' W [ | o.",
".. .[ [  . . .] { [ [ W #.+...{ ' ( [ { ( { ' J A ....] | ' ' +.| { [ [ ` ' #.X.' } [ ..[ { [ ] ' T #.@.o...| { | [ ( } [ T G ..",
"+. .[ [ ' {  .{ ' R q k U +...+. .{ [ { [ / U < s W [ ~ | ' [  ._ [ ` b 2 P | X.{ { ^ [ ) ' ` ` e h [ @.X.[ _ [ { _ ( [ ' w t K ",
"X.{ [ [ [ { { { ] T N v Z o.` [ |  .[ {  .} ` j a ' X.X. .| [ | [ [ ( F x M ' X.{ ] ' { } {  .] s g | o.} ( _ [ | ' ' _ / k t E "
};
