/* XPM */
static char *result[] = {
/* columns rows colors chars-per-pixel */
"64 64 96 2 ",
"   c #343327",
".  c #3D3B2B",
"X  c #474430",
"o  c #484531",
"O  c #4C4933",
"+  c #545136",
"@  c #565238",
"#  c #59553A",
"$  c #5E5A3D",
"%  c #615C3E",
"&  c #67613F",
"*  c #625F40",
"=  c #656142",
"-  c #6A6543",
";  c #6D6A46",
":  c #6F6C49",
">  c #716B47",
",  c #726D49",
"<  c #76724B",
"1  c #7A744C",
"2  c #7F794E",
"3  c #837D4F",
"4  c #837E51",
"5  c #87804F",
"6  c #878153",
"7  c #8A8454",
"8  c #8E8856",
"9  c #8E8758",
"0  c #8E8958",
"q  c #918A57",
"w  c #928C5A",
"e  c #988E58",
"r  c #96915C",
"t  c #99935D",
"y  c #9E985F",
"u  c #A59A5F",
"i  c #979360",
"p  c #9B9661",
"a  c #9E9963",
"s  c #A29C64",
"d  c #A99F61",
"f  c #A6A066",
"g  c #ACA264",
"h  c #A7A169",
"j  c #ABA56A",
"k  c #AEAA6E",
"l  c #B2A665",
"z  c #BAA762",
"x  c #B5A966",
"c  c #BCAD66",
"v  c #B5AC6B",
"b  c #B9AE6B",
"n  c #B7B06F",
"m  c #BDB26D",
"M  c #BDB571",
"N  c #BFB874",
"B  c #C2B56E",
"V  c #CBB76E",
"C  c #C4B96F",
"Z  c #C9B96F",
"A  c #C2B771",
"S  c #C5BB74",
"D  c #C9BD74",
"F  c #C5BE78",
"G  c #C9BF78",
"H  c #C7C074",
"J  c #CCC176",
"K  c #C7C07A",
"L  c #CDC37A",
"P  c #CFC87E",
"I  c #D0C276",
"U  c #D1C67B",
"Y  c #D3CA7E",
"T  c #D9CD7E",
"R  c #CEC781",
"E  c #CFC980",
"W  c #D5CD81",
"Q  c #D9CE81",
"!  c #D7D083",
"~  c #DBD385",
"^  c #DFD887",
"/  c #DED688",
"(  c #DFD889",
")  c #E0D686",
"_  c #E2D987",
"`  c #E0D788",
"'  c #E3DB8B",
"]  c #E8DF8D",
"[  c #E6DF90",
"{  c #E7E08E",
"}  c #E9E18E",
"|  c #E7E090",
" . c #EBE491",
".. c #EFE894",
"X. c #F0E794",
"o. c #F2EA95",
/* pixels */
"o > 4 6 6 6 6 6 6 2 2 2 6 2 4 6 6 7 6 6 0 0 0 w 0 r 6 4 0 w r 0 6 0 6 6 6 0 0 7 8 w 7 9 r 7 w 7 r w i 0 6 3 w 0 7 7 6 5 2 < $ . ",
"; v M N N S K K E R P M K K M K F E E E K K N E E R k k K K R N N M v N M N M v N K M N L k F n L N K N j u v M l f u u u e 1 O ",
"h ' ( ' ' ' ' ( ( ! ^ L W L S / P Y ! Y ! ! S ' ' ' H S { ^ ( L N N J Y W ~ L H ! Y F Y ~ M W I / W ( W C l W W K J L Y E S y $ ",
"0 v v v b n n n n n Y m S S N ! L W ~ W ( ! S ! ! ! m g P L ! P K m P L K ( Y K ~ Y J ~ W m Y L ~ L ' / B v ! ! L P N n m g 6 + ",
"s E E P W W W W P F ! M S m m K g d g M ! L N / ~ ! m v ' Y ~ P L M ~ P L ~ S S ~ / L ' ~ A Q ~ / U ' ~ m m / ~ L ! W L W H p * ",
"r K F K P W ! E L F W F W N K ! W ~ R W ( W L ( ( ( L M ] Y ^ ! P C ' ! L ' S F / ~ L ( W F ( ~ ` W ( ' m n ~ ~ L / W L K k 0 $ ",
"w K L L L W W Y S K ~ K ~ m F F F W N L / E R ! ~ ~ S A ' W ' ^ ~ L } ~ F ' S S ~ ~ K ~ L S ~ I Q Q ~ ' n n ~ ~ L / W L ~ N w # ",
"p L W W ~ ! ~ ! n L Y n Y n W ( ( ' K E ' ! W ' ' ~ K K { ~ ' ~ ~ C } ~ S ' S D ~ W L / D M ~ J D Y W W x S Y ~ L / E L ( N a = ",
"p A K ~ ~ ! ~ ! b Y ( F W A ~ ' / ' L R ' ~ ~ [ | / R W { ~ ( W ' H { _ S ( S J Y L J ~ A F ` ~ J ~ ~ W x K N W L ! Y S ! v t = ",
"r v m F S N Y Y m Y ! S S b L L L / L G Q W R ~ / I S L ~ Y ! Y { C ] ' F ~ S J Y L L ~ S W ' ~ L ( ' Y m L S W R ! W v Y f r + ",
"s c M Y / W W L m W ~ L S b ~ W L ~ L F W W W ! ' P A L ! P ! P  .S ] ' J ' L ' ' ~ / ' R ~ ` Q Y ^ ' L m L W L R / ! F W v s $ ",
"r M A L ~ W ~ D S W ( E F M ~ Y S R L L W Q ! ~ ' W L ~ ! J ~ W ..K { { L { K ~ W ! ( { Q ' ' Y ~ ( ' L b m W Y K / W W L n p # ",
"p S N G / ! W m S W ! ! G D ' / W Q ~ W R / Q ` [ ~ W ' } W ~ W ' L ^ ' L ' P _ W ~ ' ~ H ~ T D W ! W L b l W ! L ~ L ~ K F r $ ",
"0 L K S Q W S v G R W W M b W ~ W U ~ W Q [ Q / ~ W A Q W B I L ( P Y { P ' ! ~ W U ~ Y S W Y S Y W Y L x B Y W S Y L L K K 6 $ ",
"y S A A W W R x U Q W ! A b W ~ W D / W U ~ G Q U ~ M ~ ! S W L W H Y ' L _ ! Y W F ' Y W ( ~ Y W ' W ~ B W W ) Y T T L K K 6 $ ",
"s K K S W ~ L x U Q Q ' K A ~  .Q L E W L ~ S Q W ] A ) W S Q I Y Y T { Y ' ~ T ' L ] Q ~ ' ' ~ ' | W W m ~ Q ) ~ Y ' F P K r $ ",
"s Q ~ S Q ~ L x G ) ` [ L S Q ] ` W Y Q W ~ c W Q _ A ' Q D ~ Y Y T Y } Y ] ' J ~ Y ' ~ ) ] Q Y W / ~ K B W Q Q Q R ) b E F i * ",
"a L L B T ~ F c S ` ! / G A R ) ` W L / _ ~ M ( ] ] G ] W S Y D Y I ~ } Y ' { Z / ! ' ) Y ) U U L L ! L S ) ] ) ) ` ) b ) W p * ",
"s W R D ~ ( R B A ' ` [ ! G ) ] ' W S L W J m ~ ~ D S ~ G B L S P H Y { L ^ ' n ~ L ~ ~ L ) I S ~ ~ ~ Y S Q ' U U W Q b ` R i * ",
"i W K L W / W S m / [  ./ R / ] o.` U / } Y U ' Q Q T ] W D ~ J T I _ } J { } m ~ ~  .' Y ' I B ~ W W W S Q ' W Q Q Q S ` R i * ",
"a ~ L T | [ ~ Y S Q ] .. .~ ) ] X.' Y  .} T ~ } ' ) ] ] Y D ) T { T ^  .J { _ c ~ ~  .~ ' ) D B W W Y Y J ` ] Q ' ` Q Y ` W i * ",
"p Y H U  .' / W U E ] ' Q Y R ] { / Y | ' ~ ] ' |  .o.' Y Z ~ Y T T ^  .H } ' C ' '  .I ~ Q D D Q ' ] ~ Y ] ' ` ' Q L Y W R i * ",
"t L S L { ' / Y G L Q / / W R ' / ~ S ~ L U Y L ` Q | W L S Q S Y P P { J ] ~ B ' '  .Y ' U B B I ' | W I  .Q Q ' Q N G L G i * ",
"p Y L Y W ' ( Y G G W W ! W Y ' ~ ' J ' I T Y Y ) ~  .Y W I Y Z T ^ T { Y ' ' D ~ ' } ~ } T L J ~ ' | Y I o.Y Y ' ' W ( ! R p * ",
"a Y W ^ L { ^ Y J S W U W W L ] ' | L { Y _ U L Q ~  .Q ~ Q U A Y T L { T T { U ]  .' Y | Y U U ~ ] ] T T X.Q L ' ' U / ~ L p * ",
"p P Y ] D } ~ W U K ' ' ~ ~ U ] [ ' L ~ Y ~ Y ~ ~ ' o.W ~ ) ~ T T { T ..' J { T ~  .' D } D T Y ]  .' G ~ ' Q A ~ ` U ~ / R r % ",
"r L ! ~ L ' Y Y I A W / R Q U ] ~ ] ~  .~ } Y ` ) ' o.Q ~ Q Y T L ] Y  .' Z { ~ _ X.' J } I Y U W ~ Y G T ~ U S U Q L G S v q % ",
"w Y ~ L ! ( ! ! Y K / ..W Q U ) ^ T J Y ~ ] I / ~ ' ] W Q Q D Y P _ Y { T H _ Y ~  .~ ~  .Y I ) ] ] ) T T ) B ~ U W L S M d 9 $ ",
"t ^ ' P ~ ( { ^ ~ J W  .L W G T ~ Y F Y ~ ' L / Q X. .~ Q ) D K S Y Y _ I I T T Q | Q ~ ) U D ' [ ] ` E ) ~ c ] Y ' ~ W W R i * ",
"e ^ ( ! ~ ^ { ( ~ L W X.L ~ U ~ ' Y H ~ ` ) I ` Y  .) Q E ' Y ' { { ~ { J Y ^ _ ~ ) Y ' T I D ) X.) I D Q Q D ' U ' W Y W F p * ",
"r { Y ^ ~ ~  .^ ~ D W ..Y / W ) ] T S ~ ' Q I Q Z ] U I A Q V I L Y Y Y Z T T _ ' ] Y ] W U Y Q  .] D I ) ~ ~ ` I ] Q ~ W F r = ",
"r { L Y K H ^ Y T D W | W ~ W ' ] T S ^ ' ~ L Y S ] D D B Y B D T T T Y J ^ Y ^ ` ] Y ) U U ~ )  .] A Y Q Q ` Q Y  .~ ! L M 9 * ",
"7 ^ P L Y Y ' ~ Q D R Q Q D U ~ ' ~ D '  .] Q ) T X.~ Q !  .T T } _ ~ J D T Y ] ' } ~ { C Y } { } _ Y ~ ~ _ } ~ T ) Q W B n 7 # ",
"p ( ~ L ! _ ' { ` D G Y ) D W ) T Y S Q ' ) D D Y ] T Y Y ' I I ] _ ^ ~ T ~ Y _ ] } Y ] B I } } _ L T ~ ) T T I I L Y W b M 7 % ",
"a / ( S Y ^ / } ' U Q Y ] V U G T ) S ~ ' ' U Q ) ] ~ Y ! ' I L _ ~ ~ J Y Y I ~ ] ] Y ' B Y } } _ S ~ T ] ' ) Q ) ~ ) ` A A 4 % ",
"8 F T x P ^ W [ ' U E G ] S Y I D I A ~ ] ] Y Y Y ~ I F Y W C m ~ T ^ L { ~ T ~ } } ~ ] J Y } } ~ S ^ T ] ' ) I ~ ~ Q ~ A A 4 # ",
"0 W ! S Y ' W ' ' D F R ] S G Q ~ ' L ~ ) ' Y E _ } ] ~ ] W C c T H I B _ Y ) Y ' T Y T S I ' ` T L T L Q Q ~ J Y ~ Y Q S M 3 % ",
"r E P N D ' W ' ' S m G Q V D G J T m Y _ o.Q U Y Y D Y ( W D Z { T Y m ~ C ' U ] } ' ' Y Q ] ] Y ~ I )  .~ ] I Q ` Q ' K F 6 % ",
"q ! ~ H D / R / ] D G R G V V D I _ c Y Y Q I T T ' ] ) ' W D C _ Y ~ Y } Z } U ] ] ~ ) T ) ] ` Y _ S ' ~ L ~ D ~ Y Y ~ D A 7 % ",
"8 ! ! F F W U Q ] D G E Q Q T Q T } C _  .o.~ Q Y ~ ~ Q / ' I Y } I ~ T ~ H T T ~ Q B I D Y G Z L ~ D } ~ _ T D Q Y Y Q F S 5 % ",
"6 L L H H ! P ~ ] G G K E Q G ~ Y } m Y T } J ! Y ' ] ' ' | Y T } I _ T T U I } T } J ) Y ' ~ ) ~ W U _ I ' Q T Q Q ) ~ G G 9 * ",
"r ~ ! Y L ~ E ( ] R L W W ` T Q T  .Z _ ..o.W ~ ) ) } ] ' ] T ~ X.T _ } ~ ' C } T } Z ~ T ' Q U G D Y ~ I ` I ~ S / ) Q G R w * ",
"8 W J L S ! P ( ' U F W ) ] Q ~ T } C Y ' ' D J I Y } ) W Y Y Q _ Y Y _ I } B ] U X.S ) ~ _ ] ] ] ' ' ) Q ' I Q S Q W G A S e * ",
"w ^ ! ^ L ^ ! ' ] R F L U U R Q ) } J _ }  .Y Q Q T } T ~ ~ ~ ~ } ~ ^ ^ U I z _ D ' S ~ ~ Q ` ' W Y ) Q ~ ` U ) S ' ~ Q W G s - ",
"w ( W ( K ( ! ' ] Y A F ~ ~ Y Q ) ' I '  .} L I Y I ) V K I U I ^ Y T ) ) I B ] D X.U ~ ) G ~ ] ~ I P S D G G _ B ~ Q R W K s - ",
"6 ! Y Y l K S P Q U G S Q Y D I Q ) U `  .] L ' ] T ) D J Y Y ~ ~ Y I D ~ m V _ D ' T ) ] Q Q X.' ~ _ ~ W ) G _ G ) U D S d 9 * ",
"8 / W W l ! W ~ ' Q R A Q I U Y Q Q Y '  .' U ~ ' ' ] T Y ) _ } ) Y T D Y B B _ T ) U U ~ T T  .^ ~ ~ T W ` ~ ` ) [ Q R R F a * ",
"0 ~ P Y l W F H S U R B ~ U I ~ ' ~ ' | o.[ W ~ ] } ' ) L ~ ] } ' T ~ Y ~ B B T Q ' ~ Y T D Y _ ~ Y Y T U Q ) ) ` [ U U Q F i * ",
"8 ^ Y P n ! L ' | ' ~ n / S J ~ ~ Y ) ] X.~ ~ T ~ Q Y T J ~ ] } ' ] ~ Q ) I S W T ) _ ~ _ K Y ~ ~ I W ^ ' Y S I Y } U G ' R d = ",
"6 ! L S v L S ! ' ! U S W m B T ~ L Y ~ } P P ~ ~ _ Q L S I ~ _ ~ ) ~ ~ ~ U D Q Y Q ' Y T S Y _ ] W ~ ' / Y Z ~ ~ } D J Q U s $ ",
"8 ^ Y P S R W W ' W ~ W ! c b T Y J ' ' X.~ Y Y L Q Y ~ W ~ ' T S Y Q Q Y D D W U T ' U T S Y ' ` L L ' ~ Y V T _ ' D Y ~ K s = ",
"6 ! Y J S P R K ' S Q ! ( S S ) ~ A ~ ~ { W ~ ! W ' I T I Q ' ) Y I Q I U B V G A Y ` D W Z L Y ~ Y Y ~ I S Z ~ ' ' L W ! R p * ",
"6 Y Y m M F R m ' S L W Q m D ~ W m ~ ) ' U Y U F ' S ' Q ` ' ) T ) ) ) Y S D U A D Y U I B L L S B Y L S x x S Q L A G ! F w $ ",
"3 P F v A F P m ~ S K K F b S W Y F ` / ] ` Q Q D ~ c ` Q ' ) T Y ) ) ) E G D G G X.' T Y S W Q ) Y ~ K S S K L L F D S ! F w # ",
"w ' ( L ! / / J W S L L V z c V V A Q Q ' Q U W U ~ m / ` ' ` U I Y D B G S G A S Q ' _ T F ~ U ' ~ ( ( I F B S Y ! R K ! R 0 @ ",
"r ! ! F W W ~ Y Y D L W L A S Y Q G / Q ' ` Q U S U A Y ` ` ~ S L Y _ ' Q S Z A G Q ' Q Q D ~ L ' ~ ' ~ K F I ~ ~ ~ W R / F w + ",
"r L W M P P L W Q L W W Y G D R Q G W G Q W D Y ) ' K L ~ ' ~ B J ~ ~ Y W L L M L ] } } ) D ~ L ) Y ~ W M F L L L L K L ! M 0 + ",
"w K W N P W L Y Y S P W W F W W Q G / W ` / E Q Q Q Y I / ' ~ S ~  .' W ~ U L S L ~ ~ ~ ) L ~ D ~ Y ' ~ K L / / / / ~ / ! M 0 $ ",
"a ( ( L ! W F L G F L L L S A K U G Q E ` ~ R Q Q Q U L / ( ( S Q ~ Q Y ~ L L A S Y S Y ) L ~ L ' Q Y Y S F ~ Y E Y W ! ! N i * ",
"i W ~ W ! ! P ! U D K L Y K S G U A R L W R G Q Q ) ~ W ' / ~ F J ~ Y U W L L S m ~ L Y U m F D ~ S Y ~ K m S m K K J S R v r $ ",
"a ! ( ' ' ~ W / / / ' W W P K Y / D R U L G S U W G S K W W ! L m | / W ~ P Y F n ~ L ( { Y ! ! ) S L L H F ' ' { ' { ' ( K p = ",
"< g l l v m S K E K E W L K N F R F R Q W W L D W F M S E L E F l ' ! F P K K S n ! S ! ~ K P W W A ! U S v M v n v v n v s 6 + ",
"@ 6 r e 8 w t s g r p p s h p s k s k k d s t t s y w w u t p a 7 v j r g s g y r g p j j r s h s r s s f p k s r s s p t 7 ; X ",
". $ - ; ; ; = % * $ = ; ; - = - , ; < 1 1 < , > > ; & & > - - - - < , - - , - = & : - , : $ - : , - ; = & % & = ; - = $ $ # o   "
};
