/* XPM */
static char *result[] = {
/* columns rows colors chars-per-pixel */
"64 64 253 2 ",
"   c #393030",
".  c #414339",
"X  c #494141",
"o  c #414141",
"O  c #494941",
"+  c #494949",
"@  c #414949",
"#  c #413939",
"$  c gray35",
"%  c #595951",
"&  c #596359",
"*  c #596363",
"=  c #636359",
"-  c #636A63",
";  c #636A6A",
":  c #6A6A6E",
">  c #6A726A",
",  c #6A7272",
"<  c #63726A",
"1  c #637272",
"2  c #636A72",
"3  c #727B7B",
"4  c #515151",
"5  c #495149",
"6  c #495151",
"7  c #515951",
"8  c #515149",
"9  c #596A63",
"0  c #596A6A",
"q  c gray39",
"w  c #595963",
"e  c #515959",
"r  c #516363",
"t  c #393039",
"y  c #596351",
"u  c #516359",
"i  c #414941",
"p  c #394941",
"a  c #494639",
"s  c #393939",
"d  c gray13",
"f  c #4C5141",
"g  c #495951",
"h  c #212828",
"j  c #283230",
"k  c #13211C",
"l  c #282821",
"z  c #63636A",
"x  c #413930",
"c  c #3B3028",
"v  c #6A6A63",
"b  c #727272",
"n  c #72726A",
"m  c #727B72",
"M  c #7B7B7B",
"N  c #79837B",
"B  c #778383",
"V  c #6A7B72",
"C  c #596A59",
"Z  c #374149",
"A  c #414951",
"S  c #393941",
"D  c gray19",
"F  c #495159",
"G  c #0F0F3D",
"H  c black",
"J  c #151718",
"K  c #060608",
"L  c #262834",
"P  c #161650",
"I  c #415149",
"U  c #26264D",
"Y  c #080834",
"T  c #516351",
"R  c #282828",
"E  c #494149",
"W  c #0F120F",
"Q  c #303041",
"!  c #303939",
"~  c #494951",
"^  c #303039",
"/  c #59636A",
"(  c #415151",
")  c #394141",
"_  c #03031A",
"`  c #1A1A2D",
"'  c #516A63",
"]  c #2D3351",
"[  c #51636A",
"{  c #515963",
"}  c #69757B",
"|  c #363930",
" . c #161621",
".. c #415159",
"X. c #414959",
"o. c #2E3449",
"O. c #636351",
"+. c #516372",
"@. c #3D4151",
"#. c #030328",
"$. c #495963",
"%. c #283639",
"&. c #51596A",
"*. c #596372",
"=. c #597272",
"-. c #495959",
";. c #666C59",
":. c #596A72",
">. c #414963",
",. c #394959",
"<. c #495163",
"1. c #516A6A",
"2. c #494959",
"3. c #415163",
"4. c #41516A",
"5. c #49516A",
"6. c #515972",
"7. c #495972",
"8. c #51597B",
"9. c #51637B",
"0. c #516383",
"q. c #59637B",
"w. c #516A7B",
"e. c #49637B",
"r. c #496383",
"t. c #496A83",
"y. c #516A83",
"u. c #496363",
"i. c #49638C",
"p. c #496A8C",
"a. c #516A8C",
"s. c #596A83",
"d. c #516A72",
"f. c #49636A",
"g. c #496372",
"h. c #496393",
"j. c #51638C",
"k. c #596A7B",
"l. c #516793",
"z. c #49597B",
"x. c #49619C",
"c. c #515945",
"v. c #34281A",
"b. c #495983",
"n. c #415983",
"m. c #49598C",
"M. c #40598E",
"N. c #41638C",
"B. c #212821",
"V. c #415972",
"C. c #41597B",
"Z. c #41517B",
"A. c #415172",
"S. c #49596A",
"D. c #727B51",
"F. c #636A51",
"G. c #838363",
"H. c #A9A19C",
"J. c #6A7241",
"K. c #595930",
"L. c #6A7228",
"P. c #636341",
"I. c #4E4B30",
"U. c #515930",
"Y. c #303941",
"T. c #494921",
"R. c #636A7B",
"E. c #364339",
"W. c #414130",
"Q. c #414128",
"!. c #3B3924",
"~. c #72727B",
"^. c #3955A5",
"/. c #3655B0",
"(. c #41599C",
"). c #39599C",
"_. c #4D60A5",
"`. c #3D519C",
"'. c #41596A",
"]. c #5D5941",
"[. c #5B5B49",
"{. c #7B726A",
"}. c #4163BD",
"|. c #2E59DE",
" X c #3063D6",
".X c #3359D6",
"XX c #3959CE",
"oX c #3963CE",
"OX c #4963C6",
"+X c #4163C6",
"@X c #4163CE",
"#X c #496AC6",
"$X c #3959C0",
"%X c #414930",
"&X c #4963BD",
"*X c #3063EF",
"=X c #3063E7",
"-X c #3963DE",
";X c #416AD6",
":X c #496ACE",
">X c #4163D6",
",X c #416ACE",
"<X c #3063DE",
"1X c #5569AD",
"2X c #516AB5",
"3X c #3963D6",
"4X c #4B6AD6",
"5X c #4963CE",
"6X c #556AA5",
"7X c #494130",
"8X c #516ECE",
"9X c #827B72",
"0X c #416ADE",
"qX c #5172D9",
"wX c #496ABD",
"eX c #493930",
"rX c #273028",
"tX c #6073AE",
"yX c #5C72DA",
"uX c #516AC6",
"iX c #283941",
"pX c #636A41",
"aX c #536CBD",
"sX c #6D8AF1",
"dX c #6A80DA",
"fX c #5D70CE",
"gX c #4163DE",
"hX c #8B8B7B",
"jX c #3C4159",
"kX c #495172",
"lX c #5772C6",
"zX c #5183DA",
"xX c #6A5951",
"cX c #5F7BE7",
"vX c #4C6ADE",
"bX c #4969B3",
"nX c #868888",
"mX c #394951",
"MX c #3963E7",
"NX c #3059E7",
"BX c #2B59EF",
"VX c #63729C",
"CX c #416AC6",
"ZX c #4972CE",
"AX c #727B6A",
"SX c #595151",
"DX c #415141",
"FX c #415963",
"GX c #303028",
"HX c #212818",
"JX c #394949",
"KX c #416383",
"LX c white",
/* pixels */
"  . X o o o o o o o o o X X X O O X O O O O O O O O O O + O O O O + + + + + + + + + X X X X @ @ + O O + O O X o o o o o o o + # ",
"  + $ % $ & & & * = & = & & * - - - - - - - - - - - ; - ; ; ; - ; ; ; ; ; ; ; ; ; ; : > , : ; , , , > , > < > , , > 1 ; 2 , 3 4 ",
"  + o O 5 5 6 7 7 7 7 8 5 5 8 7 7 7 % & $ $ $ $ & $ & $ $ $ $ $ $ $ & & $ & * * * & - ; ; - 9 ; , ; ; - 0 - q * & w e e r 9 , + ",
"t O 5 5 6 5 7 7 7 7 7 7 6 7 7 7 7 $ $ & & & $ y & & $ & % % $ & & & $ & $ * * * q * q ; - - ; < , ; ; ; - * * & w & u e y = , + ",
"  i . p @ 7 7 7 7 7 7 7 7 7 7 e e $ & $ y & & $ % $ & % $ $ $ $ $ e & $ $ & & & & q * q q q ; ; : ; ; ; ; - 9 * & * * e i a e + ",
"t s d ; f 7 e % % 7 7 7 7 7 e $ $ & $ $ % % % & & % & $ & & $ 7 $ $ e $ $ $ & * * q q q * q 9 ; : ; ; ; - ; * & * $ & + d ; g + ",
"  @ h j @ 7 % & % 7 % 7 7 e 7 e & $ & & $ % % $ & $ & & $ & $ e $ e e u e $ & * q * * ; - ; ; ; < ; ; ; * * & * * & $ . k l 6 + ",
"  8 5 i 5 7 7 $ & y $ y e $ 4 7 4 7 7 4 8 7 4 7 7 7 7 4 7 4 6 4 4 4 4 7 4 e e $ $ $ e $ & $ & & & * - z * * * * * & $ x c s & + ",
"  % 7 8 4 7 e & $ $ & $ $ 4 + v b b n n n n m b m m m m m m m m m b m m m 3 M M M M M N B B B 3 e e ; - q * * * * & * a x f ; + ",
"  y 7 7 7 7 & & & & $ & & 5 5 V & & & & & q q & = & q & & & & & = - - - - - - - - - ; ; ; ; ; , 4 e - 9 - * * * * * & O + g , + ",
"  u % 7 % e y & & & & & & 7 5 > q q C $ Z A S & - q 7 + 5 = & = q q $ @ 6 @ 4 - ; ; ; ; q e : 3 e * 2 ; * * * * * * * * 4 e 3 + ",
"D & y % % y $ & & & & & & + + > & & F G H J K H d q & L P D & * & I U d 7 H K e & * * g Y d ; , 4 e 0 9 9 ; * * * * * * e 9 3 + ",
"  - & % T $ & $ $ & & & $ 7 5 > & 7 H H 6 & & d G R $ 4 K U E u % W W e & E H d * - - Q G * - 1 4 e ; ; 0 9 9 * * * * * e * 3 + ",
"  * & & & $ & & & & & & & 6 5 > & ! H L & = * % G H = & 8 Y K 4 d H ~ $ u u W H A q ^ Y 6 * / ; ( e 0 9 0 0 * * * * * * $ 9 3 + ",
"  9 & & & & & & & & $ & $ 6 + , & d H . u & u $ J H 6 e $ @ H H H ) & u $ $ g H W F _ R 9 * * > e F 0 9 - * * * * * * * * / N + ",
"  ; - & & & = & & & & $ & ~ 5 > % J G I % u & T ` _ + & & % L Y d $ $ 7 e & u L G G W r * ' 9 < ( g 9 * * * * * * * * * * 9 3 X ",
"  - * C & & y & % & & & % 6 g > * ] H i [ & u * d G o u * ( H Y H o { w $ w $ & K H 6 * u * / ; 6 5 * & * * 9 0 9 / * * ; 0 3 + ",
"  - C & & = & & y % & $ & g 6 } * h H | & [ * u H Y % / e W  .F H H e r * r * [ L H / / [ / 0 2 ..F * * 9 9 * * 0 * / ; ; ; 3 X ",
"  - * & & & & & y & & * & F 6 , / i H K r * [ X.U ] * { o.H F r ! H o.r r [ z z o.H [ / / [ / 1 ( g 0 9 * * * * / / ; ; ; ; 3 + ",
"D - 9 & & y O.& & & & & & 6 6 , * r h H ] @ A U Y ( & Z H ) +.{ r Q P @.{ r r [ d #.[ [ [ / 0 1 6 F / * * * * * / ; 0 ; ; 1 3 X ",
"  9 C = & & & & & & $ & e 4 ~ ; w w { L K H H d ( / $.k %.+.{ &.[ [ d ] ( / +.*.o.o./ / / [ / =.( -./ r / * * * / * / * 0 > 3 + ",
"  9 ;.& O.& & & & y % r & ~ 5 r * w / / / [ / [ / [ / [ [ / [ / [ / [ +.*.[ *.*.2 +.*.+.*.*./ [ ..-./ :.[ / * / * * r * * 0 V X ",
"  - = = & & & e % $ * $ { e A A @.A A A X.A X.X.X.X.X.X.X.>.X.>.X.>.,.X.,.X.>.>.X.>.X.X.X.X.X.X...<.1./ / / / * * * * r * / , + ",
"  - & = & y & & & w w { * :.2.( ( X...X...>...3.....>.3.3.3.3.3.3.3.3.4.3.4.4.4.5.3.3.3.>...X...<.:./ [ / / / / * * * * * 0 , X ",
"  * & & & y 7 & * { r r { * { [ [ &.[ [ +.6.+.&.+.7.7.8.9.9.9.9.9.9.9.9.0.9.9.q.w.9.9.+.9.+.+.+.[ +./ [ / [ / / / * * * / / , + ",
"D - - & ;.u = u * r * { r r [ [ [ [ +.9.+.+.+.9.9.9.9.e.9.e.e.r.e.r.0.t.y.y.y.y.y.w.w.9.w.+.+.+.+.+.[ / [ / [ / [ / * * * * ; + ",
"  q & - u & u * r * u.* [ [ [ [ [ +.9.+.9.0.9.9.e.r.0.r.r.t.i.i.i.p.p.a.i.a.y.t.s.0.y.y.9.9.9.d.w.d.9.d.:.d.:.d.*.d.:.0 * * ; X ",
"  - - & ;.r y u & r * f.[ [ [ g.&.+.+.0.9.g.r.0.r.r.r.i.p.i.i.p.p.i.h.a.a.j.p.a.a.y.y.s.y.w.y.w.k.w.k.:.w.2 d.2 2 ; 2 * * * z + ",
"  - - C u * * & u * r +.[ { &.6.[ 8.9.9.e.0.r.r.i.i.i.i.h.i.l.h.l.h.l.h.l.l.l.a.j.a.j.j.a.s.s.s.s.k.k.k.:.:.2 :.2 2 2 :.* * q X ",
"  - u y & * r * e [ +.[ [ [ +.+.+.e.e.z.r.r.r.i.i.i.i.h.h.x.h.l.h.h.h.h.l.h.h.j.j.j.j.0.0.0.0.w.k.w.d.d.d.d.[ 0 +.0 :.u c.a * O ",
"  & v.1.e e * r w [ { &.[ &.[ 9.e.6.7.7.7.z.z.b.b.n.m.M.m.i.i.m.M.i.N.m.N.m.m.m.b.z.z.7.7.7.g.e.w.w.9.+.+.+.*.[ / +./ ~ k ; * + ",
"  $ d B.& [ * r [ { [ [ &.&.+.e.9.7.<.<.<.4.5.4.7.V.C.z.C.C.Z.V.7.A.Z.C.b.n.z.z.C.7.4.<.<.5.S.z.e.9.9.9.+.+.+./ [ / [ 6 R R - + ",
"  * . . e * r * r [ $.6.6.&.5.@./ D.F.D.G.H.G.G.J.D.J.J.D.D.G.D.K.D.L.K.K.P.K.I.U.P.K.P.c.F.@ >.z.z.+.9.9.+.+.+./ [ / { A ~ , + ",
"  > 4 $ [ / [ r S.[ f.g.6.S...Y., ! I.P.P.D.P.D.J.J.U.P.J.J.P.P.D.P.U.a O.O.O.T.I.J.c.U.c.N j ,.z.7.7.6.e.+.g.+.[ +./ &.&./ , + ",
"  1 1 R.*.1./ S.[ +.6.+.6.5...Y.E.R I.W.x W.W.x W.| W.W.W.W.W.Q.x W.W.W.W.W.W.W.W.x Q.!.U.R R Z 5.7.5.9.9.9.+.+.+./ [ / [ 1.~.+ ",
"D 1 r 0 1./ [ +.+.+.+.z.g.5.X.Y.7 U.O.^././.^.^.^.(.(.(.(.(.(.x.).^.(._._.x.(.`.M.`.`.>.Q.O a ! >.'.7.e.9.9.+.+.+.[ *.+.*.*.b + ",
"  0 0 [ 0 [ / +.[ +.g.+.7.7...Y.].[.{.}.|.|. X.XXXoXoXOX+X+X+XoX+XXX.X@X#X+X+X$X}.$X$Xx.Q.I.%XD >.S.7.7.0.9.9.g.+.*.[ / +.*., + ",
"  * 0 / r / [ f.S.g.9.0.9.z.3.Y.].K.{.&X*X=X=X-X-X;X;X@X:X>X,X;X>X;X<X<X>X:X,XOX+X+X$X1X;.a Q.^ >.A.7.b.e.9.e.+.g.+./ g.*.:.b + ",
"D * / 1./ r r [ [ 9.9.9.e.7.3.Y.y P.{.2X-X-X-X-X>X3X4X;X5X:X>X5X;X>X>X<X<X@X:X#X}.}.}.6X{.7XQ.j 3.7.z.r.9.9.9.9.9.+.*.+.*.2 , X ",
"  * & / [ * +.+.+.9.+.0.r.z.3.Y.].c.{.1X>X3X3X3X>X;X;X8X:X:X8X@X:X>X3X>X<X-X,X:XOX&X}.6X9XX %XL >.7.z.r.0.9.0.9.9.9.+.*.d.0 , + ",
"t 9 0 [ * [ +.+.9.9.0.0.r.z.3.Y.P.K.{.1X@X@X;X0X4X4XqX8X8X#X#X:XoX,X>X-X0X=X-X:X#X&XwX6X9XeXQ.rX>.7.z.r.j.0.0.9.+.+./ [ / / , + ",
"t - / / [ / +.+.9.9.9.0.e.7.3.Y.].[.{.tXOX,X:X4XqXyXyXyX8XuX#X#X:X@X;X-X-X>X|.3X:XuX&XtX9X7XQ.h X.z.r.i.a.s.s.s.k.:.R.k.} } , 4 ",
"s - ; [ / &.+.[ +.+.9.9.9.z.3.iXpXc.{.1XaXOX:X4XyXsXsXdXfXuXaXOXOX:X>X4X-XgX3X|.>X#X+XtXhXX Q.h jXz.e.r.y.w.w.d.w.w.d.:.[ ; , + ",
"t = / * r / [ [ g.+.e.9.e.kX3.Y.P.[.{.1X:XuXlXqXyXsXsXdXfXlXzXaXzX5X0X>X;X-X-X3X<XoX+XtXH.eX%Xd ,.7.b.r.0.0.9.9.+.+.k.1.2 :., + ",
"t ; : [ / [ S.[ 6.6.8.z.z.kX..iXpXxX{.2X@X:XlXqXqXcXcXfXfXuXaXwXwX+X>X3X3X>X=X-X<XXXXXlXH.X Q.d jXV.z.r.r.e.9.9.9.d.w.2 2 R., + ",
"  - z z [ * [ &.g.7.z.z.z.kX3.Y.pX[.{.2X3X>X:X8XqXvX4XqX8XuXaX&X&XwX+X3X3X-X>X=X-X<X.X2XH.o Q.d ,.A.7.z.z.8.e.9.+.w.2 k.2 1 , X ",
"t ; ; z [ r &.[ [ 7.6.8.e.V.X.iXpXxX{.aX-X-X-X;X8X4X0X0X4X#XwXwX&X&X}.@X3X-X-X-X<X-X.XbXnXX Q.d mX7.A.z.z.7.7.S.S.w.d.2 d.0 > X ",
"  q / [ * * [ [ S.6.g.9.z.kX3.! P.xX{.wX=X<X<XMX0X4X0XgX;X>X#X&XwX}.&X}.oX3X<X-X-X<X<XwXnXeX%Xd mXA.7.z.z.7.7.S.&.&./ d.*.:., X ",
"  q z / [ / [ f.[ g.S.7.z.7.X.iXP.xX9XOXNX=XNX=X=X-X0X0X-X>X@X#X&XbX}.}.+XoX X|.<X=X=XaXN eXQ.d mX5.5.z.7.7.7.7.7./ +.2 d.2 , o ",
"  * ; r * { * &.S.g.6.6.z.5.3.! J.xX{.#XBXBX*XBXBXBX=X0X-X-X3X@X#X&X}.}.$XoX.X=XNX=XNX#XnXeXW.d mX5.V.7.z.7.7.S.S.r / d.2 : m o ",
"  - 1./ [ r S.[ f.f.g.g.g.7.X.iXP.xX9X#X*XNX*X*X=X*X*XMX0X-X3X@X#XwXbX&X}.}.@X3X<XNXNX+XnXI.!.d ,.5.5.7.7.z.g.g.+.*.1.:.2 : m o ",
"  - - * * $.{ f.S.S.7.7.7.5...! P.xX{.VXCX,X#XZX:X:X:X:X8XlXwX2X1XtX6XVX6X6XbXbXwX}.$X/.n eX%Xd A 4.7.g.7.e.g.g.+.g.*.[ :.1 N o ",
"D v * / { { u.r [ [ S.g.7.5...%.nXE.AXAXAXAXAXG.hXG.G.hXG.hXnXG.G.G.G.G.G.G.G.G.G.G.;.SX$ eX, d X.5.5.7.7.g.7.g.[ f.[ { 7 ; m o ",
"  z * e r -.{ f.&.$.$.S.S.S.X.%.E.rXSXO.O.O.O.xXxXq * 4 4 8 O O 5 5 5 i O s . 7Xx x c c x i R h mX4.S.7.7.7.g.S.g.&.f.6 E e b o ",
"  ; @ < { r $.e $.S.$.4.S.3.X.! f c.O [.[.xX[.& { @ 5 5 DXi 5 5 6 5 I i i s s s s !.x | 7Xc R ^ mX5.S.7.f.g.S.&.S.S.&.O W.O > o ",
"  * ! d -.w r $.{ S.$.FX$.<.F Y.s j j R j h h h j j h h h R h h rXh GXj B.B.d d HXh HXd B.R Y.@...$.S.$.S.S.S.S.{ $.$.7XJ GX; o ",
"  * JXE.+ { { { $.$.$.$.'.<.F F A ..mX@.JXmXJXmXmXmX@ p p . o p @ @ @ JXZ Z Z ! Y.! | j Y.JXA X.<.S.S.S.$.&.-.$.$.$.$.x v.c * o ",
"  * e 5 F -.{ $.r F ..3.$.<.F <.......<.$.$.5.<.S.S.S.$.$.<.$.-.S.5.$.S.'.{ <.$.$.-.-.$.<.$.$.$.<.<.$.$.S.$.{ { $.$.-.+ # i ; o ",
"D - e e 7 { e { $.-.F F ..F <.F F F <.5.7.7.z.z.z.n.r.KXr.n.r.n.n.n.KXb.i.N.b.z.z.7.7.'.S.S.'.S.S.S.$.S.S.{ FX$.$.-.$.6 6 + - o ",
"  ; * e -.{ -.{ { { -.e F 6 F F F F <.5.S.7.z.z.z.b.r.r.r.z.z.z.z.b.b.z.r.0.e.8.z.z.z.7.7.S.S.FX<.$.$.$.$.$.{ $.$.$.-.$.e r , o ",
"  ; u e 7 e { -.r { e 6 e ( 6 F F <.<.S.S.7.6.7.7.7.7.8.e.z.z.z.b.e.e.0.8.e.e.8.z.7.7.7.7.7.$.$.S.S.{ $.{ $.$.$.F $.{ e r / b o ",
"D ; * u e g e { e { e e F 4 F F <.<.$.S.S.5.'.S.7.7.z.9.e.8.z.z.e.0.0.9.r.z.7.7.7.S.7.7.S.$.3.FX<.F <.-.$.$.$.-.$.$.{ r { ; 3 o ",
"  ; q * * * * * * * * * * * & & * * * * * * * * * * * * - * * * q - / 0 * / * / * * * * * * * q * * * * * * / * * / 0 2 1 , 3 o ",
"  # o X X o X X X X X X o X o X o X X o X X X X X X X X o X X X o X X X X X X X X X X X X X X o X X o X o X o X o X X o X o o   "
};
