/* XPM */
static char *tile117[] = {
/* columns rows colors chars-per-pixel */
"64 64 63 1 ",
"  c #3A160E",
". c #391A07",
"X c #280E00",
"o c black",
"O c #301000",
"+ c #481C08",
"@ c gray3",
"# c #511A07",
"$ c #4C2014",
"% c #61220F",
"& c #300000",
"* c #3D1A0B",
"= c #101010",
"- c #2C1414",
"; c #2E160A",
": c #6C250C",
"> c #202020",
", c #282828",
"< c #10201C",
"1 c #1A2E26",
"2 c #0E1A16",
"3 c #22362E",
"4 c gray22",
"5 c #171719",
"6 c #56322A",
"7 c #613E2F",
"8 c #7D573B",
"9 c #52230E",
"0 c #2E4236",
"q c gray25",
"w c gray19",
"e c #344C3C",
"r c #073907",
"t c #002800",
"y c #002000",
"u c #714A37",
"i c #381C18",
"p c #522B0E",
"a c #5C3414",
"s c #5A2F26",
"d c #452723",
"f c #54281C",
"g c #480000",
"h c #080810",
"j c #600000",
"k c #7A250E",
"l c #800000",
"z c #714337",
"x c #484848",
"c c #980000",
"v c #505050",
"b c #0E0E1A",
"n c #442104",
"m c #805430",
"M c #96734A",
"N c #6C2404",
"B c #724826",
"V c #8C3704",
"C c #9E290A",
"Z c #4B5D51",
"A c #8D2A0B",
"S c #6A3E1E",
"D c white",
/* pixels */
" .Xo.............. O O ....................++++++.......OO..oOX@",
".#Xo...+#$+##%#. OXXXXXO&XO*  OOXXXXXXXXXXO.+..+#%#++#%###++@.O@",
".#Xo..  .XXXX=Xoo@@ooo@oXXXXX@oXoooooXX@@@@@@@@@@@@@@@@@@@XXX.O@",
".#Xo ..     OX X&&&&XOO ... XX ...................*    XXXXXX. @",
".#@o====--==...+++++++###.....+.......  . XXXXXXXXX   ;     X  @",
".#XXooooooooooooooooooooooooooooooooooooooooooooooooooooooooX;O@",
".%.Xo@o@o@ooo@o@o@ooo@o@o@ooo@o@oo@o@ooo@o@o@ooo@o@o@ooo@o@o@;.;",
"+%.Xoo@o@o@o@o@o@o@o@o@o@o@o@o@oooo@o@o@o@o@o@o@o@o@o@o@o@oo@;. ",
"#:.Xo@o@o@o@o@o@o@o@o@o@o@o@o@o@oo@o@o@o@o@o@o@o@o@o@o@o@o@o@;+ ",
"#:.Xo@@@@@@@@@@@@@@@@@@@@@@@@@@@oo@@@@@@@@@@@@@@@@@@@@@@@@@o@;+ ",
"#:.Xo@@@@@@@@@@@@@@@@=@@@=@@@=@@oo@@=@@@=@@@=@@@=@@@=@@@=@@o@;. ",
"%:.Xo@>,>@<12@>,>@@@@@@@@@@@@@@@@@@@@@@@@@1@@@@@13<@,4,@13<o@;. ",
"%:.Xo@5,>@<1<@5,>@@@=@=@=@=@=@=@=@=@=@=@111@=@=@,4,@>4,@131o@..X",
"#% Xo@676@676@676@@=====================@<81===@787@787@787o@ .X",
"#9 ;o@5,>@=,5@5,>@@===================@1==<01==@,q,@>w,@54>o@..X",
"#%.;o@w3,@w3,@w3,@@=========@@=======131==<31==@54>@we,@we,o@..;",
".9;.o@r,,@r,,@r,,@@========@===@=@=@=@181=5t1r5@rq,@r,,@r,,o@..;",
" %  o=t1r=t1r=t1r@@555555@<17111rttt71<<01=t1r==t,r=t1r=t1ro@..;",
"#:+ o=t>t=t>t=t>t@@55555@=318303111<833<31=5t<r=t,t=t>t=t>to@..;",
"+:+ o=twt=t,t=twt@@=5555@5126<<ryyyy711=t1t5=781t>t=twt=t,to@ .;",
"+: ;o=t>t=t>t=t>t@@=555@1171<<tyyy6<25>55r1t>132t>t=t>t=t>to@+.@",
"#% ;o57u757u757u7@=@@5@@038303111<833>5>>t17=5157u757u757u7o@..@",
"#%.-o=>,15>,1=>,1@@@@@5@117<<rtttt7115>>>=731=55,3,=>,15>,1o@.+@",
".%.Xo5,3>5,3>5,3>@@@@@@@=====@==55555===5=510>>5>w55,3>5,3>oX.#@",
" :  X;--555>55555=XXX=====================5>>-------->55555=;.+@",
";..++  i*********iiiiiiii*................+++++++++++++..;++..+@",
" .--;**pp*$$ppp$ppppp6666a$$****************$$$p6sapppp*ii +..+@",
"  ;;;;;;;;;;**;;;;;;;;;;;;;;;;;;;;;;;;;;;;;;;;;*;;;*;*i*;;;.. #@",
"  ---dddidi**$$diiddd$d$**i$pdppppp$$$**ppp$6dd666dddiii-i 9.+#@",
" ;XX;X;;;;;;;;;;;;;;;;;;;;-iii;ii*;;;;;;*iiiiii;;;*;**;;;- 9.++@",
"+== oooooooooooooooooooooooooX.+#+Xo@@@@@@@@@@@@@@@@@@@@@@@@ ++@",
"+@@ @oooo@ooooooo@ooooooo@ooo@.+#+Xd @@@@@@@@@@@@@@@@@@@@@@@; 9;",
"+@= X=  >% = f>ggogg@g&o&g@&&@.+#.X-$=ii>@@@@@@@=@@@@@@@@@@@;+#@",
"+@= X@ &@  @&&@&&@&&@&&@&&@&&X.9%.;$dd6>>h@@@@@67=@@=@@@@@@=  9@",
"#@X X>ff,%%@jj@jj@jj@jg@gg@&&X.%:+;6666,w,i-6w@u7>,,@=>>iii- +9;",
"+@X ==6j@kj=+l@%l@kl@+l@%j@O&X.%:+-666d,w46$zxdu7,3q,,>=-i6-.  ;",
"#@=+=>6l@%c=%l@kl=%l=%l=%l@+gX.%k%i6666,qq6$z8du7>w44=h>,44-.  ;",
"#@X+X5fl@#c5.c@#c@#c=#c5#c@OgX+%%%*6666>4v7*zq4u7>www>=,,4w-. 9;",
"#@X9X5.j=+c@.l=+l@%l5%l=+l=.&X+%%9*666i=qvz+6vdzu>1wwbh>ww>-+ 9;",
"%@X9Xwjj=jj=lj=jj=lj=lj=jj@&&X+%9#i6666=wxz+6uduu>1wwb=>,,>-  9;",
"%@X#=5&&5&&5&&=&&5&&>&&=&&5&&X+%9.-6676>xvz.6zduu>1qwb=>,>,-# %;",
"#@X @@gj>jg5gg5jj>jj>jj>jj5&XX %9+-diad=446+i6dz6=>w,hh=,,>-99% ",
"%@X#XXOXXXXXXXXXXXXXXXXXX.;X@X.+++;XXXX===XXX;--;X===@@====;9f9;",
"%@++;..+++++++++++++........i.nn++n......    ..+++++...++++..;9;",
"%@+ ii*ppppas6p666d6w666666666pppp6sa6666ppppp$ppp$$*pp**;--. 9;",
"#@p;*-pdp$p$$$p$$***$$ppppppppppppppppppppppppppaapppp$*$;;; 9:;",
"#@9 i=iii---***--*$ppp--***$$$$ppp$i**$d$dddiid$$**ididdd--- 9:;",
"+@9 -;;;**;-;;;iiiiii=;;;;;;=ii-*ii-;;;;;;;;;;;;;;;;;;;;X;XX;9: ",
"+oX;@ooooooooooooooooooooooooX. ..oooooooooooooooooooooooooo+::;",
"+oXX@oo@ooo@ooo@ooo@ooo@ooo@o@; #+@oooooooooooooooooooooooo@+:: ",
"+@XX@o@o@o@o@o@o@o@o@o@o@o@o@@; #+@oooooooooooooooXXooooooo@.k:;",
"+oXX@@@o@ooo@o 7-ooo@+9o<1oo@@;++.@oo@ooo@ooo@ooo@+9o<1oo@o@.k:.",
"+oX;@@=1r@o@o@mM$..&oNN@>,o@=@;+9.@o1r@o@o@cgo..&oNN@>,o@j@@.:: ",
"+oX.==@1r@ d@@md$9N9@pa@y>@@=@;99+@@1r@ d@@gg+9N9@pa@y>@@l@@.%: ",
"+oXO===3r=@MB=m7$:VN@$a=y>@6=@;%9+@@3r=@MB=NNO:VN@$a=y>@6u=@.%: ",
"+oXO=5=0r==7B=B6 du&=$ =t3===@;k%+@=0r==7B=Cg@du&=$ =t3==l=@.%:+",
" @XO==5Z15=B65Bu $ X=$i550==5@.k%+X=Z15=B65Ag@$ X=$i550==c5@.%:+",
" @XO=55e155S75S7 $$X5 $5>3565@.:%+=5e155S75NN@$$X5 $5>35685=.%:#",
"+oXO=5>01>5Sm>Sm $6;5pa>>>5;>=.:9.=501>5Sm>cg@$6;5pa>>>5;%>=.%:#",
".oX.=>>01>>>S>ddi%S%>$a>>,>;>=.:#.=>01>>>S>lg+%S%>$a>>,>;#>=.%:+",
"+oXOX==55==X;;;;;;;;XXX====X=-.++.X5>555-;;... + ...----;;XX.9:+",
"+o;..++++...+++++..    ..........n..........+++++++++++++..;++k+",
" @ .--;**pp*$$ppp$ppppp6666as6aa6p666666666w6d666p6sapppp*ii +k+",
".@9 ;;;$*$ppppaapppppppppppppppppppppppppppp$$$ppapppapa6a**;p:+"
};
