/* XPM */
static char *result[] = {
/* columns rows colors chars-per-pixel */
"64 64 255 2 ",
"   c #414928",
".  c #495130",
"X  c #415128",
"o  c #394121",
"O  c #394128",
"+  c #515930",
"@  c #495128",
"#  c #515939",
"$  c #494928",
"%  c #837B49",
"&  c #727249",
"*  c #838349",
"=  c #938C51",
"-  c #938C59",
";  c #A59359",
":  c #9C9351",
">  c #8C7B49",
",  c #726A41",
"<  c #938351",
"1  c #636341",
"2  c #414930",
"3  c #495141",
"4  c #414939",
"5  c #414139",
"6  c #434941",
"7  c #515941",
"8  c #8C7B41",
"9  c #A59C59",
"0  c #AD9363",
"q  c #9C9359",
"w  c #A59C63",
"e  c #9C8C51",
"r  c #8C8349",
"t  c #938C49",
"y  c #939351",
"u  c #8C8351",
"i  c #636A51",
"p  c #AD9C59",
"a  c #9C8C59",
"s  c #A59351",
"d  c #A59363",
"f  c #596351",
"g  c #495149",
"h  c #596363",
"j  c #636A6A",
"k  c #7B837B",
"l  c #838C7B",
"z  c #838C8C",
"x  c #6A726A",
"c  c #415151",
"v  c #283028",
"b  c #726332",
"n  c #B59C63",
"m  c #B5A563",
"M  c #AD9359",
"N  c #AD9C63",
"B  c #B5A559",
"V  c #394949",
"C  c #727B72",
"Z  c #727B7B",
"A  c #394141",
"S  c #A59C51",
"D  c #B59C59",
"F  c #B59351",
"G  c #ADA559",
"H  c #7B7B63",
"J  c #515963",
"K  c #303928",
"L  c #212118",
"P  c gray3",
"I  c #182121",
"U  c #414949",
"Y  c #939C9C",
"T  c #9CA5A5",
"R  c #212821",
"E  c #938349",
"W  c #ADA563",
"Q  c #9C8351",
"!  c #515951",
"~  c #8C9393",
"^  c #18210F",
"/  c #515949",
"(  c #303937",
")  c #8C8359",
"_  c #A58C59",
"`  c #B59359",
"'  c #596330",
"]  c #ADB363",
"[  c #ADA54E",
"{  c #414921",
"}  c #0F1808",
"|  c #302828",
" . c #ADB5B5",
".. c #6A727B",
"X. c #2A2E18",
"o. c #826A41",
"O. c #49361A",
"+. c #8C9C9C",
"@. c gray13",
"#. c #A5AD59",
"$. c #9C9D58",
"%. c #B5BDBD",
"&. c #7B838C",
"*. c #F7F793",
"=. c #F7F7B5",
"-. c #FFFFAD",
";. c #DEE76A",
":. c #838341",
">. c #495559",
",. c #7D7B51",
"<. c #A58C49",
"1. c #0F0808",
"2. c #727230",
"3. c #CED683",
"4. c #CED69C",
"5. c #EFE7A5",
"6. c #DEE793",
"7. c #939A43",
"8. c #E7EFB5",
"9. c #DEDEB5",
"0. c #D6D69C",
"q. c #D6E7A5",
"w. c #E7EFAD",
"e. c #F7EF8C",
"r. c #E7DE49",
"t. c #21280F",
"y. c #634E2D",
"u. c #BDBD9C",
"i. c #F7F7BD",
"p. c #EFEFBD",
"a. c #E7EF7B",
"s. c #303918",
"d. c #939C93",
"f. c #BDC66A",
"g. c #D64128",
"h. c #F7AD83",
"j. c #C0BD8B",
"k. c #F7B58C",
"l. c #F6CFA3",
"z. c #FFFFC6",
"x. c #C6BF48",
"c. c #080F08",
"v. c #8C723C",
"b. c #728383",
"n. c #D6CEA5",
"m. c #EFF7BD",
"M. c #F7EFBD",
"N. c #D6DEB5",
"B. c #181818",
"V. c #B18051",
"C. c #F7DEB5",
"Z. c #A5A57B",
"A. c #837239",
"S. c #EFEFAD",
"D. c #EFF7C6",
"F. c #F7F7C6",
"G. c #A59C72",
"H. c #2A3030",
"J. c #EFF7A5",
"K. c #F7EFB5",
"L. c gray6",
"P. c #637272",
"I. c #DEEFB5",
"U. c #F7FFC6",
"Y. c #FFFFB5",
"T. c #FFF7BD",
"R. c #838C93",
"E. c #B59C51",
"W. c #BDD693",
"Q. c #BDDE9C",
"!. c #ADD68C",
"~. c #C6E7A5",
"^. c #FFF7C6",
"/. c #FFFFBD",
"(. c #FFFFCE",
"). c #A5BD83",
"_. c #6A5939",
"`. c #6A6A41",
"'. c #A58C51",
"]. c black",
"[. c #ADBD8C",
"{. c #DEC693",
"}. c #818C46",
"|. c #AD8C49",
" X c #515149",
".X c #AD9C51",
"XX c #BDBD93",
"oX c #212828",
"OX c #AD9351",
"+X c #837B41",
"@X c #F7EFC6",
"#X c #8C939C",
"$X c #9C8C49",
"%X c #F7FFCE",
"&X c #7B8C8C",
"*X c #937B41",
"=X c #C6CE9C",
"-X c #7B7B49",
";X c #A5ADAD",
":X c #AD8C59",
">X c #393030",
",X c #B5B593",
"<X c #516359",
"1X c #8C8C6A",
"2X c #414951",
"3X c #414128",
"4X c #554928",
"5X c #676E63",
"6X c #AD9349",
"7X c #000808",
"8X c #0A0000",
"9X c #A59349",
"0X c #516363",
"qX c #533F1A",
"wX c #AD8C51",
"eX c #7B6339",
"rX c #7B7249",
"tX c #635951",
"yX c #514941",
"uX c #9C8349",
"iX c #494139",
"pX c #726A63",
"aX c #6C592A",
"sX c #6A6359",
"dX c #180F0F",
"fX c #AD8349",
"gX c #837241",
"hX c #413928",
"jX c #495928",
"kX c #394918",
"lX c #8C8341",
"zX c #938341",
"xX c #634921",
"cX c #9C9349",
"vX c #7D6A39",
"bX c #937B49",
"nX c #A58349",
"mX c #7B632C",
"MX c #394928",
"NX c #938359",
"BX c #9C8341",
"VX c #394149",
"CX c #A59339",
"ZX c #D65930",
"AX c #938C41",
"SX c #9C8C41",
"DX c #8C8339",
"FX c #A59C49",
"GX c #432C0F",
"HX c #A55930",
"JX c #839393",
"KX c #F7E7BD",
"LX c #C69C63",
"PX c #494141",
"IX c white",
/* pixels */
"      . X   .   o . o O         + . . X . o . . @ + + # + . + .     . .   . + . . . . @ . . . . . + . $ + . . + . . . .       O ",
"O % & * = - ; : - > , < 1 2 3 4 5 6 3 7 1 1 8 * * < = 9 0 q w w e r = r t e y u = < , i 7 3 3 6 3 1 i 1 - ; q q p a q : - a *   ",
"o * y s d ; 9 p 9 q u f g f h h j k l z x c v v b > n p m n M N 0 B w q 9 ; q = 1 3 V h C Z k Z l Z C g A 1 s 9 w d S ; 9 - *   ",
"  r a 9 m D F p G H h Z C J K L P P I U C Y T g R E n B p W D D W n Q , d s 9 2 ! z ~ x g R ^ L K / l T z ( O N N n n N ; ) u   ",
"  = M N N _ M ` H ! z x L ^ ' ] , y [ { } | k  ...X.N B m W m n D N o.O.> S i Z +.j @.} + #.#.$.[ ' R 3 %.%.c 3 B m m n d N q   ",
"  - 9 ` N _ m - c &.f R #.*.=.=.. H -.*.;.:.} >.%.h O m ` ` q ,.W 0 <.8 > 3 j T 6 1.2.3.4.5.H - 6.6.;.7.v T %.c # N w p p N q   ",
"  = S 0 p m y V ../ o *.=.8.9.0.0.q.5.w.=.e.r.t.! %.>.u D n , y.n d ; S u J T c t.;.6.5.8.9.u.i.p.8.w.a.;.s.d.%.I u N ` 9 N - X ",
"X _ s N W W f &./ R f.g.h.j.k.l.i.z.i.=.w.p.) x.c.k T 5 d m v.8 N S : ; g b.f ^ 3.n.8.m.M.i.N.p.m.m.p.0.,.x.R  .Z v N p N d d . ",
"@ : 9 9 M u ..z B.f.5.V.h.h.h.k.C.M.z.8.0.n.Z.e.A.R T ( = D M w ` D B a h b.@.$.S.i.i.D.F.m.p.F.F.F.i.G.H 3.7.A T H.. M p w q   ",
". q 0 m N & Y ! ^ J.5.h.h.h.h.h.k.l.M.8.w.0.K.=.a.L.C P.& M s D B N n i ~ j ^ 6.S.I.q.I.I.I.8.I.8.U.F.8.Z.=.a.^ &.h 1 w 0 w a   ",
"+ = ; W p 3 ~ K & Y.l.h.h.h.h.h.h.k.l.C.T.=.w.z.J.' g R.! F F m m D E.i R.A 2.J.q.W.W.W.Q.W.Q.!.~.^.F.8.F.F.J.+ g R.g 9 < - ) . ",
"  y ; G $.A %.B.f./.5.k.k.h.k.h.h.h.k.C.F.z.9.(./.f.R Y h ; n p m D M j b.L f.K.~.!.!.!.!.!.!.).Q.F.(.F.F.U.=.f.L ~ V s _.`.u . ",
". : '.w - ! %.].[ [.n.l.l.k.h.h.h.k.{.9.(.z.K.z.Z.] L.+.c w D F q D B h b.P 3.}.!.!.).!.!.!.!.).~.(.(.F.(.8.q.;.L.~ A G |.e -   ",
". e < > % h  .].2.u q.M.C.l.k.{.n.9.p.F.F.8.0.H  X- P Y ( E - Q E .XB c b.P $.}.!.!.!.!.!.!.).).I.(.(.(.F.XXk m oX&.A N OXa q . ",
"X _ w s +X>.%.L.[ *.S./.z.8.n.8.@X(.(.(.p.N.9.(.z.3.oX#X( $Xy.% D E.W V P.@.f.8.Q.).).!.!.W.).!.@X(.%XF.(.z.z.3.( &XU D p d 9 . ",
". y $.S q 4 ~ v { e.S.=.z.^.F.(.(.(.(.z.F.p.F.(.z.- g &.4 ` b *XW 9 D 3 ..g `.-.9.!.).W.~.Q.!.=XD.(.(.F.F.U.i.- V Z g W $.; = @ ",
"+ = e p 9 # R.j } ;.=.=.i.F.F.(.(.z.(.(.(.(.(.z.i.v z Z 2 G '.'.M F G -Xj C t.*.8.=X4.I.m.8.N.9.U.F.(.F.U.F.=.s.C J i W ` OX= @ ",
". q 9 _ 0 , J ;XL :.e.q.n.9.p.(.z.(.(.(.z.(.z.z.j.6 &.( # n 9 :X` G 9 e >.z >X#.=.Z.XXi.(.%Xm.9.p.(.F.N.p.i.f.( &XH.-XW 0 q = . ",
"@ = ; s s q 5 ;XC } ;.- Z.i.F.(.(.F.F.F.,XZ.z.J.L C <X5 = W D ; M N N 9 7 b.k ^ *.1X=X8.8.p.8.9.p.F.z.l 1XJ.5 &X2Xv w W ; 9 $.@ ",
". y S s s s . c  .g t.a.=.z.(.z.n.%X(.z.n.1X3.O j z g `.S M .Xp .XB N [ u c Y j s.e.=.F.F.U.9.9.F.F.F.9.3.  C R.H.1 & u a d d . ",
". y ; OX.Xs .XK h ;Xg ^ #.-.i.z.1XZ.z.i.-.] ^ g &.4 7 : S G w 9 D w F .X$.i h Y x I #.=.i.F.1XG.F.i.=.f.@.f &.A 5 3X3X4X< q *   ",
"+ y ; N .X9 '.q s...%.z v I , 3.j.3.3.& I L h 5X# 7 E s F $XD ` 9 M d E.<.; 7 ! T l >XX.- W.G.XX4.$.K v >.P.A . 3X$ _.v.d ; - . ",
"  $X9 S M D 6X.X< K >. .;Xl g B.7X8Xv 4 f ..f 3 1 2.: E.W E.p p M G M ` 9 9X'.1 V h b.C c @.7Xc.R 6 h 5X0XV 1 d _.qXu p 9 ; q @ ",
"X e q 9 ; s OXs wXeX+ 4 2X&.T #X&.&.Z P.7 4 2 u : > p N ; ` M OXs W B E.p 9 s e rX6 ( J ..P.Z b.b...! V / - 9 e < < q ; 9 q e @ ",
"+ = ; ; 9 9 F w 9 E a ; r # 6 U U U g 7 & ,._.= ; o.9XM 9 <.s s $.> S p :XN OXE.e qXK 3XH.H.oXH.A 6 7 & rX) < < e ; '.: p ; - . ",
". = S OX.X; 5  XL.B. X5 B.tXtXyX5 ].L. X6 >XK >X5 >XoXQ y .X:XW u O.8 G 5 oXL.].P P ].B.@.L.B.].L.].5 >X>X@.| I @.uX: a .Xw = @ ",
"X = s N ; S >Xk iX@.| ].P P L.pX5  X].pXL.L.P >X8XoXL.aXeX; d p , A.*X9 >X].yXC >XL.>X@.oXpX5 pXL.pXL.oXL.5 P P 1.wXp 9 9 '.- @ ",
". r M .X: -XL.tXiXsXK ].pX>X].pXtXyXL. XsX].@.yXoXiXdX+XfXd q : A.q = d L.].@.sXyXL.@.>X8XC tX| ]. XpX].@.yX5 | L.r < = - d a @ ",
"O % < Q r ' P P ].].].].].].P P ].].].].].].].].].].].' N 8 +X9 = r e gXP P ].].].].].].P 8X].].].].].].].].].].].O.hXiX# rX-X  ",
"  , o.rXE r ' 1 A.' A.+ 2.jXA.-X$ { ' + kX@ o + lXlXzX'.M xXr : 9 s : o.e _ eX- ; $X: <.9X<.n p cXw S s vXvX% u bXxXO.3X4XhX$ O ",
"  r = a s ; s $X<.nXzX* 9X2.r <.aXy.+Xb $ mXo.Q OXnXy : nXe '.'.'.'.bXs < .X> bX> = <.:X|.S _ M s '.[ 8 b Q q a ; cX8 eXrXo.+ s.",
"MX+X: s s :X.XM nXuXuX; ; <.9XwX<.wXB S qXv.M NXS Q $X9XM OXs e Q Q uXQ e p 9X> 8 '.9X: s s 0 9 _ p .XzXo.'.d .Xw ; .X'.; s * MX",
"  r = p .XS M :X: e Q s s k l &XP.h J i # , *X8 M $XwXw e +Xe gXgXnX8 o.E.[ ; bXuX: < & / U U h h f H r o._.% F p 0 S a a ; u   ",
"@ t s ; E.; M OX: nX,.C z +.;X;X .%.%.T &.J / , q uX9X9XgXgXo.eXuX'.v.E '.s F BX$X/ h &XT T ;XY b.Z Z >.3 -X= 9 OXq < 4X_.a u o ",
". t < S s OX; 9 e rXP.R.;Xd.f K R R K x Y ;X&.c ,.; : OX*Xe : OX'.'.<.'.'.` 9 % ..;Xz k ! R B.^ K J z ;XZ A & ; ; : xXO._.d * . ",
"  r t e 9 wXuX> & j #Xj 5 K * 3.w $.f.' t.g d.T J % Q e ` p : s s E uX$X9 M 1 ! ;Xx | X., f.$.3.] ' L 5 d.;XA ,.M cXb vX- = *   ",
"MXr $XS OX9 _.+ h &Xf L ] 6.w.w.Z.H *.6.;.7.t.C Y >.& e p S 9 e e uXOX8 _._.J  .sXR #.6.5.9.G.1X6.6.;.7.^ x T A ,.'.: _ e Q u   ",
"  r : S s G , h R.g s.f.w.K.p.p.N.u.m.9.6.a.x.K i ;XJ u 9Xp S E uXuX'.uX$ >.;Xj MXa.q.K.m.K.XX1Xm.K.*.a.r.K h &.A u e : = = r   ",
"@ r <.s '.p f &.f ^ 3.1X0.9.K.m.i.8.8.i.p.K.] x.R l &.7 OXF ; gXQ e '.gXyX..l X.a.H i.8.8.N.n.=XG.Z.D.8.[ r.^ l Z / e e = a -   ",
"  t _ s s u J R.v ] S.9.j.8.m.F.F.F.p.@XF.[.H a.:.# k VX= OX: E e OX'.) ! T 5 ] w.4.[.9.n.j.,XXX,XZ.XXZ.x.r.CXK  .V % = < $X>   ",
"@ t ; .Xe & &.k v =.p.9.8.N.F.F.F.F.F.F.^.9.Z.K.a.X.C j ,.D zX> : s *X1 ~ C X.6.K.9.M.i.N.,X,X,X,Xj.f.0.a.r.r.kXY P.i '.= : u @ ",
"  e '.e e ! R.f * K.8.i.F.p.p.m.m.(.F.U.F.F.%Xi.J.1 tXb.5X'.uXOXs <.gXg &.6 -XJ.8.9.i.F.n.XXXXXXXXXXj.0.=.a.r.CXx b.4 uXt t r   ",
"MXt e : t c ~ | f.8.~.9.q.~.~.Q.q.F.(.F.(.F.F.U.=.f.R z >.s uXOXs $X8 U z L 3.S.9.K.F.8.=Xu.u.u.u.u.u.5.J.e.x.x.O.R.U Q a : E   ",
"o > e cX= >.~ B.3.G.).W.!.W.Q.~.Q.I.(.U.^.(.U.8.u.a.P Y h M 6XOXOXuXaXA R.L.a.G.[.9.9.n.,X,X,X,X,X,XN.C.5.M.ZXZX} +.c e M _ = + ",
"o % s e : ! R.} 3.1X).W.W.!.W.Q.~.~.m.(.U.F.^.,X1X*.7XY P.cX<.AX*XeXO.U ~ L.] G.j.0.8.n.,XXXXXXXXXXXn.C.l.C.ZXZXP Y >.e e e r   ",
"@ * cXe e U ~ L 3.q.).[.W.W.W.W.~.Q.~.F.(.F.U.F.U.3.| Y j s SXzXDX_.O.2X .@.f.=.0.m.F.F.D.p.p.p.p.m.i.C.l.M.ZXg.R ~ 3 t e _ = . ",
"  r Q s ; g R.( , S.~.W.W.Q.W.!.Q.~.~.8.z.F.i.T.U.- 1 +./ FXD *XE.aXGXJ  .6 1 J.9.w.F.U.F.F.F.F.F.F.@XC.0.l.g.HX6 x 7 9X_ e % @ ",
". r _ ; r i &X&Xt.*.M.~.~.~.~.I.I.m.F.F.i.T.i.i.;.3X5XJX1 DXgX8 E *XqX X~ &.L *.8.4.p.F.D.@XF.U.F.F.C.k.C.g.g.O.x i i t = s r @ ",
"  b > $X4X+ h ~ oX#.=.j.N.F.(.F.F.M.M.=.K.i.i.e.x.>X~ &.`.o.qXE e Q bX% c &.K $.=.Z.0.9.9.p.F.F.p.C.{.{.V.g.g.| z 7 r = '.$Xt . ",
"o _.b e xXeX/ P.P.t.*.G.u.z.F.C.C.C.C.M.i.S.*.r.vXY b./ BXzXo.: s gXeX*X/ J z R e.G.N.w.p.F.F.F.C.{.{.g.g.g.hXx ..# E uX: ; t   ",
"o % = e $XnX_.V b.>.s.e.=.F.F.F.M.KXC.h.*.FXx.A.z #XA eX: = t .XS s eXE r 2X~ f o e.=.K.p.p.p.8.8.8.9.LXZXyXh Y # r |.- q e =   ",
". r <.:X$Xv.eX7 2Xz J ^ ] =.i.F.:XZXZXg.ZXx.U ~ b.V 3X+Xs cXs .XuXvXo.v.<.& U T Y t.] =.i.F.1XF.F.F.=.j.O.J z >.& $X$X$X'.= t . ",
"3Xr $XF '.> o.8 # c R.C v s.1X3.LXg.g.HXHXi ~ &.H.# gXe : $Xs s 8 o.*X> _ $X2 A ~ T | s.1X3.K.S.4.1XK v C b.V . vX'.E ; s e y . ",
"o v.S s '.<.> $X$X, c P.b.Z P.@.L.oX! x ~ Y f H.# nXzXuXs +X<.zX_.9 <.aXnXs 9XK A ..~ h K B.c.c.R f z Y J A # 8 b q e e : 9X= . ",
"o % : OXe t > zX$XuXgX4 A 2XZ R.R...P.z U H.K gXzX<.bXvXgXe $XxXO.aXy.xXbXs <.$X% 4 U ..h R.z #X~ ~ j V 4 , -X: $Xe s 9X'.9 t . ",
"$ gXuXs nXe 8 *X$XuX> eX+X1 6 H.oXoXH.4 1 b bXr $X$XuXxXy.qXO.O.O.4XaXeX*X6XuX<.$XSX+X3 ( A A oX( 6 i > r ; wXwXs :X:X:X:XS cX+ ",
". A.zX6X; '.5  X XsX XL B. XtXL 5 iXsX XiXP L.| 5 >XK > bXv.8 vXqXeXF nX$X@.|  XC  XtXl tX XB.5 5 sXyXPX5 5 5 5 5 oXwX: 9 ; e + ",
"$ rXs M <.'.>Xk PX1. XL.@.@.5  XdXpXsXpXL.oX X@.].iXL.BXzXSX'.eXGXeXs $X<.>XC yXk sX5 k @.iXL.5 sXtXpXL.oX XC pXiXL.:X<.S = e @ ",
"O b : : ; E L.tX5  Xv @.sX>X@.tX@.yXL. XpX].@. XB.3 dX$XnXwXaXGXGXy.|.$XOXdXtXiXsXtXPXsX>XsXpXtXyXL. XpX].@. X5 3 dX'.M wX$Xt . ",
"3X+XQ <.9X<.} P ].].].].].].P P ].].].].].].].8X].].].uX*X< v.qXGXaX<.BXOX} P ].].].].].].P P ].].].].].].].8X].].].wXOX$Xq t . ",
"@ 8 < $X< s nXBX$XuXBX'.E t uXe nX$X` 9X$XuX'.cX9XOXuX$XbX$Xs e mXmXBX$X6X9XnXE *Xr 6X'.s A.eXuX<.t Q e ; wXs _ s : : e e e -   ",
"  +X= r Q Q zX< 8 *X: E zXuXt E t < <.$X<.e $XwXs <.<.e zX: E eXA.nX$XBXe s e 8 aXv.; = E vX% r s uXuXt r uX< t : E < = Q % +X  ",
"o gX+Xu r * +X+X, gX$XE zXgXgX> +Xr t < = E gXr t $Xr 8 < +XqX| _.r b gXr bXE 8 +X+Xr +X:.8 t t t +X+XaX`.E +Xt E u e = > r r   ",
"MXMX    MX    @   @ + @ @   $   $ 4X@ { @ $ @   @ . + @ @   o o     o $ @   o @ O {   o     $ MX@ 4X  s.@ + @ $     . + @ .   2 "
};
