/* XPM */
static char *result[] = {
/* columns rows colors chars-per-pixel */
"64 64 220 2 ",
"   c #030303",
".  c #080606",
"X  c #090907",
"o  c #0B0B0B",
"O  c #110E0D",
"+  c #12110E",
"@  c #141312",
"#  c #181614",
"$  c #161812",
"%  c #1A1A14",
"&  c #1C1C1A",
"*  c #0F120F",
"=  c #211E1C",
"-  c #1E201C",
";  c #23221D",
":  c #28261D",
">  c #28261A",
",  c #3A371F",
"<  c #232321",
"1  c #292624",
"2  c #2B2A25",
"3  c #2D2C29",
"4  c #262820",
"5  c #312D25",
"6  c #302E29",
"7  c #2E302A",
"8  c #33322C",
"9  c #3C3A2D",
"0  c #3C362B",
"q  c #353631",
"w  c #393732",
"e  c #3C3B33",
"r  c #3D3D39",
"t  c #353B37",
"y  c #2C3232",
"u  c #423B2C",
"i  c #413D33",
"p  c #413F3A",
"a  c #3D413B",
"s  c #36423B",
"d  c #444234",
"f  c #45433B",
"g  c #4A463C",
"h  c #4B493E",
"j  c #4A4333",
"k  c #54483B",
"l  c #545136",
"z  c #56533B",
"x  c #5A593B",
"c  c #4B4C2F",
"v  c #3F4242",
"b  c #4C4C43",
"n  c #454D4B",
"m  c #464A46",
"M  c #524E44",
"N  c #544F47",
"B  c #4A524E",
"V  c #4E5044",
"C  c #535245",
"Z  c #5B5444",
"A  c #55564C",
"S  c #59554A",
"D  c #5D5B4D",
"F  c #5C5B44",
"G  c #4E5452",
"H  c #4E5A56",
"J  c #515654",
"K  c #545C56",
"L  c #5B5B53",
"P  c #555C5A",
"I  c #595E5E",
"U  c #4B4F51",
"Y  c #635C4B",
"T  c #605C40",
"R  c #635E53",
"E  c #57615C",
"W  c #5A635D",
"Q  c #596156",
"!  c #6A654B",
"~  c #666354",
"^  c #696556",
"/  c #6A665A",
"(  c #6C6A5C",
")  c #686759",
"_  c #726E5B",
"`  c #726956",
"'  c #73725D",
"]  c #767259",
"[  c #706B4E",
"{  c #5A5F61",
"}  c #5D6562",
"|  c #5E6866",
" . c #5A6865",
".. c #5F706E",
"X. c #616A64",
"o. c #6D6C61",
"O. c #646D6A",
"+. c #656A68",
"@. c #716D61",
"#. c #6A726D",
"$. c #65716C",
"%. c #737264",
"&. c #7A7665",
"*. c #7A7965",
"=. c #757568",
"-. c #7A7669",
";. c #7C7B6C",
":. c #76796C",
">. c #6D7672",
",. c #7E7E71",
"<. c #727E7A",
"1. c #737C76",
"2. c #827F5E",
"3. c #817D6B",
"4. c #827E65",
"5. c #817E71",
"6. c #76837D",
"7. c #7A857E",
"8. c #7B8A7F",
"9. c #74897F",
"0. c #7C826F",
"q. c #84836B",
"w. c #89836C",
"e. c #8E8A6B",
"r. c #848375",
"t. c #898472",
"y. c #8E8B74",
"u. c #848479",
"i. c #8E8B7C",
"p. c #89867B",
"a. c #928C75",
"s. c #928E7C",
"d. c #998D76",
"f. c #94917B",
"g. c #9C947D",
"h. c #9E9A7D",
"j. c #9C9A77",
"k. c #90886D",
"l. c #A19A7D",
"z. c #768581",
"x. c #7B8781",
"c. c #7E8B84",
"v. c #7C8D89",
"b. c #7E9085",
"n. c #818C86",
"m. c #838F8A",
"M. c #8B8D81",
"N. c #819186",
"B. c #85938C",
"V. c #89948E",
"C. c #8C988F",
"Z. c #87988D",
"A. c #959382",
"S. c #9A9585",
"D. c #9C9984",
"F. c #9C9C8C",
"G. c #94948A",
"H. c #879591",
"J. c #8B9692",
"K. c #8D9A94",
"L. c #8E9B98",
"P. c #879892",
"I. c #929B96",
"U. c #939C99",
"Y. c #989E9C",
"T. c #A39B84",
"R. c #A39E8D",
"E. c #A49886",
"W. c #8EA297",
"Q. c #8FA098",
"!. c #91A197",
"~. c #94A49C",
"^. c #99A39C",
"/. c #96AA9D",
"(. c #99AB9D",
"). c #9DA08B",
"_. c #ACA486",
"`. c #A5A38C",
"'. c #ABA58C",
"]. c #ADAA8D",
"[. c #A8A486",
"{. c #A3A391",
"}. c #ABA592",
"|. c #ABAA97",
" X c #B2AD93",
".X c #B9B496",
"XX c #B5B49C",
"oX c #B8B69D",
"OX c #BBBA9C",
"+X c #B2B395",
"@X c #B3AF8F",
"#X c #96A6A1",
"$X c #9AA6A2",
"%X c #97AAA1",
"&X c #9CABA4",
"*X c #9EAEA9",
"=X c #9EB1A9",
"-X c #A1ADA6",
";X c #A1AEAA",
":X c #ADAEA1",
">X c #A1B1A6",
",X c #A4B2AC",
"<X c #AAB4AE",
"1X c #AAB5A8",
"2X c #BCBCA4",
"3X c #AAB6B2",
"4X c #ACB9B3",
"5X c #A7B6B1",
"6X c #B0BAB5",
"7X c #C2BA9C",
"8X c #C3BCA3",
"9X c #C6C5A8",
"0X c #D2CDAF",
"qX c #CDCCB4",
"wX c #D1CEB4",
"eX c #DCD9BE",
"rX c #D9D5BB",
"tX c #DDDAC3",
"yX c #E1DFC0",
"uX c #E6E4CA",
/* pixels */
"~.$X*X;X*X$X/.*X~.#XK.!.=X;X;X<X;X;X5X;X;X$X$X/.$X;X-X1X3X<X4X;X&X,X#X$X~././.*X$X;X<X&X&X>X-X,X&X;X&X&X$X/./.=X-X*X*X&X&X%X;X*X",
"U.#X$X;X*X/.W.&X>X!.$X(.&X/.%X=X,X&X&X;X/.W.&X-X$X/.-X3X,X1X,X-X,X,X*X;X~.!.,X-X&X,X*X/.&X=X(.&X>X/.W.$X%X#X~.#X%X(.*X*X(.$X*X&X",
"c.z.x.6.c.c.6.n.m.9.8.c.c.n.v.m.B.V.c.c.x.m.B.V.m.n.n.x.n.B.B.B.m.m.c.n.m.c.n.V.n.c.n.c.N.m.N.8.n.x.7.B.m.n.x.x.c.x.v.N.n.c.<.7.",
"V.V.m.n.7.n.B.V.V.B.N.n.B.B.J.C.H.m.B.B.c.B.n.m.J.B.B.n.V.V.J.Z.B.n.m.B.c.m.z.n.v.7.m.v.N.B.J.V.B.N.V.C.B.H.m.n.n.c.8.c.B.B.V.L.",
"<.x.<.<.>.O.E P W E } { X.W W E P H P } E J K L W { } I } W E W P H J { K K K K P E E E Q P E E I K P I P } I E K K | 1.#.6.7.6.",
"$X$XU.x.7.K + o @ O O @ o O + O o o . X o X . o o X X . X o . X X   . X   X X   X .   X     o o X o @ * + @ @ * o * K 6.n.J.^.I.",
"&X*X$Xn.c.E           X     X     X     X   . .     X     X     X     X   . X     X   . X   X .     X     o         J x.B.(.&X^.",
";X3X;Xn.V.P X X @   @ @ X @ @ X @ # X @ @ o # O o @ # o @ O O + o * @ @ o @ @ X @ @ X @ @ o @ @ o @ @ o @ @ . + o o J v.m.=X,X/.",
"$X4X$Xc.P.J @ + @ @ @ & & % % $ # = @ @ # O # # % # % = + = : > & # % # % % $ $ $ $ + + @ @ # # $ $ $ $ + + $ + O + G m.x.&X,XI.",
"| 4X$XB.P.I ; < 3 0 0 e e e e i u u u i p i u u u u u u , u Z Z f 5 9 u a 9 9 u d u 9 u i u d 9 u i d i 9 d d , > > J C.v.$Xx.O.",
"$.;X,XZ.I.I q b A ^ ( ' ( @.&.-.3.` 2.] 3.` [ ! [ ! ` [ u Y E.S.] Z ] ' *.] ' ' ] ] ] q.;.*.;.3.0.2.;.;.0.q.;.! c 8 Q K.b.$XP.s ",
"~.3X,XB.J.W g ~ ;.i.j.R.2XXX_.'.}.d.E.E.}.E.d.d.l.l.d.4.! 2.qXrX].w.h.g.`.j.`.].[.`.].+X+X].oXOX+X].]..X2XOX+Xq.! j E W.Z.%X$XK.",
";X;X%Xv.J.| V ,.M.2X X.XtXuXqX2X8X7X7X8X7X7X8X8X0XeX7X_.q.w.0XwXg.h.9X8X9XOXwX0X.XOXtXuXrXeXrXyX0X9X9XeXuXeX9XD.&.J I K.m.~.*X~.",
"=X;X$Xc.B.E g ) -.A.w.d.+X}._.E.'.E.E. X X_.'.T.7X0X9X@Xk.]  X`.` q.@XOX@Xl.XX[.j.[.8X9X XXX2X9X@X_.9X2XXX'.[.r.@.V J H.m.*X%X&X",
",X=X$Xn.b.Q r C ^ =.( 3.s.f.q.-.a.a.w.t.5.d.a.*.i.S.S.l.] D 5.*.Y ^ a.f.f.e.y.w.e.y.f.g.y.D.F.D.a.w.s.A.y.q.4.%.L i G m.v.*X*X*X",
"^.!.%Xc.x.P 6 f M R Z ~ %.@.R ! / _ ` R R ` ^ ~ ) %.@.&.D f S A f z ^ ( ( ~ ) ~ ) ( =.' ( %.%.' ] / ( ( _ Y Z S g 3 K V.N.$X&X/.",
"/.W.$X8.9.Q - 3 q r i g h g f h h h h g d g h g h h m b d 2 9 9 5 a h h g g g d g h b h g h g b b h b f b g d 9 3 & I I.m.%X/.$X",
"&X!.W.6.N.G * - ; 1 2 5 3 2 5 5 7 7 5 2 4 5 8 7 3 3 2 7 ; ; 2 > - 2 5 7 2 2 2 2 2 6 3 7 7 5 3 3 3 3 6 3 7 6 3 1 & + K J.B.$X&X,X",
"&X/.>Xm.c.W X o @ @ $ @ % % % % - - % - % % % & & $ # # + + & = X $ - % - $ # % % & % % % % # & & % & & & % # * o o P B.B.&X*X,X",
"%X=X&Xn.J.W X X X X X o o o o o X o X o o X o o o o o X o X o o X X o X o X o o o o o o o o o o o o o o o o o .     P B.N.*X=X,X",
"<X~.W.z.Z.)                                               X . . X                                                   P I.B.&X3X,X",
"x.*X/.c.v.W                                                     X                                                   { U.L.5X6XJ.",
"1.;X;Xc.c.}   X o   X *   X *   o o   o * . X o   o O   X o   o @   . o   X * . X O   X +   o o   o o     o         P I.I.<XU.#.",
"6.&X*X6.c.|     X   @ # o @ # o # # o # # o & # o & @ o # # o # @ o # @ * # @ o # @ O @ @ o # # o $ # * # & o @ o   I J.K.4X$XH ",
"K.*X$Xx.m.X.O $ & < q w q f r q v a e p e w h f e b r e m i e m r q p a w f r e e q 1 w p 6 # O   @ @   O *   O X   { U.L.5X$XL.",
"$X(.$Xz.V.#.- 2 e m K ) o.=.=.=.%.%.-.@.-.=.;.;.=.:.-.=.=.;.-.:.=.=.=.:.=.=.-.%.o.) b w ) G.8 = * < & @ < = @ & + . I U.L.,X&X&X",
"&X~.U.c.H.+.X   .   o + o O o O o @ O * @ o @ O + o + O * o o * + o o @ o + + O o o   O & R w = @ & & @ & < @ @ @ . { U.H.%X#X*X",
"&X*X&Xx.K.|           X     X   X .     .     .   X X     X     X   . X   .       X     o 6 < =   @ *   @ @   O .   { U.H.&X;X;X",
"*X*X&X<.P.+.o @ @ @ & # # = % # & @ $ % $ % = % @ & $ $ & $ $ - $ # & # % % % % % @ # % X & & & & 2 = < 1 & = = + O I U.B.*X;X*X",
"*X$X$Xc.m.X.; 8 r g M S Z Z Z C l T x l z S S Z Z x T x F F F F Z z C z l l l x z k S M g g k k N Z Z Z k k j i 5 = { J.J.*X;X$X",
"&X*X/.n.B.X.g o.0.s.A.R.R.d.}. XOX+X].j.].T.g.R. X2X8XOX.XXXOX|.D._.'..X].'._.}.`.'.}.E.l.E.E.d.l.@X X}.l.d.S.4.@.p +.Y.m.-X&X&X",
"%X*X;Xm.n.X.6 8 b Q R / / R ^ ^ ^ ] ] ( ' ' @./ ( o.@.o.@.' :.%.( ( @.( %.@.( ;.=.%.( _ %.&.-._ R ( &.@./ Y R C p 5 { J.V.*X&X&X",
",X>X>Xv.v.E * @ # & < 1 2 < < 1 : 4 1 < 2 3 1 1 < 2 1 2 1 4 < 1 4 7 1 3 < 2 2 1 3 y 3 y 8 p e e 8 2 : 1 < 1 < & O O P B.n./.;X;X",
",X&X&Xz.v.}     X     X X X .   o o . o o . o o   . o X X o     o X . o   o . .   . O O O o . o O   X               P m.B.(.,X,X",
"I.,X%Xc.n.X.. o * . * * X @ * X @ + X o @ . * @ o * * . * * X * * X * * o * * X * * . @ O = # @ X + + X * + o * X   I I.V.<X,Xm.",
" .>X$X7.c.X.* & & o & & o & & o & & O & & * & & * - & @ < = @ & < @ = < @ - < @ & < @ & + @.D 0 < 3 w q m e q 6 < # E I.n.-XN.I ",
"#./.~.7.n.|   @ @   * @   * *   @ @   @ @   @ @   @ @   @ @   @ O   @ *   @ @   @ @   @ # o.i.&.R M ( o.%.( o.N f 2 } U.m.*XJ.K ",
"!.(.~.c.H.O.& 2 < & 1 < & 1 < # 1 < @ < = @ < = @ < & @ < = @ = & @ < < * < & * = = @ & + % # # + o @ X o * X X .   I ^.V.~.&X(.",
"&X&X%XB.B.} * # # @ 1 1 - 3 < ; 2 < & 3 < & 3 < & 3 < = 2 < & 1 < & 3 1 = 1 1 < 2 ; # 2 ; - 1 < ; < < ; 2 = & & @ o I Y.B.&X>X&X",
"=X$X$Xm.J.O.3 p A o._ ,.;.,.-.&.&.=.-.,.r.r.5.,.u.7.,.,.,.-.,.M.p.p.p.p.M.M.M.,.,.*.,.p.r.;.-.3.t.G.u.;.,.-.&.R b 3 ) I.B.-X-X/.",
"*X*XL.7.Z.} # - 2 8 w r r r r e w e r r e e e e e e q w w r e r e m ,.|.%.e i r e w w p p w w w w 5.^ r r e e 3 < $ } U.P.,X;X,X",
"(.&X/.8.N.} X . o o o @ o o @ o O @ * o @ o o + o o + O o @ O o # N ;.J & o @ O o @ O O @ O o + O w ;.d * @ o X X . J K.H.-X-X*X",
"-X&X=Xn.Z.| @ & < = 3 3 2 8 6 1 8 2 3 8 8 2 8 6 2 q 3 2 8 8 5 2 Q ;.g @ 2 8 6 2 8 6 1 w 6 6 q 3 4 8 L %.3 3 2 1 & * { I.V.,X*X(.",
"/.,X&X8.V.O.# - 3 6 q w e e e w r r e a r r e w b b f m f v f ) &.w @ q e w e r r r e m v p r e r p 7 =.L i r 8 < # P Y.C.-X-X&X",
"#X-X(.n.P.}     X   X X X . . . . X . . X . . X . . X X o 3 _ o.3 X X X X . o X . o X . o X o o X X o f ;.w X X     P Y.I.3X-X-X",
"*X>X*Xm.N.P           X   .       .         .           r :.) 1 X         .     .       X             @ ^ ( #       J U.I.5X<X;X",
"<X&X&Xn.N.E X X *   * @ . * @ X @ @ o # # + @ * X @ @ h -.L & X o X @ @ . * @ X @ + X + * o * @ X @ @ X 2 -.C O X   J K.V.>X<X4X",
"*X,X/.n.n.P @ @ # = & < & & ; < = & 1 N g 2 < = : = ; - = ; = ; : ; & ; = & = ; = ; & = = < = = ; : 1 ; < 1 2 & @ @ G I.K.,X<X$X",
"X.5X&Xn.N.X.8 h K ) =.0.@.Y ~ -.;.p.%.:XF.@.=.-.r.5.-._ ^ _ @.%.;.0.=.&.,.&._ -.5.-.;.-.%.=.:.0.' %.*.-.-.-.-.( C e P L.B.5XL.O.",
"..,X,Xc.8.X.f L =.p.r.F.F.t.A.F.w.i.@.A.s.3.T.F.{.}.}.D.A.A.S.:X:X|.A.T.{.S.y.t.S.F.R.S.F.:X{.).).f.`.|.}.F.M.p.o.b P V.V.&X$XJ ",
"$X-X(.n.N.E 4 3 q m d b b f b h d f 8 h f e b N b C b b b M N U b h h h M b U h h b C d h A J A V S K R b b f t 6 3 U P.K.,X%X#X",
"-X-X;XB.v.P @ o o + * @ @ @ + @ + @ * o o   X O @ + % @ + @ @ @ + @ O $ @ + @ @ + % + $ @ $ @ @ @ $ @ @ @ @ * @ o @ v I.P.,X%X#X",
"=X(.,Xm.6.P $ X * o @ @ o @ @ o @ @   X # 1 = O   @ @ O @ @ o @ + o @ @ o @ @ o @ @ X + @ o @ @ X @ @ o @ @ o o # 2 y J.B.!.*X&X",
";X~.I.n.b.H @ @ @ % < ; & 4 < - ; ; ; g J y @ # * # @ o # @ o @ & o @ & o # # o # # O # # o @ # * @ # o # @ o @ @ q t m.B.;X$X!.",
"$X!.%Xv.b.G 7 f A ( ' ;.;.;.;.-.=.%.r.r.b ; O o   o O   * o   o o   o *   o o   O O   o o   o *   o +   * O   o o 3 t N.v.*X,X(.",
"!.%X,Xm.N.J & - 2 q q r r r a e 9 e e q & @ & = * & = O & & o & # * # = o & & o & & O & & o & = o & < O & & @ @ @ @ v m.v.&X*XL.",
"~./.*X7.n.I 3 < 2 & 1 1 & < < @ & - @ - = @ & = @ & 1 @ & < @ & < @ & = @ & & @ & ; @ # & * & & @ < 1 = 3 3 < 3 1 4 n m.x.*X*X*X",
"#.#.$.>.<.O.P } I I I P I } P K K J G G U G K K J G G B J J G K G G U J G G B n n B m m n v n P I { P P H J G V n G ) 7.#.#.O.>.",
"m.V.P.Y.V.n.m.I.U.U.K.I.U.L.V.B.P.U.Z.m.P.K.~.L.K.m.m.V.N.B.V.~.Y.~.B.B.P.J.Z.B.J.B.m.B.H.L.~.K.V.L.Y.P.U.Y.^.I.K.J.n.B.U.Y.I.K.",
"V.c.J.m.K.m.x.H.K.L.L.I.I.B.m.m.B.m.m.m.v.B.m.v.n.c.m.n.v.x.n.P.B.B.m.c.V.J.J.V.P.z.c.v.B.b.H.P.B.B.K.H.L.L.J.V.P.m.<.x.x.n.n.H.",
"(.!.*X*X&X*X$X&X;X5X4X,X5X&X*X*X$X$X(.&X=X~.%X$X$X%X*X&X/././.&X-X&X<X-X&X3X5X;X~.*X$X*X*X^.<X;X*X5X;X-X3X3X-X,X-X(.^.$XU.-X*X<X",
",X;X&X&X;X-X*X%X&X$X&XU.4X3X,X&X$X/.*X*X/.*X$XV.c.,X;X/.-X$X$X,X-X*X&X&X$X$X6X;X&X=X*X=X$X*X$X%X/.K.<X3X<X,X&X-X>X&X^.*X&XJ.B.-X",
",X,X&X&X&X*X;X*X&XL.J #.J.,X=X,X,X&X$X*X&X~.P.a O.L.%X~.&X$X&X>X(.&X#X<.m C.$X,X*X*X!.&X(.$X/.#XH O.&X4X,X(.(.(.&X&X/.&X&XK I B.",
",X;X&X&X$X*X*X*X&XI.6.1.v.<X(.&X-X;X&X;X;X*X#X$.} /.;X,X,X;X&X-X*X$X$Xn.>.6.$X,X&X$X/.*X=X=X;X%X..O.&X<X;X(.$X&X-X$X$X(.!.#.E !."
};
