/* XPM */
static char *result[] = {
/* columns rows colors chars-per-pixel */
"64 64 241 2 ",
"   c #010101",
".  c #0C0A0A",
"X  c #090705",
"o  c #120D0B",
"O  c #14110D",
"+  c #140E14",
"@  c #141414",
"#  c #1B1419",
"$  c #1A1A1A",
"%  c #1A1117",
"&  c #0E1B1B",
"*  c #26181B",
"=  c #180F28",
"-  c #1B142C",
";  c #1B172A",
":  c #1A1430",
">  c #1C1831",
",  c #251D23",
"<  c #2A1D23",
"1  c #231A33",
"2  c #231B3A",
"3  c #2A1E3D",
"4  c #132A2A",
"5  c #152425",
"6  c #0C343A",
"7  c #1A3637",
"8  c #0F292A",
"9  c #292627",
"0  c #2D2633",
"q  c #25233B",
"w  c #29223C",
"e  c #262734",
"r  c #322A3A",
"t  c #392A37",
"y  c #293638",
"u  c #343333",
"i  c #3B333B",
"p  c #3B3A3B",
"a  c #393535",
"s  c #35262C",
"d  c #1F201F",
"f  c #41343D",
"g  c #423B3D",
"h  c #4D333D",
"j  c #304036",
"k  c #41413D",
"l  c #261E41",
"z  c #2B1E42",
"x  c #0E3D41",
"c  c #242142",
"v  c #292243",
"b  c #2B234A",
"n  c #2C284A",
"m  c #2B2944",
"M  c #30234B",
"N  c #31294B",
"B  c #372B46",
"V  c #3B3143",
"C  c #34334B",
"Z  c #2B2851",
"A  c #292750",
"S  c #312452",
"D  c #332A52",
"F  c #3A2B54",
"G  c #332A59",
"H  c #3A2B5A",
"J  c #3C3254",
"K  c #3B315B",
"L  c #383458",
"P  c #3A2C63",
"I  c #372C64",
"U  c #3B3263",
"Y  c #3A3665",
"T  c #423442",
"R  c #433B42",
"E  c #483B48",
"W  c #412C5A",
"Q  c #41325B",
"!  c #433959",
"~  c #543C4C",
"^  c #413364",
"/  c #423964",
"(  c #493A63",
")  c #41346B",
"_  c #433A6A",
"`  c #493C6A",
"'  c #483267",
"]  c #473A71",
"[  c #493367",
"{  c #1F4448",
"}  c #25494C",
"|  c #224548",
" . c #3C4744",
".. c #284D50",
"X. c #2C5456",
"o. c #484549",
"O. c #554649",
"+. c #59534D",
"@. c #4D4652",
"#. c #544B52",
"$. c #564755",
"%. c #4E5352",
"&. c #485657",
"*. c #5A5352",
"=. c #5A5A53",
"-. c #585759",
";. c #475547",
":. c #655B5A",
">. c #654C4D",
",. c #64635E",
"<. c #707754",
"1. c #494264",
"2. c #4A426B",
"3. c #484668",
"4. c #52426C",
"5. c #524A6C",
"6. c #574967",
"7. c #5C5263",
"8. c #54526A",
"9. c #4B4272",
"0. c #494674",
"q. c #524372",
"w. c #514A73",
"e. c #564978",
"r. c #5B537B",
"t. c #565378",
"y. c #655B6A",
"u. c #665864",
"i. c #63557A",
"p. c #615E74",
"a. c #576668",
"s. c #6D6B6B",
"d. c #676465",
"f. c #736B6E",
"g. c #766669",
"h. c #74756B",
"j. c #6B6575",
"k. c #6A6877",
"l. c #736B72",
"z. c #7A6E79",
"x. c #776B78",
"c. c #6A7578",
"v. c #747373",
"b. c #7B747B",
"n. c #787878",
"m. c #69716C",
"M. c #5E6658",
"N. c #856F7D",
"B. c #84787A",
"V. c #7B8666",
"C. c #79837D",
"Z. c #7E805C",
"A. c #8A896C",
"S. c #878864",
"D. c #87877B",
"F. c #928C7C",
"G. c #8D9578",
"H. c #9B967A",
"J. c #949679",
"K. c #84875E",
"L. c #585782",
"P. c #635883",
"I. c #6C6586",
"U. c #676284",
"Y. c #7B7886",
"T. c #726B87",
"R. c #867283",
"E. c #877A87",
"W. c #86778D",
"Q. c #8C8C83",
"!. c #8B8D8C",
"~. c #898486",
"^. c #938C8B",
"/. c #968A85",
"(. c #8C928B",
"). c #94938C",
"_. c #9D9D8C",
"`. c #989887",
"'. c #8A8494",
"]. c #948996",
"[. c #949494",
"{. c #9C9C94",
"}. c #9A9996",
"|. c #A59B8C",
" X c #A4988A",
".X c #A49D94",
"XX c #A99E94",
"oX c #A49C9C",
"OX c #AB9D9C",
"+X c #A19396",
"@X c #B09F9F",
"#X c #9CA299",
"$X c #A6A48C",
"%X c #A5A494",
"&X c #A5A49C",
"*X c #ACA59C",
"=X c #A6AB9C",
"-X c #ACAB9D",
";X c #AAA894",
":X c #B2AB9D",
">X c #B3A69C",
",X c #B6B39E",
"<X c #A8B29D",
"1X c #9B98A2",
"2X c #A79CA5",
"3X c #9CA4A4",
"4X c #A5A4A4",
"5X c #ACA5A4",
"6X c #A5ACA4",
"7X c #ACACA5",
"8X c #ACA5AC",
"9X c #ACACAC",
"0X c #A5A7AC",
"qX c #B4A5A4",
"wX c #B3ACA4",
"eX c #B3ADAC",
"rX c #B7A9AA",
"tX c #ACB3A5",
"yX c #ADB3AC",
"uX c #A5B4AD",
"iX c #B4B3A5",
"pX c #B3B3AC",
"aX c #BBB3AC",
"sX c #B7B8AB",
"dX c #ACADB3",
"fX c #A8A3B1",
"gX c #B5ADB4",
"hX c #B3A6B7",
"jX c #AEB4B3",
"kX c #AFB8B5",
"lX c #B4B4B3",
"zX c #BBB4B3",
"xX c #BBBCB3",
"cX c #B5B9B5",
"vX c #C2BABF",
"bX c #C6BBC9",
"nX c #D0C7CF",
"mX c #F0EEEE",
"MX c #F1EEF3",
"NX c #E9E4EA",
"BX c #E2DFDF",
/* pixels */
"[.}.{.%X&X=X%X%X*X:X-X=X4X7X9XeXpXlXeXpXlXpX9XdX9X9XiXpXlX9X5X5X&X*XqXeXzXzXzXyXlXeX7XwX*X*X*X=X5X6X5X7X*XXX.XXXOXXX|.$X_._.}./.",
"!.{.;X&X3X4X6X6X*X*X*X5XtXpXeXeXrXyXpXeX9X9X9X9X7X7X9X9X9X9X9X8X9XdX9X9XgXpXyXrX9XeX8X9XeX7X9XuX7X9XwX>X4X2X.XXXoX|. X|.|.|._.`.",
"[.oX&X#X4X6X6X4X&X7X7X8X7X9XeX9XdXeX9X9X9X9XeXeX9X6X7X5X9XeXeX9X9XpX9X4X0XhX8X4XwX7XeXpX8X0X9XtX9X8X9XpXrX8X-X=X*XOX*X&XoX.X}.).",
"].5X7X0X0X8XeX6X=X7X9X4X[.].8XnXhX2X~.E.W.'.'.].'.'.W.'.].].].].].W.W.].].].W.].].'.'.'.].gXnXBX^.+X2X5XuX9X7X*X-X*X*X*X;X&X{.).",
"3X4X5X4X9X=XtXpX9X4X}.^.E.].R.y.y.7.7.-.y.7.7.y.7.7.7.a.u.y.j.E.x.j.k.k.k.k.y.u.7.7.7.u.7.u.7.y.2X].'.&X5X4X7X>X*X*X*X5X;XXX X`.",
"3X6XtX6XtX7X7X7X7X&X~.j.1Xb.7.-.i 0 0 0 s < # . .   . * h $.u.u.u.$.f s , # , < * + X . , ; < R $.W.].y.{.7X7X*X4X4X&X2XOXOXoX{.",
"3X6X9XeX7X7XtXtX-X}.b.#.7.7.~ * . . . .                     + 9 < o o # $ 9 u 0 $ # # + . X . + g @.$.$.~.oXwX<X5X*X*X&X4X*X.X[.",
"2XwXwX7X7XpXyX6X4X}.l.V @.#.t   @ e u d . X                         X @ 9 a a 0 0 , # @ % @ . . * T E E ~.#X&X-X6X-XoXoX&X&X%X{.",
"2X5XpXpX7XiXiX7X7X).s.T $.i * o & $ 9 d $ @ o O o X X X           X . + ; 9 9 9 d $ * * $ o X . * E @.g B.{.4X*XwX7X5XOX&X&XoX}.",
"0X9X9XwXiXiX9XeX7X}.s.i E E 9 . d $ @ o @ O o o o o . X       X g s % . o @ @ @ # $ $ $ o , , # * E @.g ~.}.OX5X5X5X2X2X4X4X4X}.",
"8X9XiXwXyXeXeX9X4X[.d.9 E u.#.$ $ o o o . + + . X X X X s f.2XnXNX].f   X . o . + . . . X     @ g.u.o.i B._.-XwX6X-X*X4XoX2X4X#X",
"5X5X7X7X9XeXwXiX6X}.l.h 1 $.x.l.O.9 * t p g 9 . % * < R 2Xy.r 1 r z.].g.O   # g , t O.>.f < @.2X2Xp.i a C._.-X5X-X9X7X&X4X4X4X#X",
"4X6XeXpXeXpXiXiX<X[.v.O.h s o.Y.bXNXMXMXmXMXmXmXMXMXnXR.V r i k V r @.R.gXhXvXmXmXmXMXmXmXnX2Xj.~ 9 9 O.D.}.*X7X7X*X-X*XoX2X&X#X",
"5XeXrX8X2XrXeX7X6X{.B.:.E f t t t r w t V B V a V V V r 9 u p #.o.g i E E t t r r r 0 r r i r p 9 i #.:.D.oX-X=X*X*X*X:X*X6X6X#X",
"8X9X}.s.;.s.[.8X-X%X(.v.=.o.g g a i p k a u a a a a u u a o.=.d.s.-.o.a y u i y u u p u p p p p g ;.=.h.^.%X7X7X5X!.a.k <.`.2X2X",
"rX5X^.s.a.n.oXeXtX6X#X(.C.m.,.-.:.=.=.:.-.=.*.=.%.%.=.=.u.h.C.Q.!.C.h.d.-.*.-.-.=.=.=.=.-.-.=.=.,.v.n.^.&XwXwX5XwX!.T.c.<.^.5X6X",
"7X4X4X2X#X3XfXeXtXpXeX5X{.).).^.).).).(./.E.~.~.~.~.~.(.!.[.+X*X2X}.[.!.Q.!.Q.Q.Q.F.F./.F.).).`.^.`.+X@X5XqX5X7XeX9X1X].[.XXOX&X",
"tX9XfXjXlXlXpXgXlXjXeXiX6XpXsX7X{.(.(.).6XwX>X*X2X}.%X-X6X5XeXeX7X6X5X4X%X4X4X&X&X7XwXtX{.(.(.(.*XwXaXpXtX7X7X7X9XeXpXwX7XtX7X4X",
"gXlXlXzXiXpXlXcXyXpXpXeXaX:Xh.7 7 4 5 4 u D.5XeXtX7X0X8X5X7XyXyXwXwXeX8X5X0X7X7XeX>Xn.7 6 6 x x  .~.wXzXaXpXwXeXwXpXpXiXsXpX7X}.",
"qXrXpXpXxXsXpX9XeXpXpXqX8Xa.y 8 7 } | 7 4 y v.cXpXzXzXlXeXeXeX7X5XtX7X4X4X7X9X9XrXa.y 4 y } { 7 5  .C.xXiXrXaXrXeXeXiXaXlX9X6X4X",
"9X9XeXpXaXiXwX7X:X,XiX:XJ. .8 7 } ......7 4 &.rXaXpX9XlXpXpXpXpX9XeXpXyXtXeXpXtXQ. .5 7 } ..} { 7 8 &.9X5XwXiXiXqX-XwXaXqX@X2X0X",
"gX9X7X5X$XH.H.H./.F.F.G.<.j 8 7 } ....} 7 &  .(.sXcXpX9XdXyXyX9XyXcXpXeXpXpXeX*Xh.j 8 7 } ....} 7 & p F.H.Q.F.H.J.H.J.A.$X*X7X5X",
"yXeXqX;X|.:XaXsXiXiX,XiX#X&.6 4 | } x m 4 7 -.}.aXpXpX7XtXsXlXjXyXpXiXwX7X8X8X5X#X;.4 4 { } { y 5 4 &.+XqX,X,X5XrXvX-X`.#X*XwX7X",
"yXyX7XyXiXeXgXgXiXtXtXtX6XC.X.6 6 6 7 6 { m.oXvXkX7X*X5XsXjXjXpXlXzXpXpXiXiXtX=X-Xm.j 4 4 4 8 5 d +.!.vX9XeXrXqXwX;X7X4XeX8XqX5X",
"pX7XqXwXwXiXwXeX9X8XqX5XwX6X).v.&.a.c.C.h.[.rXxXiXwX7XeXaXzXpXwXsXyXpXiXsXyXyXwXwX=XQ.-.C j g o.-.!.pXaX-XwXqX>X7X8X4XXXOXOX-XwX",
"cXcX7X`.A.J.&XlXlXlXpX4XtXsXcXiX{.D.~.3X6XjXyXtXpXaXzXzXpXlXlXpXpXpXsXsXyXeXiXtXtXcXcXtXG.D.~.XX7XyXyXiXeX>XwX8XtXtX_.S.J.XXrX9X",
"cXpX%XG.V.J.wXxXgXpXpXeXjXeXeXlXzXlXcXxXzXaXsXpXxXzXsXwXlXzXzXzXzXaXaXgXpXsXsXiXsXpXaXaXxXaXrXaXwX7X5X5X>XwXeXwX8XrX&XG.;X6XuXuX",
"iXpXiX$XA.`..X#X!.~.E.~.D.n.n.n.B.E.E.R.W.R.R.B.R.R.B.B.R.R.R.R.N.R.E.R.N.N.N.B.B.E.B.n.D.b.N.N.R.N.R.R.R.R.R.z.-.f.D.%X*X7X9X9X",
"cXzXwX;XiXoXE.-.g V V k R o.g f R E T T T g R k k k g T i R g f V f f i a i R T R T V i f g V V T T f f f f E ~ O.E :.%X,XiXtXuX",
"vXzX7XH._.).v.T 1 > > - > > 1 2 > 2 > q w w w 2 w w w z v v w w w q q w q 2 > 2 2 > 1 2 2 1 1 > = = = = = = = 1 7.~ >.S.S.%XaXpX",
"gXpX-X`.Q.).v.k e 1 - 1 > 2 w v v m M N n N N n N N D n N N C M N N m z b b b v n v l c l 2 > 2 1 1 > : : = = e b.:.+.<.V.{.9X8X",
"8XsXwX|.G.Q.B.o.3 1 2 w v w m n C Z N C F J Q E Q J L @.J F J J J F F b G G D A Z Z b l b b v z l 2 1 > > - - 2 E.u.,.#X`..X5X8X",
"dXjXtX%X`./.l.o.2 2 2 v b m B F K J J J ! ( / 3.( ( ! / / L Q Q Q K U Q L F J C N F F Z D M z A v q 2 > 1 : : w Y.7.d.$X:X5X7X7X",
"jXjXyXqX|.[.b.o.e w w v n N N J L ! 1.3.( 1.3.6.2.3.3.1.3.` ( ! ( ! J K F L G I W H D S Z D S A z b v 3 2 > : q C.d.:.A..X%X-X*X",
"yX9X5X-X-X}.v.g w w w v n C J Q ( ( @._ 2.w.w.5.6.2.2.5.3./ ( ) _ Y / Y U U P Q F F H H G G b S b v v 3 > 2 > q z.:.:.A. X*XwXqX",
"9X9X.XS.K.F.n.o.q w w V F H K / 1.3.3.3.5.r.r.i.r.t.5.2.4.4.4.2.3._ ( / U U H K Q K J H F G S S b b c c 1 1 1 q E.y.g.$X|.*X*X7X",
"eXgX{.K.<.C.l.@.3 2 v m C J ! 1.1.3.5.8.e.p.U.U.i.i.r.t.w.5.6.4.0.3.1.1.( / ^ ^ / K H G H H D N D b v c > > > w Y.u.g.|.$X>X7XyX",
"lXeX%XG.D.~.f.E q q n D J L Y 3.3.6.w.t.P.I.T.T.I.k.j.r.i.e.5.5.4.` 9.2.` ^ U U Q K U U L G F N Z n c v 2 2 > q E.:.>.<.S.$XwXqX",
"yXyX9XiX=X{.v.@.w 1 w N F J ! 1.3.8.t.r.I.Y.'.'.W.W.Y.I.L.r.w.w.0.2.` 3.` / / / Y Q W W P G D F M M v l 2 2 - e n.d.+.<.V.#XsXpX",
"yXpX;XG.V.Q.b.o.w 3 b N J / ( 2.0.w.t.r.T.Y.'.'.'.Y.I.U.i.r.w.0.q.9.2.` ( ` _ _ ` U P P I I G F D b z l > 2 : 3 E.y.f.*X%X7XyX6X",
"9X9X%XA.V.D.x.~ 0 1 v N K ! ` 3.8.8.r.p.I.Y.'.'.'.Y.I.U.r.e.e.t.w.4.9.2.] ` / ^ Y U U ) I G G G D n c l 2 1 > e ~.u.B.H.H.,X,X,X",
"uXyX-X%X;X[.k.o.1 w m F L K @.3.1.8.8.r.U.T.T.c.T.I.U.P.L.L.t.w.q.q.9.0.0.2._ ] ^ ^ ) ) K H H H S b v l w 1 > w E.:.h <.K.K.$X,X",
"qXrXXXD.Q.!.c.E 1 1 w N J L @.1.2.4.q.t.i.I.T.U.P.P.P.r.r.r.r.e.w.e.w.] ` ` ` ` _ Y P W ) K G G S M b l 1 1 : 3 ~.u.O.B.K.H.$X<X",
"rXgX*XJ.G.^.T.~ 1 e v N K K ! ( 1.5.w.q.i.P.i.i.i.r.t.r.t.r.e.e.e.q.q.0.0.] ` 2._ / ^ ^ U P H D N b v l 2 > - 1 R.u.g.|.;X%X-X:X",
"0X9X&XH.H.).b.E 1 1 w M B ! ! ( 1.3.3.3.4.5.t.t.e.t.t.r.t.L.L.L.L.9.0.0.9.0.q.` ' ^ ^ ^ ^ I I Z S n n z l > : 2 Y.,.m.;XwXiXiXuX",
"wXeX:X$X|.+XY.E 2 1 w N J Q / 1.1.3.5.5.4.8.w.w.q.e.e.w.0.e.e.r.] e.e.] 9.] ` ] ' / / ^ W P G D D b v 3 > 1 1 e C.m.M.V.G.XXwXwX",
"yX7X XK.S.F.l.o.e 1 z N D K / Y / ` 2.3.0.0.0.2.5.4.e.] e.e.e.] e.e.e.4.q.` 4.] ] ) ^ P Q H G Z G b b l 2 > : q Y.a.=.h.V.}.9XyX",
"7X7X{.A.A.~.z.R 2 2 v n D J ! / [ / / _ 3.5.w.9.2.4.q.w.e.] q.0.0.] q.q.q.q.` ` [ / ^ ^ Y K F G S b v l 2 > > e b.u.f.<X=X-X8XuX",
"eXeXwX%X;X{.B.@.2 2 v M G F H ^ / / / ( _ 2.` ` 0.9.] 9.] q.q.q.9.] 9.w.4.q.4.` ] ) / / Q H G G S M b 3 2 > : 2 Y.y.f.-XwXeXdXdX",
"7XpX_.S.G.(.v.@.1 3 v M N D F U K K / ) U _ ` ` ` _ ] ] 0.9.q.w.9.0.] ` 2.2.` _ _ _ Y U ^ K G S S b v 2 2 > : 3 B.:.,.H.;X*X4X9X",
"yXyX_.<.<.C.C.V 2 3 v M N N F H P K K Y / / / _ _ ) / ` 2.2.2.] ` ` 2.Y _ ` ` ' ^ ^ Q Q ^ P H F A A z l > 2 1 2 b.-.:.(.{.5X7X6X",
"9X7X_.G.G.(.v. .1 w v v J F H H K Q W ^ ^ ^ ) ^ ^ ) U ] Y _ _ 2._ _ ` [ ) _ ) U I 1.3./ I G S S S v z z 2 - - w Y.d.,.$X|.4XdXgX",
"tXyX7X%X7X}.v.o.2 2 2 b n D G G W H H H H K K U Y Y Y _ Y Y _ [ ( / / ( ^ / Y Y ) / / Y K J F D M z b > 2 2 - 1 b.u.f.rX7X5X9XrX",
"8XgXeX|._.).B.E > > 2 v M N D Z G F F H Q H I P U Y Y Y ^ _ ^ ^ / / _ / ^ ^ / Y I I P W 4.U Z D D b c > > > : 1 B.d.l.gX9X9XfXuX",
"uXjX6X`._.[.c.! 1 1 1 3 z n A G N G G H U H K U U Y Y ^ / U ) ^ I ^ P U ^ ^ Q W W W H H S Z G F Z b v v l 2 : e Y.u.s.9X5X4X4X5X",
"9XgXpX%X%X[.x.E e > 1 2 z b M n D F D G K H G K J H F L U H H I ^ K G P U H K H G S H G G G Z S b n c v > : : 3 n.,.h.eXeX0X9XtX",
"pXyX#XS./.[.n.o.- - 1 l l v A Z N N G G G F F H H G L H U H H G H H G G G P H H K D Z G F G D N M N n l 2 1 > q n.:.v.lX7X7XqXwX",
"eX=X`.A.6XoXB.o., - : q l b v n M N N N M b N F G Z D G G F F G K H G G G F D J Z D G D D n N M m N v 3 1 1 > w n.d.f.9XiXwX8XdX",
"9XzX%XD. X+XN.o.- - > > 2 2 2 m m M b b A b M M b S b S A b M S b b b A A A N z A A A b n b b m v v 3 > 1 : - 1 C.d.l.9X9X9XyX7X",
"dXgXqX`.|. Xz.~ - - - : > 2 > 2 2 1 1 2 v c c l v v v v v z q v v c v v v c v v v c c v v q q 2 > 2 > > > : = e E.d.l.yX9XtX7X4X",
"8XeX`.<._.{.C.&.- - = = = ; > > 1 : : 1 1 1 > 2 2 > 2 2 > l > 2 2 > 1 2 > 2 1 1 1 1 1 > 1 2 2 > 1 > > > : - = e !.m.s.eXyX0XfXhX",
"eXeX%XA.`.~.W./.h.h.v.z.n.v.m.s.y.g.s.d.g.x.z.z.l.v.n.T.x.b.T.l.l.l.l.l.x.c.c.l.k.m.l.k.s.f.l.x.v.v.c.x.b.f.v.E.E.$.y.eXtX9XuX9X",
"eX9X9X%X-X{.Y.*.-.:.*.=.#.=.*.#.$.~ O.=.;.#.-.%.-.$.#.*.:.*.#.%.#.$.#.O.#.*.*.#.%.%.%.%.#.#.#.*.#.@.o.#.*.@.@.V i s.}.dXtX9XeXlX",
"lXpXpXlX9XgXeX7XlXgXaXpXlXcXcXcXzXzXlXkXxXzXlXlXzXlXjXyXpXlXeX9XlXkXjXlXkXlXgXzXcXjXjXpXdXgXsXyXyX9XeXeXeXqXeX9X2X2XeXpX9X0X5XhX"
};
