/* XPM */
static char *result[] = {
/* columns rows colors chars-per-pixel */
"64 64 249 2 ",
"   c #631800",
".  c #41210F",
"X  c #493918",
"o  c #724921",
"O  c #211808",
"+  c #39210F",
"@  c black",
"#  c #49390F",
"$  c #7B5128",
"%  c #7B5121",
"&  c #30210F",
"*  c #593918",
"=  c #180F08",
"-  c #080800",
";  c #99410F",
":  c #C17133",
">  c #B57730",
",  c #D55819",
"<  c #F74108",
"1  c #C36E28",
"2  c #C16323",
"3  c #D1631F",
"4  c #CF6E24",
"5  c #E74E0C",
"6  c #6A1800",
"7  c #210F08",
"8  c #080000",
"9  c #633916",
"0  c #634121",
"q  c #936128",
"w  c #302108",
"e  c #881E00",
"r  c #FF4100",
"t  c #FF3900",
"y  c #EF3900",
"u  c #EF4100",
"i  c #762E08",
"p  c #49300F",
"a  c #41280F",
"s  c #7B5118",
"d  c #724918",
"f  c #835921",
"g  c #935C1E",
"h  c #835121",
"j  c #884921",
"k  c #835128",
"l  c #B14E0F",
"z  c #A04E1A",
"x  c #855118",
"c  c #894918",
"v  c #C6410F",
"b  c #BE490F",
"n  c #B5410F",
"m  c #984118",
"M  c #BD410F",
"N  c #51300F",
"B  c #39280F",
"V  c #0F0800",
"C  c #594121",
"Z  c #513918",
"A  c #932100",
"S  c #F74100",
"D  c #E74108",
"F  c #DC4108",
"G  c #A9410F",
"H  c #8A3F12",
"J  c #6A2D06",
"K  c #0F0F00",
"L  c #63410F",
"P  c #634918",
"I  c #6A4921",
"U  c #6A4918",
"Y  c #493018",
"T  c #835928",
"R  c #994C0F",
"E  c #CE4108",
"W  c #DE4100",
"Q  c #B34C08",
"!  c #934E1B",
"~  c #210F00",
"^  c #281808",
"/  c #59390F",
"(  c #DB490A",
")  c #59300F",
"_  c #542B06",
"`  c #B05F1C",
"'  c #6E370F",
"]  c #6A4121",
"[  c #634118",
"{  c #6A4118",
"}  c #392108",
"|  c #725121",
" . c #864C0F",
".. c #E74100",
"X. c #BD4108",
"o. c #F73900",
"O. c #731D00",
"+. c #63490F",
"@. c #180F00",
"#. c #F74900",
"$. c #DB3900",
"%. c #E73900",
"&. c #CE3600",
"*. c #B14E18",
"=. c #9C4108",
"-. c #BD3908",
";. c #392808",
":. c #634921",
">. c #7B4918",
",. c #C64108",
"<. c #7B4921",
"1. c #6E410F",
"2. c #72490F",
"3. c #9C2100",
"4. c #AF3908",
"5. c #28180F",
"6. c #28210F",
"7. c #30280F",
"8. c #301808",
"9. c #302808",
"0. c #391808",
"q. c #282108",
"w. c #412808",
"e. c #A5490F",
"r. c #A53905",
"t. c #100000",
"y. c #130808",
"u. c #0F1008",
"i. c #180800",
"p. c #8F6430",
"a. c #8F3C08",
"s. c #241800",
"d. c #280F00",
"f. c #282100",
"g. c #A37030",
"h. c #AF6A28",
"j. c #41300F",
"k. c #413018",
"l. c #413918",
"z. c #413008",
"x. c #AD7230",
"c. c #51390F",
"v. c #514118",
"b. c #514121",
"n. c #594118",
"m. c #51410F",
"M. c #39340F",
"N. c #BF5518",
"B. c #392D1A",
"V. c #9D6A28",
"C. c #59410F",
"Z. c #594918",
"A. c #AD7639",
"S. c #C3510F",
"D. c #CE4100",
"F. c #494C1A",
"G. c #493021",
"H. c #301800",
"J. c #192B12",
"K. c #511800",
"L. c #724928",
"P. c #3D0F00",
"I. c #411800",
"U. c #9B2800",
"Y. c #DE4900",
"T. c #412818",
"R. c #181A0A",
"E. c #F75100",
"W. c #C24100",
"Q. c #493921",
"!. c #E74900",
"~. c #EF4900",
"^. c #552101",
"/. c #241921",
"(. c #280F08",
"). c #882800",
"_. c #7B5921",
"`. c #555826",
"'. c #C23700",
"]. c #EF5100",
"[. c #B57B39",
"{. c #7B5928",
"}. c #836328",
"|. c #8C6328",
" X c #7B6328",
".X c #283613",
"XX c #302128",
"oX c #725128",
"OX c #725921",
"+X c #303D0F",
"@X c #6A5128",
"#X c #6A5121",
"$X c #6A5118",
"%X c #300C03",
"&X c #000800",
"*X c #180F0F",
"=X c #513018",
"-X c #8C5B1F",
";X c #630F00",
":X c #B23900",
">X c #C24900",
",X c #491800",
"<X c #725118",
"1X c #715928",
"2X c #E75100",
"3X c #D04900",
"4X c #B54106",
"5X c #08080F",
"6X c #755C30",
"7X c #833005",
"8X c #C34908",
"9X c #682100",
"0X c #AD7B30",
"qX c #230300",
"wX c #302100",
"eX c #492D08",
"rX c #8C5928",
"tX c #061303",
"yX c #772A00",
"uX c #30180F",
"iX c #836321",
"pX c #7B634D",
"aX c #AA4100",
"sX c #391800",
"dX c #D64100",
"fX c #413F28",
"gX c #B57239",
"hX c #764118",
"jX c #240308",
"kX c #3D0300",
"lX c #B27528",
"zX c #AF2E00",
"xX c #A26024",
"cX c #7B6321",
"vX c #CE490A",
"bX c #C25108",
"nX c #D3540F",
"mX c #9C3001",
"MX c #AB4108",
"NX c #8D3005",
"BX c #F74908",
"VX c #49280F",
"CX c #432106",
"ZX c #000008",
"AX c #836A55",
"SX c #21180F",
"DX c #8C6A28",
"FX c #280F0F",
"GX c white",
/* pixels */
"  . X o O + @ @ # $ % & & * = - ; : > , < 1 2 1 3 3 4 3 4 5 : , 6 7 O @ 8 9 0 @ @ + & q 0 w @ @ e r t t r t t t , 4 r t 2 2 ; y ",
"u i p a 7 - = 7 O p O s $ d % - & f g g h j k l z x c v b n m M u 6 8 @ N 0 B @ V X a C a Z @ @ 8 A S D z t S t t r t F G c c H ",
"b G J X V = = K p L p P I % U Y p $ T % k h h R n v E M W Q S W b ! 6 ~ 8 ^ / . B * 0 Y V @ - - V 7 A ( F t t t t t H ) _ H b ) ",
"` n G ' ^ & w = ] / ] [ k j { } { o d | x x  .G ; R ..X.E W t o.c W b O.p V - @ V +./ 8 @ = p + 7 @.V A #.t o.H o.S $.%.' o.S &.",
"*.! =.-.' = ;.Y O & Z 9 :.a a O 7 [ a * { >.d n c c M F ,.G ! G z n X.%.6 7 Z * B ] <.1.2.1.a w @ 8 = a 3.S t u n X.y ' m F E t ",
"5 ,.4.4.B 5.^ 5.6.6.& w & & 7.& 8.& B 7.9.7.9.;.;.9.9.;.9.B 7.} 9.;.7.. 0.w } 8.w w & q.w 0.& & w 7.B a w.B w 8.^ w & ] e.y t t ",
", G r.H 8.- @ @ 8 8 t.t.V V K V V K V V V V V y.- V V V V V K V K @.y.u.i.K @.V V K @.K @.i.= i.K @.= @.= = = y.u.u.5.p.<.a.W t ",
"1 n o.n & = u.@.@.@.7 7 O ^ ^ s.^ ^ d.O O d.^ ^ s.O ^ O ~ ~ ^ ^ ^ ^ d.q.f.^ 5.w 8.w w w w ;.;.;.9.} w w w w q.q.^ O w g.z H y t ",
"h.h o.y w q.& B a a j.Y X Z p p j.j.Y Y Y Y X Z Y k.p j.j.p p # p j.j.j.p p p # Z X p p l.l.k.j.z.B 7.& 6.q.6.O O 7 & x.o.F m &.",
"5 *.E n q.& 7.B a j.l.X Z Z X Y p c.v.C C C C C b.Z Z Z b.n.Z m.c.Z Z Y X Z # # Z Z Z X X X # X k.k.j.M.B M.B B w ^ B g.t t X.y ",
", N.H 2.w 7.k.B.a j.j.j.k.j.j.j.p p X # Y # p p p p X X X # X X X Z / c.c.* Z Z Z * Z c./ Z c.c.X Z c.# # k.k.B B w a V.r t l o.",
"1 l x  .w w 6.7.a j.j.j.k.j.p p Y X # p X X # X k.Y p Y p Y Z * * * C.n.Z * c.c.c.n.Z Z Z Z c.# Z Z c./ X Y p j.B ;.j.h.#.t t o.",
": *.G  .& a p # * Z 9 [ P P I I I U [ [ U P U I P I P :.P :.6.u.6.I :.I :.I 0 [ [ P P P 0 n.n.n.n.n.Z.Z.b.Z c.j.a B j.A.A S t o.",
", S.D.,.^ ^ q.w } B j.p c.c./ * Z * c./ L [ 9 L n.[ n.n.[ F.@ @ @ G.[ { 0 P C n.C 9 / / Z c.Z Z c.Z Z X X Y Z j.& ^ ;.g.8 A S t ",
"1 D ,.m H.} B j.N c.n.n.n.[ [ L * n.C.L L [ L [ n.L L L L J.@ K.@ V [ [ [ { [ L n.n.C.[ C.L n.[ [ n.n.Z c.c.m.N B w j.g.- 8 A S ",
"3 t u ; + Y Z n.[ P I I I o L.I I I :.U [ P I U I I :.P l.@ P.#.I.@ G.{ :.[ P P 0 [ [ P [ [ P I [ n.C./ c.c.# B O q.j.g.@ @ 8 e ",
"U.Y.G n w w B B a k.T.k.k.j.k.T.k.p p Y p Y j.j.j.X Z v.R.t.-.E.W.@ @ Q.Z Z n.n.n.Z Z v.n.C * Z Z Z p p Z Y p a 7.7.Y A.@ @ @ @ ",
"8 A W D.^ @.= O O O O 7 O O O 7 O O 5.q.O O O 7 O O O J.@ O.E.!.~.^.@ /.5.O O O O ^ 6.q.q.(.^ q.q.q.q.& & & 5.^ 7 O & g.8 V @ @ ",
"= w )...a n.P I I | | % _.T T f f T T f T h h T $ % `.@ 8 '.].!.~.D.V @ f _._.% o o d % d o o d d s o I :.P n.p j.j.c.[.* 8 @ @ ",
"* a 8 e ;.n.:.0 :.| {.{.}.}.}.}.}.}.}.}.}.|.}.}. X{..X@ e E.!.!.!.~.^.w XX{.T T {.{._.{.% % % % | {.$ I P [ n.p B ;.p h.- 8 8 @ ",
"= = @ 8 + T.k.j.k.n.:.I oX{.T {.$ {.{.$ OX{.{.T {.+X@XP.!.#.!.!.!.!.!.d.@ B.#X{.{.{.| #X| $X#XOX{.{.$ | P [ n.p & 7.X [.P - / O ",
"^ w @ - %X^ w 9.;.j.X Z * n.:.:.[ U U U P U o | @X&X@ -.].!.!.!.!.~.D.4.@ *Xo $ % T T T % _.T {.{.{.% % | U U n.=XY n.[.N 7 1.- ",
"-Xa - 8 q.9.w.p N / n.n.[ 1.[ [ [ [ [ [ [ [ { U l.@ ;X:X'.!.!.>X!.!.Y.#.,X@ + P P U I d d <X| I P U [ U U [ n.C.Z p Z [.d @ @ @ ",
"<.a V + & 9.j.Y p m.n.I oX| oX| I U U U I I d 1X@ 8 &.2X!.!.3XJ !.!.Y.!.4XV 5X6XI <XU U U U U U P U [ { L n.Z p z.w B A.U 7 @ 8 ",
"= c.2.d 7.B j.p # n.U oX$ 1X$ oX| I | | | | | .X@ e E.Y.!.~.7Xt.!.!.!.3X8X9XO n.P [ C.L n.C.C.n.[ n.C n./ c.Z v.# B k.0X7 q.@ @ ",
"V a w.* ^ = O ^ } Y * 0 U 0 P I | <.| | <XU `.@ qX!.!.Y.!.~.wX@ 7X~.!.! -XW.t.@ % % _._.% % {.{.{.{.{.OX_.I :.C X B.k.A.@ @ @ @ ",
"_./ ;.eXH.^ wX;.j.v.P | s d >.$ f h -X|.rX_.tX@ A ].!.Y.yX4.s.@ %X!.3Xe.!.#.7X@ } T |.}.T f T {.{.% % | % o I v.a 7.a x.@ @ @ @ ",
"& ) p 0.uX^ w ;.a c.L U U U d <Xs _.f |.-X`.@ P.'.~.!.#.9Xt.s.d t.X.! 2XY.!.Y.H.@ $ rXiXT T _.% % | <Xd d I :.Y 6.6.p 0X8 @ 7 i.",
"* N / N w ;.N p c.P U U % s h $ % _.f f pXtXt.&.2X!.r.W aX@ @ @ t.sXK.x !.Y.~.=.@ @ @X% % | | o >.o | o I 0 n.p B a Z [.x 7 7 O ",
"p w V ;.;.# # B 9.c.U U U d U U +.{ [ 1.+X@ 6 E.!.#.aXd.I.@ @ @ @ @ i.D.6 W dX` ^.@ fX0 [ [ [ n.n.Z Z Z Z Z k.a B 7.j.gX` hX^ ~ ",
"0 w.@ V B a j.7.& a N p Z Y p p w.. ;.M.@ jXW !.3XX.#.d.@ @ 8 kX@ @ 8 ~ jXu g l D.8 @ 5.^ ^ ^ O O O ^ O O O O 7 = = & lXS S i - ",
"[ L w./ 7.R.*X= = = R.= = 7 O O O s.O J.@ e ].!.!.^.,XH.@ qXzX'.sXi.@ @ O.aX7Xg ~.yX@ L.oX% % | | oX% % | | o P v.v.0 [.N.t u O.",
"xX{ ;.N + a X c.Z Z n.[ P U o <X_.T F.@ I.8X!.!.~.-.@ @ @ ,X!.!.D.6 P.@ B t.zXcX!.dXB @ C |.q |.rX|.|.T f {.#XC B a C [.vXt t dX",
"4 >.. w.w q.M.p N N L [ P U { U d cXu.@ zX~.!.!.!.!.~ @ >.4.b !.W ..J V ^ I.~.-XvX~.7X@ 8 p.rXf T -X}.T f | k.B 5.^ B 0XvXS.F o.",
"3 ! hXp & q.;.z.Y Y C.:.I oX| oX| fX@ ;X~.bX!.!.Y.!.I.@ kX!.bX!.!.D.d.@ V 6 ~.!.l !.!.d.@ G.T rXT rXiXT T % c.j.;.w B [.nXy R e ",
": *.c i B Z n.b.C I | {.{.{.T  X1X&X8 dXbX!.!.>XQ l s @ 6 #.$ !.!.-.7X8 @ :X~.Y.g 8X~.r.@ K 6X_.{.$ $ % | o P p 9.9.p > u r G mX",
"3 l E MX+ T.k.j.k.n.:.I oX{.T {.7.@ e l bX!.!.!.!.e.~.,X@ r.-X!.!.D.~ 8 U.#.b !.Y.!.!.~.,X@ B.OX{.{.$ | P P n.p & 7.X 2 S.t t t ",
"1 b =.,.8.(.w 9.;.j.X Z * n.:.F.@ kX..bX!.l !.!.!.l  .~.4.O.:X#.dX6 U.dX~.!.!.!.Y.bXvX8XdXi.@ @X{.{.% % | U U n.=XY n.1 N.W t t ",
"t S -.W.w 9.w.p N / n.n.[ 1.P R.@ zXE.!.3X!.3XdX!.R !.NXi 1.9X9X9X9XyXzX~.!.!.!.! 3X!.!.#.J @ XXP U [ U U [ n.C.Z p Z [.S t t :X",
"BXo...M & 9.j.Y p m.n.I oX| `.@ %X~.!.!.!.!.X.aX!.!.!.:XmXmXmXmXmXmXmX-.~.!.!.!.s <X!.!.~.D.8 @ p U [ { L n.Z p z.w ;.[.S b M U.",
"t r t S ;.B j.p # n.U oX$ 1XB @ U I.I.I.I.I.V eX_ I._ _ ,XK.,XK.I._ ^.,XI.VXI.I.CX,XCX^.,X^.V @ @.n.C n./ c.Z v.# B k.[.r S e.J ",
"5 v W m ^ = O ^ } Y * 0 U 0 Z.= - 8 @ 8 @ @ O P @ 8 oX@ 8 @ 8 @ Y 6.Y k.M.@ ZXZXZXZXZXZXZXZX6.I j.:.{.OX_.I :.C X B.k.[.D l E 7X",
"5 S =.G H.^ wX;.j.v.P | s d >.$ % s h iXk s <.o  Xh $ | | $ _.| OX$ T T T 6XpXAXAXpXAXAXpXpXpX@X{.[ % | % o I v.a 7.a [.vXE X.NX",
"4 MX=.4.uX^ w ;.a c.L U U U d <Xs _.f |.-XT T f }.|.}.T T -XT f }.}.rXT |.}.-XT rXT rXiXT T _.% % U <Xd d I :.Y 6.6.p [.N.l F U.",
"4 R X.n w ;.N p c.P U U % s h $ % _.f f _._.h % o % s % % {.{.{.{.{.$ <X<X% % {.% % | % % | | o >.o | o I 0 n.p B a c.[.! z z N ",
"r u ..n ;.# # B 9.c.U U U d U U +.{ [ { U U U U L L [ { [ [ C.[ L [ [ 9 * n.[ n.n.C.n.[ [ [ [ n.n.Z Z Z Z Z k.a B 7.j.gX* NXX.$.",
"r b R MXB a j.7.& a N p Z Y p p w.. ;.w.a B B ;.B 9.B w.B & ^ ^ ^ ^ ^ ^ O O O O s.s.O ^ ^ ^ ^ O O O ^ O O O O 7 = = & x.p ~ NX=.",
"5 R e.X.7.R.*X= = = R.= = 7 O O O s.O O O SX5.q.q.9.B k.j.a B k.X X c.n.Z C n.n.[ o oX$ oX% % | | oX% % | | o P v.v.0 x.@.^ Z ^.",
"G S.%.G + j.X c.Z Z [ I U o | % f T T }.T rX|.p.DXDX|.q |.|.rX|.q |.|.|.p.g.p.p.|.q p.p.rXrX|.T T T T T _.{.1XC B a C [.w hXVX0.",
"a NX,.,.+ c.c.c.:.o % % _.T T T }.|.p.p.}.rXT rX}.rX}.T _._.{._.T T }.T {.{.OX{.1X{.OXOX<XU o U #X$X$XI :.0 n.c.;.9.Y x.7 d { 8.",
"Y eXA S w.a & B n.P I d | oX| $ $ {.oX$ | U I o | $ $ <XI I I $Xo | $ $ d I I U I U I o I I o o U U I U [ [ n.c.w.} j.A.~ w.p ~ ",
"* - 8 7X;.B ;.z.p Z C [ [ n.C [ [ P U P :.:.{ [ P U I I I U #X| | | o $XU o d I o <X<X% | <.% $ % d d | P / p z.B 5.Y A.-XN O H.",
"c.a @.@.7.B j.N c.n.:.P P [ I I L { d o OX| | <X| d d d d o % | <Xd I $Xd % | | | % _.% U I o :.[ C.L n.p p ;.7.6.^ T.[.q { a O ",
"^ a @.8 B 9.a N X n.0 I I d s h <X<.<.% _.f f f f x x s s o s d hX{ { 1.[ 0 [ n.n.n.n.n.n.n.[ C.n.n.Z c.Z p p j.;.w p [.{ a 9 f.",
"B - V 8 a 6.B j.X [ P U I % % % $ $ o d | | | | I P [ [ [ C [ [ [ P :.{ U I I U U U U #X:.P { U I U I P P n./ Y w.B B gXN N 8.^ ",
"- i.= } B 5.w 7.B Y p p Z * n.[ 0 [ [ [ n.[ n.Z.n.n.C :.:.C 0 P I :.:.P U #XI :.:.[ U I P [ [ [ C n.n.c.c.# k.B 8.^ & [.p . p } ",
"=X% / V ;.8.w B M.k.X c.c.* n.C :.:.n.n.C.C.C.m.n.n.C n.* C./ c.Z X Y X c.c.Z Z X Y # Z Y X Z X X Y k.j.j.B B.7.q.O w 0Xp } ;.q.",
"^ q.@.8.w.w 6.7.B j.k.p p j.k.j.X Z Z Z p p # Z Z v.Z p p p Y k.a j.N Y k.j.B B B a B a a a B B ;.+ } & & 5.FXO = K O o * @.@.q.",
"p V q.^ B _.^ ^ & B B T.k.k.k.Y k.Y k.Y T.T.k.k.Y p VXa j.k.k.k.VXp Y Y k.T.B B B a a a a a a B a T.a B + & w 6.^ (.^ I ] B w O ",
"I = - & o o p.g.rXI $ A.x.A.x.2 , > : 3 3 : x.x.gX> A.> A.[.[.A.[.[.x.[.x.> g.g.V.A.g.g.x.lXA.A.gXgX[.[.A.A.x.A.g.g.V.T p c.7 V ",
"L w.Y + V a 8 8 p 8 8 U NXS.D r t S t t u t r D S D vXD yX<.>.[ c.p = w = O @.VX- >.8 8 ).S 5 ` ` h.nX( nXD S S.nXS t E _ i.c.- ",
"p + = + ^ ^ 8 p L - @ ^ V A S t r t t t r ( t S ( N., ( ~.O.;.7 w i.@ @ ^ @ - p N >.~ @ 8 a.xXN.*.bX8XS u E S e.v R o.' i _ a ^ ",
"w 7 + w.V q.Y O j.O - @ = eXA S t t t r S S S vXN., N.( < S O.n.a w w w a a . x V - @ @ 8 eXH Q n l X.F l E z S E W t o.hX' CX^ ",
"@ = 7.q.= 7 O O O & @ @ @ V 8 A %.o.$.$.$.%.y '.dXt $.E y t S 6 @ - 8 - @ a O B V @ @ = @ @ V N =.H hXr.$.4.r.4.4.dXo.&.=.N r.K."
};
