/* XPM */
static char *result[] = {
/* columns rows colors chars-per-pixel */
"64 64 62 1 ",
"  c #101010",
". c #171719",
"X c gray3",
"o c #301000",
"O c #391A07",
"+ c #202020",
"@ c #522B0E",
"# c #452723",
"$ c #6A3E1E",
"% c #381C18",
"& c #4C2014",
"* c #54281C",
"= c #3A160E",
"- c #714A37",
"; c #7D573B",
": c #905C50",
"> c #505050",
", c #7C483C",
"< c #8D6643",
"1 c #5C3414",
"2 c #613E2F",
"3 c #9A6B5E",
"4 c #442104",
"5 c gray25",
"6 c #A67E5A",
"7 c #A6837A",
"8 c gray19",
"9 c #86524A",
"0 c #585858",
"q c #AC926C",
"w c #484848",
"e c #373739",
"r c #6A362E",
"t c #0E0E1A",
"y c #56322A",
"u c #080810",
"i c gray22",
"p c #8C603C",
"a c #714337",
"s c #161A2A",
"d c #282828",
"f c #686868",
"g c #A3756D",
"h c gray47",
"j c gray44",
"k c #606060",
"l c #4B4B55",
"z c #1C1C24",
"x c #606070",
"c c #3E3E4A",
"v c #202038",
"b c #2A2A2E",
"n c #262642",
"m c #311717",
"M c #96734A",
"N c #9A6E4E",
"B c #74402C",
"V c #808080",
"C c #A57853",
"Z c #888888",
"A c #565662",
"S c white",
/* pixels */
" .      Xoo   OOO..o ooOO     .  .    +@#$@%OO%%OO%OOOOO  . ....",
"O&*=   %--;;;-;-;;;;-;;;;#X %%Oo=&%   -;:>:,--<<;;<<:<<<,. %%%%.",
"O1*= X2;<;3<<;;--;;;;,22;;#Xoo o4@o X5:2;-::<66366667<363:  %@%.",
"O&= X8--666<<66<9;;;3,,,,<:.   oO& X.-:2-,;,::63:63;<<3,;35Xo%O ",
"oO  X+0;<66qq6<;;,,,;:;,;30.X   =OXX 5;::,,,<3,>,,;;;9;;,;8X %o.",
"O  oOXw-<6qq66<<<;;;::;;:3eX X  O .rXt-;,-,2;;-2y-,2-;;--5u    .",
"  X;-#u>;:67<:;:::3:3:,-,iX@p#X   2;- +2:;-,;;,2yy--,2,,i. ;a   ",
" X23;:. +88ii8++s+dd+s+ .X%:6p.  X29;2X .......  ....  .  -33r %",
" .;3:;- XXXooo.   OOO ooX.<3;<2  +,::; Xoooo.y#..  oo  X #9;;;#%",
" +:,;:- .3:ffgg:3:ggg::: -:-<92. 82;;,+.9,->00w228,ww-,d.,2-9-5%",
"u8;3::: d6hhj:k00kk>>0l>z5,2--2.ui-,,,+d,00>020;0>>5l>kw.2r-9-2%",
".8;::::.83::--2255i50>i5+2;yrr#..5y-9;+d2y5ii55-25w55lxc.2y2--2%",
".y;:::; 8j0--www55i5ww5i.2-###%..2-9,,+d28i8ii5255iivcl8.222;92%",
".y-::;, 8:-w>255i5555555zy,r%o%..222;;+b2ii888822y88ec58.2-;995%",
".8-;::, ik>25iiii555ii55.d-2#%%..i222-++588888855i88eecn.22-;95%",
".#-;;,- i:iiii5i8iiiiiiiz#-ryy#..y2--2++588i8885588888cn.222,,2%",
".y,,2-- ik5iiiwi888iiii8ud-y#y# .2;,:,++w88i8i8i5i8888ib.yr2-;8%",
".y-2yy2 8>5iii888888iiii.y2*##% .2y-2-#+>i8ii8di588iiie+ y,-2;8 ",
".y2y#yd 8>5i8i88d88iiiii.d2yyr# .2@2y2++5iiiyi#i588iieid.y222-2 ",
".#2yy## 8>w5i8#88iii8i55.#,y2-#..yy,-2%d2y222i8i5ii5555d.##22;i ",
".y-22#y dw>5i8888i55ii5wz#,y#2# .2y2-2%d252222#5588i555d.yy2#-8%",
".#22y#y 2>>wi8888y#ii2->+#-ry2# .y*#y2++552225yy588i555d%222#-y%",
".8;-22y 802wiiii88i55w>2.#-*y-#..8222-%d22255iyii88i5ccn.2--#2y%",
"+5;-2-2 80wwiii8888ii22>+y,rr-2.+5#yy2%d22iyi8y5888iii5m%22-2;8%",
".8;;,-- 8>ww5i888y88iw>k+2:2#22..8%%y2.+22y8iddi8dddii5d%2y22;y%",
"+8;,;-- ij:>w558y88i55-;+i9r#y% +8%##y.d-588888i8#ddiiib%2-2y;8%",
".i;2,-- i3:;w2i52i8i5w-w.y,yyy. .i*yyy.8-2i8888i888di5i++2,9,;8%",
".8-d;--.573::3-225ii522w.y9##%% .8yr2-.855588d8888885cc+%;,p:p2O",
".8,-,-,.5h:3fj3;w2522222.#,y@%% .8@#29.d>5i#8d888i8cwicb+;,:pM2%",
".8-----.8fkkf33;--52222w+#-##%% .8#y#2%d>588888i8ii5w55d%p;33N2%",
".#-2-2y 80k0kj3:,-w22222.#2##%  .#@$#y.d588iii5w55iw>5w8+:::3<2%",
"%8-y-22 ik0>-0:::;w22222.#y#%%. %i@rry+di88iii52555>02>e.;::<N2%",
".d-2-22 8>>2w>;0;>ww2i55.d#%%%%..8y-22%di8855522255>->ki+;9:pp2O",
".y-2-22 8>wwwwww>>>ww5i8.#y%%%%..2yr2-.d252w>2w>2-2000kid;::<<>%",
".8-2-2y 8>255wi5>0>w25ii.#y##%%..5yB--.8iiwww>k0wfk0:>0i8:,3<<w%",
"+8,2-22 8>wwwwwww00>>552.#####%++i,,;-.8#+ww>0f:3:jk00kid;9:<<>@",
"+8-2---.d>w2>>>>>>00055i.##%#%%.+8-,;,.82i-k0fhjhVVk00k8d;<::<0O",
"+8,2--- 8>www>>>>>>>wi55u2r#y-2++8-;;2+8,w;:kjhjhh:::0k8#;;3g3w%",
".d-----.8;ww>>>>w>0kk>5i.822,9-+.d-;;2d8,377j3jhf:3jj0k88;333<w%",
"+8---2-.80>ww;0>>00fk0>w+y-9:<,++8--,,di0gggVjfj:fjjjjk88;p:3<w%",
"+8-----.80>w>000>0kjkk-w+2,,:9,++8,ww-d800:fV:kk:ffjhhf88<C::<5 ",
"+d-2---.8k>>0kkk0>0f;;:3b2,p::2d+d-yy2+8:jk:hkf0:jjhjhj8i<g33<5.",
"+d,-,,,.80ww0ffkkkkf003k+29p9:-d+8,--2+5jhjjjffkk0jjhjh88<gg3:2%",
"+i,----.80>w>k0kkkfffjff+299:;2++i--;-dwjZkfh:k0>>kfjfjid;7g::2@",
"+d-2---.80>>>kkfkkkkfj0j+29-:;2++d22;;iwVV:jj00ww00>0ff88;gg3:-&",
"+8-22--.80>>>kkkkk0kfjffb29;;-2++8--<;iwjjjx>>>ww>>w5>088<gg3:2&",
"d8---,-.8>2w-00kk0000fffby:;-;2+d8,::;dwh0www>wwwww5w0>ii;3ggg-&",
"di,--,,.802>>>00kk>>>>0>+y:,;-2+di-wk:dif>5wwww5ww55>>ln8;3gg<2&",
"di;--;,.80>w>>00kk>>>>ww+d,9--2+di--2>d8>ww5ww55w555llwn8;3:3<2&",
"di,2-;, 80>w>>>0kk>>>>>>+y;--;2+di-;99+i>>wwww555ww5wlwd8:::g<2O",
"di;,;;,.8>w25>-0kk0>>>>>+8,--;2+di--->+iw5ww5w5i5w55l558d-:3g<2=",
"di:;;::.80>ww0>>0k00>>w>d89;::2+di--;-.5w55wwww55wwwlw>d8;93:;i=",
"+i::<3:.80w>>>00000>>0>>d8:9::2++i-;;-.i>55www>>>w00>5Az8:2;-;5O",
"+b::::>  szzzzzzzsszzzzz 8;,,-y..+;99w.usbssssssszsnbsz 8:2-->io",
". i-;-+X ooOOy&OOOO  o  Xz><:;d   ,;-e ooooOOoooOoooooXXb3:93iu.",
"   5-8X%,:,-----:;;,,-,,2 +;<5   +8>iX.---,,,;;;;;;:::;#X8,<>+ .",
"%% .8 .-;:,,,,;:;,,,,,,,;2X+5.  ...e .,;,;,,;;,,,,:<333:y 5wb .o",
"o o X+-,;,,;;;,,--,,--,,,;2    oo  X -;-2,;,,,-,,,;:;:<:3y z =%O",
"o   Xz82;;;,;;:;,;,--,,--2-   ooo   +52--,,,;;:,,,;;;::::5  %=%o",
"oo    e#,;;-,;;::;;----2--+X oo oo   82--,;;:;,-;;;,;;;;-8 .%%.o",
"       i22,,;:;;:;,,-;;;-8  ooo    o  8-:;:33:;--;;;;;;-5 o%%% o",
"        e58ii5i5i8yy255ww   oooo   o  +8wwwww5i5i5>5i558+ .%%% %",
"  XXX   XXXXXXXXXX   XXXX              X  X u     uu uu        .",
"        O@@@@O...OOOOO%O.         o.   O@@@@@@OO%%=@@@#%  .... ."
};
