/* XPM */
static char *tile119[] = {
/* columns rows colors chars-per-pixel */
"64 64 78 1 ",
"  c #030000",
". c #0A0100",
"X c gray3",
"o c #140100",
"O c #1B0000",
"+ c #160D06",
"@ c #160A0A",
"# c #1B1108",
"$ c #101010",
"% c #171719",
"& c #181818",
"* c #220001",
"= c #2D0000",
"- c #280E00",
"; c #210F0F",
": c #330101",
"> c #3B0001",
", c #241406",
"< c #281600",
"1 c #241409",
"2 c #2D160A",
"3 c #26180F",
"4 c #2B1A0C",
"5 c #301000",
"6 c #391A07",
"7 c #3A160E",
"8 c #3D1A0B",
"9 c #2C1414",
"0 c #2A1C12",
"q c #311717",
"w c #321D16",
"e c #341D19",
"r c #3A1E1A",
"t c #392607",
"y c #232517",
"u c #362214",
"i c #3A2315",
"p c #35201A",
"a c #3B221C",
"s c #3D2B1A",
"d c #202020",
"f c #2A2C24",
"g c #2A2A2E",
"h c #3E2520",
"j c #353327",
"k c #383127",
"l c #343229",
"z c #450001",
"x c #490001",
"c c #540001",
"v c #481C08",
"b c #401810",
"n c #442104",
"m c #52230E",
"M c #522B0E",
"N c #4C2014",
"B c #40251E",
"V c #4C241C",
"C c #442C1D",
"Z c #4A2E1E",
"A c #54281C",
"S c #4D321F",
"D c #5C3414",
"F c #442622",
"G c #4C2B23",
"H c #532D24",
"J c #5C2C24",
"K c #473020",
"L c #4E3321",
"P c #543124",
"I c #5C3226",
"U c #55322A",
"Y c #5B322A",
"T c #603A2E",
"R c #623B31",
"E c #444533",
"W c #88896A",
"Q c #C7C6B2",
/* pixels */
"66nnnMMMMMvNvnvnnnvnMMn6666bnMMnnnnbbrnMMMMn66666rtbtivvvMnnMMnn",
"666nnnmnnnvnnMnnMMvMMnMMn666nnnn6<6nvnnn655--5665nnnnmnMMnnnMMvv",
"vMv6nnnMnnnvvMMMMnn66666666vnnnv66MM6666666666nnnnnnMMMtMnnnvvMM",
"Mnvn6nnnnMvFMMnMMMvn6666N6vnMMn6vn66665555555nnnnnnnnnvvnMNMMMMM",
"6n66666nnnnMMnvvvv552nnnn6vvv8b8868vtb65nnnMMn8nn9666666nvtvnn22",
"b6b8n6666nb666555255555-55555<5522<55556665-------856568--<---<-",
"$---<<-<<<@$-$$$@----;-;1-;;;-----$$;@1;5@-----X@@;;-;;;XXX@@@@X",
"-$$$9$$$$$$$$$$$--$;;@@@@@@;X;XX;;X-X;--;;-;---------1X;XXX;;;;1",
"6888827;-----<-5-----9------22292222222----d&<-5-----5-@X886866-",
"6v68v6r-<isiup04111111313342w0RRBB++11,11#4133112324uei@$nv<676-",
"1MnnMMA593Ooooo.o...        ..UUha....                0;$DMM6862",
"2MMnMvA5q3Oooo.oooo.     .  ..UYrh  ....              0r$MMn6882",
"7Ar6MqD2;3xz>>OO:>xx>>OO>>zx>>YHar=*::OO::xx>>OO::xx>>u#$DMnN8M9",
"BMnv6nA523xz>>OO>:xxzzOO::zxz>HYaa*=::OO::xx>>OO::xx>>u2XDMn6bM2",
"7MnM6nA2q1>z::oO==zz::oO==zz>:HHrp**==OO=:zz::OO==zz::0;XMDv6bM6",
"6Mv<nnA2&1zz::oO==zx:>OO==zz::PPpp**==OO:=zz::Oo==zz::0g&MMvb2M-",
"2MnnnnD2;1..      ..      ..  GGpp        ..      ..  1;XDDvb2N-",
"2MnnnMD211.o      ..     X.   GGep        ..X     ..  1;XDDvMNN-",
"2MMnMmD2;3cczzOO>>cczzO*>>ccxzGGee*=>>**z>cczz*O>>ccz>,2XMDvMN5-",
"2MMM7MD223cczzO*>zcczz*Oz>cczzGPee==>>**>>cczz*Ozzcczz12XMnM225-",
"NAvDMND221xz::oO::zz>:OO::zz>:GGee**==OO::xx>:OO:=zz::1;XMnM525-",
"MDMDMbJ;;1zz>:Oo::zz:>OO::zz::GGee*===OO::zz:>OO=:zz::12$MMM55v-",
"nM66MbG;7#o.      ..      ..X KFe0         .    . ....3;$Mnn65N-",
"vv---bq2r1..      ...     ..  GFer        ..      .X  39$MnnM5N-",
"-6-;1;r;X1ccz>*O>>cczz**>>ccxzHHaa==>>O*>zccxz**>>cczz32$nnnM5N2",
";q-;-br;21cczzO*z>cczz**>>ccxxHHpa==>>O*>>cczz*Ozzcczz2<6nMn6656",
";q-<bNr;;3zz>:oo=:xz>>OO::xz>:YUaa**==OO:=zx>>OO:=zz::425MM56656",
"2862bNF;;3zz::Oo::zz:>OO::zz:>UUaa**::OO::zz>:OO=:zz:>42-MMnn526",
"nMn8bVJX29o.      ..      ..  llll        ..      ... 26-DMMn226",
"5MbvMNJr;3..    X ..      ..  llll   .    ..     ... .425Dn5n2b6",
"nDnMMnJ2;TYIYYYUSHAAHHGGHHIYkkQQWWkkYYGHHVHHHHGZIHIIJTT2-DnnMbM6",
"nDnMnnJ2eTYIYYUYHHAHHGZHHJIYklQQWWklYYHLHHHHGGGHHPIITTTr-DnnvbM-",
"5MMMnnJ2$hFahprpeeeeeeeeerpaffEEEEgfaappepq0ee0pprpaBaBX5MMnvbM-",
"5MMMnnJ2;FBFphpreeee0eeerrahyfEEEEffaappppee0epprpaaapB;-MMMvbM-",
"5MnnM2b27# .               .  yyfy  X                 +;5MMMMb8-",
"5MvMn2NV;#.       X  X        yyyy                 .  +;5MMMMbM5",
"5MvMnVFVq3zz:>Oo::zz>>Oo::zz>>HHar**=:OO::xx>>oO::zz>:,25MNMvbN5",
"5MnMnrArq1zz>:OO::zz>>OO::zz>>HUra**:=OO::xx>>OO::zz>>,;6Mnnvbv5",
"5MnDn7A9q1zz:>Oo:=xz>:OO::zz:>HHre**==OO::xz:>OO:=zz:>,;nMnMv6v-",
"5MnM87F9b3zz::Oo::xz:>OO=:zz>>HHer**:=OO:=zz:>Oo::zz::,08DMnM6N-",
"5MnMb7r;&1..      ..     ...  GGee        ..      ..  1$6MMnM6M-",
"58nM8br;q3o. .    .. .    ..  GGee        ..      ..  #9<DMnMvM-",
"5MnMb2w;23cczzO*>>cczzO*z>ccxzGZee=*:>**>zcczz**>zcczz11<DnMbv8-",
"5nnnb6F52;cxz>O*z>ccxz**>>cczzZHee==>>**>>cczzOO>>cczz49;M66bv8-",
"<6nn88F<;,xz::Oo::zx>:OO::xz:>GG0e**:=OO::zz>>OO:=xz:>42<n66b88-",
"5nnn6rF;21zz::Oo:=zx:>OO::zz>>GGee**==OO::zz>:Oo::zz:>12;A6nb28-",
"6Ann8vA;;3.o      ..      ..  FGee      X ..       .  32;n6nb6M-",
"6vNn8AJ%;3..      .X      ..  GG0e       X..      ..  2r-n6nb6M-",
"6nNnbDJ&&2cxz>O*z>cczz*O>>cczzUUba==>>O*>zcczz**z>cc>z1d-n6nb6M-",
"6nnnnMA&<0cxzz*O>>ccxz**z>cczxUHhr-=>>*O>zcczz*O>zcczz1;@n6nb6M-",
"&MnnnMA&2izz::Oo=:zz>>OO::xz>>UUhh**==OO::zz>>OO::zz:>29@M8MbMv-",
"-MAMn2b&2ixx::oO::xz:>OO=:zz:>UUrh**==OO:=zz>:O@==zz:>29@MnnbMN-",
"5MnM<2b&4p..X     ..      ..  UPhh        ..    X .. .60@MnnbMN-",
"-MnM<<q$2i.       ..      .o  UUhh  ..  . ..      ..  w9@MnnbbN2",
"-Mnnn-q$5Cssippuu8uussZZPSSSZZRRhF03CCLLSSLLKLLLKKsCCCC&-nnnb8A-",
"-655@-2$<Cssiuuuuuu8BiZZSPSPZGRRFF33CZLLSSLSGGLLKKsssKC+-8656785",
";;;;;;;@@@@@@@@;;;299222222;;2;;@;22777777222221;;;;---------$$$",
"X@X@@@@@@@@-$$-$<$$$$-----;;;@@------$$$$$$$$-$$$$$@@@@@-@--@$1-",
"<<<--;1;2r552552888522bbb72;;;27v6665-996677bb7rr99b555---222288",
"68666666vb8888228vvv866bMv66-<;5v6r22nnnMNNNMNNN7vNMv6--28nMMMvv",
"vnvvvvvvvvvMMMvvvnnnbbNMGV86;n5627nMMMMMnMAnFNFFhbbbp9--nnnnnnnn",
"nnnnnnMMMMMMMMMMMMMvMNNvArqqqb8MnnMMMnnMMMMMMMMMMv6866vvMMMM66nv",
"vvvvMnnnvnMMMMMMvn666arrqqq2nnvvMMnnnnnnMMMvvvvnnnvnnnMnnnnnnn66",
"nMMMMMMMMMMMMMvvvvvnnnqqqr282MMMMMMnMMMvvvvvvvn666nnnnnnnnnnn666"
};
