/* XPM */
static char *result[] = {
/* columns rows colors chars-per-pixel */
"64 64 33 1 ",
"  c #2E2A26",
". c #312C26",
"X c #342F29",
"o c #37312A",
"O c #3A342D",
"+ c #3E382F",
"@ c #3F3930",
"# c #433C33",
"$ c #474033",
"% c #484137",
"& c #4D463A",
"* c #4E483B",
"= c #524C3E",
"- c #554E41",
"; c #584F41",
": c #575042",
"> c #5B5345",
", c #5F5748",
"< c #5F5849",
"1 c #605746",
"2 c #625947",
"3 c #605748",
"4 c #625A4A",
"5 c #685F4E",
"6 c #66604F",
"7 c #68604F",
"8 c #676051",
"9 c #6B6353",
"0 c #6F6758",
"q c #706756",
"w c #746A56",
"e c #706759",
"r c #726959",
/* pixels */
" O######$#####$$##%#$####@+@###@+%##@O##$@%#%#@$%@%%&&&&&&&&&&-%",
"X#*=-&%&&&*&**-*-*&---&-:*&-&--&-:--&>->-&&---&--&::=:>=--:---,@",
".$542551<><2<<<<52555444<6<>,,64635<,,,,>,,><:>>,>,,::=::>:-:::@",
".%74251,<<><45444894<<<<>54>>>><<<<>,,>;::,,6:::::>>:>::--:**>:#",
"X&7425,,55><<44454544<4<<44<<>>>,4<>,,,,>:>>>-::::>>::=:-==-:<>#",
"X&545q52<4-:244586544<>>43<<<>>>,::;,:;>:::>:-:::>::::::-==>:<>#",
"X*745w5224>;443454433<><>><,>>>>:,-->:-::*:>>:>>>>>:>:=:--=:><>#",
"X&522=2>*--&;---&&----&*-;>;:*----------&&*--*&**:-*****--==>>>+",
"X&564<<>>>>--;*--&->-&---;:*=->=&--&&&&==&=>-&*-******&:4:---<>@",
"X&445<<<>#%%%%###@########@@#$%@@@######$####$#%$$####=75::>>>>#",
"X&53,<<;>#2<:<><<,22<-<2<4<<<222>3,;2242>>1>>>>>>:>>>>w54:><->>#",
"X&55232->+4<><><444><,>3,,><<5>1<4462====>>=><2>>;>->>w55=><,->+",
"X&54,24>>@::><>444,<14>>3<>,245733;>>>;>=-=>>><>>:>:-:w95=;>=>>#",
"O*5>>,<<>#:;:<><,,<234>><<<4542233><=>,>>>=,>=<2:>>:>,w75=,>>,=#",
"o*5,<,,>>#;-:>;>>>33>>;>144134555,>>==>=>=>:>,>=><>>>>w95->,>1>#",
"o*5,,>,,>@>;::>>:>>,;,22243525543>>=>>=;=>=>>=>>>>:<>-w05-,2=1=#",
"o*5>>3,;>#===;>3>>>>2224453533<;>>>>>:;::>--:>:-:>:>>>r95>>>;:>#",
"o*53;,>>=#=>>>11>>121>42<<><43<><:>:>>:-:>:-;::-:::>33r95,>>:>:@",
"O&55><>,>#=>=;===121211>6>>,<>>,>><<:---->---:--<><<3<e844>;>>>@",
"o*3333;,;#>==>=1>241,1,,<,>>>><3><<<<:>:>>::::;-<>:><<e432<<<<>@",
".*4552;<=#=====1>><>>,32<>,>>><<><6<<>;;;>,><;>>><>>:<083<<<><>@",
"O&455,<>>#21==;1;>23,><<<>>>>>>>>>344>><>>,><:>-:>>4<>045<>>>>>@",
"o-484,>;=#>>>>=2><<<>-<>,,>><::>><454><4<><<:;;>>;><<,0624>>>>-@",
"O&5444<>=#>=>==>>>>;;><->>,,>---<<<5<<<4<,><>>>,><><>>065,:>>>;@",
"o=5<3,,>;@,->=1=--:->>,>>>>>>;;-<,34<,,;;,<6>>>>><<2<>r53,>:>>;#",
"o*4,<>>>-#,>>>>1,-->,-->>,>>>;:>>>34,,<>,<>>>>>>:>><<>054,>>>>-@",
"X-33<,<>-@>;1>>1>-->>=--;,,>>>>;>343<,>,,34,>,>;<>>><>e63>>>;>-@",
"O*5<>><>-@<;=1==>-->>=><<><,<<>>,<463<3,><<>,<,;<>:>>:e54;>;;>-@",
"O*5,-;>:-O>>>=>=>>>=>>,,>,<,,;>;>,3<,,3>;:6344<<<,>>>>05<-;-;>-+",
"+*3;>;:>-@>=11>=4=->>>>>>,><<><<>,,>3,,,>>>>344<<<<3<<04<-;-:>-+",
"+-3,>-->-O>->>=12>>11>>>>>;>2<><,>>><>;<>>>;455555<,<>e44;-->>-O",
"o*33>>>>=O>;==>1,2,,,>>,><,>>>,>>>><>;>,4<<<444423,34>r4<--->;-O",
"O=2<>>,;=o>-*>-;><<>33,,443<<<<<,>>;>:,<<<<6><33333<<>e5<==:=-=O",
"+=24>>,==+;>>:-;>->><355343>><>;,>>;>>>>,<<4<33,3<3,<<e3<-:=--=O",
"@=24;:,=&@><>>>>>->;<;,<444><333<3,>,<<36<>,,,,55><3><r<,>=-===O",
"+-=,>>=*=o>>>>><>>,,4><<6443353,>,>,,>,6,,>,>>-->2><<<r<;-==&&=o",
"+-,>>=>=&O>><>><>,>><;<<>3<234<<,>,,>,;,,,,>::>>-,2,,,r5,:=***=O",
"@-4,>>>=-o>-><<><,<><;>,<4,<44,>,,,>,<>,,>->>---=-;>2>r44====-=o",
"#=1,>>>-&o;>::>><>>;>>>><,>43<,>>><><6<>>>:,,->:=--==>w5<=>==:*o",
"#=>>->->=o><>>>>>;<2>>,<,><4<4>>33,,,,<>>>:-->:>--->==r2><=>>:=O",
"#=>>>>=1=o>>>-><;:,<<>><>>>3;3<><6,<>>>;>:::---:->->&=r,>==>>>=O",
"#;>>>>>>=o>>>;;>>>>>>><<<33<><3>,33<>;;>>:;:-:-:-=*-==e,>=>==>=O",
"#>,>>>>=&O>;:,->>>>>>>>>,343<,,,;,<,<,,>:>>--:---=---=r<<>=>>=&X",
"O;=;;>>=& ->-<>->>,>;>:;>,<><,;<,>>33,<6><>::---=--*=*0<=>==>=&.",
"#=>>>==>*X;>>,>>><,,:>>,3<,,>;><,,344333,>:>;---=:--==03>==>>>=X",
"+>>>>>>=&O-;:---::,:,>,:>3<<>;;>,34<,<>><>:;>>----:---r<>=>>==&O",
"#=;>->>--X---;--:,,:,>>,,>,<<<<3,33><>><>,,;--:>>:--==w2==>=>=*o",
"#>=>:>=>&X---:--::<,,,,:<43<<><<,,<,>>;:>6,>,,:::---=-05=>===>*X",
"#=1==>>,=o1==>>>:>><<<,><334>>3;,<::::>:><<:>>=->-=>=>e4>--:->=o",
"#=11==>1&o===>>>>,,>>2<<<3<23<<><,::,,,><<>:::-:=-===-q2,:>>2<=X",
"#>=21>=1*o=>;==,>>>,>2<<<444>><>:::,,,,,>>=<>>>:==--**e4>>><2,*o",
"#1=1=1==&o==;=>>:>>><><<<>,><3>><::>:*,:::-:==::===>::q4=>=2>;&X",
"#=21=1=1&X,>>>>;=>>>><44,<3,4<>><>,:>:::>:-::====**:**q2>>->>;&X",
"#>;2=>1=&X>><>>-=>>>><<<>;>><>--=>:::=>*-=-:===:-==--*w6>>>>>-*X",
"#>121111&>wwwwrwwwwwwwwwrrrre0eqqrweww000000rr00weee0ee61>--;;*X",
"#=1;=;==,5425599547697885599599908664<66666696664544444<>>->;;&X",
"#222:--:2>,12<24<<868<<4,8<,,<<<244<<<<<<<<>6-:>>>,<:::==>>=>-&X",
"#=1=:*--=->:-----&*:>::::::<-:--*:-:-:--*-&&**:-=&&**==:>====>&X",
"#=2>==&-:>-=:::-:-:::-:>>>--&-----:--;---*&**--*=&=*===:>====&&X",
"#2=>>=--=-=->::::::::***:=----&-:-*--->---%**-**=*====::===>==&X",
"#=1=----*--->;:>:-::--&-=*::-*---&----%*-*&-=-*-*==*:=*==&====&.",
"#=2;---&*-**:---&*--&-&&::>::&------&---&&*-***=====****&=====#X",
"#===--::-::-::%:-&-:-&--:::*--:-&-*&&&%:-&-:-&*==&&**&&&&&&=&=#X",
"*=**%-&%&&&%%%##%@@%##@$%#O@#%%O@@%%@@@#%@#%###%#%#%@$@$#$####O "
};
