/* XPM */
static char *result[] = {
/* columns rows colors chars-per-pixel */
"64 64 108 2 ",
"   c #161512",
".  c #191714",
"X  c #1C1A16",
"o  c #1F1C18",
"O  c #211E1A",
"+  c #25211C",
"@  c #29241E",
"#  c #272520",
"$  c #2B2621",
"%  c #2E2923",
"&  c #322D25",
"*  c #342F28",
"=  c #363027",
"-  c #383027",
";  c #363129",
":  c #3B342C",
">  c #3E382E",
",  c #3C3730",
"<  c #3E3931",
"1  c #40372E",
"2  c #41392F",
"3  c #433C33",
"4  c #483F34",
"5  c #464036",
"6  c #4A4136",
"7  c #464139",
"8  c #4C443A",
"9  c #4F483D",
"0  c #504437",
"q  c #51473A",
"w  c #544A3D",
"e  c #594C3E",
"r  c #554C41",
"t  c #594F41",
"y  c #575145",
"u  c #5C5244",
"i  c #5E5549",
"p  c #5F584D",
"a  c #625546",
"s  c #665847",
"d  c #685947",
"f  c #625748",
"g  c #655A4B",
"h  c #6A5D4C",
"j  c #655D51",
"k  c #6A5F51",
"l  c #6F604E",
"z  c #71614E",
"x  c #666054",
"c  c #6D6152",
"v  c #6E6559",
"b  c #736553",
"n  c #786753",
"m  c #766856",
"M  c #7A6A56",
"N  c #736759",
"B  c #746A5B",
"V  c #7B6D5B",
"C  c #7E715E",
"Z  c #766E60",
"A  c #7B6F60",
"S  c #7D7262",
"D  c #7F7668",
"F  c #816E57",
"G  c #816E5A",
"H  c #84725E",
"J  c #8A755E",
"K  c #8C785F",
"L  c #837462",
"P  c #8A7661",
"I  c #867866",
"U  c #8C7A64",
"Y  c #867A6A",
"T  c #8B7C6A",
"R  c #917D65",
"E  c #907E69",
"W  c #8A7F70",
"Q  c #8D806D",
"!  c #948067",
"~  c #94826B",
"^  c #99866E",
"/  c #9A8A6F",
"(  c #8D8373",
")  c #948672",
"_  c #988771",
"`  c #968975",
"'  c #9C8B73",
"]  c #968B7A",
"[  c #9C8D79",
"{  c #9D917D",
"}  c #A08F76",
"|  c #A08F78",
" . c #A2927C",
".. c #9E9281",
"X. c #A39582",
"o. c #A69884",
"O. c #AA9A86",
"+. c #A59A8B",
"@. c #AB9D8A",
"#. c #A89E91",
"$. c #ADA18E",
"%. c #B0A18D",
"&. c #ADA292",
"*. c #B3A593",
"=. c #B5A896",
"-. c #B7A998",
";. c #B9AC9B",
":. c #BCB4A3",
/* pixels */
"O & $ o O O @ 4 * , > 4 q & % 3 3 ; ; * ; - @ + % % ; O % O $ & & $ O O - $ @ @ $ @ % @ & O , 4 * * & ; $ + % O O O * - - & % @ ",
"6 g i + & > t V E T R V b t V u w P I I u u 6 3 3 3 3 % + + O % % 3 s e 1 2 M J T 3 a a g E t 3 i 3 < & + + % q 1 b ` b V B G L ",
"l u D $ @ + w J O.H k P u 3 B V H f ] ^ E w V b r r r 4 & $ % 1 e u R R r P @.} U b ' O.[ [ L t u 3 & , O & 8 3 f V &.) k _ E ^ ",
"R a D $ X : J R c V =.P I H V J E H I Q t w _ h f f r j 3 O & 8 d z -.R %.F n r V U ' o.h f G ..P f * $ $ y g b N _ *._ [ T A G ",
"} z b - @ r b _  .$.;.@.$.O.o.' H ~ ~ I i f ` ) U h g r * $ - M G } P ^ X.b 3 g I ) :.H n H m P ` V r # O g V b  .O.^ U B k n X.",
"F h e - + q g 8 Y ..~ X.*. .n d P { P u f k M ' U d h r 1 O > * g ` [ V b 4 a U B X.g u H C Y V U V & # $ u w  .V V l y b r a ' ",
"J z 4 % @ q u V r B ' O.$.v z ' B a M ' l g } ^ J a h g ; O % $ > Y M V V R ) b ] ~ e d J T V { M b * + + > T V g s J I u q ) { ",
"F z 0 O o f q T u H ~ O.u b b s 6 M  .' c P [ J z h d d ; O - 1 : k V L J h k A V w s I B o.C M 6 8 + O & 8 b b U  .J F e b O.' ",
"l t t O O f f I f u ~ L B ) B 8 h '  .~ M ~ { z 8 k a ; & & = & , D c a V c V a r z F u ;.[ T f : + @ + % & I ~ ' s ~ s f l h z ",
"d J e @ O a g B l V B p ( v v c z S ' g b ~ h g r A 4 4 @ & 6 6 8 Q g g V V a e g V a ..P R M u > 3 @ + + @ N m h b  .H 6 V b e ",
"} H e & O 8 k b Y l v W L I V l h Y u r r H c q k S k 8 + & 6 0 8 w c u u g r i K y e c H s 8 w w 9 + @ & @ 8 c u a P 6 q I u l ",
"! d 6 3 ; & b A c v x I V n e s Y u 8 D B V f w j f H 8 O O + : & < C y p 3 V V e 5 6 t g B y 3 j : @ & 3 6 p ..u Q u a H s l M ",
"z l 4 : 3 h g r f V c b f u q V k r j Z r r h r B k & . o + O X o O @ q r L V u 8 e l q B i u i * & % : % r p j y u w b m y e s ",
"h e 3 @ + r k f f 3 q i 8 ; 3 u 7 , Y , 3 , * 1 + . . O O @ O . . o + @ 3 r u 9 = e 7 < u = @ o X O + + - w 7 p i u f c q c e > ",
"1 & @ % - * @ $ # O : + % * @ % * * * O o # O . O . . O + O O o + O O O O o $ O $ + + $ o . X . X $ % X o - j 9 j c 8 , 8 : = 3 ",
"X X O @ $ O O X O X X + O & O + $ o # o o o O & - 4 u n g e q e 2 & % O O X X X . X X . . X . O + % & O X o + @ ; % ; + @ X X X ",
"X . X X O & & O o . X $ + ; O $ + > 8 8 c m i q n M H l w i J H T G c 4 X o + % % > + o + + X + $ % & + X . X X . X X O X X . . ",
"3 q % $ & % % % $ o X . . . . + r I B b b s 3 k M { l ! U b H R =.@.T 9 + + = 3 q ; X + - 4 i 3 & * ; % @ O . X . X X O X . + - ",
"' b 4 q g v g 4 e g 4 + O O O * L c r b g h ( _ n C x ' z U P D g R K e O o ; I C g 1 c c c g v v w j w 6 1 - @ & & & O X + 1 e ",
"R V ( _ | ..b X. .T b * $ % % w b > a n h S [ H e q { U ' R R 8 f ~ e e + O ; f g b l E P M _ ' ' ' ~ ' U ! R e @ & & + $ 5 l m ",
"X.T ] k T T ] k G ] b q O * 8 g B h q e g V V C u u ! ^ O.h l l ! z b h + o & i T b H P M C L L P P J H U ' n 1 & + @ e i e ) { ",
"O.` L 8 L N T [ V L ) ` r 4 * f c C f u u h ..T n a z s n b f P z h ~ c + X % b [ 8 K I b _ G E H l h H V g u w @ + 1 z 9 b ^ ! ",
"[ N v _ I f L u r h L A h $ & k u I u u h ` $.V 8 e M 6 s u 3 H b { b B + X + y I B O.u P H  .G h ! ' s a G h u + O C Q u b n  .",
"E V W X.H M V M r h f B V $ O i 1 h c > M C g u 5 n : u w : a z C f e C % . + 6 2 I H m  .~ g f n z u C T g c 8 @ O x 8 n c H H ",
") A X. .U L W k V k Z A 4 # < i i c C 3 i = n 3 B u r V i h u 2 y r c V 8 X $ w H u 8 ^ h G r t 3 u S $.U a e 5 + @ r u y H  .n ",
"T T X.~ U j A k ) N Y 8 4 * * j b V q y S k > 8 g a c g u V 3 8 v : c T u O O c T y c 3 u r 8 > a B ) M R a 3 5 o @ i r B h T n ",
"f h N v N V V ) j T b $ O % & * h g 5 > w a 6 6 N g 6 i D < > 8 Y r Q L 9 $ $ S L u ; 8 b v u 3 u u h a V w j ; + : b i b B l d ",
"8 W 7 T f b ) V : g % O % * O O X % @ 6 3 4 : 2 9 3 5 : $ ; & o ; * y c 3 @ + c T g 8 p L r 4 g u w y j h j c ; + 6 r r y H 2 e ",
"v j q w 4 8 t & % O + @ & % % + + X X O + X X O O # + o o o X X o o o + + + O + r j w 6 r 8 v i w 3 7 r u i u : # # * v u 3 ; r ",
"3 3 : @ & $ @ O - q - w w 3 4 3 4 : + . O + O X X + o o o . O o o O o o o o o O # o $ > # O ; * $ + % @ % $ % O + # % 3 u 9 3 9 ",
"$ + o O O X X & 4 t f @._ X.T I V h n & X @ & X o $ $ o X & & > 3 > 8 f 8 3 6 6 4 o . . X . X X X X X X X X + + X $ % * o + o % ",
"# o O O o O g 8 4 f A X.t n T V l M / 6 + O & @ + # o O w { G 6 g u T b b u i g Y S o . + o o o O O + + X o o : ; $ + o o o o + ",
"+ o + - 6 ( B u f 8 ) P u ~ w c Z @.! 0 > 4 - & & 3 w u y ~ 3 L I a a c g 8 r c ' U 9 + X % + + O O X X X O O @ @ & % @ . . O + ",
"O + = = C B b L f 8 &.g L V T b I | U a V c * & 8 J g Y ..u g R R a C ..S V u a l V l 5 X o X O O o O @ % $ * > - 1 : 4 4 O O O ",
"+ % 6 > y B +.X.l I X.~ P [ B +.J M e A u & @ $ z F 3 J n u U ^ n z T L C c d e z ! B { % X O O & @ 1 u ! ` V R b L V a n e @ + ",
"@ > q 5 H ' O.M  .T P U I f o.' w g h U z < + @ s 6 t R m m M M g h I ! L P h h n e Q ~ % X @ + e a y R H u X. .u h g b ! e & O ",
"@ 2 > a ) V h z ^ u h T t M G z h h N G u @ % X - & s b h z ^ H u s M z x l b e f w ~ C @ X @ : q C V V ' H ' -.c r 8 h G 8 3 X ",
"% > 6 C 9 h m J e r I B U q G M h V V g R = @   O : w a a J M a w F l w e e 6 l j n ! l @ X X - a 8 M O.H e !  .^ m f H ' a * X ",
"& w a 6 w h M s 3 b ( P 2 h h b f f a b w & O . w w 3 s 8 h a 6 l Q u w 6 8 u T b b z y & X . - 3 m  .n z a V ^  .J H H G - % X ",
"& w & ; l e 6 s f f V < g M E w w N u k - + @ X w 1 w t v a w c B e e 5 f y c g i l 6 f @ X . & > ! ! ! ^ c y s K n g N g : & O ",
"& 1 : e n 2 M w w h - e b l i u g p i i ; $ % + q w c 3 w 3 9 9 : e e e r f Z 7 v x u 7 X X . > u a H ! F w 8 E n q H w h = + o ",
"- 6 % q O u e = t 1 4 u b k i r x 8 3 3 % * + $ 6 w u $ , 3 i , w m B u r T 8 Z y x ( v X   X 6 h 8 M h e 6 w h q s c 6 f & @ O ",
"& - > @ + q = 5 * 3 t j Y y 7 3 p @ ; % & < + + $ 3 q $ # r 4 < r S x p 9 r ; v y ( c 3 + X o = - 4 u u q 4 d e z e B u w + o + ",
"@ + + & + X @ @ $ & * % O % % ; + + + + X X o o O + - $ + & o ; 5 e : x y : i 9 x u i o % o + 2 & c u q 1 h g | s C { u = @ @ @ ",
"> + o O + @ + + O % $ # O O o . . . . . O o X o O O X @ % * 5 w p y # c , 9 y % r i ; % + o + 3 - j ( c 6 G H z a { b 1 & + + @ ",
"o + + X X o O + o O * # . . O . . O @ % + + O O O + O . O + > 8 7 = $ + + % & ; ; # o X O % = : 1 u c & s z a h u 9 3 + X + + & ",
"X X X X . X + + O # O $ & r t 4 a e 4 q a u w 3 3 w p : + $ @ @ # $ $ % # X o # # . X + o $ + $ & 3 4 9 q : 8 & @ + X X X O + @ ",
"> w h 8 > ; + + o % 4 t Y ) H @.=.R K F L ^ ! E b L ~ H % $ @ % # + + + o o X + O X ; $ % 9 + o X o o + O @ + % O + X O O @ % : ",
"b c u O.V v @ O O * e U %.R ' G w b ' } J *.X.+.#.A -. .H & O @ + % = = @ + X + * & ; : & $ & + X + + $ ; + w = q l m g h k e T ",
"b 9 N c H n 3 O . > a ` *. .J f u ~ =.' @._ ' I r k I V z q X . + > e f 0 6 3 6 8 : : 6 : : 3 6 4 r w % + + y D ~ Q I T T c T *.",
"w c j h o.! d % X % w :. .b R V  .U V ^ +.&. .V A t I T z M O . @ 1 6 b  .@.' H V l k c ) w H M H g S g + $ 5 ~ u b T S B T O.U ",
"P C b h M ` z 4 X & c  .! ^ O.! U G 8 l ! X.m ~ g I _ U h a X . + + e -.-.' H H f l H  .+.S z u  .H S c $ % : ~ ` c b u H E ) H ",
"O._ V c h P 8 % o : h a ' ^ O.U S 5 < z G O.h ' m n n w z 4 O . & q U ;.J M U U H m n V n ' e M U P P 3 + ; c C V g T n V T g u ",
"o.X.I : U P g + X 1 0 n I ' } z r u s M U n q u b E 8 h d & X X & e e ' R  .-.~ B 8 b B F z H g H ' U 6 % : w c b ~ z b ~ P y s ",
"M { i u J h M % X & - z f B H q q P I M e u a a n w t w q % X o 3 1 t l H U @.' u h b C h F g ' O.J m q + @ u I B _ P R m L F  .",
"c g q  .H g a % X @ 5 3 9 I I u H  .P 6 0 J k c F H w i r % & o % 1 & M e e G M M b M H T s V ! ~ v I h @ > 8 b g r w e y e R a ",
"g e h K 6 8 a - X = a - V S H M X.V 3 3 e a e U ^ b T v b : o X % % 6 ! z g s s B I H } c e h g p f u > o @ 8 M I c u e P M h h ",
"b H n b s g u = X - 6 6 5 y b C N w 5 m H u P U c ( L r y : < o @ 3 h ^ n 4 F M ! P M h w u t A 9 f e 1 + O 6 k ) T z z S e w ~ ",
"~ T V e d V z & o + 6 3 3 a H d w w Q U 8 G V c i a r 8 w > # o & c U t u V V V v n y 8 b u D j u f w 5 X o * f  .g w B V s a s ",
"~ m 3 w b s u @ X @ 0 = g h 8 w u  .c 3 u a b u a 3 4 3 4 8 % $ & V 6 5 B g c a a b u j v u r e 6 u l u o o 3 f S e l X.s e e H ",
"C q 6 r u 6 6 o X @ @ 6 c 6 q u s g r w w f i r f 3 $ 3 8 ; * + : i r f 3 j S h 5 c v r C v q > 6 x e = o + x j x b C g q c m P ",
"= $ r r 8 2 - o X + % & 3 + O X X o X X O $ o + $ + o & * ; + + r i 8 5 8 S 8 8 : 9 % & > 5 3 5 , 7 y ; + + : 3 9 V u 5 q y w 1 ",
"# # + o X X X . X X . . X . X . X o o . X X X . X X . X o + % @ & > 3 @ O @ % + & + + # + & = @ + + + $ X + $ % < 3 > 2 & = @ % ",
"o . . .   X . X X . X X X X X O o O O + $ $ @ $ O + + X X o $ - - - - O O X X X X + o X o X X X X o X $ O . + + X o X X o X X o "
};
