/* XPM */
static char *result[] = {
/* columns rows colors chars-per-pixel */
"64 64 30 1 ",
"  c gray14",
". c #3B3024",
"X c #362A1D",
"o c gray19",
"O c #403024",
"+ c #45362A",
"@ c gray23",
"# c #404036",
"$ c #30241D",
"% c #453624",
"& c #4A3B2A",
"* c gray21",
"= c #584536",
"- c #604F40",
"; c #4F402A",
": c gray27",
"> c #4F4030",
", c #2A2416",
"< c #534F4F",
"1 c #4F4A4A",
"2 c gray25",
"3 c #5C5858",
"4 c #4F4F40",
"5 c gray31",
"6 c #2A2A2A",
"7 c #30302A",
"8 c #363630",
"9 c #2A2A24",
"0 c #2A1D1D",
"q c white",
/* pixels */
"  ..XXooOOXX..XXXX..++OO..OO..........@@##$$oo%%&&%%**%%XX%%XX%%",
"  ..XXooOOXX..XXXX..++OO..OO..........@@##$$oo%%&&%%**%%X===--;;",
"XX::&&>>==>>>>==>>ooXX++XX##OO....,,##@@XX&&##<<11==&&;;====--;;",
"XX::&&>>==>>>>==>>ooXX++XX##OO....,,##@@XX&&##<<11==&O;;22&&==OO",
"$$&&%%OO%%++++@@::&&XXXX++**********@@$$OO==11==&&;;OO;;22&&==OO",
"$$&&%%OO%%++++@@::&&XXXX++**********@@$$OO==11==&<;;;;%%33&&;;&&",
"..>>..11&&++XX44&&==##XXXXXXXXXXXXXXXX%%::::==&&<<;;;;%%33&&;;&&",
"..>>..11&&++XX44&&==##XXXXXXXXXXXXXXXX%%::::OO&&;;&&&&&&%%&&==OO",
"XX&&OO%%&&..++++>>@@::11::::::==::5555====>>OO&&;;&&&&&&%%&&==OO",
"XX&&OO%%&&..++++>>@@::11::::::==::5555====>>OO&&;;&&&&&;;;;;;;==",
"XX&&OO@@OOOO@@++&&++&&&&>>>>&&@@++@@++>>&&>>>>++&&&&;;;;;;;;;;==",
"XX&&OO@@OOOO@@++&&++&&&&>>>>&&@@++@@++>>&&>>>>++&&&;%%%%;;&&==22",
"XX>>OO%%OO@@OO&&@@&&++&&OO<<++OO--++OO55&&++&&++++;;%%%%;;&&==22",
"XX>>OO%%OO@@OO&&@@&&++&&OO<<++OO--++OO55&&++&&+@@@++;;%%<<&&11&&",
"$$&&%%::..@@OO>>>>&&&&>>&&++@@++@@++++@@&&&&&&@@@@++;;%%<<&&11&&",
"$$&&%%::..@@OO>>>>&&&&>>&&++@@++@@++++@@&&&&&&++++++++@@&&@@11%%",
"XX22**OO%%%%%%OO@@&&@@>>1155@@@@@@>>@@>>@@++&&++++++++@@&&@@11%%",
"XX22**OO%%%%%%OO@@&&@@>>1155@@@@@@>>@@>>@>&&&&&&&&@@>>##&&##**oo",
"oo&&;;**&&&&%%%%@@&&&&&&>>>>>>&&>>>>++&&>>&&&&&&&&@@>>##&&##**oo",
"oo&&;;**&&&&%%%%@@&&&&&&>>>>>>&&>>>>+O<<@@++&&&&++&&&&>>::OOXXoo",
"  $$&&&&&&%%OO%%%%++&&++OO11&&OO<<++OO<<@@++&&&&++&&&&>>::OOXXoo",
"  $$&&&&&&%%OO%%%%++&&++OO11&&OO<<++&&++>>++++>>++++>>>>ooOO&&&&",
"OOXX66OO22&&OOOO&&++++&&>>&&++&&++++&&++>>++++>>++++>>>>ooOO&&&&",
"OOXX66OO22&&OOOO&&++++&&>>&&++&>++>>++++OO--&&OO--&&>>++XX####&&",
"OOOOOO6622..--%%%%..55&&&&&&&&>>++>>++++OO--&&OO--&&>>++XX####&&",
"OOOOOO6622..--%%%%..55&&&&&&&&>>++>>++++OO-+&&++++&&==@@XX77&&++",
"$$>>88XX22OO&&%%OOOO++>>>>++++++++++>>>>++++&&++++&&==@@XX77&&++",
"$$>>88XX22OO&&%%OOOO++>>>>++++++++++>>>>+>++>>&&++>>::++XX**++++",
"OOXX886622%%OOOO%%OOOO++++&&++++++>>++++>>++>>&&++>>::++XX**++++",
"OOXX886622%%OOOO%%OOOO++++&&++++++>>++&&++++@@++++@@==&&XX**++++",
"OOoo889988**&&%%@@&&%%%%++++&&&&&&@@++&&++++@@++++@@==&&XX**++++",
"OOoo889988**&&%%@@&&%%%%++++&&&&&&@@++++OO11++oo11++::++XX**..++",
"XX..8899@@XX==OO%%..::OOOO@@++++@@>>++++OO11++oo11++::++XX**..++",
"XX..8899@@XX==OO%%..::OOOO@@++++@@>>>>++++++++++++++::++XX**..++",
"....88XX@@%%OO%%%%OO%%@@OOOO&&&&@@>>>>++++++++++++++::++XX**..++",
"....88XX@@%%OO%%%%OO%%@@OOOO&&&&++++++&&>>&&>>++&&>>::++XX**++**",
"....88XX@@&&%%OO&&%%OOOOOOOOOO>>++++++&&>>&&>>++&&>>::++XX**++**",
"....88XX@@&&%%OO&&%%OOOOOOOOOO@@>>>>>>>>++>>&&++>>&&==++OO77&&++",
"$$&&88XX&&OO&&OOOO%%OO%%%%OOOO@@>>>>>>>>++>>&&++>>&&==++OO77&&++",
"$$&&88XX&&OO&&OOOO%%OO%%%%OOOOOO>>&&++++oo55&&OO<<&&==++XX**++++",
"....88XX@@XX::OO%%..::%%@@OOOOOO>>&&++++oo55&&OO<<&&==++XX**++++",
"....88XX@@XX::OO%%..::%%@@OOOOOO>>&&++++oo&&++@@&&++22::OOOO****",
"XX..$$66%%&&%%%%&&%%%%&&%%OO@@OO@@++++@@&&&&++@@&&++22::OOOO****",
"XX..$$66%%&&%%%%&&%%%%&&%%OO@@OO@@++++@@&&++@@@@++@@@@##>>++XXXX",
"XX  $$..88OOXXOO**%%OO%%..11OO..--OOOO11&&++@@@@++@@@@##>>++XXXX",
"XX  $$..88OOXXOO**%%OO%%..11OO..--OOOO1>&&>>>>@@&&++++@@@@22oo$$",
"XX..88++++....%%%%OO%%%%&&&&%%@@OO@@OO>>&&>>>>@@&&++++@@@@22oo$$",
"XX..88++++....%%%%OO%%%%&&&&%%@@OO@@OO&&>>>>&&@@@@@@>>&&@@**>>..",
"XXOO22OO..OO++&&&&****@@******%%@@@@@@&&>>>>&&@@@@@@>>&&@@**>>..",
"XXOO22OO..OO++&&&&****@@******%%@@@@@.::%%++&&++++++++++11..>>++",
"XX++..22++OO..++**%%OO%%..11OO..--OO..::%%++&&++++++++++11..>>++",
"XX++..22++OO..++**%%OO%%..11OO..--OOOO&&%%&&>>++++++++&&&&++&&++",
"66++XXXX......OO%%OO%%%%&&&&%%**OO@@OO&&%%&&>>++++++++&&&&++&&++",
"66++XXXX......OO%%OO%%%%&&&&%%**OO@@11>>>>&&..++++++++&&..@@>>++",
"XX++..........++++**@@::@@2222>>22::11>>>>&&..++++++++&&..@@>>++",
"XX++..........++++**@@::@@2222>>22:$XXOO2222&&OO++....++++@@&&++",
"XX++XX....XX22**OO&&88$$$$$$$$$$$$$$XXOO2222&&OO++....++++@@&&++",
"XX++XX....XX22**OO&&88$$$$$$$$$$$$$X..00..&&22%%::OO++++11++@@@@",
",,++OO==XX....**@@OO$$$$XXXXOO66XXXX..00..&&22%%::OO++++11++@@@@",
",,++OO==XX....**@@OO$$$$XXXXOO66XXXX..00..&&22%%::OO@@>>@@>>>>++",
"XX&&++OO++++&&&&++66$$XXXX88XXXXXXXX88OO$$OO##::::OO@@>>@@>>>>++",
"XX&&++OO++++&&&&++66$$XXXX88XXXXXXXX88OO$$OO##::::OOOO%%&&&&&&@@",
"XX++OO++OO**OOOO$$XXXX..XXXXXXXXXXXXXXXX..0066....OOOO%%&&&&&&@@",
"XX++OO++OO**OOOO$$XXXX..XXXXXXXXXXXXXXXX..0066......oo..XXOOXXOO"
};
