/* XPM */
static char *result[] = {
/* columns rows colors chars-per-pixel */
"64 64 248 2 ",
"   c #595949",
".  c #635949",
"X  c #515149",
"o  c #595149",
"O  c #635951",
"+  c #494130",
"@  c #6A6A51",
"#  c #515041",
"$  c #595951",
"%  c #585151",
"&  c #636359",
"*  c #6A5959",
"=  c #6A6351",
"-  c #636351",
";  c #595141",
":  c #302821",
">  c #39301F",
",  c #514939",
"<  c #393028",
"1  c #303023",
"2  c #393928",
"3  c #413930",
"4  c #8C9383",
"5  c #83837B",
"6  c #93937B",
"7  c #B7ADA5",
"8  c #B5AD9C",
"9  c #92A796",
"0  c #8C9372",
"q  c #9C9C93",
"w  c #939383",
"e  c #9C937B",
"r  c #7B7B72",
"t  c #8C8C83",
"y  c #939C83",
"u  c #9E8C83",
"i  c #9C938C",
"p  c #939C8C",
"a  c #B5B5A5",
"s  c #9C9C83",
"d  c #938C7B",
"f  c #8C7B7B",
"g  c #ADA58C",
"h  c #AEA593",
"j  c #B5B59C",
"k  c #BDBDA5",
"l  c #A59C9C",
"z  c #282118",
"x  c #9C9383",
"c  c #9C9C8C",
"v  c #A59C8C",
"b  c #93938C",
"n  c #8C8C7B",
"m  c #8C9C8C",
"M  c #869C80",
"N  c #9CA593",
"B  c #938C83",
"V  c #838C7B",
"C  c #6A6A59",
"Z  c #393930",
"A  c #727263",
"S  c #9CA58C",
"D  c #A59C93",
"F  c #ADB5A5",
"G  c #9C9C7B",
"H  c #8C9C93",
"J  c #9CA89C",
"K  c #A5AD93",
"L  c #ADA39C",
"P  c #A5A58C",
"I  c #726A63",
"U  c #938C8C",
"Y  c #9CAD8C",
"T  c #413928",
"R  c #8D8C72",
"E  c #8C837B",
"W  c #838372",
"Q  c #837B72",
"!  c #7B726A",
"~  c #ADAD9C",
"^  c gray84",
"/  c #ADAD93",
"(  c #ADB59C",
")  c #A5A593",
"_  c #A5AD9C",
"`  c #B5BDAD",
"'  c #BDC6AD",
"]  c #BDBDAD",
"[  c #B5BDA5",
"{  c #BDB5A5",
"}  c #6A6A63",
"|  c #B5AD93",
" . c #635959",
".. c #A5A59C",
"X. c #AFB593",
"o. c #7B7B6A",
"O. c #8C937B",
"+. c #6A6359",
"@. c #93A58C",
"#. c #D6D6CE",
"$. c #A5938C",
"%. c #6E676E",
"&. c #666363",
"*. c #49454E",
"=. c gray19",
"-. c #282828",
";. c #1D2128",
":. c #282830",
">. c #72726A",
",. c #7B8372",
"<. c gray35",
"1. c #414641",
"2. c #393939",
"3. c gray13",
"4. c #181818",
"5. c #9CA583",
"6. c #598C59",
"7. c #679C63",
"8. c #64BD63",
"9. c #83937B",
"0. c #A5AD8C",
"q. c #C6C6AD",
"w. c #B5BD9C",
"e. c #182121",
"r. c #493930",
"t. c #C6CEAD",
"y. c #CED6B5",
"u. c #306130",
"i. c #416A41",
"p. c #598C51",
"a. c #83CE83",
"s. c #6ABD6A",
"d. c #727272",
"f. c #2E3439",
"g. c #7B7263",
"h. c #285128",
"j. c #4D7E49",
"k. c #59B559",
"l. c #D6D6C6",
"z. c gray6",
"x. c #1C4D1E",
"c. c #286328",
"v. c #418341",
"b. c #181821",
"n. c #C2C3B5",
"m. c #C6CEB5",
"M. c gray3",
"N. c #080F0F",
"B. c #0F0F18",
"V. c #1C411A",
"C. c #307230",
"Z. c #6AB56A",
"A. c #08080F",
"S. c #CECEBD",
"D. c #9C8C8C",
"F. c #CECEC6",
"G. c #3F9F3C",
"H. c black",
"J. c #ADBDA5",
"K. c #392828",
"L. c #212E24",
"P. c #494139",
"I. c #ADADA5",
"U. c #CED6BD",
"Y. c #418E41",
"T. c #49A049",
"R. c #83836A",
"E. c #413949",
"W. c #A5B59C",
"Q. c #D6D6BD",
"!. c #CED6C6",
"~. c #494939",
"^. c #ADA5A5",
"/. c #939C7B",
"(. c #8C8372",
"). c #A59383",
"_. c #635141",
"`. c #837B6A",
"'. c #AD9C8C",
"]. c #C6CEBD",
"[. c #677259",
"{. c #415941",
"}. c #3C4939",
"|. c #395139",
" X c #415139",
".X c #415939",
"XX c #495941",
"oX c #496341",
"OX c #4B6149",
"+X c #4D6D49",
"@X c #183418",
"#X c #51A851",
"$X c #597F51",
"%X c #596A51",
"&X c #517151",
"*X c #515139",
"=X c #5F5130",
"-X c #7B6834",
";X c #725F26",
":X c #3D7034",
">X c #398639",
",X c #4E904E",
"<X c #59A559",
"1X c #519C51",
"2X c #6E8160",
"3X c #728E6D",
"4X c #607E5F",
"5X c #887B41",
"6X c #A59359",
"7X c #AA913D",
"8X c #8E7727",
"9X c #5D4E24",
"0X c #CECEB5",
"qX c #518351",
"wX c #63935B",
"eX c #7B9372",
"rX c #6E6741",
"tX c #BDB272",
"yX c #DED6AD",
"uX c #B8B58C",
"iX c #AA9C59",
"pX c #7B6628",
"aX c #7B7272",
"sX c #DEE3D1",
"dX c #E7DEC6",
"fX c #9CAD93",
"gX c #726330",
"hX c #93874D",
"jX c #514C30",
"kX c #595939",
"lX c #615F41",
"zX c #827B51",
"xX c #97873C",
"cX c #998730",
"vX c #453C18",
"bX c #B19C43",
"nX c #D6BD59",
"mX c #C2AB4D",
"MX c #A39250",
"NX c #6AC66A",
"BX c #837B8C",
"VX c #92939A",
"CX c #595163",
"ZX c #393041",
"AX c #9C9393",
"SX c #9C8C7B",
"DX c #8C7B72",
"FX c white",
/* pixels */
"  .   X o o   X o . o o O o + @ @ + # $ o % X $ .   $ & * =   o - - - - - -   . ; ; ; ; # : > , # < < : : < < 1 < < < 1 : < 2 3 ",
"= 4 5 6 7 8 9 0 5 q w 4 e 5 3 : : 3 r t y y u i p 5 p 9 a 8 s d f 5 f f 5 f i g h j j k 8 l 3 z z < s s x q i 6 c c y v i p b 3 ",
"$ n n d m M N p w n w B n V C 2 Z A b v i d V w S v x D F c G H 4 J q g c S c K L S c P P H I < 3 A U i B L x S Y P c x c c b T ",
"X 6 w w n 6 B n n R n b w x c c x w t B E W Q 5 n b p b q w 4 4 4 p 4 w c t n w d d d w w n w i w c c n i w d w w d t W ! v 4 < ",
"o ~ x n w ^ k / j ~ a ( j j j ~ a j ~ a ) q ) ~ _ F F ` ' ] ' [ [ a ] F a ( [ ~ j ( ~ / { [ a ] ] [ a j j k j [ j ~ c E } p B 2 ",
"  | v n c j P / P K c c K ) c w c c c i c c b w N _ _ ( ) j ( F _ _ K ~ S ) N c c c ) v h ~ h P ( ~ / ) K c / K / P c r  .p s T ",
"  H c w c a h ) P c ~ K ) ) s p 6 w c b 4 w t w i ) K v / ~ _ ( ~ ( ..) / c c _ c ) c P ) c c c ) P P P P / / X./ P v o.} S w < ",
"X 0 w n N a / h v ) P j S S w O.c p c 4 w b c c c c c P ) ) ) ) _ _ ~ S K K c ~ K c ] j B n w w c w c x c n o.I ~ h v W +.y O.T ",
". E @.4 c k ) / v / / P ^ #.` c 4 c w c w 4 n ! c S c c ) / ) ~ ) _ K ) c ) P K v v ~ w +. .O O & O O O +.I n O / P P Q & 6 E 3 ",
"O c $.w P ~ ) ~ g / X.j k ' y M w n w n 4 O.5 ! s S s P P c ..~ K _ ) ) S P P P P P ~ A %.&.% *.=.-.-.-.;.:.n } ) P ) >.O s p 3 ",
"$ 8 y O.c [ / / / P P / ) y n o.o.Q W ,.o.! ! I c y c c S c .._ ( S K S S s c P P s j & <.<.X 1.2.=.-.3.4.;.~ A P K p r } q / 3 ",
"  c y n P ~ S c c v X.( X.S K p c y b c 6 n O.6 S c P c S K K _ K N S P P S P 5.c P a +.1.6.6.7.8.2.-.3.4.;.a o.( ~ N >.} c c 3 ",
"o w 9.O.w ( c c P 0./ S ^ ^ q.[ ( a ~ ~ ( p R W O.c y S ^ ^ ' ( a F ~ K / w.[ k ~ w s C =.=.2.*.<.1.=.-.3.e.a >.K ( ) r C / w r.",
"O e 4 n c ( K P c / P P t.y.P S P y c w O.6 W o.w S P c ^ / i n n 4 n n n d w d d n B ! -.u.i.p.a.s.=.-.4.;.j >.~ P c o.+.c x 3 ",
"o 5 n n c ~ K ~ S K / / ) P w x n n w n R n n o.y c w P [ c c ) N s c s S P c ~ ( P j I 3.4.-.2.d.% f.-.3.;.a I S S w o.+.H i T ",
"+ 3 C w w ( P P / ~ S c c s c s S c c c c y c P y c s c ~ i c c S c s S w c c ) P P k g.4.h.u.j.a.k.3.-.3.;.a } ) s S >.+.I 3 > ",
"@ : 2 x y j S X.~ S ( K ^ ^ l.] k a k [ [ c w W w p c c K s w c w c s c w c P K ) K ] g.z.z.4.f. .f.4.4.4.;.] ! ) P c ! & < z , ",
"@ : Z w c [ S P X.K P K ] ^ ] K c ) ) c ) P r ! c c y S j w p y c S w c y O.c c ( ~ k ! z.x.c.v.a.Z z.z.z.b.n.! v p c r +.3 z # ",
"+ 3 A c s k 0.P ( P ( ~ p t W r r r Q ! W ! I I ) c S S j c S s P w c O.n c S y s / m.! z.M.N.3.& 2.z.M.M.B.] o.K w c A +.>.< < ",
"# r b N ) [ K P ( P K S ) S _ _ K P S S ) P ~ ) K N S i [ c P s s P s w w w s P 0.( ' ! z.V.h.C.Z.k.z.N.M.A.[ I ) c w I O U s < ",
"$ B D b ) ] ~ X.~ / P ~ a S.y w ) S ) ~ k ) c c K ) c c ( 6 c c x P w c w w w c s / q.g.z.M.M.e.% =.4.z.M.A.] I c c w I $ D.t > ",
"o p q q ) ] ( 0.0.P S s F.#.y W c c S S.^ a n 5 S ~ K K a y c w S S c c w c w S P P q.o.B.G.M.e.1.f.4.z.H.N.] ! c c d o.O w x < ",
"  x ) c ..n.J.K P s S G P c n 5 c K ) ) w w Q W ) ) P P ' c c s c c B c w b c S s v q.o.3.M.M.4.K.L.4.z.M.A.n.} w c w !   c b < ",
"$ q ..N ) ` ~ K K y y O.n o.r n N S P c w Q Q b N S c S S.S p p c c b c c w c P P S q.g.-.C.G.z.4.3.3.4.M.B.' A c c p ! +.b B P.",
". N I.....` K c c S 4 y 4 4 4 p S P c ) c i c c ) ) S c l.S c c ~ ~ a a a ) n s s x j g.=.3.4.z.4.4.3.3.z.4.n.! c c c >.* G p P.",
"  b h q N a ) P c c p n U.U.F _ L ) ) P i c t 5 ) S S c U.P w c c p c c ) c Q c y P j I =.Y.T.4.4.4.3.3.4.3.a >.c N i I +.M u P.",
"$ ) ~ ) ) a ) S c s p c _ K c y c s S c P w W >.) ..c ) m.x s S S c ) c ) P d c c 6 ] g.-.-.4.4.4.4.4.3.3.:.m.} c c w r O s $.P.",
"& j I.x ) ( S S c y O.4 n o.I A I A >.! o.A >.r N K S ) j n P c x K c P c ) w w e y k R.E.f.;.3.e.;.;.:.f.f.m.+.c N c >. .P h P.",
"* | W.c c j y y y y c w s S w c s c y S S K S ) S ^ ^ ^ c o.P c v P c s P ( x s w p n 6 ,.n 5 t t w w x E ~ n o y p c o. .c l P.",
"= ( 5.c c K c c y O.c Q.c c Q.c c Q.c ) Q.i S Q.c !.S.p t I P i ) P c P K h n w c c A & A } } ! o.>.o.! I O   # y S S o.& l h ~.",
"  ) ^.i ) ( c p y y w ' w O.' w y ' w S ' w S ' w c W p A A x v P ) K / K ~ c y p c c c S S S S ) ~ ~ P S s S s S S w >.+.Y S P.",
"o J l c ..a c c n 4 y / O.w / O.y / O.S / O.) / O.K c 4 n x p v c P K K K k S P K y S s S c ) ) ( ) ( K / P s S 6 w n !  ./.u P.",
"- N J q N a S c y c O.c R y S R S c R K S R ) S (.S c w c c i i c ) ) P / j s c S c P c c K S ~ ~ ) K P K g S P c c w >.$ c t P.",
"  ~ c c c a ) O.y c S w W w w W c w W K w W c w W p p w c w P c c P ) K K P c 0.s s s c s c ) ) ~ j / g g / P S c n n }  .x B P.",
". k | i S ~ c y w y c c c s s y c s c S K ) ) S ) ) S c P P P c c [ m.#.l.S.n.l.Q.Q.Q.y.l.U.#.#.l.l.l.l.#.l.y.s o.4 t } % ).w 2 ",
"_.{ e c c j y n s S s S c 6 ) s c y w c N p c c c c y c P c ) ~ ~ k K n o.! ! o.o.! A o.A o.>.o.W g.`.Q W W 6 K o.c n } % n B 2 ",
"  '.(.w c K w c w ^ ^ a ) / K k m.] F K _ ~ K ~ ~ w n S ~ P S / P ].c [.{.}.|. X{.{..XXXoX{.XXXX.X X.X{.OX+X,.( W c V } O w s T ",
"  $.s E n K 6 p y #.c n W n n x c c O.4 r t n w w w W c c ^ #.[ ) ] s {.@XV.c.Y.Y.#X8.s.k.s.8.k.#XT.Y.i.x.|.$Xm.4 b w >. .P w 2 ",
"O U p W n ) w n w [ w XXXX%X&X+XOXP O.*X=X-X-X;X=XN d c K ^ S c c k P oXV.V.u.:X>XY.,X<X1X<X1X#XT.>Xv.C.u.i.$XU.n c b }  .s O.T ",
"O K d (.W S O.w 4 ~ y XX2XM 3X4X{.0.y =X5X6X7X8X9X) b S K m.S ~ K 0X( ,.+X&XqXp.6.7.wX7.7.7.wXwXp.qXqX6.wX4X3X#.5 c b I &.6 5 3 ",
"O q M B n ) p n S a w [.J ].` eX&Xj c rXtXyXuXiXpX( c S S [ c S K ~ j j Q.l.Q.l.l.U.#.l.l.Q.l.l.#.l.#.#.#.^ ^ ~ W w B aX&.b c 3 ",
"O 8 '.w 4 _ n w w a B 4X9 sX!.M &X[ y -XtXdXdXiXpXa c c ) ` S S ) ~ / n W n n W W 5 W W n V 5 V n w n w t E w c o.) w >.O K / 3 ",
"o { h d n q w n s a w %XeXfXfX3X+X' p gXhXtXtX7XpX` c c c !.K ~ c ] n @ , jXjX*XkX  lX  lXlXlXlXkXlXlXlXlX@ zX~ W w w o.* ) w ; ",
", j S n 5 c n n w [ w {.&X4X4X$X.X' c 9XpXxXcX8X9Xm.c S _ ^ F ..N n.o.*X> vX;XxX7XbXnXnXmXnXnXnXmX7XcXpX9X9XzXn.V v c ! +.c x ~.",
": l p Q n N n n 4 ' w XX{.+X+XoXOX] i jX=XpXpX;X=X~ c S S U.F c b ' ! kXT vX;X8X8X7X7XmX7XmXbXbX7XcXcXpX-XrXzXU.n c B I o H i : ",
"> 3 I n w _ w c n K w w / ) ~ j ) t p i ~ { n.n.a ) Q c ..]...N N ].c g.rXrX5XhXhXiXMX6X6X6XhX6XhXhX5XhXhXzXhX#.r b b >. .I 3 > ",
", z < W n _ c p p W W n ^ S W n E ! Q E b i c q t E r ) ..] q ..c _ ) ~ ' ].U.].!.U.!.m.].].].U.l.y.Q.l.U.#.^ N >.N b I O < z , ",
"# z 3 n n c w b w c t w ^ ~ ! x i t t c c ) D c S c ) ) ) ] q ) b c c o.E r 5 n n n E n W V n ,.t w E 5 n W w p r b p >.o 3 z # ",
"< < A 5 w ) S w w c w w ' ) A s p b p c q c ) ) S c P c ~ q.i ) S a W %X~.}.|. X X{.{.XXOX{.{.oX{..X{.{.OXOX4Xc V p t &.X >.< < ",
"< s U n n ~ w p c S N N ' S ! c c c t t w c c S S i c K ) U.) c c q.r  X@XV.c.Y.,XT.s.s.k.NXs.k.#XT.Y.:Xh.h.%X' 5 n n & o U s < ",
": s i (.n K x c ) N ) ) ` c r w c b n 4 n y c c i w S _ ) a ) ) c q.! .XV.V.u.C.>XY.,X<X1X<X1X1X1X>Xv.C.u.i.$X!.n 4 n & X i t : ",
": B i d n ~ c c c ) ~ N n.S >.i c B O.t w w s t p c ) ) ) b w x c F (.2XoX+Xj.$Xp.wXwX7.7.7.wXwX$Xp.qX$X$X4X3X#.o.w w I O p e : ",
"< b D w c ~ c p K _ ) ) ' N ! c i c w c w w w w w ) ) ) ~ ) K c w x c ' / ) K S j [ ~ ( j ) ( a [ j _ ( N ( ^ p A w w } o i U : ",
"=.B i c 6 ~ y p K ..~ P ] ) W ) c s c c y w w n w c h D ~ ~ c ) c o.>.o.W r Q W n E n E E Q E B n n n n W ! r I } p n A o i U : ",
"> B x w w F y S c ) ) K ~ ) n P P w c P y w c p w ) ) ~ / c P w n c c y.j 4 y p w i c n w n i w w w w w W W c p b w n I $ /.i : ",
"1 n n w c K N N _ q c ) p c w i ) a k ` [ k a ( a ] a ] k [ [ ~ ) b n ( BXVX%.E.*.~ BXVX%.E.*.8 BXVX%.E.*.>.i c w c n A   s b : ",
"< s 4 p c ( N N _ ~ _ N t 5 ,.n c w w w w w c w w c w i c w 6 n n n >.c CXE.ZXZXE.n CXE.ZXZXE.E CXE.ZXZXE.&.P c c w n C O Y w : ",
"< w c c c F F F ..) ) _ _ ....) ) c c x c v c ) ) ) i s c w O.p n w w W r } I >.o.! C I I } ! o.I I I } &.I c w c w n A O s w : ",
"< w S b ) N ....N ) N N ..p c c c x x s d x v v P c w 6 n O.n E t 4 p 4 4 p w ) c P P c c c h P / L c ) ) w B B n 6 n A O ).w P.",
"> c P b b t 5 E Q 5 Q o.r Q >.o.! o.! g.! ! r Q W W >.o.} } I } & } r ! ! o.! o.Q ! >.! o.Q Q r Q Q Q Q ! aXI >.C +.C C O v c : ",
"< AXg t aX>.>.&.I } } } } O O & & O +.O +.+.+.} I &.O O & % % X  .&  .+.&.+. .} } & +.+.+.I I I I +.I & &.} & O o O $ O O H D K.",
"P.i 5.c S ..~ p P '.H S j v C < Z r x i v g q / AXJ ..g c L c D.p P 5.SX/ / N g ..l ) p q v +.< 3 >.U AXAXw 4 V n x s v v w y 3 ",
"O 4 n x 7 8 N 0 n q j w e V 3 : 1 3 r w y y u i p t q W.v v 5 DX5 t | U u b ..'.L K / L i D Z z z < s s B x b n w w 6 s i p y   ",
"P.    X o     X . O $ o O o P.@ @ + # $ o % X $ .   $ & * =   $ @   . _.    O - o ; ~.; P.: > , # < < : : : K.: < < < 1 : < 3 o "
};
