/* XPM */
static char *result[] = {
/* columns rows colors chars-per-pixel */
"64 64 184 2 ",
"   c #040102",
".  c #0B0504",
"X  c #0C0905",
"o  c #0C0509",
"O  c #0D090A",
"+  c #120605",
"@  c #180706",
"#  c #130A06",
"$  c #190A06",
"%  c #14070B",
"&  c #140B0B",
"*  c #1A0D0B",
"=  c #14120D",
"-  c #1B120D",
";  c #1C190E",
":  c #0F0911",
">  c #140E11",
",  c #1A0F12",
"<  c #151213",
"1  c #1C1313",
"2  c #1D1A14",
"3  c #151318",
"4  c #1C1419",
"5  c #1D191A",
"6  c #210E0B",
"7  c #22130D",
"8  c #29150E",
"9  c #23180F",
"0  c #2E180F",
"q  c #200F11",
"w  c #221413",
"e  c #2A1512",
"r  c #231914",
"t  c #2B1A14",
"y  c #211518",
"u  c #231B1A",
"i  c #2B1D1B",
"p  c #311D14",
"a  c #3A1F13",
"s  c #311D1A",
"d  c #242214",
"f  c #2C2215",
"g  c #262815",
"h  c #24221B",
"j  c #2C211D",
"k  c #262A18",
"l  c #2C2A1C",
"z  c #322115",
"x  c #33221C",
"c  c #3A241C",
"v  c #33291B",
"b  c #3B281E",
"n  c #1E1920",
"m  c #241C21",
"M  c #291E22",
"N  c #301F22",
"B  c #252223",
"V  c #2C2322",
"C  c #2D2A23",
"Z  c #242028",
"A  c #2C2429",
"S  c #2E2A2C",
"D  c #332423",
"F  c #3A2522",
"G  c #342A24",
"H  c #3B2A24",
"J  c #322628",
"K  c #382628",
"L  c #342B2A",
"P  c #3B2C2A",
"I  c #2E3020",
"U  c #333225",
"Y  c #393024",
"T  c #323820",
"R  c #35332A",
"E  c #3C322C",
"W  c #353A2A",
"Q  c #3C3B2D",
"!  c #2E2E30",
"~  c #332C31",
"^  c #3B2D30",
"/  c #363233",
"(  c #3D3232",
")  c #3D3B32",
"_  c #363439",
"`  c #3C3538",
"'  c #3D383B",
"]  c #45261A",
"[  c #43291C",
"{  c #4B2A1C",
"}  c #512E1E",
"|  c #49331E",
" . c #473F1D",
".. c #412624",
"X. c #432C24",
"o. c #4B2D22",
"O. c #422D2A",
"+. c #4B2E2A",
"@. c #443125",
"#. c #4D3125",
"$. c #4D3A26",
"%. c #44322C",
"&. c #4B342C",
"*. c #443A2C",
"=. c #4D392D",
"-. c #533223",
";. c #52352A",
":. c #53392C",
">. c #5D3B2A",
",. c #443432",
"<. c #4A3632",
"1. c #443A34",
"2. c #4C3A34",
"3. c #433639",
"4. c #453B3A",
"5. c #4C3C3A",
"6. c #543632",
"7. c #533C33",
"8. c #5A3D32",
"9. c #523E39",
"0. c #6C3F2A",
"q. c #653F30",
"w. c #434234",
"e. c #4F4136",
"r. c #46433A",
"t. c #4C433B",
"y. c #4D4B3C",
"u. c #544135",
"i. c #5C4335",
"p. c #5C4936",
"a. c #54423C",
"s. c #5B443B",
"d. c #55493F",
"f. c #5C493C",
"g. c #63412E",
"h. c #74452C",
"j. c #644334",
"k. c #684532",
"l. c #664936",
"z. c #61463C",
"x. c #634A3E",
"c. c #6C4D3E",
"v. c #704734",
"b. c #784730",
"n. c #784930",
"m. c #744D3C",
"M. c #3E3C42",
"N. c #443D41",
"B. c #4E3F42",
"V. c #513F41",
"C. c #454445",
"Z. c #4C4343",
"A. c #4D4A46",
"S. c #4F4749",
"D. c #554543",
"F. c #5A4743",
"G. c #544B46",
"H. c #5C4C45",
"J. c #554749",
"K. c #554B4A",
"L. c #5B4D4C",
"P. c #55524F",
"I. c #5E524C",
"U. c #554F53",
"Y. c #5A4F51",
"T. c #5D5954",
"R. c #5C575C",
"E. c #5F5C5E",
"W. c #624741",
"Q. c #644D43",
"!. c #6A4B43",
"~. c #634F49",
"^. c #665145",
"/. c #6B5247",
"(. c #65534C",
"). c #6A544B",
"_. c #745141",
"`. c #70564D",
"'. c #73594E",
"]. c #625453",
"[. c #6C5A54",
"{. c #756259",
"}. c #665D64",
"|. c #6B6162",
/* pixels */
"%.,.X.c c r * & * y G E D j u r j L O.<.<.,.G u B P V B m 3 A 5         . u D V w w s N F D e y 7 F P P H H u i 2 i F x h m V E ",
"V G 2.<.D i o . & * 4 V V u H H P ^ ,.&.6.%.M f c O.L J n n 5 A & o   o i L ,.P h @ 7 6 6 p s t i H 2.&.H O.E V 1 i s F i A V ^ ",
"S G %.%.s & .   O < V h B D %.&.P ,.,.H %.2.4.+.b x L G M > D 7.K u & 1 B ( D D i % # + @ $ * $ c &.&.&.K i i , y R &.9.R D L ~ ",
"5.,.7.9.H , O   & D L u 2 j F c F P x s F O.<.-.-.F j m M 5 y &.L B D G K K , , 1 @ @ 7 6 + . * s F &.;.X.H y O - F P O.D P L 3.",
"D E Q.7.i , i u D D x H < r x c X.F x H H h F { ;.H 2 4 1 1 1 D S A V J P i O & * % 7 i i e # $ i c @.o.F r o . & N H %.%.K G J ",
"H P &.X.i i M H x t F p f s t a ....t j B z F c X.h 2 u M M 3 x H P C D E V , i V - e D p p * + t x [ t @ . . .   & D D D H F N ",
"^ %.<.%.s q i D e x X.X.&.@.s x t y y L P v b F h r 2 3 n M 1 4 O.&.7.t.P i w - i F 7 7 e * @ + 8 i X.c t 7 * O . o y J P O.D D ",
"5.%.H x , * w % $ x u.+.t x w % O . u R @.l D V L h 2 2 L ( L y i F H %.D y 6 * x F 7 - t $ @ @ 7 P H c p p s 7 , O & r i D H O.",
"5.2.2.P M M o   + e s p 6 8 M o . m 4.K.,.G H D h 2 h S ,.) ,.R i j V G H e e t i F y + 7 @ + + - j c p 8 0 6 6 w % . r s F %.2.",
"V <.9.5.9.B.>     . * 7 s F M & m N.Z.Y.4.U <.X.F 3 h L R G J L S K 2.P P x H P P r 7 o o   + + @ i w 7 8 6 @ 8 1 * o F O.X.X.F ",
"V E P ,.4.` y o     * D <.P ( A ~ N.J.U.C.) ^ &.*.G V m J K ( ) t.H.1.L J <.&.O.X.F t u   . * L D D x t p p * # i 1 * D s b F G ",
"V D D A ^ 3.A >   - D D D u & , J _ t.Z.S.4.` ..H C i 3 > m S ) P.D.9.*.E @.[ ;.o.c 0 h 4 2 c ( j G X.x t x - - G i i s w h j V ",
"* & O & & m 5 %   , J q % O . A M A K E 4.` 4.2.u.E V 4 4 5 V G 1.3.1.%.%.o.#.-.-.#.z t u < D P r - # w X.b %.E P H x i y i r u ",
"& . u ,.L 2 O O     o . & 1   m J m L *.t.L K *.Q h 3 o o 4 ,.E E P P K P 7.&.j.;.s.H 7 y , j D w # . . . w D &.%.&.X.O.H t & # ",
"  r X.x t E O.- * 7 + . % 1     , i j h ,.E d d r ; - : o O M j j H P ( E P x F s i u r B 4 i G P x f # . w D F c #.#.;.=.H = X ",
"1 X.x x c D H H <.x - & & K 1 O & H D i H H l ; = O   o & * u i 2.V J <.K V j i B V V M B P K F G i x X.s D s z c o.-.o.@.&.&   ",
"X.&.b c x t t p c %.%.9 & 2 5 u m P ^ V G v d.U d u M n > 1 , u H x u ,.<.2.,.L / L V G V V J D V P G F H F x x p { } o.[ 2.2 & ",
"@.b t t * * - w t b :.2.G x ,.( A ^ ,.j G Q I r.R B m n m 3 4 1 i P M P %.=.a.K.Z.( C D J M i i i j H F b :.#.-.-.{ o.[ %.=.x P ",
"x x t w % # * t f x H p.x.u.[ H P ,.D.G V R h Y 1.L Z A L 1 M D u i K D 7.u.D.K.A.L V i M j D J P F P H o.-.| { { ] z z O.a.j r ",
"D r u t w % 2 H c x H 8.i.:.X.r j G %.V l j k G P J 3 4 4 1 i G u j H i F 7.,.2.3.P P t , j M V ,.2.Y X.X.#.{ { -.} :.[ G H D j ",
"1 ; r t y & - i D F o.&.&.&.c F 7 f H G L h h F x x V B u * u u i D D t s ..,.6.:.&.F x & f u w L %.<.c #.{ { [ { ] o.+.&.G i & ",
"2 1 r j w w u F x K H H i.b t p 0 7 H r j t.R l r u h h D P V u F +.H x i F +.;.=.<.+.p % r c G %.&.Y X.&.9.X.o.p c c O.H ( u < ",
"E P D F i x G %.O.,.O.H [ %.&.s 7 7 c # & u 1.r.) C h 2 & u 1.2.O.:.>.p i P H P %.,.<.e $ 8 t i G %.2.%.5.U.4.%.c c c x A J B P ",
"%.G j F i i i H <.O.P G F %.H t 7 9 6 # * 2 h W r.A.) h 2 = = 3 =.k.} z %.5.D P %.&.6.p + f i x D H &.5.J.B.3.5.<.H M P & . * ,.",
"2.P j G G J i M +.P P <.L D x w * 7 $ # w 9 - d d h V / B ; = < O w p X.2.I.%.j t x O.s $ r v P D P ,.J.V.Z.,.D.D.E y 3 .   C ( ",
"a.t.V - - 4 j H D x G ,.3.P h y ; - . 7 t ; # X   X < 3 5 m h >   . #.:.7.^.H.P D y D x $ t G E ,.2.9.D.J.` 4.,.4.5.L 4 < . 5.t.",
"E ^ ` ) R ^ 9.O.L J %.G 2.N , * - r 9 x h r ; X   . > 4 V 5 5 4 O # :.9.6.5.D.,.f V j G i f I ( 4.a.Z.a.L.K.,.K K O.y O u ( P x ",
"J D S L 3.a.9.D G ,.P %.2.i M J G 9 u F @.v 2 X     & < B u m 5 , [ :.u.i.<.P &.v D x u L j l Q r.r.,.2.%.3.%.E V.4.i ` w.v F G ",
"%.K D N.Z.1.2.J 1.3.` P G ,.2.P Y - V G G i - X = B 1 h R E U & $.>.#.z.i.<.&.=.&.j V J P R %.L L *.1.Q *.W R 1.1.a.a.2.%.*.E x ",
"R ( 9.5.1.` ,.V D %.,.3.3.2.4.P u - J P 1.P = = / V 4 r.Q w.W 2 &.p.j.z.9.7.>.g.7.G E ) 4.P L P E L U R W Q Q y.H.H.u.u.e.a.*.P ",
"1.E E O.D B J i D J D 4.,.4.V 4 % % V i - * 2 C C R E r.1.W T g G e.a.F.D.7.8.k.W.E D P ,.` ,.4.,.R W r.Q ) r.G.).'.Q.i.7.a.1.E ",
"t.D D J M 4 1 y D D i D P ( 4 3 , * * u y 2 2 h 4.1.G R G.w.I T L G P 5.F.l.n.h.c.1.M F V L 5.R r.w.w.) l ) H.H.).^.u.9.:.2.) L ",
"Y.P N D 1 & i J u 5 u V J S L _ L L h ,.L u h ( J.5.G L W U w.r.%.%.<.3.,.>.h.m.Q.Y.3.P i M D E R E r.w.G 1.D.t.a.u.2.=.:.u.C.C.",
"}.^ u u % > B i i H K u Z B S ` C B G k I L S ,.<.%.Q R R d T r.P R P P ;.>.0.j.Q.T.Y.L & % w G t.G.1.) G 1.D.2.5.W.2.1.&.u.L.R.",
"U.4.i u i B L D V M u L _ ' ` ( h k v Y *.I.5.,.J J ( G.r.h l Q E 1.4.:.q.7.-.6.2.Z.S.r.4 o r H <.,.P L Q 5.=.D.(.^.F.2.2.[.F.M.",
"P.J.D i V j P F ^ P E E / _ C.Z.= g Q &.f.).I.a.V.%.,.*.R l w.r.Y 5.Y.p.p.9.%.9.4.,.1.9.G D H D u & h S Y a.D.D.H.L.D.L.1.[.I.S.",
"G 2.2.%.X.%.x H +.O.&.<.P ` G E ; ; v d./.W.f.D.<.2.E ) E l y.T.1.1.r.2.+.%.7.i.2.R K 1.H D i w & = B r h V V E E G ( C.4.H.{.L ",
"H P s.7.&.[ t c o.;.[ @.E P i ,.- d l =.x.s.i.H.F.D.t.t.Q T r.I.|.T.T.' ( =.;.7.%.V S L P w * * 7 2 4 h d j K D i y 4 V ( K 1.2.",
"2.8.&.H X.p p +.o.;.#.@.%.( V E g l l =.8.s.^.'.).(.I.G.Q R P.P.C.P.}.P.A.f.6.:.P V C j j x j z x i < B h G %.2.K V J V D <.u.s.",
"=.=.;.s t 6 H s.;.j.&.7.P R J h E w.I %.:.7.u.Q.^.H.L.K.r.w.r.A.W C.R.E.A.D.c.k.8.L V h P *.@.@.j & O C h %.5.9.%.P J J D <.9.7.",
"%.X.X.H s * r i x F x H P ( R ; Y r.3.#.:.=.7.7.u.D.G.G.a.Y U ) W E G.S.C.I.l.m./.7.H E *.$.Y Y V 2 & L R P 4.D.,.P L u V ,.<.2.",
"H G ,.H y 1 j V j i V x P 1.G 2 %.5.( H ,.,.<.Q.5.4.H.F.9.*.T r.R <.D.J.3.H._.v.l.2.@.*.*.=.u.P D 5 3 ) 1.,.5.a.5.4.P 4 V ,.,.O.",
"D u H x u u B K _ P ( 2.,.%.u 2 E a.a.4.H.H.J.f.D.9.5.I.A.C l l v 2.d.t.,.P ;.q.c.^.p.@.%.@.O.H V 5 u 1.E ,.9.J.J.J.J & j %.%.H ",
"P w V D w u V / C.K.a.=.+.E j X.p.u.[.].(.F.d.a.L.G.G.' V l l G O.%.5.Q.e.c p -.s.x.u.H &.&.:.=.%.5 2 J R ,.9.F.5.,.B & i b O.%.",
"X.P D V u 1 L L G.K.G.i.7.F t 8.9.7.).[.(.J.E R _ M.` S S d *.e.Q.Z.D.W.s.2.@.b F ,.8.V &.&.6.7.K 3 y %.G h X.<.K P > & y t i x ",
"- w y 2 # = V C ( 3.,.2.F - e :.6.6.9.J.F.2.G V ! / Z 3 O ; G a.K.,.<.Q.x.'.u.b +.%.E h P x %.H i > u %.G - w f m J = . O % O w ",
"y r & X . = E %.E O.P X.p * t 7.7.i.,.P a.P P R / ~ B u   5 I t.L.H.K a././.x.=.%.5.( S i 1 y i u 1 & h ; & & & 1 1 ; X O & < i ",
",.2.<.H %.u j F j D O.x i @ i X.s.i.7.P 1.j x i i u w 4 1 I f P F.F.L %.u.^.u.H P E _ B 5 1 w & % & y i i r r # $ & d j i P L O.",
"2.4.4.O.E r D v %.u.%.F 6 & p X.8.=.,.1.D f D h L J i - 5 I h t u.H.,.,.b 9.7.+.J P ~ 5 5 u u - - u P <.1.X.x x F s f  .1.s.<.&.",
"O.%.,.H v 4 & u u V P s * % t H X.X.X.G G u i V _ P P V h I =.#.2.K 3.a.%.%.v x X.E ( R S M u u u m P 4.<.%.%.7.&.x x H H 7.P G ",
"s D P H w & B x i 2 i i - o + & 9 9 t B D w i M i j J B 2 h P P E G ,.,.P F x H H E ( L J A 4 r y u A P <.7.7.+.%.H t * K a.F i ",
",.,.P %.<.x i D +.%.D i - - . # 7 t i L J i y O & 4 y V R T h V E %.5._ R F +.X.c X.L J D j 2 u y u m P 2.O.X.X.z x w w ,.P G G ",
"D ^ P D C F V H s.2.+.y w $ + @ % # 2 4 , i i J u 5 5 5 U U k ! u u ,.3.` ,.9.s.D.t.1.4.a.3.j ,.J u > u L R s F p 7 # & J i i J ",
"V D D x G L D H &.F i w r w 4 r e i i y % , u M V 4 4 m h 5 5 B B 4 G ,.D P O.,.G K ` ,.L O.<.2.i 1 < = > < * < t t o o i w r i ",
"- u w j G D u u j D u w & O & - u D M A M m A u B 4   3 5 < 5 B n & B H P D i J P D V V G H O.X.r i L V L 3.S V P D +   * * % * ",
"7.<.X.D t * o X . . o . # . . . O * 1 , 4 , 3 , 1 & o 3 n < B A m 4 J D D D D H H P G H 3.P H x 6 D 4.3.K.].` ` 5.4 . u D G %.9.",
"`.).[.[.H.D - # p r > & O O & i ^ M i , % . 1 5 O O   o : 5 3 5 Z A K V H F F H %.F F H ^ X.D t t ,.4.^ ,.%.P _ R 1 i D G %.&.).",
"l.x.F.I.G.5.2 t 6.s.5.3.3.^ S P 4.9.7.H t < 4 u 4 O O O O     . > 4 u i D F c c x X.@.H <.P K i i O.,.O.K J A V w 2 P 2.<.s.6.p.",
"8.x.x.&.E E - r H H ^ ,.P N.J ^ B.L.!.8.<.P N M i u i h =         & 1 w e s c [ ..[ F x H H D u F 2.&.,.V.L P ^ < D 9.&.F ;.&...",
";.x.).9.P <.4 i P M J ,.%.J 4 L 3.<.W.j.q.a.,.J ( 3.Y G B m M H 4.P u , * t x X.c b b H L u i E W.^.9.<.3.J G ,.u H X.6.c s ..] ",
";.8.f.s.G i & y D J V R G u & L 9.<.P ;.8.s.2.,.( L v D V / ,.P V u # o % w t z F X.+.L u w y i &.).).u.2.K %.1.i - F u.X.F O.&.",
"| &.W.6.P D , 2 < 1 u K &.v 4 h ,.9...c X.<.<.,.,.D G u u ^ n V - O @ % + - u i t D K V * y i w H ^.~.<.2.L L E i 1 i 2.K j F &.",
"$.X.=.X.j D & X o & D 3.L i 2 x 2.u.6.+.H H ,.3.J m A V ~ Z m m u j H , , q i M i i i y y w 1 w t <.2.3.J M t u 4 D F %.J O.E *.",
"&.%.&.H c 4 . & * 1 R t.E i i u V ,.&.7.&.<.P B h i A B n m S S o < 1 > @ * J P i i t y i D i w - D O.H H H 2 w 2 G h D O.P R @."
};
