/* XPM */
static char *result[] = {
/* columns rows colors chars-per-pixel */
"64 64 181 2 ",
"   c #7B5121",
".  c #9C6330",
"X  c #9C7230",
"o  c #9C6A30",
"O  c #A56A30",
"+  c #AD7239",
"@  c #A57230",
"#  c #A57239",
"$  c #B57239",
"%  c #B57B30",
"&  c #AD7B39",
"*  c #B57B39",
"=  c #B57230",
"-  c #B58341",
";  c #B58339",
":  c #B57B41",
">  c #BD7B41",
",  c #C67B39",
"<  c #C68341",
"1  c #C68339",
"2  c #BD8339",
"3  c #AD7230",
"4  c #6A4921",
"5  c #41280F",
"6  c #8C5128",
"7  c #835128",
"8  c #8C6328",
"9  c #835928",
"0  c #8C5928",
"q  c #836328",
"w  c #8C5921",
"e  c #835921",
"r  c #7B5928",
"t  c #7B5128",
"y  c #725121",
"u  c #725128",
"i  c #724921",
"p  c #724928",
"a  c #725928",
"s  c #634921",
"d  c #513918",
"f  c #634118",
"g  c #7B5118",
"h  c #724918",
"j  c #7B4921",
"k  c #835121",
"l  c #7B5921",
"z  c #835118",
"x  c #7B4918",
"c  c #593918",
"v  c #49280F",
"b  c #594118",
"n  c #41300F",
"m  c #6A4118",
"M  c #725118",
"N  c #72490F",
"B  c #6A410F",
"V  c #59410F",
"C  c #49300F",
"Z  c #51300F",
"A  c #281808",
"S  c #634121",
"D  c #6A4918",
"F  c #724118",
"G  c #633918",
"H  c #39280F",
"J  c #28180F",
"K  c #28210F",
"L  c #30210F",
"P  c #302108",
"I  c #30280F",
"U  c #301808",
"Y  c #302808",
"T  c #392808",
"R  c #392108",
"E  c #39210F",
"W  c #391808",
"Q  c #282108",
"!  c #6A4121",
"~  c #634918",
"^  c #210F08",
"/  c #59390F",
"(  c #080800",
")  c black",
"_  c #080000",
"`  c #0F0000",
"'  c #0F0800",
"]  c #0F0F00",
"[  c #0F0808",
"{  c #180F00",
"}  c #0F0F08",
"|  c #180800",
" . c #180F08",
".. c #180808",
"X. c #8C6330",
"o. c #51390F",
"O. c #211808",
"+. c #281800",
"@. c #280F00",
"#. c #211800",
"$. c #210F00",
"%. c #282100",
"&. c #493018",
"*. c #493918",
"=. c #413018",
"-. c #49390F",
";. c #413918",
":. c #413008",
">. c #724121",
",. c #514118",
"<. c #594121",
"1. c #514121",
"2. c #51410F",
"3. c #39300F",
"4. c #393018",
"5. c #9C6A28",
"6. c #8C6321",
"7. c #594918",
"8. c #72510F",
"9. c #63410F",
"0. c #63390F",
"q. c #AD7B30",
"w. c #7B490F",
"e. c #834918",
"r. c #412818",
"t. c #593921",
"y. c #BD7B30",
"u. c #8C5918",
"i. c #6A490F",
"p. c #935921",
"a. c #8C5121",
"s. c #936328",
"d. c #7B6328",
"f. c #7B6321",
"g. c #725921",
"h. c #6A5121",
"j. c #6A5118",
"k. c #300F08",
"l. c #513018",
"z. c #BD7B39",
"x. c #835918",
"c. c #72410F",
"v. c #412808",
"b. c #9C6321",
"n. c #834921",
"m. c #392818",
"M. c #301800",
"N. c #936321",
"B. c #6A3918",
"V. c #30180F",
"C. c #836321",
"Z. c #412108",
"A. c #63490F",
"S. c #181808",
"D. c #180F0F",
"F. c #21180F",
"G. c #936A30",
"H. c #936A28",
"J. c #936330",
"K. c #493008",
"L. c #7B5918",
"P. c #725918",
"I. c #BD7230",
"U. c #8C6A28",
"Y. c #8C6A30",
"T. c #A56321",
"R. c #AD7228",
"E. c #9C6328",
"W. c #280F08",
"Q. c #A56A39",
"!. c #935928",
"~. c #936A21",
"^. c #9C7228",
"/. c #9C6318",
"(. c #9C5921",
"). c #9C5918",
"_. c #AD6321",
"`. c #A56328",
"'. c #935918",
"]. c #936318",
"[. c white",
/* pixels */
"  . X o o o X O X + O @ # O + O $ % & * = & & * * * * - ; * : * ; ; * * > , < 1 < 1 < 1 > 1 < 1 1 1 1 1 1 1 1 2 2 2 * & 3 @ 4 5 ",
"6 7 8 9 0 0 q 8 w w 9 e 9   e r 9 q 9 9 t t t   y y y u y i p i u u i i i p y u t a t u u y u u r 9 r a a t y y y y y 4 4 4 s d ",
"7 f s s i y y y y g   y y     y y 7 9   t t   g h j j j g g   g k l   k z   g k 7 9 7 9 k     t 9 9 9 9 e k   x i h c v 5 b t n ",
"0 h m h e r k k t k t   7 6 k k k     y   g h x h x M M M M y M y M M g M   z   g M g y   y g j x k j x N B B B B B V C Z     A ",
"8 y m S u s D 4 i i 4 i 4 i y   i i i i 4 4 D x j i y i y i i i i i y h i i y i y i j h g z       l     j D B m m F f c i   h A ",
"8 i G c H J A J K K L P L L I L U L H I Y I Y T T Y Y T Y H I R Y T I E W R R U P P L Q P W L L L H H 5 5 I P U A P L ! y f ~ ^ ",
"3 i / m U ( ) ) _ _ ` ` ' ' ] ' ' ] ' ' ' ' ' [ ' ' ' ' ' ' ] ' ] { [ } | ] { ' ' ] { ] { |  .| ] {  .{  . .....} } J X.p o.D Q ",
"= i m i L  .} { { { ^ ^ O.A +.O.A A @.O.O.@.A A #.O.A O.$.$.A A +.A @.Q %.A J P U P P P P T T T Y R P P P P Q Q A O.P @ t f D A ",
"3   h h P Q L H 5 5 n &.*.d &.C n n &.&.&.&.*.d &.=.C n n C C -.C n n n C C C -.d *.C C ;.;.=.n :.H I L K Q K O.O.^ L # t >.i L ",
"= 9 h D Q L I H 5 n ;.*.d d *.&.C o.,.<.<.<.<.<.1.d d d 1.b d 2.o.d d &.*.d -.-.d d d *.*.*.-.*.=.=.n 3.H 3.H H P A H @ 9 j x L ",
"3 0 h D P I 4.4.5 n n n =.n n n C C *.-.&.-.C C C C *.*.*.-.*.*.*.d / o.o.c d d d c d o./ d o.o.*.d o.-.-.=.=.H H P 5 5.w k g P ",
"% 6.g h P P L I 5 n n n =.n C C &.*.-.C *.*.-.*.=.&.C &.C &.d c c c V b d c o.o.o.b d d d d o.-.d d o./ *.&.C n H T n O 0 k g L ",
"* 9 x h L 5 C -.c d G f ~ ~ 4 4 4 D f f D ~ D 4 ~ 4 ~ s ~ s s 4 4 4 s 4 s 4 S f f ~ ~ ~ S b b b b b 7.7.1.d o.n 5 H n + 8 e e L ",
"% e 8.h A A Q P R H n C o.o./ c d c o./ 9.f 0.f b f b b f ~ f f f m f m S ~ <.b <.G / / d o.d d o.d d *.*.&.d n L A T 3 0 w 9 P ",
"q.w w.F U R H n Z o.b b b f f 9.c b V 9.9.f f f b 9.9.9.9.V f 9.0.G f f f m f 9.b b V f V 9.b f f b b d o.o.2.Z H P n 3 0 w.h P ",
"% w e.h E &.d b f ~ 4 4 4 i p 4 4 4 s D f ~ 4 D 4 4 s ~ ~ ~ 4 s 4 ~ ~ m s f ~ ~ S f f ~ f f ~ 4 f b V / o.o.-.H O.Q n & 8 8.D L ",
"% e h D L P H H 5 =.r.=.=.n =.r.=.C C &.C &.n n n *.d d c b f c c d d d d d b b b d d ,.b t.c d d d C C d &.C 5 I I &.* 8 z   T ",
"y.u.w.i.A {  .O.O.O.O.^ O.O.O.^ O.O.J Q O.O.O.^ O.O.O.O.O.O.O.O.O.O.O.A J O.O.O.O.A K Q Q A A Q Q Q Q L L L J A ^ O.L 3 p.a.t H ",
"* 9 g D H b ~ 4 4 y y   l 9 9 e e 9 9 e 9 k k 9 t               y r l e e l l   i i h   h i i h h g i 4 s ~ b C n n o.* s.g h W ",
"> 7   h H b s S s y r r q q q q q q q q q 8 q q d.r r r r l r d.f.d.e e l r 9 9 r r l r         y r t 4 ~ f b C H T C = s.k h L ",
"% k h h E r.=.n =.b s 4 u r 9 r t r r t g.r r 9 r h.u u t r r r y h.h.h.4 s h.r r r y h.y j.h.g.r r t y ~ f b C L I *.* 8 e z H ",
"= k B m k.A P Y T n *.d c b s s f D D D ~ D i y i D h y y t u y i h.4 u i i i t   9 9 9   l 9 r r r     y D D b l.&.b z.s.x.z H ",
"y.k c.B P Y v.C Z / b b f B f f f f f f f f m D f ~ ~ D D m ~ f f f ~ ~ ~ f m ~ ~ D 4 h h M y 4 ~ D f D D f b V d C d % b.e n.T ",
"z.e g j L Y n &.C 2.b 4 u y u y 4 D D D 4 4 h y M y M y D D j.D i M j.y j.h.y u h.M D D D D D D ~ D f m 9.b d C :.P H & s.e j W ",
"z.e z   I H n C -.b D u t a t u y 4 y y y y y y y y 4 m f 9.f ~ 4 4 ~ ~ ~ ~ ~ ~ ~ f V 9.b V V b f b <.b / o.d ,.-.H =.* s.x.y H ",
"* k g i A  .O.A R &.c S D S ~ 4 y j y y M D j.h.t   t 4 4 i 4 y y t r y   y         l l     r r r r r g.l 4 s <.*.m.=.* . u.  n ",
"2 u.N B M.+.P T n ,.~ y g h x t e k w 8 0 e k   q 0 9   t r 9 l r r 9 9 q 9 w 9 e 9 6.q 9 e 9 r r     y   i 4 ,.5 I 5 * N.g x T ",
"z.x B B.V.A P T 5 o.9.D D D h M g l e 8 w 9 9 e q 8 q 9 9 w 9 e q q 0 9 8 q 0 9 0 9 0 C.9 9 l     y M h h 4 s &.K K C % s.k n.Z.",
"y.g h m P T Z C o.~ D D   g k t   l e e l l k   i   g     r r r r r t M M     r     y     y y i x i y i 4 S b C H 5 d * s.w k =.",
"y.z g D T -.-.H Y o.D D D h D D A.m f m D D D D 9.9.f m f f V f 9.f f G c b f b b V b f f f f b b d d d d d =.5 H I n $ s.  x v.",
"2 u.g x H 5 n I L 5 Z C d &.C C v.Z.T v.5 H H T H Y H v.H L A A A A A A O.O.O.O.#.#.O.A A A A O.O.O.A O.O.O.O.^  . .L 3 N.z g T ",
"y.z g x I S.D. . . .S. . .^ O.O.O.O.O.O.O.F.J Q Q Y H =.n 5 H =.*.*.o.b d <.b b f i u t u     y y u     y y i ~ ,.,.S * b.  y T ",
"y.e g h E 5 *.o.d d b f ~ D i M l 9 e C.8 0 8 G.8 H.s.s.8 s.0 8 s.8 8 8 G.o s.X.8 s.X.J.8 8 s.8 0 8 8 9 e r h.<.H 5 <.* w k k 5 ",
"y.u.w.B P Q 3.K.Z Z 9.f ~ D m D h w w 6.s.8 w w e 8 s.8 w w e q s.0 k 9 9 0 e 9 9 8 q 8 q 6.0 e 9 w q 9 e y =.H J A H q.p.k   H ",
"* 9 g D L Q T n &.&.V s 4 u y u y   l e 8 w 9 9 e q 8 q 9 9 e q 8 q 9 9 w 9 e q q 0 9 8 q 0 9 0 9 0 C.9 9   o.n T P H * s.g h W ",
"> 7   h H d b 1.<.4 y r r r 9 d.9 r l 9 e 9 l e t i l L.l e t j   L.  l r r r q d.r M P.r l r l r t t   y i ~ C Y Y C % s.k h L ",
"% k h h E r.=.n =.b s 4 u r 9 r t t r t g.t r 9 t 4 u y t r r t y h.4 h.4 s h.r r r y h.y j.h.g.r r t y ~ ~ b C L I *.* 8 e z H ",
"= k B m k.A P Y T n *.d c b s s f D D D ~ D i y i D h y y t u y i h.4 u i i i t   9 9 9   l 9 r r r     y D D b l.&.b z.s.x.z H ",
"y.k c.B P Y v.C Z / b b f B f f f f f f f f m D f ~ ~ D D m ~ f f f ~ ~ ~ f m ~ ~ D 4 h h M y 4 ~ D f D D f b V d C d % b.e n.T ",
"z.e g j L Y n &.C 2.b 4 u y u y 4 D D D 4 4 h y M y M y D D j.D i M j.y j.h.y u h.M D D D D D D ~ D f m 9.b d C :.P H & s.e j W ",
"z.e z   I H n C -.b D u t a t u y 4 y y y y y y y y 4 m f 9.f ~ 4 4 ~ ~ ~ ~ ~ ~ ~ f V 9.b V V b f b <.b / o.d ,.-.H =.* s.x.y H ",
"* k g i A  .O.A R &.c S D S ~ 4 y j y y M D j.h.t   t 4 4 i 4 y y t r y   y         l l     r r r r r g.l 4 s <.*.m.=.* . u.  n ",
"2 u.N B M.+.P T n ,.~ y g h x t e k w 8 0 e k   q 0 9   t r 9 l r r 9 9 q 9 w 9 e 9 6.q 9 e 9 r r     y   i 4 ,.5 I 5 * N.g x T ",
"z.x B B.V.A P T 5 o.9.D D D h M g l e 8 w 9 9 e q 8 q 9 9 w 9 e q q 0 9 8 q 0 9 0 9 0 C.9 9 l     y M h h 4 s &.K K C % s.k n.Z.",
"y.g h m P T Z C o.~ D D   g k t   l e e l l k   i   g     r r r r r t M M     r     y     y y i x i y i 4 S b C H 5 d * s.w k =.",
"y.z g D T -.-.H Y o.D D D h D D A.m f m D D D D 9.9.f m f f V f 9.f f G c b f b b V b f f f f b b d d d d d =.5 H I n $ s.  x v.",
"2 u.g x H 5 n I L 5 Z C d &.C C v.Z.T v.5 H H T H Y H v.H L A A A A A A O.O.O.O.#.#.O.A A A A O.O.O.A O.O.O.O.^  . .L 3 N.z g T ",
"y.z g x I S.D. . . .S. . .^ O.O.O.O.O.O.O.F.J Q Q Y H =.n 5 H =.*.*.o.b d <.b b f i u t u     y y u     y y i ~ ,.,.S * b.  y T ",
"I.e x h E n *.o.d d f 4 D i y   e 9 9 q 9 0 8 G.U.H.8 s.8 8 0 8 s.8 8 8 G.o J.X.8 s.X.J.0 0 8 9 9 9 9 9 l r a <.H 5 <.* p.k a.v ",
"3 x.e.h E o.o.o.s i     l 9 9 9 q 8 X.Y.q 0 9 0 q 0 q 9 l l r l 9 9 q 9 r r g.r a r g.g.M D i D h.j.j.4 s S b o.T Y &.* b.w w v ",
"$ w k h H 5 L H b ~ 4 h y u y t t r u t y D 4 i y t t M 4 4 4 j.i y t t h 4 4 D 4 D 4 i 4 4 i i D D 4 D f f b o.v.R n * T.u.e v.",
"3 e z h T H T :.C d <.f f b <.f f ~ D ~ s s m f ~ D 4 4 4 D h.y y y i j.D i h 4 i M M   y j   t   h h y ~ / C :.H J L & b.k k v.",
"R.w x f I H n Z o.b s ~ ~ f 4 4 9.m h i g.y y M y h h h h i   y M h 4 j.h   y y y   l   D 4 i s f V 9.b C K.H I K A L * 5.k   H ",
"q.N.x F H Y 5 Z *.b S 4 4 h g k M j j   l e e e e z z g g i g h F m m B f S f b b b b b b b f V b b d o.d &.C n T P H * E.k z T ",
"* E.k h 5 K H n *.f ~ D 4       t t i h y y y y 4 ~ f f f <.f f f ~ s m D 4 4 D D D D h.s ~ m D 4 D 4 ~ ~ b / &.v.H H $ E.z x H ",
": E.  h H J P I H &.C C d c b f S f f f b f b 7.b b <.s s <.S ~ 4 s s ~ D h.4 s s f D 4 ~ f f f <.b b o.o.-.=.H U A L % s.e.x v.",
"3 s.h B T U P H 3.=.*.o.o.c b <.s s b b V V V 2.b b <.b c V / o.d *.&.*.o.o.d d *.&.-.d &.*.d *.*.&.=.n n H m.I Q O.L & s.F D 3.",
"q.9 / 0.v.P K I H n =.C C n =.n *.d d d C C -.d d ,.d C C C &.=.5 n Z &.=.n H H H 5 H 5 5 5 H H T E R L L J J O. .] O.J.s.0.9.H ",
"s.i n C H J A A L H m.r.=.=.=.&.=.&.=.&.r.r.=.=.&.C v 5 n =.=.=.v C &.&.=.r.H H H 5 5 5 5 5 5 H 5 r.5 H E L P K A W.A i 0 i m P ",
"@ 9 b 4 t . X O O o Q.# + + + + + 3 + + 3 + 3 + $ $ + + & * * & * * * * * = 3 @ @ + + + 3 3 + + $ $ * * + + 3 # @ # o 9   e   5 ",
"g h 4 i i a.s.E.8 0 w 6.8 s.p.!.w 8 w s.s.s.s.s.p.s.s.E.E.E.b.E.s.s.s.s.o 5.5.E.E.b.s.s.o 5.o o 5.5.H.5.~.N.H.H.H.N.w f C m e f ",
"h i i c l.f w b.N.b.b.E.E.b.b.N.N.E.5.E.5.5.s.b.b.H.^.5.5.E./.(.).)././.b.T._.E.`.b.'.w E.5.E.b.p.].u.w a.z a.z k e.D Z 5 C f D ",
"b S ! f b b 4 y e 8 w 8 w N.N.N.N.b.5.s.N.b.w 6.p.. O o 5.s.6.s.8 s.s.s.s.w ).p.b.b.b.p.).'.a.z h   g g M g e x.e g x D f C Y H ",
"t.&.=.n =.5 =.=.&.=.n =.C &.C &.&.&.&.&.&.-.&.-.&.&.l.=.d *.*.*.*.d d d d d d d *.,.,.d c c d *.&.*.*.*.*.&.d d d *.*.*.*.=.Q ] "
};
