/* XPM */
static char *result[] = {
/* columns rows colors chars-per-pixel */
"64 64 42 1 ",
"  c gray25",
". c #484848",
"X c #505050",
"o c #565662",
"O c #606070",
"+ c #585858",
"@ c #606060",
"# c gray44",
"$ c #686868",
"% c gray47",
"& c #76768A",
"* c #858593",
"= c #808080",
"- c #888888",
"; c #909090",
": c #8B8B9D",
"> c #8D8D8D",
", c #979797",
"< c #9B9B9B",
"1 c gray60",
"2 c gray58",
"3 c gray62",
"4 c #9F9F9F",
"5 c #A2A2A2",
"6 c gray65",
"7 c #A9A9A9",
"8 c #A5A5A5",
"9 c #AEAEAE",
"0 c gray69",
"q c gray70",
"w c #B7B7B7",
"e c #B4B4B4",
"r c gray72",
"t c gray74",
"y c gray68",
"u c gray59",
"i c gray76",
"p c #6A6A7E",
"a c gray75",
"s c #BBBBBB",
"d c #4B4B55",
"f c white",
/* pixels */
" .XXXX.XXXXXoXXXoXXXoXXXXXXXXXXXXoOXooXXXXXoXX+X+oXXXoXXXX+XX+XX",
"X@#$##%&*&%$#%%$$$$$$$$&&&%%%&*&%$#%##$$$$$$$$#$$$$#####&%%#%%#+",
"+$%#=%%&%&%%%%%%%%%&%&%&&&%%%&%&%%%%%%%%%%&%&%%%%%%%&%&%&%#%==%@",
"X$%------------;;-;:::;---------------;;-;:::;-;;;-;:::;--=--=%+",
"+#%->,<,,,,,,,1,,,,,,,,,,,,,11,>><,1,,,11111,,,,,,,,,,,,,1,>-=#O",
"X$%-2><<<<<<3<<<4<3<<<<3<<<331>11>1<<<<<3<<<<<<<<<<<<<<<<1>,-%$+",
".$%-,<><335333333333553555551>1331>1333533533333333335331>1,-%%X",
"XO&-,<<><3355555666766566851>158851><5876666655555558331>1<,-&&+",
"XO%-,<3<><3355677777765578<>1587785<><58777665555755331;1331;%$+",
"XO&-1<33<><33567777778778<><58777785<><58777888877783<;1333,:&$X",
".$%-1<333<><355777777853<><5877777785<><5877779777831;<3353,:%$+",
"X$%-,<5834<><5877778765<><587777777785<><58799779851>13353<,:&$X",
"+$%-,<35533<><58777785<><587799997777853>359977788<>1<5553<,;%$+",
"X#%-,<355533<><587785<><5879997799977985<>3599785<><558873<,-%$+",
"+#%-,35555685<><5885<><8699997777779977853>35765<><5878883<,;%$+",
"+$%;,<58577785<><53<><869999979979999999853><383;<58777853<,;%$+",
"+$%;,<387777785<><1;<8690999979777799799785<>3<;3887778653<,;%$+",
"+$%-,<3677777783<>;157700000q0q7997999997788<>>38877777663<,-%$+",
"+$%;,<36777777631;>58600q0qqqq0qq970000979833>>14677777763<,;%$+",
"X$&:,<3777777684,542488q9qqqqqwqqeeq0000q684><<;3889777773<,:&$X",
"+$%:,<577777684243552487q0qqqq0ee9qq0007653>3883;<48777778<,:%$+",
"X$&:,<577778532339784245777777777777778783><8668<;<5697773<,:&$X",
"+$%;,<577785<2337007652556866666555555663>3879968<;3567763<,;%$+",
"+O&-,457785<,45779007652344343444443333<,3590099683;<58763<,-%$+",
"+O&-,<5785<,45779900066322>22>>>>2222222477qq009965<235863<,;%$X",
"+O&-,3883<2457777990q7742999999999979992467qq0009965<2<555<1;%$+",
"X$%-,334<23569777900077429rrtttttrewwwy,3670000099983<u135<1-%#+",
"X$%-,<3<,35877779q000774>9tttttittrrrte,36700000099785<2134,-%#+",
"X$%-,<<,356777799qq0q774>qtttiiiittttt02467090000997785<2<<1-%$X",
"+p&-,<,<387777799qqqq765>qttiiiiiitttt02467q9009777777851211-%@+",
"+O%-1><4577779799qqqq783>qtiiiiiiiittt0>4670e009977777785<2<-%$+",
"+O&-><357767799900000785>qtiiiiiiiiittq>477qq000997777778312-%$X",
"X$%-><357867700900q00785>qtiiiiiaiiistq>4779qq0009977977831>-&O+",
"+$%-,>155887909000q0q784>qtiiiiiiaiittq>47700q00999777785<;,-%p+",
"+#%-,1;<58779000qq00q765>qtiiiiiiiiiitq>4670000097777785<>1,-&p+",
"X%%-,<1;<8879000qqqqq775>qriiiiiiitiite2577000009777783<><<,-%$X",
"+#%-,<4<;<4599900qqqq774>9ttiiiiittttrq246700000999785<;<3<,-%$X",
"+#%-,<33<;<56999000qq763>7ttttttrtttreq23670990099785<;<43<,-%$X",
"+$%;,<533<;356999900e753>8qqqqqqq000099246709900996532<553<,-&O+",
"X$%;,<5553<;3569999998643333uu>>>>>>222>468999q9968<2<5885<,-&p+",
"+$%-,<56654<;<86999966434445444444343355>66700996832<58775<,-&O+",
"+$%;,<5667853;33699664u436666666667677533;6670968324587763<,;%$+",
"X$&:,<55677553;<86684>46777777777777777863;66768<2<5877663<,:&$X",
"+$%:,<35877854<;<554u4670000000000e00000763;65532<58777663<,:%$+",
"X$&:,<3867788853;<3u456009999000000099900653253,<587776653<,:&$X",
"+$%;,<35877777531>;<5760009999999999999999633;;<3877777753<,;%$+",
"@%%-,<3557777683<;><569909999999999999999965<;><3877777883<,-%$+",
"+$-;,<3588777831u1<>357799999777977799999684233;<587778853<,;%$+",
"@$%;,<558867831u1331>357999997779997999788324553>338778553<,;%$+",
"+$%;,<38555331u135853;<57999999999977998532<5875<><3888555<,-%#+",
"+$%-,<35553<,u1336874<;<57777777977779533;3587778<><488883<,-%$X",
"+$%;,<3553<,u1335587733;3577777977977853;<58777778<><35883<,-%$+",
"X$&:,<383<,;13355878653<;35677777777533><5877776763<;<3583<,-%@X",
"+$%:,<53<<;1335556775573<;357777777853><387777777785<;1453<,-%$.",
"X$&:,<3<<;138855557766575<;<37777785<;<387777776666531><<3<,-&OX",
"+$%;,<<1;135585555666677733;<577785<;<38766787776665331>13<,-%OX",
"+&&-,<<;1355555555555567783<;<3883<;<356655665665555533<>1<1-&OX",
"X%%-,1;133333333333333353585<;133<;1333533533533333333331;1,-%@.",
"+##-2;1<<<<<<<<<<<<33<<<<<<<<1;11>1<<<<<<<<<<<<<<<<<<<<<<12,;%$X",
"X#$=;,,,,,,,,1,,,,,,,,,1,,,,,,2>>,,,,,,,,,,,,,,,,,,,,,,,,,,>;%$.",
"+$#=-----------;;-;:::;---------------;;-;:::;-;;;-;:::;-----#$.",
"X$$%%%%&%&%%%%%%%%%&%&%&&&%%%&%&%%%%%%%%%%&%&%%=%%%%&%&%&%%%%%$.",
"X+@@@@@OOO$@$##$$$$$$$$OOO$$$pOO$@$$$$@@@@@$@$#$$$$$$$$@O$@$$$@.",
"..X.d.......d.XXdXXXoXXXXXXXXXXXXooXooXXXXXoXXXXXoX+XoX++Xo@++X."
};
