/* XPM */
static char *result[] = {
/* columns rows colors chars-per-pixel */
"64 64 39 1 ",
"  c gray50",
". c #7E7E7E",
"X c #808080",
"o c gray51",
"O c #818181",
"+ c #7C7C7C",
"@ c #838383",
"# c #848484",
"$ c gray49",
"% c #8B8B8B",
"& c gray55",
"* c #8D8D8D",
"= c #626263",
"- c #666768",
"; c #6B6C6D",
": c #707172",
"> c #757677",
", c #8E8E8E",
"< c gray56",
"1 c #909090",
"2 c gray57",
"3 c #929292",
"4 c #939393",
"5 c gray58",
"6 c #959595",
"7 c gray59",
"8 c #979797",
"9 c #989898",
"0 c gray60",
"q c #9A9A9A",
"w c #9B9B9B",
"e c gray61",
"r c #9D9D9D",
"t c gray62",
"y c #9F9F9F",
"u c #A0A0A0",
"i c gray52",
"p c gray53",
"a c white",
/* pixels */
" .X oX .XXO+Oo O+O@O o  XXoO  @.oOO O@#Oo. O$.O.XoO@  o@      .O",
"o%%%%%%%%%%%%&&&&&&&&&&&&&&&&&&&&&&&&&&&&&&&&&&&&&&&&&&&&&&&&&&O",
" &&&&&&&&&&&&&&&&&&&&&&&&&&&&&&&&&&&&&&&&&********************&O",
" &*==========================================================*&$",
"o&*=--------------------------------------------------------=*&.",
".&*=-;;;;;;;;;;;;;;;;;;;;;;;;;;;;;;;;;;;;;;;;;;;;;;;;;;;;;;-=*&O",
"O&*=-;::::::::::::::::::::::::::::::::::::::::::::::::::::;-=*&O",
"X&*=-;:>>>>>>>>>>>>>>>>>>>>>>>>>>>>>>>>>>>>>>>>>>>>>>>>>>:;-=*&X",
".&*=-;:>>>>>>>>>>>>>>>>>>>>>>>>>>>>>>>>>>>>>>>>>>>>>>>>>>:;-=*&O",
"O&*=-;:>>>>>>>>>>>>>>>>>>>>>>>>>>>>>>>>>>>>>>>>>>>>>>>>>>:;-=*&o",
"X&*=-;:>>>>>>>>>>>>>>>>>>>>>>>>>>>>>>>>>>>>>>>>>>>>>>>>>>:;-=*&o",
"O&*=-;:>>>>>>>>>>>>>>>>>>>>>>>>>>>>>>>>>>>>>>>>>>>>>>>>>>:;-=*&+",
"X&*=-;:>>>>>>>>>>>>>>>>>>>>>>>>>>>>>>>>>>>>>>>>>>>>>>>>>>:;-=*&X",
"X&*=-;::::::::::::::::::::::::::::::::::::::::::::::::::::;-=*&.",
"$&*=-;;;;;;;;;;;;;;;;;;;;;;;;;;;;;;;;;;;;;;;;;;;;;;;;;;;;;;-=*&O",
"o&*=--------------------------------------------------------=*&X",
"X&*==========================================================*&O",
"O&**,,<11233455667777777777777777777777777777777655443221<<,**& ",
"o&*==========================================================*&@",
" &*=--------------------------------------------------------=*&X",
" &*=-;;;;;;;;;;;;;;;;;;;;;;;;;;;;;;;;;;;;;;;;;;;;;;;;;;;;;;-=*&o",
" &*=-;::::::::::::::::::::::::::::::::::::::::::::::::::::;-=*&.",
" &*=-;:>>>>>>>>>>>>>>>>>>>>>>>>>>>>>>>>>>>>>>>>>>>>>>>>>>:;-=*&o",
"X&&=-;:>>>>>>>>>>>>>>>>>>>>>>>>>>>>>>>>>>>>>>>>>>>>>>>>>>:;-=*&X",
"o&&=-;:>>>>>>>>>>>>>>>>>>>>>>>>>>>>>>>>>>>>>>>>>>>>>>>>>>:;-=*&o",
"O&&=-;:>>>>>>>>>>>>>>>>>>>>>>>>>>>>>>>>>>>>>>>>>>>>>>>>>>:;-=*&O",
" &&=-;:>>>>>>>>>>>>>>>>>>>>>>>>>>>>>>>>>>>>>>>>>>>>>>>>>>:;-=*& ",
".&&=-;:>>>>>>>>>>>>>>>>>>>>>>>>>>>>>>>>>>>>>>>>>>>>>>>>>>:;-=*& ",
"$&&=-;::::::::::::::::::::::::::::::::::::::::::::::::::::;-=*&O",
"O&&=-;;;;;;;;;;;;;;;;;;;;;;;;;;;;;;;;;;;;;;;;;;;;;;;;;;;;;;-=*&o",
"X&&=--------------------------------------------------------=*&X",
"o&&==========================================================*&O",
"o&&*,,<1122344566788990qqweerttyuyttreewqq0998876654432211<,,*&X",
" &&==========================================================*&X",
"O&&=--------------------------------------------------------=*&O",
" &&=-;;;;;;;;;;;;;;;;;;;;;;;;;;;;;;;;;;;;;;;;;;;;;;;;;;;;;;-=*&O",
".&&=-;::::::::::::::::::::::::::::::::::::::::::::::::::::;-=*&o",
"o&&=-;:>>>>>>>>>>>>>>>>>>>>>>>>>>>>>>>>>>>>>>>>>>>>>>>>>>:;-=*&o",
"O&&=-;:>>>>>>>>>>>>>>>>>>>>>>>>>>>>>>>>>>>>>>>>>>>>>>>>>>:;-=*&X",
".&&=-;:>>>>>>>>>>>>>>>>>>>>>>>>>>>>>>>>>>>>>>>>>>>>>>>>>>:;-=*&o",
"O&&=-;:>>>>>>>>>>>>>>>>>>>>>>>>>>>>>>>>>>>>>>>>>>>>>>>>>>:;-=*&o",
"X&&=-;:>>>>>>>>>>>>>>>>>>>>>>>>>>>>>>>>>>>>>>>>>>>>>>>>>>:;-=*&.",
" &&=-;:>>>>>>>>>>>>>>>>>>>>>>>>>>>>>>>>>>>>>>>>>>>>>>>>>>:;-=**.",
"X&&=-;::::::::::::::::::::::::::::::::::::::::::::::::::::;-=** ",
".&&=-;;;;;;;;;;;;;;;;;;;;;;;;;;;;;;;;;;;;;;;;;;;;;;;;;;;;;;-=**O",
" &&=--------------------------------------------------------=**o",
"O&&==========================================================**#",
"i&&**,<<12234455677777777777777777777777777777776655433211<,,**.",
"o&&==========================================================**.",
" &&=--------------------------------------------------------=**O",
".&&=-;;;;;;;;;;;;;;;;;;;;;;;;;;;;;;;;;;;;;;;;;;;;;;;;;;;;;;-=**X",
" &&=-;::::::::::::::::::::::::::::::::::::::::::::::::::::;-=**O",
"$%&=-;:>>>>>>>>>>>>>>>>>>>>>>>>>>>>>>>>>>>>>>>>>>>>>>>>>>:;-=**X",
" %&=-;:>>>>>>>>>>>>>>>>>>>>>>>>>>>>>>>>>>>>>>>>>>>>>>>>>>:;-=**$",
"X%&=-;:>>>>>>>>>>>>>>>>>>>>>>>>>>>>>>>>>>>>>>>>>>>>>>>>>>:;-=**X",
"O%&=-;:>>>>>>>>>>>>>>>>>>>>>>>>>>>>>>>>>>>>>>>>>>>>>>>>>>:;-=**X",
"X%&=-;:>>>>>>>>>>>>>>>>>>>>>>>>>>>>>>>>>>>>>>>>>>>>>>>>>>:;-=**@",
"o%&=-;:>>>>>>>>>>>>>>>>>>>>>>>>>>>>>>>>>>>>>>>>>>>>>>>>>>:;-=**O",
"$%&=-;::::::::::::::::::::::::::::::::::::::::::::::::::::;-=**O",
" %&=-;;;;;;;;;;;;;;;;;;;;;;;;;;;;;;;;;;;;;;;;;;;;;;;;;;;;;;-=**$",
".%&=--------------------------------------------------------=** ",
"O%&==========================================================**o",
"O%&********************&&&&&&&&&&&&&&&&&&&&&&&&&&&&&&&&&&&&&&&& ",
".ooO#.O XoooX@X@@OX@+.OOXop+O$X.  XXXO$ @.OXX$.... oiX.  OOo$o  "
};
