/* XPM */
static char *result[] = {
/* columns rows colors chars-per-pixel */
"64 64 63 1 ",
"  c #4E4F4C",
". c #51524E",
"X c #555553",
"o c #585757",
"O c #575857",
"+ c #5A5956",
"@ c #555758",
"# c #575858",
"$ c #5C5C5C",
"% c #605F5E",
"& c #5F605F",
"* c #61615E",
"= c #5E5E60",
"- c #625F61",
"; c #5F6161",
": c #636463",
"> c #696766",
", c #676867",
"< c #696966",
"1 c #676769",
"2 c #696769",
"3 c #676869",
"4 c #6C6C6B",
"5 c #706F6C",
"6 c #6F706F",
"7 c #72716E",
"8 c #6F6F70",
"9 c #706F70",
"0 c #6F7172",
"q c #747473",
"w c #787775",
"e c #767876",
"r c #797976",
"t c #767778",
"y c #797778",
"u c #767979",
"i c #7C7C7B",
"p c #807F7E",
"a c #7F807F",
"s c #82817E",
"d c #7D7E81",
"f c #7F8081",
"g c #848483",
"h c #888785",
"j c #878886",
"k c #898986",
"l c #878788",
"z c #878989",
"x c #8C8C8B",
"c c #908F8D",
"v c #8F908E",
"b c #91918E",
"n c #8E8F90",
"m c #8F9090",
"M c #939492",
"N c #999694",
"B c #979895",
"V c #999996",
"C c #9D9C9B",
"Z c #A09F9C",
"A c #9FA09D",
"S c #A1A19E",
"D c #A3A2A1",
/* pixels */
"ggjzcxxcckbvsssspwrp77VVNNNBcN7lipgggfSSNNeqVBSCCZVSkxDSASDDbb57",
"ggjjkbxskkvvssasrrprw7NSNNBNNNpkggglifCSCVrwMNSSCZNNjxASVCDSbb74",
"q0ifwr7wsasjaa<<5777*>ssxxkxxxgzxkryqqkvghqqggccxkNbarBmxzxxgg%$",
"qqfiawqwasss7a7<57qq**scsxxszzgnxjii57xxgg64gshkxcvbuimBzxxxkk$+",
"ueiieqrrjskkssaa454<$%gjcxkhkxzzxhiwwwxcgj44sskkbbMveiMBxMxcfg$%",
"&$::$$:*<<q6*<&&4>:;*%217475000qq5%-+$qq::0qsgkxvvbbarBmnnMxgg$-",
"&%:,$$$$55<<**4,$$+$4<wyww756034wq11$$4q1:45ssxxvbvxeqmmznxvss%$",
"ewiiqeeusskssaaaqqwwggxcxcxxjzgzxkffwwxxgg45psxxbbbxqevvzzkxhs$%",
"auaauq46ssrsrari477qrifgfpgfifigfgii21dfdp99gkccxxll88Mmmnxndg$%",
"uuaauq00asaaaruu44rwiigggppipgssfgii24fggd9qggcMmnln80nnnnxxsg$%",
";;;;;&@$&&**:*$*$O:$$$$$$$$$::$&$#$----22:--::2>12:1180t8qq4>2%%",
"::;;;;$$&+&***$*$$$$$$$$$o$$-:$$##-$--2-:-22%$212:1118qq0774<:$$",
"mBCSBVMMwiNNxbxxcxNMxxpgrrMMNAVZCVDDZCCCnx::ytkgghkxxxMMxcgxia$$",
"BmACVVBMiwMNbbxxccMNcxiprwMcAASSCCDDZCZZcx::ydkjgkxkvxbxxxxlrr$$",
"zjzzjkkk22kksssspsxcghqq5>hhccNNMMnMMMbMfg:-dikkjkjxkkxxxxlxdd;$",
"gzzzxkxh::kksgsspsxxss57>:hpcbNVMNMMnnbblg:=iijkjglxxkxxlxlnud:;",
"iuffzzii**sssirisiggppq44:kkbbbbBBMmxmnzzg&$rrpipsiigfiadidfdi-$",
"iifixgid**ssssgiiaghppq4,*kjxxbbMBBMmznvzj::rrisssiifidfffggif$%",
",,448q4444ww474q:47744=$++shcxkxbvvxzjggai$:#$*:$$$&$==;;:=$$$$o",
";:46804444qw77q4:4558q=:&&xhxcxxMxvmzzfgai%$#$:*$$$*==;=;;$$$$O$",
"CCAAmvxzxxvb<<fiewwirr1:4*xxcnxlxxMbvvxzgz47digg44xcMxBBVVMNBBCC",
"AVACvvxxkxbb<:pgr7ritw4,*:bxcxzxxxMbvvzvzzq7iijd4qxxmMMNVVBNVNAC",
"xjkxkgxgjxcx::ifrwqw7q04<>qwrqqr77weai0q44,,iiaswqjjxjkjxxjjxlgl",
"xkkkggjjkxxx::iitqqwq744<<q7wwqw77eeuuqe<44,rrsjqqjgjjjkxxjgjjll",
"xjggllflfkgg::tqq8riaa7q*:vjxxMNbxxMxmvxjj;&6qrw74rrw7prjjgjjzzj",
"xjggflglgfgg%-qt0qriarq7*,vjxlxMxkbbxnmmjj$&7qww44rrwwrpggljzlzz",
"zgzfldfgfllg11ytt9dirs76::vvxnxxnnMMMBMvaaOO44:<*&77wwprfigfzgxm",
"zffjlglgflfg41tt9qiiasq4::MvnxxxxnbMMBMMagOO::46**7qqwrragidzgnz",
"zfxjjjlxnnMnt9xxxlbbNbew::vxxvgfpffdxzggqeX.7rar7qsshxccbbbxxxzz",
"zdxjgglxnnnMtyxzxxNNbNaa,6cxvvffpgrizzglauXXr7raw7sshxbcxbxxnxxx",
"=$$$==:;24:1::11:>****<<::7q::&;$%XX$=:=+O++.+ ...**%*:::&:$*:$#",
"$:::=$:122-:8-1154>**44*;:6664$;$$O@$$:1X&++.+. ..++**%::::::::$",
"gdgjssCZVC7qNNSSSCCCSASSCZDDcc55gkxzxvxxxjvcssara7sakcNNbNNNNN7h",
"iglgaiZZCVrrNNZZVCABSSSCCCDZbb44gpzzkxhxjjvcssra7aaakxNNbNBBbNsx",
"xxir7qxxgg76ssccxxMnMMmBxxcxkh$:qqiirr7qjajsaa*<77<5sphskckjxkjx",
"xxir44xxshwqhskkccmMMMBBxxkxgk$:qwfiraw7aassaw<57575ssskkkkjxkgx",
"55*%%$5y<,46shxkbbMbmMMBnMxxgg*$$&::$+**<<7733;;.+.+**5>5444808t",
"q7*$$$wr<<q0sskkbxvMMMMMMxnxss%%&&:;+&**<*7634:;....*+<<44880q4t",
"nxsdqyxzgf44:>4qwrqwuquut0wq><$%qrgarewqskasaaggs7r7scbbccxxzzfz",
"nxigqwxjgjq4::0qeirrt0ut00tw>:%$wwifrewrkkssaifg55rrssbbcclgzngz",
"ggid44dfff99llccvkxxxnnnmnxxgg*%utri0u36iraasrui54wqpiggjgpiigpg",
"fgif49ffdfy9llxcvxlxzxnnxMxxgg%%wuifuu04ariiiiru4<qqrifgggppdfig",
"$#---->-1:::yygpaigfglnnxkgkgg$$::::;$@$%$:::*%%OO$:$$%$$$o$-:$-",
"$@==-->2:1::yippgggflgnnxkhhsg%*;;;:;;@$$$::*%%%$$-=$=$$#o$$:--=",
"VCDDZZCCxm1:iughggxznnnnccxhit$$MmACBBBMcbMNrwxxcxbNcxsswrNbCDCZ",
"CCDDZZCZxx::irkhggxxlxxxxxxxii$$BBCCBBMMbbBMqwcxxxbMcxsswwcbCZCZ",
"MMcbNNcngg;:iijjkgxxjxxxznxzdd$;zgznxjgjgskk:>psspbxgh574>ggbnNB",
"VMcMcccbgg::iikhkxjjxxxxlnlgdd=:ggnzjjjjggkk2>rsssxxgkq74>hkcxMV",
"VMBMxmzzzz&&iigiasapssfigdggii$$iiffxzaairss:2iiiikgifq8:3khbbbb",
"MMMMvvnzzz&;ergsaaaragiffdggid=$iufdlxiarish::iiiskgip993:hkbcbb",
"nxnzzjffia&;$$*:$&+&&$:;:=$$$$@$::44q83344rr57q8*25584$&$$jhxbxk",
"nxnxxjggaa&&O$:*O$$&$$==::=$$$O$*,844q6344rq779q>2qq4q;:O$jkcckk",
"q9prqrq04<4qiijgq6kxvMMMVBBBCCCACBAAbvvkkkbbggpi7wrirw,,,>w77w7q",
"qqrrwr004444iigjqqxvvMMNVVBNVCAVVCAAbvxxkkbbggip7qirww44**q7q75q",
"xxcbvmxzjg14iigiqqjjkxsclzgxjjllxjxzgsxjxkvbpiddrrwqqq4,4<xxbxcc",
"kxbbMmvvkg:4yrggq7jjkjxsnxljgjjlxjxlsgxkxxxviiiyywqqqq44<<xxbxMc",
"xxvmxnxMjg&;O$**+.**&&**,4430q3874443348112:::$$@$***:O$**xjzjxN",
"xxbMnxMMll$$+O**++**&+**444300447<383343442<*===@O****$$,:xxxzMM",
"xnmvmBmmsa##,,*4**77r7swaafdjzlnldlglgflldffjgqiq9iias67::vvnxlx",
"xxmMVMMMif#$*,<><*7awwrsagdfggxxxdfgzgggfglgggyi98srrsq7;:vvxxxx",
"gfidzxggirXXrrrrw7sshhcxvcckxckkzdljljlxnnMnvvkkkxbbbbar4:vbnxgg",
"giiixlldwrOXwqrsw7ssxxcbcbkvccxxxrxjggllnnnnvMjjxkbbbBri>:xxnMdg",
"$$OO$-::#$+O+.....+X*+$:;&&:::$#$$;===::13::::44<*>>::,::,7444==",
"%%OO==1;@$X+X+. ..%+**::;::&*2*$%&====::48:114,<4<>*::,:*,q848$="
};
