/* XPM */
static char *result[] = {
/* columns rows colors chars-per-pixel */
"64 64 224 2 ",
"   c #030303",
".  c #0C0C0B",
"X  c #090A06",
"o  c #100F0C",
"O  c #0F130E",
"+  c #11120E",
"@  c #100D10",
"#  c #141412",
"$  c #161A15",
"%  c #191915",
"&  c #1C1B19",
"*  c #171716",
"=  c #0C1111",
"-  c #221E1B",
";  c #1D231C",
":  c #23221D",
">  c #29281D",
",  c #242422",
"<  c #292723",
"1  c #2A2924",
"2  c #2D2C28",
"3  c #262A25",
"4  c #312C25",
"5  c #322E2A",
"6  c #2C3128",
"7  c #33332B",
"8  c #3A372A",
"9  c #353532",
"0  c #3B3A33",
"q  c #3D3E3B",
"w  c #383738",
"e  c #2F3436",
"r  c #433C34",
"t  c #423E3A",
"y  c #453F29",
"u  c #3B4435",
"i  c #434236",
"p  c #45443B",
"a  c #4A463C",
"s  c #4A493D",
"d  c #484739",
"f  c #5B4A3B",
"g  c #3F3E42",
"h  c #3F4340",
"j  c #4D4C43",
"k  c #4B4B4C",
"l  c #464643",
"z  c #524E45",
"x  c #524E47",
"c  c #535245",
"v  c #5C5644",
"b  c #54544B",
"n  c #5A554C",
"m  c #55584C",
"M  c #5A5A4E",
"N  c #565652",
"B  c #5C5B54",
"V  c #5C5D5A",
"C  c #555759",
"Z  c #4C534F",
"A  c #645C4B",
"S  c #625E53",
"D  c #615F5D",
"F  c #6C5447",
"G  c #596358",
"H  c #636255",
"J  c #6B6A56",
"K  c #65645A",
"L  c #6A665B",
"P  c #6D6A5D",
"I  c #696657",
"U  c #716C5B",
"Y  c #776A57",
"T  c #73725E",
"R  c #79725B",
"E  c #6B6851",
"W  c #5E5E60",
"Q  c #5D6B6B",
"!  c #666562",
"~  c #696661",
"^  c #6C6B62",
"/  c #696C6C",
"(  c #726E62",
")  c #6A7265",
"_  c #737264",
"`  c #7B7463",
"'  c #75746A",
"]  c #7A766A",
"[  c #7C7B6C",
"{  c #757A66",
"}  c #7E7D71",
"|  c #757775",
" . c #82785E",
".. c #817C6C",
"X. c #847B65",
"o. c #817E73",
"O. c #897C70",
"+. c #7A846E",
"@. c #7A8679",
"#. c #83816E",
"$. c #8B836D",
"%. c #88886F",
"&. c #858474",
"*. c #898675",
"=. c #8B8976",
"-. c #86867A",
";. c #8C8B7B",
":. c #878979",
">. c #928D7C",
",. c #948C75",
"<. c #95927D",
"1. c #9B9578",
"2. c #8D886C",
"3. c #A39C7E",
"4. c #A6977E",
"5. c #AAA27B",
"6. c #7C7E81",
"7. c #7C8D81",
"8. c #928F81",
"9. c #949383",
"0. c #999583",
"q. c #9C9A84",
"w. c #9D9B8A",
"e. c #959888",
"r. c #8D958B",
"t. c #A39D84",
"y. c #A29E8B",
"u. c #AA9E86",
"i. c #9BA799",
"p. c #9EA48C",
"a. c #A3A185",
"s. c #A9A284",
"d. c #ADAA86",
"f. c #A3A28D",
"g. c #ACA48C",
"h. c #ADAB8C",
"j. c #A6A988",
"k. c #B4AB8C",
"l. c #B7AB88",
"z. c #BCB28D",
"x. c #B2B08F",
"c. c #A5A492",
"v. c #A9A594",
"b. c #ACAA95",
"n. c #ADAC9A",
"m. c #A4A797",
"M. c #B3AC94",
"N. c #B2AE9B",
"B. c #B4A690",
"V. c #B4B294",
"C. c #BAB494",
"Z. c #B4B39C",
"A. c #BBB59C",
"S. c #BCBA9D",
"D. c #BCB996",
"F. c #ACABA1",
"G. c #B1ACA2",
"H. c #B4B4A2",
"J. c #BBB6A3",
"K. c #BCBAA3",
"L. c #BDBCA9",
"P. c #B6B7AA",
"I. c #BDBDB1",
"U. c #B4B7B0",
"Y. c #ACB3A4",
"T. c #C3BC9C",
"R. c #C5BA95",
"E. c #C2BDA4",
"W. c #C2BDAA",
"Q. c #C0B4A7",
"!. c #C3BFB3",
"~. c #BFC1B1",
"^. c #C8C09E",
"/. c #C4C1A5",
"(. c #C9C4A5",
"). c #C5C3AC",
"_. c #C9C5AD",
"`. c #CBC9AD",
"'. c #D2CAAB",
"]. c #C5C5B1",
"[. c #CAC6B2",
"{. c #CCCBB4",
"}. c #C5C4BB",
"|. c #CDCCB9",
" X c #C7C7BA",
".X c #D2CEB4",
"XX c #D2CEB9",
"oX c #D3D1B5",
"OX c #D5D2BA",
"+X c #DAD6BA",
"@X c #DCDABD",
"#X c #DCD5B3",
"$X c #E4DDBD",
"%X c #EAE1BC",
"&X c #CCCDC3",
"*X c #D1CEC5",
"=X c #D4D3C5",
"-X c #DDDBC4",
";X c #D5D5CA",
":X c #DBDACD",
">X c #D7D6C9",
",X c #DDDCD2",
"<X c #DDDDD9",
"1X c #CCD2C3",
"2X c #E2DDC4",
"3X c #E1DED3",
"4X c #E5E2C4",
"5X c #EAE3C2",
"6X c #E6E4CA",
"7X c #EAE6CD",
"8X c #EEEACD",
"9X c #EFE8C5",
"0X c #F3EDC8",
"qX c #F6F1CF",
"wX c #E2E2D5",
"eX c #EEEDD2",
"rX c #E5E4D9",
"tX c #F2EDD3",
"yX c #F4F3D4",
"uX c #F6F5DB",
"iX c #FBF6DB",
"pX c #FCFBDD",
"aX c #F9F4D2",
"sX c #FDFCE2",
/* pixels */
"^ ! ^ ^ ^ ^ / ^ ^ V t #         # q C ! ^ ! ! / ^ ^ ^ ^ ~ L K ! ~ ! ! ! K V K B k ,         X 2 Z V K ~ ! ! ^ K ^ ^ ! ^ ^ K b s ",
"pXpXuXsXpXpXpXpXyX+Xf.0 g k l 9 < m.2XaXiXpXsXyXeX4X@XeX7XyXtXuXuXtX8X8XyXuXtX-XW.~ q k k q < K {.OX7XuXpXsXtXeXsXuXpXiXeX4X*.j ",
"S.f.c.c.a.d.d.h.q.%.G w C | / k < ^ 9.V.D.Z.V.d.d.1. .2.A.u.u.M.t.y.g.f.3.3.t.>.*.N W 6.6.W g P ,.t.A.A.J.K.D.Z.S.).).K.D.4X=.j ",
"f.].W.].{.{.`.[.~.b...+ . @ @ . * -.Z.].{.{.{.[./.S.u.B.8.H n 0.[.].`.{.`.)./.Z.v.j @ @ @ . . ' n.Z.W.{.oX{.oX{.XXP.[.=.a.8X=.s ",
"{.].W.!.[.{..X[.).N.;.j * . . # j 8.L._.{.{.`.`.E.u.C.J.A.q.0.).{.{.{.[.~.`.`.~.n._ 1 . . @ 7 } p.E.).{.|.{.{.oXoXm.S c j.6X:.a ",
"c.y.9.>.q.f.c.c.c.w.8.O.( K L ^ } :.w.c.m.f.w.<.w.t.T.{.{.J.J.[. XJ.f.f.p.p.y.<.>.#._ P I L ] =.%.,.f.c.m.v.L.{.|.|.`.Z.h.@X*.s ",
"9 9 5 7 9 9 9 9 0 9 9 9 9 9 9 9 w 0 7 0 0 0 8 6 x ;.H._.Q.W.{.|.`.0.J w 0 0 0 7 5 5 7 7 5 7 5 4 4 5 7 9 w ~ 0.].{.{._.h.s.OX*.s ",
". =   X X   X X X X X X X X X X   X X O ; ; O ; c *.E.{.W.{.{.[.W.9.[ M ; X   X   X X X   X   X   X X & b ( ;.].`.[./.1.3.4X*.s ",
"6 e e e ! C C G Q C C V 3 h Q Q G Z 3 s ) ) m 6 d *.K..X_.{.{.{.W.>.{ H z 1 o o o @ . + @ . @ o o . & p n ' 9._.|.[./.s.1./.X.j ",
"J T _ G i.i.i.e.i.r.@.7.G / 7.7.@.;.d E +.+.H 8 d ;.H._.).|.{.{.K.#._ I b m f._.E.S.W.`.E.[.k.M.g.9.s i m ' 8.K.~.].Z.t.h.2X#.j ",
"X X . * 2 - - - ; * , ;   # 3 ; : : % 1 8 7 ; % n *.H.=X X>X|.{./.0.` H S S $.<.9.0.>.O...>.*.1.$.` M n C _ 9._._.|.[.K.x.2X*.x ",
"[ _ ] ] U ( ..&.8.@.-.:.*.*.-.8.=.=.&...{ m i d H >.L.N.( ( -.W.M.&.J T *.[ R ..&...&.=.*.....R R #.&...T J %.W.{.K. X:.<.7X&.j ",
"3 , , , : , : : 1 1 1 , : : : < 1 1 1 1 1 & , l ^ 8.L.XXZ.f._.{.M.` d & : % - : < 1 < 1 1 1 > : : : - & , i { K./.f.S d p.6X&.j ",
"L S H ) ( J H I I ^ ( _ L v v F E U _ _ P 7 7 x ( =.W.XXXXXX{.{./.*.S 0 7 7 H ( P ^ _ ^ U J E A J v 1 7 j I *.E./._.E.h.3.oX` d ",
"M.].).S.`.K.K.A._.K./._.(.A.A.D.E.'.{._.L.n l x ^ >.E..XOX.XoX{./.q.[ K m m f.E.D.!.{.).W.).z.l.z.1.d a M ) >._.`.`.E.h.3.+XU d ",
"A.E.E.L._./.A._.{.W.M.E.K._._.g.2.g.b.L.L.b u n ( 9.W.XX.XoX{. X[.w.&.L n B g.S.l.S.{..X).A.u.A.K.w.s a B _ 9.).{.{.).a.s.$X..a ",
"K._._.[.E.C.V.Z.g.W.A.).W.K.E.{.E.t.C.[.W.c i n ( >.E.OX.X.X{.oX{.w.&.L m m b./.R.(.{.`.`._.^.`.{.f.j a B _ =.K._._.).3.$.'.X.y ",
"{. X{.`._./.E.).).).E._.W.K.[.|.E.A.!.!.L.b p b ^ 9.E.XX.X+XXX.X_.w.&.L c b a.{.`..X`.`._.S.R.`.`.f.a l m P *.V._._./.V.1.R.X.a ",
"9.9.9.e.c.f.c.b.b.v.v.c.v.c.c.w.X.X.,. .X.a i z K >.L.OX:X-XOX{._.w.o.( ^ P 9.b.n.b.b.b.b.c.a.a.a.<.I H J J =._.`..X=X|.C.T.U j ",
"g.n.b.b.n.v.b.H.H.Z.Z.N.M.Z.c.f.y.,.f z  .F &.F S ;.W.~.K.}.H.|._.p.w.b.b.b.n.M.K.K.L.H.S.H.H.v.Y.Z.H.Z.3.=.>.].XXL. Xf.u..XY r ",
"4 1 2 1 2 2 5 2 2 2 7 2 6 6 1 < > - 4 0 8 > 5 4 a &.S.).' H m.|.].8.N 7 , , 2 2 2 7 7 7 7 5 6 7 6 4 1 , 2 s [ L.XXb.K P B.@XR i ",
"A c I ^ P P ^ U ^ P P P ^ _ _ P I S n m z - - r S [ n./.oX{.{.oX`.0._ j 2 7 n J P P _ _ ' _ _ P ( M 1 5 a H ;./.{.(.`.`.S.6X[ a ",
"K.1.g.W./.S.A.E.K.E.E.K.W._.).).K.A.H.H.v.S r z L :.M.).{.oXoX{.[.a.&.J m n f.S.A.M.E.`.{.`.{.[.].c.B d b ( 9.W.`.`.{.`.S.6X[ j ",
"v.y.q.f.c.f.f.v.f.c.b.f.0.v.b.b.v.y.y.y.c.y.o.n ^ =.Z.(.C.T.'. X{.f.+.] =.c.c.f.y.q.0.c.N.b.b.b.h.b.f._ m J >.).`.`.(.^.T.4X#.j ",
"K.W.W./.~./.K.~.S.K././.~.~.D.S.L.H.E.L.S.K.K.n.:.&.J.W.C.C.T.T._.a.t.H.E.J.J.L.S.C.Z.J.W./.).~.~./.L.).H.:.9.).(.`.^.R.^.6X+.k ",
"wXrXrXrXrXrXrXrXwXrXrXrXrXwX3X:XwXrXrXwXwXrXwXrX:X Xl.R.C.S././.[.I.:XwX3X3XrXwX3X3X3X6XrXrXwXrXwXwXwXwXwXrX|.{.'.^.R.S.D.6X] a ",
"{.|.{.XX{.{.|.XX{.|.oXoX{.{.oX.X.XoX.X.X{.{.{.{..X'.z.5.B.D.T.C.3.g.l.T.'.`.[.{.`.E.D.(.{.{.{.`.).`.{./.M._.]._.(.oX{.'.z.7X[ j ",
"=XXXXX{.|.|.XX{.oXoXoX{.oX{.{.oX{..X.XXX{. X{.{._.(.R.(..XOX_.M.l.z.z.T._..X X).`.(.R.(.{.{.`.{.{.T._.{..XXX|..XoXK.{.y.f.6X[ j ",
"n.|.|.XXXXXXoXoX{.XXXX{.(.(.{.`.{.{.oXOXXX{.oX'.(.(.T.4.A E $.R.R.T.(.T._.[._.`.{._./.`.`.'.(.{.).T./._. X.XXX{.).c.B J b.6X..s ",
"sXpXuXsXtXpXpXiXsXpXpXiXyXtXiXaXpXpXpXpXyXaX0X0XaXqX0X5Xl.4.#X%X$X9X%XaX0XyX8XeXyXaXaXiXaXpX9XqXuXuXaXiXsXsXsXeXuXuXyX6X4X+X] p ",
"j b j a j z z b m j j j z j z j c c j x j c j j s d d d r d s s f s a d i i d k z s z j s a p p p p u p d p j p p j a 0 t p a p ",
"$ $ $ * * * * # $ * # * % % % % * * % # # + # # % # + + # . # @ # @ + # # . . + + + + # + $ * + # * $ * * * @ # # o # + o . # % ",
"N N N b N k k j b b b b b C N N N b Z b N N N B N n z c b B C V S C C B N b N N C B C B B B B B G V V G C V B V B V V B C B t 8 ",
"sXtX8X4XaXaXaXiXuXyXOX'.7XtX7X5XeXtXeXeXeXyXtX8XtX%XR.'.2XsXpXtXtXiXtX8XeX$X2XtXyXaXiXiXuXyX0X9XaXuXuXuXuXsXuXyXuX8XtXtX2X.X..a ",
"f.Z.C.Z.C.V.x.V.k.3.t.t.g.a.0.t.a.q.a.a.j.d.h.h.s.,.$.,.A.!.H.k.h.d.f.f.a.a.s.M.V.b.M.V.x.b.d.d.h.h.k.V.x.d.h.h.M.K. XH._.2Xo.a ",
"K.h.t._.`.).`.).L.L.E.t.N.J.W.E.B.Z.H.K.Z.).).`././.E.G.( ' :.].{.{._./.A.Z.K.).{.{.{.[.].].(.(.).[.{.{.{.]./.K.).8.P u <.2X*.z ",
"A._.)./.[._./.].)._.K.H.N.g.J._._.[.{.].]. X{.`.E.A.).|.N.c.K.Q.[.{.].[.).A.H./.].[.).A.J._.E.).{.{.{.{.{.`.).{.{.~.9.=.S.6X;.k ",
"s v B H K B H H B B H H K B S D G H H H H S K D +.N.K.[..X XW.W.W.w.L H S M b B n B K D H n c z H H S H I P 0.[.{.{.).V.Z.-X=.c ",
"* % % & % & % % * % & & % & & % * * % & % & 2 G [ n.{.XX|.|.)._.`.0.] i % # # # * % & % & * * % % % & % u _ ;./.`.`._.C.S.oX=.z ",
"                                          , j K *.v.W.].].[.{.{._.y...U i .                         . 7 b _ 9._._.E.E.D.D.@X%.j ",
"_ ( A H ( _ ] ' U ~ L L U ] ' ' _ P ( ( 9 r z H &.n.|.|.[.[.[.{.A.w.#.K m s I _ ` ' ] _ _ _ S T ' S 0 u z ^ 9./.C.g.K.V.x.#XX.d ",
"].[.B.Z.E.[.|.W.n.[.!.W.{.XX|.[.[._._.E.n w j I *.n. X.X>X|.Q.y.2.` { K k n b.'.{.{.L.S.`.{.`._._.f.j l C ' 9.).S.T.T.S.x.#XX.d ",
":.*.&.` ' -.-.-.] } ] ..*.:.*.&.[ &.&.| *.:.*.} } c. X!.H.L.v.[.k.8..._ &.-.:.*.*.&.&.*.-.-.=.*.&.#.&.:.:.&.>.S.A.oX3X Xk..X#.s ",
"p s p p a t p p t t p j a s s s a a p u i s s k &.N.{.[.( M 9.N.A.w.L x a s s s a s p i s a s s s a p a a n o.N.).>.U n =.+X[ s ",
"2 4 2 2 2 2 2 2 < 4 2 2 2 3 6 6 6 2 1 3 # # , 0 U n.{.{.{.{.W.N.L.w.K 7 # * , < 3 1 2 2 2 2 2 2 3 , @ + 2 M :.L.[./.p.m.S.8X&.s ",
"_ T G ^ } ' ] _ U L U U _ T m m H T ) &.w 7 a z R c.W..X[.XX{.XX[.] L S j j e.Z.Z.b.Z.K.K.K.K.K.Z.=.i q m ( ;.).{..X{.].S.6X:.j ",
") G ; i r.:.-.:.8.@.-.-.;.+.6 O > { +.K p 2 a S Y <.C.!.[.|.{.{.[.$.( K n N c.`.[.)._.{.{. X{.{.E.q.d a m L <.{.OXoXoX`.S.4X*.z ",
"F.;., 8 Q.Y.H.F.Y.G.Y.P.F.Y.s X ; <.m.p.w.G 9 A ..O.T. X[..X|.W.N.>.} S z b b. X X{.{.[._._.`.`.E.q.p q m ^ ;. XXXXX{.`.V.4X&.c ",
"~.U.u v .X~.].~.}.!.I.]. X}.b X $ e.[.].Y.+.6 r ` v.[.{.{.{.{.[._.9.] K m N n.{.{.{.{._.{.).[._.h.<.a a M ( ;.].{..X.XE.l.2X#.z ",
"<X1XZ i *X;X;X;X;X;X;X&X&X}.G X + 0.&X&X&XY.u p +.N.{._./.[.{.|.].>.] K b N n.oX.X X_.`.W./.E._._.y.l l B ( 9.~.{.|..X).V.-X[ j ",
":X1X~.j.1X;X,X<X<X<X<X,X1X}.g.&.E T.&X1X*X~.e.+.[ n.{.@XXX:X*X{.~.9.*.&.y.b.b.n.n.f.1.y.y.>.w.y.p.c.n.n.n.w.O.n.].XX,XQ.4..X] j ",
"n.i.d u p.F.P.Y.U.U.U.P.Y.U.' $ & 9.U.I.}.P.c 6 [ Z.OXJ.' ] ;.[.).q.K p q t q t 0 0 0 0 0 q u p r p p p u a U 0.).0.} c >.6X} b ",
"/ ) 3 X H | | +.] +.[ +.&.-.b . # ` e.r.8.) 6 0 } H.{.{.m.f./.`._.q._ p * # 3 3 5 2 2 1 , 2 2 2 2 , @ # 1 N @.Z._.).f.y.S.-X..j ",
"6 6 $ X 6 7 8 7 9 0 9 u q h 3 X . u b N h 1 , n -.H.oX[.W.{.|.{./.q.[ K s j <.n.Z.Z.N.H.K.K.K.J.A.9.p u N ^ 8.).[. X_.E.g.@XX.d ",
"O + . X O + O # # # $ % $ $ o X X % ; ; $ $ 2 K *.n.oX{.{.{.{.{.].w.+.L S *.c.n.N.b.n.n.h.n.M.N.N.v.^ z M ' 9.]. X{. X`.D.$X&.s ",
"3 2 : > 1 1 1 1 3 3 , 1 < > 3 3 3 3 , , 0 K T K *.n.oX{.{.{.{./.L.0.] o.1.v.b.N.H.V.b.g.b.n.n.n.Z.N.Z.N.[ ^ 8.].{. X{.W.V.-X=.j ",
"H.g.u.h.J.K.J.K.K.K.~.K.~.K.L.K.E.L.K.~.).{.XX).n.Z.oX{.oX{._.A.H.0.m.[.W.)..X{.).)._.)._.].{.{.`.|.|.|.|.].w.].{.`.).W.A.+X[ j ",
":X:X.XOX,X3X,X,X<X,X:X>X=X=X=X=X;X,X:X=X:X;X3X=X:XoXoX.X`.`._./.E.XX,X,X,X=X=X;X,X=X&X|.&X=X;X;X,X3X,X3X,X3X>XoX{.).E.S.A.(.[ s ",
").(./.~.`.{.oXoXoX{.~.n.0.9.0.0.n./.{.V./.Q.s.E._.(..X{./._._.)._.(..X.X[.[.[.[.L.b.9.-.:.9.c.V.D.~.{.{.{.`.{.{.{. XE./.C..XT z ",
"L.W.[.{.|.oX{.oX[.K.w.z $ = . $ z e.L.k.k.V.s.B.E._.(.XX=X;X{._.(._._./.W.W.].W.b.^ 1 @ @ * 5 ' k.D.{.`._.). X.X-X:X>X_.1.z.` j ",
"^ Z.)._.{.{.oX{.{.G.o.w l k g e 1 ' w.B.T.{._.[.{.`.).Z._ ] =._._.)._.`.].L.).H.w.D w k k g < M q.V./.`.).A.).{.c.] P $.1.`.*.j ",
"H..X].{..X{.{.oX[.H.-.Z / | / k w } b.A.J.W.C.W.XX`._.K.N.t.K./.D.K.).).E.E.E.A.e.~ V | / C w B p.H.[.|.{._.).{._.f.a.x.x.4X*.z ",
"qXpXyXeXeXyXaXaXtXXX9.* . @ @   * >.C.$X7XuXeX6XpXuX6X4X%XqXuXtX6XyXeX$X#X4X4XoXZ.N . . @ . . L ).-XeXuXuXaXyXyXtX8XyX8X8X2X&.k ",
"_ P H J ( ) _ T ( K l @         # a B L _ _ / ' ' _ _ U U U _ ( J ) _ J f A A H n 2         X 6 n I ) _ _ _ ) U _ P ( _ _ @.} K "
};
