/* XPM */
static char *result[] = {
/* columns rows colors chars-per-pixel */
"64 64 22 1 ",
"  c #222222",
". c #301814",
"X c #3B211E",
"o c gray16",
"O c gray19",
"+ c #1B1B1B",
"@ c #492B24",
"# c #381C18",
"$ c #452723",
"% c gray22",
"& c #282828",
"* c #56322A",
"= c #202020",
"- c #3D1F1B",
"; c gray25",
": c #373739",
"> c #1C1C24",
", c #2A2A2E",
"< c #2C1414",
"1 c #2E4236",
"2 c #3A160E",
"3 c white",
/* pixels */
" .XooO oO   .   o ++.X o@ .X   o  Xo. @XOoo .  o@o X  oo oXo..@X",
"o#$%OO&$OO$O#&&&O&$&#*&OOO#$O&O&#O$O&&&$%O*#&$%%O%&$O&OO#%$%##&X",
" #OOO&&&OO$O&&&&&&$==*$*OO&O&&&&&O*OO&&O%O&&&$&$O%&O&&OO&O$%&#&O",
" &$OO&&O$$$&&&&$&&&$#O$$&O&$&&$&O$$&O&&*%OO*&O&&O%O$&&&OO$&O&#&X",
" $$OO&&O*OO&&&&&O-$&#O&OO&$$&&$O%*OO***%;$$O&O$O%O&$&&$OO$OO$*&o",
"XO$O*O&&%OO&OO&OO#O%$&O&O$O$&$&O*%%%%%$O%&O%*$OO%$&$&$&O&O%OOO&o",
"XO$O&O&&%O%&&&&OOOOO&$%O#$O$&$OOO;;%O*&O%%O&O&%%O*O$O$&&&%:O&$#o",
"X&$OOO&&O&%O&&#&OO*O&O%&#$&$&OO%&%%OO*&&%%$&OOOO&$O&&&&O#O%O&$& ",
" &$OOO&$&$OOOO##O&O**OO$#&&$&&&%O%OOOO&&%OO$*OO&&OO$&&&O*%OOOO& ",
" #$*OO&&O&*%OO=&O&OOO%O$$&#$$O%%%%$%%%=&OOO#OO&&*O#$$&OOO%&%OO> ",
" $&O*OO&O&OOOO&#&$OO%OO*&&$&O&OO%OO%%%=&&$#O%%&*%O$&&$&OO%O%%O= ",
"o&$OO&&&OO$OO$&&$OOO%%OOO&=$OO&*%O&%%*&=&O&%%O&%O%&*O&#$O%$%O$# ",
"X#OOO&&OO&O%OO&&$**&&%&O&$=OOO&*OOO%OO##&&&%%O&%O*&O&O#$&%OOO&# ",
".&OO&&&#O&OOOO&&O%O&$%&$$#&OO&&&&O;%%O&&&O&OO%&$$&#O&$&$#%,OO&& ",
" &$OO&O&O&OO%OO&%%O&&O&$$&&*OO&OOOO%;%O$OO&O%%$$&&&$O&#O&O&&OOO ",
"+&#&O&&OOO*OOOOOO%OOOO*$$#<&OOO%%%*%%%OOOO&%;%$O&&##&&&OOO$OOOOo",
" ##&O&&OOO&&OOOOOO*OOOO$#=#&O%O%OO*%OOOOO%&%;OOO&&##&&$O&O$OO&Oo",
"o$$$$&&OO&$OO$%O&O&&&#%&#O*&*$*;OO*;%$%O&OO%%&%O&%$$$$$O&&$O&$Oo",
" O$$O#&&&$&O%&OO&&&$$O$##OO&*O&O$$*%%&O&&OOOO%O&&OO$$O#$$$$OO$Oo",
"+&&&$#O&&&&%O&&*O&=&$O##$&OOO*&%&O*;%##$OOO%O;&&*&O&&$&O#&$OO##X",
"X&&&$#O&O&&%O&$OO&=&$O#&$&OOO*O1*OO;%&&OOO&%O;&&**O&&$&O$&&OO#$o",
"X&OO##OO&$&O&O&&%O#$&O&&$*OOO$O%%$&1OO&$OO&O%;&&*$O&&#&O&$=O&&$X",
" $O&#$O%&$&O&OOOO&&#$$O&O%$O$&&%O$*%&OOO%O&*OOO&OO*&$O%&&$$O&O&o",
" ####$&O*$$O&&O%%&&O$&O&%%&$&$&O&**O&$O%OO&*O%O&O%&##O%&&$$O&$&o",
"X$###&&%$$&&&O&%O%&O&OO&%**$&$%%O**OOO*%=&&O%%%&O$&#&&O&&$$&*O$o",
"X##$#&OO$#&&&$OO&#&O$&OO*$&&*$%;OOO**&OO&&$&O%OO$$##&OO&&$$*$$Oo",
".#$&#&&&O#O#O$&O##&O$&OO&&&$*$%;&%%&%$&&#&&&*%OO&&#$&OO&#&&&O$$o",
".#&&#-$O%$O&O&&&#O*$&&O&&&OO&$O&&%OO%O&&&&*O%OO&&&#&&=O##O&$O&#X",
".=O&&#*OO$*&O&OOO&O$O$O&&&O%$&&&&&$&%OO&&&O*%$%&&&#O&O&##$$#O$O.",
"X$#&&#$OO&*&&$%O#&$&O&&&O**&&#&&&&OOOO;O#&*%%O&&&&$#&&&#$$$##$%o",
"O&=&##$%O$&&&O%&$&&$&&#OO;%&&#&*O$&&O%%&*&%O%O&&&%&=&#=$&$###OO ",
"o&&&&#$O&&O&&&&&O$O&&%O$*%%&#&OOO&%&OO&&O&%O%%&&$%O##$$$&#&#$$$.",
"o&O*O&$$&$%&&&&OO&&#&OO#&%%O$$OO$#%*OO$O%OO&%%&&$OO&$&&$$#O$$$$o",
" $OOO&#$&$OO&&&OOO&#&&$$&%$%OOO&$&%%OO*OO%%&&&#&&O$OOO&O$#OO$&$o",
"X$%#O##O%#;&&&&*$O&<&O*#$$$O$%&&O%;O&O&$$%%#&&*&&*&O*&$OOO%*###@",
"+%&&&#=*%&O&%*O&&#$=&O*&*&O*O%&&$%%*%OO&&&O&&&*&$&%*%&$O$OO$%*OX",
" *O&&>&&O*&OOOO#$&&#&OO&&&$O%%&#&%$O%O%&*%O&O&O&&&$%%&&&=O&OOOO ",
"X#&&&#&&$*O&&&*&&=&$O&$O&*#&&O&#&*$$**OOOO%&&&$O&$#O*OO&=$O$$&* ",
".$##O###O*O&&&&O&###OO$O%&$&O%&##O-O**O%OOO&$O*OO&$*OOO&&OO&$&&o",
".&O&$#&&OOOO%OOO##O&*#&%O&OOOOO&&$-$;%%;&OOO*&#O&&%&O*$O=OOO%OOO",
" &#&O#&O%$OO%*OO#OO##=$$OOO&&%OOO*--&O%%&O&&&&##&&OO*O*O&%OO%*Oo",
" $&#&#&O%$OO%OO&#&O##$$#OO&&&OOO$$-&&%%O&##&&*&#&&*O%O*$&%OO%OO ",
"o##%#$&O%&&*&&&&#&O&&#&*&O#$*-OO$$2-&OO$&###&&#$#%**%&$$&O#$&&&@",
"o#$&#$OOO&&*&O&&#OO&O#&&&&#$O-O%$$&-O%OOO##&%&&O#%**$&&&&&#*&O&.",
"o#*$O$OOO&&&OO&&#OO&#=&#$O#$$OO%O$&$%%&OO&&&&O#&*O#$&O&&O&#&OO#@",
"X&O$$$O&O&O&O&&&&O&&#O#&#$OOOOO%O$%O%OOOO$%O&:&&#$&&&=$%OOO&O&#X",
".&OO&OO&O&O&&&O$$&O&&&&&##OO%%%%O$%OOO%*$%%OO%&&&#&%OO&%OOO&&&OX",
" OOO#&&O&&#OO#O&O&&&#&$#$&OO%O%%%$O%%&%O%O$O&&$&&&O%&*OO&O&OO#O ",
"X&O&#O&&###O&&$&%*O##&##$$O%OO%O:$O%%%$O;$;&&O&&*$&&O*OO&&&OO&& ",
"X#&=#&##O#OOO&#&O&&##&#$$$#OOOOO&:%%%$OO%%%O&*&&$$#=O$&O#OOOO$#X",
" ######&%$&*$$&O&O&$&&$$&O#&&O&O&,OO$$O%O%OOO&*&&&##&$&*#O&$$$#o",
"oO##$&=#O$&O$O%O&&&$&&==#OO&OOOO$&&%$O:%OOOOO&O&#&&##$&O#O#O$&Oo",
"oO&O&==#&&&$&OO&O&&&O&&<#OO&%%&&-%OOOO:OO&O%%&O=#&&&&=$O#O&$$&O ",
"o&$$&##=&&O&&&#&%O&&&&%##OOOOO$&&%%&OO=&:OO%&&O##&&$$&O*&OO##$# ",
"o&$$$#$&&O&O&&&&OO&O&*%O#%OO**&OO%OO&O&&:O%%&*%O#&&&$$*$&OO&#&# ",
"o&&O$O&&&O##O&O&O&OO$%O&&O%O%*%*%%OO%OO&OOOO*%%O&&O&&$&$&O&&O$& ",
"o&$$*OO&&O&&O&O&&OOO&$O&&OO*O*OO%%OO%OO#*%:O$*%O&&O&$$&&OO#&O=& ",
"o&OOO&&&$&$&&&&&&*%&O&$&OO%%%O&OOOOO&O&&&$:&O&*&O&OO&&==&$$&###.",
"o&$OO&&&$$O&&#&O&OO$O&&=OO%O%O&&OO%OO&&&OO&OO&%&O&O&&&#=&$O&&## ",
"oO#$#&&&&*$$&&&%&OO*&O*&OO%&O&&OO%O$%&&&O:&O&$$O&&%#$#&=#O&*O&#.",
"@O&&&O&O&&&&&&&%&OO&&&O&&*%O*O&O%OO$O&&OO:&&&&O&&$%&$&#=&OO*&&#o",
"@O&&&OOO&&-&&&&OO$O&OOO&=*%OO%&OOO-O%&$O%%OO*&O&=$%=&&#&=&$O&#$ ",
".&&#&%OO&#O&-O$&O&=#*&&&##OO&*&&OO&OOO*&%OO&$#&O==&=#$#&##O&$&$.",
".X..XO oo.o  o  o+ .  o. .@  oo oo oOo  OOo   o. +X..X .. o+o .."
};
