/* XPM */
static char *result[] = {
/* columns rows colors chars-per-pixel */
"64 64 83 1 ",
"  c #212828",
". c #282828",
"X c #414141",
"o c #393941",
"O c #393939",
"+ c #303939",
"@ c gray19",
"# c #303039",
"$ c #394141",
"% c #283030",
"& c #282830",
"* c #414949",
"= c #414149",
"- c #494951",
"; c #414951",
": c #494949",
"> c #495151",
", c #303941",
"< c #515959",
"1 c #595963",
"2 c #596363",
"3 c #59636A",
"4 c #515963",
"5 c #63636A",
"6 c #495159",
"7 c #B5BDC6",
"8 c #B5BDBD",
"9 c #BDC6C6",
"0 c #B5C6C6",
"q c #ADB5BD",
"w c #ADBDBD",
"e c #A5B5B5",
"r c #ADB5B5",
"t c #9CADAD",
"y c #A5ADB5",
"u c #A5ADAD",
"i c #93A5A5",
"p c #939CA5",
"a c #9CA5A5",
"s c #9CA5AD",
"d c #9CADB5",
"f c #ADBDC6",
"g c #ADC6C6",
"h c #A5B5BD",
"j c #636A6A",
"k c #BDC6CE",
"l c #A5B5AD",
"z c #BDCECE",
"x c #B5C6CE",
"c c #A5BDBD",
"v c #BDBDC6",
"b c #93A5AD",
"n c #516363",
"m c #9CB5B5",
"M c #495959",
"N c #8C9CA5",
"B c #212128",
"V c #939C9C",
"C c #8C9C9C",
"Z c #93ADAD",
"A c #8CA5A5",
"S c #8C939C",
"D c #93A59C",
"F c #515159",
"G c #83939C",
"H c #839393",
"J c #7B9393",
"K c #7B8C93",
"L c #838C93",
"P c #8C9393",
"I c #839C9C",
"U c #415151",
"Y c #182121",
"T c #394149",
"R c #7B8C8C",
"E c #93ADA5",
"W c #B5CECE",
"Q c #BDCED6",
"! c #C6D6D6",
"~ c #C6CED6",
"^ c gray13",
"/ c #181818",
"( c white",
/* pixels */
" .XXoO+OXoOO@++#$@%O$+@ &$#O+#%@++o$#OO+@+O$+.+*o@ #X#%@#O$OO&..",
"@%=-X*$$**=***$$-*X;**$o$:**$$$X=*:*X>=$*=$$**:*=*=$X+O,$*<<-$#+",
"OX><<12134<<45<><22<><<<44<<22<<<2346<12<>2<><1<<22<4<221<121>O&",
"$:5$$$$$$$$$$$$o$o$o$o$$$$oooo$o$o$$oo$,,+,,o,$,o,o$o$o$o$$o$1$#",
"X>2$778790qw87wwq8wwq8qeqwqeerwwqwqtyyuyipauytstdrqqqqreerw8,<+#",
"O>2$f087g87wqqqw0wqq70wqrhrrw707wheeuyyuuattyyutudtqw7weew7w$4$%",
"%-j$wwf8808wqqw77wqww778eyeq7087quewqeyyerytyrqqeuutqwwrww8q$2*@",
"#:2$78ww7778wrwqhq88hwwfque70877qrwqqwyyeheerhqweeqyeew0weh0o<$%",
"$-3$0w7707707wqrq8f87wwrqw700k0787ehqqwqyerqeylhqqewye80qqew$j-+",
"$X<$g8090009zkwq8fw78frqwx077g700wwrww7wqewwyytyeeeeqww700wqo4X+",
"O*4$w00770kkk078fwwwcrew07078wx08wfqewwwqqhreysteeyyrf7w00vq$1*O",
"+*2$7w707k00w790wqqcyrqfww70070007wwqqwqfwlyeeystbuhwefgw7f8$<$o",
"X*3o8ww79x7qqwww8qhuyw88hwww708w70w7wwqwwqqeyheyaatehee87ewf$<$X",
"$X<$qr87g8wqqqhrwqyyewwhrqwww77whw7wwwqhqrwqqeyttsaudheqwww8$4**",
"$=2oeww8qwqwwqeheqeerhwqqhqc7w7weeqwwqhyeeqwcytsttaituretqhcon*#",
"&+>$qwwweyqwheyttteqheyedyeqeww7qeeqqeqqeheeeeytysiityeyeehe$4*@",
" o2,whreqreeeyyyytyeeyeyyequyyeqwrehqrweeqrytqhqttststueeyuy,<$@",
"&+4$eeyeqweydtyttytdreytdytyydyeyeeuyqeeytduyeqemtduttyeyttt,<*%",
"+:2,eyeeeretssbtsdudyeeeyttdtutyeeydteyydtatdyeeyytsuueeytba+4>@",
"@=<oeuyrqerytstssttssyqeytttdtuedttuyaddttsbtetyeyttyyeeyuts,>$%",
"$*noteyqqeeeytsaasasteeyyytttyyyttyudytduudtytyeyytyehreeeqe,2-$",
"@+>oeeeeeeyyyeasstbueedtudysttystyetudtisssssstttyymeeheeqee,M*%",
"%+<,qeytydduedssbstuetsttuytstisuyyddtsiisiaNiitytthyeeyteee,>+B",
"Oo<oeyeeeddttasssatttyuddyttspitttdtttibpiaiipVpitdutdreeeey+4$+",
"X$<,eyyydssipCVaisabstdutbippaiZststapbpsaistppCisiAseeheytt+2*+",
"#$2+sttsiiapNSVsuapiibttaiCSitsViiiiiNpttstasyusiVVpiuydutpi,<=O",
"+$>,aissDpiCCptdtysiiiibiVCNsudsaiiippatttatseeyaVVpbtsttbii+2$@",
"@$>,tspiippiptuytuubiipCipCtutuysiCCCaastsatuthqttiabtuuttbt,<$+",
".-2oysiiiaateeqeeeeuabVCSpstutudyspNistutuqeyetewusstyemyyeq$Mo+",
"@$<,tutaaueyqeyyeeeeyaiVCittyteytyuibttiseqeeyuyeesyyldeyeg8,<$O",
"+$F,tsyyyyeqeeuuetsdelsbstuulqhlyyyutbpatdtyttupayrldytyewww$<O@",
"#*<,yttrwtyreuudssabayeeeudereyyeueryiistabseysapNeqeehlwwewo2*+",
".O>,tyeyeeyeutyZiiibiiyryyyyyttybteyuueytttasaapNVitehrfwqwq$M+.",
"&$>,yeeeyrqutybipipDpptttttssiiissiitqqttsaiGGiiNpCpue70qwwe,<O&",
"%X<+ttstuymeuZbppipNiiiittsiiiipipCpsttsbiVHJHHiiHHSphweqqeloM$%",
"&+>+iNpstsuydipipVpiiiNiptsippCiCHCippNiipHKLHHNASLCbtehcdee,>$%",
"%OM+ppCibttbsibippiiiNiaNpibCApNSHCiNCVNaPHSHHCHHCiiipbeeley,>*#",
"@#*+NCpiisbiibipiiiippiiiNNiiipHCNCSCICiGSSHCNGHHCssAiibuhdd,>$+",
"#$;+NppibbiiipiibibpNipNCpCitiCPCCpCPNpHHGPCpIHLHCpbtbisttee+U$%",
"#+*+CCisNipbipibaiNiiiipCCippNpVVNCSCVIGPHCpCSSSVCHCtiasises,>$B",
"%#>+VipCVSCpCpCiiNCpiCppCNiiCCisCCPppPHGHHNHSVCiNPHGCstiiiCi+>$%",
"%+>+ipCCVpCCCpVpCpiVVpCSCiNCCCiaNSCCHGHHSGHHHVabCSHHCbtytpNi,>o%",
".$-+NCVpiiapiisVpisipCSVCCSCViiNVppSHHHHPHHSVissiCHCCCZeutss+>#.",
"Y#T+pCissstttbibsabtspibVHSCpppCppCHHHHSHRSCstbsiVCCSibseeyi,># ",
".o*+CNiassteusdttsabitspCpVbaiitpVCCCCCHLPCbdttEiaiNiiabyhet,<+#",
" $-+ipiitueeyyttstsabssppisssitsiNpiiiCCSCsttdttbiibaiiyemee,<+O",
"@=>+pipseeeytttstsitabiiiittstusibipsipaiitaytbutistibtdeeyd,>+&",
"@$;,ibayrhutdtusbbtiiViipiisytttasbiipaistbtsttdttsibtttuett,6$ ",
" +*+ytteeedetstttssipVipNViittuttsiiissttssssstitsiiteeeedty,>o+",
".$>,ehheyyeytttttsiiiiaiipsabsttasiissttiiiiststbViyeewwedet,;*X",
"@o<,rerydyytttssssiiibsiisasstytipVibisipCistedtiNCidefwheed+<*+",
"+O4,eemeytsttttiassabtsbiisttutyiiiiibiiCCptehwweaVpidewwqey,2-%",
"@+6,eyttttbtutssbttsisttstyeeeyttsiiiibiCCitqf0W0wetZtyeheeeo<>X",
"+o6$wtdssuttdttstttttsttdyrwwwweyytsssiNCpitc0zzzxwwedteteee,n=O",
"+*2$wqetseedtuyddtssttdyhwff00x0wqwetedtsstdr0zQW000x0ceeyee$2>*",
"O=M$xfwqwqwcqwfweyyyyehhwf0000kk0x7wwehettdew0zzz0000zWx0whw$3*X",
"$><$00g007f00x007fwgwf0fg0xzx0xWzx0g0fuasbtew7x0Wx70x0!!zQzz$j>-",
"+$<,rxxg70g0xxWxW9zxxx00x00W~x00f70000wheeew007000wfx0WzQ0Qz,<=$",
"#*<oh007g00xz0xxzzQzzWzzxzWzWkxW0x007g0fhwfw0gwf000xWQ~QzzQzo<$@",
"+*<+eqwqqwwwffwwfwgxkWWxx00fwg0ww0x000fw0c80fgfwwww0zgzz0xzw+4X#",
"%O<++++++++++++++++++++++++++++++++++++++++++++,++++++,+,++++<O@",
"%+>>>F>*>-*-F*>6<-**;66<;**>F>T*6F;*><>>>>><4<6><46*;><>*6>*>-+.",
"B%X+$*$o=$+O$@,X=$#+$**$$*$$Oo+#$o+%=>o$$**$$$:$;>*$$o$$$+#+X+.^",
"/^#@%#+%%#$+%&+$$%X++$$#%O#%++O+$+@%#O%#%+=+@#X+OX++$+@&+&. .BY/"
};
