/* XPM */
static char *result[] = {
/* columns rows colors chars-per-pixel */
"64 64 203 2 ",
"   c #0F0F21",
".  c #080F0F",
"X  c #0F210F",
"o  c #0F0F18",
"O  c gray6",
"+  c #0F2121",
"@  c #0F180F",
"#  c #0F2118",
"$  c #08210F",
"%  c #0F1821",
"&  c #180F0F",
"*  c gray3",
"=  c gray13",
"-  c #181821",
";  c #212128",
":  c #182121",
">  c #212828",
",  c gray19",
"<  c #726D18",
"1  c #211821",
"2  c #303028",
"3  c #24390F",
"4  c #0F1818",
"5  c #393939",
"6  c #464124",
"7  c #393928",
"8  c #282821",
"9  c #394121",
"0  c #303928",
"q  c #393028",
"w  c #283030",
"e  c #213030",
"r  c #C6AD0F",
"t  c #394941",
"y  c #283028",
"u  c #213028",
"i  c #1C2130",
"p  c #305908",
"a  c #6ABD28",
"s  c #182821",
"d  c #212821",
"f  c #181818",
"g  c #212818",
"h  c #390F18",
"j  c #080F08",
"k  c #182128",
"l  c #283930",
"z  c #283049",
"x  c #395183",
"c  c #495149",
"v  c #303039",
"b  c #18180F",
"n  c #182118",
"m  c #08080F",
"M  c #212839",
"N  c #495993",
"B  c #9CA5DE",
"V  c #415151",
"C  c #180F21",
"Z  c #636359",
"A  c #BDC6CE",
"S  c #414141",
"D  c #081808",
"F  c #080821",
"G  c #213939",
"H  c #081821",
"J  c #303939",
"K  c #212830",
"L  c #282828",
"P  c #282830",
"I  c #0F2128",
"U  c #080F18",
"Y  c #0F286A",
"T  c #183983",
"R  c #183072",
"E  c #183972",
"W  c #303941",
"Q  c #494959",
"!  c #515959",
"~  c #595963",
"^  c #515159",
"/  c #595951",
"(  c gray35",
")  c #515149",
"_  c #414949",
"`  c #41598C",
"'  c #59729C",
"]  c #51639C",
"[  c #415172",
"{  c #213983",
"}  c #838C9C",
"|  c #A5A5AD",
" . c #93939C",
".. c #8C8C93",
"X. c #72838C",
"o. c #838383",
"O. c #6A6A72",
"+. c #6A7283",
"@. c #838372",
"#. c gray39",
"$. c #636A72",
"%. c #63636A",
"&. c #284993",
"*. c #3959A5",
"=. c #4963A5",
"-. c #28498C",
";. c #21418C",
":. c #D6D6FF",
">. c #9C9CA5",
",. c #727283",
"<. c #727272",
"1. c #72836A",
"2. c #596363",
"3. c #6A7272",
"4. c #414941",
"5. c #305193",
"6. c #939CB5",
"7. c #596A9C",
"8. c #838C93",
"9. c #728393",
"0. c #83838C",
"q. c #838C8C",
"w. c #516363",
"e. c #212118",
"r. c #283039",
"t. c #282128",
"y. c #728C93",
"u. c gray55",
"i. c #636A63",
"p. c #080818",
"a. c #59636A",
"s. c #183028",
"d. c #182828",
"f. c #728C8C",
"g. c #939393",
"h. c #495159",
"j. c #182108",
"k. c #18210F",
"l. c #304972",
"z. c #41AD49",
"x. c #213928",
"c. c #213930",
"v. c #637272",
"b. c #6A8383",
"n. c #6A6A6A",
"m. c #08180F",
"M. c #0F1808",
"N. c #180F18",
"B. c #182830",
"V. c #495959",
"C. c #302128",
"Z. c #935908",
"A. c #283018",
"S. c #282818",
"D. c #515951",
"F. c #394141",
"G. c #495151",
"H. c #0F0808",
"J. c #492808",
"K. c #304141",
"L. c #0F080F",
"P. c #210F0F",
"I. c #283939",
"U. c #180F08",
"Y. c #413949",
"T. c #494951",
"R. c #494141",
"E. c #414951",
"W. c #0F0F08",
"Q. c #393941",
"!. c #413939",
"~. c #213021",
"^. c #214930",
"/. c #416A30",
"(. c #49AD49",
"). c #0F0F28",
"_. c #182818",
"`. c #211818",
"'. c #304139",
"]. c #CEBC18",
"[. c #284139",
"{. c #838349",
"}. c #180808",
"|. c #081818",
" X c #215918",
".X c #181808",
"XX c #186321",
"oX c #0F4918",
"OX c #393030",
"+X c #DE1849",
"@X c #490808",
"#X c #214141",
"$X c #837218",
"%X c #EFCE08",
"&X c #21210F",
"*X c #21180F",
"=X c #415159",
"-X c #0F5918",
";X c #08590F",
":X c #086A0F",
">X c #596A6A",
",X c #59720F",
"<X c white",
/* pixels */
"  . X o O O . O O O   O O .   O O O O O O . O O + . O O + @   O O O o O   # O O O O   O O O O O O O O O O O O X O $   % & # O $ ",
"* * * * * * * * * * * * * * * * * * * * * * + = - ; : > , < , * * * * * * * * * * * * * * * * * * * * * * * > : > 1 = : 2 3 > * ",
"4 5 6 7 8 2 2 6 9 0 q 0 , 0 7 9 5 q 2 7 : * w > > ; e ; 2 r t * 4 5 7 7 2 7 0 q 0 0 y u e > , u w , > y : * w , ; i > e p a 1 * ",
"4 > s = s = s s = d s = > s = = d s d d s * w > = f 4 4 f g w * 4 > s = s = s s = d s = > s = = d s d d s * w d ; f o 4 h 3 ; * ",
"+ s j * j j j j j j j * j j j j j j j j k * l ; 4 z x z 4 f = * + s j * j j j j j j j * j j j j j j j j k * w > O 5 c v f b = * ",
"f ; s : : : s s : n : s : = : : : s : s : * , m M N B V z C O * f ; s : : : s s : n : s : = : : : s : s : * w * 8 Z A c S 4 o * ",
"n : j j j j j j j j j j D j j j j j j j : * w * F G V z H 4 b * n : j j j j j j j j j j D j j j j j j j : * y * 4 J c 5 f 4 @ * ",
"f > w y K w L u w w w u w y w u y L w w P j w d * I M U o b w * f > w y K w L u w w w u w y w u y L w w P j w ; * f L o f 4 = * ",
"- - - - - - - - - - - - - - - - - - - - - * w L = O 4 o f > w * - - - - - - - - - - - - - - - - - - - - - - v > ; O o 4 o ; ; * ",
"f Y T R T T E T T R T E T E E T R Y T R R * w ; > > ; > L > , * f L W Q ! ! ! ! ~ ^ ! / ( / ) ) c S _ _ S * w ; > > > ; L ; y * ",
": E ` ' ] N N N N [ N N N ` x x N ` x { R * w m = m = * > * s * : ^ } B |  . ...X.o.O.o.+.@.O.o.O.#.$.%._ * y m ; * = . ; * > * ",
": &.*.=.=.=.=.*.*.*.&.&.-.-.-.;.;.{ ;.;.E * l * = * > * L * d * = +.A :.B | >.} X.,.,.+.<.,.<.1.@.2.~ 3.4.* w * s * L * w * = * ",
": 5.' 6.} ' ' ' 7.N ' ' N ' N 7.N ' x ;.E j w : ; ; L = > k w * = 8.A B B |  .8.9.o.X.o.0.0.q.@.o.1.O.%.w.* w e.- ; ; k > : : * ",
": &.*.=.=.=.*.*.*.5.*.5.5.5.5.-.&.;.{ -.T * r.K K ; > t.d > l * d y.B B B 6. .8.9.9.u.0.u...0.@.@.@.%.i./ * * O O * m * . p.m * ",
": &.] ' ' =.' ' ` ` 7.' ' ' ] ' x x x -.E * w ; > > > > > > w * : o.6.B B  .8.q.0.q.9.u.0...u.o.o.3.@.a.w.* l w w , w w w w : * ",
": -.*.*.*.=.*.*.*.5.&.&.5.&.5.5.-.;.;.;.E * w > s.d.u s u d.w * k $.y.} } } } f.y.X.0.X...g.o.@.1.,.3.#.h.* , j.k.# n @ n k.d * ",
"n ;.N ' ' ' ' ] ' x ` 7.` [ ] N l.` x -.Y j w u z.x.z.c.z.x.w * : v.+.o.y.} 8.b.o.o.X.o...u.u.@.,.n.Z v.c * w y f.= b.s X.n > * ",
": { &.&.*.5.*.&.&.&.&.&.&.5.-.-.;.{ ;.{ R * , s.c.u x.u c.u w * : ( v.X.o.+.o.,.+.<.0.9.u.u.o.o.n.n.i.Z _ * J d.L m.y O L O = * ",
": T ] ' ] ` ` ' N x 7.N ] ' x N N ' l.{ R * w J J , v , v w , * : ! v.v.,.b.,.b.<.@.,.o.o.u.u.o.<.#.n./ _ * w = m.M.@ @ o N.: * ",
"- E ;.;.-.&.-.;.-.-.-.-.-.-.-.-.{ { { { Y * L > d.d.B.; k k = * : V.~ b.$.<.+.<.,.<.@.o.<.u.o.o.n.n.( ^ S * , > d n n n = f > * ",
"= T ` ] ` ` 7.' N ] [ ] ` 7.x [ ] ` x T R * C.Z.8 J Z.A.0 Z.S.* n Q ! a.$.a.,.v.<.<.o.o.o.@.o.<.<.i.Z D.F.* l > V.# _ # G.H.s * ",
": R { T { ;.{ ;.;.;.-.;.-.;.;.;.{ { T E Y * L J.S.l J.8 , J.S.* : G.~ 2.~ v.a.<.i.o.O.<.,.<.<.3.<.2./ G.K.* w d L.. @ . * O ; * ",
"- R l.] l.[ ` l.l.x x l.N ' [ N x l.l.E T * 8 P.S.r.P.S.I.U.e.* : Y.T.^ w.( i.a.<.%.n.<.3.<.3.<.Z / G.R.J * w d W f J 4 J * ; * ",
"- R R R E T E E T E E T T E { { { { E E Y * 2 S.8 w P P w 2 e.* f _ Y.E.G.h.^ ~ ( ~ #.~ Z Z i.i./ T.R.S , * l = j . 4 W.W.O = * ",
": R x x x x l.x x l.x x ` l.[ l.l.l.l.T R * 2 Z.8 J Z.A.0 Z.S.* - _ Y.Y.E.T.E.T.G.G.Q ) T.) ~ ^ ) R._ S y * w u _ 4 t # _ H.: * ",
"f T Y R T Y Y T Y R R Y R R T Y T Y R Y R * 2 J.S.l J.8 , J.S.* f v w r.W W W F.J F.Q.S Y.S 4.S Y.S F.!.P * w d O m.n . j . ; * ",
"* * * j j j W.j * * * * * * * * * * * m * * 2 P.S.r.P.S.I.U.e.* * * * * j j D j * * H.* * m * * * * * H.* * , ~._ k._ @ _ * : * ",
"4 s ^./.z.(.z./.s : z.1 ; n.; ; z.).i n.k * 8 8 L w 8 d w 8 8 * 4 : ^./.z.(.z./.: ; n.; I z.i ; n.> = n.n * w t.W.O f O H.O > * ",
"f 1 b n n _.k.4 = 1 `.: k f k k ).; : % : * : : : : = : = = : * f = @ k.n _.n f k = - : : % : : - ; n P.: * w L o.h o.P.o.f = * ",
"4 O . O O O o O O O O o O U O O O . O m o * O O O O O o O . O * O . O O O O o O O O O O O O o O O . O o O * d d H.* H.* H.* ; * ",
"* * * * * * * * * * * * * * * * * * * * * * * * * * * * * * * * * m * * * * * * * * * * * * * * * * * * * * @ M.W.. m.M.D W.m.* ",
"4 k - : : : : : : : k : : : : k : : : : - * : > y y y y u y d * L > L L L L L L > L _ = - = : n = : - = f * * * * * * * * * * * ",
"f 5 F.5 Q.S J F.'.Q.5 Q.5 5 5 5 Q.Q.v , k * d k./ ( ~ 2./ ) y * = d j j j j j j j D O * j j j j j j j = = * * * j m n n n - d * ",
": J 5 , J 5 , v 5 w , Q.J 5 Q., v 5 , , : * , . Y.T.T.c R.Y.A.* = s : : : : : n : : * n : _ d.: : : : = = * : s.K > @ > u d d * ",
": 5 /.!.S >.w 5 >.C.v  ., J >.2 5 g.y L : * w * U * . * * @ j * n k j j D * j j j j * j j 4 * j j j j = = * W _ _ S n d w l l * ",
"- !.].!.v K.f L [.: L [.= t.[.n L I.: t.: * w D _ H.J @ k.{.W.* = > = : _ n e.: 1 : : 1 : }.n : : : : 8 = * > ! 2.: h.|.f.w X.* ",
"n v !.v , * f ; * f > * f ; * 4 = m 4 > : * w @ j o * @ M.S.* * - = j j o j j j j * * j j * * j * j j : = * w b.,.k.n @ : f n * ",
": , , , J : f L f - y f f t.e.- L f = , : * w k._ * J M.j.{.M.* - 1 f = * n : e.= = = = = : n = : = : = k * w 0.g.d G.d <.L ! * ",
": J , J 5 5 L , J w , J P , 5 L J 5 y , - * w M.H.* H.M.@ g * * = . . m * . m m . m m L.. m m m m U m O ; * r.| | : : @ d @ : * ",
"n J z Q.S >.y Q.>.L Q. .L F.>.L 5 >.L , : * , k._ * F.# j.{.D * k m * * * * * * * * * * * * * * * * * . s * w g. ._.G.y v.J v.* ",
"+ K.].K.W [.n P [.1 y I.= P I.: w K.n > n * w M.* * * M.M.g * * ; * * * * * * * *  Xj * * * * * * * * m : * w 3.o.m.n @ d @ = * ",
": r.[.v , m f ; * f > m f = . f ; * 4 L : * w k.5 . J M..X{.W.* k * * * *  X* * *  Xj  X* * * * * * * m ; * w ( 2.e.h._.v.w w.* ",
"- , , , , = f ; - f > f b ; `.f L f f L : * 2 @ . * 4 M.j g * * k * * XXj  X* * *  Xj  X* * * * *  X* m > * y _ c 4 F.+ S f F.* ",
"- , 5 , S >.y Q.>.L Q. .L F.>.L 5 >.L w - * w k.Y.* F.@ j.{.D * k * *  Xj XX* * * XXj XXj oX* * * XX* m k * F._ _ F.b @ 1 @ n * ",
"f OX/.!.W [.n P [.1 y I.= P I.: w K.n L - * , M.m * n @ M.A.* * : * * XX* oX* * * oXj oXj  X* * * oX* . ; * > w w : O 8 +X2 z.j ",
"n 5 ].0 , m f ; * f > m f = . f ; * 4 > : * w # t * _ # k.{.W.* k * * oX* oXj oX* oX* oX* oX* oX* oX* m k * * * * D f S.@Xu #X* ",
"- L 2 , , = f ; - f > f b ; `.f L f f = 1 * w M.* * * . M.k.* * = * * oX* oX* oX* oX* oX* oX* oX* oX* m = * s n = > y L 2 u u * ",
"- = = 8 8 : = ; : = = = = = = = = = = t.: * 2 M.D D W.M.M.M.* * - * * * * * * * * * * * * * * * * * * . k j 3.: v.2 v.d v.w ! * ",
"4 n n f f n f f n f - f f n f f f f n - 4 * : j * * * * * * * * k = k = ; k k ; : ; : k k ; k k : k : k ; * F.* F.H.F.* _ j F.* ",
"* * * * W.U.W.* * * * * * * * * j * * . * * * * * * * * * * * * * * * H.W.U.W.* * * W.* * H.* * m * * m * * @ @ @ . @ @ @ O O * ",
"f - 3 $Xr %Xr $Xg d.n.; : %X: d n.= > n.d : k : : s = : d = : * 4 : 3 $Xr %Xr $Xe.s %.> ; n.; = n.> k %XI * * * * * * * * * * * ",
"f : f &XP.S.&Xb : : : = : f ; : - : ; : = d : k = k d > s > = * f : b &XP.S.e.*X: k - : : = = : n : : - : : : : : : - : : - f * ",
"f f @ @ f f O f & 4 f b O f @ O f @ O 4 f f f O n f f 4 f 4 f * f n @ 4 f b O 4 f 4 f o o f 4 O f f @ n f f f O 4 o @ @ & 4 o * ",
": Y.w W.h.y . h.w # _ w j G.y j G.u . V.! ~ =X; _ =X=XE.V.V.E.* : _ , j G.y . h.y # _ 2 j =Xy O h.u * V.! #.V * # n n _._._._.* ",
"4 @ * n b * # f j b O * # b * n 4 * # b . : @ * E.E.E.o =Xw.=X* f O m n @ * n b * k.O * # b j n @ * # 4 O : @ * n oX-X/./.;X:X* ",
"= ! Q.. a.J . #.J _.! W O a.K.O a.W L.>XQ.O #.k E.k =X* V.> =X* - V.Q.. 2.'.. 2.Q.n / W O %.F.. a.'.. a.Q.. 2.* s 8 ~.oXs d n * ",
"4 @ O n 4 M.4 4 M._.b M.4 f j n f j 4 n D f 4 * E.O =Xm V.@ w.m f O @ : n W.4 f j _.@ j b f j n 4 j 4 f j f f * d ;X,Xz.u > s * ",
": ! ~ V.v.W O $.J d ! W O a.J @ $.I.O a.v . #.> E.d.V.. ~ > V.* d / w.~ >X'.. a.W s ! Q.m.a.J @ v.J . $.J O 2.* d y L L 8 ~.d * ",
"n : d # > n @ L d ~.d d f > d f u : f > n k.> O =XV.w.4 a.$.a.* # ; d # > _.@ > d d s = f u d : > n @ > n 4 > * y -X X/.z.z./.* ",
"n _ > @ G.L f G.h.! ! ^ ! ! h.w.) t.4 G.t.b h.U w.~ V.a.$.$.$.* = Y.y @ G.> b G.! V.! V.h.w.! ^ ^ > f T.P 4 G.* s s s ~.&X_._.* ",
"4 w , @ Q.l b W J w J y l J l l l y b 5 w b J f V.w.4 h.4 v.a.* : w w @ '.y b W w l l l l l l J l y @ W w b J * d  X/.z.z.8 s * ",
"f @ . # 4 O # 4 * . * . W.j L.j * m # 4 O > # * E.V.[.w.[.V.w.* 4 & . > # @ # o W.m * L.W.* j j * . # @ O # 4 * s ~.s.g S.d s * ",
"* * * * * * * * * * * * * * * * * * * * * * * * * * * * * * * * * * * * * * * * * * * * * * * * * * * * * * * * * * * * * * * * ",
"4 4 4 4 4 4 % 4 4 4 o o 4 o 4 o 4 o 4 4 4 4 4 4 o C o 4 o 4 4 4 o 4 4 4 4 o o 4 o 4 o 4 o 4 o 4 o 4 o o 4 o o C 4 o 4 o f 4 o o "
};
