/* XPM */
static char *result[] = {
/* columns rows colors chars-per-pixel */
"64 64 181 2 ",
"   c #000000",
".  c #0D0001",
"X  c #020C04",
"o  c #140103",
"O  c #1B0103",
"+  c #1C0A04",
"@  c #160905",
"#  c #041205",
"$  c #071A07",
"%  c #001509",
"&  c #091508",
"*  c #001C0C",
"=  c #0A1B0A",
"-  c #0C1607",
";  c #1C1006",
":  c #1A1509",
">  c #240302",
",  c #2B0301",
"<  c #240801",
"1  c #2D0903",
"2  c #20000D",
"3  c #2D0009",
"4  c #320203",
"5  c #3C0302",
"6  c #330A04",
"7  c #3B0A02",
"8  c #33000B",
"9  c #3B000B",
"0  c #3E0A0A",
"q  c #2D1007",
"w  c #27180B",
"e  c #351010",
"r  c #3A1413",
"t  c #351916",
"y  c #00210D",
"u  c #0C240C",
"i  c #0E2B0E",
"p  c #0F330F",
"a  c #14320F",
"s  c #002612",
"d  c #002C14",
"f  c #132E13",
"g  c #132713",
"h  c #003316",
"j  c #003817",
"k  c #003418",
"l  c #003D1A",
"z  c #133413",
"x  c #133A13",
"c  c #193E19",
"v  c #1B361B",
"b  c #2F2911",
"n  c #363634",
"m  c #3C3B35",
"M  c #3E3D39",
"N  c #440202",
"B  c #4C0102",
"V  c #430A01",
"C  c #4C0B05",
"Z  c #43010D",
"A  c #4C010A",
"S  c #450B0A",
"D  c #490B0A",
"F  c #530105",
"G  c #5A0205",
"H  c #570B03",
"J  c #52020B",
"K  c #5A030B",
"L  c #5A0909",
"P  c #5C0906",
"I  c #421104",
"U  c #410211",
"Y  c #4D0018",
"T  c #540213",
"R  c #5D0313",
"E  c #5F0018",
"W  c #4A1111",
"Q  c #4F1D1A",
"!  c #431212",
"~  c #541313",
"^  c #5F1616",
"/  c #541A17",
"(  c #541D1A",
")  c #690107",
"_  c #64020A",
"`  c #6E050B",
"'  c #630B0E",
"]  c #700107",
"[  c #70030B",
"{  c #620112",
"}  c #661D1D",
"|  c #671515",
" . c #55221C",
".. c #5A221D",
"X. c #642019",
"o. c #45082F",
"O. c #530230",
"+. c #562420",
"@. c #5B2520",
"#. c #433E39",
"$. c #7E3333",
"%. c #00431D",
"&. c #024A1F",
"*. c #164316",
"=. c #174917",
"-. c #1A451A",
";. c #1A4C1A",
":. c #1C521C",
">. c #1E5C1E",
",. c #004421",
"<. c #004C23",
"1. c #005626",
"2. c #005D2A",
"3. c #0F5526",
"4. c #204520",
"5. c #244C24",
"6. c #284728",
"7. c #225422",
"8. c #215B21",
"9. c #295429",
"0. c #2B5D2B",
"q. c #3E423B",
"w. c #315A31",
"e. c #00612A",
"r. c #236423",
"t. c #246B24",
"y. c #2C6A2C",
"u. c #2D622D",
"i. c #277227",
"p. c #2A732A",
"a. c #2A7D2A",
"s. c #397839",
"d. c #337833",
"f. c #6F4010",
"g. c #44433D",
"h. c #48473F",
"j. c #454441",
"k. c #494743",
"l. c #4B4B43",
"z. c #4F4F49",
"x. c #514E46",
"c. c #514F48",
"v. c #54534B",
"b. c #5A564E",
"n. c #5B594E",
"m. c #555450",
"M. c #5D5753",
"N. c #5C5B52",
"B. c #5E5958",
"V. c #635C54",
"C. c #655E5A",
"Z. c #646156",
"A. c #686257",
"S. c #65635A",
"D. c #6A645B",
"F. c #6D685E",
"G. c #6C6766",
"H. c #6C6860",
"J. c #736E64",
"K. c #757166",
"L. c #76736A",
"P. c #7A756C",
"I. c #7B7A6E",
"U. c #7C7B74",
"Y. c #8B0A1C",
"T. c #B0211A",
"R. c #8E2727",
"E. c #982E2E",
"W. c #9A3333",
"Q. c #807B74",
"!. c #2E822E",
"~. c #318431",
"^. c #828276",
"/. c #888174",
"(. c #85837A",
"). c #8D867C",
"_. c #8B8B7E",
"`. c #938C7F",
"'. c #8C8780",
"]. c #8C8B83",
"[. c #948D81",
/* pixels */
"m.b.N.b.b.v.z.z.z.x.x.l.x.k.x.l.z.l.x.c.l.v.v.l.x.l.h.l.k.j.j.g.v.b.N.b.b.v.z.z.z.x.l.l.x.k.z.l.z.l.x.x.l.b.v.l.x.l.h.k.k.k.k.q.",
"(.K.K.K.K.J.L.L.J.J.J.J.J.L.L.L.I.K.I.P.L.P.K.K.K.K.K.H.F.F.F.k.(.J.K.K.K.J.K.L.K.J.K.J.J.K.L.L.I.K.P.I.L.P.J.K.K.K.K.J.D.D.D.l.",
"^.F.S.D.F.H.H.L.K.F.F.D.H.D.H.D.S.D.S.S.S.A.S.D.D.S.S.S.S.C.S.#.(.F.A.D.D.H.H.L.J.F.H.D.J.D.D.D.S.H.S.D.S.A.Z.D.D.Z.S.S.D.C.S.q.",
"^.D.D.S.V.M.S.H.A.S.V.S.C.S.V.S.Z.S.C.S.S.Z.V.S.Z.S.C.Z.H.G.H.#.(.F.D.S.V.N.S.H.D.D.V.S.C.S.V.C.V.S.S.S.Z.Z.C.D.Z.S.C.C.D.H.H.g.",
"`.F.g.m m m M m m m M M M m m m m m m m m m m m m m m m m H.H.g.).H.j.m m m M m m m m m M m m m m m m m m m m m m m m m m H.H.k.",
").F.q.                                                    K.J.g.).H.M                                                     K.H.j.",
"`.H.#.  _ T { K T R 9                                     L.F.k.`.H.#.  _ A R B T .                   # >.i               P.F.k.",
"[.F.m   Z J A S 9 Z A                                     P.H.k.[.F.m     4 8 4 3 4                   ;.x :.8.#           P.H.g.",
"[.H.M   > 2 O > > 2 O .                                   P.D.h.[.J.m     8 8 8 8 8                 $ :.    p r.x X       P.S.g.",
"[.H.#.  G A T G Z o                                       U.A.h.[.F.M   E Y K K K O                 :.$       # *.r.$     U.A.l.",
"[.H.#.  O o                                               ^.A.h.[.H.#.  O O O O O                 i :.          i a.$     (.C.h.",
"[.H.#.  O o                                               (.D.h.`.H.#.  4 8 3 3 3 .             X 8.X         # a.v       (.D.h.",
"[.H.M   9 >             X   X X X # X X X # # # # # X     '.F.l.[.F.#.  9 3 3 8 3 O O           p z           >.i.X       [.D.l.",
"[.H.#.  . .           i ;.# $ i x =.>.>.8.:.:.;.;.;.:.X   (.C.h.[.H.#.  O O o O O O O         X >.X         u !.u         (.C.h.",
"[.H.#.  { _ ) E     X r.t.i.i.i.i.p.p.!.a.p.t.>.:.x 8.*.  I.S.k.[.H.#.  K T T T               :.z         X i.;.          I.A.k.",
").H.#.  Z J .       # >.i p a *.=.>.>.>.>.:.=.*.x x *.8.  U.A.k.).F.m   4 4 3 4 4 8 8 .     = 7.          =.a.#           Q.A.k.",
").H.#.  > 3 .       X -.;.;.;.=.=.;.=.=.=.-.-.z i $ & i   (.F.k.`.H.#.  9 8 9 9 8 4         :.$         $ ~.z             (.H.k.",
").H.#.  Y A T T 3                                         (.S.k.).G.#.  _ T K K T o       z ;.          8.>.              (.A.k.",
").H.#.  O O O O O O o                                     (.Z.h.).H.M   O O O o O       X ;.          z ~.&               (.C.g.",
"'.H.#.  O > > > > 2 O                                     ^.S.g.).H.#.  8 8 8 4 8 . o     =.:.      X !.=.                ^.Z.h.",
").F.g.    8 9 9 Z N                                       /.Z.h.'.H.#.  > > 3 > >           x :.X   ;.t.                  ^.Z.g.",
").F.#.    o o o o o                                       (.Z.g.).H.#.  O O O O O             i 8.x !.u                   (.Z.h.",
"/.H.g.  _ { K R { 4                                       (.Z.g.(.H.#.  E 8                     $ p.:.                    (.Z.g.",
"/.H.q.  9 Z 9 9 2                                         (.Z.q./.F.q.. 3 o                       X                       /.Z.g.",
"(.H.#.                                                    I.S.g./.H.M   8 >                                               I.S.g.",
"/.H.m.U.U.I.U.Q.U.^.U.Q.Q.I.U.U.Q.Q.U.U.I.U.^.Q.U.Q.U.I.I.].F.g.(.H.b.P.U.U.U.U.U.^.U.Q.Q.U.U.U.Q.Q.I.U.I.U.^.Q.U.Q.U.I.I._.D.g.",
"Q.D.C.C.Z.D.Z.S.Z.D.D.A.Z.A.A.Z.S.S.Z.V.A.V.V.V.V.Z.V.V.N.S.S.j.Q.D.A.C.S.D.Z.Z.Z.Z.S.S.Z.A.A.Z.S.S.Z.Z.D.V.V.V.V.Z.V.V.N.S.Z.g.",
"K.S.Z.N.b.Z.n.N.].N.b.V.n.N.n.D.A.A.A.Z.C.V.D.V.V.n.V.C.N.S.S.q.K.A.S.N.b.Z.N.M.[.N.n.V.n.N.n.F.A.A.A.A.Z.V.D.N.S.N.V.V.V.S.S.g.",
"J.Z.N.v.].n.(.N.h.x.].v.].N.].N.S.A.Z.N.Z.V.V.J.G.C.b.D.v.c.S.j.K.V.N.b.].n.(.n.l.x.].v.].N.].N.S.Z.V.N.V.Z.M.K.G.V.M.S.v.c.D.j.",
"P.n.Z.V.n.l.b.N.].b.B.v.v.v.v.S.S.A.M.N.N.N.N.S.M.b.M.H.l.l.D.g.L.m.S.N.b.z.n.n.].v.B.v.v.v.v.Z.S.S.B.N.V.N.N.D.B.v.M.H.l.l.S.j.",
"P.A.N.N.V.V.N.N.l.v.S.C.N.A.Z.N.Z.Z.n.N.S.N.N.v.v.b.V.c.M c.M.h.I.A.n.N.V.V.N.N.k.v.S.Z.N.S.Z.N.V.Z.N.V.S.M.N.v.v.b.V.v.m c.N.k.",
"x.h.l.q.g.q.M j.g.M g.q.q.g.q.M q.n q.n q.q.m M g.q.g.g.g.#.g.M v.h.k.q.g.g.M j.g.q.g.q.q.g.M M q.n q.n M q.m M g.q.#.g.g.q.g.M ",
"6 6 7 7 6 6 6 1 6 1 1 < 1 , 4 < 1 1 1 6 1 6 7 1 1 1 > 1 < > > < 6 7 7 7 7 6 6 1 1 1 1 < 1 1 1 < 6 6 1 6 6 6 6 1 1 , < 1 < > > < ",
"' L K G K G L G G F G G J G K K P G K K G K G K G K F F F F F 1 ' L F G K G L G G F G G F G G K L G K K G K G G K K F F F F F 1 ",
"' F B F F B F L K B H B F B B B B J B B B B B B B B B F B B A > ' F F F B J F L K F F F F F A B B B A B B B F A F B B F B B B > ",
"' G B A A A F J A A A B A F A F B B B B B F B J A F B B B F F > ' F B A A N F A A A A B B B A B B B B B B B B B A B B B B F F > ",
"[ F , , 3 1 , > 1 , , , 3 1 , , , > 3 > 3 1 , > , , > > , B K , ` F , , > , , > , > , , > , , , > > > > , > , > , , > > , A G 1 ",
"` F ,                             X                       ~ G 1 ` F ,                                                     ~ G , ",
"[ G ,                                                     / F , [ F ,   o 0 Z A             % l <.2.e.2.,.d X             / F , ",
"` F >                       & f i i f X                   ~ G , [ F >   . U             X %.l % X       X * %.h           / G , ",
"` F >                   # 7.d.d.5.w.u.y.z X               ~ B 1 [ K >   . o o o       @ l % % k l l l l %.d X d k         ~ F 1 ",
"[ F , O 0 ~ ! o       # r.z y.g v 5.= 0.z ;.&             / B 1 ` F ,     o o O     > Y.X d d X X l <.d   % k # * h        .B 1 ",
"` F 5 D | R.W.E.W . X x z X 5.  = z   g x = z              .B 4 [ F ,   . Z         t Y.y s   d h     % l y   %.% %.*     ..B 4 ",
"` K 5 > 6 S W } } S a r.-.y.r.:.8.t.-.-.r.z ;.=           ( F , ` F 4             X ,.% l X k X X l l k   X h   l % <.    ( F 1 ",
"` F 0 N > O O > , r b z X =.&   # z     z X $ u           ..F 1 ` F ,   . A N N   d j h % h   X * % * X s   % % s % ,.X   @.K 1 ",
"[ F 4 . 0 8 N 1 0 3 q -   4.    & z     f X X $            .B 4 [ F 4   o 5       <.% l # d X % X y * s   d X s % % d *   @.B 1 ",
"` F 3 @ W   8   > ; @ - & 8.= = f 5.& # a = # =           / B 1 ` F ,     o .     2.  l % % % % 1.      3.f.  ,.% % y y   / F 1 ",
"[ G q R.$.t W o 6 w w z z s.4.6.w.s.z f =.a u f X         / F , [ F ,     O o     2.  %.% % % % 1.      9.T.  %.% # s *   ( F , ",
"` F , ..o e | 1 0 ; w X   9.    = 6.    g # X $            .K , [ F ,   . N 3     <.% l X d X % X y * s   s X s % % h *   ..J 1 ",
"[ F A | O < <   3 + : =   7.X   = -.    z X X $           ( B 1 [ F ,   . 0 Z o   d h k % k   X % % % X s   % % s % ,.X   +.F , ",
"` F 5 0 9 ~ 0 9 6 O c 8.x t.-.z c 0.i f 8.z z g            .F , [ G ,             X <.# %.  k   X j l k   X d X l % <.    +.B 4 ",
"` K N N 1 N > 6 O   X ;.u f 4.= g -.$ = *.# z             ( B 1 ` F ,               h y y s X d h X   % l * X l % l *     ( B 1 ",
"` F 4 O O 1 > .       = -.X ;.X & f   z u i $             ( B < ` F 4   . N         X l X d d X X l <.d   % k % * d       @.B 1 ",
"[ F ,                   i :.8.:.;.8.*.:.c &               +.B 1 [ F ,   o Z           X %.% % k l l l l %.d X d k X       @.B 1 ",
") F 4                     X u z $ = i =                   ( B , ) F 4     O o O         X %.l % X       X y l h           @.B < ",
"` F ,                             X                       ..B < ` F ,     o o o             % j <.2.e.1.,.d #             ..B < ",
") F ,                                                     / B , ) F ,                                                     ( B 1 ",
") F N / ( Q Q / (  .( ( ( Q / ( ( / / ( Q ( / / ( ( ( / / } F < ) F N / / Q Q ( (  .(  .( Q / / ( ( / ( Q ( ( /  .( ( / / X.B 1 ",
") F B B B F B B B B B B B F B B B B B N B N N A N B N B A N B 1 ) F B B F B B B N B F B B F B B B B B N B N B A N N B B N A B 1 ",
"G B A B 5 B N N  .B N B 5 N 5 F B B B B B B B B B N B B B B B , _ B B N 5 N N A ( B N B 5 N 5 F B B B B B B B B B N N B B B B > ",
"G B N 5  .I  .I 1 7  .5  .V  .N B F B N B N V J O.N N S 5 N B < G B N 5 +.V  .V 1 7  .7  .V  .N B F B N B B N L O.N N S 5 N B < ",
"L N B B V 5 7 7 ..5 I 7 7 5 7 V B N B V B N B A o.5 N S 4 , A 1 G N B N 7 4 7 V ..5 I 7 7 5 7 V B V N N N N N A o.5 N D 4 4 C , ",
"H B N N N N V V 4 7 C C N D C V C V V N V N N 5 5 N V 6 > 5 V 1 H B N N N V V V 4 5 C V C C N C N V N C C N N 5 5 V V 4 O 5 V 1 ",
"6 1 1 < < > > < > < 1 < < < > > O O O O + < O > < < > 1 < < < < 6 1 1 1 < > > 1 < < 1 < < < < < O O O o + > O > < < > , < 1 > < "
};
