/* XPM */
static char *result[] = {
/* columns rows colors chars-per-pixel */
"64 64 19 1 ",
"  c #181808",
". c #18210F",
"X c #21210F",
"o c #18180F",
"O c #212118",
"+ c #21180F",
"@ c #211808",
"# c #0F1808",
"$ c #0F0F08",
"% c #180F08",
"& c #0F180F",
"* c #212818",
"= c #282818",
"- c #28280F",
"; c #282118",
": c #212108",
"> c #21280F",
", c #182108",
"< c white",
/* pixels */
"       .X.oXOX+      .XXo       @ X.+.o     # oo.  $  # oo.o$ $ ",
"     o XXXo.X.XXXX+.+XXXX @ @  XXXXXXXXX      oo.   $ %& XXo # %",
"    o oooo  ooo.XOXXXoXXX      oXXXX**XXXX X  oXXo  oo  o.Xo    ",
" o  @.ooo ##$$  o.O=O-OX.@     oXXOX*;=*XXX.XXXXOXooX+ ooXO.o   ",
"    :XXo &%$#$#$ oXO*=OXX       XX..XXXXOXXX>OXXX*XOXXXoXOOOXXo ",
"o o@+XXXo#$#$ $o# oXoXoXXo  $o oooo  oXXXXXXXXX..XOXO*OXXXO*O..+",
"oo.XXOXX $$$#$ #o oo o oXXoo oooo   #  O*Xoo oo    o.XXOX..o   o",
"$  oXXXo #$$%$$%$  oo $ oo.Xooo $$$#%  .XXo o     # o oXX.o #%$$",
"$$$ oXXoo $$#   # ooooo$#ooooo $$$#%# o XXXo o  #% $ o oXXo    $",
"$$%$ +XXo $$%    oooo  o$$ooo $ $ %   oX.oX.     $   oo XXXo  # ",
" $$$ oXX o$##   +o o  &$  $ $ $  $ %  :XXX    o      XXXX*XXo   ",
"$$#$  XXo $$    .+  #   %    o o      XXXXX.o  o o ooX;=*=XXXX  ",
" $$$  XX. $$#   +.o o  $      ooXo   +XXX===XXXX.+oXXXX=XX.XXX  ",
"o  %   XXo $$#  o+ o o     @:XXX.+ooXXXX==*===XXXXX.XXoX.o   .@ ",
".o% % oXX  $#$ X o o  o    @@:XXXo oXXX===XXXXX=**XXXo  o ooo .+",
"Xoo % ,XX. ooooXXooo.       @:XX.ooooXXX>=X.oooX===>X,o o    o:,",
"XXoo  XXXX.oXXXXOXo.o. o     @:XX  ooXXXXX>X. oXX>=XXX o o    .X",
"X;OXXX.X=*OXOO*OXXXXXXXXXo    XXXX o oXX>X>Xoo o XX>XXo o o   .X",
"X*XXO=X*==XX.XO*=O*XXXX===X   @XXX. oXX=>>XX, o o .XX @o o..  XX",
"X X.XX>X*O.o o.XOXXXXO*===XX  ,XXXXo oO==X>XX        @o:o .XX.+*",
" #  o,XXX*Xo# o.oX.oXXXX.XXXX @XXXXXooXXXXXXX.       .:.:.XXX. X",
"$$$ oo..XXX&$$ oo.o .oo  oXXXXXXXXXXXoo.XXXX.o     oXo:,XXXXX.o ",
"$$$$  ooXX. $$$$ ooooX $  oXXXXX.XX:.+ooo.o.ooo   XX + @XXX>X+ #",
"$$$$$   oX+o $$$$# # o $$  XXXX.o.oo oo ooo . o oXX+X    oXXX.  ",
"$$$$$$#  o. o #$$$$$&o $#$o .XXXo o o   o oo o o.X+o o  o oXXo  ",
"$$$$$$$ # +X o  $#$$$$ $$ # oX.oo  o o      o .X+o    % oooXX   ",
" $$$ %#%  oXX   #%#$$$$ $#%# oXoo #%o o       +XX o#$$  % oXXX  ",
"  $   %    X     #%#$ $  %#%  o. o  oo        XXXo $%$$   o+Xo  ",
"           XX.o      %      $o oo oo o       XXXX  #$$$% o oXX  ",
" @o       @Xo: o              o oo ooo        XXXo $#$%   oXXX  ",
"  X X @      o  o:   @         o oo o X       @XXX  $$  ooXXXXX ",
"  oXXX.@ @       o:o@ @ @     oooo ooo.X::.    XXX o$#$   XXXXX ",
"  o.XXX.@ +    #o o:o@.@,+    oo. .o.oXXXXX:,  XXXX  % o oXXX@o:",
" +.X.X.o  X+X+o  o o o .@,o   oo.XXXXXXX**>XX,+XX*XXo  oo oX;X o",
" .XXX.o o  XXXXX  o   o    o %#oo.XXO*XX=>==XXXXO>O*XXXooo@X=XX ",
" +XXXXoo  o:XX-XX  @   o    ##$ o.XXXXXXXX>==>XXXX.XOXOXXo. X=X+",
"XXXXXXo &  oXXX=X :X@      %%#$$%  oo.oooXX*==X.Xoo ooXOXX X XXX",
"XX*X*X.    oXX-==X:XXX:    #%    % %   oo.XO==OXo.   oo.O.X , XX",
"XX====Xo   oXX=-==XX=XX    %        % oo.o.oXO*XX   #  oXXo.    ",
" o:X*==X. XX*==>====**XX             o .o. oooXoXXo %&  oOX     ",
"   oXX*==XX====XXX*X==X+o      +X,@ .@.oo o #oooo.Xoo o  XX.    ",
" # # .XX==O===XXo.XXX*=XXoo   +,XXXXXXo. o o%#  ooX*Xo o oXX.   ",
" o o oXXXXXX*OXooo o.X**XXXX+X +XXO=>*Xo  # #%#% o.XO.o  o.X.o  ",
"o..Xo.X.o.+.XXo  o ooXXOXO>*>XXo.X*-;*XX   #%#%# ooo.Xo   .X.ooo",
"XXOOX.XXo o oooo### ooXXXXXX*XXXoXXOXXXoo  % $#$#  oXXX. o.XOXo.",
".OXX.+o.oo o oo# $$#$o.X.o oXXXooo.X..o, o  % $#% o X==*XXO***OX",
"OX..o.o o #$oooo#$#$$#ooo & oooo   ooo o       $#% oX====OXXXO**",
"**o  ooo o $#oooo #$$$oo#$#$  o $$  ooo o       %#% XO*=*XXoo.XX",
".Xo#$# o  #%$ooo # o#$&oo$$$$$$ $ $o . o o o      # oo+XXOX    o",
"o.oo $$ &$ # oo   #oooooo$#$#$$    ooX. o   o        o oXX*X #o ",
"o.oX. #$ #&% o o o o.o#o$$$ %#$  oo X.X.o           @ o oXXOX  o",
".X..Oo  $  #  o .X.oo $$$#%#  #  :XXXXXXXXo + @ @@ @ @ ooXXXXo ,",
" XX.XXo       @X:XX  $$$$       @XXXXXXXXXXX +   +: @ @ ooXXX. o",
" oXXoXo    o XXXXOo #$$%        ::XXXX.o.oXXX:X   XXo@o . .XO. o",
"X o.ooXXo  :.XX>=X. o$$$    o :  XXXX.o oooXXXXX@ XXXo@oo.oXX.o.",
"XXXXoooXXXXXXXXXXX+ #$ #   @@X :  XXX.o  oooXXXXXo oXXoXX..oo.XX",
"oXO=XXooXXXXX.   .,o %$   @:XXX+   XX.ooo o ooXX.oo .XXXO.o##o o",
" oX*=OXXoX>*Xo #  o,o     @ XXXXo   .Xoo o o oo.oo & oX**X o$$##",
"$  X=>=OXXXXo        X    :XXXXX.   oo. o###$$ooXoo &o.X*.o$#$#$",
"$$# XXXXXXo  o #     XX @XXXXXXX.o   o o #$$##o...o o oXX.o $ $#",
"  $ o.o.oo        oo  XXX X=XXXX..ooo     $#$#ooXo.o & o.Xo #$  ",
"   o .XX     o     oo.X=XX XXXXXo.X oo     $$#o.X.o   o XX.#%#  ",
"    o..Xo           .XOXX+  X@X: o,X.o     $ #oo.X.o#o ooX.o #% ",
"   o o.XX o o      o .=X+ @  ,@o .+.X.o     $ o.Xoo o & o.oo #  "
};
