/* XPM */
static char *result[] = {
/* columns rows colors chars-per-pixel */
"64 64 102 2 ",
"   c #262F2F",
".  c #263131",
"X  c #2A3535",
"o  c #2D3A36",
"O  c #2D3738",
"+  c #2E3A39",
"@  c #313D3D",
"#  c #3E3D3C",
"$  c #403F3E",
"%  c #33403D",
"&  c #42403F",
"*  c #333F40",
"=  c #354142",
"-  c #394546",
";  c #3B4748",
":  c #3D4A4B",
">  c #454342",
",  c #484645",
"<  c #4A4847",
"1  c #414D4E",
"2  c #4D4A49",
"3  c #514F4D",
"4  c #52504F",
"5  c #424F50",
"6  c #455354",
"7  c #485657",
"8  c #475658",
"9  c #485759",
"0  c #4C5B5C",
"q  c #555351",
"w  c #585654",
"e  c #5A5856",
"r  c #505F5F",
"t  c #5E5C5A",
"y  c #615F5D",
"u  c #63615F",
"i  c #4F5F60",
"p  c #505F60",
"a  c #4F6062",
"s  c #526264",
"d  c #566768",
"f  c #57686A",
"g  c #5A6B6C",
"h  c #5D6F70",
"j  c #5E7173",
"k  c #656361",
"l  c #696664",
"z  c #6C6967",
"x  c #6E6B69",
"c  c #716E6C",
"v  c #73706E",
"b  c #617375",
"n  c #637778",
"m  c #65797B",
"M  c #687C7E",
"N  c #767371",
"B  c #797674",
"V  c #7B7876",
"C  c #7E7A79",
"Z  c #817D7B",
"A  c #85817F",
"S  c #6B7E80",
"D  c #6E8284",
"F  c #708587",
"G  c #718789",
"H  c #73898B",
"J  c #868280",
"K  c #8A8684",
"L  c #8D8986",
"P  c #8E8A88",
"I  c #918D8B",
"U  c #95918F",
"Y  c #969391",
"T  c #9A9695",
"R  c #9C9896",
"E  c #9E9B99",
"W  c #A19E9C",
"Q  c #A4A19F",
"!  c #A6A3A1",
"~  c #A8A5A3",
"^  c #AAA8A6",
"/  c #AEABAA",
"(  c #B0AEAC",
")  c #B3B1AF",
"_  c #B6B4B2",
"`  c #B8B7B5",
"'  c #B9B8B6",
"]  c #BDBBB9",
"[  c #C1BFBE",
"{  c #C2C0BF",
"}  c #C5C3C2",
"|  c #C8C6C5",
" . c #CAC8C7",
".. c #CDCBCA",
"X. c #D0CFCE",
"o. c #D1D0CF",
"O. c #D4D3D2",
"+. c #D8D7D6",
"@. c #D9D8D7",
"#. c #DCDBDB",
"$. c #E5E4E4",
"%. c #ECEBEB",
/* pixels */
"o O O X X X X X X X X X O X O O + O O O + O O X X X O X O O O O O O X X O O X O * O O X X X * O * * * X * O * * O * * O O * O O ",
"@ ; 7 7 8 8 8 8 8 8 6 6 8 8 8 8 8 8 8 9 8 8 6 9 6 8 6 6 8 9 9 9 9 8 8 8 8 8 8 9 0 i 8 8 8 8 9 0 5 6 6 6 0 i 5 8 8 8 i p 0 0 * * ",
"@ 6 g D H H G G G H H H H H H H H H H H H H G F F F F G G G G G G H H G G H H H S H H S S S H S S S S H H H H S S H H S S S 9 * ",
"+ 6 f m n g g h h j j j b h b b b m m j f d f g h g f g f g g h h n m S m b b j j g g p h g j j S j S S S S S S S S S S S S 6 * ",
"o 1 s n a % = * * @ * * * = = = = = = = = % % % * * * * * * * * * * * * * * * * * * * * * * * * * * * * * * * * * * * : p n 5 * ",
"+ 1 s n a X X + * * * * * @ @ + O + + X X X X X X X X X . . X X . . . . X X X . X X   O X X O O X * X * * * O # * * * : p n 5 O ",
"o : g m a @ J Z N l u w w y y t t t e t t k l l t u l k k t u u z l k l z z z z c z l y y u y z y y u k y u z S / / * : p n 6 O ",
"@ 7 g M f % v  .! Z x c v x t l x x x N N B v x B B v c z x l c N c V N N c C A B Z c C c z x v c z v C B C C | $.B * 5 f S 9 O ",
"@ 7 g D g = , _ $._ I Y I P P Z L I U L P U A P U A L L P A P L K P P P K P T Y P K P K Z A I P A L T Y P L [ %.I x O : g D 9 + ",
"@ 6 h D f = > k ] O.~ I Z T J I U R U P U K P U A L L U L P L A J Y I K L R W U P K U Z A P U K A Y R Y J / $.^ Z z X ; a D 0 + ",
"@ 1 f F d = > y l J } / ` ..O.O...` ) ) ] | @.#.#.#.o.| ` ` ` ) ` ' ) ' [ o.#.#.$.$.@.| } { _ / _ ` ` _ _ ../ P Z k X - 0 D 0 + ",
"@ 5 f H s % > w B x _ Z B J B C A V C A C A C B A L A A A C B A J Z B Z A Z Z Z Z Z Z K Z Z Z B I J Z N A o.P Y B u X - 0 D 9 + ",
"o 1 d H s @ , q x l ` B Z N B K C C A A Z Z B A A A A A A B B K J S Z Z J Z Z N Z Z A Z Z B B P L A N C A O.I R N u . - 9 F 0 + ",
"@ 1 g H d @ , q c N O.J B N Z J B Z A C B v A A C C A V A B A A Z Z J Z Z Z Z Z Z K Z Z Z B A I C N C C A o.U T v k X - 9 F 9 @ ",
"@ 1 h H s + 2 w v z #.B c C Z C V K V B B A B V V V A B C C L Z Z J L J Z Z Z Z A Z N Z Z Z P A B V C J C ..E J v z . - 9 F 0 @ ",
"O 5 b H s + , q e B #.C N Z Z C A B B B Z C C B A A C v V P A A K I J Z N Z Z Z Z N A Z Z P K B V C C C C } Y L B z . - 0 F 0 @ ",
"O 1 b H r + 2 , v B #.v C A V A V B V C A A N v A B B B A L A A L K Z V Z A Z K C Z Z Z L K Z N Z V A A Z ] J P V v . = 0 D s + ",
"O 1 n H 6 X $ w u v o.V K v Z K B B V J J B B C C B B A P C K A I Z V Z Z A L V Z Z A A K A B Z V Z J A P _ J T V c . = p F i @ ",
"O 1 n H 1 o > 2 x x ] Z V B K Z V B K A V A Z Z B C A I A A A A A Z Z Z Z K A C Z J C A A N C C A P J J J _ I Q c x . = i G p @ ",
"O ; m H 1 X $ 3 l u ' V v K A Z v C J V C A Z V B K A K C B A A Z Z C C A K Z C Z A Z K C Z C C P J P P Z } E I v x . = p D s @ ",
"o : M H , X % y y l ` v Z P V B V J B C C C V B A L L A B B P A Z Z Z A J Z Z C K C K K C Z B K J K I A A @.Q A v l . * s D s @ ",
"o 5 M G ; X & 4 u B ^ B P Z V B A V v Z Z V B C P A K B C A A C Z Z Z K J Z B K C A L C Z B A L A P P V J #.Y J Z u   * s D p @ ",
"o 5 S G - o & 4 c l ( K A V B Z C v C A V V B J A K B B A K B V A Z P A A V Z J Z I Z V B C K Z A P A V U  .K R C k . * d D p + ",
"O 6 S G , . & y l t | L Z B v A v B K A B v Z J K A C A U C B A C L K K Z C J Z I K V V B Z C Z P A A P L ( P E V k . + d F p + ",
"o 6 M H ; o , u t u o.A B v V c B K J V v C K K Z B A P A B C Z K K A C V K Z I P C V V Z A A I A Z K L Z ) W Y B k . * i G p * ",
"O 6 F H , X 2 4 u B o.A B B v x A A C c B K K A B A P K C Z B A L K Z V A A K I C Z B Z C A L K C A P Z B ' E I B z   * p S i * ",
"X 1 M H 1 X , 3 v B  .Z v B x Z A C v B A U C B A A U C C V C K J J Z Z L K U K C C Z Z C K P Z C P A C A ' L U B l . O p S i O ",
"X 1 F H 1 X & e V v { v Z x C A A B C Z P C C B A P Z V A B L A A Z V K A I K C Z C A C A I A Z A J Z C I ' Y I Z z . * d F i * ",
"X 1 S H 6 O $ u B z ` A x B K A v C C I A B B A P A A V v K A A Z B K A L L Z C Z A C Z I A Z A A Z Z K P | Y W C l . @ d G i + ",
"O 6 M H 7 + , u x u ] v v Z C v B C P A V B A K K A C C P P A A B A K K I C Z C P Z C P K Z C Z A C Z P P o.E W B l X + d G p O ",
"+ 6 M H r + < y u B / v B C B B V A K C B V P U A C C A I A C V C K A U Z Z V L Z Z K A C C Z K Z Z P A K +.~ T z v X * h G s O ",
"@ 7 M H 0 o & 4 x x ^ B A B v B C K C B C K U C C B A I C A C C K A I Z C V L K C K K C B A L Z Z A I K A $.~ L B l X @ h G d X ",
"@ 9 M H 0 + # w z w / Z C c V Z J C N V J I Z Z B A P Z Z Z C K A P K Z C K L Z Z A C B Z P I A Z I L A P $.! K C k O @ g H d X ",
"% 0 m H 0 o > y q y ) C N B V J Z B N Z U Z C N V J K V V A K K K I Z Z Z I Z Z Z C B C K I K C L P Z K Y $.T T B z O * g H d X ",
"= 0 m H 0 o > q w l _ V Z Z Z Z B B C I Z Z B B J K Z V A A A K I V Z Z K C Z Z C V C A I P Z Z P K A P K O.W E B z O * h G d X ",
"% s m H 0 @ < 4 u c ( Z C Z Z B B B I Z B Z N A J A Z A A Z J I Z V Z L Z C A Z V B Z P P Z C P K A K K N | ~ Y C l O * g H d . ",
"= p m H 0 @ > q c u ) C V A B B B P Z B B v Z K A Z Z K Z A I A B A K Z Z Z Z B B C L I A Z A L J P L B B | ~ T Z l O * h H p O ",
"% p M H 0 @ > e k y _ B K V Z V K Z B N V A A J B Z J Z A P K V Z A K C K Z V B B A I K C A K A Z I Z C A  .~ Y B u X * g G p X ",
"% s m H 0 @ 2 t w z ( J B B B J Z C N B Z J J V Z P A J J U Z Z K A C P K V B B Z P P Z Z A K A P K B A U | W P c y X * f H p X ",
"= s S H 0 o 4 2 l l ] Z v B Z A Z C Z Z Z A Z Z J K J J P Z B K K Z A P V N N B K P Z Z K A A L P B K L Y } Y Z B u . * h G i O ",
"% r m G r o , q k c ..B c B Z C Z B B C K C Z J A A K I J V A P C Z L C C B V K P Z C K L A K P B J J I Y ' J I N u . * b G 0 X ",
"% r m H p O 2 4 k B ..v B J V B Z B A J C B J J A I I P B A K J A L Z B Z C J I K C A K Z A I C Z K P Y I ) K I z l X - g G 0 O ",
"= r b H d o , 4 c c #.B A C v Z v Z J C Z Z J J K K K V V J P A K K C K C Z I L B Z A Z Z L Z Z I Z I Y Z ( Y J N y . * h G 9 O ",
"@ r b H s @ > y k l #.P C B B c C Z B V Z J A P J K A B A K A A K Z Z V Z P I V B A B Z Z Z B L J I Y Z N _ I A Z t X * h G 9 O ",
"= 0 b H s % 3 q t u O.J v C N B Z B V Z J Z P Z K Z V A J A Z P Z L Z A K I C B A Z C Z A B P Z K Y J N Z ' Z R Z y X - b G 7 O ",
"% 0 b H s @ 2 4 e z O.C N Z N K C V Z K Z P J J A Z Z J J A P A A C Z A I A B Z Z A C K Z A A A Y K B V K [ Y R B y . - b F 7 O ",
"* 0 b H s @ 2 q k B ..Z C c K Z V C J Z P Z J J A V K K A J K P C A A I K B B Z J V A C K K Z I I B B J Z X.^ U c y . - n F 7 O ",
"@ 0 b H s % , q c l ` J B J Z B J J Z I Z K Z J V K K A J P K Z A A L P V B Z A C C A A L Z L Y Z B J Z Z #.W I c y X ; m F 9 O ",
"% 0 b H s % < y z u _ V A A V A J A I A A Z A V J P A J K K Z A K A U Z v V A Z C A A K Z A U A B Z J V P #.W K c x o - m F 7 o ",
"@ r n H s % < u x N _ V A Z A Z V P P Z J Z B A P Z Z P P V Z J A P C v Z C Z B A Z K A A Y A B Z J V C K #.I Z B x o ; n S 7 @ ",
"@ r n H s % 4 u v v ( B V Z V N P P A J J B Z J Z V P J V C K A U A v C A C B A B A K Z U P B B J B B V I #.I K Z z X ; b D 7 O ",
"* 7 b H s % , e c u _ Z v A v L I Z A J B V P V V K K Z B A A P A v B C C Z A B V A C K U B B C C c N Z K X.P Y J z X ; b S 7 + ",
"@ 6 b H r @ 4 e z z ) z A v A P C C P V Z A Z C J J Z V Z Z P J B C A C A A B C V B A U C B C A Z N B Z J ` I T Z u X 5 j D 6 O ",
"@ 6 b G r @ 4 y u I +.` ( ( [ ` ..@.O.O..._ ` ` ` { {  .O.o.O.o.{ | { ` ` ) ( / ) ) | ..o.o.#.+.X...] _ ( X...I v u X 5 b D 6 O ",
"@ 6 b G 7 % q e R o.Y u u Z x u c k y v z B V v v x N l l Z z z B C C u c u u u x C x x x v v x c B x x l Z X.` K l X 6 b F 6 O ",
"* 7 n F 0 @ y W #.L u u B v u z l t x l V N u z u B x u B z y x v v x x u t y l B v l x B v u u B l l k c N B $.) u X 6 n F 6 + ",
"* 8 j F 0 * K | v 4 4 u e 4 3 4 4 w q y e 2 e 4 t q 4 y y q e t y t u q q 4 4 t t w q y e e 4 t 4 q 2 q e w w P o.Z % 0 M D 6 + ",
"+ 6 f m 6 ; K z 4 , & & & & , & , , 2 , > > , 4 2 2 2 4 , q 2 2 & < < < < < 3 2 , 2 3 2 2 > , , < < , < > > > 2 t u = 9 m m 6 o ",
"* 6 d n 6 : - ; - - ; ; ; - - % = = * * + + + % + + o o % % % + % % o o o % % % @ @ @ @ + + o % % % = ; : : : : - - - 9 n j 7 @ ",
"@ : h S f h h d p p 0 0 0 r 0 r i 0 0 i 0 0 9 a a 8 9 0 a 9 8 0 0 0 0 8 7 6 5 : 5 6 6 8 7 0 a a a a i 0 8 i p p s d s f m j 7 o ",
"= 6 n D F H H H H F F F F F F F H H H H H G G F H F D D G G G G H H H H G H H H H H H H H H F F F H H H G H H H H H H F D b 9 % ",
"% 7 M D D D F S D S D M m n b b j b h j n n n S n n n j j n j n j j b j j j j j h j j j j b b j b j b m m m m m S S D D D j 8 @ ",
"% : 8 0 9 7 9 0 9 8 6 5 1 6 9 7 5 5 6 5 5 6 6 : 5 : 6 : : : : : : : : : ; : : : : 5 5 6 1 1 1 6 7 8 0 0 0 8 0 9 8 8 6 5 5 6 : + ",
"+ + = - * @ * = - - * @ + + + @ + + O O + + @ * * = % % = = - = = - = - = = % % @ @ + + @ = = = @ @ + + + O O + @ @ @ @ * % + + "
};
