/* XPM */
static char *result[] = {
/* columns rows colors chars-per-pixel */
"64 64 23 1 ",
"  c #282828",
". c #202020",
"X c #171719",
"o c gray19",
"O c gray25",
"+ c gray22",
"@ c #484848",
"# c #585858",
"$ c #606060",
"% c #686868",
"& c #505050",
"* c #101010",
"= c gray3",
"- c #1C1C24",
"; c #381C18",
": c #613E2F",
"> c #56322A",
", c #2C1414",
"< c #452723",
"1 c #714A37",
"2 c #0E0E1A",
"3 c #7D573B",
"4 c white",
/* pixels */
"                            .   XX                              ",
" oOO+ +oooo+o  +o   oo+++ooooooo++oooo++oooo++o oo+oooo+o  +OOo ",
" +@OOo@O@@@@@OO@@OO@@@@@@OOOO@@@@@@@@@@#@@@@@@OO@@@O@@@@@OoOO@+ ",
".+@$$$$$$$$$$$$$$$$$$$$$$#####$$#$%$###%%$###$##%%$$$$$$$$$$$@+.",
".+@#OoO+OO+@@@@@@@@@@+O@@OOO@@OOO@@@OO@@@@OO@&+@@@O+OO+@@@oO#@+.",
".+O#O o ++o+++++++++O+++++oo+++o  +++o+oo++o+@.oOOo ++o+++ O#O+.",
".oO#@+***XX*X***X*X****X*X****XX=X-*..*XX*XX*X*X*****XX*X*+@#Oo.",
" oO#Oo*;:>;>>;;*-;>>>;>..  ;.... .=,;,. =,;,. >>>>;; X>:;*oO#Oo ",
" oO#O *;:>;>>>;> -  >>o>>::>>>>>o   ; o>>>++>>::  ;  >>:;* O#Oo ",
" oO#O+X;o>o<<+>>+,+>+>>+>::::>>><o+<<++:::>:OOo:    >>>o;X+O#Oo ",
" +@$@+*X>>O>>:O11111>>>:::1111O:11:O+:::::Ooo.::1:::11>>X*+@$@+ ",
" +@$@+X  >>>>:111:>:>>:>::111@::::1O+::1>:1 +::>:1111>>  X+@$@+ ",
" +@$@+*;  >:>O1111>>>>:>:1111O::::1O::1:::o ::>:1:111+  ;*+@$@+ ",
" +@%@+*;; >:&1O:1O+::>:1>:::::::::O1::::1oo++111::O:>. ;;*+@%@+ ",
" o@%@O*>  :OO1+:11:>::::>>:1:>:::+O11:1:1ooo:o1&1>O+>+  >*O@%@o ",
" o@%@O*>  >:1111:11:::1::>+>>:::O@111O+X;o+:o+:::::O>:  >*O@%@o ",
"  O#@oX>::O++1111>::::111>OO:::1@O+o2oO: oo:::::ooOOOO::>Xo@#O  ",
" oO#+.*>:o+++11::>::::111::1:::O++ +.+OO oo:o:+o>>>O::o:>*.+#Oo ",
" +@$&@X >O o>::oO>>:::11111O:::OO+1>oX+O:oO+ooo> o>:+1O> X@&$@+ ",
" +@#@+*.>Oo;>:O>O>>::111111:::>O ++ + +::>+o+::::O:1+1O>.*+@#@+ ",
" o@#OoX,+:oo>+O:::>::1111111::>>+o+OoO O:1Oo:1OO+>O1:::+,XoO#@o ",
" o@#O+X;+>oo++OO::>:1111111111o: +O  o.>>>1:+:++: oO11>+;X+O#@o ",
" o@$@+*,>:>o+O+>:1>o:11:11111:: oo: +o>+XO>11:1>oXo.XX:>,*+@$@o ",
" o@%@oX=>:+o+>:::1:>>:1111111@O++:> o  O.>>1:1>>o>O>o.:>=Xo@%@o ",
" +#%@oX >: O+O>::1:1>:1&11111o+++++::+>+: >:>:1o>:>>@1:> Xo@%#+ ",
" +@#@+*.o+.  O>::1111::111:1o+OoO+o1:O:1>XXo  Xo>>>1O3+o.*+@#@+ ",
" o@#Oo., +o +O::::O111111::>@111:O;O:+::1+ +o. oooO1O1+ ,.oO#@o ",
" o@#O+.;;< oo:O>:1O1O11:::o:#11:O++::o:1OO :o>o o>1oO1<;;.+O#@o ",
" o@$@+*, < oo+:O:>o >:1::o13311:>+++++::>O :+o>. >O:+3< ,*+@$@o ",
" o@%@+-= +O1 OO:+ OO+:1:o111311:++++o>:+O+.>>++ .>O>>1+ =-+@%@o ",
"X+@$@ X. o13.3>>>  :oo1:o:1O:O1O+  + ++oO+- O>++ :X>11o .X @$@+X",
"X+@#O = o<11 11:>  :OO:>+>:+OO&O++oo+O oOO oO>oo+:,>11<o = O#@+X",
" o@$OoX.>> ++1&1O :>>O+oO:++O>O11OOO   ++  ++oooo:O:+3>>.XoO$@o ",
" o@$O+X.>>  @1111+:>:OOO+O+>:>:11:OO+> ++ o+++o.o:++o:>>.X+O$@o ",
" o@#@+*.>>o 311:::::>++OO:OO:+O:O:O 1+:o +O>+ oO+>1+1O>>.*+@#@o ",
".oO#@+*.>::&O11>>:::O>::O+OOOOOOOO:O>++oOO:+>+  o+1&1O:>.*+@#Oo.",
" oO#Oo*;>:>+11O>>:::::::O+OOO:+o++>>o:  >OO+OOoo +1+1+:>;*oO#Oo ",
" oO#Oo* ::+1&11:>1::::>::>+O>Oo  + >   +O+oo+++>o > 1O:: *oO#Oo ",
" oO#O+X :::13OO+>11::::::++>OOOOO > . Ooo  >>+>>> +1Oo:: X+O#Oo ",
" +@$@+*.>>+1OOOOo>1:::::O>+O>OO o  + oO+ o>+o>>>+o + +>>.*+@$@+ ",
" +@$@+X.>++O1:O111::>:1::::OOOOO+o  .o+++ +oo++>o +o>O+>.X+@$@+ ",
" +@$O+*>o>+::1:111::::>>::>+O++o o o  o+ ++o>+>>;X++>:>o>*+O$@+ ",
" o@$++*;>>OO>:11@131>>>>;;:>>o&Ooo o+  ++>>+>o>>;XooO1>>;*++$@o ",
" o@$@O*>>+1+1O:11111:+;>>,:>>>1O    ;o + o+++;+O>;oo+1+>>*O@$@o ",
"  @$@+*> >1>o31O>+OO+::::>::o>:>+         O>>>+:;+o>>O> >*+@$@  ",
"  O$@+X> +1>&1&1>+::1:1::>>>o>::oo  o >>o+O>>>>>>>oX>o+ >X+@$O  ",
"  O$@+*;-,O@31111>O+:11::::>O+::+oo  o+>>  O:O>++   o+,-;*+@$O  ",
" o@$@+X- +O111111+OO:11>::>:O+oO++oo +++>>O:O::++>;+X++ -X+@$@o ",
" +@$@+**>>OO111111O1:O+ +O+1oo1oo>+OOo :+,o++O+++++ Xo>>**+@$@+ ",
" o@$+oX;;>OOOOOO1>>.+ oo++ oooooooo>+ : oo:o+1O1:O+  X>;;Xo+$@o ",
" o@#O+X;>+:1OO:o1 o-o- o+oo,O11oooo+  > oo+>>O@@1O   X+>;X+O#@o ",
" o@#O+*>><1O++OO+:; o++++o:+>+1111.o+o  o>o>:+>: +>:oo<>>*+O#@o ",
" oO#+ *>><1:>+O+O:: >+o >>+++1+1+3>++ ooo> o oo1OOO++o<>>* +#Oo ",
" +@$Oo*;;oo<<+>>+,+>+>>+>::::>>><o+<<++:::>:OOo:    >>o;;*oO$@+ ",
"X+@$@+*.o ;>>>;> -  >>o>>::>>>>>o   ; o>>>++>>::  ;  > o.*+@$@+X",
"X+@#Oo=  +;>>;;*-;>>>;>..  ;.... .=,;,. =,;,. >>>>;; X+  =oO#@+X",
"*+O#Oo***XX*X*X*X*X****X*X****XX=X-*..*XX*XX*X*X*****XX*X*oO#O+*",
"XoO#@+o ++o+++o+++++O+++++oo+++o  +++o+oo++o+@.oOOo ++o++++@#OoX",
"XoO#OoO+OO+@@@+@@@@@@+O@@OOO@@OOO@@@OO@@@@OO@&+@@@O+OO+@@@oO#OoX",
"X O$O O+OO+@@@+@@@@@@+O@@OOO@@OOO@@@OO@@@@OO@&+@@@O+OO+@@@ O$O X",
".oO$$$$###$$$$$$$$$$$$$$$#####$$#$%$###%%$###$##%%$###$$$$$$$Oo.",
".oOOOo@O@@@@@O@@@OO@@@@@@OOOO@@@@@@@@@@#@@@@@@OO@@@O@@@@@OoOOOo.",
".oOOO++oooo+o o+o   oo+++ooooooo++oooo++oooo++o oo+oooo+o +OOOo.",
".                           .   XX                             ."
};
