/* XPM */
static char *result[] = {
/* columns rows colors chars-per-pixel */
"64 64 196 2 ",
"   c #080008",
".  c #000808",
"X  c #0B0C0B",
"o  c #060402",
"O  c #180F0F",
"+  c #0F180F",
"@  c #18180E",
"#  c #0F0F18",
"$  c #180F18",
"%  c #0F1818",
"&  c #181818",
"*  c #21180F",
"=  c #210F18",
"-  c #211818",
";  c #281818",
":  c #390F08",
">  c #0F210F",
",  c #18210F",
"<  c #0F2118",
"1  c #182118",
"2  c #182818",
"3  c #25210F",
"4  c #233C0B",
"5  c #212118",
"6  c #282318",
"7  c #0F1821",
"8  c #181821",
"9  c #250F25",
"0  c #211821",
"q  c #301821",
"w  c #0F2121",
"e  c #182121",
"r  c #182821",
"t  c #182128",
"y  c #182828",
"u  c #183028",
"i  c gray13",
"p  c #212821",
"a  c #282821",
"s  c #212128",
"d  c #282128",
"f  c #212828",
"g  c #282828",
"h  c #282121",
"j  c #302828",
"k  c #302128",
"l  c #213021",
"z  c #283021",
"x  c #213028",
"c  c #283028",
"v  c #283928",
"b  c #23392A",
"n  c #303028",
"m  c #393928",
"M  c #353521",
"N  c #212830",
"B  c #282830",
"V  c #282839",
"C  c #213030",
"Z  c #283030",
"A  c #213930",
"S  c #283930",
"D  c #283039",
"F  c #213939",
"G  c #283939",
"H  c gray19",
"J  c #303930",
"K  c #303039",
"L  c #303939",
"P  c #393939",
"I  c #393035",
"U  c #302830",
"Y  c #550F0C",
"T  c #632118",
"R  c #413939",
"E  c #6A2139",
"W  c #214918",
"Q  c #28490F",
"!  c #1A661E",
"~  c #185921",
"^  c #215921",
"/  c #264136",
"(  c #394139",
")  c #304139",
"_  c #304121",
"`  c #186A21",
"'  c #306330",
"]  c #3B6A2D",
"[  c #0F590F",
"{  c #51690F",
"}  c #726A18",
"|  c #515139",
" . c #464433",
".. c #676737",
"X. c #6A6A28",
"o. c #393941",
"O. c #373947",
"+. c #413941",
"@. c #394141",
"#. c #394149",
"$. c #394949",
"%. c #374741",
"&. c #414141",
"*. c #414149",
"=. c #414949",
"-. c #494949",
";. c #464641",
":. c #495149",
">. c #495141",
",. c #545446",
"<. c #414951",
"1. c #494951",
"2. c #454555",
"3. c #415151",
"4. c #495151",
"5. c #495159",
"6. c #495956",
"7. c #515151",
"8. c #515159",
"9. c #515959",
"0. c gray35",
"q. c #545653",
"w. c #51494C",
"e. c #635959",
"r. c #556359",
"t. c #636359",
"y. c #515963",
"u. c #595963",
"i. c #59596A",
"p. c #515163",
"a. c #635965",
"s. c #596363",
"d. c #59636A",
"f. c #596A6A",
"g. c #516368",
"h. c #596372",
"j. c #596A72",
"k. c #636A63",
"l. c #63636A",
"z. c #6A6A6A",
"x. c #666664",
"c. c #6A726A",
"v. c #63726A",
"b. c #72726A",
"n. c #666972",
"m. c #726A72",
"M. c #6A7272",
"N. c #637272",
"B. c #727272",
"V. c #726A6A",
"C. c #935E08",
"Z. c #B51841",
"A. c #CE1849",
"S. c #378B37",
"D. c #398C39",
"F. c #399339",
"G. c #469633",
"H. c #49A539",
"J. c #419C41",
"K. c #49B549",
"L. c #6A8372",
"P. c #728372",
"I. c #BDBD21",
"U. c #A38D12",
"Y. c #D6BD0F",
"T. c #EACB0F",
"R. c #83836A",
"E. c #686A83",
"W. c #726A83",
"Q. c #6A7283",
"!. c #637283",
"~. c #727283",
"^. c #6A7293",
"/. c #837284",
"(. c #6A8386",
"). c #728383",
"_. c #72848C",
"`. c #728393",
"'. c #838383",
"]. c #83838C",
"[. c #838C8C",
"{. c #868995",
"}. c #8A939A",
"|. c gray61",
" X c #8693A5",
".X c #9393A7",
"XX c #939CB5",
"oX c #93A5B5",
"OX c #93A5A9",
"+X c #A5AAB5",
"@X c #A5B5B9",
"#X c #9CA5DE",
"$X c #B5BDC6",
"%X c #A5B5C6",
"&X c #B1C6C6",
"*X c #C6CEDE",
/* pixels */
"# O # X % # X # & & & % X # X X X X & % X X X # X @ X # O X X X # O # X % # X # & & & % X # X O X O O % O X O X X # O X X # X + ",
"X # X X X X X X   X X X X   X @   X X X X X t p r 8 t e M 4 & X . o   X X X X o X X X o   . X X X . X .   X B c S H H B J E q X ",
"i n m _ m m M M m S a g g g c B v g g c 1 X Z B f f g f Q G.4 X < & e < 8 8 < 1 e 1 8 1 < & w e < 1 & & % X c f f s s f k Z.d X ",
"e f c I S x 6 x c B Z i f f p p f r f 5 r # L f s & # % ; 4 @ X & e Z D B D G S D S D Z H F A K A D S C 7 X g f i 8 & & $ q e X ",
"w f X X X . X X X X X X X X X X X + X X 0 X L f X R :.K & @ & X & s S 1.U L :.Z L 1.j G 1.j L 1.g G 7.j 8 X g 6 % H -.j 8 # 8   ",
"e f p e 2 z x y 2 1 r r 2 i x y 2 f x y r X Z   a z.$X:. .% # X e i C i g C i f S p g S s a Z p a Z i g e X g X i 9.OX=.P & + X ",
"1 i X X + X X X X . X X + + X X X X X w i % Z X % J :.P & % % X & r N # g Z X s C X f C # 6 S X g S X g 8 X f X % H ;.H & + + . ",
"& Z S Z f f f b b S Z Z c g b b g Z S Z G % Z s X & g # & % 8 X & i C f f N d f D p g Z s c Z f g C f g & X f i X 6 i % & & & X ",
"8 + + + + + + + + + + + + + + + + + + + + & B f i # # % # i t X 7 8 i p i e f r p e r s s e i e p p e i 1 X c i 0 + % $ X i t   ",
"& Z -.*.8.5.9.l.8.1.5.7.8.7.7.7.7.7.7.8.( O Z t f f f s g f g   1 f K #.2.1.-.1.<.1.1.-.-.-.:.-.@.( o.&.S X g y f i 0 6 f s g X ",
"e 0.`.#X|.|.].[.'.Q.B.B.~.B.X.X.B.B.M.M.4.X B X e # i X s X f X e -.~.}..X}.{._.m.Q.a.!.l.h.m.n.u.q.4.u.@.# g # e # e # i X 8 X ",
"i '.$X*X#X|.{.~.[.Q.M.B.n.E.B.B.c.z.k.B.4.X B X & X f X g X t   i m.@X&X%X+X}.`.L.W.N.z.B.~.M.b.d.e.y.e.@.X f X i X t X g X 8 X ",
"e [.$X#X#X|.|._.[.).~.~.'.B.B.c.B.c.B.B.6.X G & i f f e g e p X f ].&X&X@XXX}._.(.~.).~./.P.'.L.n.r.e.n.=.X g e 8 e s 8 e 1 e X ",
"i `.oX#X#X|.{.~.).].[.].[.].B.'.R.B.c.z.7.X X X # X X X X # X X p ~.+X+XoX.X}.).W.)./.).'._.'./.n.N.g.s.3.X X +   X X X X X X   ",
"e )..XoXoX.X].'.'.~.~.'.'.[.'.R.M.R.0.B.6.X Z Z J Z Z B Z c e X p N. X X X{._.)./.)._.'.'.'.].).Q.b.y.m.-.+ B B C c f c x Z y o ",
"t ~.`.].`.`.]._._.).B.'.'.'.'.R.M.l.x.u.4.  H , > + , > 1 , g X e h.Q.^.].{._.).).Q./.~.~.[.].].M.c.t.s.=.# g r r e e e r e 2 X ",
"e f.~.].`.].].~.'.'.'.~.M.'.'.M.'.z.k.k.<.X Z g ].1 ~.e '.1 f X e 9.!.Q.!._.!.!.E.).~.)./.].).b.v.0.t.u.*.O N t e # w # 2 w e X ",
"e i.).).].Q.`.'.Q.M.Q.B.'.).B.'.V.r.0.0.&.  Z p g & x % f + 0 X 8 2.i.l.N.d.N.N.v.V.~./.].P.B.B.r.8.7.w.( X C r y 2 y w r t r o ",
"e 0.B.Q.'.Q.).Q.M.B.B.B.).B.B.z.c.x.u.7.@.  Z e + + + + & $ f X i 1.y.k.h.d.k.h.z.L.B.M.(.B.B.k.e.7.-.,.P # f # r # 2 X i X e X ",
"e 9.g.B.E.c.B.E.B.'.).B.B.B.c.k.t.l.8.,.P X Z f p 1 1 1 5 & f X i <.y.y.h.a.j.l.k.n.W.P.z.m.b.n.q.4.-.-.) X c r x t f y x f f   ",
"1 5.y.~.f.c.E.k.M.c.z.'.B.B.B.B.l.s.7.4.@.X g y 5.% 5.< 4.X r X i ;.1.1.6.d.l.h.z.N.B.B.W.z.e.b.q.:.&.>.n X f + y # y + f X y X ",
"e 8.8.g.k.x.n.n.l.l.B.z.B.c.'.l.k.y.,.-.L X Z p O X & # X % g   & @.&.*.4.0.n.l.l.c.B.n.b.x.t.0.3.,.;.&.S # B x C u A y C x C X ",
"e *.1.8.9.7.s.i.u.z.s.k.x.x.7.0.u.-.$.=.g X Z f R + L + L X s X i D P @.O.<.0.i.e.i.l.k.e.s.7.e.-.;.( P B X c x x + c % x A u . ",
"8 o.@.*.3.1.:.7.p.8.9.l.7.-.-.-.+.=.-.P M # Z e # + & + X + f o & P P ( *.$.-.+.y.r.0.8.e.q.7.w.=.P R P j # c F A A S x S c v . ",
"8 @.o.#.=.<.#.=.=.<.<.*.-.=.P &.&.-.( &.g   Z p =.% 3.p 4.& Z X e o.O.o.@.#.*.*.*.=.*.-.*.=.*.*.+.o. .@.x X B S G D T g A S Z X ",
"& K Z c P F L o.L P P -.&.-.-.&.@.( P I B o B c X + 1 + X X e X 1 V N f D Z K K K P P P P P P R L P P H g # c F / Z : g G G S X ",
". X X   X X X X o X X X X # X & X O X $ + X Z f 5.@ 5.& 4.X y X X X X O + > + + X O X # X O X X # X X X X   g G / G - g G G F   ",
"& 8 S ] J.K.J.] e i x.e t D.8 i l.e i S.1 X Z i X X = # X # B X & 7 b ' D.H.F.' e - Y e i 8.a i q.y s 7.i X c A / A f c S S A X ",
"8 1 + + & & @ % e 8 & 8 e % 1 e & e i @ e X c i [.O [.O [.X i X 1 e , 1 1 2 1 % e e & 0 e e i $ 1 1 e 8 & X @ 1 + + + + + % + X ",
"# X O X X X X X # X X # X O # X # X O X X X e i X . X X X X a X # X O X # # % % # X # + # # X $ % # % # % X X X X + # X + % O   ",
"X X X X X   X X X X o X X X o X X X X . X   + + @ X + X X + + X X . X X . X   . X o X . X X X X X X X X . X . X X X X X . X X X ",
"a f a g f g f g f g =.i e e e 1 1 1 7 0 1 X X . X o X X X o o X g f g g f g g a f g =.i e & e 1 e 1 8 - 1 o X X   X o X o X X X ",
"& # & $ & & 8 & % $ % & & & # & + & # % # & % % % # < % % # % % 6 8 X . + X . X X + + X X X X X X X X & i   X X . X 1 e 1 e a X ",
"# X O + X # @ X X O X X + X & % & X # + # X % # # # X & X O + X a Z c e 2 e r 2 r e X 1 2 %.u e 2 w e 2 e X e f N f + p p p 2 X ",
"X + X % @ % @ # + O X # # + % & & & & $ + & + & # & X X % & % & i e X X X X X X X X . X + % X X X X X i i X D @.&.P 1 r f g f X ",
"& @ # O O X X # # X X O $ $ & & & & & & % X % X X O # # & % % & i p e e %.1 2 5 0 e 2 i 1 O 1 e 2 e e i 0 X f 9.9.e 4.+ ].g '.X ",
"& & & & & & & & & & & X + X + & e e e & & % $ & & % & % # & & # e a @ X X X X X X X X X X X X X X X X 1 i X Z M.~.@ 1 + & % 1 X ",
"& # X + X + % # X O + @ O @ @ % @ % $ & % O + # O X $ # @ & & & i p & t + 5 e 2 i y 2 i 2 i e i r 5 e e t X Z '.'.1 4.1 E.a y.. ",
"& X B g g g g g f f g f X @ Y.O g c & & # X & X X + O # + X & % i # X X X X # X X X X X X +   X X # X % t X v |.|.1 & + 1 % & X ",
"1 X # X X X + X # X X # X o @ X O X & # + X @ + # & % $ & & & & 8 X o X X X o X X   X X   X X o X   X X e   Z '.[.1 3.g B.g M.X ",
"p % g f g f y f f g f g X X T.@ g g $ # % # & % + $ @ # + & & & s X X X X X o X o ^ X o X o X X X . X # s o Z z.b.% & + 1 + 1 X ",
"8 X X # + X X # X X X # X @ X X % X + + X # @ & % & & % + $ # % t X X   o ^ X . X ^ + ^ o X X X o X O # s X x 5.0.& 4.1 ~.g 9.X ",
"- & i & & & i & & & & & @ & & & & & & + $ + % % & % % $ & & & & i o . ~ . ^ o X . ^ X ~ X . X o X ~ . X t X Z @.%.% @.% @.& @.X ",
"& e & e & & & & & & & & & & & & % & % $ % $ $ & & $ & & $ % & % t X X ~ X ~ X X X ! . ~ X ~ o O X ^ X # N   @.@.@.P + + - + f X ",
"& & & & & & & & & & & & & & & & & & & & $ & & & & & 8 & & $ + & s     ~ X W . X o ~ X ~ o ^ . X o ~ o X f   f Z B 1 # a A.g ! X ",
"& & % + & & & & & & & 8 8 & & % & & & % & & & & 8 & & & & & & & y X o ~ X W X W X Q o W X W X W X W X X 8 X X X X + 2 6 Y c F . ",
"1 & & e & 7 & e e & i 8 y i & & & & & & & & 8 & 8 & & & & & & & e X X W X W o A . c . W o W X W   W X X f # r 1 i p g c c f x X ",
"X X X X X X # X # X X . X O # 5 @ { I.{ X i 8 & & 8 & & & 8 & 1 t X o X o X   X X X X X X   X .   X X # e X M.e '.f '.< ~.e r.X ",
"y 0 f s g f f g f f f g f s g s @ X + X X & & & & 8 & i 8 & & & f i t p s p g s e i f f e t t e y t e e t X (   @.X P   o.X %.X ",
"& & & & 8 8 & & & & & & & & & % & % % & 5 & & & & & & & & 8 & 8 X X   # @ O X X X X X X X O & X X X X X X . % + + + % + % + + o ",
"& & & & & & & & & & & & & & # X & 1 1 2 & & & & & & & % & & & 8 e e _ } I.T.I.} i e x.8 s l.e i l.r t U.w X X X X X X X . X X   ",
"X # X # & X @ X X # X @ X X X & & { K.{ + & & & & & & & 8 & 8 8 i i 5 - ; 6 - - f t & e e & i e & y e & 8 8 % e i e 0 t e e 1 X ",
"g g f p f p y s f f s t i i i # % X + + X i i & & & & % 8 8 i 8 i e & & e & & e & & & % # & + O & & X % & 5 % & % & + X @ % & X ",
"e 8 i 8 & & & 8 - 8 & & & & 8 & & & & & g 8 i & & & & % & & 8 8 i 3.K X 4.c # 4.G , $.f X 3.x X 5.x X 5.9.9.-.X 1 1 2 2 1 1 e # ",
"0 8 0 & 8 & 8 8 e & 8 & a & & & 8 i a i g i i & 8 1 8 & & e i e e % X 1 + X 1 + X 1 # X 1 # + p 1 X 1 % # e & X 1 ^ ! S.D.` [ X ",
"+ X # X # X X X # X X   X # X i @ C.Y.C.+ i 0 & & i e & 8 & e 8 e 9.L X d.L X f.P 1 8.J X M.@.% Q.%.X W.L X f.X r l l v l 5 & X ",
"f i f i g c f g f f f g f i g s & # X X # % & & e 8 ; & & i 0 e & + + 1 % X 1 % X 1 & + 1 & X 5 e & f i X 1 & . p ! { G.f r 2 X ",
"& & & & % & & % & % & & & & & & & & @ & $ & & 8 - & 8 & & 8 + & i 9.s.9.Q.( + Q.#.2 y.o.# s.L # ).%.e B.$.O f.X p v c c c b p X ",
"X # O # # X X @ X + O # # O # X @ X # X X # X + X O # X # X X @ 1 s c c J p 1 g v g e e & y 5 1 g i i Z p 1 f X c ^ ! D.F.F.J.X ",
"@ X X X X X X # # X X # # X + X X X X   + X O X + X + X O X X # i 2.L i 9.Z + 9.y.6.5.4.4.5.4.6.8.L f y.K e -.. r r p z 6 p 1 o ",
"o.o.P O.=.=.O.$.o.R #.-.=.,.,.| | ........| | | $.$.$.-.@.;.$.*.t Z ( + ( c 6 *.c G G c c v G c J ( y *.L 6 D X p ^ D.F.J.z r X ",
"i p f i g i f i i p a i i f 6 j p i g g 8 p s s s a i e i i s p e & X 2 % # & % X X X X X X X X X X 1 @ X 1 # X r p l l p p 1 X ",
"c f c c g g p f g g c g f c g C g g g g c g g z g g c g g c g g X X X   X   X o . X X X . X X o X   X X X . X   X X X   . X X X ",
"3 r i 1 6 ; 3 + # 1 0 9 9 = O & O & $ * 1 < > - ; ; * 1 & = - X e 8 e e e e e & e 8 8 e e & e e 8 8 e & e & 8 & & 1 8 e 1 8 8 & "
};
