/* XPM */
static char *result[] = {
/* columns rows colors chars-per-pixel */
"64 64 170 2 ",
"   c #85827F",
".  c #85807D",
"X  c #85807C",
"o  c #84807B",
"O  c #83807A",
"+  c #85817E",
"@  c #878480",
"#  c #817E79",
"$  c #827F7A",
"%  c #807B77",
"&  c #807C78",
"*  c #807A76",
"=  c #8F8C87",
"-  c #908C87",
";  c #8F8A85",
":  c #918C87",
">  c #918D88",
",  c #918C88",
"<  c #918D89",
"1  c #928F8B",
"2  c #918E89",
"3  c #928E8B",
"4  c #938F8C",
"5  c #93908C",
"6  c #94918C",
"7  c #918E8A",
"8  c #928E8A",
"9  c #92908B",
"0  c #8E8C85",
"q  c #8F8C86",
"w  c #8D8B84",
"e  c #908D88",
"r  c #928F8A",
"t  c #918D87",
"y  c #8C8983",
"u  c #8D8A84",
"i  c #8D8B85",
"p  c #8D8984",
"a  c #8C8984",
"s  c #8C8884",
"d  c #9E9A97",
"f  c #9D9996",
"g  c #9D9995",
"h  c #9C9895",
"j  c #9B9794",
"k  c #9A9793",
"l  c #9F9B97",
"z  c #999692",
"x  c #A09D99",
"c  c #A09C98",
"v  c #999591",
"b  c #989490",
"n  c #97938F",
"m  c #8C8A83",
"M  c #ABA7A2",
"N  c #A6A29E",
"B  c #A7A29F",
"V  c #A8A3A0",
"C  c #A5A09C",
"Z  c #AAA6A2",
"A  c #A9A5A1",
"S  c #A29E9A",
"D  c #A29D99",
"F  c #A4A09C",
"G  c #A09C97",
"H  c #A19C98",
"J  c #A5A19D",
"K  c #A4A09B",
"L  c #A39E9B",
"P  c #A6A19E",
"I  c #A39F9B",
"U  c #A09C96",
"Y  c #9F9B96",
"T  c #A19D99",
"R  c #A19D98",
"E  c #7B7774",
"W  c #9C9793",
"Q  c #9C9894",
"!  c #9E9A96",
"~  c #9E9995",
"^  c #9C9692",
"/  c #A19C97",
"(  c #9D9994",
")  c #8F8A86",
"_  c #9B9691",
"`  c #A39F9A",
"'  c #A49F9B",
"]  c #807D79",
"[  c #8D8983",
"{  c #A9A4A0",
"}  c #A39E9A",
"|  c #A49F9C",
" . c #8B8780",
".. c #A09B97",
"X. c #7F7A75",
"o. c #97928E",
"O. c #9D9894",
"+. c #8C8B84",
"@. c #96918D",
"#. c #9E9A95",
"$. c #9F9A96",
"%. c #7E7975",
"&. c #95918C",
"*. c #A5A09D",
"=. c #908C88",
"-. c #7D7974",
";. c #94908C",
":. c #908C86",
">. c #918C86",
",. c #918E88",
"<. c #A29E99",
"1. c #928C86",
"2. c #928E88",
"3. c #9F9A95",
"4. c #9E9994",
"5. c #93918C",
"6. c #A09B96",
"7. c #94918D",
"8. c #95918E",
"9. c #8E8984",
"0. c #86807C",
"q. c #867F7B",
"w. c #8D8681",
"e. c #8D8783",
"r. c #89847F",
"t. c #8A8480",
"y. c #89847E",
"u. c #89847D",
"i. c #8A847F",
"p. c #89837C",
"a. c #88827B",
"s. c #88827C",
"d. c #87827C",
"f. c #8C8681",
"g. c #8B8581",
"h. c #8D8682",
"j. c #8B847F",
"k. c #87827A",
"l. c #858078",
"z. c #86827A",
"x. c #868179",
"c. c #8A847C",
"v. c #88837A",
"b. c #89847C",
"n. c #8A857E",
"m. c #8A857F",
"M. c #89837D",
"N. c #8B8580",
"B. c #8C8781",
"V. c #8C8680",
"C. c #8C8780",
"Z. c #8D8882",
"A. c #8D8782",
"S. c #8E8782",
"D. c #8C8882",
"F. c #8E8983",
"G. c #8E8883",
"H. c #8A847D",
"J. c #8B857F",
"K. c #8B857E",
"L. c #8E8882",
"P. c #8D8781",
"I. c #7A7673",
"U. c #87827E",
"Y. c #928D88",
"T. c #8E8A85",
"R. c #8D8884",
"E. c #908B87",
"W. c #8C8883",
"Q. c white",
/* pixels */
"      . X X X o o o o o o o . . . O X O o + + @ X +   + + . + o . . X . . . X o X # $ O o O $ $ o O % # & * % % & X X X .       ",
"  = - - ; : : > : - - : - : , < 1 2 < > 3 4 5 6 1 7 6 3 3 , < : - < 8 5 1 1 4 9 1 0 q w q e 2 r r t y u i p a s s : : ; - - =   ",
"o y d f g h j k j k j h j j k g l z g k h l g d x l l c c x l c g g g d g d k v b v n j g g h j h g g h h f g h j j h g f d y o ",
"# m d M N B V C N Z B B A V N N N A A A V A Z Z Z A S D D D S D S C F S D D G D D D S H D D D H G B B J C C J K L P J N M d m # ",
"& m z S I U U U H G U H H S S S H D H F I C C J J J I U Y U G S H S U G G D S F U G G U Y U I H Y Y U H T D D T R G R I S z m & ",
"E = 3 g W Q Q W ! Q Q Q ! ! Y ! g ! g G I I J J C C J C F C g ! ! U ! Y ! ! G U U G G H H I I I S Y ! Y l Y Y ! ~ g g W g 3 = E ",
"& = b U H ! Q ! Q Q ! g W W W Q ! H ! H I F F J F F J J J I G g Q g g g ! Q Q W ^ W U ! ! ! G ! Y D H ! G / G Y g ( ! H U b = & ",
"* ) n D S H Y Y G U ! ! ! Y U F F J D H S F S I I S S H G U H I I I I I I Q W _ _ _ Q Q W Q ! ! ! D C I ` ' I I S T R S D n ) * ",
"] [ b N S F J { V J J F F J F F J I F F I C N N C F I I F N J J V N F J F I S G Y g W ! ! U I S I J J J I S } S } ` | S N b [ ] ",
"%  .v V N B J V J B C F F J J C N B N N J J B J F F C J S U D D H D H G G Y ! ! Y ! W ^ W Q ! Y ! D D Y ! ! l ..c I F N V v  .% ",
"X.m o.D H U H H U Y U ! Q g Y U G G H G G U U Q W Q W Y Y Q Y U Y U Y ! ! Y ! ! ! U Y Q W ^ ^ ^ W W Q Q O.g Y Y Y R T H D o.m X.",
"& +.@.H U ! G Y ! ! ! Q W g ! Y Q W W W W W W Q ! ! ! ! Y G U G H D D G G H D D D U U g g W W _ W W W W Q g ~ #.$.G G U H @.+.& ",
"%.q b F C D S I D H W _ _ G H H S H G H H U Y D F D F J J C F B J N V N C J V N J I H D Y ! g W g ! U Y $.O.O.W ~ T } C F b q %.",
"%.q &.N J B B B N J J I I G H S D I H H D H I I F D H D S J F F F C B V C C J C C J D D H H D U G I J J c $.W W W C *.J N &.q %.",
"%.=.&.H F I D I D S ! Y Q ! Q H H H H H H D H G G H H D H H H H H H S D D D S I F J I D S H D H H G G H c $.! g ~ T I F H &.=.%.",
"-.- ;.D G U ! ! ! ! ! Q g Q g ! Q U Y Y G g Q g Y Y S S I D D D S D I I I F I I S S S D D D D S I S I G Y Y Y Y ! l G G D ;.- -.",
"-.:.&.! Y ! ! ! Y Y H ! g Q Q g ! U S H ! g U ! D N I F I C C I H S I F I I D G F J J C S I S H H G ! ! l l l l l ! #.Y ! &.:.-.",
"-.>.4 ! g W g ! Y H D Y H D G D S C J J C C C J J V C D D D D D D D S D D U g ! D U ! ! ! ! ! Y D S I S S S S S T ! g g ! 4 >.-.",
"%.- n U Y ! g W ^ ^ _ _ ^ ^ ! ! ! g ! Y ! ! D S F I D G ! g g Q ! G U Y Y ! W ! g g Q g G U H S F F J J C F F C I c Y Y U n - %.",
"# ,.h V N C F g W _ _ ^ W ^ g ! ! g g g g g W U Q W Q W W _ _ _ Q g g ! ! Q g ! g g ! g D G G G S I C C C C C J C S I N V h ,.# ",
"& ,.k I I S H G ! ! g W W Q g g Q Q Y Y Y ! ! ! _ _ _ Q W Q W Q ^ ! g ! g ! ! g Q g Q Q g ! ! U G D S F ' ' I F I } S I I k ,.& ",
"& < v J I G D U U ! Y Y ! ! ! ! Q W W Q W W Q ^ _ _ Q Y H D D G G I G S G U ! ! G ! W Q g g g ! ! U G G R D R D <.R D I J v < & ",
"X.>.o.I F H U H G U U Y ! g Q W g g ! ! g Q g ! Q ! ! Y D S F C C J C J I S I F J S G F H S I H G Y I D H G G G G H R F I o.>.X.",
"X.1.n F I H D I F I S Y ! ! ! g W W Q g W Q g g g ! ! ! ! I C C C I H H G ! ! U U g g ! ! ! Y Y ! Y G G R G G G G D S I F n 1.X.",
"$ 2.j A N J B N J B J I C D ! ! ! ! ! ! g ! U Y H G D C J B B N V B J I I I I H H D S I D D D I I I F C R G Y 3.#.*.*.N A j 2.$ ",
"O r @.V V J J J V N J J H D I I I S S U U Y U U ! U U G U Y ! Y U D H H D D I J J S I I S D H H H H D ! ! 4.O.O.~ F C V V @.r O ",
"* 5.j I H G U H D D S I G U G G U G Y H G G g ! Q ! Y ! U U G D I I F D G G G U Y G G G G D S H H Q Q Q ! $.$.l 6.R R H I j 5.* ",
"] 7.z N F G G G G S H H D G D U H D H S D D D H H G U ! G H D S D I D G Y G G G U ! Y U G G G U U U H D T } S T <./ R F N z 7.] ",
"] 8.8.B F D H D D I S D H D S Y D I I J I J S D D U Y ! Y U Y G ! Y ! ! ! U G H H ! ! ! G U Y ! H H I F I ' ' I D R H F B 8.8.] ",
"* 9.8.C I Q Y U ! ! Y U g Q g W W ! D S S S F C J J I ! Y U H G Q g ! H ! ! ! g g G I H U G Y Y Y H U U G U G Y ! Y Q I C 8.9.* ",
"E 0.q.w.e.r.t.y.u.i.p.a.s.d.r.t.t.f.g.h.t.j.k.l.z.x.c.v.b.b.n.m.M.i.N.B.V.C.Z.A.S.B.A.D.F.G.u.H.J.K.m.u.N.L.J.P.J.t.r.e.w.q.0.E ",
"I.. U.Y., T.) T.R.T.9.9.E.) ) E.) Y., , , E.T.9.T.9.R.W.W.W.W.W.9.) ) T.W.W.W.R.R.W.9.W.T.9.R.9.T.W.W.W.9.Y.9.) 9.) T., Y.U.. I.",
"I.. U.Y., T.) T.R.T.9.9.E.) ) E.) Y., , , E.T.9.T.9.R.W.W.W.W.W.9.) ) T.W.W.W.R.R.W.9.W.T.9.R.9.T.W.W.W.9.Y.9.) 9.) T., Y.U.. I.",
"E 0.q.w.e.r.t.y.u.i.p.a.s.d.r.t.t.f.g.h.t.j.k.l.z.x.c.v.b.b.n.m.M.i.N.B.V.C.Z.A.S.B.A.D.F.G.u.H.J.K.m.u.N.L.J.P.J.t.r.e.w.q.0.E ",
"* 9.8.C I Q Y U ! ! Y U g Q g W W ! D S S S F C J J I ! Y U H G Q g ! H ! ! ! g g G I H U G Y Y Y H U U G U G Y ! Y Q I C 8.9.* ",
"] 8.8.B F D H D D I S D H D S Y D I I J I J S D D U Y ! Y U Y G ! Y ! ! ! U G H H ! ! ! G U Y ! H H I F I ' ' I D R H F B 8.8.] ",
"] 7.z N F G G G G S H H D G D U H D H S D D D H H G U ! G H D S D I D G Y G G G U ! Y U G G G U U U H D D } S T <./ R F N z 7.] ",
"* 5.j I H G U H D D S I G U G G U G Y H G G g ! Q ! Y ! U U G D I I F D G G G U Y G G G G D S H H Q Q Q g $.$.l 6.R R H I j 5.* ",
"O r @.V V J J J V N J J H D I I I S S U U Y U U ! U U G U Y ! Y U D H H D D I J J S I I S D H H H H D ! Q 4.O.O.~ F C V V @.r O ",
"$ 2.j A N J B N J B J I C D ! ! ! ! ! ! g ! U Y H G D C J B B N V B J I I I I H H D S I D D D I I I F C F G Y 3.#.*.*.N A j 2.$ ",
"X.1.n F I H D I F I S Y ! ! ! g W W Q g W Q g g g ! ! ! ! I C C C I H H G ! ! U U g g ! ! ! Y Y ! Y G G Y G G G G D S I F n 1.X.",
"X.>.o.I F H U H G U U Y ! g Q W g g ! ! g Q g ! Q ! ! Y D S F C C J C J I S I F J S G F H S I H G Y I D G G G G G H R F I o.>.X.",
"& < v J I G D U U ! Y Y ! ! ! ! Q W W Q W W Q ^ _ _ Q Y H D D G G I G S G U ! ! G ! W Q g g g ! ! U G G H D R D <.R D I J v < & ",
"& ,.k I I S H G ! ! g W W Q g g Q Q Y Y Y ! ! ! _ _ _ Q W Q W Q ^ ! g ! g ! ! g Q g Q Q g ! ! U G D S F F ' I F I } S I I k ,.& ",
"# ,.h V N C F g W _ _ ^ W ^ g ! ! g g g g g W U Q W Q W W _ _ _ Q g g ! ! Q g ! g g ! g D G G G S I C C C C C J C S I N V h ,.# ",
"%.- n U Y ! g W ^ ^ _ _ ^ ^ ! ! ! g ! Y ! ! D S F I D G ! g g Q ! G U Y Y ! W ! g g Q g G U H S F F J J J F F C I c Y Y U n - %.",
"-.>.4 ! g W g ! Y H D Y H D G D S C J J C C C J J V C D D D D D D D S D D U g ! D U ! ! ! ! ! Y D S I S I S S S T ! g g ! 4 >.-.",
"-.:.&.! Y ! ! ! Y Y H ! g Q Q g ! U S H ! g U ! D N I F I C C I H S I F I I D G F J J C S I S H H G ! ! ! l l l l ! #.Y ! &.:.-.",
"-.- ;.D G U ! ! ! ! ! Q g Q g ! Q U Y Y G g Q g Y Y S S I D D D S D I I I F I I S S S D D D D S I S I G ! Y Y Y ! l G G D ;.- -.",
"%.=.&.H F I D I D S ! Y Q ! Q H H H H H H D H G G H H D H H H H H H S D D D S I F J I D S H D H H G G H G $.! g ~ T I F H &.=.%.",
"%.q &.N J B B B N J J I I G H S D I H H D H I I F D H D S J F F F C B V C C J C C J D D H H D U G I J J I $.W W W C *.J N &.q %.",
"%.q b F C D S I D H W _ _ G H H S H G H H U Y D F D F J J C F B J N V N C J V N J I H D Y ! g W g ! U Y g O.O.W ~ T } C F b q %.",
"& +.@.H U ! G Y ! ! ! Q W g ! Y Q W W W W W W Q ! ! ! ! Y G U G H D D G G H D D D U U g g W W _ W W W W W g ~ #.$.G G U H @.+.& ",
"X.m o.D H U H H U Y U ! Q g Y U G G H G G U U Q W Q W Y Y Q Y U Y U Y ! ! Y ! ! ! U Y Q W ^ ^ ^ W W Q Q W g Y Y Y R T H D o.m X.",
"%  .v V N B J V J B C F F J J C N B N N J J B J F F C J S U D D H D H G G Y ! ! Y ! W ^ W Q ! Y ! D D Y g ! l ..c I F N V v  .% ",
"] [ b N S F J { V J J F F J F F J I F F I C N N C F I I F N J J V N F J F I S G Y g W ! ! U I S I J J J I S } S } ` | S N b [ ] ",
"* ) n D S H Y Y G U ! ! ! Y U F F J D H S F S I I S S H G U H I I I I I I Q W _ _ _ Q Q W Q ! ! ! D C I C ' I I S T R S D n ) * ",
"& = b U H ! Q ! Q Q ! g W W W Q ! H ! H I F F J F F J J J I G g Q g g g ! Q Q W ^ W U ! ! ! G ! Y D H ! U U U ! ^ Q ! H U b = & ",
"E = 3 g W Q Q W ! Q Q Q ! ! Y ! g ! g G I I J J C C J C F C g ! ! U ! Y ! ! G U U G G H H I I I S Y ! Y ! ! ! g ! Q Q W g 3 = E ",
"& m z S I U U U H G U H H S S S H D H F I C C J J J I U Y U G S H S U G G D S F U G G U Y U I H Y Y U H S H D U S U U I S z m & ",
"# m d M N B V C N Z B B A V N N N A A A V A Z Z Z A S D D D S D S C F S D D G D D D S H D D D H G B B J C N B J I V B N M d m # ",
"o y d f g h j k j k j h j j k g l z g k h l g d x l l c c x l c g g g d g d k v b v n j g g h j h g g h h f g h j j h g f d y o ",
"  = - - ; : : > : - - : - : , < 1 2 < > 3 4 5 6 1 7 6 3 3 , < : - < 8 5 1 1 4 9 1 0 q w q e 2 r r t y u i p a s s : : ; - - =   ",
"      . X X X o o o o o o o . . . O X O o + + @ X +   + + . + o . . X . . . X o X # $ O o O $ $ o O % # & * % % & X X X .       "
};
