/* XPM */
static char *result[] = {
/* columns rows colors chars-per-pixel */
"64 64 214 2 ",
"   c black",
".  c #080000",
"X  c #000800",
"o  c #080800",
"O  c #000008",
"+  c #09000A",
"@  c #000809",
"#  c #0B0B0C",
"$  c #180F0F",
"%  c #0E180F",
"&  c #18180F",
"*  c #0B0F18",
"=  c #180E18",
"-  c #0C1818",
";  c #181818",
":  c #211818",
">  c #210F0F",
",  c #0E210F",
"<  c #0F280F",
"1  c #18210F",
"2  c #0E2118",
"3  c #182118",
"4  c #182818",
"5  c #212118",
"6  c #282118",
"7  c #212818",
"8  c #282818",
"9  c #302818",
"0  c #0B0F21",
"q  c #0D1821",
"w  c #0F1828",
"e  c #181821",
"r  c #181828",
"t  c #211821",
"y  c #280F21",
"u  c #0F2121",
"i  c #0F2128",
"p  c #182121",
"a  c #182821",
"s  c #182128",
"d  c #182828",
"f  c #0D2130",
"g  c #182830",
"h  c #182535",
"j  c #183039",
"k  c gray13",
"l  c #282121",
"z  c #212821",
"x  c #282821",
"c  c #212128",
"v  c #282128",
"b  c #212828",
"n  c #282828",
"m  c #302821",
"M  c #302828",
"N  c #283021",
"B  c #213028",
"V  c #283028",
"C  c #263726",
"Z  c #303028",
"A  c #303928",
"S  c #393523",
"D  c #212830",
"F  c #282830",
"G  c #212839",
"H  c #282535",
"J  c #302830",
"K  c #302839",
"L  c #283030",
"P  c #213039",
"I  c #283039",
"U  c #253835",
"Y  c gray19",
"T  c #393030",
"R  c #303930",
"E  c #393930",
"W  c #303039",
"Q  c #393039",
"!  c #303939",
"~  c #393939",
"^  c #482908",
"/  c #413939",
"(  c #5D161B",
")  c #214108",
"_  c #394139",
"`  c #334136",
"'  c #354125",
"]  c #306330",
"[  c #306328",
"{  c #0F4130",
"}  c #725108",
"|  c #6A5918",
" . c #6A6308",
".. c #414139",
"X. c #414330",
"o. c #414128",
"O. c #6F6221",
"+. c #183041",
"@. c #213041",
"#. c #283041",
"$. c #213941",
"%. c #283941",
"&. c #283949",
"*. c #213549",
"=. c #303941",
"-. c #393941",
";. c #303949",
":. c #363344",
">. c #413944",
",. c #284149",
"<. c #284141",
"1. c #304141",
"2. c #394141",
"3. c #304149",
"4. c #394149",
"5. c #304949",
"6. c #394949",
"7. c #394941",
"8. c #284151",
"9. c #304151",
"0. c #394151",
"q. c #304951",
"w. c #394951",
"e. c #354959",
"r. c #334C68",
"t. c #414141",
"y. c #414149",
"u. c #414949",
"i. c #494949",
"p. c #474543",
"a. c #514949",
"s. c #495149",
"d. c #515149",
"f. c #414951",
"g. c #494951",
"h. c #434151",
"j. c #514951",
"k. c #415151",
"l. c #495151",
"z. c #495457",
"x. c #515151",
"c. c #595151",
"v. c #515159",
"b. c #515959",
"n. c gray35",
"m. c #575654",
"M. c #635959",
"N. c #516359",
"B. c #596359",
"V. c #636359",
"C. c #495963",
"Z. c #515163",
"A. c #595963",
"S. c #535767",
"D. c #635963",
"F. c #516363",
"G. c #596667",
"H. c #596372",
"J. c gray39",
"K. c #63636A",
"L. c #6A636A",
"P. c #636A6A",
"I. c #6A6A6A",
"U. c #666963",
"Y. c #726A6A",
"T. c #6A726A",
"R. c #72726A",
"E. c #636A72",
"W. c #6A6A72",
"Q. c #656372",
"!. c #726A72",
"~. c #6A7272",
"^. c #637272",
"/. c #727272",
"(. c #72727B",
"). c #7B747B",
"_. c #835108",
"`. c #837221",
"'. c #B52141",
"]. c #837B72",
"[. c #418C39",
"{. c #59B508",
"}. c #419341",
"|. c #49AD41",
" X c #6A8372",
".X c #7B836A",
"XX c #BDA518",
"oX c #9C8321",
"OX c #CEB508",
"+X c #DEC608",
"@X c #6A6A83",
"#X c #6A7283",
"$X c #667287",
"%X c #727283",
"&X c #777588",
"*X c #726A83",
"=X c #837285",
"-X c #6A8383",
";X c #728383",
":X c #73858B",
">X c #728393",
",X c #7293B5",
"<X c #858486",
"1X c #858C96",
"2X c #8C939C",
"3X c #9C9C93",
"4X c #8B96A8",
"5X c #9496A9",
"6X c #97A5B8",
"7X c #98ADB1",
"8X c #AAB5BD",
"9X c #ADC6BD",
"0X c #ADB9CA",
"qX c #B5C6C6",
/* pixels */
"+ o + # # # # # % o # # + # $ # # # # # # @ # # # $ + # # # # o # + # # # # # # + # # * # o # # o # # $ + + # o # # . @ . o @ o ",
"3 l W ;.l.s.i.i.u.u.6.i.s.u.>.u...~ -._ ! # n n n n b n Q ( p # p n t.i.w.g.u.g.i.i.h.a.u.i.u.u.~ >...W # # # # # o # $ % # # # ",
"p l.%X2X5X1X>X<X$X~.W.~.W.E.&XU.K.g.x.K.2.# n p c c c z M '.l # ~ @X<X4X4X1X;X/.#XK.E.J.W.I./.A.N.x.J.l.# a c n k = 3 l z 5 : # ",
"k P.8XqX0X6X4X:X-XW.I./.W./.R.~.A.U.x.G.2.# V b k - - = e y k # l.7X9X8X6X4X1X-X!.#XP.#X!.#XE.I.M.M.A.s.* L ..-.E 6 5 V x V : o ",
"c <X0XqX6X6X2X>X;X%X].&X<X%X:X;XY.B.J.J.u.* n c - @.w.G e = k # P.7XqX0X6X4X:X;X-X;X=X;X<X;X/./.P.M.E.Z.$ z x.a.6 >.; ^.Z U.l # ",
"b -X7X8X5X4X1X;X@X;X<X>X:X<X<X=X XL.F.E.6.$ L # g r.,Xr.*.q - # H.7X8X5X4X1X<X#X=X:X<X;X<X<X<X~.!.G.L.F.# n P./.t p & z e 8 : # ",
"b E.1X4X4X4X:X<X#X<X&X=X<X<X<X&X/.U.K.I.u.# n # r $.r.j e $ # * F.1X2X4X1X>X X#X:X;X<X<X<X:X<X!.;XV.P.b.$ F <X<Xz ..k J.n i.6 # ",
"c G.$X>X>X<X$X$X-X*X X=X;X<X<X=X XY.G.I.f.2 n k # e g ; - - e $ g.@X:X>X>X<X#X:X%X/.].&X<X<X<XR.Y.M.P.Z.* M 3X3Xk 5 - z ; 5 : + ",
"s C.^.@X%X$X%X$X X%X=X;X=X<X;X/.I.n.J.b.u.$ D k e - - e - k s # s.^.#X#X#X-X$X#X;X<X;X&X<X;X/.L.P.F.M.g.# n =X<Xl t.x A.Y A.k @ ",
"p f.E.G.W.W.P.E.W.R.~.=X;X]..X@XU.F.x.x._ # L 3 x p p c k z b # 4.S.G.^.W.H.P.I.Y.*X%X].;X.X!.I.F.x.V.p.$ n T.Y.; p % x 3 7 : + ",
"k s.F.K.H.W.K.E.K./.!.-X/.<X/.U.n.z.a.s.-.# B * p $ 6 # s # s # ..S.G.K.^.K.G.W././.].$X].=XU.Y.N.a.i.p.# n x.x.5 t.k n.Z s.: # ",
"k u.g.Z.G.G.E.K.T.I.].~.%XR.W.U.N.i.p.p.~ # x $ 3 * p # n # e # 1.g.F.Q.A.P.L.E./. X/.E./.I.T.M.i.y.a./ * n >.2.3 T 5 E ; E #   ",
"p u.h.l.N.J.E.W.P.R.Y.;XY.I.G.R.M.i.i.i.R # L k 5 c z c z s c # _ f.Z.l.Z.U.E.P.Y.W.%XR.Y.G.U.U.i.i.i._ $ T / ~ ~ & y > & 3 $ # ",
": 2.-.p.l.D.L.E.K.L.#XY.I.U.M.V.j.i.p.t.I % b c c c c k z c p % Q 2.y.i.l.K.K.E.U./.T.U.L.U.D.x.a.u.i.=.# 5 n z t # : ( S }.4 + ",
"p ! -._ t.g.Z.Z.U.G.U.J.U.D.N.x.i.p.-._ F # V c c p c z z b k # L ! ~ 2.f.S.K.n.P.J.U.P.P.n.x.i.y._ _ Y # # # # % : m ^ z { e @ ",
"e ! ! 2.4.u.h.g.Z.N.Z.C.N.J.x.a.p.-.~ ~ H # n k c z z c k k p # F :.1.>.w.u.g.Z.v.Z.v.Z.N.a.d.p...:.~ L $ k 1 k t x l V 7 n : o ",
"p -.! -.y.y.4.6.u.i.t.t.p.i.y.p.t.t.-.=.n # n l c b s c s b k $ W ~ -.2.g.>.6.h.u.t.t.u.g.i.p.~ p.t...Z # n.7 M.M b.x B.M s.; # ",
"; F F g ! I W -.Y ! Q Q ~ ~ ! ~ ! ` R E n # n k z 5 z z z z 3 # H n D I W U ~ I ! Q ~ ~ Q ~ ~ ~ ! ~ R n # T $ R $ W # T * Y * o ",
"# $ # % % 2 % # * # % # # % # $ $ $ # & # @ # # # # # # # # # # # # # # % % % % # # ; # # % # # & # $ $ @ * o # # # # # # # # + ",
"; p C [ [.|.[.] e n v.c c v.7 k z.k x oXx ; 3 3 e i e ; e u e q 3 3 ; ] }.|.[.] p e x.z r x.a c x.c 7 oXl p 3 e 3 e u p 2 e q o ",
"- 3 & 3 7 a - 3 e p 5 p p : e k 3 3 5 | z k k e p ; u e a 3 p r e e 3 : 4 4 4 ; p p p p k 3 k 5 3 3 x | n r p k c s c p s s p # ",
"3 3 & * 3 = ; e ; - ; - = e ; # 5 ; % 7 p 3 ; # @ $ # # # # # # # # # * ; - $ ; ; & 3 ; - e - ; : - * 3 e a ; = ; p e 3 e ; - + ",
"p -.B # 4.B $ 4.n , ! a $ 4.b % _ N $ u.f.f.u.# x x 9 k n M b v 8 5 1 # _ z # 6.n 1 =.n * 7.b % 4.n $ 4.k.g.4.c 1.4.6.-.w.w.2.# ",
"e ; $ 3 4 # 1 3 $ 4 - * - 3 % 3 2 $ - e $ 3 3 # x m } x C } x V _.8 5 # ; $ ; ; * & % $ ; 3 $ - ; # 2 ; $ 3 ; # =.3.4.; 4.w.6.# ",
"c u.V $ z.W = C.W a u.U ; l.L - z.Z & z.Q & l.& m m ^ x L ^ x L ^ 8 5 # z.I - Z.W p g.L - m.L $ z.L # z.L - z.s 1.b 4.% u.b 4.# ",
"e ; ; p 3 % & a % & ; % & e = 1 3 % 3 p % 1 ; # l n > 7 D & 8 L & 6 5 # 3 % ; 3 ; 3 & * % ; % ; 3 % ; ; - ; e = 1.; 3.$ w.; w.# ",
"5 i.u.k.N.I - Z.Y 7 i.Y = z.L - l.L q l.L - s.: x n 9 x V x x V 8 6 5 * l.Y & C.U z u.W % N.L 1 z.L = Z.I & F.z 4.g u.- k.n w.# ",
"u c p e n 6 ; b n z z z p z z p n 4 - b p 2 b # x S _.x Z } x C _.x 5 # z 3 , z p 3 p c p x a e V 3 & B p & c - w.k.e.p F.F.F.# ",
"e ! b - 4.n 3 4.i.k.f.i.u.i.f.u.y.n - 4.n p 2.* m m ^ t S ^ x L ^ 8 k # 1.c 3 2.L B y.i.f.f.u.s.y.z 2 2.b 3 2.; w.Z.Z.C.z.H.S.# ",
"3 V n ; L n - A V V V n F V L n V b & U n 3 V # l m & 3 F > x B ; 6 5 # ; e & 3 3 4 B F V V V n V n ; U n ; L q 6.6.p w.e F.C.# ",
"e = 3 a - % t * $ * - % ; * % % $ & 3 - = 3 $ @ x x : 6 B : x z 5 k : o % - z ; % - & $ $ * = % % ; p % ; a & # 3.6.U 5.U k.f.# ",
"# o # O # + # + o # # o # # o o # + # # # + # # + # # # + # # # o # # o @ + + # o . @ o # # o + # # o + # + @ o # # # # o # # # ",
"d x z 8 z z z 8 z z z z z z z z z z z z z z z z z z z z z z z z k z z z z z z z z z z z z z z z z z z z z z z z z z z z z z z # ",
"p L V X.X.X.X._ A A A A A A A A A A A A A A A A A A A A A A A A A A A A A A A A A A A A A A A A A A A A A A A A A A A A A Z z % ",
"s I N C R o.' S N V V V V V V V V V V A V V V V A V V V V V V V V V V V N V B V P V V V L L V V V V V V B V V V L L B L Y V x # ",
"s I A ' O.XX+XXX`.N L Z Y V  .Z L L E OXT J L R OXR Y L L V  .Z Y Y Y Y Y Y Y Y n 5 P p V p V F Y Y V V l B l V l L l L k B z * ",
"i I V Y Z E E A L V V V V V V V V V V A V V V V A V V V V V N V V V V V V V V V V V V V V V V V V V V V V V B V V V V V V V x * ",
"s I z z k p t * V n d b 7 z z a 7 z z z k 7 z p z z V z z a 5 a 7 7 z 5 z a z z 5 k z 7 a z z z V L a i p p l u u 3 u i - e a # ",
"i I z b (.b.v.; n n W.A.n.n ~.I.J.l /.J.v.v I.D.x.k n v ~.I.x.n I.U.K.8 /.I.x.n (.L.v.n ).L.c.c n V /.n.r %XD.B W.b.7 !.n.6 x # ",
"p L z k u.y.4.@ n V 4.w.5.@ q.6.q.@ 0.5.,.@ <.5.5.  z a 4.w.5.# ,.w.5.@ 6.q.,.@ 4.5.,.@ <.q.5.X n L %.P O U P @ P P O P G   3 # ",
"s I z % X # #   x x X X #   * O # O # o + O * X #   z a # + +   $ # @ O # # +   # o + O @ % #   b D @ +   # o   + +     .   5 * ",
"i I n n b n n s n n n b n c n c k c n n v s n z n c n n n k v c n n n c n n v c n n v c c n z b n n n x n n n a n x n n x n 7 # ",
"s I z c c c c c k c c p c t c c n c c c c c b c c c c c c c c c c c c c b c c t c c c c c c c c c n R {.R x L ) L K K Y ) L x # ",
"p L z 3 W.A.n.- K.K.E (.I.G.B /.D.s P.I.F W.L.n.F (.x.; (.I.W (.!.K.n %XJ.n %XA.L (.I.J.n ~.I.d.0 F J Y J J K F K K K K F n z * ",
"s I z 3 %.&.#.O #.%.0 &.&.$.- $.@.O :.! i %.&.%.# =.#.+ =.%.i @.G @.- @.G O #.#.0 @.#.@.* @.@.G   c 3 , , 2 2 2 2 2 , 2 2 < z # ",
"s I z p # # #   $ # X # # #   # @   # #   o * @ O @ @   # @ X X # @ O # +   @ # + # # o O @ @ @   n W.%.# ~.<.% /.n., /.n.@ 3 * ",
"u L z u I.I.e J.Q.L.J.; J.L.K.; K.i.% L.i.p K.K.J.; K.l.% B.n.# J.I.J.; D.x.; L.n.t &XI.L.W.W.J.$ n h G   G D * G h * G D O l # ",
"s I k : x.J.$ i.v.c.i.% x.x.i.$ v.i.* n.x.$ g.a.x.# x.g.% i.i.$ d.x.g.% v.a.$ l.i.e L.M.v.n.v.y.= c - $ @ * # # # * + * # + p # ",
"s I z p w h   q 0 s i @ f s # * i i   p i O q f * * i q X s q @ q f w * i i @ d q * q q q q q q   n /.x.# !.x.c /.n.; (.A.+ 3 # ",
"s I z u # O O O @ O @ O X @ X   @ X @ @ @ @   @ X O @ O @ X @   @ @ @ X @ @ @ X @ @ @ @ @ @ @ O   b *.I   P D q &.%.* &.;.# k * ",
"s I z b (.~.I.A.n.v (.K.; (.J.Y /.n.b.n %Xn.- ).A.x /.n.b.c /.n.; /.n.x !.J.b.e ).c.% W.K.n.c.v.$ k % # + # $ # $ * # $ # . 5 # ",
"i I z 3 $.$.$.$.I q &.=.@ %.$.q @.+.P * ;.@.@ %.#.q +.+.j @ ;.@.+ %.P 0 $.%.P @ &.#.0 $.+.! U P   n (.x.# W.m.n /.n.3 R.n.o 4 # ",
"s I z - # @   # + o . # + @   + #   # o X # + #   # +   # O   # . #   O @ X # o +   O @ @ @ @ O   n &.I   P D 0 &.! % V.V.# t # ",
"u L z d ;Xn.= ).v.A.c (.n.n.z (.A.% (.l.c (.B.n.t &Xn.% &Xn.k (.B.n.- /.b.* ).M.n.e (.U.K.M.B.b.$ k # X   # $ # # o % w.9.@ 5 * ",
"p L z p ! I # I %.I q $.%.I q $.I O I I O I $.I @ U P X U P @ I $.I   I P O U %.I q %.%.%.%.$.I   n (.m.o /.n.p (.n.% - # O c # ",
"i I z *           .                                 O                       .                     n &.I   I g 0 ;.:.- (.B.. 3 * ",
"s I z p t t ; k 5 3 5 : c 5 p t ; t k 3 t k k e k p k k p t t k k 6 k k : k k k s k k k k t k k k k # @   # + + + + % K.n.o : # ",
"i I z n (.n.& !.n.B.n (.G.A.b E.~.).(.).).(./.!.!.W.I.I.I.L.L.J.A.n.n.M.v.n (.n.b !.A.n.n W.m.n.3 k (.n.n.n.c.= !.c.% M.n.# p # ",
"u L z u 0.0.# &.4.e.0 9.q.8.@ ;.8.9.q.8.9.9.9.8.9.9.3.,.3.3.3.,.,.3.3.3.&.@ 9.0.@ 4.w.q.@ ;.w.9.O n 0.w.h.w.;.* 0.9.* 0.0.o k * ",
"i I k -                                                                         . + * *   # - +   u @ #   # $ + o # # #   o 5 # ",
"s I k k p k k k k k k p k k k k p k k k k k k p k k k k 5 k k k k k k k k k k k p k k k k k k k k k k k k k k k k k p a c k b # ",
"p D L I L I I L L I L I I L I I P D L L I I I P I L I I P P L I I I L I I I I I I I I I I I L I L L I I L I L I I L L P L L g * ",
"u 2 u i u s s u u i u i i u i i i u u u i i i i s u s i i u u i i s u i s s s i i i i i i i u i u - i i u i u i i u u i u 2 2 * ",
"- - - * * - - * - - - - * * * - - - - - - - - - - * - - - - * - - * - % - - % - % % - - - = * * $ % * = % % * - % * * * * * # @ "
};
