/* XPM */
static char *result[] = {
/* columns rows colors chars-per-pixel */
"64 64 111 2 ",
"   c #171512",
".  c #1B1711",
"X  c #231B16",
"o  c #241F1A",
"O  c #291F19",
"+  c #27211B",
"@  c #2B231D",
"#  c #2E2722",
"$  c #2E2923",
"%  c #312A24",
"&  c #3A352A",
"*  c #3C3A2D",
"=  c #3E3D31",
"-  c #423D2F",
";  c #423E32",
":  c #434134",
">  c #454639",
",  c #4B4639",
"<  c #4D4D3F",
"1  c #504737",
"2  c #524A3D",
"3  c #5A513F",
"4  c #4E4E41",
"5  c #544E41",
"6  c #565143",
"7  c #5B5444",
"8  c #5B5649",
"9  c #5D5B4A",
"0  c #635A47",
"q  c #605749",
"w  c #635B4A",
"e  c #6A634E",
"r  c #676452",
"t  c #6D6551",
"y  c #6F6954",
"u  c #6C6E58",
"i  c #716752",
"p  c #736B56",
"a  c #786D57",
"s  c #746E5B",
"d  c #796F59",
"f  c #73705C",
"g  c #7A735D",
"h  c #777261",
"j  c #7B7663",
"k  c #777A64",
"l  c #7E7966",
"z  c #7E7B6A",
"x  c #80755F",
"c  c #807764",
"v  c #827B66",
"b  c #837D6A",
"n  c #887F6C",
"m  c #85816E",
"M  c #89836E",
"N  c #868472",
"B  c #8A8573",
"V  c #8C8976",
"C  c #898778",
"Z  c #8E8B7A",
"A  c #928C76",
"S  c #928E7C",
"D  c #94927E",
"F  c #99947E",
"G  c #918F81",
"H  c #959483",
"J  c #999684",
"K  c #979886",
"L  c #9B9986",
"P  c #979688",
"I  c #999789",
"U  c #979889",
"Y  c #9D9C8B",
"T  c #9F9E91",
"R  c #A19D86",
"E  c #A19E8B",
"W  c #A09F91",
"Q  c #9FA08E",
"!  c #9FA091",
"~  c #A3A18D",
"^  c #A8A38D",
"/  c #A3A393",
"(  c #AAA692",
")  c #A7A897",
"_  c #ACA995",
"`  c #A7A699",
"'  c #A9A69A",
"]  c #A7A89A",
"[  c #ABAB9C",
"{  c #B1AB96",
"}  c #B2AE9B",
"|  c #AFB09E",
" . c #B3B09C",
".. c #AEAEA0",
"X. c #AFB0A3",
"o. c #B4B3A3",
"O. c #BDBBA6",
"+. c #BEBDAA",
"@. c #C1BFAC",
"#. c #C3C1AD",
"$. c #C5C4B3",
"%. c #C9C6B3",
"&. c #CBC9B6",
"*. c #CCCCBC",
"=. c #D1CFBD",
"-. c #D3D1BE",
";. c #D5D4C2",
":. c #D9D6C3",
">. c #DAD9C6",
",. c #DBDCCC",
"<. c #DDDFD1",
/* pixels */
"H I I P H G I H P Y H K K Y Y P K J Y K K Y Y U Y T T T T ` / ` T T T T ` ` ! ! ' / ` / ` ....[ [ ` ` ` / [ ....] ` ] ` ` [ ' ` ",
"Z P P H K Y Y E P Y Y K Y Y E Y Y L Y Q L L K W Y W T T T / ` ! T ....! ! ` ....' [ ' ' ` ` [ ......X.X.| [ [ ..X.] ] ` ` ..` ' ",
"I P G P K Y Y E K L ~ K H E E E Q F J ~ E E R ~ Q Y E / Y Y T / T ! T Y T T T T [ / / _ [ ` / [ | ) [ ) ) ) ' ) ) o.o...' ..] ..",
"J P H H Y N 9 > - - - - : ; * : : & * * * * * = = 4 , = = = = ; = = * = = = & 4 : > : : : = > : : : : ; : ; : * > 4 z ..} [ [ ` ",
"P J K E k @ . X X @ @ + @ O $ + + $ # % # % # + . o @ @ @ + o # @ @ # # # # + . X O @ # @ @ O @ $ @ @ % % @ @ @ X   . 4 / } [ _ ",
"P Y K m & & ; 2 1 2 5 6 8 6 3 8 6 8 8 8 5 8 6 2 , , 5 5 6 6 5 6 6 6 6 8 4 5 6 5 6 3 7 7 7 q q 7 9 q 8 q 9 8 q q 2 , % O r [ / ^ ",
"L E E u 1 7 e e e t e t e e i e e i s p i i i i i i t t a t p t r y p y t a i p a a d a d x d g g p g g g a g d p e 0 - & P ( / ",
"L Y Y r 7 i g j c b v v n b l v M b b b b n c j j j j j v c z c j z j j z v v v v M M M M B B M M M M m b n m n n g d w - S / ` ",
"Y P K f r s b B B B V n B Z V B B B Z V B B B n n N b b n C N z C C C n C C S B B A G A A S S S V G G G S G S H B B c a 3 B ( / ",
"L Q L g p j N B C A B C Z G S V Z S S S G S S S C Z Z B Z Z C C S Z G G Z G S G P S J J F P P P D I I P J G H G S A V n 0 B ( E ",
"L L J z j B Z Z S S H H J H S H A G A H G G F D G Z Z D H C G Z G G P P G P P H J P J I Y Y P Y I I T T Y U Y Y P I H M i S ^ W ",
"R ~ K m j B S Z S D H Z P G G G P G H H I G H S H S S D P P P G G P I G P I U P J Y I Y Y ~ Q W E I T W I T T U P H S B s Z ( / ",
"J L L m j M Z A S S F P I P I Y H D Z D J H S H H H P H U P I U P U U U G T T T P Y / / Y / T / W W W W T I T T I I G C h S ) / ",
"J ~ F z m Z H S H H S H I I P J Y H P P H H H P H H Z H U U U I T I U T P I T T E / T Y T / / / W W / W T T T U T W P S f G ^ ( ",
"J L Q N b C Z D S P P F L P I Y Y Y P Y I H I P I H P H T I P I I I I T T I W T Y / Q / T / / W W W W W ` / / ` / T Y H j S / ) ",
"Q L J m b C P S F J P H H Y P H P D P I H Y Y P I P I P I T T T T T T T T T W ` I Y Y / T / / ' ..W ../ T T / T / Y Y Z h S ( ) ",
"F L L m m Z H K H J J G Y I Y P J Z J Y P H H Y H K P I I Y T U T T / T T T / / Y ! / ! / T / / T ..W ..` / ! / ` U P C j S / ( ",
"Y Y L m m S P D J J J P H Y H Y Y H P H H Y P H P H Y Y I T T T T T / U T T / Y U ! Y / / T ` ! ` T T W ! / / ` T ! P Z j G ^ ( ",
"L ~ F B N Z H D I I Y Y Y P Y Y Y K P P L P Y P Y P P Y U / ! T T T T T Y T T / Y / Y ! / T ` ` ..W ..T / T / / T Y I S j S / ( ",
"L L L m z C S H R H J L P H H P H P Y H Y H H J K K P U U U W T U T / U T T / T / / ! ! / T Q ` T W W ` T / / ` T T Y S b Z ~ ^ ",
"L Y H N m S H H J J J L Y Y K Y P Y E K Y H H L Y P H P T ! / U W W T W ! U T / Y ! ! Y T / ` ` T W ` W / / T T / ! Y S z H ( ~ ",
"L J L m m Z H J P J Y K H K P Y H P Y J P H H H Y K P Y T ! Y T T T / T / T / T Q Y ! ! W T / ! W W / ` T ` / ` T Y K S j H ~ ( ",
"F H E V m C Z P K J K J P J L P P F Y P J P K H Y P Y Y T T T / T / / T ! Y ! / Y Y ! / / ` / ! ../ ` ` T / ! / / E P Z l S ( / ",
"J Y L N m S Z F Y K H P L K Y P K P L H L P J J I Y P T ! T ! / / / U T ! / Y Q L ( / Q / / / / ` W / T / ( / Q E W U Z j H E ( ",
"F Y F N z S D H K K D D K Y P H L I P R H L H K Y E P Y / T T T T T T / T ! T / Y Q / Y / / / ! ! ! / / ` / / / T W P S z V ^ ^ ",
"F K Y N N Z H S D Q D K K U K K J J H Y P F H L L J Y / / W ! / ` / Y ! / T ! ! Y ~ ~ / ) ) / / / / / / / ` W ` / U I G j S ( E ",
"Z F P V m C Z K K D K K H H H U Y J P H H H J P L Y P Y ! W / T T / ! Y E W / ! ! / Q ~ ! / / ` / ! / / Q W / / / / P H j F ( ~ ",
"K K J V b C S H L F K K K Y Y H P H Y J J H L L K K K Y Y E / / / / Y ! T Y Y Y Y Y Q / / Q E / / ( / Y / W E E U / P A h J ( ^ ",
"D Y F Z z V S H D K H H H P K G J H H Y K L F J L P Y Y E / / T ~ Y T ! Y Y W Y Y / Q / / ( / ) T / T T / Y ~ / T Y H H j S ~ E ",
"K K L C N V S H K L F H H H P Y K J F P P J L P L L I I / Y Y / / / / Y Y Y / U Y Q Q Q Y / / ~ / / / / ~ Q / / Y U H Z j Z ( ^ ",
"D H J V B N S H K J L K K H L U H H P K J H K P Y H K Y Y Y / W / W ! / / Y W / / ~ Y / Y ~ Y / / / / / ) / Y / W T P Z b V E ^ ",
"H J Y V b V D K K K D H H L H H H H H K K L H J Y P K R Y Y / / Y Y / ! Y Y Y Y Q ~ Q Y / / ~ ' / E T ` / Y / / / U H H c S ^ ( ",
"F Y K Z N D Z P H H L L K L P H L K K H J D H J K L Y Y Q Q Y Y Y T T W Y Y Y Y Q Q ~ / Q / / Q Q Q / / ) / Y Y ~ ~ H Z z H / R ",
"F L K V m S P Z P F L P H H H H P K L H Y P K J L P H E Y Q Y ! Y Y / / / T Y ~ ~ Y Q Y ~ ~ ( Y / ~ Q / / / / / / Y H H b S R ^ ",
"D L Y N m B D H J H K J H K Y Y P J L Y K K P K H L K K L ~ Y Y Y E Q Y Q Q Y Y Q Q Q Q Y Q ( ! / ~ ( ! / ! ) / Y Y P S j B ^ ^ ",
"D R H V l S D H L P K K Y Q J K K L K Y E L J K Y Y K Y Y Y / Y ~ Y T / Y Y / Y Y Q / Q ! ~ ~ / ! / ~ / ( Q Q / Y Q Y Z j F E ~ ",
"J Y F V m C H J P K Y Y K K K J J Y J Y Y L L Y P Y K K K Y Q E Y Y Y / Y ! Y Y Q Q Q ~ Q Y Y ( ) Q / / ( Q / ( Y ! K H j G ~ ( ",
"H L Y B l V D P J K L Y J Y Y L J K Y J Y K Y L J Y P Y ~ Y Y Q Y / E Y / Y Y Q L Q Q Q / ( / ~ ~ ~ / ( / / / ~ Y ! K D j Z ^ ^ ",
"D D F N z N J J K F K P Y J H Y H K K J L P H H J P Y L Y K E Y ~ T / U Q J Y Q Q L Y / Q Q Y / ~ / ( / Q / Y Q Q Y Y Z j F ~ E ",
"D F D m v V Z J Y L J Y Y P E Y P J K K K H K K F L K K K Y Y Y Y Y Q ! L Y L Q ~ Q ~ Q Q Y Q Q / ~ ! / / Y ~ Q Q K L C j V ~ ^ ",
"D L F m l V D H P K K Y K K Y P L K H K Y H H H F H K Y ~ K Y / Y Y Y Y / P K Y Y Y Y ~ / ( Y ~ ( / / Q Y / Y Q L Q L S g V ^ ^ ",
"F K K N z N Z H D L K K Y E Y J I J H H H S H H K K H Y R Y Y Y Y Y Y Y ~ K Y Y ~ ~ Y Y ( Y Q Y ! ! Y Q / ( Y ~ Q Y H D j D E ^ ",
"F D F N k V H D D D Y H K J J H L P F H K K H H J L Y Y Y Y Y Y E K Y Y K Y K L Q ~ Q ~ ( ~ Q Q Y / Y Y Q Y Y K K Y K V j A ^ ^ ",
"K F F N b N D Z F J J K K Y Y H H Y D K H F J K J Y L L Y Q ! E Y Y P P ~ K L Y Q ~ / ^ Q ! / / / / ( Y Y / Y Y Q Y Y D j F E ~ ",
"F L L B m B S D H K K J K K J J H H D P D H K K Y J Y K Y Y Y Q Y Y Y Y Y Y Y Y ~ ~ Q ) Q Q Q Q ~ Y Y ! Y E / Y Y P P S c H ^ ^ ",
"F F D B l m Z D K K K H J H K K H K H F D U L J K L J K L Y Y Y W Y W K E Y L Y Y Q ~ ~ Q Q Q ~ / ( Y / Y / E Y Y P H A j H E ( ",
"F Q L B l V F S S K F K K J J L H D F P K L J J J Y H P ~ K K Y Y Y ! Y E Y Y L ~ ~ ~ Q Y ^ L Y Q ~ / / Q / Q E L J H A j F R ^ ",
"F F L m l Z S F F F H P K J Y J J K F K K L D D H L F L E Y Q J Y Y Y Y E Y Y P Q Q ~ F ~ ~ / / Y / ! ~ ~ ~ ^ E L K L S j Z ^ E ",
"D F F N v V D K K F L K K K K F F K H J J J F J K J Y L Y Y Q Y Q K Q Q F Q Q F Q Q F ~ ~ Q ~ Q ~ ~ Y ( ~ L Q Y J L F D g A ~ ~ ",
"D F F B m A A D K F K K K J K L K F K L J J L J L K J J L R ~ J L K Q F Q Q F Q ~ Q Q Q Q Q Q ) Y ~ Y Q Y ~ ^ Y ~ Y F V z S ~ ^ ",
"F D F V z B Z K D F Q L Y K Y K H J Y K L F R J J L Y J Y L Q Q K Q Q Q Q Q F Q Q Q Q ^ Q ~ Q ~ Q Y Q ( ~ Y ~ E Y J F B j Z ~ ^ ",
"F F F N k A Z D L L F Q K L J F F J F J K L L J L K J ~ Q Q Y F Q L Q Q F F Q Q Q ~ Q Q ( ~ ~ Q Y ~ Q Q ~ Y Y Q K ~ J D z A ~ R ",
"F F F m k A D K F J Y L Y Y K J K K K H F Y R L L Y L J L L ~ L L L L L F Q F Q F ~ ^ F F Q ~ ^ E ~ L R ~ Y J L ~ J F A v F ~ R ",
"F F D V v A D D F J R L L H J K L D F K F F L L L F R R Y Y L ~ F Q Y K Q F Q F ~ Q ~ ( ^ Q Q Q ~ Y ~ ~ Y L ~ ~ R F F A g A ^ ~ ",
"F Q F V k A A F F Y L J J F J F D D J F R F F J L L F R Q Q Q Y Q F L L F ^ Q F ^ ~ ~ F ^ ~ ~ ^ R ~ Y Q R ~ ~ R L F F B l A ^ ^ ",
"D F F A m B D D L F J F F Y J F F H J F F H L F F Y ~ ~ F L F F F L F Q Q ~ F ~ F Q ~ ^ _ F Q ^ L L Y L ~ ~ ~ F R J D A g D R ^ ",
"D F F m m Z A D F F Q F F F F D J D D F F L R D L F R F F L J F F Q Q F ~ F F ~ Q Q F ^ F ~ ~ F F Q ~ ~ F ^ ^ F L L F A x F ^ ^ ",
"F F F A k N V D F L D F F D D F D A A L F F J F F L F ~ L R L L D Q F Q D ~ ~ F F ^ ~ F _ F _ F ~ F Q ^ ~ F ~ ^ F R F A x J ^ ^ ",
"D D F ~ m M D A D A F F L A F D A F D F F A F A F F L F F F F J D F F F F F F F F F F Q F F F F F F F F F ~ F F D J A B A E R ^ ",
"D A F R  .J K ~ ^ F ~ ^ ^ ~ ( ^ ~ ^ ~ ^ R R R ^ ^ ^ ^ ^ ^ ( ( [ _ _ _ ^ { _ { { { {  .)  .{  . . . . .{ _ { { { ^ R R ( E L R R ",
"A D F A  .-.*.*.-.-.-.-.-.-.-.-.-.-.-.-.-.-.&.-.=.-.$.$.*.-.;.;.>.;.-.-.-.-.:.-.<.<.,.;.:.>.>.>.>.>.>.>.-.-.-.>.-.*.%. .E L ^ ^ ",
"D D A A V ~ o.#.$.$.&.%.#.+.#.#.#.+.%.#.O.O.#.#.+.O.| o.O.#.@.#.$.#.#.#.#.&.&.*.*.&.&.&.%.%.%.#.-.&.&.&.#.&.&.&.&.O.[ L R Y ( ^ ",
"A F F F F D D F Q Q F Q F F ~ ~ Q F F F F L F ~ Q F ~ ~ L R L L L R R F Q / ) ) ^ ~ Q ^ / ~ ^ Q ^ F ^ ~ ~ F ~ ~ ~ Y E ~ R Y Y ^ ",
"F D F D F L D Q K F F ~ ~ Q F Q F Q L ~ Q L F ~ ~ ^ L ~ R R ~ ~ ~ ~ Q Q ^ ^ ( ( ^ F ^ Q ^ ~ ~ ^ _ ~ ^ Q F ~ ~ ^ Y R K ^ E ^ ~ K "
};
