/* XPM */
static char *result[] = {
/* columns rows colors chars-per-pixel */
"64 64 185 2 ",
"   c #7B7B72",
".  c #6A6A63",
"X  c #635951",
"o  c #595149",
"O  c #595951",
"+  c #595949",
"@  c #636351",
"#  c #636359",
"$  c #6A6359",
"%  c #635959",
"&  c #727263",
"*  c #494141",
"=  c #83837B",
"-  c #7B7B6A",
";  c #283930",
":  c #283939",
">  c #304139",
",  c #414141",
"<  c #394141",
"1  c #394941",
"2  c #303939",
"3  c #394139",
"4  c #414139",
"5  c #83938C",
"6  c #7B726A",
"7  c black",
"8  c #6A6A59",
"9  c #393939",
"0  c #839383",
"q  c #726A63",
"w  c #B5A500",
"e  c #AD9C00",
"r  c #A59300",
"t  c #080800",
"y  c #9CAD00",
"u  c #DEF700",
"i  c #BDAD00",
"p  c #0F0800",
"a  c #9C9C00",
"s  c #180000",
"d  c #939300",
"f  c #B5AD08",
"g  c #9E9812",
"h  c #DEF70F",
"j  c #130808",
"k  c #393930",
"l  c #8C9383",
"z  c #72726A",
"x  c #000800",
"c  c #171300",
"v  c #393030",
"b  c #414941",
"n  c #496339",
"m  c #495930",
"M  c #415130",
"N  c #498549",
"B  c #B5E78C",
"V  c #2C6424",
"C  c #495939",
"Z  c gray19",
"A  c #080000",
"S  c #515149",
"D  c #495149",
"F  c #B5DE97",
"G  c #30342B",
"H  c #394130",
"J  c #517B51",
"K  c #518C51",
"L  c #497B51",
"P  c #B5DE8C",
"I  c #7B7263",
"U  c #8C938C",
"Y  c gray3",
"T  c #241800",
"R  c #413939",
"E  c #494949",
"W  c #494941",
"Q  c #BDE793",
"!  c #495130",
"~  c #519C51",
"^  c #8C8C83",
"/  c #838372",
"(  c #0F0000",
")  c #303930",
"_  c #414949",
"`  c #515951",
"'  c #59805F",
"]  c #495941",
"[  c #3B463B",
"{  c #586E5F",
"}  c #493D49",
"|  c #518C59",
" . c #596359",
".. c #636A63",
"X. c gray35",
"o. c #6A6363",
"O. c #ADA59C",
"+. c #9C9C8C",
"@. c #A5A593",
"#. c #938C83",
"$. c #9C938C",
"%. c #938C7B",
"&. c #8C8C7B",
"*. c #939383",
"=. c #9C9383",
"-. c #8C837B",
";. c #837B72",
":. c #514949",
">. c #595151",
",. c #302828",
"<. c #939C8F",
"1. c #000008",
"2. c #E3DEDE",
"3. c #050091",
"4. c #E7E7DE",
"5. c #E3E1D6",
"6. c #D6D6CE",
"7. c #D6D6C6",
"8. c #C0C6BD",
"9. c #C6C6B5",
"0. c #000021",
"q. c #302830",
"w. c #303028",
"e. c #515141",
"r. c #514941",
"t. c #1213AD",
"y. c #030C24",
"u. c #390008",
"i. c #51000F",
"p. c #082E91",
"a. c #6A000F",
"s. c #300008",
"d. c #7B0018",
"f. c #490008",
"g. c #60000F",
"h. c #280008",
"j. c #210008",
"k. c #49000F",
"l. c #282828",
"z. c #031593",
"x. c #000F9E",
"c. c #283028",
"v. c #8C8372",
"b. c #05000F",
"n. c #060818",
"m. c #837B6A",
"M. c #B5B5A5",
"N. c #B5B59C",
"B. c #BDBDAD",
"V. c #000C83",
"C. c #21004E",
"Z. c #515151",
"A. c #182830",
"S. c #515959",
"D. c #B5AD30",
"F. c #F7F749",
"G. c #394921",
"H. c #414918",
"J. c #A5A5A5",
"K. c #282839",
"L. c #303018",
"P. c #ADA5A8",
"I. c #302818",
"U. c gray39",
"Y. c #393941",
"T. c #514951",
"R. c #A59C8C",
"E. c white",
"W. c #837B7B",
"Q. c #B5ADAD",
"!. c #EFEFE7",
"~. c gray97",
"^. c #BAB8B5",
"/. c #726A6A",
"(. c gray13",
"). c #9CA59C",
"_. c #413941",
"`. c #F7F7EF",
"'. c #FFFFF7",
"]. c #494149",
"[. c gray74",
"{. c #93938C",
"}. c #7B7272",
"|. c #635963",
" X c #6A6A6A",
/* pixels */
"  . X o O O O O o X O + O X O o O o O @ O # X O X # X X X X O X # O X # X X $ X O # O X O X O X X % @ X @ # @ X O + # X @ O & * ",
"= - ; : > > , < 1 2 > > 3 < , 1 3 < 3 < > > > > 2 2 > 2 2 > > 2 2 2 > 2 2 2 2 2 2 2 > 2 : 2 2 2 2 > 2 2 2 2 2 > 2 > 2 1 > O & 4 ",
"5 6 2 7 7 7 7 7 7 7 7 7 7 7 7 7 7 7 7 7 7 7 7 7 7 7 7 7 7 7 7 7 7 7 7 7 7 7 7 7 7 7 7 7 7 7 7 7 7 7 7 7 7 7 7 7 7 7 7 7 < 8 . 9 ",
"0 q > 7 w e r t y u i p a u i p r e r s r e r t y u i p a u i p r e r s r e d 7 d e r t y u f p g h f j g g g j r e r 7 3 $ q k ",
"l z 3 7 7 x 7 7 t c 7 7 t t 7 7 x 7 x 7 x 7 7 7 t c 7 7 t t 7 7 x 7 x 7 x 7 7 7 7 7 7 7 t c 7 7 x t 7 7 x 7 x 7 x 7 x 7 < $ q v ",
"l & b 7 n m M 7 N B N 7 M m M 7 M m M 7 M m M 7 N B N 7 M m M 7 M m M 7 M m V 7 M m M 7 N B N 7 M m M 7 M C M 7 M m M 7 < # & Z ",
"5 z b 7 7 7 7 7 7 A 7 7 7 7 7 7 7 7 7 7 7 7 7 7 7 A 7 7 7 7 7 7 7 7 7 7 7 7 7 7 7 7 7 7 7 A 7 7 7 7 7 7 7 7 7 7 7 7 7 7 < # & k ",
"5 6 S 7 7 7 7 7 7 7 7 7 7 7 7 7 7 7 7 7 7 7 7 7 7 7 7 7 7 7 7 7 7 7 7 7 7 7 7 7 7 7 7 7 7 7 7 7 7 7 7 7 7 7 7 7 7 7 7 7 < @ z 9 ",
"5 6 D 7 m F G 7 H C H 7 J B J 7 J B K 7 K C H 7 H n H 7 L B J 7 J P K 7 J B L 7 M C H 7 H n H 7 L B J 7 J B K 7 J B K 7 < O I 9 ",
"5 6 S 7 x 7 7 7 7 x x 7 7 7 x 7 7 7 7 7 7 7 7 7 7 7 7 7 7 7 7 7 7 7 7 7 7 7 7 7 7 7 7 7 7 7 7 7 7 7 7 7 7 7 7 7 7 7 7 7 3 $ q 9 ",
"U 6 D 7 w e r t y u i p a u i p r e r s r e r t y u i p a u i p r e r s r e d 7 d e r t y u i p a u i p r e r p r e r 7 3 # & 4 ",
"U 6 b 7 x 7 7 7 Y T 7 7 t t 7 7 x 7 x 7 x 7 7 7 Y T 7 7 t t 7 7 x 7 x 7 x 7 7 7 7 7 7 7 Y T 7 7 t t 7 7 x 7 x 7 x 7 x 7 < @ 6 R ",
"l 6 E 7 7 7 7 7 7 x 7 7 7 7 7 7 7 7 7 7 7 7 7 7 7 x 7 7 7 7 7 7 7 7 7 7 7 7 7 7 7 7 7 7 7 x 7 7 7 7 7 7 7 7 7 7 7 7 7 7 < O & 4 ",
"l 6 W 7 n C M 7 K Q K 7 M C M 7 M C ! 7 M C M 7 K Q N 7 M C M 7 M C ! 7 M C ~ 7 M C M 7 K Q K 7 M C M 7 M C ! 7 M C ! 7 < @ q 4 ",
"^ 6 E 7 7 7 7 7 7 x 7 7 7 7 7 7 7 7 7 7 7 7 7 7 7 x 7 7 7 7 7 7 7 7 7 7 7 7 7 7 7 7 7 7 7 x 7 7 7 7 7 7 7 7 7 7 7 7 7 7 1 S q 9 ",
"^ 6 b 7 7 7 7 7 7 7 7 7 7 7 7 7 7 7 7 7 7 7 7 7 7 7 7 7 7 7 7 7 7 7 7 7 7 7 7 7 7 7 7 7 7 7 7 7 7 7 7 7 7 7 7 7 7 7 7 7 > D q k ",
"^ 6 1 7 m F G 7 H C H 7 J B J 7 J B K 7 K C H 7 H n H 7 L B J 7 J B K 7 J B L 7 M C H 7 H n H 7 L B J 7 J B K 7 J B K 7 > S . k ",
"/ 6 b 7 x 7 7 7 7 x x 7 7 7 x 7 7 7 7 7 7 7 7 7 7 7 7 7 7 7 7 7 7 7 7 7 7 7 7 7 7 7 7 7 7 7 7 7 7 7 7 7 7 7 7 7 7 7 7 7 > O $ 9 ",
"6 & < 7 w e r t y u i p a u i p r e r ( r e r t y u i p a u i p r e r s r e d 7 d e r t y u i p a u i p r e r p r e r 7 > D $ ) ",
"6 q b 7 7 x 7 7 Y T 7 7 t t 7 7 x 7 x 7 x 7 7 7 Y T 7 7 t t 7 7 x 7 x 7 x 7 7 7 7 7 7 7 Y T 7 7 t t 7 7 x 7 x 7 x 7 x 7 > _ 8 k ",
"- z b 7 7 7 7 7 7 x 7 7 7 7 7 7 7 7 7 7 7 7 7 7 7 x 7 7 7 7 7 7 7 7 7 7 7 7 7 7 7 7 7 7 7 x 7 7 7 7 7 7 7 7 7 7 7 7 7 7 2 1 q 9 ",
"  & < 7 n C M 7 K Q K 7 M C M 7 M C ! 7 M C M 7 K Q K 7 M C M 7 M C ! 7 M C ~ 7 M C M 7 K Q K 7 M C M 7 M C ! 7 M C ! 7 : D 8 k ",
"$ z 3 7 7 7 7 7 7 x 7 7 7 7 7 7 7 7 7 7 7 7 7 7 7 x 7 7 7 7 7 7 7 7 7 7 7 7 7 7 7 7 7 7 7 x 7 7 7 7 7 7 7 7 7 7 7 7 7 7 > D . k ",
"q q b 7 7 7 7 7 7 7 7 7 7 7 7 7 7 7 7 7 7 7 7 7 7 7 7 7 7 7 7 7 7 7 7 7 7 7 7 7 7 7 7 7 7 7 7 7 7 7 7 7 7 7 7 7 7 7 7 7 > ` & 9 ",
"# z b 7 m F G 7 H C H 7 J F J 7 J F K 7 ' ] [ 7 [ ] [ 7 { F { 7 { F ' 7 { F { 7 } ] } 7 } ] [ 7 { F { 7 ' F | 7 ' F | 7 1  .& 4 ",
"X & b 7 7 7 7 7 7 7 7 7 7 7 7 7 7 7 7 7 7 7 7 7 7 7 7 7 7 7 7 7 7 7 7 7 7 7 7 7 7 7 7 7 7 7 7 7 7 7 7 7 7 7 7 7 7 7 7 7 b ..& 4 ",
". X : 3 > : > ; ; 2 2 : 2 > : 2 : : : 2 : : 2 2 2 2 2 2 2 > < 2 : > 2 : 2 : : : : 2 > 2 > > 2 > 2 > : 2 2 : 2 2 2 > 2 < 2 X.& , ",
"# X & z & . . . q q q z q 8 q z q & z . q z   z & & z   z   z 6 & z . z $ . . . # . # z . z . . . . . $ . . # . $ . 8 o.8 . & W ",
"$ X @ o O O o O O + O O @ # # O O O # # X 8 q # q 8 # 8 # # @ # # X X # # # # O O O O X O $ O . O $ # # # X # 8 . # X # # $ & 9 ",
"4 k 9 4 Z 9 4 9 Z 4 4 9 9 ) 4 9 ) k Z 4 4 4 4 4 Z k 9 k Z 4 , 4 3 k 4 3 k 9 9 4 4 k 9 k Z Z k Z Z 9 k 4 k 4 9 4 4 9 4 9 4 3 k , ",
"^ O.+.@.+.+.#.#.#.$.$.$.%.&.^ *.$.$.=.*.-.-.= -.-./ / = ;.= S Z S S S o :.S + S >.O O S O O O o @ O O O o >.X O O o S S >.S S ,.",
"<.  6 6 - ;.q - - q q 6 & & & - q q q 8 8 . 8 # O S X . $ 8 o k o 7 1.7 7 7 7 7 7 7 7 7 7 7 7 7 7 7 7 7 7 7 7 7 7 7 7 7 7 7 S Z ",
"U 6 & q & ;.q ;.6 2.q -.$ q & $ $ . X $ q # $ o # $ O $ z q S Z S 1.3.7 7 7 7 7 7 7 7 7 7 7 7 7 7 7 7 7 7 7 7 7 7 7 7 7 7 7 S Z ",
"l z . 4.q I 2.& 6 8 3 & 5.X & 6.$ q 7.O q # $ 8.O X 9.o $ # S k o 7 0.7 7 7 7 7 7 7 7 7 7 7 7 7 7 7 7 7 7 7 7 7 7 7 7 7 7 7 S q.",
"^ $ $ # 9 $ 8 k q X # X S k O S 3 S S w.$ :.o e.Z O r.Z $ q o ) S 1.t.Y 7 7 7 7 7 7 7 7 7 7 7 7 7 7 7 7 7 7 7 7 7 7 7 7 7 7 o 9 ",
"^ # $ q 8 # 8 # O 9.o >.X X S o O o S O r.X $ # $ $ $ # O & S w.>.7 y.7 7 7 7 s u.i.i.i.i.i.u.u.u.s 7 7 7 7 7 7 7 7 7 7 7 7 o Z ",
"$.8 q @ . q # $ O r.Z o O % X X X O O X # O X $ $ $ X # # 8 S w.S 1.p.7 7 a.a.i.u.s s s s s s.u.s.i.d.f.s.( 7 7 7 7 7 7 7 7 S Z ",
"$.X . # q # X $ # o X O # # X # X X O $ X X O X X $ X X O $ :.w.S 7 y.7 g.h.7 7 7 7 7 7 7 7 7 7 7 7 7 j.u.i.g.k.i.f.s.7 7 7 S q.",
"#.q # . 8 $ $ $ $ $ # . $ 8 # X # # X O # O # X O X # O X $ S l.S 1.z.7 7 7 7 7 7 7 7 7 7 7 7 7 7 7 7 7 7 7 7 s s j.s.s.s.s.S l.",
"-.X q O X # $ . . # $ . X # . X # X O O o X # X O O X # O # o l.S 7 0.7 7 7 7 7 7 7 7 7 7 7 7 7 7 7 7 7 7 7 7 7 7 7 7 7 7 7 S ,.",
"/ @ # $ O $ O X # X # $ # X O @ X X O o O O X X X o O o O # 4 ,.S 1.x.1.7 7 7 7 7 7 7 7 7 7 7 7 7 7 7 7 7 7 7 7 7 7 7 7 7 7 o l.",
"9 k 9 4 4 9 k ) Z w.9 k Z k Z 9 Z k Z k k k k k 9 k k 9 k Z w.c.S 7 0.7 7 7 7 7 7 7 7 7 7 7 7 7 7 7 7 7 7 7 7 7 7 7 7 7 7 7 S Z ",
"/ 6 6 ;.;.;.;.6 ;.6 ;.- ;.- q $ 9 q - ;.;.- v.;.;.& q 8 $ $ S l.S 1.x.b.7 7 7 7 7 7 7 7 7 7 7 7 7 7 7 7 7 7 7 7 7 7 7 7 7 7 o l.",
";.# $ $ $ $ . $ $ $ $ $ O o O o W q X X X $ 8 X O # X O O X W l.O 7 1.7 f.f.a.s.u.a.7 7 7 7 7 7 7 7 7 7 7 7 7 7 7 7 7 7 7 7 o l.",
"&.$ . X #   $ 8 $ O o % # o X O R & >.# S X # 6 o S X q :.X S l.S n.b.7 7 b.7 1.7 b.7 1.7 1.7 1.7 1.7 1.7 1.7 1.7 1.7 1.7 7 S l.",
"m.$ $ # M.N.S O $ S # B.*.* O O 9 8 o.@.. W $ B./ r.o.M.- S S ,.S b.V.1.b.t.0.p.0.C.y.p.0.t.n.z.0.z.0.t.y.p.0.V.n.z.n.t.1.7 S l.",
"6 $ X W 6 W w.O X :.S & k k O O 9 q W 6 R S W - 9 r.O . 9 O o Z S 7 1.7 7 1.7 1.7 b.7 b.7 1.7 b.7 1.7 1.7 1.7 1.7 1.7 1.7 7 S l.",
"I # >.S W w., S X O S 9 Z S O o 9 8 S Z 9 * S Z k :.W w.4 :.O l.S S o O o O o O o o S o S S :.S S :.o S S S o o o O S S S o + Z ",
"# O O o S O o >.O O O X @ O S S 4 # o S S S :.S S S S S S @ O l.w.Z Z Z Z k ) Z k k k Z k k ) Z Z 4 ) Z k w.Z Z Z w.l.w.l.Z l.l.",
"X S S S S S S S S S o S S S S o 4 O O S o S S S S S S S S o :.c.# z q X S S X # # # % $ O :.# X :.>.S :.>.:.>.:.>.:.:.E Z.* S l.",
"A.4 Z k k 9 9 Z Z Z w.l.Z ,.l.Z Z 9 Z k ) 9 k k 9 k 4 9 k 3 4 l.o.S.M b D.F.b G.H.O J.K.L.P.I.b P.2 U.P.1 S D O D E ` , _ b E q.",
"6 $.$.$.$.*.&.-.-.-.-.#.^ #.#.#.*.#.#.#.#.#.#.#.^ &.-.  6 % O l.S % :.S , Z.S >.>.O :.# % % # # >.. # S . . X % o.. o.# S >.S Z ",
". - ;.6 6 & $ $ X X X $ X 8 $ 8 X # $ # # # $ X $ % O X # X # l.% , v 9 , * Z 4 Y.W , Y.Z 4 9 9 E R 9 W E S T.9 % X.:.* E W W q.",
"6   -.R.&.;.- - -   ;.;.;.z ;.  ;.q 6 6 6 - 6 & q 6 q # X # # l.>.E.W.l.4.# l.4.# l.Q.# l.2.# l.4.. ,.!.~.E.6.w.Z.^.. ,.2./.* w.",
"  6 W 4 9 k v k v k ) Z Z Z w.Z w.Z w.Z w.Z w.Z Z Z w.Z 4 $ # l.W.v l.Z Z l.* v l.w.l.l.w.Z l.w.9 (.W Z l.l.l.w.E ,.l.Z Z (.v l.",
";.# #.#.;.;.- - 6 6 m.z 6 6 q 6 q q q q z q q 6 q q z q . $ # l.# E.).l.E./.l.E.. l.~.- l.E.6 l.E.z l.E.~.~.E.l._.~.- l.E.6 * l.",
"  # 9 Z Z Z w.Z Z w.Z w.w.w.w.w.w.w.w.w.w.w.w.w.w.w.w.Z v @ O l.W.v Z w.9 q.4 Z q.w.Z q.c.v l.l.9 l.* 9 ,.,.l.l.W q.Z l.v l.v Z ",
"6 O q - z 6 6 6 q q q q z 6 q q q 6 6 q q q 6 q z z z . $ O S l.$ `.E.l.E.  l.E.  l.`.q l.E.W.l.E.W.l.'.~.~.E.l.9 `.q l.E.. R l.",
"z X 4 w.w.w.w.w.w.w.w.Z w.w.w.w.w.w.w.w.w.w.w.Z w.w.w.Z Z X S k . 4 Z.l.:.9 Z Z.T.l.].T.l.:.T.l.S R , E 9 v v l., * T.l.* E R l.",
"q O . $ q q o.. q q q 8 z q q $ o.o.q q q q q $ z $ % o O o o Z S E.Q.w.E.^.v E.8.l.E.6.l.E.^.l.E.[.Z ~.!.~.~.l.9 E.6.l.E.8.9 ,.",
"$ # O O O @ O O + @ O + @ O @ O @ O O X + O O O O @ X # X O S k :.O % l.{.}.Z . }.l.z |.l.z z l.6 U.Z = Z.>.O l., /.U.l. X}.R l.",
"` O r.W W :.S :.S :.S S S S S S S S S S :.S W W W W W W W W :.3 E R R 9 * 9 R R , R 9 * 9 9 , R 9 9 9 * R k R , , R , 4 , R Z Z ",
"w.4 9 9 k Z l.l.l.l.l.l.l.l.l.l.l.l.l.l.l.l.Z Z k k 9 k 9 k Z l.l.l.l.w.l.l.l.Z l.c.l.l.l.w.Z Z l.w.w.Z l.l.l.) l.w.l.l.l.c.l.Z ",
"W W W W 4 W W e.W e.W W W W W W r.e.S S e.W W W W W W W W W * W W W * W W W W W W W * W W W 4 W 4 4 4 , 4 4 4 , e.W W W 9 * W _."
};
