/* XPM */
static char *result[] = {
/* columns rows colors chars-per-pixel */
"64 64 253 2 ",
"   c #464646",
".  c #494949",
"X  c #4B4B4B",
"o  c #4C4C4C",
"O  c #4E4E4E",
"+  c #434343",
"@  c #414141",
"#  c #3C3C3C",
"$  c #393939",
"%  c #373736",
"&  c #343434",
"*  c #323232",
"=  c gray19",
"-  c #2D2D2D",
";  c #2A2A2A",
":  c #282828",
">  c #272727",
",  c gray14",
"<  c #222222",
"1  c gray13",
"2  c #1E1E1E",
"3  c gray11",
"4  c gray10",
"5  c #191818",
"6  c #171515",
"7  c #131313",
"8  c gray7",
"9  c #101010",
"0  c #0E0E0E",
"q  c #0B0B0B",
"w  c gray3",
"e  c #060606",
"r  c gray1",
"t  c #3F3F3F",
"y  c gray18",
"u  c #0C0C0C",
"i  c #1A1919",
"p  c gray9",
"a  c #494645",
"s  c #594341",
"d  c #6E413C",
"f  c #7B3D34",
"g  c #933C32",
"h  c #9B392C",
"j  c #A53426",
"k  c #96392E",
"l  c #88362C",
"z  c #663B36",
"x  c #593F3B",
"c  c #4B3B39",
"v  c #433C39",
"b  c #403D3C",
"n  c #46403F",
"m  c #AB3728",
"M  c #B63728",
"N  c #B93426",
"B  c #BB3626",
"V  c #BC3727",
"C  c #BB3424",
"Z  c #B53424",
"A  c #A93022",
"S  c #913227",
"D  c #77342C",
"F  c #64342E",
"G  c #503430",
"H  c #3D3433",
"J  c #371F1C",
"K  c #3F1E1A",
"L  c #3C1D1A",
"P  c #391C19",
"I  c #371813",
"U  c #341510",
"Y  c #32120E",
"T  c #1A0F0F",
"R  c #9D1B0C",
"E  c #B21906",
"W  c #B21805",
"Q  c #B11703",
"!  c #B11603",
"~  c #B11501",
"^  c #8E1305",
"/  c #0E0C0C",
"(  c #BA3727",
")  c #BC3728",
"_  c #BD3B2B",
"`  c #B93323",
"'  c #B9301F",
"]  c #B23022",
"[  c #702B23",
"{  c #241D1C",
"}  c #2B1C1B",
"|  c #1B1313",
" . c #391A17",
".. c #63180F",
"X. c #73160A",
"o. c #50130C",
"O. c #BE3C2C",
"+. c #BD3D2E",
"@. c #BB3323",
"#. c #BA301E",
"$. c #B92E1C",
"%. c #373030",
"&. c #861C10",
"*. c #931E10",
"=. c #A91A0A",
"-. c #95190B",
";. c #AC1906",
":. c #A61806",
">. c #9B1808",
",. c #9D1605",
"<. c #A91503",
"1. c #9B1303",
"2. c #301A19",
"3. c #2E1512",
"4. c #131010",
"5. c #95362B",
"6. c #BF3D2E",
"7. c #BF3F30",
"8. c #BF4030",
"9. c #BA3222",
"0. c #402622",
"q. c #691E16",
"w. c #6D1D15",
"e. c #6C1B13",
"r. c #6A1A12",
"t. c #691A0F",
"y. c #771509",
"u. c #6D1309",
"i. c #491E1A",
"p. c #B11906",
"a. c #B01805",
"s. c #A81603",
"d. c #46120B",
"f. c #B93C2D",
"g. c #AC3B2D",
"h. c #AE3F30",
"j. c #BB3F30",
"k. c #BF4132",
"l. c #BA3B2C",
"z. c #B93221",
"x. c #433330",
"c. c #262221",
"v. c #231A19",
"b. c #993428",
"n. c #B63B2D",
"m. c #8C3D34",
"M. c #69403B",
"N. c #A84034",
"B. c #BD3F30",
"V. c #BC3C2C",
"C. c #A33B2E",
"Z. c #993023",
"A. c #593934",
"S. c #B83424",
"D. c #9D3327",
"F. c #B9392A",
"G. c #543936",
"H. c #BA301F",
"J. c #B9301E",
"K. c #403939",
"L. c #B92E1D",
"P. c #B92D1B",
"I. c #B72C1A",
"U. c #5D2B24",
"Y. c #B72E1C",
"T. c #4E3734",
"R. c #A73728",
"E. c #5F332E",
"W. c #B22E1D",
"Q. c #B82C1A",
"!. c #B82B1A",
"~. c #493230",
"^. c #A72E1E",
"/. c #B62818",
"(. c #B72817",
"). c #B52817",
"_. c #AE2A1A",
"`. c #B32613",
"'. c #68261D",
"]. c #2B2828",
"[. c #B22413",
"{. c #792A1F",
"}. c #482A26",
"|. c #332E2E",
" X c #692B24",
".X c #5C1F18",
"XX c #791E15",
"oX c #9B1A0B",
"OX c #991808",
"+X c #971505",
"@X c #7D1306",
"#X c #7F1C12",
"$X c #7D1A0F",
"%X c #7C1A0E",
"&X c #7B180B",
"*X c #771306",
"=X c #5F1309",
"-X c #372C2B",
";X c #7C261A",
":X c #B32310",
">X c #8A2418",
",X c #B22615",
"<X c #B72716",
"1X c #A3281A",
"2X c #B62613",
"3X c #75281E",
"4X c #362A28",
"5X c #2D2624",
"6X c #712419",
"7X c #372724",
"8X c #2C2827",
"9X c #B62413",
"0X c #322624",
"qX c #901B0F",
"wX c #831A0E",
"eX c #791A10",
"rX c #A31A09",
"tX c #711C12",
"yX c #391612",
"uX c #921708",
"iX c #631D16",
"pX c #571A12",
"aX c #211716",
"sX c #270F0C",
"dX c #B3210F",
"fX c #B5220F",
"gX c #B31F0E",
"hX c #2D2221",
"jX c #701F16",
"kX c #B31C0B",
"lX c #B31E0C",
"zX c #B31A09",
"xX c #B01B0A",
"cX c #221F1F",
"vX c #75190C",
"bX c #791C13",
"nX c #461A15",
"mX c #AF1703",
"MX c #1F1C1C",
"NX c #AF1301",
"BX c #1C1919",
"VX c #6D190F",
"CX c #8C180A",
"ZX c #821506",
"AX c #410F09",
"SX c #8C1608",
"DX c #B01301",
"FX c #9A1303",
"GX c #121010",
"HX c #0C0B0B",
"JX c #0E0B0B",
"KX c #010101",
"LX c white",
/* pixels */
"  .   . X X X X X X o o o O O O O O O O O o o X X .     + + @ @ # $ $ % & * = = - ; : > , < < 1 2 3 4 4 5 6 7 8 9 0 q w e e r r ",
"      . . . . . . X X O o o O O O O O O O o X . . . .   @ @ @ t # # $ % & * * y - ; : > , , < 1 2 3 4 4 5 6 7 8 9 0 u w w e r r ",
"              . . X . X o o O O O O o o o o X X X .   + @ @ t # # $ % & & * = = y ; : > , < < 1 2 2 3 4 5 6 7 8 9 0 u q w e r r ",
"+                   . . X X X X X X X X o X . . .     + @ t # # $ $ & & * * = y - - : > , < < 1 2 2 3 4 i 6 7 7 9 0 u q q e e r ",
"+ + + + + +   + +       . . . . . X . . . .         + @ @ t # $ % % & & * = = y - ; : > , , < 1 2 2 3 4 i p 7 7 9 9 0 u q e e r ",
"@ @ @ @ + @ @ @ @ + +   a a s s d f g h j j k l f z x c v b $ $ % & & & * = y - - ; : : , < 1 1 2 2 2 3 i 5 6 7 8 9 0 u q w e r ",
"@ @ @ @ @ @ @ @ @ @ @ + + +       .             + @ t t # # $ $ % & * * = = y ; ; ; : > > < 1 1 2 2 2 3 4 5 6 7 8 9 0 u q w e e ",
"t t t t t t t t @ n x z f k m M N B B V V V C B C N Z A S D F G H & * = = = - - : ; : > , , J K L L P P P I I U Y T 0 u q q w e ",
"# # t t # # # t t @ @ @ @ +           + + + @ @ @ @ t # # $ $ % & * * = = = - ; ; ; : : > , R E E E W W W Q ! ~ ~ ^ 0 / u q w e ",
"# # # # # # # v D A Z C ( ) ) ) _ _ _ _ _ _ ) ) ) ) V V C ` ' ] A [ H = = y - ; ; ; : > > , < J L L { 3 3 } I | 7 8 9 0 u q w e ",
"$ $ # # # # # # t t @ @ @ + + + + + + + + + + @ @ @ t t # $ $ % % & & * = = - ; ; ; ; : > , J K L L L P P  ...X.o.| 9 0 u q w e ",
"$ $ $ # $ # v D ` C V ) _ _ O.O.O.+.O.+.O.O.O.O._ _ ) ) B B @.@.#.$.D %.= = y ; ; ; : : > , &.*.=.=.-.-.;.:.>.,.<.1.T 0 u q w e ",
"$ $ $ $ $ $ # # t @ @ @ @ @ @ + + + +   + @ @ @ @ @ t t # # $ $ % & & * * = y - - ; : : > > < < J L 2 2 P 2.4 5 3.Y 4.0 u q w e ",
"% $ # $ $ $ v 5.C B ) _ O.O.+.6.6.7.8.7.7.6.O.+.O.O._ _ ) V C C 9.' S H * = y - - ; : : : 0.q.w.w.w.e.r.r.t.t.X.y.u.o.Y u q w e ",
"$ $ $ $ $ # # # t @ @ @ @ + +   + +       + + + @ @ @ @ t # $ $ $ % & & & * = y - ; : : ; i.*.=.=.=.p.;.:.a.a.Q ! s.u.d.u q w e ",
"$ $ $ $ $ # c 5.V ) _ f.g.h.j.8.8.7.7.k.k.7.7.O.O.O._ l.g.g.M C 9.z.S x.& * = y - - ; : > > , , < c.L } 2 3 v.I U | 8 0 u q w e ",
"% $ $ $ $ # # # t @ @ @ @ + +     +         + + + @ @ @ t # # $ $ $ % & * * = y - - ; : > > > , < < 1 2 2 3 4 4 6 7 8 0 u q q w ",
"% $ $ # $ # c b.B ) n.m.M.f N.B.8.8.k.8.6.7.6.O.O._ V.C.f z l Z 9.z.Z.x.* = = y - - ; : > > > , < < 1 2 2 3 4 4 5 7 8 9 u q q w ",
"% % $ # $ # # # t t @ @ @ + +               + + @ @ @ @ # # $ $ $ % & & * = = y - - ; : > > > , 1 1 1 2 2 3 4 4 p 7 8 9 u q q w ",
"% $ $ # $ # c b.B ) l.m.x d N.B.8.8.8.8.7.7.7.6.+.O._ C.z A.l S.@.' Z.x.* = = y - - ; : > > > , < 1 1 2 3 3 4 4 p 7 8 9 0 q q w ",
"% $ $ # $ # # # # t @ @ @ + + + + +   + + + + @ @ @ @ t # # $ $ $ % & & * = = y - ; ; : > > , , < 1 1 1 2 3 4 4 p 7 8 9 u q q w ",
"% $ $ $ # # c D.@.V F.m.x M.g +.7.6.6.6.+.6.6.O.O._ F.k z A.l S.z.#.Z.x.* = = y - ; : > > , , , < 1 1 2 3 3 3 4 i 7 8 9 u q q w ",
"% $ $ $ # # # # # # # t @ @ @ @ + + @ @ @ @ @ @ @ t b # $ $ $ $ % % & * = = = - ; ; : > , , , , < 1 2 2 3 3 3 4 p 7 8 9 u q q w ",
"% $ $ $ $ # c D.@.C ( g x x g f.O.O.O.O.O.O.O._ ) ) F.l G.G.S ' H.J.Z.x.= y - - ; : > > , , , , < 1 2 2 2 3 3 4 p 7 8 9 u q q w ",
"$ $ $ $ $ # # $ $ # # # # t t @ @ @ @ @ @ @ @ t t # # $ $ $ % % & & * = = y - ; ; : > > , , , < < 1 1 2 3 3 3 5 p 7 8 9 u q q w ",
"% $ $ $ $ $ G.] 9.C ` b.G.b c C._ _ _ _ _ _ ) V V B Z A.K.F ] L.P.P.I.U.= - - ; : > > > , < < < 1 1 1 2 3 3 3 4 5 7 8 9 u q q w ",
"% $ $ $ $ $ $ $ $ $ $ $ # # # # # @ @ t # # # # # $ $ $ $ % & & * * = y y - - ; : > > , < < < < 1 1 2 2 3 3 3 4 5 7 8 9 0 q q w ",
"% % $ % $ $ F Y.#.z.9.D.T.# c R.V ) ) V V B B B C C S.G % E.W.P.P.Q.!.[ - - ; : > > > , , < < < 1 1 2 2 3 3 3 4 5 7 8 9 0 q q w ",
"$ % $ $ $ $ $ $ $ $ $ % $ $ $ $ $ $ $ $ $ $ $ $ $ $ $ % % & * * * * = y - ; : : > > , , < < < 1 1 1 2 2 3 3 3 4 5 7 7 9 0 u q w ",
"$ % % % % $ E.W.P.L.#.S x.% F Z @.@.C C C @.@.9.9.9.z.l %.~.^.P.Q././.U.- ; : > > , > , < < < < 1 1 2 2 2 3 3 4 5 7 7 9 0 q q w ",
"% % % % & % % % & % % % & % % $ $ $ $ $ $ $ $ $ % % & & & * * * = = = - - : : > > , > < < < < < 1 2 2 2 3 3 3 4 i 6 7 9 0 u q w ",
"% % % & & & & E.!.!.Y.j G H S z.H.H.H.#.H.H.H.H.#.#.L.A x.G ^.!.!.(.U.; ; : > > , , , < < < < < 1 2 2 2 3 3 3 4 i 7 7 9 0 u q w ",
"% % % & & & * * & & * & & & & & % & & & & & & & & & & * * = = = y y ; ; : > > > , , < < < < < 1 1 2 2 2 3 2 3 4 5 7 7 9 0 u q w ",
"% % % & & * * [ ).)._._.E.~.^.$.$.L.#.#.#.L.L.L.L.P.P.I.U.E._._.).`.'.].: > > , , < < < < < 1 1 2 1 2 2 2 3 3 4 p 7 7 9 0 u q w ",
"& % & & & & = = * = = = = * * * * * & & & & * * * * * = = y y - ; ; : : > > , , , < < < < 1 1 2 2 2 2 2 2 3 3 4 i 6 7 9 0 u q w ",
"& & & & & * = U.[.).{.}.|.}._.!.Q.Q.Q.Q.Q.Q.Q.Q.!.!././. X= }.{.`.[.U.> > , , .XXX&.R R R R R R oXoXoXoXoXoXOXOXOXOXOX+X+X@Xq w ",
"& & * * * * = y - - y y y - - = = = = = = = = = = y y - - - ; ; : : > , > , < i..Xw.#X#X#X#X$X$X$X$X$X$X%X%X%X%X&X&Xy.*X*X=Xq w ",
"& & * = = * = -X;X:X>X-Xy U.,X<X<X(./.(.1X1X(.<X<X(.<X2X3X; 4X>X:X;X5X> , < < < 1 1 1 1 1 1 1 1 2 2 2 2 2 3 3 4 i 6 7 9 0 u q w ",
"& & * = = - y - - ; : : ; ; ; - - - - - - - - - ; ; ; ; : : : : > , , , < < < < 1 < < < 1 1 1 2 2 1 2 2 3 3 3 4 i p 7 9 0 u q w ",
"* * * = y - ; ; 4X'.6X7X8XU.,X9X9X9X9X9X;X;X9X9X2X2X2X9X;X8X7X6X'.0X, , , < 1 J &.qXqXqX&.wXeXeX$XrXoXoXtX3 3 4 i yXuXuXu.u q w ",
"* = = = - ; : : : : : : : > > : : : : : : : ; ; : : : : > > > > , , , < < < 1 J tXqXqXqXqXqXiX.X.Xe.r.%XpX3 3 4 i aXU Y sXu q w ",
"= = y - - ; : > > > , > 5X6XdXfXfXfX9X[.}.}.[.fXdXdXdXgX6X5X> > , , < < < 1 < < < 1 1 1 2 2 2 1 1 1 2 2 3 3 3 4 4 p 7 9 0 u q w ",
"= = y - ; ; : > , , , , , , , > > > > > > > > > > , , > > > , , < < < < 1 < 1 1 1 1 1 2 2 2 2 2 1 2 2 2 3 3 4 4 i p 7 8 0 u q w ",
"= y - - ; : : > , , , < hXjXkXlXlXlXlX*.0X0X*.lXgXlXlXlX6X5X, < < < < < < 1 1 2 1 1 1 2 1 2 2 1 2 2 2 2 3 3 4 4 i p 7 7 0 u q w ",
"- y - ; ; : > , , , , < < < < < , , , , , , , , , > , , , < < < < < < < < < 1 1 1 1 2 1 1 1 1 2 2 2 2 2 2 3 4 4 4 p 7 8 0 u q w ",
"- - - ; : : > , < < < < < iXkXkXlXlXlX*.hX5X*.lXkXlXlXkX.Xc.< < < < < < < 1 1 1 1 2 2 1 1 2 2 2 2 2 2 2 3 3 4 4 i 5 7 9 0 u q w ",
"- - ; : : > , , < 1 1 1 1 1 1 < < < < < < < < < , < , < , < , , < < < < 1 1 2 1 2 2 2 1 1 2 2 2 2 2 2 2 2 3 4 4 5 p 7 9 0 u q w ",
"- ; ; : > > , < < 1 1 2 { e.E zXzXzXzXiXc.c.iXxXkXkXkXkXjXc.< < < < 1 1 1 1 1 1 1 2 2 2 2 1 2 2 2 2 2 2 3 3 4 4 5 p 7 9 0 u q w ",
"; : : > > , , < < 1 2 1 2 2 2 1 1 1 1 1 1 1 < < < < < < < < < 1 1 1 1 1 1 1 1 1 2 2 2 2 2 2 2 2 2 2 3 3 3 3 4 i 5 6 7 9 0 u q w ",
": : > > , , < < 1 2 2 2 } wXE E E E ;.i.c.c.i.xXzXzXzXzX&.hX1 1 1 1 1 1 1 1 1 2 2 2 2 2 2 2 2 2 2 2 3 3 3 4 4 i 5 6 7 9 0 u q w ",
": > > , < < 1 1 1 2 2 2 2 2 2 2 2 2 2 cX1 1 1 1 1 1 1 1 1 cX1 1 1 1 1 1 1 1 2 2 2 2 2 2 2 2 2 3 2 2 3 3 3 4 4 i p 6 7 9 0 u q w ",
"> > , < < 1 1 2 2 2 2 2 { vXp.E E E ;.K cXcXK =.E E E p.bXhX2 1 1 1 1 1 2 2 2 2 2 2 2 2 3 3 3 3 3 3 3 3 4 4 4 i p 7 8 9 u u q w ",
", , < < 1 1 2 2 3 3 3 3 3 3 3 3 3 3 3 3 3 2 2 2 2 2 2 2 2 2 2 2 2 2 2 3 3 3 3 3 3 3 3 3 3 3 3 3 3 3 3 4 4 4 5 p 6 7 9 9 u q q w ",
"< < 1 1 2 2 2 3 3 4 4 4 4 nXmXQ Q Q rXnXMXMXnXrXE E E a.i.3 2 3 3 3 3 3 3 3 3 3 3 3 3 3 3 3 3 3 3 4 4 4 4 4 5 p 7 7 9 0 u q q e ",
"1 1 2 2 2 3 3 3 4 4 i i i i i 4 4 4 4 4 3 3 3 3 3 3 3 3 3 3 3 3 3 4 3 3 3 3 3 3 3 3 4 4 4 4 4 4 4 4 4 4 i 5 6 7 7 8 9 0 u q w e ",
"2 2 3 3 4 4 4 i 5 i 5 5 aX..NX! ! ! uXnXBXBXnXuXW W W mX..v.i i 4 i 4 4 4 4 4 v.t.VXCXCXpXoX..;.CXpXVXCX,.&Xu.y.,.ZX^ @XAXq w e ",
"3 4 4 4 i 5 5 p p 6 7 6 6 6 6 p p p p p 6 p p p p 5 5 p p p 5 5 5 5 5 i i i i v...OX:.uXvXwXvXvXvXvXX.SX,.SXSXy.@X*X@X^ =Xw e e ",
"i i 5 p p 6 6 7 7 7 6 U =X1.NXDX~ ~ ZXU | | U ZX~ ! ! ! ,.=XyX6 7 6 6 p p p p p 6 6 6 p p p 7 6 7 7 7 7 7 7 9 9 0 0 u q w w e e ",
"p 6 6 7 7 7 7 7 7 8 8 9 9 9 9 9 8 8 8 8 8 8 8 8 8 7 7 7 7 8 7 7 7 7 7 7 7 7 7 7 8 7 7 7 7 7 7 7 7 8 8 8 9 9 0 0 0 u q w w e e r ",
"7 7 7 7 8 9 9 9 9 9 9 Y FXNXDXNX<.^ d.T 9 9 T d.^ <.! ~ NX1.Y GX9 9 9 9 9 9 9 9 9 9 9 9 9 9 9 9 9 9 9 9 0 0 0 u q q w w e e r r ",
"8 9 9 9 9 0 0 0 0 0 0 u u u u u u u u u u u u u 0 0 0 0 0 0 0 0 0 0 0 0 0 0 0 0 0 0 0 0 0 0 0 0 0 0 0 u u u u q q w w e e r r r ",
"0 0 0 0 u u u u q u u u HXJXJXHXHXHXHXHXHXHXHXHXHXu HXJX/ u u u u u u u u u u u u u u u u u u u u u u u q q q w w w e e r r r r ",
"u u u u q q q q q w q q q q q q q q q q q q q q q q q q q q q q q q q q q q q q q q q q q q q q q q w w w w w w e e r r r r r r ",
"q q q q q w w w w w w e w w w w w w w w w w w e w w w w w e w w w w w w w w w w w w w w w w w w w w w w w e e e e r r r r r r KX"
};
