/* XPM */
static char *result[] = {
/* columns rows colors chars-per-pixel */
"64 64 35 1 ",
"  c #060303",
". c #0C0505",
"X c #110606",
"o c #140807",
"O c #130708",
"+ c #150808",
"@ c #1C0B0B",
"# c #230E0D",
"$ c #280F0F",
"% c #26100F",
"& c #29100F",
"* c #270F10",
"= c #280F10",
"- c #2C1111",
"; c #341414",
": c #3A1616",
"> c #3E1817",
", c #3C1718",
"< c #3E1818",
"1 c #401817",
"2 c #411719",
"3 c #431B1B",
"4 c #47201F",
"5 c #471F20",
"6 c #481F20",
"7 c #472020",
"8 c #4B2323",
"9 c #4F2827",
"0 c #4F2728",
"q c #4F2828",
"w c #502827",
"e c #502728",
"r c #522A2A",
"t c #582F2F",
"y c #583030",
/* pixels */
"     ....X.XXXXXXXX...          .. .....        .. . ...... ....",
"...O@##$#####$######@+..XXXXXX++@##@#@#+X  Xoo@@@+@@######@####+",
".X@#-:>,3331,,:;=$##@XX@##@###-;333;#@#@o.+###$$=-;;;,31-$$###@o",
" +#-;3888rt98884;-=#@X@######$;18983$@##o @=###;;:,18e93:-&$#@o.",
"X@#=#;;;;,3:3483;##@@.@#$#$&-;;3363:=##=X @$@#-;,133ew83$$$#@#o.",
".##&#@@#$##$13,;-#@@@X@#@-33333,333:;;;:+X#$#;336344433-;,;;;$@X",
".O@#@@###@@=;;-#@@@#@X+#-;:33,;;:;;=;-$#o.@#$,3133,,>>;;:;;;;#o.",
" ...XXX+++##&$@oXXXX. .@#@@@#@ooOO++@ooX    X#########@@#@@@oX  ",
"  . X.X.o@@@@@....O.   .X. ..  ....OX.X.. . X+++o+o+o.    XXXXX.",
".XXX+@@@#####@@@@++OX.     XX+@##@@@@@@@@@@@@@@@@@@+@o.  X+o++oX",
"Xo+@##@##&-&&@#@+@+@+..   X+o@###@@-&&;;#&#&##@#@@@@o+.  .o++++o",
"#=:,3;-:;;--$@###@##@X.. o@#+#&;--:3313:,:#;;###=$#+X.  .@+##@##",
",3ee933383,;;;;-##*@@+.. o##+$$-;;13:33483;:;;-=;;;#@o. X@@##=;;",
"399883ee933,,;:##@@#@+.. o#########&--,33:-;-&$---$##@X X@@#=--;",
",33899883,:;--#@@@#@@X . o#&$--$&;;;&;,::;$#$---;-=###X .@@$-;;;",
";;,338983:;$--###@##@oXX.@#&&&-->:,,;1,>:;-;::::;;=#$#X  o@#==;;",
";;13rr8833,;;;--#####+XX.@%--;>333333553333>>:::;;---#O  +@##=;;",
";:39rr33,,,:;;;----#@+O. @##-,4443880re94433,:::;;-;*@X .+@@#$==",
":388831>11>,:&%&--#@@O...@#%-33333388rr0w833,>::::--@+X .o+@#=;;",
"38831333133,--#$#@@@XX...O@#-;3344878e998833,>:>;;-%@#X  +@#$$;:",
"9931,,,>333:>;###%#@O...O@###&:4889833333433>:;;;,;###o .+@@#-38",
"331:,;;;:;;3:;-##@&-@O.X.@@@##:331,::333333>:::;-::;##+ .++@@#;3",
";:::,:,:;,3>,-##@#--@X...+@@@#;::-;:1,,,>>,:,>:>353:##+ .@@@###;",
";;:::::;;;;,>:--;;,;@o...X++@#-,::,::--133333388905;#@+ .@@##@#=",
";;;::;--;::;:-:1,;-#@X..XX@#-&-33,;-;:359093367333,;@#@ .@+##==-",
";;;;=--;;;:,13,:;;-#+X..OO@@#-;:1,,1388rtt0663,-#=#=##@ .@+#$=-;",
";,1:;1333,383:-;::-@Xo. ..++@#-:11388139999337;*@#@#$$+ X@@$==-;",
":,,,3383388:;$@-;-@+.oo ..+++@##:33:;;1,1>:;;--@##&-##X X@@#$#;:",
"-;&$$#$;-;=#@@##@@oX.XX..@@#####=;;$=::;;;-;$$$$=-;#$#X  +@@##--",
"@@+#@#@@@@@@#@@+OX+++X. X@####--=###===$$#&-&&=#-;$##@. X@o#####",
"...XXXXXXX.+++oXXO+O..   X.X@@ooooo@@+@@@@#@@#@@@@o+XX  .oo@@#@@",
"          .  .  .. .           . ... ....X .... .....XX .  .   .",
"oXXoXoX.. .    ..X++X@+..X+OXX.     . ..XXX.....X..@oX.   ...XXO",
"--$$###@#+@.  X@##&-#$@##@##$#+++. o@+@@#####@@@@o+++X@o..@@####",
"333-$$###@@@..@@##*-:-;;:::;;-#@+X .X@@@#&;;>1;#####@@@@X.@####;",
"898,-$##@@@@..@#-#->>;;3rt963;@+X  .Xo@o---39r8;;:;-#@@#o.+#$#=:",
";351;;&-;&@oX.@##--:,,33331:;=#X.. X@#@@##-389931:;##@+@@.@;-##=",
";:,::,,1,;#@oX@@@#-;;:;;$==##+ooX  X#$;;;;;;:3,:,,:;::;#@.@;,;:;",
"=#-------@o@X.@++#@##=###@#@@XooX. X+#######@##--;&;;;#@+.X@@##-",
"@+@+@@++..XX...XXO+++++o+@+.. .     . .Xoo....O.XXo@oo+@X .X.X.X",
"..XXX.X. ...  XXo.oX..XXX.......             .    ..  ..     ...",
".... ...    ..+X+@+.+++X.XXXXX..X ........  .O  ....XXX.  ......",
"XXXXXX.X.. .+@@@--##@#@O@@++o+#@@ooo+++..   .++.++o++@@@X++X.+..",
"@@@@++XX.. .@@#;;;;-####;;,;,;131;=#@+X+..  .oXX@#&###$--;;;;&@@",
"#####@++...X@@&-:;;;;;-:13e988ere3,&@#@OX.  X@+@#;--;-=;,3399;;=",
"$##+##$#@. o##$-*##-:;>,338e948888,-#@++o  .+##@@#--;;;;:,313:;-",
";-$##&&#@. @#-#@+++##--;,,3889883--=-&&#@...+#-@@-;---;-;;,:,:;;",
"1:;#;$##+..+##@@@@#@##--;;388883,:;;;;;$#O..+@##@=;;:::;;:,,,111",
"331:3:#@@..+##@####--;;,13349re4,:;;=;=$#@..O+;&--;;::>,33338533",
"3::>3:$@+X.X@#---;;:::::,,,33rr83;;;=$###+. X@@$#*-;:,>33339ree9",
"431::-@@+O..##$#-:;::::,,,11,38883:=$$##@+  XXX#*;:::>,13990rr83",
"8343:%#@@+..@###---;:,3333331333883,;#@@#+. XOX#-;;::>3,38989988",
"9881-%@X@O..@#@#&&--:134433>:>,339983-#++XX.X++@-,:;::>333333688",
"3133;##@OO..#@@=-=-$$;,833:;;&-;:333,=#@@@. +@+$,,;:>;;;3333:;1,",
":,>1;=@+o...@@@&--*#@;3,331--:-#$;;#@+@@@+X.++@;3733:;;>,31,,:;;",
";-13:&#@@. .@+#--##---;;,3,:;;-;;##@@+++@X..o@@;783388733313,1,;",
"3,3,;--#@...+@--*-:;;;%-::,,-#-;$-$##@+++X..+@@#;:334888908333,1",
"3353;-%@@X. +@@@#:31;-;;:;:;-#@=;:-#@+@@XX..++@####-;13858958313",
"353:-$@XO+..+@%@#;;;-:83:,1;;,;;--$#@@@#XX..X++XXo+#-,3311,33333",
"-;;;#@oO+++.+@#%#-%#@-:,;--;3>;###;;-@@+o@...O@+@+@@@@&---;--=**",
"@@@@+.o.++o.O+###@#-###@@#####@#--=-=@++@@. .X@@@@+@####%##%*##@",
"@@@+OOoooOO..@@*---##@@####@@++@@#&##@++@@XX. +##@##$##########@",
"XX...... .   ...X++X.XXX.X.. .. .XXO.....      .+..XXXXXXXoXXXXO",
"..          .  .            ...   . .  .       ..       .   .. ."
};
