/* XPM */
static char *result[] = {
/* columns rows colors chars-per-pixel */
"64 64 247 2 ",
"   c #030302",
".  c #0C0B05",
"X  c #0C0B07",
"o  c #120D06",
"O  c #121105",
"+  c #15140A",
"@  c #1B150B",
"#  c #1C1B0C",
"$  c #181708",
"%  c #1B1C13",
"&  c #191C17",
"*  c #0E160D",
"=  c #231C0C",
"-  c #291C0A",
";  c #36190A",
":  c #221D13",
">  c #381C14",
",  c #19240B",
"<  c #1E2213",
"1  c #1D221D",
"2  c #12250C",
"3  c #23220E",
"4  c #2C250E",
"5  c #292A0E",
"6  c #3F2700",
"7  c #34260E",
"8  c #342C0D",
"9  c #392C09",
"0  c #3B320E",
"q  c #35330F",
"w  c #242313",
"e  c #2A2513",
"r  c #2B2A15",
"t  c #24251B",
"y  c #252A1B",
"u  c #2B2C1A",
"i  c #282A17",
"p  c #342C13",
"a  c #312D1A",
"s  c #392B14",
"d  c #2A3517",
"f  c #3B3413",
"g  c #34321C",
"h  c #383617",
"j  c #29330D",
"k  c #1E2523",
"l  c #252A23",
"z  c #2B2C24",
"x  c #262824",
"c  c #2B3228",
"v  c #343424",
"b  c #3B3C24",
"n  c #35362A",
"m  c #3B3B2B",
"M  c #373827",
"N  c #353C33",
"B  c #3B3D33",
"V  c #3B3A37",
"C  c #30312A",
"Z  c #4B1B0B",
"A  c #41360D",
"S  c #432316",
"D  c #433514",
"F  c #433A15",
"G  c #423A1A",
"H  c #46371B",
"J  c #523314",
"K  c #703004",
"L  c #423C25",
"P  c #403C2A",
"I  c #453F33",
"U  c #1E420B",
"Y  c #22420A",
"T  c #255209",
"R  c #254112",
"E  c #354F19",
"W  c #3B4329",
"Q  c #3B4134",
"!  c #3C4339",
"~  c #335D37",
"^  c #47421B",
"/  c #77450A",
"(  c #43432C",
")  c #49472D",
"_  c #534A2A",
"`  c #444533",
"'  c #454A33",
"]  c #4B4C34",
"[  c #44443A",
"{  c #45493C",
"}  c #4B4C3B",
"|  c #4B473F",
" . c #554D34",
".. c #544D3C",
"X. c #4E5335",
"o. c #4E5339",
"O. c #53543B",
"+. c #54593B",
"@. c #5A593C",
"#. c #575436",
"$. c #645A3D",
"%. c #5B633D",
"&. c #67643E",
"*. c #343B40",
"=. c #4B4C43",
"-. c #464C47",
";. c #4C5248",
":. c #545442",
">. c #5A5B42",
",. c #5B5B4C",
"<. c #565747",
"1. c #595C53",
"2. c #51554D",
"3. c #655C43",
"4. c #645B4B",
"5. c #625D52",
"6. c #5B6244",
"7. c #5D634A",
"8. c #5B6654",
"9. c #636444",
"0. c #64644B",
"q. c #646B4C",
"w. c #6B6C4C",
"e. c #686648",
"r. c #756949",
"t. c #6D734E",
"y. c #636354",
"u. c #6A6C53",
"i. c #646359",
"p. c #6B6C5C",
"a. c #676858",
"s. c #766B56",
"d. c #6D7253",
"f. c #6F7758",
"g. c #73735B",
"h. c #767958",
"j. c #72734B",
"k. c #696961",
"l. c #636D61",
"z. c #6B7369",
"x. c #7C7C63",
"c. c #7D7C6C",
"v. c #777565",
"b. c #777B75",
"n. c #70736F",
"m. c #854000",
"M. c #995500",
"N. c #945000",
"B. c #934E00",
"V. c #85725C",
"C. c #836B4A",
"Z. c #827C6B",
"A. c #837C66",
"S. c #937B68",
"D. c #807E70",
"F. c #7C815D",
"G. c #7D8366",
"H. c #7C8176",
"J. c #83826C",
"K. c #8A836C",
"L. c #858968",
"P. c #97836D",
"I. c #858473",
"U. c #8A8573",
"Y. c #8C8B74",
"T. c #8D8B7B",
"R. c #858879",
"E. c #918D7B",
"W. c #938B75",
"Q. c #8C9275",
"!. c #94937D",
"~. c #98967B",
"^. c #A78E7B",
"/. c #798684",
"(. c #8B9286",
"). c #949382",
"_. c #9C9A84",
"`. c #9B9C8B",
"'. c #969788",
"]. c #999E92",
"[. c #898C84",
"{. c #A39D8B",
"}. c #A99B89",
"|. c #B69A88",
" X c #A39F91",
".X c #B09F93",
"XX c #9BA38A",
"oX c #9DA294",
"OX c #A4A38C",
"+X c #AAA98C",
"@X c #A7A58A",
"#X c #A4A394",
"$X c #AAA694",
"%X c #ABAA95",
"&X c #ADAC9A",
"*X c #A6A899",
"=X c #B4AC94",
"-X c #B4AE9C",
";X c #B8AA99",
":X c #B3B29D",
">X c #BBB59D",
",X c #B9B89B",
"<X c #B0AD95",
"1X c #B7AEA2",
"2X c #B4B4A2",
"3X c #BBB5A3",
"4X c #BDBBA4",
"5X c #BDBCAB",
"6X c #B9B7A9",
"7X c #ABB0A4",
"8X c #9DAAAB",
"9X c #C8A18F",
"0X c #CDAC98",
"qX c #C2BDA6",
"wX c #C2BEAB",
"eX c #C7B4A7",
"rX c #D5B7A8",
"tX c #C6BDB4",
"yX c #D5BAAF",
"uX c #C39D8B",
"iX c #BDC2AB",
"pX c #C5C3AD",
"aX c #C9C5AE",
"sX c #C4C4AA",
"dX c #C5C4B2",
"fX c #CAC6B3",
"gX c #CCCAB5",
"hX c #CDCCBB",
"jX c #C7C8B5",
"kX c #D1CDBC",
"lX c #DAC3B4",
"zX c #D1D0BD",
"xX c #CFD0BE",
"cX c #E3C7BB",
"vX c #CECEC1",
"bX c #D3CEC1",
"nX c #D3D3C3",
"mX c #D9D5C6",
"MX c #D9D9C7",
"NX c #DAD9CB",
"BX c #DBD6D1",
"VX c #E8CEC4",
"CX c #EBD6CE",
"ZX c #F0E6DD",
"AX c #F4E8E3",
"SX c #FFFAF7",
"DX c #E6E6E2",
/* pixels */
"g.c.c.Z.v.Z.U.U.Z.U.U.I.Z.Z.J.Y.I.U.U.I.U.U.U.Z.c.c.c.x.c.c.A.c.c.c.Z.Z.c.c.Z.Z.c.U.T.T.U.I.U.Y.Y.I.R.Y.U.Y.E.Q.W.Y.Q.U.Q.Y.U.g.",
"c.@X#X=X:X5XpXwX4XpXiX4X=X`.R.I.c.I.R.!.E.T.(.!._.OX'.'.'.`.`.`.`.OX&X&X:X*XoX'.'.XX$X&X:X4XiXpX5X4X4XwXsXaXpXsX,XaXaXiX4XwX5XZ.",
"c.*XH.I.oXpXdXgXfX6XH.c @ @ O X O o o o O O . o O o O O o + o + O O + $ * $ # & # # + + 1 =.T.6XwX5X5X5XpXaXfXpXsXsXgX7X].oXwXY.",
"A.+X2./.H.aXfXjX*XN   $ w e e w e w i t y r y i u i i u r i u r i u u u g g u l l u t i i M O { *X6XwXpXpX5XpXdXpX4XgXH./.b.:XI.",
"G.3XT.2.oXdXjXiX8.  : w y t i t t e t w % : t : t w : # = # % # # # # # , # # 3 , = 3 3 < g W O B &X6XpXpXdXjXiX4XsXfX:Xz.(.7XJ.",
"J.wXpX5XfXfXjXoXX # 4 w u i 3 3 - ; e e r a a > r e e - r e e - 3 = = # + O O O . O $ $ # # y h * H.1X5XpXjXfXdXfXfXgXdXjXfX2XI.",
"Z.pXdXpXfXjXgXz.X x w e e e a L I _  ._ .. ..... ._ _ | ) ) L M v g g a a r 4 4 3 3 = $ + + $ a z -.%XpXgXfXgXjXgXfXjXgXfXfX>XA.",
"I.iXpXwXwXfXiX{ + : - w m .. .3.3.&.s.C.s.C.C.C.4.3.4.3.#...#._ ( ) ( b M g g a w 4 w 3 3 @ O , g x 7XpXdXdX4X&X*X%X*X$X).1X&XZ.",
"J.wXsXdX5XdX7Xk # w : I  .3.r.C.V.S.S.S.S.S.S.S.S.A.s.r.s.e.e.$.:.:.#...) ( b b g g a r w 3 # $ g + *XpXfX3XbXmXhXgXgX4Xz.$X=Xx.",
"J.5XqXsXfXdX7Xc % @ e ) 3.r.V.S.^.uXuX9X9X0X|.^.^.U.S.S.A.A.s.u.w.4.4.<.:.O.| ) L g g a r 5 3 $ y % *XpXaX-XvXMXgXgXjX6Xp.$X5XI.",
"A.wXwXpXfXfX2Xc : o L #.4.V.S.|.0X0XrXcXcXrX9XuX}.^.~.W.W.S.Z.A.c.g.g.u.e.0.O.] ( b L b g r r $ 5 % *XfXpX2XvXMXfXwXfX&Xk.$XwXI.",
"A.iXaXpXsXqX7Xl < . ) $.r.S.S.uXrXCXAXAXVXcXrX0X.X|.}.}.).).W.W.A.Z.A.h.g.p.e.9.#.#.] L b h r = : @ oXpXpX3XhXMXdX>XjX:Xk.=X4XI.",
"Z.pXsXwXpXiX2Xx e O  .4.s.S.|.0XcXAXSXSXAXVXyXrX1X1X;X}.{.}.{.~.!.W.U.J.L.A.x.v.p.u.:.} ( L b # 3 + oXfXfX:XgXMXpX>XpX2Xk.&XpXU.",
"A.5XpXpXfXsX&X1 w = ..4.V.S.|.rXVXAXSXSXZXVXVXyXeX1X1X$X@X{.@X_._.).!.U.W.J.c.g.u.6.o.' ( b h 3 # + ).sXfX3XhXnXfXdXjX2Xk.&XpXU.",
"A.wXqXfXsXiX`.& w = >.s.S.}.0XrXcXAXAXAXCXVXVXyXtXeX1X;X$X@X{.OX{.'._.).!.L.G.x.g.q.>.] ' W b r , + I.wXdX:XbXMXdXfXfX:Xk.&XpXI.",
"Z.qXwXsXfXwXoX& w w 4.s.Z.}.uX0XyXVXCXCXVXVXyXtXeX3X3X2X:X$X&X@XXX@X{.`.).R.I.G.h.q.0.o.' W b r # + H.pXpX;XhXMXdXfXaX&Xk.=XsXR.",
"Z.5XaXaXfXfX%X& w i 0.g.P.~.|.9XyXyXcXcXcXlXyXeXeX1X:X2X2X%X%X+X<X+X<XXX~.Q.Q.Q.G.h.q.+.] W W z 3 O T.wXdX,XhXMXjXdXfX:Xp.&XpXI.",
"A.qXwXfXgXfX2X& w i 7.v.K.W.}.;XeXrXrXyXrXeX3X3X3X;X%X+X%X%X%X,X,X,X+XXX~.~.Q.Q.G.h.w.6.X.( W u 3 X I.fXdX:XgXMXfXgXfX:Xk.&XsXR.",
"v.>XqXsXsXgX6Xk t u 7.a.A.W.}.;X;X3XeXeXeX3X3X1XeX;X@X+X@X@X%X:X+X,X<X+XXX~.Q.G.G.h.t.e.] ( W r # . I.dXsX2XhXnXdXgXfX2Xp.&XsXU.",
"c.=XwXaXfXjX6X& 3 u 3.u.v.S.}.}.;X;X;XeX;X>X;X;X$X$X{.{.OX_.@X+X,X~.:X7XXXQ.Q.L.F.h.t.9.X.' W u # . T.dXdX4XbXMXaXjXfX&Xp.&XwXR.",
"Z.,XdXfXgXgX6X1 - u >.y.g.Z.W.{.}..X=X;X;X;X$X}.{.{._._._._.XX~.^.@X~.XXQ.Q.G.z.f.d.t.&.] ' ( g $ . [.sXpX;XxXmXaXdXfX&Xi.*XpXU.",
"c.4XgXgXgXgX6Xk w a 3.e.g.A.U.Y.~._.}. X}.{.{.{.~.~.!.~.!.~.Q.!.~.~.Q.~.G.G.F.f.f.t.%.6.] ' ` u $ . XXpXpX:XgXnXfXdXdX#X,.$XpXU.",
"A.,XjXjXjXgX*X& , r 3.3.s.v.A.K.K.!.!.~.)._.!.!.Q.W.U.Y.Y.Y.I.Y.Q.L.L.L.G.F.f.t.t.9.9.%.X.' ' u # . *XpXjX,XvXMXjXgXfX+X5.$XpXU.",
"A.qXsXgXjXhX7Xk < w >.:.e.s.v.A.K.K.Y.Y.Y.K.J.W.U.L.J.G.G.F.J.L.L.F.F.L.F.F.f.q.t.t.9.o.O.' ' w # o *XdXfX3XdXiX:X2X=X#Xa.{.wXI.",
"J.qX5XfXgXgX6X*.% < o.>.e.u.e.s.h.A.J.x.K.Z.x.J.J.G.h.x.G.x.v.h.F.h.g.h.h.h.t.t.t.%.<.+.o.] Q 3 # Q *XjXjX&XQ.c.c.v.n.v.i.#XwXI.",
"J.iXwXiXfXfX4X8.. # v o.>.e.e.u.u.g.v.h.h.g.h.h.h.x.h.h.h.f.f.f.g.F.d.u.q.t.q.e.%.6.@.X.O.' b O % z.5XaXaX5X4X:X:X7X$X#X&XpXsXI.",
"J.7Xb.[.oXfXwX(.-.O + m O.>.6.e.w.u.w.w.u.g.d.g.f.g.d.d.f.u.p.d.d.g.p.q.q.q.q.%.7.<.O.O.' N # % 1.oXfXsXdXgXjXgXgXfX5XfXgXgXwXI.",
"I.'.2./.b.dXpX5X(.-.& o u ( ] >.>.4.0.e.9.q.0.u.q.u.u.u.u.u.u.u.q.u.u.q.q.7.6.6.6.:.o.( y O < l.(.4XfXfXfXgXdXjXfXwXdXfXgXgXpXU.",
"G.&Xz.-.[.jXfXfXiXoX(.p.{ m n n m m m m m n M M n v v m n n m M M M M n W m n m m m C z z 2.R.%XpXwXaXaXfXfXdXjXfXdX5XdXgXgXpXU.",
"I.pX7X'.iXjXaXfXjXgXfXfXpXpXfXfXdXfXdXpXfXpXpXwXwXpXwX6X&X&X5X5XwX5X5X3X2X3X2X2X6X4X=X4XwX4XfXgXfX4XdXjXfXfXjXgXfXfX4XdXfXhXwXI.",
"g.E.E.T.[.E.T.T.E.T.T.T.U.T.E.E.T.T.T.T.T.T.T.E.E.T.R.I.I.Z.R.T.R.U.T.R.R.U.R.R.R.T.Y.W.T.T.R.b.Z.H.G.c.c.c.c.c.c.c.c.c.c.I.c.a.",
"p.[.v.T.{._.'.).`._.'.E.).'.'._.).).E.$X&X$X%X&X=X&X$X X#X$X%X$X*X.X$X&X$X$X#X`.OX&X@X%X&X&X&X&X=X&X&X&X-X&X&X&X&X*XOX*X&X-X$Xc.",
"Z.v.8XR.jXfXlXgXgXjXpXpX2.Q W } Q W Q n Q x.G.,.{ ] ' { ' ] { { } k.fXgX3X:X$X}.$X3XfXgXgXgXgXfXgXgXgXfXdXjX4X&XOXXX+X6X5XdXiXI.",
"J.U.2.b.pXfXfXgXgXgXaXsXM h.F.h.q.t.h.&.d.X.u.L.j.d.t.t.q.f.t.f.h.) kXgX>.h.d.9.d.:.gXgXgXgXgXgXfXjXtXwXfXgXu.@.( ] X.Q.6XdXpXI.",
"J.2X#X5XfXfXaXfXfXfXsXsXQ +.X.6.X.#.+.6.q.o.q.7.+.@.@.+.+.+.@.@.9.W hXgX] u.9.q.t.W gXfXgXfXgXgXgXfXwXpX4X`.v e.>.] X.M %XpXpXU.",
"Z.5XpXfXfXfXgXgXgXgXgXsX2.< $ # $ # < , # . $ # < , # # # # 3 @ 3 ' bXhX] e , b { m fXfX5XqXfXgXgXaX4X6XOX[ M ] G.@. .b 0.5XpXI.",
"c.4XfXaXaXfXgXgXgXgXfXgXaXgXdXfXpXfXdXsXwXwXgXgXgXgXgXgXgXkXgXgXgXkXMXzXhXhXfX#XOXwXpX[.a.p.`.gXgX2X$X3X@   . i 0.@.X.]   ).wXU.",
"G.3XgXfXsXgXgXgXgXfXaXsXfXgXfXpXaXiXwX6XsXfXfXgXgXgXgXgXgXgXgXsXaXhXnXnXbXfX:XoX`.-X4Xm 8X8X:.pX3X*X`.$X+   X + 9.%.@.>.  ).5XT.",
"I.,X. o + + @ $ @ + # + @ @ + # = @ @ @ $ # @ % # O @ # @ % @ # # + O . nXhX2XH.n.2X4X} p.l.i.gX1Xn.z.*X+   % . O.+.@.+.  T.qXU.",
"J.wX. = 8 8 7 8 9 p r 5 7 9 e 7 7 8 4 7 s 7 p p 4 8 4 p p 7 p 4 p 4 3 # gXgXfX6X2XwXdX&Xk.v.4XgXdX$X).5X+     . o.6.+.+.. T.eXI.",
"I.wX@ 4 0 0 D f H 0 h D 9 D A D G f ^ h F F G D g g h G G D h H ( D 7 - gXgXfXdXiX`.{.@X{.}.#X#X{.`.sXtX' n z + O.6.%.@.i E.6XJ.",
"J.wX@ 4 F 0 7 m <.t J - j < ) u.r H 5 d d #.o.w / , ~ y m y.t d s h r % gXfXaXfX@X= S > > > ; > > : fXgXdX2X`.y. .3.6.X.g.*X>XJ.",
"Z.wX@ 4 D F e } ~.c B.- T 2 $.,XZ M.8 U U v.A.: M.9 ~ d o.~.W l z q f = fXaXO.v m e S S s ; > S S z v x fX,X{.I.] $.9.+.s.#X2XJ.",
"J.wX= s 0 0 a =._.x m.= T 2 r.=X6 M.; U U g.K.w M.9 ~ c 8.+Xd l b f 0 = sXsXJ.} [ [ n :.V 4.V ;.V ;.;.z pX,X@XT.m 9.&.@.y.OX&XJ.",
"J.qX3 f f H 7 u W # 7 % 3 + 8 F ; / e , , h d , A 5 Y j d ^ i c h f q = pXwXQ.m B B x =.x [ x { m [ { z sX,X%X'.b 3.9.%.0.`.&XD.",
"I.pX# f A 0 p { ;.l H e 5 2 ` ,.% L : d v v M t ( i #.i b ' w v G q p - fXpXY.B N N x 1.c ,.c ;.B V I u 3X3X=X$XP r.e.&.0.{.&XZ.",
"U.wX= 9 D f q p.'.k m.= T 2 j.XXA N.7 d R Q @.% $.d j.h _ t.k C v h s 3 gXfXW.Q ! ! x I c 2.c -.m B V u pX3X,X%XQ w.e.9.,.).$XD.",
"D.pX# 0 0 D h 8.~.1 m.< R 2 j.XXZ M.p U U ' e.& j.f V.h _ &.c c L H f 3 gXgXW.{ ! N x 1.c 2.c 2.c m V x gXfXpX3X( s.w.9.:.E.#XZ.",
"I.pX= 9 F A 0 g L % 9 # j , q h - / : w 5 5 q & a 5 f 3 > p z h ^ F s - gXjXQ.` { ! z { c =.x =.N m N i gXhXfX5Xm V.w.0.+.I. XJ.",
"Z.eX# 9 F F 8 n { e f e W , ' 1.% H e g g m ( l ) , G e S Z y v H D q - sXfXW.[ -.! k [ z ;.z :.N Q N t gXgXgXqXM G.u.7.:.v.).J.",
"I.wX: 0 F ^ q 5.`.l M.e E 2 J._.6 M.> Y R ) #.< &.8 K Z K Z S v L h a , aXaXY.} -.Q x [ C =.x } N B n l gXgXpX5.( T.u.6...v.).c.",
"I.pX@ q F H g ,.oXl N.: E 2 G.XX6 M.7 U U X.#.< 9.5 K Z K Z s n L v g < gXgXW.2.-.-.` { Q B B N N N B v gXfX_.L o.T.u.0.O.p.T.c.",
"Z.qX= p f 0 h ] z.1 K # Y j %.f.7 / - 5 q W ] * #.8 Z ; Z Z > C g a u 3 fXfX+X$X+X@X+X@X@XoXOX+X@X@X@Xc.gXsX] ( o.c.p.q.O.y.T.c.",
"D.>X= 4 F D h g j i r w h q q j h 9 q r d q f w r 5 8 r v 4 z z M g i , gXhXgXgXgXfXfXaX.XT.$XfXjXdXaXfXfX4Xu L ' x.H.c.( o.E.c.",
"U.pX@ 3 9 0 f s g g n r a r d t g u u r g u a v i z l z i u x x u a u w gXfXgXgXgXgXfXpXc.8XU.wXfXiXiXfXfX>XC v ( o.f.q.M <.!.Z.",
"U.pXo - e 3 4 4 r r w 3 e i w w a i 4 i u i y l l 1 l 1 t t l t i t : + gXgXgXgXgXgXfXpXb.-.`.dXpX4X,XwXpX:Xg.u Q h ( a < 5.T.c.",
"I.pXfXfXaXfXgXjXpX4XdXfXfXfXsX:XfXgXgXgXgXgXgXkXfXwXpXtXgXhXpX5X4XdXhXgXdXgXgXgXgXgXgXgX3X3XdXpXpXwXpXwXfXwX`.5.g d t % C p.).J.",
"I.sXpXfXaXdXpXdXqX=XfXfXfXfXpX,XfXhXgXgXgXzXgXjXfXwX4XwXkXhXfXfXdXfXhXhXgXgXfXkXhXgXfXpX2XpXfXpXpXpXpXpXdXdX-XR.a.=.| =.,.D.$XJ.",
"v.6XiX5XiXwX5X5X6X5XpXpXwXiXtX5XdXiXiXdXfXdXdXiXdX6X5X6XtXdX5X2X5XtX5XiXdXwXdXtXiXwXtX6X$X5XdXwX5X5X5XtXiXwX6X*X).n.z.b.[. X$Xp.",
"v.DXnXvXnXMXnXmXkXmXMXMXNXMXMXMXNXNXNXMXMXMXMXMXNXnXMXnXBXBXMXgXhXmXBXBXNXNXNXNXmXmXmXgXgXbXmXbXhXkXnXMXNXnXhXgXdX6X6X6XtXhXBX5.",
"p.NX(./.[.iXpXpXiXgXgXdXjXgXgXfXfXdXaXgXpXwXsXfXdXwXdXfXgXkXiX3X4XfXgXgXjXgXfXpXwX4XsXqX:X5XwX5X4X6XqX4XwX:XsXsXdXdX5X'./.(.BXi.",
"g.5X1./.n.5XpXqXfXhXgXgXhXgXgXhXgXgXgXgXsX>XsXgXfXpXfXpXfXdXsX4XfXhXhXjXgXhXgXgXsXpXiX>X4XsXwXwXwXpXwXqXpXfXaXgXgXfXdXk./.b.nX5.",
"p.6X/.2.].gXhXfXhXnXnXnXnXnXnXnXzXzXzXvXfXwXzXzXhXhXhXfXxXxXkXhXhXnXnXnXnXnXzXkXkXzXgXtXkXgXpXkXkXkXkXpXzXzXxXnXnXnXvX'.2.D.7X5.",
"4.a.i.1.5.i.a.y.y.a.a.i.y.y.i.y.y.y.i.i.5.4.y.y.5.,.4.1.y.y.y.y.i.i.y.a.y.i.0.5.1.y.5.,.4.,.,.5.,.,.5.,.1.5.5.5.y.y.i.5.1.1.1.:."
};
