/* XPM */
static char *result[] = {
/* columns rows colors chars-per-pixel */
"64 64 230 2 ",
"   c #040403",
".  c #090606",
"X  c #090906",
"o  c #0B0B0A",
"O  c #070908",
"+  c #110E0D",
"@  c #110C06",
"#  c #0F120B",
"$  c #12120D",
"%  c #1A140D",
"&  c #14180E",
"*  c #1A1A0F",
"=  c #131312",
"-  c #181513",
";  c #151912",
":  c #1A1A13",
">  c #1C1C19",
",  c #221C14",
"<  c #211D1A",
"1  c #211512",
"2  c #251E0F",
"3  c #1D2119",
"4  c #1E2313",
"5  c #23221C",
"6  c #2A231C",
"7  c #25291C",
"8  c #2A2A1D",
"9  c #242415",
"0  c #31291E",
"q  c #2E321C",
"w  c #242422",
"e  c #292622",
"r  c #2B2B23",
"t  c #2D2C29",
"y  c #262921",
"u  c #322B24",
"i  c #312E29",
"p  c #3A2F26",
"a  c #2D3124",
"s  c #2E302A",
"d  c #313325",
"f  c #33332B",
"g  c #3A352B",
"h  c #35392B",
"j  c #3B3A2D",
"k  c #363723",
"l  c #323131",
"z  c #3A3631",
"x  c #3C3B32",
"c  c #3D3B3A",
"v  c #423B2D",
"b  c #43362E",
"n  c #443D35",
"m  c #443D3A",
"M  c #4C3E3A",
"N  c #483C34",
"B  c #39422F",
"V  c #3E4132",
"C  c #3A423A",
"Z  c #444234",
"A  c #44433A",
"S  c #4B453B",
"D  c #4B4B3C",
"F  c #474A38",
"G  c #524D3E",
"H  c #52463E",
"J  c #4E523E",
"K  c #53533D",
"L  c #454542",
"P  c #4D4D42",
"I  c #454D4A",
"U  c #444945",
"Y  c #534D43",
"T  c #594E46",
"R  c #554F4B",
"E  c #4E5242",
"W  c #4B524E",
"Q  c #46504B",
"!  c #545445",
"~  c #5B5246",
"^  c #55544C",
"/  c #5C544B",
"(  c #5B5B4D",
")  c #565B48",
"_  c #4E5552",
"`  c #4E5954",
"'  c #545654",
"]  c #545B56",
"[  c #5C5C52",
"{  c #555D5A",
"}  c #5B5C5A",
"|  c #5B5756",
" . c #635B4E",
".. c #62564C",
"X. c #635D53",
"o. c #6A5D54",
"O. c #5D614E",
"+. c #5E6253",
"@. c #57615B",
"#. c #5B635D",
"$. c #5A655B",
"%. c #646454",
"&. c #6A6355",
"*. c #696C56",
"=. c #63625B",
"-. c #6A645A",
";. c #6B6B5C",
":. c #646A55",
">. c #726B5D",
",. c #74665C",
"<. c #6E715D",
"1. c #71745E",
"2. c #605F60",
"3. c #5D6562",
"4. c #5E6963",
"5. c #5B6864",
"6. c #646462",
"7. c #696763",
"8. c #626B65",
"9. c #6E6B60",
"0. c #626D69",
"q. c #686768",
"w. c #746B62",
"e. c #7B6D64",
"r. c #65726C",
"t. c #6A736D",
"y. c #737365",
"u. c #7A7364",
"i. c #7A7B65",
"p. c #737469",
"a. c #7C756A",
"s. c #7C7B6B",
"d. c #767965",
"f. c #6E7672",
"g. c #7F7D72",
"h. c #737E7A",
"j. c #737D76",
"k. c #837C6D",
"l. c #82786A",
"z. c #857D72",
"x. c #8A7B71",
"c. c #89776F",
"v. c #7E816C",
"b. c #77847D",
"n. c #79857E",
"m. c #7B897F",
"M. c #7B8679",
"N. c #838474",
"B. c #8B8374",
"V. c #8E877A",
"C. c #868A7B",
"Z. c #8D8C7A",
"A. c #878A76",
"S. c #928479",
"D. c #938C7D",
"F. c #97897C",
"G. c #8D927C",
"H. c #93957E",
"J. c #86856E",
"K. c #7B8781",
"L. c #7D8B84",
"P. c #788884",
"I. c #7E9084",
"U. c #818C85",
"Y. c #838E8A",
"T. c #8F8B81",
"R. c #958F84",
"E. c #819087",
"W. c #85928C",
"Q. c #8A948E",
"!. c #8A988F",
"~. c #949483",
"^. c #9B9584",
"/. c #999A85",
"(. c #9C9B8B",
"). c #989A87",
"_. c #879591",
"`. c #8B9692",
"'. c #8D9A94",
"]. c #8E9B98",
"[. c #879892",
"{. c #929B96",
"}. c #939C99",
"|. c #9A9D98",
" X c #A29C8C",
".X c #AB9C8C",
"XX c #A39988",
"oX c #A59E92",
"OX c #9EA289",
"+X c #8EA297",
"@X c #8DA298",
"#X c #91A197",
"$X c #94A49C",
"%X c #99A39C",
"&X c #96AA9D",
"*X c #99AB9D",
"=X c #AAA48D",
"-X c #A1A28A",
";X c #A5A292",
":X c #ACA494",
">X c #ADAB9B",
",X c #ABA995",
"<X c #B2A595",
"1X c #B3AB9B",
"2X c #B6AB99",
"3X c #B4B39C",
"4X c #B3B298",
"5X c #AFB29A",
"6X c #96A6A1",
"7X c #9AA6A1",
"8X c #97AAA1",
"9X c #9CABA4",
"0X c #9EAEA9",
"qX c #9EB1A9",
"wX c #A1ADA6",
"eX c #A1AEAA",
"rX c #B4ADA0",
"tX c #A1B1A6",
"yX c #A4B2AC",
"uX c #AAB4AE",
"iX c #ABB1A0",
"pX c #B3B2A2",
"aX c #BBB2A1",
"sX c #BCB9A6",
"dX c #B8BBAC",
"fX c #AAB6B3",
"gX c #AAB7B2",
"hX c #C6C5B3",
"jX c #CECBBC",
"kX c #D4D1C3",
/* pixels */
"$X7X0XeX0X9X%X0X%X6X].#XqXeXeXgXyXeXyXyXeX6X%X7X6XeXwXuXuXuXgXyX8XyX6X8X}.%X8X0X7XyXuX9X9XtXwXyX9XtX0X8X8X&X6XtXeX0X9X9X0X&XeX0X",
"}.6X7XeX0X6X+X9XtX@X*X8X9X&X&XqXqX9X9XeX&X@XwXwX9X%X9XuXyXuXuX9XyXyX0XeX%X@XyXtX8XyX0X&X9XqX&X*XyX$X#X8X6X7X$X6X8X*X0X0X&X8XwX8X",
"L.P.K.b.L.L.b.L.Y.b.I.L.L.U.L.Y.Q.Q.L.L.L.Y.Y.Q.W.U.U.K.U.W.W.Q.Y.Y.L.U.Y.L.Y.W.Y.L.U.U.U.W.U.m.U.n.m.Y.Y.U.K.K.L.P.L.Y.U.L.h.K.",
"W.Q.Y.U.n.U.W.Q.Q.W.I.L.Q.W.!.`.`.U.Q.W.L.W.U.Y.Q.W.Q.U.Q.Q.`.Q.W.Y.Y.W.I.I.m.U.L.n.U.U.E.W.'.Q.W.W.Q.'.W._.U.U.E.L.L.L.W.W.Q.].",
"h.K.h.h.f.0.@.} 3.$.8.8.r.t.t.f.0.#.5.8.3.] { #.3.8.3.8.r.t.f.t.r.5.$.5.{ { @.{ @.#.#.} @.#.4.8.0.8.0.4.4.0.3.#.} ' 8.j.t.j.U.j.",
"%X7X}.K.n.} > ; w h J ! *.z.U.C.d.( D r 5 > - + $ < r S [ ;.a.M.v.d.+.J h y - # o o - r i x ! =.w.d.9.;.X.Y z u 5 > 6.b.U.'.%X}.",
"eX0X7XU.L.3.$ > f J 1.A./.wXdX>XZ.B.1.( J Z p = : y z ..l.F.-X1XiX,XH.d.:.! f y o - u N &.u.V.).>XdXiX>XoX^.w.M r < 2.m.W.&X9X$X",
"eXfX0XU.Q.@.o o o 3 7 j Y } ;.X.D ~ T A g 5 . . = + - < < b ~ ;.<.O.B q 7 < :   . . @ 1 6 u P X.d.s.:.) ! Y p , + $ } E.Y.eXqX9X",
"7XfX&XL.[.] # $ : r f ^ w.N.T.(.C.a.%.F g p .   $ , 9 g T &.l.F.).G.*.) h w w   . @ % , r F o.z.(.;XZ.i.-.S p 2 - @ } Y.L.9XyX].",
"5.fX9XQ.!.@.9 k E *.z.~.oX,XpXhXhXsX/.J. .P z > z P  .i.J./.XX1XhXdX5XH.v.Y m c + r N T >.~.dXhXkXkXkXjXdX.Xl...P r | '.L.6XP.8.",
"r.eXyXQ.].] : * 5 k Y &.a.~.|.:X|.A.O.F f e < o - > f S ( >.e.S.^.XXA.*.Y u > ; O - - e l ^ d.~.oXrX>X;XZ.-.Z p < - } {.I.*X'.C ",
"%XfXyXE.].] o X X o 1 0 M o.;.p.-.~ g & .         . o - u N ..e.l.,...v * . .     .   . o w x [ a.V.J.>. .g % . . . } }._.6X7X'.",
"eX0X6XL.!.@.    X @ 2 p S &.1.J.y.X.R 3 .           . > m | e.x.x.c.o.M 6 @             + t R e.F.XXA.a. .B %     . ' ].Y.$X0X%X",
"yXeX6XL.E.] X . X % 2 v T >.1.J.k.a.X.r O   O O     O w W w.x.<X.Xx.c.T 0 @       .   . = l X.x..X=XXXH.*.Z * .   . ' _.Y.0X6X9X",
"qXyX9XU.L.] X o . % q Z ..1.J.B.Z.l.%.f o   O + .   $ t ^ s.^.<X2X.Xc.T b @ .   o O   O > c =.D.<X2X4XH.>.K , . O X ' Y.E.0X0X0X",
"&X#X6XL.m.@.  X   * q G ..1.H.H. XB.&.f o     o     - l | z.(.<X2X.Xc...b +     O .     < L -.T.<X2XaXH.u.K 7 . .   } W.E.6X9X&X",
"&X'.8XL.b.$.= = X , k D &.1.H.4X=XF.&.g &   + - O O > l ^ z.(.,X2X<Xx.X.v - . o > o . O w L 9.V.<XaX4X=XJ.K 6 @ $ @ q.].Y.6X%X9X",
"*X&X@Xm.I.] = ; X * k K &.c.-X4X4XJ.:.g =   O w O o - l ^ a.(.;X2X2XS.e.v & .   - O   O 5 L ;.D.2X2X3XXXk.K 8 o + O X.`.Q.8X8XyX",
"0X%XtXY.K.3.  $   * k K &.c.=X4X<XF.&.j =   . +   O - l R s.(.>XaXrXF.u.Z *     + O     5 c -.V.2XaXaX=Xk.K 0 X O   6.W.W.0X0XyX",
"6XyX8XU.`.0.= = O * d K l.J.-X4X4XH.&.j -   + = O + = l ' v.(.:XpXrXF.w.Z * . O = + . O > A -.Z.2XsXsX,XJ.! 0 + + o 6.Q.I.0XqXyX",
"uX$X@XK._.8.+ = . - d K ,.F.-X4XpXZ.%.g =   + w o o = t ^ s.^.;X1XrXS.w.v - X X = = O O > A 9.Z.<XaXaX1Xs.! 0 $ + O q.{.W.7XgXfX",
"L.0X$XL.L.8.  o . $ u J -.J./.4X1XZ.[ g +   O o     + t ^ s.D. X>XoXx.,.v =     + O   O - c =.B.=XaXsX,Xi.K 6 . O   q.{.{.fXfX`.",
"j.eXwXL.L.6.= > O $ 8 D &.k.-X(. XA.^ i +   = = . o = w E y.T.XX.X.XS.o.g % O   = +     : x =.N.XX4X2X-Xi.K 9 . + . 6.].{.yX}.r.",
"b.8X0XP.L.0.+ = O & r F %.s./.OX;XN.^ i +   + = O o # t E ;.A.D..XoXx...z + O O = +   O - f ( a.XX<X=X-X1.D 9 @ + . q.`.].fX9X` ",
"{.eX7XK.W.8.  o   + e L -.y.~.OX(.v.D g $     O     o e U ;.N.D.XX^.z.T b =     o O     & f ^ d.D.=X1X/.<.D < . O   q.}.].yX9X].",
"8X%X%XP.Q.t.+ = O + y A X.y.H.).).u.! f +   O $   O o 5 D ;.s.V.R.S.e./ c +   . = o   . $ d ) y.Z. X;XD.*.Z 6 @ o o q.}.].yX9X9X",
"9X$X$XL.W.0.= o O $ e A %.>.A.H.~.d.S s + + : < - X + y D ;.s.x.S.F.w.T g $ . o % > o X $ 8 E ;.A.XXXXZ.*.F 9 % + O 6.}._.0X6X0X",
"9X0X7XK.].8.s l r : 5 V [ 1.Z.).~.d.F r : g S [ Y j > < V :.i.z.x.F.u.~ f > u v P ! j 8 & q E ;.k.~.^.A. .Z < f u + q.}._.7XeXeX",
"0X0X9Xh.`.0.> 5 > $ w z [ 9.A.G.C.y.D e - 5 g x f : & > c +.y.l.x.x.>.Y r - > t z x 3 : # 8 D *.v.H.(.V.%.b , 6 5 = q.}.Y.0X0X0X",
"0X7X7XL.Y.3.O .   O 3 z ^ -.C.G.M.;.A 7 X   o O o   O > x ) <.a.l.l.,.G r @     # # O O # 7 A %.d.Z.Z.g.O.j : . . . 2.`.`.0XeX7X",
"8X0X&XU.Q.@.      . > f ! %.v.Z.N.<.F y .           . > f ) ;.e.l.l.o.H r O             X 9 C [ p.V.T.a.) p -       3.}.Q.9X7X9X",
"9X0XeXY.U.#.X .     > f P -.N.C.v.+.V 3 .             > h E *.e.e.u.o.S 6         O     X 4 B ) <.N.C.e./ f =       X._.Q.0X0X9X",
"tXyXqXL.L.#.o O   . > l P %.N.N.s.+.j >       O     O ; l P X.w.>.u. .S 8 .     O O     . 4 h ! <.M.N.>.! r $ . . . =.W.L.$XeXyX",
"yX9X9XP.L.3.  O     > s P @.s.N.d.( j 5 .     O     . > f P ..,.,.e.~ n 6       O         4 x E ;.v.k.-.G d + .     6.Y._.*XyXuX",
"{.uX6XL.E.5.= =     ; s P [ s.v.y.! d > O   . # . O . = s D / -.o.o./ n 3 O     o +     X 4 h E %.a.s.=.D d = o O o 6.].Q.yXtXW.",
"@.yX7XK.U.8.o o O O - 7 A [ t.y.:.E t >     o o O O . = r C Y o... .T z , . . . = #   . O : d F +.y.d.X.S r + O . o 6.{.U.0XY.@.",
"t.%X$XP.U.0.r y 5 - & 7 x _ ;.;.@.F a = 3 8 r z i 3 & = y c S T T / Y f > > 6 r x f 6 & # : r D ( ;.*./ Z 6 > 5 > > 6.}.Y.wX'.] ",
"@X*X&XL._.0.# X O . = 6 x P =.=.( F r =       . .     + w z S Y H Y S k >       X .     . - r x ^ :.%.^ n 5 o O   o 6.%XQ.$X9X8X",
"9X9X8XW.E.4..       # 5 h P ( [ ) V 8 =           . . o w f m N H Y Z r -                 = r z D O. .^ V 5 O       6.%XW.9XtX9X",
"0X6X9XY.Q.5.        o 4 a D / ' ! V 3 =             . O > i N M M H Z r -                 = y f U ) ) Y f > O .     =.{.W.wXwX&X",
"0X9X#Xm.W.6.O .     O : d A E ^ E V 7 #       .   O O o > i z M N S Z r $ .       O       $ 5 f Z ^ / Y g > . O . . 6.|._.eXyXyX",
"*XqX$Xm.E.3.o o O   o : r h P P F B 5 #       $ O O O o - t f N N N x r $ .     O $ .   O o 5 f c ^ T Y z - . o o O 6.`.Q.wXwX0X",
"wX9XqXU._.4.    .   o & 7 f x C C h 4 o       O   . . o - e i x v z g 6 &         o       o > t z P Y L f ; .   O   } {.Q.yX0X*X",
"&XyX9Xm.Q.4.o + O . o $ 6 r z B j a 3 o     o o . O O O - w t p g g f 5 $       O +   . . o > y f A S Z t - O O o O 2.%XQ.wXwX9X",
"6XtX8XU.'.5.O o O   O $ 5 r f j f q > o     . o . o O O = w 8 r g g r 7 +       o O   O O O - y t x A x r = . o - O 3.|.|.uXeX*X",
"0XtXwXY.E.@.  O     O = 3 t h h h r - o           .   O = > 7 a k g d : o       . O   .   O - w t z x f e =         } {.].fXuXeX",
"uX9X9XU.Y.#.o - O . O $ 3 7 f f a 5 - X   O o o o o O X o > 5 8 d f r : o .   . + o O O . O - w r l x f w + O o o o } '.Q.wXfXuX",
"0XyX&XL.U.{ o o O   O # ; 5 a a r 3 = O     O = o o O X X : 4 9 r r 6 - o       O + O O . O + < t f f r > o . O o o | }.'.yXfX9X",
"4.gX9XL.I.5.. O .     o ; 4 y y 8 5 # O     . .       . o & * 5 6 e < & O                 O $ > e t r y : o   .   O ] ].Q.fX].0.",
"r.qXyXL.L.4.o = .   . O & : 5 5 5 > #       O O   O O   X & & - 5 6 : $         O .       O X - 5 5 y 5 - o   O o = ] Q.Q.9X6X] ",
"6XwXwXL.L.@.= o       . # ; : 5 4 ; o       . O . O O   X # & - , 1 : $ X       O O         X - > > > > $ O   O O = ' [.'.yX6X6X",
"yXwXwXW.I.{ o         . # & : : - & o                   X # @ - 1 : - o         . O         X $ % > 5 > $ O     . = R ].Q.uX8X%X",
"9X&XyXY.b.{ - O       O o $ & ; & $ X       o O   o O     X o $ % $ = o         O O   .       # & - ; ; o O   O O : L ].E.$X9X9X",
"qX%X{.L.I.` - O .     . X $ & & & # O       O O . O .   X X # $ - % $ X         .             # + & = = o .   O o > c _.W.qX6X$X",
"8X@X6XY.I._ =           O $ $ + $ o                       X # $ + $ + O                     X o + $ $ # o         = c W.L.qXyX6X",
"%X8XyXU.E.] > . .     . O o + + # X         O .   . .     X X # = + o X           .           O o $ = o O .   . O - L W.L.8X0X+X",
"$X6X9XL.Y.{ s > - - + $ = = = # o o O       O O O   o   . o o + $ + + o   X X . O O . .     . o + - : > : - : < w w ^ Y.K.0X0X0X",
"t.t.r.f.j.t.{ } { { { ] 3.} @.{ ` ] ' W Q _ _ ] _ _ _ _ Q _ _ ] _ _ W W W W Q I I W U U U I I ] @.3.} #._ _ _ I I _ 6.n.t.t.t.t.",
"W.W.`.}.W.U.Y.{.{.}.`.{.}.}.Q.W.[.].Q.L.[.].$X]._.Y.L.[.W.W.!.$X$X$XW.W._.Q.Q.Q.`.W.Y.W._.].}.'._.].}.`.}.%X|.}._.`.U.Y.{.|.{.`.",
"Q.L._.Y.].Y.P._.].].].{.].E.Y.W.W.W.W.Y.Y.Y.Y.L.Y.L.W.L.L.K.I._.Q.W.Y.U.Q.'.`._._.K.L.L.E.E.'.`.Q.Q.`._.].].Q.Q._.Y.h.K.K.U.U.Q.",
"*X#X0X0X9X0X7X9XeXfXfXyXfX9X9X0X9X8X%X0X0X&X6X6X7X9XeX8X$X%X6X9X*XqXyX0X9XfXyXeX$X0X8X0X0X$XuXyX9XuXqX0XfXgXwXyXtX%X%X9X$X0X9XuX",
"yXeX0X9XeXeXeX6X9X7X0X].gXfXqX0X8X%X0X0X%X0X8XQ.P.yXeX8XwX7X8XuXwXeX9X9X6X7XfXuX9X0X9XyX8X0X8X6X6X].gXgXuXyXwX9XtX9X%XwX8X].Y.wX",
"uXqX9X9X8X0XeXeX9X].] r.`.uXyXyXyX9X7X0X9X$X'.C 0.{.8X$X9XwX9XeX9X9X6Xb.U '.9XyXeX0X#X9X&X9X6X6X` 0.9XgXyX*X*X*X9X9X$X9X9X] #.W.",
"yXyX7X9X9X0X9X0X8X].b.j.L.uX&X9XwXwX0XeXeXqX%Xr.5.7XeXyXeXwX9XwX9X9X6XL.f.b.7XyX9X8X&X0X0XwXyX6Xr.8.wXuXeX&X8X0X9X7X9X&X#Xt.3.{."
};
