/* XPM */
static char *result[] = {
/* columns rows colors chars-per-pixel */
"64 64 34 1 ",
"  c #636359",
". c #636A59",
"X c #6A6A59",
"o c #6A6363",
"O c #6A6359",
"+ c #6A6A51",
"@ c #595951",
"# c #636351",
"$ c #6A5959",
"% c gray39",
"& c #596A51",
"* c #596359",
"= c #6A6351",
"- c #636A51",
"; c #726359",
": c #726A59",
"> c #6A5951",
", c #635951",
"< c #596351",
"1 c #635959",
"2 c #726A63",
"3 c #6A6A63",
"4 c gray35",
"5 c #636A63",
"6 c #636349",
"7 c #6A7263",
"8 c #725959",
"9 c #595963",
"0 c #635963",
"q c #726351",
"w c #726363",
"e c #596A59",
"r c #595949",
"t c white",
/* pixels */
" .XX.X. .oOO+ @#$OO%O&oO.###*.OX .XX.X. .oOO+ @#$OO%O&oO.###*.OX",
"=O.X. XO  O- ##O=XOO+X== ##### X=O.X. XO  O- ##O=XOO+X== ##### X",
"X-XXX OXXXX=+ O;O:XO ##>, << <  X-XXX OXXXX=+ O;O:XO ##>, << <  ",
".:.O1.OX+ + XOOO2:3oOX =##- 1#XO.:.O1.OX+ + XOOO2:3oOX =##- 1#XO",
"#X. #OOX.OX-XO.#XoO>OX o1# #<< -#X. #OOX.OX-XO.#XoO>OX o1# #<< -",
"X..# XOX#=.O# ##OX>XOX# O= -@#O X..# XOX#=.O# ##OX>XOX# O= -@#O ",
"&O-.# .X% O,1 ##==OO#X% O= #X . &O-.# .X% O,1 ##==OO#X% O= #X . ",
"<.%# #..X ###### =O O X # #O+###<.%# #..X ###### =O O X # #O+###",
"4 . $1# .XOO.OX= ==O, .X  # X  #4 . $1# .XOO.OX= ==O, .X  # X  #",
" *5 O== -oX +OO#XO=##<<O  6  X # *5 O== -oX +OO#XO=##<<O  6  X #",
".O<  .= .O OXOX1OOOX$*==O= X =...O<  .= .O OXOX1OOOX$*==O= X =..",
"X..  . #XX#=OX#  X= ### =OOOXX.-X..  . #XX#=OX#  X= ### =OOOXX.-",
"X-.   # =#XO  ##OO X7#   .X ##..X-.   # =#XO  ##OO X7#   .X ##..",
".. # &- #OO ##1OOXO=O =XOOOO  @#.. # &- #OO ##1OOXO=O =XOOOO  @#",
" #5O -.##OO 1 ##O8O+O.OOOXOO<#,1 #5O -.##OO 1 ##O8O+O.OOOXOO<#,1",
"90O #<. O .==  O..OX.#+-=8OX =q*90O #<. O .==  O..OX.#+-=8OX =q*",
"*,O:#  OO #;XOOo  Xo7.O5 X;O-O&6*,O:#  OO #;XOOo  Xo7.O5 X;O-O&6",
"8  = #OO.#OX3OwX XX XX:,X OO.#+O8  = #OO.#OX3OwX XX XX:,X OO.#+O",
"=O==  # # = XoOO3X5XX3=OOOO%-#33=O==  # # = XoOO3X5XX3=OOOO%-#33",
".3OOO,1 <@# + oX3##X.3X#3 # --X .3OOO,1 <@# + oX3##X.3X#3 # --X ",
"#-O=####<,=O %$q2o-6- O<X>O OXXX#-O=####<,=O %$q2o-6- O<X>O OXXX",
".O OXO ##<#;X-# ..=#+#O == O#O= .O OXO ##<#;X-# ..=#+#O == O#O= ",
" ##+ #OX.--####+1  # ==# X, =OOX ##+ #OX.--####+1  # ==# X, =OOX",
"@$  XX#X  O=, - >O#*#.+ #X O ..1@$  XX#X  O=, - >O#*#.+ #X O ..1",
"=1.=X#  X #..# #XX# . X OXXO#=O#=1.=X#  X #..# #XX# . X OXXO#=O#",
".&-XO.OO=..## - XOOo OOO O-XO=  .&-XO.OO=..## - XOOo OOO O-XO=  ",
"%OO...#XX..Oe<-.XOwX  =XO.:.= ,0%OO...#XX..Oe<-.XOwX  =XO.:.= ,0",
"o  X.#  XO-O<..#XoOO#1# -#X X+ Oo  X.#  XO-O<..#XoOO#1# -#X X+ O",
"3OO.X XO=:O.#-- + oX#-1OOXO-O3X13OO.X XO=:O.#-- + oX#-1OOXO-O3X1",
"OX #OOOX.Oo <-## X OO.,XO.-1=.O OX #OOOX.Oo <-## X OO.,XO.-1=.O ",
"O  . X .X5O:#<1,O  #= e3O3=6*XO>O  . X .X5O:#<1,O  #= e3O3=6*XO>",
" O+X.X+ eX.####r O#O  -;O.#&-#X0 O+X.X+ eX.####r O#O  -;O.#&-#X0",
" .XX.X. .oOO+ @#$OO%O&oO.###*.OX .XX.X. .oOO+ @#$OO%O&oO.###*.OX",
"=O.X. XO  O- ##O=XOO+X== ##### X=O.X. XO  O- ##O=XOO+X== ##### X",
"X-XXX OXXXX=+ O;O:XO ##>, << <  X-XXX OXXXX=+ O;O:XO ##>, << <  ",
".:.O1.OX+ + XOOO2:3oOX =##- 1#XO.:.O1.OX+ + XOOO2:3oOX =##- 1#XO",
"#X. #OOX.OX-XO.#XoO>OX o1# #<< -#X. #OOX.OX-XO.#XoO>OX o1# #<< -",
"X..# XOX#=.O# ##OX>XOX# O= -@#O X..# XOX#=.O# ##OX>XOX# O= -@#O ",
"&O-.# .X% O,1 ##==OO#X% O= #X . &O-.# .X% O,1 ##==OO#X% O= #X . ",
"<.%# #..X ###### =O O X # #O+###<.%# #..X ###### =O O X # #O+###",
"4 . $1# .XOO.OX= ==O, .X  # X  #4 . $1# .XOO.OX= ==O, .X  # X  #",
" *5 O== -oX +OO#XO=##<<O  6  X # *5 O== -oX +OO#XO=##<<O  6  X #",
".O<  .= .O OXOX1OOOX$*==O= X =...O<  .= .O OXOX1OOOX$*==O= X =..",
"X..  . #XX#=OX#  X= ### =OOOXX.-X..  . #XX#=OX#  X= ### =OOOXX.-",
"X-.   # =#XO  ##OO X7#   .X ##..X-.   # =#XO  ##OO X7#   .X ##..",
".. # &- #OO ##1OOXO=O =XOOOO  @#.. # &- #OO ##1OOXO=O =XOOOO  @#",
" #5O -.##OO 1 ##O8O+O.OOOXOO<#,1 #5O -.##OO 1 ##O8O+O.OOOXOO<#,1",
"90O #<. O .==  O..OX.#+-=8OX =q*90O #<. O .==  O..OX.#+-=8OX =q*",
"*,O:#  OO #;XOOo  Xo7.O5 X;O-O&6*,O:#  OO #;XOOo  Xo7.O5 X;O-O&6",
"8  = #OO.#OX3OwX XX XX:,X OO.#+O8  = #OO.#OX3OwX XX XX:,X OO.#+O",
"=O==  # # = XoOO3X5XX3=OOOO%-#33=O==  # # = XoOO3X5XX3=OOOO%-#33",
".3OOO,1 <@# + oX3##X.3X#3 # --X .3OOO,1 <@# + oX3##X.3X#3 # --X ",
"#-O=####<,=O %$q2o-6- O<X>O OXXX#-O=####<,=O %$q2o-6- O<X>O OXXX",
".O OXO ##<#;X-# ..=#+#O == O#O= .O OXO ##<#;X-# ..=#+#O == O#O= ",
" ##+ #OX.--####+1  # ==# X, =OOX ##+ #OX.--####+1  # ==# X, =OOX",
"@$  XX#X  O=, - >O#*#.+ #X O ..1@$  XX#X  O=, - >O#*#.+ #X O ..1",
"=1.=X#  X #..# #XX# . X OXXO#=O#=1.=X#  X #..# #XX# . X OXXO#=O#",
".&-XO.OO=..## - XOOo OOO O-XO=  .&-XO.OO=..## - XOOo OOO O-XO=  ",
"%OO...#XX..Oe<-.XOwX  =XO.:.= ,0%OO...#XX..Oe<-.XOwX  =XO.:.= ,0",
"o  X.#  XO-O<..#XoOO#1# -#X X+ Oo  X.#  XO-O<..#XoOO#1# -#X X+ O",
"3OO.X XO=:O.#-- + oX#-1OOXO-O3X13OO.X XO=:O.#-- + oX#-1OOXO-O3X1",
"OX #OOOX.Oo <-## X OO.,XO.-1=.O OX #OOOX.Oo <-## X OO.,XO.-1=.O ",
"O  . X .X5O:#<1,O  #= e3O3=6*XO>O  . X .X5O:#<1,O  #= e3O3=6*XO>",
" O+X.X+ eX.####r O#O  -;O.#&-#X0 O+X.X+ eX.####r O#O  -;O.#&-#X0"
};
