/* XPM */
static char *result[] = {
/* columns rows colors chars-per-pixel */
"64 64 173 2 ",
"   c #030303",
".  c #090606",
"X  c #090907",
"o  c #0B0B0B",
"O  c #100E0E",
"+  c #0E110E",
"@  c #12120E",
"#  c #131313",
"$  c #191616",
"%  c #181815",
"&  c #1C1C1A",
"*  c #201E1C",
"=  c #1E201A",
"-  c #21211C",
";  c #242421",
":  c #282422",
">  c #262822",
",  c #2B2A25",
"<  c #2D2C28",
"1  c #302E26",
"2  c #302E28",
"3  c #2E3028",
"4  c #33332B",
"5  c #38382E",
"6  c #373730",
"7  c #393731",
"8  c #363830",
"9  c #3B3A34",
"0  c #3E3E38",
"q  c #403E36",
"w  c #413E38",
"e  c #3E4036",
"r  c #3E423A",
"t  c #424035",
"y  c #42433A",
"u  c #4B473D",
"i  c #4A493E",
"p  c #4C4B43",
"a  c #514E46",
"s  c #514F49",
"d  c #535346",
"f  c #595946",
"g  c #56554B",
"h  c #59564D",
"j  c #5A5A4F",
"k  c #595751",
"l  c #5C5B52",
"z  c #635D4D",
"x  c #615D55",
"c  c #685E52",
"v  c #625F59",
"b  c #5D624D",
"n  c #69604F",
"m  c #626155",
"M  c #6A6B56",
"N  c #65645A",
"B  c #6A675C",
"V  c #676A5D",
"C  c #6B6B5D",
"Z  c #796A55",
"A  c #716E5D",
"S  c #71715E",
"D  c #797159",
"F  c #6D6D61",
"G  c #706E62",
"H  c #6E7063",
"J  c #737264",
"K  c #7A7666",
"L  c #767B67",
"P  c #7B7866",
"I  c #757469",
"U  c #797569",
"Y  c #76796C",
"T  c #7C7B6C",
"R  c #7E7D71",
"E  c #82755E",
"W  c #817E6D",
"Q  c #837E71",
"!  c #897F72",
"~  c #7F8173",
"^  c #82826D",
"/  c #858374",
"(  c #8A8574",
")  c #878977",
"_  c #8C8A76",
"`  c #868579",
"'  c #8A867A",
"]  c #87897A",
"[  c #8D8B7C",
"{  c #928D7D",
"}  c #988F7F",
"|  c #8F917E",
" . c #93917E",
".. c #9B937F",
"X. c #8D8D81",
"o. c #928F81",
"O. c #8F9181",
"+. c #949483",
"@. c #999585",
"#. c #949983",
"$. c #9C9C86",
"%. c #979789",
"&. c #9A968A",
"*. c #9C9C8B",
"=. c #9C9E92",
"-. c #A19D85",
";. c #A89D87",
":. c #A29E8C",
">. c #9EA18C",
",. c #9EA093",
"<. c #A4A28D",
"1. c #AAA48E",
"2. c #A6A88F",
"3. c #A8A88F",
"4. c #A2A281",
"5. c #B1AE8D",
"6. c #B1A48D",
"7. c #A4A492",
"8. c #A9A593",
"9. c #A6A994",
"0. c #ABAA95",
"q. c #A6A498",
"w. c #A8A698",
"e. c #A5AA9A",
"r. c #ACAC9A",
"t. c #B2AC95",
"y. c #B2AD9A",
"u. c #B9AE9A",
"i. c #AFB197",
"p. c #ADB19D",
"a. c #B4B396",
"s. c #B3B29D",
"d. c #BBB49C",
"f. c #BEBA9E",
"g. c #BBB595",
"h. c #ACACA0",
"j. c #B2AEA0",
"k. c #AEB3A1",
"l. c #B4B4A2",
"z. c #BBB6A2",
"x. c #B6B9A4",
"c. c #BCBBA4",
"v. c #B7B6A8",
"b. c #BCB7AA",
"n. c #B7B9AB",
"m. c #BDBCAA",
"M. c #C2BDA5",
"N. c #CABFA7",
"B. c #C3BEAB",
"V. c #BEC2AC",
"C. c #C4C1A6",
"Z. c #C8C1A2",
"A. c #C4C3AC",
"S. c #C9C5AD",
"D. c #C6C8AD",
"F. c #CAC9AE",
"G. c #C6C5B1",
"H. c #CAC5B2",
"J. c #C6C9B3",
"K. c #CCCBB4",
"L. c #CDCDBA",
"P. c #D0C7B7",
"I. c #D0CDB6",
"U. c #D1CDBA",
"Y. c #CED1B7",
"T. c #CDD1BA",
"R. c #D1D0B7",
"E. c #D2D2BC",
"W. c #D8D4BF",
"Q. c #D0D8BD",
"!. c #D3D3C2",
"~. c #D8D6C3",
"^. c #DCD8C3",
/* pixels */
"d.F.P.K.K.A.C.J.C.A.f.1.f.K.K.!.K.Y.L.L.J.A.A.M.1.d.H.L.E.L.!.Y.D.R.C.F.M.g.A.K.D.K.E.K.F.I.K.H.M.t.d.G.A.B.B.I.K.F.K.F.D.K.C.s.",
"H.A.A.K.K.A.f.G.K.f.K.C.M.C.S.K.Y.F.F.K.A.c.J.G.G.A.G.!.U.E.U.J.I.T.F.K.C.c.Y.K.G.K.F.Z.F.F.N.S.A.c.f.A.A.C.M.C.S.S.K.Y.S.C.K.F.",
"0.1.>.#.*.<.$.7.7.$.;.<.<.<.<.7.0.0.<.<.*.7.0.w.8.7.:.:.8.8.e.e.7.2.>.<.8.:.1.e.1.<.:.<.1.1.7.-.<.;.;.7.7.:.>.$.;.$.<.7.<.1.1.0.",
"s.y.e.*.$.1.8.w.y.0.1.1.0.9.y.s.r.1.e.e.<.q.8.8.y.r.q.8.y.e.u.r.r.3.9.e.1.3.-.1.8.:.8.7.1.e.s.t.8.e.r.e.e.p.1.7.1.1.>.1.9.r.l.z.",
"7.*.+.o.[ / ( ( [ X.o.[ +.{ [ [ / ^ / { [ / Q / [ X.X.[ o.[ [ X./ ~ Q / ~ ^ ( ^ / ' _ / ( ( _ [ ( / / / / [ '  .Q T ^ o.[ @.w.7.",
"V.C.z.<.$.U , 9 y u u y w 0 7 4 > % # o o o o o o o + o O o + o X . .                 .   X o = , 7 i d d k l p 4 < T #.7.s.C.m.",
"H.J.A.<.7.' : p l C U R R A l a 9 -                                                         @ 5 g V T ] [ +./ J p < / $.q.H.K.C.",
"A.L.K.<.r.W 1 p B R [ X.%.} W B a w *         . X o o . o .   . X   . .   . .     .   .   @ 0 h S | 7.7.r.7.#.' g 4 T 7.0.U.L.D.",
"G.H.K.>.r.Y 4 p C / #.,.0.r.1.+.F g w & o         o o   o o   o X   . X   X O   + o     # 0 k H  .r.m.J.m.y.,./ g 4 I 8.<.E.L.K.",
"m.A.D.0.r.~ 3 p C ` <.0.s.c.z.t. .J l y - .                   . .     X         o     O 9 k F _ <.z.T.T.H.y.:.Q g 4 Y s.0.R.L.G.",
"G.G.K.0.l.T < y N / #.5.C.J.A.c.e. .T l y : o . o # O + $ o o + O X O o o + o   .   # 6 l J ] w.x.Y.!.J.l.8.@.T a 4 T s.0.E.!.U.",
"D.B.K.7.l.T , i N U  .t.K.K.J.K.m.y.+.U l y - o   o + O + # o O +     O X X O   o O 8 h G o.e.V.T.!.!.V.8.+./ V y < U z.r.R.E.H.",
"w.D.F.<.s.T - 9 j I +.7.x.A.A.Y.Y.c.p.[ I l r ; o                               + 8 l J ' r.B.P.L.E.m.r.*.~ H a 5 - I l.q.K.H.G.",
"z M.A.<.8.W - 4 a F ^ | *.a.F.K.R.K.c.0.[ F k r ; o X O # X O # o o O o o O . o 6 g J ' <.v.S.S.F.V.k.,.] H g e > * S u.t.I.M.z ",
"6.M.B.:.4.W & > t m C T { :.f.D.A.Z.K.G.p.[ J k r * + O . O o O O . X o   o + 9 j J [ r.M.K.F.N.d.r.*.X.J k i 1 - % A 8.0.P.H.t.",
"u.M.A.<.<.T & = 4 p N I Q [ <.z.A.S.W.E.c.<.O.I k p ; o       o .   .     + 9 g J / e.B.K.S.F.c.9.#.] F l p 4 - # @ W 0.e.L.I.B.",
"z.M.C.;.4.^ @ % > w d N J Q { 7.b.S.~.I.H.M.:._ H h w < o # $ ; # $ ; O & 7 f F ! y.M.I.K.Z.m.l.*./ F l p 9 : & + o ( l.r.I.K.B.",
"A.c.c.$.1.K @ X & 4 w s N U ' +.y.z.I.W.^.P.z.1.( G h y > + O o O . # o 5 f I [ :.z.L.U.R.M.e.:.( G h p 7 < & + o @ T y.r.U.K.H.",
"B.f.G.7.<.( O   o & < 9 a m U W @.u.M.I.U.^.G.u.7.+.P j w > O       $ 5 d I  .7.d.M.U.~.G.t.#.' U x p 9 < - # o   . / r.e.U.U.G.",
"A.z.A.1.s.{ @   . o & 3 w a N U / &.8.b.K.K.G.F.D.l.#.I h w > o X & 0 d A X.0.v.G.H.G.M.7.o./ J l p 9 < - % o o . o ` e.8.I.I.A.",
"A.F.M.$.r.X.@     . o = < 0 d N G ` &.8.M.H.H.W.E.G.s.[ G k y > # 8 k F _ e.c.A.S.m.t.<. ./ U k p 9 1 - $ o o o   + ] l.0.K.H.m.",
"s.c.C.>.7.+.#         o & < 0 g v I ! o.7.v.P.I.H.K.G.e._ J k 0 8 k R &.y.z.D.A.A.z.:._ Q I l p 7 1 * # o         X ' v.s.H.L.M.",
"C.A.A.<.<.[ $         . o & < w a v J W { 8.v.K.I.F.J.z.7.| I k g I o.l.A.G.K.m.x.7.#.Q J v p 7 < - % o o . X o   o ` l.j.A.L.H.",
"K.m.A.+.<.+.$     .   . o o & < w a m G T ' 8.A.H.H.L.L.m.s.O.L F +.0.v.K.K.K.z.*.+.[ U N p 7 1 - % o o . . o o . o ] k.r.K.L.H.",
"A.S.C.>.e.+.%               O & , 9 a x F ` #.r.B.K.J.L.K.c.s.%.` r.z.B.F.D.B.e.{ T J m p 7 < - $ o           o     ] n.h.H.M.c.",
"w.K.C.#.r.%.&   . X   X .   o O & , q p m I [ *.r.c.A.K.T.J.x.s.:.j.A.K.H.c.h.*._ U m p 8 < - @ O .   . o   o O   o ` v.k.H.G.G.",
"m A.A.>.q.&.&   X o . o o   o   o & : 9 p m I ` #.<.s.M.K.D.B.m.l.z.m.K.n.0.=.X.I m a 9 < * % O X     o o o + O X O ] k.r.H.A.z ",
"u.A.D.$.l.+.$     .   X o         o * 2 7 p x J / +.$.a.A.A.G.J.B.B.A.m.r.,.[ Y l u 7 < = $ o           .   O O   X X.v.r.G.S.u.",
"K.K.D.+.y.+.* o O O o + O o o o   X o - < 0 p N I T _ 7.z.H.D.J.I.G.l.r. .] T l p 7 < - O o O   X X   + # O $ $ o $ ` n.e.K.H.D.",
"C.K.A.<.7.[ & X + # O + # . # + . o X # = 4 y p l S ^ +.0.z.K.Y.K.m.8.*.^ C l p 9 < - # . o     o O o # $ # & * + $ ( p.r.K.I.A.",
"A.F.A.<.w.[ &   o O   O o   o .   . .   % - 4 6 p k F W #.e.f.C.C.l.*.] I m p w 4 ; #             o   O O   # O   o ] v.r.K.H.N.",
"G.K.K.8.8.[ & X + # O # # o O O . o X   @ - < 0 p j C ~ X.@.<.a.c.,.X.R J m k p 0 < & o   X o   o + O # & + ; & o $ / r.e.P.U.U.",
"K.I.K.<.1._ & o # # + & $ o O # o o + o - r g B ~ #.9.k.l.y.t.7.q.<.*.>.<.8.*.` C f w - o o X   + # O & & O & $ O # R q.,.B.I.P.",
"U.F.S.>.1.[ &   o O   o +   o X   . . % 0 k F ] <.l.T.!.H.z.0.@.{ <.C.F.M.S.u.7.[ C k 9 # o X   o O   # #   # #   o X.q.r.S.I.U.",
"F.T.A.$.1.O.- o O $ O & * O $ + X # = w d I [ e.V.K.Q.T.c.7.+./ T &.z.K.S.B.B.s.r.[ F d 9 & + o $ * O ; ; # ; & O $ X.h.r.K.K.A.",
"H.I.D.$.7.| & o # # + & * + $ # X $ y k J [ r.C.L.!.!.G.p.+.^ H C / <.z.S.H.D.A.z.<.[ J l e % . $ # O & & O & & o # R v.r.Y.K.S.",
"A.H.B.:.7.+.&   o o   O #   O o & 9 j J ) 8.m.K.G.R.m.r.*.` H k k T  .8.B.A.D.I.T.a.1. .L l 0 % + #   + +   # O   O ` b.s.T.D.C.",
"! A.A.:.r.%.- X O $ o & & o % & 0 h H [ 8.c.H.S.M.c.r.,.X.H k p p L / { 6.t.M.A.Y.f.t.0.O.J k r ; $ + & & + * & O # ` b.c.K.z.8.",
"E c.A.7.e.X.& . # # O & & o : w k J [ h.C.K.K.A.d.8.&.] Y l p 8 w m G !  .-.g.B.I.K.G.V.r. .I l r ; o $ $ O # $ o # ` b.x.E.d.D ",
"d.C.D.7.k.X.$   o O   O + : y f G _ 7.m.F.S.Z.A.r.#./ H l p 8 < 4 p m A W _ 1.g.F.A.I.K.c.r._ J l r * O O   O o   O ` x.b.L.N.t.",
"H.F.M.-.e._ :   o # o $ > w h I ' 1.B.I.L.U.c.u.*./ H j p 9 < = > 0 d m A / +.:.g.H.H.H.F.M.0.[ J j r : & X O + . o ` v.l.L.H.H.",
"K.H.C.:.0.{ & o o $ o < q f S ' <.s.K.E.U.B.e.&.[ J j p 9 2 - % & 3 9 d l J W _ 7.c.H.K.P.U.G.s.[ I k r ; . # O . O / k.l.L.I.I.",
"U.F.K.:.8.+.&   X o > t f G { q.l.A.K.U.A.8.@./ J x p 0 < - $ o @ - 2 0 i b J / o.8.z.H.K.E.I.z.7.| J k y - o o   . ` x.l.K.R.E.",
"U.P.A.-.t.o.*   @ - w g K X.r.c.H.S.A.u.8.../ U k p 0 < * $ O .   o - 3 5 p N I ! o.:.z.G.P.E.K.M.8.` F g 0 & #   o ~ n.l.L.E.W.",
"F.K.B.8.s. .& o : y h C ] 4.a.c.S.B.a.-.{ / J l p 9 < - $ O O   .   o = , 9 p m I /  .7.c.P.R.!.U.z.7._ J k i = . o ~ b.c.~.!.L.",
"K.H.S.8.e.( & - 5 d F ) e.t.C.F.A.l.8.{ W J x p 9 3 - % +             o = < e p v G W +.h.M.K.R.K.H.z.r.#.L l e : o T x.z.!.K.H.",
"A.K.F.1.3._ , 5 a S | 3.a.H.K.K.r.9.%.] I v a 7 3 - # O .     O   .     o = 1 5 p x G ^ #.r.M.K.F.I.L.G.l.+.I h 0 - Y p.l.R.K.A.",
"A.H.A.<.<.^ 5 u M  .e.z.A.F.T.V.<.{ Q Y x p 7 , - $ o X   X   o X   .     o = < 9 a m G ! &.8.b.K.L.E.K.A.l.| G k 4 T x.l.K.F.A.",
"K.K.F.:.8.{ 7 j / <.x.Y.Y.K.x.0.%.T H z a 9 < = $ X .                       o = 2 9 p x U ( +.q.c.K.H.K.F.m.9.' G w I l.s.A.D.D.",
"G.K.K.:.:._ w J <.x.E.E.K.z.r.+.` L l y 8 3 = # o   .   o o   o o   X .     . + * 1 9 a N J / | <.b.U.K.H.L.c.r.[ g L r.s.K.z.d.",
"Q C.H.1.8.( a / V.T.Q.L.x.7.@./ J m p 5 < & $ X .         + o + # o . o X X .   O * , 9 p v I / +.7.A.K.K.I.K.V.9.V C s.s.A.c...",
"E H.Y.w.1.^ g <.T.T.!.H.r.+.^ J k p 9 , = $ X                 . .               . X * , q s l J / &.7.m.K.K.K.K.s.S C x.s.B.d.Z ",
"u.K.T.8.$.W m 0.F.R.m.e.*.` H k p 6 < & # X   .   X . o o o X + # O # X o O .   . . o & < 9 p x J ] +.8.n.K.K.Y.C.T b s.l.G.B.d.",
"F.L.c.<.1.K m a.B.c.p.,.O.H j i 6 , = $ X X       . o     o . O # . o + o o O     . X + & , 8 p l I ` +.7.z.A.Y.V.T f 0.l.L.H.G.",
"K.H.C.7.7.P C 6.u.1.&.] I l p 8 < = # X .                     o o     .                 o & < 7 p x I / +.:.d.K.C.P f 8.p.K.K.H.",
"L.G.K.7.7.T W | [ ~ Y H l p 8 , = # o   .   . o o O X o O o o $ # + # o o $ o o o o   . . + - 3 y a N J W { 7.m.s.S b 1.9.A.G.m.",
"K.F.F.*.7.W T J M z d p i 9 < * $ o O . o o o O o o @ O o # # $ $ # $ # o $ $ o # # . o o o # = , r p l C J ( $._ M V 7.:.K.A.A.",
"X.] / ] #./ ~ ` ` / ~ / ] ] ` / T ^ T J S J U T T J I J J I T R I I K G U G C F M G N M M M S ^ ] ' ` / I Y L C S I R *./ [ [ [ ",
"7.r.0.l.w.7.9.k.l.n.r.l.x.x.q.r.s.l.r.8.u.s.c.d.y.q.3.p.7.r.t.z.n.m.t.t.r.p.r.w.a.8.8.i.0.s.x.s.y.s.s.l.v.m.n.x.p.r.7.7.x.m.l.l.",
"r.7.p.e.r.e.>.e.k.k.v.p.s.9.1.0.0.0.1.9.e.8.e.3.7.*.8.:.<.*.1.r.e.w.8.,.y.j.y.r.r.>.9.>.9.3.s.r.r.r.s.r.p.l.r.r.r.r.&.&.*.7.7.w.",
"S.C.K.D.J.J.A.D.L.!.E.L.K.J.D.K.D.C.C.F.K.M.K.L.K.D.K.A.A.C.A.F.B.K.U.L.U.Y.K.K.C.J.A.J.K.M.P.U.U.K.K.K.L.E.K.R.H.A.B.A.c.H.H.K.",
"G.P.F.G.J.F.Y.C.G.U.U.G.G.F.K.J.A.C.J.K.A.G.H.U.K.A.C.S.J.A.S.T.H.K.K.L.L.D.A.F.D.K.D.K.F.H.F.I.R.K.A.B.I.I.H.K.K.G.B.K.S.B.H.G.",
"t.B.H.G.A.K.K.J.F.G.N.B.a.F.K.K.K.H.D.J.H.m.B.H.G.r.A.C.G.A.G.K.H.F.A.B.S.A.s.F.K.J.f.P.M.G.B.H.G.F.w.D.H.G.S.H.H.A.M.H.H.G.H.D.",
"z d.D.H.F.D.F.H.H.G.-.u :.G.D.H.K.K.K.J.K.K.L.M.c c B.J.K.K.G.J.F.S.G.N.@.u :.A.D.C.C.K.I.H.H.H.M.c c A.F.C.S.G.A.F.D.S.H.H.M.c "
};
