/* XPM */
static char *result[] = {
/* columns rows colors chars-per-pixel */
"64 64 177 2 ",
"   c #595949",
".  c #635949",
"X  c #515149",
"o  c #595149",
"O  c #635951",
"+  c #494130",
"@  c #6A6A51",
"#  c #515141",
"$  c #595951",
"%  c #595151",
"&  c #636359",
"*  c #6A5959",
"=  c #6A6351",
"-  c #636351",
";  c #595141",
":  c #302821",
">  c #393021",
",  c #514939",
"<  c #393028",
"1  c #303021",
"2  c #393928",
"3  c #413930",
"4  c #8C9383",
"5  c #83837B",
"6  c #93937B",
"7  c #B5ADA5",
"8  c #B5AD9C",
"9  c #93A593",
"0  c #8C9372",
"q  c #9C9C93",
"w  c #939383",
"e  c #9C937B",
"r  c #8C8383",
"t  c #393930",
"y  c #7B7B72",
"u  c #8C8C83",
"i  c #939C83",
"p  c #9C8C83",
"a  c #9C938C",
"s  c #939C8C",
"d  c #93A59C",
"f  c #B5B5A5",
"g  c #9C9C83",
"h  c #938C7B",
"j  c #8C7B7B",
"k  c #ADA58C",
"l  c #ADA593",
"z  c #B5B59C",
"x  c #BDBDA5",
"c  c #A59C9C",
"v  c #282118",
"b  c #9C9383",
"n  c #9C9C8C",
"m  c #A59C8C",
"M  c #9C9393",
"N  c #93938C",
"B  c #8C8C7B",
"V  c #8C9C8C",
"C  c #8C9C83",
"Z  c #9CA593",
"A  c #938C83",
"S  c #838C7B",
"D  c #6A6A59",
"F  c #727263",
"G  c #9CA58C",
"H  c #A59C93",
"J  c #ADB5A5",
"K  c #939C7B",
"L  c #8C9C93",
"P  c #9CA59C",
"I  c #ADAD8C",
"U  c #A5AD93",
"Y  c #ADA59C",
"T  c #A5A58C",
"R  c #726A63",
"E  c #938C8C",
"W  c #9CAD8C",
"Q  c #413928",
"!  c #8C937B",
"~  c #8C8C72",
"^  c #8C837B",
"/  c #838372",
"(  c #837B72",
")  c #7B726A",
"_  c #ADAD9C",
"`  c gray84",
"'  c #ADAD93",
"]  c #ADB59C",
"[  c #A5A593",
"{  c #A5AD9C",
"}  c #B5BDAD",
"|  c #BDC6AD",
" . c #BDBDAD",
".. c #B5BDA5",
"X. c #BDB5A5",
"o. c #6A6A63",
"O. c #B5AD93",
"+. c #635959",
"@. c #A5A59C",
"#. c #ADB593",
"$. c #7B7B6A",
"%. c #BDB5AD",
"&. c #8C8372",
"*. c #6A6359",
"=. c #93A58C",
"-. c #C6C6BD",
";. c #CECECE",
":. c #A5938C",
">. c #72726A",
",. c #C6CEB5",
"<. c #93C693",
"1. c #6AB57B",
"2. c #0F6A28",
"3. c #286A30",
"4. c #518351",
"5. c #C6C6B5",
"6. c #9CA583",
"7. c #518C59",
"8. c #0F5118",
"9. c #286330",
"0. c #517B51",
"q. c #83937B",
"w. c #A5AD8C",
"e. c #838C72",
"r. c #CECEB5",
"t. c #493930",
"y. c #B5B593",
"u. c #CECEBD",
"i. c #D6D6C6",
"p. c #7B4941",
"a. c #832828",
"s. c #630F0F",
"d. c #6A4139",
"f. c #CE7B72",
"g. c #CE6A63",
"h. c #590000",
"j. c #632118",
"k. c #6A6363",
"l. c #AD4941",
"z. c #932821",
"x. c #630000",
"c. c #490000",
"v. c #726A6A",
"b. c #720F08",
"n. c #6A0000",
"m. c #6A2118",
"M. c #7B4949",
"N. c #590F0F",
"B. c #6A4141",
"V. c #9C8C8C",
"C. c #392821",
"Z. c #BDC6B5",
"A. c #9C9C7B",
"S. c #494139",
"D. c #ADADA5",
"F. c #7B7272",
"G. c #A5B59C",
"H. c #494939",
"J. c #ADA5A5",
"K. c #9CAD9C",
"L. c #A59383",
"P. c #635141",
"I. c #AD9C8C",
"U. c #938C72",
"Y. c #B5A593",
"T. c #592118",
"R. c #634139",
"E. c #303028",
"W. c #7B7263",
"Q. c #392828",
"!. c #8C9393",
"~. c #9C8C7B",
"^. c #7B8C7B",
"/. c #9CAD93",
"(. c #8C7B72",
"). c #A58C83",
"_. c white",
/* pixels */
"  .   X o o   X o . o o O o + @ @ + # $ o % X $ .   $ & * =   o - - - - - -   . ; ; ; ; # : > , # < < : : < < 1 < < < 1 : < 2 3 ",
"= 4 5 6 7 8 9 0 5 q w 4 e r t : : 3 y u i i p a s 5 s d f 8 g h j 5 j j 5 j a k l z z x 8 c 3 v v < g g b q a w n n i m M s N 3 ",
"$ B B h V C Z s w B w A B S D 2 3 F N m a h S w G m b H J n K L 4 P q I n G n U Y G n T T L R < 3 F E a A Y b G W T n b n n N Q ",
"X 6 w w B ! u B B ~ B N w b n n b w u A ^ / ( 5 B N s N q w 4 4 4 s 4 w a u B w h h h w w B w a w n n B a w h w w h u / ) m 4 < ",
"o _ b B w ` x ' z _ f ] z z z _ f z _ f [ q [ _ { J J } |  .| ....f  .J f ] .._ z ] _ ' X...f  . ...f z z x z ..z _ n ^ o.s A 2 ",
"  O.m B n z T ' T U n n U [ n w n n n a n n N w Z { { ] [ z ] J { { U _ G [ Z n n n [ m l _ l T ] _ ' [ U n ' U ' T n y +.s g Q ",
"  L n w n f l [ T n _ U [ [ g s 6 w n N 4 w u w a [ U m ' _ { ] _ ] @.[ ' n n { n [ n T [ m n a H m n g g T ' #.' T m $.o.G w < ",
"X 0 w B Z f ' l m [ T z G G w ! n s n 4 w N n n n n n T [ [ [ [ { { _ G U U n _ U n n n %.} w A g ! b w w &.h ' _ l m / *.i ! Q ",
". ^ =.4 n x [ ' m ' ' T T U G 4 B 4 B w B i n w n G n n [ ' [ _ [ { U [ n [ T U m m n f -.;.f w w B B B &.) $.w ' T T ( & 6 ^ 3 ",
"O n :.w T _ [ _ k ' #.z U n w C w ! w B i w n G g G g T T n @._ U { [ [ G T T T T T T z  .` s i n n w w a R F w [ T [ >.O g s 3 ",
"$ 8 i ! n ..' ' ' T T ' T U G 4 B w w i 4 B w B w w b w n n @.{ ] G U G G g n T T g T n [ ,.6 <.1.2.3.4.u R R w T U s y o.q ' 3 ",
"  n i B T _ G n n m #.] #. .5.w B B B B / $./ / ! B w B B w [ { U Z G T T G T 6.n T G G [ | G 7.3.8.9.0.n R o.n ] _ Z >.o.n n 3 ",
"o w q.! w ] n n T w.' G f -.;.x 4 4 B 5 B / / ! / B e./ $.$.w [ { U n n G U ' ' ' n n _ f r.g T [ n n a w o.R w U ] [ y D ' w t.",
"O e 4 B n ] U T n ' T T y.u.` n n ! w B B B B w B g n B ` i.B B B 4 B B u h b A h w &.u r | G i G n b b w o.o.w _ G n $.*.n b 3 ",
"o r S B n _ U _ G U ' ' ' f r.n p.a.s.d.B 6 i n w w h n o.% % R o.& *.& D o.D R ) R *.O ) ' n T T [ U T n o.R B G G w $.*.L a Q ",
"+ t D w w ] T T ' _ G n U _ | g f.g.h.j.n 6 i n 6 n w w R R B N Z n n T w G H [ l [ T m m z ' T _ [ [ l n k.R B [ b G >.*.R 3 > ",
"@ : 2 b g z G #._ G ] U ] _ ,.n l.z.x.c.n w n n 4 w s w & o./ n i g g n ! n G U [ U ' [ l w T [ n T n n w R v.N [ T n $.& < v , ",
"@ : 3 w n ..G T #.U T U J J u.n b.n.x.c.n n w n w w w s D *.B i n G w n i w n n ] _ T ' a ^ ) $./ A w / F >.y n m s n y *.3 v # ",
"+ 3 F n g x w.T ] T ] _ ....5.s m.h.c.j.[ n n w n s n i *.>.B G T w n ! B n G g g ' z ' m u y $.y 5 $.) $.( B _ U w n F *.>.< < ",
"# y N Z [ ..U T ] T U G f _ | [ M.N.N.B.T n [ n Z n n B R F w g g T b w w w g T w.] ' ' ' T i w n w / n n [ G T [ n w R O E g < ",
"$ A H N [  ._ #._ ' T _ _ U 4 B s i n n n n n n G n w B *.*.B n b T w n w w w n g ' ' ' #.T ] G G U B [ ] ] [ T n n w R $ V.u C.",
"o s q q [  .] w.w.T G g T 6 ( >.R R >.R ) $.F F $.) ) >.*.R u w G n a n w n w G T T z #.' ' ' ' w.[ B [ z _ [ [ s n h $.O w b < ",
"  b [ n @.Z...U T g G A.n ! $.$.F y $.F ) y ) y $.y ) >.) / s g n n w n w N n G g m #.' #.] ' T _ J u ] ] J _ n w n w )   n N < ",
"$ q @.Z [ } _ U U i i ! ! ! u B w 4 w w w B u w 4 6 B w B n n s n n N n n w n T T G #.I T #.[ [ _ f u _ f ] ] T s n n ) *.N A S.",
". Z D.@.@.} U n n G 4 i 4 4 4 s G [ n [ n a n n [ [ G n G n G n Z q U n n [ n g g g n T ` [ T U _ J v.J ] U ] U n n n >.* A.s S.",
"  N l q Z f [ T n n s B B n n Z [ T G n b [ [ [ Z G G n T T n [ Z G [ T [ m w n i T T T ` n n B N >.v...] _ G [ n q n R *.C p S.",
"$ [ _ [ [ f [ G n g s n n ! s s G n T n [ n Z n [ @.n [ n g g G G n T n [ T n n n 6 [ T ] B U { _ U f _ z [ T N s w N F.O g :.S.",
"& z D.b [ ] G G n i ! 4 n w w n g n G [ U n [ { Z U G [ n g T n b U n [ n n n b 6 g G n G ( s @.{ ] _ T [ g n G g Z n >.& T l S.",
"* O.G.n n z i i i i n w g g n i G n U G [ G [ { _ { { [ G n T n m T n n T n n g w s i G G / s Z G [ _ ' g n w g w s n $.+.n c S.",
"= ] 6.n n U n n i ! n G 6 n n g [ w.[ G G ] ] ] { G G n n w T a [ T n T U w w w n s w 6 U / N U _ T ' [ [ w n i w G G $.& c l H.",
"  [ J.a [ ] n s i i w B w n i T G G _ G n [ Z U n [ 4 n s n b m T [ U ' U n T i s s n n U B n G [ _ { T G g G g G G w >.*.W G S.",
"o K.c n @.f n n B 4 i w g K 6 G T G U _ [ T U [ n Z s w B b s m n T U U U [ w.T U i G n U ( [ [ ] [ ] ' ' T g G 6 w B ) +.K p S.",
"- Z P q Z f G n i n ! g i ! G T G U U n T G n G n 4 w w n n a a n [ [ T ' T n n G n T n T B G _ ] [ [ T U I G T n n w >.$ n u S.",
"  _ n n n f [ ! i n G w n 6 n n G U G g n G Z s n ! G 6 n w T n n T [ U U T w.w.g g g n G ~ [ [ _ z ' I I ' T G g B B o.+.b A S.",
". x O.a G _ n i w i n g g i n n n G U [ [ G [ T G G n n [ T T n n ] U #.w.' U T n g n g z / [ [ T I I k ' T w.G i 4 u o.% L.w 2 ",
"P.X.e n n z i B g G g G n w T n n s w s G n n n n n n n [ n [ _ _ ] [ _ T n g T T n g f | B B n T b n m T T ' U w n B o.% B A 2 ",
"  I.&.w n U w n w G n w n n n T T n n s n G s g n T U n ] T G ' T ] ] ] U T G G  .| 6 [ U 5 5 A B h w b T n w i w n S o.O w g Q ",
"  :.g ^ B U 6 s i w s w w T T [ T n 6 s 4 Z G G n i n n n U T U U [ #.U U Z Z f -.;.x [ w s B B ^ ^ A w A B ^ / N s 4 >.+.T w 2 ",
"O E s / B [ w B w s w w n g T T U ' G G G G [ n [ T T n U U G G U [ z ] _ G n f 5.` U G w n n w w w w N [ w $.R B n N o.+.g ! Q ",
"O U U.^ / G ! w 4 g n n n T [ T ] G G G Z G [ [ i G n G U [ G _ [ T ] ' U U U f ..,.w M.a.s.d.n i b n [ U [ o.R B n N R k.6 5 3 ",
"O q V A S [ s B G [ a n T n ' ' ' G [ G Z n [ U U n [ G G Z Z G U T ' G T T n [ _  .n f.g.h.j.g G n Z Z [ n R R u w u F.k.N n 3 ",
"O 8 I.w 4 { B w w G w n m ' T U U T n [ [ G U U G Z n n [ G [ G [ [ U T g T T [ [  .w l.z.x.c.i n [ n [ n w *.*.^ q w ) O U ' 3 ",
"o X.Y.B B n w B g G b w T T T n T U n { [ n U [ G Z [ n n G [ { n T w n g n w ] _ 5.n b.n.x.c.G w [ [ Z n N o.R B w w $.+.l w ; ",
", z G B ^ s B B w n i w b n w n T b [ n n T { { U _ Z G { Z ] { [ n i w ! B w _ [ ,.n m.h.c.T.w w n g [ w n o.R B n n ) *.n b H.",
": c s ( B Z B B 4 g w n n s B g g n w n a Y [ _ [ [ { G G @.J Z Z Z w w w w u { _ | w R.N.N.d.w n T n b n w D R B n A R o L a : ",
"> 3 R B w { w n B i 4 ! n B w 6 w B n a H n l [ _ [ T n @.J { P Z q N w w 4 4 { q | n B B B w B w g w m n 6 O D y N N >.+.R 3 > ",
", v < / B { n s s B n i ! w g ! w A N N n q [ @.G { [ [ @.@.@.[ n n n w B u N q [ _ w B 4 ! u w n h b n B 6 *.o./ Z N R O < v , ",
"# v 3 B B n w N w n ! 4 i w w b a u u n n H H n n n [ [ [ _ @.[ N w n u n w n @.n N w N B w N S s n w 4 w B & D B N s >.o 3 v # ",
"< < F 5 w [ G w w n w w w G g w n N s n q n [ G G n T n _ [ n [ G N u g N n n n B y R >.F R o.o.>.R ) ) >.*.O & 4 s u k.X >.< < ",
"< g E B B _ w s n G Z [ U n n n n s 4 u w n n G G n n U [ U [ n n n h h w g n n B ^ >.>.R ) R >.y y >.) >.>.o./ 4 B B & o E g < ",
": g a &.B U b n [ Z [ [ n n [ w n N B u ! w n n a w G @.[ [ [ [ g n h w 6 6 g w n w w B w B N u w B A w N w w q s 4 B & X a u : ",
": A a h B _ n n n [ _ Z U Z s a n A ! 4 w w g 4 N n [ [ [ [ _ [ T w 6 b h w A i i n n [ n n Z Z n U U n n w n G 4 w w R O s e : ",
"< N H w n _ n s U { [ [ [ [ n n N n w a w w w w w [ [ [ _ [ U n w w n n i ! s B [ [ n n T w n [ [ T n n 4 n n s u w w o.o a E : ",
"E.E a n 6 _ i s U @._ T [ [ [ [ n g n n i i w B w n l [ _ _ n T n B h 4 w 4 w w [ g T n n w n [ T G n T n 4 s w 4 s B F o a E : ",
"< A b w w J i G n [ [ U n [ [ T T i n T i w n s w [ [ _ l n T w B n n n G 6 G G n T [ n n g T n n n n T s n g N i w B R $ K a : ",
"1 B B w n U Z Z { q n [ n [ i n n g n G n G n w a [ a n T n n w s n T G i g n a G G T s g g m T [ ' n T n G N n w n B F   g N : ",
"< g 4 s n ] Z Z { _ { Z Z Z G n G n g n n n T n n [ a n T w i 4 w s w G G G n [ n U n i n b T [ ' n T n n n T n n w B D O W w : ",
"< w n n n J J J @.[ [ { { @.@.[ [ n b w n m n [ [ [ w n n w B N B 4 w i n w G [ ' ' n T n g ' _ T m H a n w n w n w B F O g w : ",
"< w G N [ Z @.@.Z [ Z Z @.s n n n b b g h b m m T n w 6 B ! B B B 4 s 4 4 s w [ n T G n n n l m l Y g [ H w h A B 6 B F O L.w S.",
"> n T N N u 5 ^ ( 5 ( $.y ( >.$.) $.) W.) ) y ( / / >.$.o.o.R o.& o.y ) ) $.) $.( ) >.) ) ( ( y ( ( ( ( ) y R >.D *.D D O m n : ",
"< M k u F.v.>.k.R o.o.o.o.O O & & O *.O *.*.*.o.R k.O O & % % X +.& +.*.k.*.+.o.o.& *.*.*.R R R R *.R & k.o.+.O o O $ O O L H Q.",
"S.a 6.n G @._ =.m I.!.W z m D < t y b a m k q ' M K.@.k n Y n V.s T 6.~.' ' Z k @.c [ s q m *.< 3 >.E M M w 4 ^.B b g m m w i 3 ",
"O 4 B b 7 8 /.0 B q z w e S 3 : 1 3 y w i i p a s u M G.m m 5 (.5 u O.E ).N @.I.Y U ' Y a H t v v < g g u b N B b w ! g a s i   ",
"S.    X o     X . O $ o O o S.@ @ + # $ o % X $ .   $ & * =   $ @   . P.    O - o ; H.; S.: > , # < < : : : Q.: < E.< 1 : < 3 o "
};
