/* XPM */
static char *result[] = {
/* columns rows colors chars-per-pixel */
"64 64 234 2 ",
"   c #525251",
".  c #535353",
"X  c #484747",
"o  c #4C4C4B",
"O  c #414141",
"+  c #474646",
"@  c gray23",
"#  c #4C4C4C",
"$  c gray27",
"%  c #313130",
"&  c #3A3A3A",
"*  c #545453",
"=  c #585857",
"-  c #383837",
";  c gray26",
":  c #505050",
">  c #403F3F",
",  c #434343",
"<  c gray22",
"1  c #353535",
"2  c gray24",
"3  c gray28",
"4  c #504F4F",
"5  c #555555",
"6  c #3E3E3E",
"7  c #484848",
"8  c gray21",
"9  c #3C3C3C",
"0  c #343434",
"q  c #393939",
"w  c gray32",
"e  c #474746",
"r  c #4F4F4E",
"t  c #4E4E4D",
"y  c #3F3E3E",
"u  c #6B6A6A",
"i  c #717170",
"p  c gray42",
"a  c #515150",
"s  c #7B7A7A",
"d  c #686867",
"f  c #40403F",
"g  c #585858",
"h  c gray55",
"j  c #666665",
"k  c #7E7E7D",
"l  c gray57",
"z  c #5E5D5D",
"x  c #818180",
"c  c gray45",
"v  c #5A5A5A",
"b  c #5C5C5B",
"n  c #7D7C7C",
"m  c #807F7F",
"M  c #878786",
"N  c #747474",
"B  c #858584",
"V  c #626261",
"C  c #555554",
"Z  c #706F6F",
"A  c #515151",
"S  c gray35",
"D  c #5A5A59",
"F  c #6C6C6B",
"G  c #646464",
"H  c #828281",
"J  c #808080",
"K  c #5D5C5C",
"L  c #5F5E5E",
"P  c #777676",
"I  c #727271",
"U  c #6D6D6C",
"Y  c #6C6C6C",
"T  c gray33",
"R  c gray46",
"E  c #646463",
"W  c #6A6A6A",
"Q  c gray34",
"!  c #4B4B4A",
"~  c #4E4E4E",
"^  c #5F5F5F",
"/  c #696968",
"(  c #797979",
")  c #717070",
"_  c #8B8B8A",
"`  c #676766",
"'  c #605F5F",
"]  c #6C6B6B",
"[  c gray49",
"{  c #565655",
"}  c #696868",
"|  c #5B5B5B",
" . c #4B4B4B",
".. c #616160",
"X. c #7C7B7B",
"o. c gray36",
"O. c #70706F",
"+. c #777776",
"@. c #727171",
"#. c #8A8A89",
"$. c #747473",
"%. c #5F5F5E",
"&. c #6F6E6E",
"*. c gray31",
"=. c #494948",
"-. c #656565",
";. c #797978",
":. c #666565",
">. c #787877",
",. c gray43",
"<. c #626262",
"1. c gray39",
"2. c #7C7C7B",
"3. c #6B6B6A",
"4. c #6D6D6D",
"5. c #868686",
"6. c #787777",
"7. c #7D7D7C",
"8. c #5B5B5A",
"9. c #888887",
"0. c #575756",
"q. c #4A4A49",
"w. c #494949",
"e. c #727272",
"r. c #616060",
"t. c #636262",
"y. c gray30",
"u. c gray37",
"i. c #464646",
"p. c #6F6F6F",
"a. c gray38",
"s. c #7F7F7E",
"d. c #8E8D8D",
"f. c #373737",
"g. c #686868",
"h. c #393938",
"j. c #868685",
"k. c #757474",
"l. c gray25",
"z. c #3E3E3D",
"x. c #3F3F3F",
"c. c #565656",
"v. c #434342",
"b. c gray20",
"n. c #424241",
"m. c #7A7979",
"M. c DimGray",
"N. c gray29",
"B. c #414140",
"V. c #767675",
"C. c #6A6969",
"Z. c #6A6A69",
"A. c #60605F",
"S. c #6F6F6E",
"D. c #8D8D8D",
"F. c #5D5D5D",
"G. c #454544",
"H. c #3F3F3E",
"J. c #898988",
"K. c #767575",
"L. c gray40",
"P. c #656564",
"I. c #737372",
"U. c gray58",
"Y. c #6E6D6D",
"T. c #5E5E5D",
"R. c #90908F",
"E. c #676767",
"W. c #757574",
"Q. c #6E6E6D",
"!. c #444444",
"~. c #9B9B9A",
"^. c #989898",
"/. c #7A7A79",
"(. c #909090",
"). c gray56",
"_. c #353534",
"`. c #5D5D5C",
"'. c #8B8B8B",
"]. c #606060",
"[. c #848483",
"{. c #484847",
"}. c #737272",
"|. c #535352",
" X c #4A4949",
".X c #50504F",
"XX c #777777",
"oX c #656464",
"OX c #4D4D4C",
"+X c #8C8B8B",
"@X c #969695",
"#X c #3A3A39",
"$X c #5A5959",
"%X c gray50",
"&X c #838382",
"*X c #555454",
"=X c #828181",
"-X c #8F8E8E",
";X c #979797",
":X c #939393",
">X c #646363",
",X c #7B7B7B",
"<X c #9A9A9A",
"1X c gray19",
"2X c gray18",
"3X c gray48",
"4X c #959594",
"5X c #2D2D2D",
"6X c #585757",
"7X c #444443",
"8X c #4D4C4C",
"9X c #979796",
"0X c #3B3B3A",
"qX c #818080",
"wX c #515050",
"eX c gray59",
"rX c #343433",
"tX c #595958",
"yX c #3D3D3C",
"uX c #464545",
"iX c gray54",
"pX c #7C7C7C",
"aX c #636362",
"sX c #3C3C3B",
"dX c #434242",
"fX c #595858",
"gX c #7B7B7A",
"hX c gray51",
"jX c #838282",
"kX c gray53",
"lX c #414040",
"zX c #323232",
"xX c #323231",
"cX c white",
/* pixels */
"  . X   o o O + @ # $ % & * = - ; : > > . , < 1 2 O 3 4 5 6 ; - 3 3 O 3 7 O 8 1 1 9 0 0 , , O + 6 & 9 $ q w , @ e 7 r < t 2 y > ",
"; u i p a w a p s d f g i h j k l d z x c v b v n m M N B V C c Z j A V b V 7 S D F G H J K L P j g I U p Y T R n E # W U Q F y ",
"9 D S ! 7 ~ ^ / 3 3 , b k ( ) _ p z k ` ^ b ' ] [ x d m s { p N } * C | E S  .d ) N .._ X.m M o.w O.+.@. .6 N #.$.%.b c v &.) X ",
"; { *.a * i [ L 3 =.p -.;.S :.>.^ k B $.A ,.-.<.G 1.) $.1...2.k &.. v 3.v a d S K a ` i p >.| a | 1.4.L s b 5.6.7.-.[ 8.j X.9.: ",
"9 0.0.q.F &.} ] ! t { w.t A A 5 o.e.U *.Q 5 : w b %.z T r.Y Y t.y.u.D { i.z A y.$ 3  .0.S t.*.* <.$ A ( p.Q Q W <.a.{ ..s.d.M 3 ",
"f.V S g g.< < f.f.f.f.f.f.f.f.8 f.f.f.8 8 8 f.f.8 f.1 8 f.f.f.f.f.h.f.8 f.f.f.1 1 1 1 8 8 8 8 f.1 1 < f.1 0 8 f.f.f.f.8.j.7.k.9 ",
"> { K s { < l.f.< & 9 @ $ q z.@ x.$ e Q : z.7  .i.& f.f.2 6 l.=.$ ~ $ * c.o  .: c. .& 6 6 6 A v.3 : { ^ { w.3 9 8 1 1 : P ^ : b.",
"y : :.$.: 9 6 n.: u.;.m.` $ O  .D | M.S ..w &.` i.$ i.7 O N.B.A : D [ p.' S V.B 6.` N.$ n.$ B.$ Q o.C.1.V  .l.^  .8 1 y.3.Z.G < ",
"6 <.| Q q.< @ O i.A.k.[ m L 3 N E 8.S 0.S.I -.Z y.3 g Q S $. .a w #._ D.u C ^ z :.g p w.q.; K ! d ..V g >.q.1.U F.9 1 g.L $.2.O ",
"G.{ 0.C.i.f.H.. 3 b N D.J.5.N S.F.u.Y K.N 9.L.w ! C *.P.[ m.C ! X.I.U.) o...$...S I s z ! w } ( g Y.{ $.k.T.R ..1.: 1 <.) R.D.v ",
"2 w &.i.G.f.i.K o S J s R.5.u.E.` V 7.W.Q.-.b S E v T B 5.Z !.` 7.j S w A.q.y. .' j.[ A.| :.s ~.u.y.+.c j ^ *.A o.A 1 S ^.~.D.w ",
", :. .l.~ f.b F t * F V 1.$.V : Z J.c } <.: : P $.u.w _ $.S b J x 6.| : K 5.Y /.(.).D j } A.k 0.c B [ E b  .5 w ^  ._.S M $.j ; ",
"o w x.! N.h.F.A { y.Y k -.F.# : { } c H @.V q.`.I.{ G Z S K p p I.C | -.^.5.] m.g g { ) D.u o.K '.s.Z u 8.c { K.].i.1 ' (.j D $ ",
"c..  .S v.9 . *. .: -.. 0.V | ~  .N.V j $.2.~ -.J 0.` *.# $.p | S g p k.$.u Z V  .g <.k m : S $.5.N H } <.Y Y [.*.$ 1 i z 0.K Q ",
"{.. L ! y.9 t.}.z w.$ L K.V 0. .q.$ z 0.o.o.A V K :  .w M ;.] S A.Q k u u p  . .$ , ..p d L K.J M p u +.V  .N -.|. .1 S :.[ :.T ",
" X^ .Xe  .6 ^ g.J F.y.XXB p ) V q.! $ q.! ! 3 w.w oXS I.).) o.; S j L 3 Z k p S  . .o.-.D ] 5.p ` g.k I.a 3 g 0.G OX1 S -.: ^ > ",
"O E n.T a.9 i.4.+XM j * 9.Z i o.A V  .! ^  .: ! : S <.` N s 1.Q I.: : I.@XD.p ^ d *  .# g h :.K 0.-.u ) V !.: A c.O 0 A ! S z N.",
"!.G.~ 9.-.< t p H P 5.g.Y -.C p ^ V C.X...1., q.. A.I <.u.I.p :.S . j '.M L } -.V ..K  . .7.:.3 : -.$.N L :.F D $ @ 0 {.L c Y #X",
"b.w &.$X: f.C <.8.N Y &.: : 7 $.%XG }.6.&Xk.0.{ S q.+.g *XA.i.~ { V J ) K i [ z : s z z # C o.{ &.J.5.[ K.p ) D 0.6 0 q.V L .X; ",
"G.;.I.g , f.: y.$.$.i g !  .>.=Xp C.Y x >.p K 1.0.A.X.<.A $ ~ ` <.k.^ N J -X9.( 0.k 6.N ..: v *.;X:Xs 6.) * u j.>.3 1 A { 6 -.#X",
"].6...A 6 f.x.S S 1.S i.! Y u ] U d N ( o.| &.s.c k.~ # a D 6.-.S K V J ] $.5.l Z 1.A.o.. Q $ p j.5.$.^ : S -.2.>Xq.8 ~ n.^ E 3 ",
"w B W ! $ f.6 *.z w 7 : | S K d F F.k.V A g V H _ H d ` o.w D L . 0.D j S <.M &XH u N b `. .z m.c &X: i.w . 1.u v .Xf.$ A...a c.",
"F.,X|.W ~ @ # ' `  .z . A.F . ; A |.Q # 0.} i :.s p ~ w a : r.Q ..| . w ' S w p I.[ z A.w $ ) j [ w $ A ^ I.x : i A f.y.Q 0.Y   ",
",   D L { h.x.i.S u { F <.{ S :.S L ..a e  .l.e n.3 q.p 8.a * F N 7.z 3 T b S 0.c I.A 8.7  .q.! , a g ` ^ } L ( Q N.8 i.D &.2.y ",
"3 Z.<.>XA q {.{ oXS M D.F ) 2.$.A.p A #  .; x., ^ W.A.p C.s...5.<X[.S ~ u } : N K.B ^ a n Y * S V j 0.A 5._ &XA.G o 1 v.` j o.O ",
"1X .: u E 6 : =.G B M w $.P 7.S A.p  .O a A w.g.A.+.B D.&XN k H k.! : c g . j m.s G ` L &XK <.Y ;.d : >._ 6.i ] U w.0 : >.h k., ",
"2XS p [ ].h.e | m.Z * &.) u j ! <.d ; , $.v >.5.3X<.4Xd.) c -.$.C A ] U ; # Y K.p r q.s j A G N c 0.Q k 1.] c d %.@ 0 ..5.<.. 1X",
"0 j k.i q.q S b ) } G 1.Y o.: a 1.Q ~ 6.5.U 1.>. .w B 5.5.j ^ } . 0.p.8.i.$ 3 g Y  .q.d w :.2.K.S N. ...$.L C T p.2 0 u.g ^ 7 5X",
"3 u d 6XS 6  .q...Z } *.x.; *.i..X: o.6.B >X! i.S k.u &.o. .S g  .^ K.m.<.g  .| S {...g J B ] *.Q..XA S  .e .X;.^ B.1 : 3 q.{ ; ",
"G.o.` >.0.@ e C 2.D.F . g . e a { { ] k b : i.S A 3 i.!. .} $.~ Q X.j.:.g } S C a : K Z u : o x g 7 C : w .XI.j A 3 1 6 e 7 &X^ ",
"< :.;...G.f.i.` =X6.^ ; V ..: o.S F.. A D c.:. .e  .a ^ p V l.: Y J.[ 0.Y A.C I.K.:.G Y z T 4.S  .: -.) P.Y.Y { { $ 8 , C ..J.3 ",
"O K g : , q $ $ 3 A  .0.k >X8.0.a  .i.b v ^ D C F D # ] { 3 3 o.:.%.5 u ` V w . 3 | A  .G $.j  .V V k.K.} ` : ! :  .1 *.F ] ` 7X",
"8XL G ^ , f.7 g e  .. Y { * L  .g : $ $ ~ 0.:  .z { Q # *. .F } %.0.` M &X;.)  .F  .A p 6.J V L Q >.9.9Xm u s.F.F.6 0 q.$.d ` ! ",
"o a D t.$ 0X{ A >.>.4.o.z ^ ~ o.J.[ ! * : ~  .o.6.G C 7 : Z K.V.o.Y U.).&X(  .V a S p } u `  .C N 6.l P 2.k _ p g f.0 8.k j } A ",
"2 A.N S x.& .X] x qX8.A S :.d x M K C o.a  .S k.5.V S w N :Xs $.G J M ( p 7 ~ <Xk s u : G :  .] A.K.[.k.s 4X5.p : f.0 E.p K X.# ",
"w.] V ~ 6 2 c.R [ ` #  .j m.J.[ 9.(.^ <.L z H Z.oX| g p (.j.F W.N $.^ S q.3 5.~.d.N d A.] # : Q A.p 2.i ;.N Y S =.6 1 K K ..j 9 ",
"O { g i.v.f.!.0...A e N.t.l M 5.).` OXp S <.c C.~ D oXk 9.^ M N G j 0.A : $.p l K.u -.) -.: 3 ` a c S o.) 0.V 1.A.x.0 %.p V ~ y ",
"2 S p S 6 8 $ 7 8.S # Y.s.;.7.&XU A d K { D # S : w oXJ F 0.1.{ 1.0.{ 3 ^ C p 7.) [.R.B A.$ : { g A 3 i. .0.>.S . n.1 6Xj A  .y ",
"; c 1.S e & ~ 8.Y i k 6.V B 5.c T u.p { : a z y.! *.( m S 0.0.L D G K $ c ;.k s &.j.D.&X;.] e z.l. .y.: ~ <.g.3 {.6 0 Q { S L wX",
"A m.|.: q.h.7Xc.i W P.A.eX).i S  .n >. ...j  .A 3 p l 6.o.6.y.7 Q 5.B g V Y [ S ] -.&.) F D  .C j ^ { $ A.J -.i.$ f.rX: U d j.y.",
"= S ..S =.& A q.Y G 5 p ..) p OXZ J.K.~ S : S 7 } _ 9.a U b <.k.w X.M <.5 Y >X] p S V K i !.L p u T b ! L.W {. .O 6 rX8.i '.R.c.",
"n.u.. A $ & a -.%X&.tXi.{ F ^ F :.s $.o.{ Z o.* G m ..y.>.o.G : * L i Z P 0.Q } ` N -.X.A...m ] G g.Q 5 a . 3  .w.x.rX-.J J M F.",
"yXD 3 j q.f.S <.).M ^ w. .8.O.z ] | . ) N i : q.A N S p -.1.S j : # o.p.8.  :.w * q.Q o.r.Y.D <.] F  . .:.} Y.D L.9 0 } s.{ j uX",
"y  . .s.E.0 a o.I iX{ b <.C { <.S { p $.} V : e A.p <.( 1...( s S O.e.b T u.%.L.b q.<.P.S S OXn -.A w S 6.J k :.I.& 1 p.S -.$.@ ",
"7X7 c U.j 8  .p ( $.: M. .Y.z a . p *.A . L :.D [ D $.S # k ] p A.{ ~ A 1.%.S S pXaX$ o.p o S 7.&.T Y.Z N m K : ` sX1 . L 1.: dX",
"< -.R.Y : h.# W 3.A S # %Xz D ` K  .A ~ K p j.K.* ( ` a ` M ) ^ G : . V ;.( g U S <.i.fXg OX>Xk.V Q o.<.w K.g S j h.1 # D J.s., ",
"2X0.d ' g f.OXu A A L./ J.Z ..d  ., *.0.F H &X..-.4..X: t.5.I.` 6Xb o.J I.p @.^ %.v : *X<. .$.C L P.$ a N ] ` g -.q 1 A o.j : < ",
"1Xm.) 6X5 f.{.a A.,X3.7.[.5.F A.g 8.1.) A A...) O.:  .a b 1.Q L A C.M p . 4.<.<.w S c u b : p H k :.y.{ Z 1.p 3 *Xl.1 S :  .V 7X",
"y ( K.Y.A 1 x.~ D V ^ ) H l 5.r.S A.i { { <.j S :  .e >.U b ^ x.F N Z S m.J d +.U &.>..  .C G 6.c N d P.. S K.C ; f.8 ~ V ..` @ ",
"q : b ^ $ 1 v.3 v { A p m.[ m.4.w ] V S u X.A *.3 Q F.n ..{ 7 3 ..L A c J ] F &X[.i F p {  .5.[ t. .K C p m.$.p A & 1 . : $.1.- ",
"$ .Xp.,.. 0 O O b F r.F.u S d A G i ) ).D.} 3 ! S o.2.M.b tX3 K p A e P p V L P x [ $.m.: . P A  .~ -.7.) { j $.8.@ 8 $ g j $.tX",
"n.c gX3Xw 1 B.: } -.Q [ ^ A.g S j M 9.:X( S K  .a [ X.8.. 1.p Q S T $ ] V z P $.k 5.p { | | -.K { ..:.} ^ g A.: e q 0 w.o.: ) N.",
"; ( i I o 0 O T Y.T Y E ` v W 3.) ` N M ) A O *.[.s.g.' U V.%.j C $ r N I.M [.^ ] w # 3 ` I.i . N L Q  .a j a # w.h.0 : K G u {.",
"* j.T.N O 1 i.* c k $.p 6.F.7 <.^ L S L  .e Q &X5.[ : S V.F . : : o.0.c p >.L -.8.    # &.0.j C d <.3 *  .A.K.5 : & 8 8.Y F A c.",
"Q ;.N  .3 2 r fX^ [ p.s -.S 5 | N Z | A . Q c 4Xh C.w Y >.w.i.<.%.G c c s N G +.a V ` p S z ` #.^.) S u . -.{  .v n.f.S I.p a.# ",
"v p.S { o.h.x.5 M.X.I d L L p g p.<.p .X` S x <XB o.S hX .n.$ S S I $._ H L I.S 5 oXk $.H ( D.J.5.Z ;.p ~ $ 3 { 1., f.N.j 7.t.7X",
"O : 0.[ 0.1 6 8.g.<.=.^ N u { F./  .= 0.S S J.k ..i.: $ q 6 a . S ].4.u.o o.F.5 0.>.D.).+.t.u O. .S F . x.x.$ ; ~ x.f.7Xi g :.! ",
"< v J.i a f.1 6 {.6 y.: v.6 q @ @ q h.q z.& @ 6 6 9 h.8 @ ; $ e v ~ *.2 6 6 6 l.h.B.=.3 v.6 6 h.2 6 w.B.6 f.& q i.9 8 {.A S o.7 ",
"6 S Y P.~ f.8 f.< f.f.h.8 1 f.< h.< f.1 f.8 & f.8 f.1 1 9 2 9 f.f.< 1 1 1 8 f.1 1 f.f.8 f.f.1 1 f.h.9 8 1 f.f.f.9 6 f.Q S o  .9 ",
"9 ( p <.Y ; *. .[ ;.4.%.A o.M.| 3 b b {.N.S ..>X.XS $ o.>X.X<.a ^ 6X: q.| 3.<.g.Y ^ r ' D a : 3 L A.W =.3 [ : 1.S U d $X: V $ < ",
", k. .oXtXo.L k U.;.P s -.3.K  .i.!. .A { A.A.0.L S z k.S &.L S : T w } u ) s h 6.v : p L K A G.p.~.5.y.{ o.|.' b jXW . >X$ v.f.",
"7 A S p.oXs.&XX.) A.K L ..~ o.D N N 2.s.S V.a.L ) e [ S ] m.{.O # b P 7.1.m j.^ 1.*.3 z A 7  .) F.kXk A.^ ` .XA *.p e g.0.*.$ f.",
"8 A._ 1.p $.) z | z C 1. .S A.H K.X.d.B ( 6.g * c s.6.[._ 0.$ |.a $.m P B :.` >.N # 5 Q 7 * } $.V L.` ` c # A v C . . 6.Y = v h.",
"9 *.a lX7 A 7XyX9 {.N.zXxXO =  .G.N.* , 7 4 6 0 t *.c.v v < yXh.{.. wX{.yX- < 2 3 , & 8 1X9 3  X! rX> 2 < < n.< , 7 , *.& - 0 yX"
};
