/* XPM */
static char *result[] = {
/* columns rows colors chars-per-pixel */
"64 64 137 2 ",
"   c #111111",
".  c #131313",
"X  c #161616",
"o  c #181818",
"O  c #191919",
"+  c #1A1919",
"@  c gray6",
"#  c gray8",
"$  c #151514",
"%  c #181717",
"&  c #151515",
"*  c gray11",
"=  c #1E1E1E",
"-  c #252322",
";  c #2D2928",
":  c #282524",
">  c #1F1F1E",
",  c #242221",
"<  c #2E2A28",
"1  c #292625",
"2  c #212020",
"3  c gray12",
"4  c gray15",
"5  c #282828",
"6  c gray16",
"7  c gray17",
"8  c gray18",
"9  c #323232",
"0  c #343434",
"q  c #353535",
"w  c gray19",
"e  c #222222",
"r  c gray13",
"t  c #1D1D1D",
"y  c #202020",
"u  c #2F2B29",
"i  c #483E3A",
"p  c #342F2C",
"a  c #1D1C1C",
"s  c #181817",
"d  c #483F3A",
"f  c #352F2D",
"g  c #272525",
"h  c #2D2D2D",
"j  c gray14",
"k  c #222121",
"l  c #292726",
"z  c #2C2827",
"x  c #232121",
"c  c gray9",
"v  c #22201F",
"b  c #322D2B",
"n  c #2B2726",
"m  c #201F1F",
"M  c #232323",
"N  c #252424",
"B  c #252423",
"V  c #1A1A19",
"C  c #1E1D1D",
"Z  c #393939",
"A  c #373737",
"S  c gray10",
"D  c #1B1A1A",
"F  c #2C2927",
"G  c #312B2A",
"H  c #272423",
"J  c #1C1B1B",
"K  c #2B2826",
"L  c #302B29",
"P  c #262322",
"I  c #1C1C1B",
"U  c #352E2D",
"Y  c #433B36",
"T  c #2D2826",
"R  c #161615",
"E  c #1F1D1C",
"W  c #2E2827",
"Q  c #1B1B1A",
"!  c #282423",
"~  c #312C29",
"^  c #242120",
"/  c #292524",
"(  c #322D2A",
")  c #2A2726",
"_  c #191918",
"`  c #1D1B1B",
"'  c #191818",
"]  c #1C1A1A",
"[  c #0E0E0E",
"{  c #0C0C0C",
"}  c #211F1E",
"|  c #2A2625",
" . c #23201F",
".. c #201E1D",
"X. c #252221",
"o. c #2D2927",
"O. c #463C38",
"+. c #322C2A",
"@. c #1E1C1C",
"#. c #171616",
"$. c #2C2826",
"%. c #463D38",
"&. c #342E2C",
"*. c #211F1F",
"=. c #262323",
"-. c #1D1C1B",
";. c #1E1D1C",
":. c #1B1A19",
">. c #2A2624",
",. c #2F2928",
"<. c #332D2C",
"1. c #362F2D",
"2. c #222020",
"3. c #383130",
"4. c #463E39",
"5. c #232322",
"6. c #1B1B1B",
"7. c #473E39",
"8. c #1F1E1D",
"9. c #222120",
"0. c #20201F",
"q. c #282525",
"w. c #332E2C",
"e. c #161515",
"r. c #232221",
"t. c #272625",
"y. c #282727",
"u. c #201F1E",
"i. c #262423",
"p. c #36302E",
"a. c #443C37",
"s. c #37302E",
"d. c #453D38",
"f. c #302A29",
"g. c #342E2B",
"h. c #201E1E",
"j. c white",
/* pixels */
"    . . . . . . . . . .   . . . . . . . . . . . . . . . . . . . . . . . . . . . . . . . . . . . . . . . . . . . . . . . . . . . ",
"X X X X o O + O o o X . @ . . # $ % X X X X & & & & & & & & & & & & & & & & & X X & X X X X X X X X & & & & & & & & X X & & & & ",
"* * * * = - ; : > * o &   & X , < 1 2 3 4 5 5 5 5 5 5 5 6 7 7 8 9 9 0 0 0 q q q 9 w 7 5 5 5 5 5 4 e r r r r 3 3 3 3 3 3 r 3 t t ",
"r t t t y u i p - a o & @ X s < d f g e 7 h 7 7 h h 8 8 8 8 8 w q q q 0 9 9 9 9 w 8 5 j e e e e e e e e j j j 4 4 4 j e e r r 3 ",
"j e e e k l p z x * X . @ X c v b n m * t t t t r j 5 5 5 5 5 6 6 6 6 6 6 7 7 6 5 5 e e j j 4 4 4 4 4 5 5 4 4 4 4 4 j t t t 3 r ",
"r e j 4 e M N B r * X   @ X X V m m C t t r 4 4 6 8 w 9 0 0 Z q A 0 A q 0 8 7 7 7 5 4 4 4 4 j e e e e 3 3 3 t t * * * * * t t 3 ",
"3 t t t * * t 3 3 * X   @ X X S t 3 3 3 r h 0 A q q 9 w h h h h 6 6 h 8 8 h 5 4 e 3 * * S S S * * * * * * * t t t t 3 3 3 r r r ",
"r r e e r e e r 3 * & @   X X S 3 r e e e 3 r r 3 3 t t t t r r e 4 4 5 5 6 4 e e 3 3 3 3 3 3 r r r r e e e e e j j 4 4 e j j e ",
"5 6 5 j 3 * * * * o & @   X o e e e * S * t 3 r r j 4 6 7 h w 0 0 0 9 w 8 8 h 7 7 6 6 7 6 6 6 5 5 j e e e e e e e r j 4 4 4 4 j ",
"r r 3 3 e 3 t t 3 * X @   o X S 3 e e j e e r r r 4 6 h 8 h 7 6 6 5 5 5 5 5 j j e e r r r r 3 3 t * * * * * * * * * t t t t t 3 ",
"r r 3 3 3 j 4 4 e * X @   o X * t 3 3 3 3 3 3 3 r 5 7 h 8 8 8 h 6 5 5 5 5 4 j j j e e r r r 3 3 3 3 3 3 3 3 3 r r 3 t 3 3 t t r ",
"3 3 * * * * r 4 r * o @   o o * t 3 3 3 3 3 r r e 5 h w 9 w 0 0 8 h 7 7 7 7 7 7 6 6 5 j j j e e e e r e e e e r r e r * * * * * ",
"e e 3 r r e e r * o &     X X o 3 e e j 4 4 4 4 4 7 w 0 9 9 8 h 6 4 4 4 4 j r r t t * * * * * * * * * * * t t 3 r j r t t 3 e e ",
"6 7 6 e 3 * * S X X . @ @ X X S e r r 3 3 t 3 3 r e j 5 6 6 6 5 e r r r r r r 3 3 3 3 3 3 3 3 3 r 3 3 r e 4 4 j j r r r e 4 4 4 ",
"r 3 3 r t t 3 3 3 * X   @ X X o S S S * 3 r r j j j 4 7 7 7 7 7 7 4 j 4 4 4 5 5 6 7 7 7 7 6 7 7 h h h 7 5 4 e e e e j j 4 4 j j ",
"j 4 4 5 j r 2 k 2 * o .   X o D > k 2 3 5 6 6 7 7 7 7 w 9 9 9 w h j r 3 3 r e e e e r r r r 3 t t t t t t t S o o S * 3 3 3 3 3 ",
"j 4 e r t k F G H S X .   & X J K L P I t r j j j e e e r r r r 3 t * * * S S S S S S S S S S S S S S * * * t 3 3 3 r r r r r 3 ",
"j e r 3 a , U Y T + X     . R E U Y W Q S * r r e j j j e r r r r r e r r r r r r r r e e j j j j j 4 5 5 7 h h h 4 5 5 5 5 5 5 ",
"4 j e e * J ! ~ ^ c X &   X X + / ( ) e t t * t t t t t t t * t t t t t t t t t t t t r r r e e e r e 4 5 6 6 6 6 6 6 6 6 6 6 5 ",
"* * * * o X _ ` ' & & . . & & & o ] % & & & & & & & & & & & @   & & . . . . . .       X o o X & & & X S * * * S * S S o o o o o ",
"                  @     @     @ @ @ @ @ @ @ @ @ [ [ [ [ [ [ { { [ [ @ @ @ @ @ @ @ @ @ @       @           .               . . . ",
"@                       @                                   [ @       . . . . . . . . . . . . . . .                           . ",
". . & & & & & & & & & & . & & & & & & X X X X X c % % & &   @ . X & c % O o o o o o o o X X X X X X X X & & & & & & & & & & & & ",
"X X X o o o o o o o o o o o o o X X X o o o o O } |  .' X   [ & X X ..| X.D o o o o S o o X X X X X X X X & X X X X X X X X o o ",
"S t 3 t 3 r r r 3 3 3 3 r r 3 t S S o * * * * C o.O.+.@.#.. @ & X s $.%.&.*.D o o S t 3 t * * * t t 3 t t t t t r e e e e e e e ",
"4 7 h 8 8 8 h 6 5 5 4 4 j e 3 * S * * t t t t = =.~ | -.S . @ X o O X.( n m * t 4 7 w w 9 w 8 8 w 8 7 5 5 6 6 7 8 w w 9 w h 7 7 ",
"w q A Z A A q 0 9 h 7 7 7 5 j e e e 3 * * * * * J D ;._ o . @ X o X V m k e 5 4 9 w w h 7 6 5 5 5 4 4 5 7 7 7 7 7 h h 8 8 h h h ",
"7 7 h 7 7 5 5 4 4 j j j e r r 3 3 r 3 t * * * * o X & & &   @ & o o S * t r r t j j r r r r r r e e e j 5 5 4 4 4 5 6 7 7 5 6 6 ",
"4 4 4 4 5 5 7 7 h 7 7 h 8 h 4 e e r t * * * * * o X o o S . @ & o o S * t t j e j j j j j j j j j j j 4 5 5 5 6 6 7 9 A Z 7 4 j ",
"e e e 4 5 5 5 5 5 j j j 4 e 3 t t r r r e e r r * o S S S . [ & o o S t 3 3 3 3 r r r r r r r r r r r r e j j 5 5 6 7 0 8 6 5 5 ",
"r r e j 4 4 j 4 5 4 4 4 4 e r r r r r r r e e 4 3 o o S * . [ & o X o S * r e e e e r r r 3 r r r r r r j 4 4 4 j e e j r r e e ",
"e e 4 6 6 6 4 e e r r 3 3 3 r r r r e e e e r r * X & o o   [ . X o o * t t 3 3 3 3 3 3 3 3 3 3 3 3 3 r 5 7 7 6 5 5 j e e e e j ",
"4 5 5 6 6 5 j r r e e e e e e r r 3 3 t 3 3 3 3 * X X * * . [ & X S S t e e e j j j j j j 4 4 5 5 5 5 5 h 8 8 8 8 8 7 5 6 5 5 4 ",
"8 h h 7 7 4 r 3 3 3 t t t t t t * * * * * * * * * X X * * & [ & X S S * r e e r r e e r r r 3 t t t t t * * * * t t 3 r j 4 6 7 ",
"4 4 4 j j r t 3 3 3 3 r r r r r e e e e r 3 3 t S & . o * & [ . X S S t r 3 t t t 3 3 3 r r 3 3 3 3 r r r r r r r r t r 3 r e j ",
"r r r e r r r r r r r r r 3 3 3 3 3 3 3 3 t * * S & . & S . [   & X o t 3 r r e r r r r r r 3 r r r r r r e e 4 5 4 r r r r r r ",
"5 4 4 j j j 4 e 3 3 3 r r r r j j 4 j e j r t t t ' :.J S & [ . X o D 2 k 2 3 3 r r r r e e e j j 4 4 j j e e e j e r r r r e 4 ",
"w 9 9 9 9 w w h h h 8 8 8 h 7 h 7 5 r t * * * * C >.,.^ S X [ . & X J F <.) M e e e r e e e r e r 3 3 r r r e j 5 4 4 j 4 5 5 h ",
"h h 7 h 6 5 5 5 4 4 4 4 j j j e e r t * * * * a , 1.Y T a o [ . X #.2.3.4.G 5.r r r 3 3 3 t t t t t * * * S S S S S S S 3 j 4 5 ",
"5 5 4 4 e e j e e r r 3 3 3 3 t t t t * * * * * > / ~ ^ 6.o @ X X X C | ( P 6.o o o o o o o o o o o o o o o o o S * * * t r r r ",
"t * * S o o o o o o o o o X X X X X X X X X X X X _ ] % & & @ . & & & o ] % & & & & & & & & & & & & & & & & & & S * * * * S S S ",
"& & & & & & & & & & & & & & & & & & & & & & & & & & & & & &   & & & & & & & & & & & & & & & & . . . . . . . . . & & & & & . . . ",
"          . . . . . . .                   . . . .           [       @ @ @ @ @ @ @ @ @ @ @ @ @ @ @ @ [ [ @ @ @ @ @ @ @ @ @       ",
"                                          @ @ @ @ @ @ @ @ @ @ @ @ @ @ @ @ @ @ @ @ @ @ @ @ @ @ @ @ @ [ { @               .       ",
"    .                             . . . & & & & & & X X X X X o o o o o o o o * S S S X X c % % X &   @   . & X % % X X . . . . ",
"o o o S S o o o o S S o o o o o o S S S S * S * * * t t t t t t t t t t * * t r t t * o O } n ^ % & @ @   & X ..| ^ ' o S * * * ",
"t t * t t 3 3 3 3 3 r r r r j j j j j 4 4 4 4 4 4 4 4 4 4 4 4 4 4 4 j 3 t 3 3 3 t t * * C < 7.&.8.R @ @   o s < 7.&.9.r j j e r ",
"4 4 5 5 5 5 6 6 6 6 7 8 8 w 9 9 0 0 0 0 q q q q 0 9 9 w h 7 6 6 5 4 j e 3 t t t t 3 3 3 0.q.w.n -.e.  @   o c =.w.z x j 5 6 6 5 ",
"6 7 7 h 8 8 w 9 0 q A A A A A 0 0 9 9 9 9 w w w 8 7 6 5 j j j j 4 4 5 5 5 j r 3 3 3 3 3 3 2 r.m c &   @   X S e t.y.j j 4 4 4 4 ",
"r e r r r r e 5 6 4 4 4 j 4 6 7 6 5 5 5 4 j j j j e e r 3 3 3 t 3 t t * t t t t t t t 3 3 3 3 * X &   [ . * t t t t * S * t 3 3 ",
"3 3 3 3 3 r r j j 4 j 4 5 5 6 h 8 8 w 8 6 j r r 3 3 3 3 r r r 3 3 3 3 3 3 3 t t 3 3 3 3 * * S o & . @ {   o X o * S * S * * t t ",
"r r 3 3 r e 4 4 j j j 4 j 4 4 6 7 h h 8 7 4 j 4 4 4 4 j j e e e e e e e e e e e e e r r * * * S & .   [ . & X o o S * * * * t 3 ",
"j j j j j j 4 j j 5 6 5 6 6 7 7 7 6 6 5 e t t t t t t t * * * * * * * * * * * * * * r e e e 3 * X X   [ . & X t e r r r r e j 4 ",
"j e e e e e j j j 4 4 j j e e e e e j e 3 * * * * * * * * * * t t t t t 3 3 3 3 3 3 3 r e j e * X X . [ . & X S r r r r j 5 6 7 ",
"r r r r r e j 4 j j j j j j 4 5 5 5 j e r 3 r r r r r r r r r r r r r r e e e e j j j e r 3 t * X X . [ . & X S t t r r j j e e ",
"3 3 3 3 3 t t t * * t e 5 5 5 6 5 5 5 5 5 j r r 3 3 3 3 3 3 3 3 3 r r r 3 3 3 t * * t t t t t * X X & [ . . . & S * r 3 3 3 3 3 ",
"r e e e e 3 3 3 t t 4 h h 7 5 5 4 4 4 5 4 r t t t t t t t t t t t t * * * * * * * * * * * * o X X X & [ . & o o * * * S t t t 3 ",
"e e e j e r r r 3 3 3 r e j 4 5 5 5 5 5 j e 3 3 3 3 3 3 3 3 3 r r r 3 3 3 3 3 t t * * * * * S X o X X {   & X o t t * * t t 3 r ",
"r e e e e e e j 4 4 j 4 7 8 8 8 7 h h h h 7 4 e j j j j e e r r r r r r e e e e e e e r t t > u.V X X [ . & X ' = u.2 t t t 3 r ",
"e e e e r 3 * * * * t 3 j 4 5 5 5 5 5 6 5 j 3 * t t t t t t 3 3 3 3 3 3 3 3 r r e j j r 3 k o.G X.o X [   & X C o.<.) M j e e e ",
"e e j j r 3 3 r r r e 4 4 5 5 6 6 7 7 h h 6 4 5 4 e j 4 4 4 5 5 4 j j 4 4 j j e e r 3 3 3 i.p.a.T + X [   & #.2.s.d.f.k 3 r j 4 ",
"t t r e e e 4 5 6 8 w 8 8 8 8 8 h h h 7 5 r 3 3 t t t t t t t 3 t * S S S S S o o S S S S C / ( X.c X [   & & C K g.1 = t * t t ",
"* o S * * * * S S S S S S S S S S S S S o X X X o o X X X X X X X X X X X X X X X X o * * * D ;.' & & [   X & X a h.a S o X X X ",
"& & & & & & & & & . . & & & & & & & & . . . . . . . . . . . . . . . . . . . . . . . . & & & . . . .   [ @     . . . . . . . . . "
};
