/* XPM */
static char *result[] = {
/* columns rows colors chars-per-pixel */
"64 64 243 2 ",
"   c #010202",
".  c #0A0605",
"X  c #050A06",
"o  c #0B0A05",
"O  c #040609",
"+  c #050B0B",
"@  c #0B0D0B",
"#  c #0A060B",
"$  c #110D0A",
"%  c #120E07",
"&  c #0C110C",
"*  c #13130D",
"=  c #1A140B",
"-  c #1B1B0D",
";  c #16170B",
":  c #090E13",
">  c #070F15",
",  c #0C1313",
"<  c #0B161B",
"1  c #131514",
"2  c #161B15",
"3  c #1B1B14",
"4  c #141A1B",
"5  c #1B1C1C",
"6  c #1B1614",
"7  c #130F11",
"8  c #231B0D",
"9  c #231D15",
"0  c #1E211C",
"q  c #1E230D",
"w  c #27240D",
"e  c #232214",
"r  c #292415",
"t  c #24241C",
"y  c #2C2A1C",
"u  c #2A2817",
"i  c #332B19",
"p  c #383419",
"a  c #3F380D",
"s  c #091824",
"d  c #1B1F20",
"f  c #1C2322",
"g  c #172527",
"h  c #1E2C32",
"j  c #1E3233",
"k  c #222423",
"l  c #262925",
"z  c #2B2C24",
"x  c #242B2B",
"c  c #282B2B",
"v  c #2D312B",
"b  c #2A3025",
"n  c #3C3423",
"m  c #34342C",
"M  c #3D3B2C",
"N  c #383627",
"B  c #252D33",
"V  c #2A2E30",
"C  c #2B3333",
"Z  c #283538",
"A  c #333A35",
"S  c #3E3B32",
"D  c #343B3B",
"F  c #373936",
"G  c #312E22",
"H  c #453C19",
"J  c #443B2B",
"K  c #443827",
"L  c #423C33",
"P  c #4D3E39",
"I  c #4A3E34",
"U  c #3C423C",
"Y  c #3F402A",
"T  c #4E4A1A",
"R  c #424234",
"E  c #4B4332",
"W  c #44453B",
"Q  c #4D423A",
"!  c #4C4A3B",
"~  c #494A39",
"^  c #52443D",
"/  c #544C3D",
"(  c #554A35",
")  c #58533C",
"_  c #514B28",
"`  c #645A37",
"'  c #6E6A39",
"]  c #615A1C",
"[  c #293C46",
"{  c #353C43",
"}  c #3B4346",
"|  c #38474F",
" . c #484A46",
".. c #514D4A",
"X. c #565343",
"o. c #5C5344",
"O. c #5A594D",
"+. c #58564A",
"@. c #4C5455",
"#. c #555958",
"$. c #595C59",
"%. c #575752",
"&. c #494F4E",
"*. c #645B45",
"=. c #655C4B",
"-. c #645746",
";. c #675E53",
":. c #705C47",
">. c #6A634D",
",. c #696649",
"<. c #756949",
"1. c #6C6453",
"2. c #6E6A5C",
"3. c #6A6556",
"4. c #746C55",
"5. c #736D5D",
"6. c #756956",
"7. c #7C755B",
"8. c #767359",
"9. c #77754B",
"0. c #515B61",
"q. c #586469",
"w. c #596874",
"e. c #5E737C",
"r. c #686A65",
"t. c #736D61",
"y. c #6D7268",
"u. c #737262",
"i. c #7A7364",
"p. c #7C7A64",
"a. c #797369",
"s. c #7B7A6A",
"d. c #75756C",
"f. c #687479",
"g. c #787B76",
"h. c #656F74",
"j. c #837B5E",
"k. c #857D48",
"l. c #837B63",
"z. c #837D6A",
"x. c #847663",
"c. c #857E72",
"v. c #7B827A",
"b. c #8A8365",
"n. c #84826B",
"m. c #8B846C",
"M. c #898669",
"N. c #938A6D",
"B. c #93876B",
"V. c #8C8472",
"C. c #8E8974",
"Z. c #888677",
"A. c #938B74",
"S. c #938D7B",
"D. c #968C75",
"F. c #9A9373",
"G. c #95917C",
"H. c #9B947C",
"J. c #9B9778",
"K. c #9D946D",
"L. c #A0977D",
"P. c #A49B7C",
"I. c #A59C77",
"U. c #A6A17C",
"Y. c #AAA37D",
"T. c #A9A57B",
"R. c #6E7C8B",
"E. c #536D83",
"W. c #798487",
"Q. c #778895",
"!. c #728897",
"~. c #7992A9",
"^. c #858B86",
"/. c #949383",
"(. c #9B9583",
"). c #9E9A83",
"_. c #9B9B8B",
"`. c #96998B",
"'. c #859499",
"]. c #9A9C95",
"[. c #8A8C87",
"{. c #A39C83",
"}. c #A59D87",
"|. c #A39A90",
" X c #9EA291",
".X c #A5A286",
"XX c #AAA484",
"oX c #ADAB83",
"OX c #A6A38C",
"+X c #ABA48B",
"@X c #AEAA8C",
"#X c #B2AB85",
"$X c #B2AC8B",
"%X c #B3B18D",
"&X c #BBB58D",
"*X c #ACAC93",
"=X c #A9A897",
"-X c #B2AD91",
";X c #B3AF9A",
":X c #B5B393",
">X c #BAB593",
",X c #BBB995",
"<X c #BBB59B",
"1X c #BDBB9A",
"2X c #B6B49A",
"3X c #859AA9",
"4X c #8897A8",
"5X c #91A6B6",
"6X c #BBB9A5",
"7X c #ABB1AD",
"8X c #C5BA94",
"9X c #C2BD9B",
"0X c #C9BD9D",
"qX c #C5BEA4",
"wX c #BDC4AA",
"eX c #C3C29C",
"rX c #CAC39F",
"tX c #C5C3A3",
"yX c #CAC3A1",
"uX c #CCC5AC",
"iX c #CDCBAC",
"pX c #C8C7A7",
"aX c #D2CCA8",
"sX c #D2D1AA",
"dX c #C7C9B5",
"fX c #D3CCB3",
"gX c #CED2B9",
"hX c #D9D6B7",
"jX c #E4DBB9",
"kX c #E5CFBB",
"lX c #E7E1BA",
"zX c #8CABC6",
"xX c #95B1CE",
"cX c #C6CCC2",
"vX c #D5D8C5",
"bX c #D7D7C3",
"nX c #D4D5D0",
"mX c #EADCC6",
"MX c #E8E5D6",
"NX c #EBE4CE",
"BX c #FBFBF8",
"VX c #F3F0E6",
"CX c #DBE2D0",
/* pixels */
"H.XXoX@X-X$XOX.XF.+X@XU.A.M.B.m.H._.S.N.N.G.M.V.A.m.A.A.S.N.H.{.{.+X+XOXXX+X*X%X}.).L.$X,X<X:X@XL.:X>X<X6X2X$X:X6X<XqX6X6X@XK.D.",
"$X$XU.U.:X2X:X&X&X1X9X,X>X>X&X>X,X>X:X:X:X&X$X$X%X@X@X:X:X*X:X:X:X:X-X>X>X,X9X1X,X1X9X1X1XeX1X2X,X9X,X1X1X9XeXeXeXyX8XZ.(.-XI.I.",
":XXXL.XXV.X.R W W Q ^ Q ^ ^  .^ ^ ^ ^ Q Q E Q P P P E Q E Q Q Q P P P  .^ ^ Q ^ P E P I E P P P P P Q Q P P P P I 1.:Xu.D.$XF.U.",
"$XI.U.$Xm.t O t z f 0 f 9 9 k t k k f 0 t 0 4 f t 0 f f 0 f f 0 f f f g k f 5 5 5 5 5 2 4 5 5 5 4 3 @ 1 1 , + # X R @Xi.S.eX#X{.",
",X@XXX%Xn.k 1 F | $.q.$.$.$.$.$.$.#.#.#.#.#.#.#.%.%.%.@.+.@.%.+.%.%.O.O.%.O.O.O.O.%.O.%.%.%.%.%.%.O.%.O.U v b , @ R +Xi.C.:X$X$X",
"%XY.oX2Xz.0 $ 4 g h C Z Z c x v x x x x x x x x f h x g g l V Z Z A A A Z Z C v v x x v C v Z D C x g g 4 4 1 @ @ L -Xu.A.:X:X+X",
"&X$X@X&XA.y   : : @ : 4 4 @ + + + X + & : + X , , 4 , @ X @ + + X + O : 1 4 4 : O + + + + + > + @ , 4 @ @ + + & @ Y -Xa.D.:X>X:X",
"<X+XoX,Xm.l   O + + 6  .A , X     + X +   X X & 3 S = +   X X X X   O @ 5 D l & X     X X &   O @ x V & + O + : & U -Xi.H.uXyX6X",
"rXY.T.>XS.t   & @.a.2.5.5.i.O.t   X &     U y.4.>.5.1.=.E 2 @ $   4 #.u.>.3.3.4. .t   X @   &  .u.>.+.o.o.o.m .   R -Xi.(.rXpXeX",
"aX#XI.%XV.u O $.;.m | &. .{ m +.+.X ;   v 2.U %.&.0. .c R O.3 : o 3./ m } P  .g N =.S     + X.3.t v  .} k l X.o.  S -Xt.{.uXeX>X",
",X%X$X-XA.t f >.S g.cX7X!.!.w.5 ^ K * 1 &.O.g.7Xe.5XzX~.&.X.E o V X. .=XNX7X!.!.w.! *.r   0 +.U e.4X4Xv.^.E. .>.J R -Xt.H.sXeXT.",
"8X9X1X,XV.e 0 E f.7X].0.R.5X'.q.v n & 4 Y d.nXxX} ~.xX5Xr.! E @ x ..[.'.R.w.Q.3X'.e.X.r   4 E @.4XdX'.h.Q.4Xq.o.K Q %Xa.n.#X,XoX",
"wX6XXXoXM.t 5 I 3X'.Q.A &.~.'.0.C n & 1 J R.xX~.w.~.zXzXq.A J & l O.'.4XR...!.~.'.r.~ u + 5 I W.R.w.&.F W.~.#.-.K ! -Xp.n.&XpXpX",
"0XpXeXpXD.t 0 I &.!.3X~.!.Q.f.| _ n ; 4 M ..~.zXzXzXxX~.0.D 9 @ x E h.3X~.3X3X3X~.| Q r   5 I ..[.W.^.~.~.e.| ! J ^ $X5.G.uXpXsX",
"6XiXiXhX).b   i U  .E.E.w.q. .| N o =   3 M U !.~.~.R.0.U A * $ o n F q.4XR.!.R. .W y X + . u W { f.R.R.w.} { N   E %X4.).sXgXtX",
"1XeXiXpXD.v     2 %.%.#.%.! E 1 O O $     *  .$.%.$.@.m t &   +     v #.$.$.#.~ E & X         * %.%.#.$.X.E e +   R %X7.L.>XoXtX",
"pXsXsXpXG.b O @     : 2 2 & @ @ * @ @ o X +   : 1 3 @ X & @       @   O : 3 1 @ @ @ @     + +   & @ 4 3 @ @ @ = + S $X7.).&XpX1X",
"@X9XpXiX{.v @ . + 6 3 W m * $ = 1 * %         - y  .6 @   X @ o + .     9 W l 1 @ 7 : @ @ @ $ @ - = Y A $ @ + @ # R -XM.F.T.9X,X",
"+XiX,XoX%X*XOX.X-X8X0XaXyXyXaXrXrXaXaXaXaXaXaXrX8X8X8X8X8X8X8X8X8X8X8X8X8X8X$X+X.XOXXX+X+X.XXX.XOX}.OX.X}.+XXX.XOXXXH.m.K.&X#XU.",
",XpX1X$XT.J.F.A.B.B.B.B.Z.C.N.N.N.B.l.N.B.N.N.N.A.B.V.m.V.m.V.l.j.z.B.N.N.N.B.N.N.N.N.N.N.j.l.N.B.A.A.F.S.C.A.H.L.}.XX+XXX$X&XeX",
"1XuXqX0X>X8X:XU.z.j.j.B.P.I.I.U.U.U.P.L.I.F.b.j.7.b.F.I.I.P.P.I.I.P.I.F.N.j.7.l.z.M.I.I.I.Y.U.P.L.L.F.N.j.4.l.H.+X,X1X%X$X$X>X9X",
"&XyXuXyXeX9X{.1.7.g.a.-.<.J.oX#X,X>X+X_.b.o.;.d.g.=.<.N.Y.P.P.I.P.P.n.-.=.a.g.:.:.b.I.T.$X8X>X-X_.C.-.=.a.v.3.:.M.P.%X,X,X%X#X%X",
"-X<XfXuX,XH.{.VXBXmXmXfXO.E I.1XtX9X<Xc.3.cXBXmXmXfX8.n z.Y.L.P._.S.3.dXBXVXmXmX_.n 9.Y.8XqXqX6X+X2.;XBXVXjXhX}.R 8.D.%XeX>X$X&X",
"rXyXfXqX@Xs.dXBXmXD.=XVX;Xn O.$X0X:X=Xt.=XBXCXH.V.MXuXJ n B.L.H._.Z.|.BXVX-XB.MXMX,.p b.$X<X9X1X_.Z.VXBX>XB.bXVX9.N m.>X1X&X#X&X",
"T.oXuXyX$X7.<XNXhXmXBXBX=XK ( >X9X:X:Xr.S.NXmXkXBXBXqXm p i.H.{._.Z.Z.mXNXkXVXBXMX-.i ,.F.L.L.+X/.a.hXMXjXMXBXVX1.J N.eX1X%XoX,X",
"K.wXiXuX:Xb.) A.n.o.s.G.n t x.-X:X:X:XD.o.x.Z.-.;.S.^ = ,.{.+X+XOX/.-.8./.2.1./.O.9 Q b.N.F.H.}._.1.4.G.5.;.S.4.6 E J.&X%XY.@X,X",
"9XyXiXiX,XA.,.r p p N p K -./.=X+X@X-X).6.n i n M G n -.D.*X:X@X=X/.x.I 9 N K N n ( x.(.{.H.{.+X/.z.( i G M N n I i.{.@XT.oXoX,X",
"9XqXuXiX,XK.b.7.7.x.s.s.p.Z.S.(.}.+XOXH.B.z.a.3.6.7.z.z./.OX*X:X+X/.C.V.V.n.c.z.s.n.S._.).L.F.N.G.A.V.z.z.z.n.s.m.Z.}.+XU.XX-X1X",
"qXqXfXiX<XF.j.M.8.4.8.t.5.n./.{.{.{.{.D.a.d.s.p.s.p.4.n._.OX*X:X+X(.S.Z.n.p.p.7.7.8.b.L.F.D.L.L.H.V.n.z.8.t.u.2.5.Z.}.$XXXU.Y.1X",
">XtXiXiX1XXX<.p.p.,.*.>.) 1.A.OX}.{./._.p.5.6.=.i.1.( 3.`._.:X:X+X`.n.p.n.1.) ( ) K 6.{.H.H.H.H.H.Z.5.n.2.*.,.>.X.z.{.oXoXT.oX1X",
"XXyXuXuX1X#X8.` y =.K 9 K o.G.:X+X{.(.].s.E t n +.i u / /.`.OX*XOX_.c.-.J = R o.- n 4.S.H.H.J.F.{.).3.N L -.9 n K M..XY.oXoX$X,X",
":XpXfXuXeX@X4.*.  z =.J 8 -./.*X>X+X|.=X4.K o.n   . = / /./.`..X/./.n.*.i ! R o   i 4././.H.H.J.|.'.=.l o E *.9 M H.&XXXU.U.#X@X",
"&XtXfXuX&XXX4.o.n ; . y n O.G.].`./.`. X=.K K 8 # 8 r ~ }.:X;XOX`.`.u./ o.y % $ K p 8././.(.{.{.].].*./ r o ; M R H.$XH.I.I.XXXX",
"6XuXiXpX$XU.m.1.*.O.! / ,.v./.].]._.`./.7.o.^ ^ / ( / 4.OXdXtX=X_.[.c.4.o./ ^ E ) *.Z.`.|.(.OX@X]._.p.,.O./ ! o.u.{.{.F.N.{.P.P.",
"pXtXfXyX%X$X#XJ.M.V.p.l.K.XX+X=X6X=X*X;XOXJ.M.7.x.x.l.b.}.-X*X_._.+X+X|.D.x.x.x.7.j.C. X].*X2X<X*X*X).N.V.z.7.n.{.@XXXJ.H.L.P.@X",
"9XuXiXyXsXP.m.p.d.v.Z.v.v.v.W.f.y.h.r.h.r.r.y.u.5.4.,.6.8X-X).}.{.yX7.<.9.:.6.5.y.y.2.2.u.5.5.5.u.p.x.j.j.j.B.N.B.U.T.B.{.+XXX$X",
"uXiXpXlX$Xl +     > > # O   < s s s s O       O # O O { iX:X/._.{..X1         O     O : : O           O > 4 0 v v / @XM.L.<X>X:X",
"iXuXhXNX.Xy . X   , > : X O > s s s > O       O # +   } iX*X{.+XH.M.* X     O X     O > >               X + : 4 0  .%Xn.H.>X>X:X",
"fXfXfXjX{.v 4 4 ,       X & + O +             + O     D iX$X{.+XH.M.$     . +             O       O         & & 1 R $Xn.F.-X>X:X",
"iXsXuXlXXXk   @ D q.C @ * l q 9 9 3 1 < * * ; ; , &   ! yX$X.XXXF.C.$ $ r 8   o i = . w ;   % w w o       w y y y / :Xn.N.:X:X@X",
"uXuXpXjX.X0   } ^.y.^.z m ;.I S S S U m m M A m A l   P pX@X{.{.{.A.1 p 8 % T ] I = 8 r o i T H . $     . P *._ ! 8.:Xa.C.>X:X+X",
"9XiXiXlX+Xf   D f.Q.5Xt  .c.#.....%.X.) ...... ...U O W wX@XP.}.XXC.@   i ' ` T % . o i T ' _ l ..W O   = ' k.9.=.b.-Xa.C.-X:X$X",
"pXpXuXlX+Xf   X D @.Z X ..^.C x c C } &. .S ..%.%.} + S eX@XL.}.H.A.$ % ( ' _ 8 p y - ( T i w 0 ....#   $ ` ) N S 1.:Xa.m.@X:X:X",
"1XpXqXjX:Xk   @ 2.q.{ O ..f.4 + + + , 4 s h c @.#.} + F 9X{.J.}.F.m.*   . . . . 9 3 3 3         : %.@     m 1     S $Xa.V.@X$X$X",
":X1XeXlX@Xl     C A g   Z @.< : > , [ } Z V g | &.D + N :XJ.A.}.n.n.@   O $ $ @ @ O 4 1 * p p w i V .     1 * O O W -Xi.G.>X+XXX",
"XXJ.eXhX0Xa.2.2.4.2.5.4.r.y.2.r.r.r.f.f.f.s.g.v.g.d.t.t.:X*X[./.p..Xy.3.2.5.5.5.u.4.3.2.a.b.j.6.2.t.2.2.5.u.t.t.y.S.:Xa.C.$XXXH.",
"oX.X9XhXjXfXgXdXdXdXdXdXdXgXvXvXvXvXvXvXcXgXdXcXcXcXgXvXvXvXgXcXwXwXcXdXdX6XdXdXvXvXvXvXvXvXvXcXdXvXvXvXhXvXhXiXiXdX2X5.(.-XXXH.",
"Y.T.&X<X}.W t V C V k f 0 f B B B V c f k B x h x B g h f h x f B Z h f B [ x d k B B B f x f f h [ [ [ C k t v k %.=Xu.`.;X{.H.",
">X>X>XqX`.f         O     O < s > > >   > < @   O s s < : > O + s < +     O           O O O         O O           S *Xy./.;X_.H.",
"1X$X&XeX`.t         1 v & + 4 s 5 5 < , f g s + > g 1 , , , , : h g ,   O     O         < x +   O                 S *Xy./.@XOX+X",
"eX#XY.yX{.b X + @ X & p - : g k t l t $ x C c t , m f q q g > , Z V & y y     < , 1 +   # u %   H o       @ ,     U $Xi.(.-X@X@X",
"eX$X#XiX).u   o X O     o : k k b b 0 @ x [ h g , S m t u 0 , 4 C A 3 r y     & & & +     .     a .         O     S +Xi.H.>X:X:X",
"&XT.#XhXH.0 X + @ O q p O 1 c v v b e $ C { Z g 4  .S v p z 2 0 { D 5         @ : & +   8 w                       M {.d.V.+XXX:X",
"&XpXeXsXG.G w r u X 3 ) 3 , V v b b y @ x [ j s 2  .S l u z & 2 D m 5     X x  .T T -   9 ] = o         $ _ T 8 # m .Xp.C.oXK.{.",
"eXeX&XuXZ.N p n p 1 y ) t , h l b b 3   l D j g 1  .v y e u 2 < D m 9 i u , b ,.' ] i * p _ = @ H ; * & 9 _ T w $ L +Xa.M.{.C.{.",
"XXY.>XgX[.q @ * u l * o @ , g 0 y t w @ k D j t 2 W N u e e & , Z v 6 @ u g 0 0 u u u u % o     8 u u u y 9 = .   S }.d.M.I.b.H.",
"F.Y..X0XV.3 % 1 5 1 9 i   * 5 e 8 - @ X 4 x g & $ v 9 7 o ; o @ l t %   @ @   - - 0 4 @ 8 w     o 2       ; * @ @ J $Xa.S.:X{.H.",
"T.:X$XtXS.N p ~ X.* = p %   & o $ o     $ @ * o O t $ @   .     , @         @ K T E y   $ r .     X     & K J G 5 m {.a.G.-X{.}.",
"T.#X%X1XS.M y A f   % 8 .         O o   @ % X + X 6 $ $ $ o     1 $   = =   3 K Y A 3   o 8 .   q X     & z G x * m {.a./.$X@X:X",
"T.I.F.oXN.X.! ! E L m K M M L L J L L D ! ^ W ~ ~ X.~ W ) / W / X.~ ~ / ) W ! =.o.o.Q D L L M S _ Y N G E o.o.W I 3.+Xa.G.2X:X$X",
"N.F.J.P.XX{..XrXrXrXtXrXyXyXyXyXrXrXrXyXtXyXrXtXyXtXrXrXrXyXeXrXyXrXtXtXyXyXyXtXrXeXyXyXrXyXrXyXyXyXrXyXyXyXyXrXyXeX{.p.D.>X-X}.",
"J.H.K.K.L.C..X/.F.F.{.V.z.S.D.(.).).H.)..X.X.X.XA.(..XJ.{.OXOX{..X.XOX.X+X.XOX@X).)..X.X{.).H.G.*X+X)..XP.A.b.7.N.).{.+X-X-X*X:X",
"+XP.D.b.).+X;X-X%X%X*X+X+X{.A.{.+XL.H.OX@X%X:X:X{.-X:XoXI.I.XX@XU.XX:X:X-X@X:X2X+X-X@X+X@XXX{.+X6X1X1X1X2X+XF.{.}.;X-X6X9X$X>X:X",
"+XI.K.F.G._.*XOX@X+X{.H.D.A.A.S.{.L.N.n.M.J.{.{.{.OXH.J.H.(.+X*XOX}.+X{.{.{.{.{.+X+XOX{.XX@X+X}.$X:X*X;X*X{.+X@X*X:X;X-X$X+X+X-X"
};
