/* XPM */
static char *result[] = {
/* columns rows colors chars-per-pixel */
"64 64 66 1 ",
"  c #313131",
". c #2C2C2C",
"X c #3A3A3A",
"o c gray21",
"O c #3C3C3C",
"+ c gray24",
"@ c gray25",
"# c #3E3E3E",
"$ c #393939",
"% c gray23",
"& c #373737",
"* c #3F3F3F",
"= c gray12",
"- c #272727",
"; c #191919",
": c #353535",
"> c #2D2D2D",
", c #343434",
"< c #323232",
"1 c gray20",
"2 c gray19",
"3 c gray22",
"4 c #222222",
"5 c gray9",
"6 c #1B1B1B",
"7 c #2F2F2F",
"8 c gray18",
"9 c gray14",
"0 c #414141",
"q c gray4",
"w c gray27",
"e c #151515",
"r c #2A2A2A",
"t c gray13",
"y c #232323",
"u c #444444",
"i c gray6",
"p c gray17",
"a c #464646",
"s c #1E1E1E",
"d c #181818",
"f c gray11",
"g c #434343",
"h c #0B0B0B",
"j c gray26",
"k c gray29",
"l c #0C0C0C",
"z c gray16",
"x c #111111",
"c c #202020",
"v c #282828",
"b c gray5",
"n c #131313",
"m c gray15",
"M c gray3",
"N c #252525",
"B c #0E0E0E",
"V c #101010",
"C c gray7",
"Z c #1D1D1D",
"A c gray10",
"S c #161616",
"D c gray8",
"F c #222223",
"G c #212122",
"H c white",
/* pixels */
" ..XoO+O@#O$X%$%%&@##O+%O++##O@+#$*+OX@%OO%OOX&%%$%X$O#@O+OoX.. ",
"=-;:>,<,<: : 12,,o&X3%33&&&#<&X&31:1<oo3&:&$::o,,21 : :<,<,>:;-=",
"4o56,$<X2: %,: 2,7,+%,$o$, : ,:&<o<81<22 :12:&7,2 :,% :2X<$,65o4",
"980q:77>1&>3<,333&$<%:+o$3& 1,1:2&:,o%o&2,,<&&&333,<3>&1>77:q089",
"=9we6218 <ro<<<$ ,32oo&,o,+&o3 :111$><%,8,17 %, $<<<or< 8126ew9=",
"tyoui7837<,771<&1:$<:21:o11:o,1%o<721>11p,2172:1&<177,<7387iuoyt",
"=y2asd 28<><$&8<:&<o,  3&,$%#,3$%&8o1&%  ,&X$1&:<8&$<><82 dsa2y=",
"f47&gh2.1.<,::72oo:O ,>XX *$$13j,:,, <oo +8&: oo27::,<.1.2hg&74f",
"=y<3a;d1:8 271 87<21,oX&X<+X33<X%XX:+X&X%&oo: <78 172 8:1d;a3<y=",
"t4.:$kl>8<p181,2.>:,&2<1 oo&&XXO0O1O%%3oO,o1 :>.2,181p<8>lk$:.4t",
"4yz>2+;x>z7z8778p7$  :11$$:33+&X@$&$OO,1:,218:7p8778z7z>x;+2>zy4",
"c4v2.rub<7pz7817&7,,<%<:2&&$&*33X:,Xo1133$1<,o7&7187zp7<bur.2v4c",
"s4=rr8O;n>p8z81r-.33,+$%o&%0$1o&&X&31&18<..7>>.-r18z8p>n;O8rr=4s",
"44mpzz.wMs994mt=ssvp2pv7v..r.8pprrr7mpNmv9-4yyss=tm499sMw.zzpm44",
"c4y-zyz1BqllBbVlqqChiVlbibBlBBBiibiblhqBqlbqhbqqlVbBllqB1zyz-y4c",
"scmzzvmv&%3jw3,O0&33%X+:$$O33O$0jOXO$00+%+O3X,&0O,3wj3%&vmvzzmcs",
"=sNc9Nz2O &<,:71:<<++:,&2::,7:,%o&,7>72.zr.rv><:17:,<& O2zN9cNs=",
"fZNcys-pd>o8&22: r.:77z.& 71.1<7,78212z8pyz.>vr :22&8o>dp-sycNZf",
"f=4yc9N7yp822 p81r2N.z>8.8v:>>m87.r>z>><r7-8.-r18p 228py7N9cy4=f",
"=tN-4Nyv4<o8 :7-7p<-8.>z>.z2..mp<>78.2r1<,1>.8p7-7: 8o<4vyN4-Nt=",
"ftN9yNN942>>z8pm.2r-pv:7 r81rpp<177 .<8 ,72 o 2.mp8z>>249NNy9Ntf",
"=ttysyvsy.7-o1 7vrr8282:71>vp2872-p,8< 2172 8>rv7 1o-7.ysvysytt=",
"f==4myrc.r>or2r>>8pr1o12 7>m>..8<78r-7r7,:7rv 8>>r2ro>r.crym4==f",
"ZcsAs4mSrr8.rrzz p .7 8z2>7-z ,:z8.rr>2221p.>7p zzrr.8rrSm4sAscZ",
"6ccsy=-=.p> .rm.vrp1p.v-81 8r1p78>7r7.7r8p-z88rv.mr. >p.=-=yscc6",
"Zsf6=44srv>8p8zzm8r,p2pv7.<r8r8vr888z8<.>,>.>28mzz8p8>vrs44=6fsZ",
"Zsc4stc;rzvr>72z>mz21 :. <8>1zpz8987z,88p 2o> m>z27>rvzr;cts4csZ",
"6Z4c4ms6 .p>7827rr :1, .>v778<p-.-88z.2>v8 >22rr7287>p. 6sm4c4Z6",
";Zc4c-A=pr.87-28-2 17  2777>>rNN2>. z-.> >.8pp2-82-78.rp=A-c4cZ;",
"sZsc6mdN82v>v 7.8r:>p827:p<8v-p-8pp.72r>1r7p,-r8.7 v>v28Ndm6csZs",
";6ycm-c-p7<2ro<8 <2.p8zz 7 rz.-p->2881:<8,7>  < 8<or2<7p-c-mcy6;",
"dsyc=7Z8.2<<z2278828r<v2 <p.p9p>vrp.7.78p<r<,>88722z<<2.8Z7=cysd",
";Z44=.=<<2.& 2,<,8 1<:r>z>z7>v.m8><:7>8 p 77.>8,<,2 &.2<<=.=44Z;",
"6syt9z=.7  77828<<z1<7r8z>r7..<.>>-7:,2288771%<<82877  7.=z9tys6",
"Af9=9cyp .p27o7rz.p<:z717882.7<88v7 >7<>7vp2p1.zr7o72p. pyc9=9fA",
"dZ=4vsv:   277.p.82 8718 27.2 .888.2,,782,p8>,8.p.772   :vsv4=Zd",
"fZty8yp,2>2<< 2<>r81r2:p1pz>7.7 <  <:81788.,1 r><2 <<2>2,py8ytZf",
"664cp6 8 ,1 : ,1rz.r7.>p pzr2.7 ,1, ,<&1<,8p2>zr1, : 1, 8 6pc466",
"AZc=8; .2p2,>88<277p-rv.7>N> 8> 27:2v21 2<777 72<88>,2p2. ;8=cZA",
"5ZctrZ2,8p  8 7o2>8vyo2  >pvrrz>p>,$X> 2<7 77 >2o7 8  p8,2ZrtcZ5",
"S6sz-y> . 88p <,<7.pr< r 78 7>v2.7<:o><,1>7:<77<,< p88 . >y-zs6S",
";ZsvcN&&7:p o77287>< 7p:2.1,--71:7 18>1$17:>p178277o p:7&&NcvsZ;",
"6f4rNN>8Xp77po,<<78v. r>89:22r- 1>o&:,:O2 %,v77<<,op77pX8>NNr4f6",
"ffZ24z2,<.o222$Oo22p.722>r>.->8.,7Oo2%$: 8.v <2oO$222o.<,2z42Zff",
"AZ=rf>28.,73o7<2,m 72,:1288 r:72<<ozp< pm2>pr<m,2<7o37,.82>fr=ZA",
";ccms,&prz,>11.2<<2<8<78pr><-.7v,2<8<  8.ppzr1<<2.11>,zrp&,smcc;",
"Acv4t 31 8:r<8>p88r<8v 82vp..22zp27 7:oz78<v.v88p>8<r:8 13 t4vcA",
";Zrcm...X>pO7r>8,2z2><77<2 13,>v,12> : 7rm>vpr2,8>r7Op>X...mcrZ;",
"SZ>ccp78p2ro< 8>o:>2:,8 7,> ><-p28-1>7 278v8.>:o>8 <or2p87pcc>ZS",
"66vZ9rp:8>2. :2p2z,,7712v18-1o2r1&pv72.>>tz>p7z2p2: .2>8:pr9Zv66",
"Ac>;mr.8>12.p<o87.r<& 87p >2,7>27<zr718.>>7mzp.78o<p.21>8.rm;>cA",
";c>drzr82778p2p7.8>7v<3>881  871p2.r1o.p2.pvzv8.7p2p87728rzrd>c;",
"dZ-5v.87.8p <2vpN  <8>711: 7:7 :.8.7p2-7 r<<r8 Npv2< p8.78.v5-Zd",
"6sscr..>.8v., 7 >-.1 .,<71172,::7vv>>>2,v: >>,-> 7 ,.v8.>..rcss6",
"S6;crrppz28rm><78 :,221<< -817>..v..782>:7, zm 87<>mr82zpprrc;6S",
"5ZZ=rrmNy7>7mpNrr,7,2<2,8< <128.o<-8 v2p1,<z .,rrNpm7>7yNmrr=ZZ5",
"Sc59pN.zpmNvrzm2.7>218<>1<2,.z-77787z>p 7z88z.7.2mzrvNmpz.Np95cS",
"5cS9N.-r-9Nzzyy.p7zp>><v8. > 7<p7 .v82p7r28zz77p.yyzzN9-r-.N9Sc5",
"5N=-pzp.rrvzmv9..7m..-.r>z2>zp>27r7r >>.82>8z>7..9vmzvrr.pzp-=N5",
"Z9Szz>zvrrmmmm-vm-7..8..p.>>prp728z..8pp7p9vz8-mv-mmmmrrvz>zzS9Z",
"4y=98vvvmytpmvzm.z822.87vv>-pvrp7zp7rrym.vN.z z.mzvmptymvvv89=y4",
"cZAmm4NNN9t9rp.--9rpp7vvp> 81yrrrrrrm>rrtyvz -9--.pr9t9NNN4mmAZc",
"d=vyvy4NN9NNN-vvp-p-vp>..>2Nvz<zm>NNy9y88N><.9-pvv-NNN9NN4yvyv=d",
"DAFcs4t=Gscttstcyt=ctyNtc4Z4ctyy=ctcccctcZ4=cttyctsttcsG=t4scFAD"
};
