/* XPM */
static char *result[] = {
/* columns rows colors chars-per-pixel */
"64 64 96 2 ",
"   c #040101",
".  c #0D0503",
"X  c #0E0905",
"o  c #0E0708",
"O  c #0D0908",
"+  c #110602",
"@  c #130B05",
"#  c #190F06",
"$  c #140D0A",
"%  c #1A0F0B",
"&  c #171006",
"*  c #1D1307",
"=  c #16110C",
"-  c #1B130D",
";  c #1E180F",
":  c #161211",
">  c #1D1612",
",  c #1E1913",
"<  c #201107",
"1  c #22160D",
"2  c #231A0E",
"3  c #291B0E",
"4  c #311F0F",
"5  c #211711",
"6  c #241C14",
"7  c #2A1E14",
"8  c #251E19",
"9  c #291F19",
"0  c #301F11",
"q  c #262116",
"w  c #2B2216",
"e  c #26211A",
"r  c #2C231B",
"t  c #2D281D",
"y  c #322415",
"u  c #352917",
"i  c #3D2B15",
"p  c #31261B",
"a  c #39261A",
"s  c #342A1D",
"d  c #3A2C1D",
"f  c #37301F",
"g  c #3D311E",
"h  c #262120",
"j  c #2E2521",
"k  c #2E2921",
"l  c #312722",
"z  c #342C22",
"x  c #3A2E22",
"c  c #372E29",
"v  c #3B2F28",
"b  c #373024",
"n  c #3C3124",
"m  c #353229",
"M  c #3D3429",
"N  c #3E382B",
"B  c #3F3931",
"V  c #412E1D",
"C  c #42301E",
"Z  c #412F21",
"A  c #433324",
"S  c #493624",
"D  c #453926",
"F  c #4B3A26",
"G  c #42362A",
"H  c #493729",
"J  c #443A2C",
"K  c #4B3C2C",
"L  c #503B27",
"P  c #513E2B",
"I  c #443630",
"U  c #453D31",
"Y  c #4B3E31",
"T  c #4D412E",
"R  c #53412E",
"E  c #58422E",
"W  c #474134",
"Q  c #4D4233",
"!  c #4E453A",
"~  c #534434",
"^  c #594634",
"/  c #544937",
"(  c #5A4935",
")  c #514639",
"_  c #55493A",
"`  c #5B4C3B",
"'  c #5E513C",
"]  c #614E3B",
"[  c #62513C",
"{  c #64583E",
"}  c #5A4E40",
"|  c #5F5244",
" . c #604F42",
".. c #635442",
"X. c #695843",
"o. c #756651",
/* pixels */
"Y U n n z 8 > e 8 5 6 > > 8 r z j 8 q m G M k B > j j h M m v x x v t l n N G J M z % @ o o - B W s z G Y 8 , G N J x t s s ! / ",
"J _ N M z t j e j z c c 9 5 6 z z l s v v j j j j , 8 9 k k t t x n G B v l z z G N v 5 p r t n ; 6 e n U G v W M N Q ! J W | I ",
"J J N M M n v z n n m l j v l l z z z z c z h j t 8 j z j k n v x x n z z l z N Y G U x M I n M J r Y G w p m N b N N m U U U W ",
"M z v G A H F P ~ A Z p p A G m x x x x l j 8 8 8 : e e 8 j e z z t s x z n z x n G N b v p q y U _ _ J M p x 2 s z q e N k z J ",
"M z z t x V Z H L  .K G ~ Z G Z H ~ ~ K z h h $ , : 8 5 9 h 5 e t q 8 8 l x d , = y w d n x A 2 @ q t d z b 7 6 p j 5 6 8 k z I ",
"l z z p y 9 0 Z H P P ~ K ^ Y x A A A D v 8 5 , : , 8 p p 8 8 5 7 8 2 5 9 q 2 r v p y x w x H A ; 2 x y d z z $ 7 9 = 6 k b z z ",
"c l z p d p H K H Z H Y K G x V S A P A V p , , , , 8 8 8 8 9 9 w 7 1 6 y 0 6 w y y p p p 7 s p 2 6 y d s p z 6 5 > : q z z z M ",
"v 8 6 p x d d Z Z Z Z A G w 7 a A d g Z d p 8 @ 8 , 5 8 7 5 5 9 9 7 5 6 7 7 3 a a y 9 w w 7 q 5 w q s w q p w 6 6 = e = 6 % 8 B ",
"p w w w g n u f Y Y Y A d p y H A A a d 7 r 5 = 5 5 8 8 8 9 8 8 p 7 7 0 y y V a 7 w 9 9 6 q 8 6 9 d d w s r q 6 7 . s 8 * 7 7 l ",
"1 2 s s M n n W _ ~ Y ~ Y d H ] F L y a u r 5 1 3 7 6 5 8 9 9 9 6 9 9 Z a V V 0 a p 6 7 , 6 6 8 7 7 7 p a q d 2 , 2 s 2 p x 1 1 ",
"p Z G n A N T T H z J H G n ~ / P ~ a s n q > 6 5 7 5 a 9 a 9 9 9 9 0 Z d S a 0 a 7 5 7 5 6 8 6 7 7 6 6 6 y s - - r n n G Y G p ",
"H Y D M A W Q Q H M J N x J G K K ( S a d 3 > - < % 7 d Z 8 7 w 9 0 a 6 g S y p 7 5 5 8 5 9 7 6 , 6 6 8 e t 2 - w q p D d K P P ",
"S P F A N N W T f n W N N n G R P P ] H u - 6 - 7 5 1 3 7 6 p p 0 x H d - u u y 5 5 5 6 8 5 5 6 , , 8 w s s % - f w n E Z K K F ",
"Z K P G D N W T A K M f M Y Q ~ R / [ P r q 8 r 7 p 7 1 $ 6 y w 3 a / g w w 3 7 8 5 5 6 8 6 5 5 8 , 6 7 s y > 2 & @ 2 D A E K A ",
"K K T A J W _ Q W g A n s J ` / T K S K x z N t 5 7 a Z - < 2 d v d G 7 7 q 8 8 8 5 8 8 9 8 3 7 6 5 s d 7 r q 7 s * @ 3 g E K Y ",
"~ ( n w n J ' ' K d T u n G / _ K a C n r t s z p 7 0 a # @ 3 3 0 y a 8 3 6 6 8 8 > 6 5 1 3 8 < - - d A 3 p z 2 A 6 2 ; @ A ] _ ",
"n J @ X w s N ~ / U Q N g f T T D u D n p w w s t N N N Q Q ~ W J W r z n d w 3 9 l a v v 5 p v w 5 5 w 5 - v r p % 1 6   . J J ",
"d 3 8 r s s s p 5 b z M J M / W f 3 u N n r b M b M x s z ) n x M p s s U W Q W Y U U Y Y ) ) ) ) H I U N I G G J s s N t 6 3 n ",
"/ / ) Y G M b z z x n 8 & 3 b n D n u G G x b t r x x m 6 x W n G s x s r 3 f G Y v a x M M A M W Y Y ! W I G J G M U Q J ) / ` ",
"x x s t t t t s s M z b d M 2 t b b s M s x 6 q z v v 6 s K J D _ n t s m T g N Y Y G G A x q x s r v M n b z 8 z v x z r z x n ",
"d s s G v x n n b x t q N M n n x N x q t x x t z z w 6 7 A d Q Q q e w N T J Q G n Y x s n x n G b n q p r t t W J 3 w W p s n ",
"6 K Y J z x z z m z w v n x x n x n e 2 t r n q n q z v s Q Y ~ W r - s W ( R s 6 y K Y J x Q K s w 7 r x p s x G x G W ~ ~ Y w ",
"1 J H M s s z r , r p n n n d r p n 6 5 5 t s K A J H K A J ~ M p J s 6 n W J A n T _ n ~ H Q G t p y N r q y a n v M n n K H 8 ",
"- y J M s r r q 6 8 s w 2 w s e t s , q - 5 p M x G N Y n x s p s n x - J W T ' K G T a x N A y w 6 p J A q v G x 7 p M A H w , ",
"5 7 s n v w e e w w 9 k e r e 8 r j , , = p n w x s b r - r p w q 7 t 6 _ F / ~ H p s u K n r b v x s g A Z H A g x G H v p 7 9 ",
"w p w t p w 9 l 9 w 8 j e 8 r 8 8 8 8 : : M n G n x y s > z v z s s z 6 W T K ~ F x J n s y t y 7 z s d x Z Y A d d A w 8 e p p ",
"Y z p z p t r j > e z 8 > 8 8 5 8 e j > > t w t e z w t 9 p z e 6 w s r b A K / K F n z ; 6 q 6 y s 8 s a J G w y K s d z r z ! ",
"U G x n x p e r = 8 8 8 , e 8 6 5 r e , , e l s e t t 6 r r p 6 5 e e p x n K H D M H p = p 7 y s w d w n A A J n J s d H x J Q ",
"J M G x x p 6 j , , 8 , , e 8 6 8 8 8 > > l e t w 8 w t r r 8 5 8 z 1 8 t r d q y u y 7 5 J G N r 7 A n w H ~ H s u n w n A n W ",
"K 8 z s 8 9 8 r , : e : = 8 8 8 8 > > , , j 8 6 6 6 8 e 9 8 5 6 8 9 = X n t M p x q q z s r 6 - 2 q n D r J W K s n n y p v 8 ) ",
"J b 2 7 6 8 8 e e , r j > $ , 8 h 8 $ , e e j $ 8 8 6 p z 9 9 9 6 7 n 6 J M p b q s q G n 7 w s p g p s 3 y 7 3 g F s y 7 2 d W ",
"G d s x e e r p k z m z M c j j j l , , M z z q e r p e 9 p r v J U N M b s b n W K T G G U G M J Q s p G Q A n J ~ n q v s x K ",
"s n J m t s x v x n z x c m N m k z b k z t m m v c l c z z z v m N N z t z U m U J n t N M d z w m J ! ) Y Y c v M Y z J U b M ",
"N x v n j r v n t e z x c z B k q c N e z r n B l 8 , h j 9 q s r z 7 = e s t w z r q q b w w r t w f m M G I z r r Y J s z f J ",
"6 q s t n A K C d s G t t z 5 8 e q e e , e , , 6 > , 8 9 7 p p y 6 > > p m x p 8 8 e 8 q r 6 q s s s b p A Y Y A 5 7 p 8 t q e ",
"O q e x K H R R Y a v j G $ > 8 8 8 e 8 8 , , , 8 8 9 e w r s v t 6 e 8 9 p z e , , 8 6 , q w t q q s s p H Y ^ 9 z p 5 e e e : ",
"O , e x A D p s a S x N G 8 > 8 8 e 8 , , 8 , , 6 8 8 r z p z p 9 8 9 6 5 l r 9 8 5 q 8 , p s z r s n v 7 n ~ ~ p 6 w : 8 8 : : ",
": 6 r n K P S u s A p N Y $ = e 8 8 8 8 > , , , , 5 9 p p l s e w 6 6 6 % z k e 9 8 6 8 6 t s y s x p M _ A ] / > 8 e e 5 8 > , ",
"= > r n F P F S d d p v s = $ z 8 8 e h 8 , , 6 , 6 t 9 r l r w 7 9 9 9 5 j t 9 9 5 6 - , v v s p z t v G / ` / - : 8 e h 8 > > ",
"> 8 s D ^ ( _ ' ` H x y l 6 = t 6 5 8 8 , q - 6 8 s v y z s s w e y q 5 9 w e w 9 6 = $ 6 z x w 7 p p p x K ` A 8 $ > 8 j h , , ",
"6 e G / [ R R / ~ S C q 8 6 $ - 9 9 % 5 9 6 , , r f n n d w r t w e r 7 7 w w 3 p s 1 % 6 7 2 y w s s s p M } a = > > > h h > 8 ",
"e z T E T F F D P F g w 5 = $ - w z +   - 6 r x d q J ~ A w w w 5 p 7 7 w q p r y s 9 1 2 5 2 1 s * r G w v } p $ 8 5 : , 8 8 h ",
"r p H T F A S g D S A r 6 9 = - 8 n w . . 5 n n n d 0 g F d y q 2 g a d s 3 y A s a 7 o 6 J K y s g s A s a ` 8 @ e 6 = $ = : l ",
"w l M K K T S C d C n t 8 = @ . + 5 x 7 . $ ; r R R f u A / R K A d J A K A g J Z 7 .   - T A d s s G ~ A q ) w % % 5 $ : 6 r 9 ",
"q d n F ^ ' T R C A x y z 7 $ @ + % 1 - $ + @ . w ( ( E K K S ( F A T K C T K K A d %   @ G ~ E T u A H g d J s - 8 , @ q p s r ",
"2 s s g R E F F a g s p r v s y 3 < 3 1 - # # < + 1 d y V S y d d g y u u y u C H A 0 + + @ w w 1 u y y q y N z 5 r z = & M w 2 ",
"_ _ J x u d d F A C 7 z J 1 y N A H v a K v J / / p 3 3 4 4 d g y y A D F / ' E ] ^  ./ T [ / ~ A K | U n n t n v m J Q J ~ ` ..",
"Q ~ J N M J n n K x x J n n J N U W J Y Y Y G K { ' X.X.R T T / ( K ( _ ` N Q o.` / ~ ' [ ' / / Q N U M v m N m I z 8 U ) Q Q / ",
"A J N x r r w s x t n z 6 v x y J M r w N Q W T g T ( ' T Q n N ~ W Q n s N b U q , z d N n v n e q k k j k e r t , q t z J n A ",
"n n J x r 5 q 6 q 6 e 8 z p p y s q x s d w N g p D J g w A n f s N A 5 X q r q 6 q r 8 r z p v q O e j 8 8 8 k t r , , x | T W ",
"n d G M l q 6 w r - > z v v z z n x n z s q t t M d d w 3 A D s f H Y w ; - 6 y 5 d 1 @ = 7 9 z r : = , , 5 z z e t e q Q ` ( ~ ",
"x 8 y z w w 6 w r 6 - q t z p p s d v p p ; = b Q G g y u g s s w _ ..r n s X 5 2 8 7 1 6 6 @ $ z j : : $ > j p r : t z H [ X.R ",
"x 5 8 w e y q e 5 = = - e r z t r t z z x t = - w n K u d 6 ; w n K Q q v G r , t z r 1 8 z 6 = . - , , = , x x s 7 x r H X.` H ",
"r 8 7 6 z 7 8 r 8 6 = - y r z t r j 6 w e q 6 8 G J J M b u y 6 J / H y p z m n N m v r e r 8 8 8 > & , q s d q w w x a K ..Y N ",
"w q q = v w = + + * t s s M v v z z z ; 2 6 q n n n A y s d G r G Q d q 5 e > 8 r j z c k c 7 8 - e - - 6 C y y d s n p P _ G A ",
"d 6 q q x 6 p s r = X - p N s x s x r 3 p 6 w s s s n t s p G s J J x 7   6 > 8 h 8 j 8 e k r r ; l r - * s d A y d J x K ..Z 8 ",
"y - , s x s x A s z , q n N d n w q y y A s f 2 g f b s x x z y / J z 7   $ > , 9 , , 8 e c e 7 9 j 8 , q V ^ L - w y w s ` w 6 ",
", - q s d n p a t p 2 2 n A g r q w y n n d n u s s t n 7 v A x H J x 6 o   > , 6 1 : r q k z w 6 7 7 2 d V E L # @ < 7 K H   6 ",
"$ = s g d y s 1 q w s & g D s w 1 s w K F n d 1 s s s p w d n s s b t : O . o 8 q s s t 9 p t w 6 p a u d V i V S F E F E K @ : ",
"= 1 2 s d d w 1 d v w & y d 3 6 @ q q p y 2 a 7 2 & * - + 2 r s n d s $ O o o p d d w 3 w l e x d G K S C L C V a A V E P y > : ",
"% - 7 s d y = w 6 d p = s T g 3 + & n u d 3 g s u q - % = y t n v r z 6 $ = : n n G S D Z Z 9 P Z A A L E S V A a g C ~ H 8 = = ",
"$ = 7 p G d * n d a q X - g T d . = d n r 3 2 w T J n 1 w - 9 v v 6 5 > o : 6 7 y y s F G Z Z K H P L ^ ( E V S V C S u x 7 $ = ",
"1 - M y G n w p w 1 w & @ @ ; 1 w ; X b M w r J ..W ! G M 8 + j w p - : . 2 y w z w 1 Z H 0 d y V V C C V C C K i C K @ s H - 6 ",
"- 6 ~ m z J / W Q J s n N s d n d s N b D n N } ) N B U B M v c e z e $ O 7 w q 7 M a 9 I 9 0 G a d F H d g C A S J Y s m / w 6 "
};
