/* XPM */
static char *result[] = {
/* columns rows colors chars-per-pixel */
"64 64 33 1 ",
"  c #2E2925",
". c #312C26",
"X c #342F29",
"o c #37312A",
"O c #3A342D",
"+ c #3E382F",
"@ c #3D3731",
"# c #3F3830",
"$ c #433D33",
"% c #474034",
"& c #494237",
"* c #4D463A",
"= c #4F483B",
"- c #524B3E",
"; c #564E41",
": c #584F41",
"> c #575042",
", c #5B5344",
"< c #5E5748",
"1 c #5F5849",
"2 c #605748",
"3 c #645C4C",
"4 c #685F4E",
"5 c #66604F",
"6 c #69604E",
"7 c #676051",
"8 c #6B6252",
"9 c #6F6758",
"0 c #716755",
"q c #746A56",
"w c #786D55",
"e c #706759",
"r c #726959",
/* pixels */
"wqqqq0qqqww00qwqqq*---;;*;;;;*=;;=;*=;;>;>--;wqqqqqqwqqq0wqqqqq=",
"09884865663553687:O;;-,,;;;*;;*;;;==;;>>=-->-08986865563336684>o",
"086333622,<23232,*X*&**&&&&#$$$$%$$$$&$@$$&&+0863336<3,<22232>=o",
"q64wqqqqqqqqqq0qqq*33<3<13311,,,<11,1<<<,-,<,w0qwq0qqqwq0wqq=<-o",
"06609864656663363,X;;-*-;;,;,*-<=;;;;>;;**---09866665563346-o<=o",
"q640864336<2,<<1,=O:-*=;;;;;;;,4<;==*&&;-*->-0863336<2,<232-o<-o",
"0660644213,>3323,*X$$$$$$$@@#;84<>&$#+#%&$$&$q644123,>3323,=X,&X",
"q66q662w0qwqwqqqwq$<2<:,,,,,,083<,#>>>>>>---,wqwqqqqqwqq$3-*X,&X",
"q63q442q0866666442X---;:--->-q83<>$,--=-:-==-08884664442X3-=o--o",
"w6308620863336<22*X$$&$@$$&&4q73>,$,$%$$%$%$$0863333232&X2,*o:*o",
"q640662q65w0qqqqqw-:;*;;---q6w47>,+>$----=-=-wqwqqqqq-:-X,-*o:*X",
"q64064-06809976642$--;=;---q4q77,>$,$*******-q8084642$:&X2,*o-*o",
"066q64<q440663330,$---=->;-q7q74<>$-$=-******w663336,+--X2--X--X",
"q84q732066q656334-O-2--=:--q7q84<,$2$--****-*w646333-$-&X2-&.-&.",
"q83q44,q66066633,-$-=-=--,-w6q942,$-$****=***q46434,-$-&X,--X--.",
"q96q86<084q443232=O-*-,-->>w8082>,$-$%%*****-q34223<=$-&.,-&.-&.",
"q8<q62-q62q66322--$*--::;>;q8q84,,$>#=====**=q8733<,=@-% --% -%.",
"<<-q>-*q3-q43-2---$,---:;;-q9q74<-$>$==&==*=*071-,<-=#=%o==$o=%o",
"<$$2$$$<$$-*==**-*O--,-->--q8e72<-+>#*&=*=&&&;=***==$o$O $$O %O ",
",>$2<,+>-$=*&*=*--------;;-r7e7222$,+&===-=&*=**--*->-033961<06<",
"-2$4<,$--$****&-------,-;=-95974<2$-#==&*=;&;*==----=-941973,971",
",-+3<>$<-O--%=&-=------->-=r3973,-$2#--;--;;;*=*=->---96,973,973",
",2$2<,+--$=***=-----=*wwr99979722-$-+0009@;-*&*==*----r22933,973",
"3-$3>-$,-$===&&---=***w0888789332-$-6884-O=;;==;------r<1943,933",
"22$2,-$2-O-*=*-&****-=06qqqq0r63,-wwqqw*-O->--=-*;;;=;r1<r33,r73",
"2-$22,$2-$--=----**==*w600884863263483;O-O--====&;=;;;r31963,973",
"2-$-2-$2-o==--==-&*=-*q80865346233222:*o=o>==--=;;==;=r4>r61>942",
",-$2--$--+wqqqqqwwwwq0w7066wqqqq0qwq*<=O-or9rrr099r899r3-r64>983",
"2-$---$-*33333883364677706609866666-#<*o-673886336313331,062>932",
"2,$,,,-wwwqqqwqqqqqwqqqqq640863333<>$,-<99990q99999998990831>042",
"22$,,-664333488355558876366q64,<<<2>@:>753736583336333631331>032",
"2-$-,623,222222426553232236q68<,<2>-@,<2,<11,>>,><,<,>>-->,<>052",
":;#,>--=;;;>;-;>;;>=-===-;2q771,42,-$>--**-;-=-=-=;-=======->961",
"<;$;;-;=>>;;;;;;&;>;;==;;36077,363,-+-=>;=;;;**;---=======-1-r11",
",:#,;-@***&*&$$$##%%$%$$47406,>>2<,=+=&o$$$$$$$$%$$$$$$$%><<,r<<",
",;$,-=@>;,>;;;=;;;=>>&=-q83q<:;>,>,=+-&o==;:-*-;--*===&=>r1>-r5-",
",;$:==O>*o*&&&$$$@$%$$$7q87*******-%O-*.=O$$$%$$$%$%$$$1>r3<=r6,",
",;+,*=O,& =*=-==;;;;;=97q82-;;;*;==---%.-X*=;&=*&*=->-01>943-r43",
",-+;>;o;=X*;==--;;=*-=98q2---**<>==-=-$X*o*;=*=*&&=&*=03,94<-r3<",
",-@,>=o<*o*;-=--*&;;==942$$$$$2,--O$$$o *X**==*=*&&=%&93,r2,,r1,",
"<-+::-o:=o---&--**&;;;7;;;*;=r<,2-o-**---X**&**===&=$%94>r<,>q1<",
",-O,,-O-=o-&--&-*;;;;&&@$@$$2r<,>-o-o$$$$o&*&===&&&=&%92>r<,-r<,",
";-o,--o,-o==&---*;*;;;;;;;,r<r<,-=o-o---=--*&=&*&*&&=%04>r1<>r1,",
";-+:--o,*o*==-*&*;;&@&;&*-;r<e1<-&.=$-,----&=*&*&**%%%r6;9<;;9<>",
"--+>>-.--o=====;;;;&;&;;;--r203-,-.*.-------&&&*&=*&&&r6-02<,92,",
"wqqwqqwwqqw0qqr99e&;;;;&-;;92q3--=O-o-----**-wqwrrqqq=qq$qqq*qq=",
"0880988098r8987751@;;&&;;--92r32--o*O=------&q8865552#6<X44>o4>o",
"08606640860764157,X;;;;&-;>r204-,=o-O-**-->--q863355,#1*o2>-o--o",
"q64q644q64q646334-#->;--;;;9202-,=o=o==*->-*-0646533-$-=o32*o2-o",
"q660662066066433,;#-=>-;;;;9302-,-o=o=;;;-===067626--+,=X3-*.2*o",
"q66q6420640643332-O;->;-;;;92032<=o=o;>=-=*--0643232-+-*X2-=o2=O",
"q640662q86q6622,>-O;-=;;;-=9303,<-o=o&==*=**%08632<,=+=*.2,-o-*.",
"066q642q66062-<>,=#==;>>-;;9293-;*X-o==&=&===q61-<-<=$-*o2-=.2*.",
"q63q64-q65-===&-=%o==;;-**-93e32>*X&o&=%*%=&&-==*===$O-%.3-*o-=o",
"q64q64<q62,==----%.00qqqrr992r4,--X-o90009000q6<-===---%.3--o2*o",
"q63q632q2>*=&---=$o887478877403,:*X*375576886q2;-=*=---%o2**.-*.",
"046q77,,$$%$$$$$%O ->>,,>>>,-04,-=X;-:-;;===>,$$%$$%%%%+ 2--o--o",
"q86q771>>>,->>,>-& wqwqqqqqrq04,:=:eerr099099q88,>>>,---,--%.-*o",
"q86071;=--====>--%.677776487877<::64433473473q81-==-==-=---%.**X",
"084r>====*=*&=-==$O666312142<<<3-434<<<<<,<<,r>====&*=&*---$o-*X",
"q94<@$$@#%%#%$$$%O ----->>>;;;=;>;---;,>;;&==<%#%$$$%$$$$$$+ -%.",
"q8<-;;;=;=====>--% wqqqrqqqqqqqqqqqqerrerr9rrr7<=;;===-====---%.",
"<<--;*===&&=*====$o53463784373888747784778877<<;=====*=&**=-*-$o",
"<$%$%$$$%#%%#$%$%o ,<<322233444232<43<,<33424<$%%%$$$$$$$$$$$$O "
};
