/* XPM */
static char *result[] = {
/* columns rows colors chars-per-pixel */
"64 64 171 2 ",
"   c #09180F",
".  c #080F18",
"X  c #0F1818",
"o  c #0F2118",
"O  c #0F2121",
"+  c #213030",
"@  c #183030",
"#  c #182828",
"$  c #091821",
"%  c #082121",
"&  c #001821",
"*  c #000F18",
"=  c #000F0F",
"-  c #0E2B28",
";  c #182821",
":  c #152128",
">  c #0C2821",
",  c #001818",
"<  c #002319",
"1  c black",
"2  c #302800",
"3  c #393000",
"4  c #282800",
"5  c #212100",
"6  c #3F3900",
"7  c #303C00",
"8  c #8CB500",
"9  c #504100",
"0  c #413000",
"q  c #392800",
"w  c #8DBD00",
"e  c #302100",
"r  c #003600",
"t  c #00AD00",
"y  c #002100",
"u  c #00BC00",
"i  c #002800",
"p  c #009C00",
"a  c #081818",
"s  c #182121",
"d  c #212828",
"f  c #283939",
"g  c gray68",
"h  c #939C9C",
"j  c #A5ADA5",
"k  c #A5A5A5",
"l  c #ADADA5",
"z  c #ADA5A5",
"x  c #495959",
"c  c #9BA59C",
"v  c #939C93",
"b  c gray61",
"n  c #939393",
"m  c #838C8C",
"M  c #7B8383",
"N  c #6A7272",
"B  c #636A6A",
"V  c #6A726A",
"C  c #596363",
"Z  c #7B8C8C",
"A  c #8C9393",
"S  c #8C938C",
"D  c #637272",
"F  c #727B7B",
"G  c #6A7B7B",
"H  c #7B7B7B",
"J  c #7B837B",
"K  c #727B72",
"L  c #838383",
"P  c #83837B",
"I  c #727272",
"U  c #63726A",
"Y  c #838C83",
"T  c #83938C",
"R  c #728383",
"E  c #515959",
"W  c gray55",
"Q  c #636A72",
"!  c #7B7B8C",
"~  c #7B729C",
"^  c #7B7283",
"/  c #59636A",
"(  c #839393",
")  c #72837B",
"_  c #837B93",
"`  c #EFE7FF",
"'  c #7B7B93",
"]  c #6A6A7B",
"[  c #515963",
"{  c #7B8C83",
"}  c #595963",
"|  c #596359",
" . c #394941",
".. c #7B8C93",
"X. c #6A6383",
"o. c #636A7B",
"O. c #516363",
"+. c #414949",
"@. c #7B7B83",
"#. c #939CA5",
"$. c #495151",
"%. c #515151",
"&. c #7B7B72",
"*. c #495049",
"=. c #515951",
"-. c #414941",
";. c #838C93",
":. c #93939C",
">. c #596A6A",
",. c #636A63",
"<. c #72726A",
"1. c #516359",
"2. c #415149",
"3. c #727B83",
"4. c #6A6A6A",
"5. c #6A6A63",
"6. c #6A7B72",
"7. c #597272",
"8. c #394141",
"9. c gray39",
"0. c #8C8C83",
"q. c #5F5850",
"w. c #434141",
"e. c #636359",
"r. c #3D4137",
"t. c #303939",
"y. c #6A837B",
"u. c #283030",
"i. c #596A63",
"p. c #304139",
"a. c #637B7B",
"s. c #495963",
"d. c #63727B",
"f. c #51636A",
"g. c #495951",
"h. c #516A6A",
"j. c #394949",
"k. c gray35",
"l. c #415151",
"z. c #395149",
"x. c #496359",
"c. c #596A72",
"v. c #415959",
"b. c #304149",
"n. c #395151",
"m. c #415951",
"M. c #415159",
"N. c #394951",
"B. c #495159",
"V. c #496363",
"C. c #6C727B",
"Z. c #415963",
"A. c #304949",
"S. c #304141",
"D. c #303730",
"F. c #3B3634",
"G. c #49636A",
"H. c #182830",
"J. c #516A72",
"K. c #637B72",
"L. c #395159",
"P. c #283D45",
"I. c #6A6A72",
"U. c #304C51",
"Y. c #375959",
"T. c #243930",
"R. c #415163",
"E. c #49596A",
"W. c #516372",
"Q. c #414939",
"!. c white",
/* pixels */
"  .   X X o O + @ O O # $ % % & * & % & % % & * = % & % # - - # & @ ; - # @ @ & : > % , * & & < < , & % & % , , * * * * , , & % ",
"1 1 1 1 1 1 1 1 1 1 1 1 1 1 1 1 1 1 1 1 1 1 1 1 1 1 1 1 1 1 1 1 1 1 1 1 1 1 1 1 1 1 1 1 1 1 1 1 1 1 1 1 1 1 1 1 1 1 1 1 1 1 1 1 ",
"1 1 1 1 1 1 1 1 1 1 1 1 1 1 1 1 1 1 1 1 1 1 1 1 1 1 1 1 1 1 1 1 1 1 1 1 1 1 1 1 1 1 1 1 1 1 1 1 1 1 1 1 1 1 1 1 1 1 1 1 1 1 1 1 ",
"1 1 2 3 4 1 5 6 2 1 7 8 9 1 7 8 9 1 2 6 2 1 2 6 2 1 1 2 0 4 1 4 6 q 1 6 w 9 1 q 0 4 1 4 0 e 1 7 w 9 1 3 w 9 1 e 0 e 1 e 0 e 1 1 ",
"1 1 1 1 1 1 1 1 1 1 1 1 1 1 1 1 1 1 1 1 1 1 1 1 1 1 1 1 1 1 1 1 1 1 1 1 1 1 1 1 1 1 1 1 1 1 1 1 1 1 1 1 1 1 1 1 1 1 1 1 1 1 1 1 ",
"1 1 1 1 1 1 1 1 1 1 1 1 1 1 1 1 1 1 1 1 1 1 1 1 1 1 1 1 1 1 1 1 1 1 1 1 1 1 1 1 1 1 1 1 1 1 1 1 1 1 1 1 1 1 1 1 1 1 1 1 1 1 1 1 ",
"1 1 r t y 1 1 1 1 1 y u y 1 1 1 1 1 1 1 1 1 1 1 1 1 1 r u y 1 1 1 1 1 y u i 1 r u i 1 1 1 1 1 y u y 1 1 1 1 1 1 1 1 1 1 1 1 1 1 ",
"1 1 1 1 1 1 1 1 1 1 1 1 1 1 1 1 1 1 1 1 1 1 1 1 1 1 1 1 1 1 1 1 1 1 1 1 1 1 1 1 1 1 1 1 1 1 1 1 1 1 1 1 1 1 1 1 1 1 1 1 1 1 1 1 ",
"1 1 1 1 1 1 1 1 1 1 1 1 1 1 1 1 1 1 1 1 1 1 1 1 1 1 1 1 1 1 1 1 1 1 1 1 1 1 1 1 1 1 1 1 1 1 1 1 1 1 1 1 1 1 1 1 1 1 1 1 1 1 1 1 ",
"1 1 i t i 1 1 1 1 1 1 1 1 1 i t i 1 i t i 1 i t i 1 1 i t y 1 1 1 1 1 1 1 1 1 i t i 1 1 1 1 1 1 1 1 1 y t y 1 i t y 1 y t y 1 1 ",
"1 1 1 1 1 1 1 1 1 1 1 1 1 1 1 1 1 1 1 1 1 1 1 1 1 1 1 1 1 1 1 1 1 1 1 1 1 1 1 1 1 1 1 1 1 1 1 1 1 1 1 1 1 1 1 1 1 1 1 1 1 1 1 1 ",
"1 1 1 1 1 1 1 1 1 1 1 1 1 1 1 1 1 1 1 1 1 1 1 1 1 1 1 1 1 1 1 1 1 1 1 1 1 1 1 1 1 1 1 1 1 1 1 1 1 1 1 1 1 1 1 1 1 1 1 1 1 1 1 1 ",
"1 1 e 0 4 1 5 0 2 1 7 w 9 1 3 w 9 1 e 0 2 1 e 0 2 1 1 q 0 5 1 4 6 q 1 7 w 9 1 q 6 4 1 4 0 e 1 7 w 9 1 3 w 9 1 e 6 e 1 e 0 e 1 1 ",
"1 1 1 1 1 1 1 1 1 1 1 1 1 1 1 1 1 1 1 1 1 1 1 1 1 1 1 1 1 1 1 1 1 1 1 1 1 1 1 1 1 1 1 1 1 1 1 1 1 1 1 1 1 1 1 1 1 1 1 1 1 1 1 1 ",
"1 1 1 1 1 1 1 1 1 1 1 1 1 1 1 1 1 1 1 1 1 1 1 1 1 1 1 1 1 1 1 1 1 1 1 1 1 1 1 1 1 1 1 1 1 1 1 1 1 1 1 1 1 1 1 1 1 1 1 1 1 1 1 1 ",
"1 1 r u y 1 1 1 1 1 y u y 1 1 1 1 1 1 1 1 1 1 1 1 1 1 r u y 1 1 1 1 1 y u i 1 r u i 1 1 1 1 1 i u y 1 1 1 1 1 1 1 1 1 1 1 1 1 1 ",
"1 1 1 1 1 1 1 1 1 1 1 1 1 1 1 1 1 1 1 1 1 1 1 1 1 1 1 1 1 1 1 1 1 1 1 1 1 1 1 1 1 1 1 1 1 1 1 1 1 1 1 1 1 1 1 1 1 1 1 1 1 1 1 1 ",
"1 1 1 1 1 1 1 1 1 1 1 1 1 1 1 1 1 1 1 1 1 1 1 1 1 1 1 1 1 1 1 1 1 1 1 1 1 1 1 1 1 1 1 1 1 1 1 1 1 1 1 1 1 1 1 1 1 1 1 1 1 1 1 1 ",
"1 1 y t y 1 1 1 1 1 1 1 1 1 y t y 1 y t y 1 y t y 1 1 i t y 1 1 1 1 1 1 1 1 1 i t i 1 1 1 1 1 1 1 1 1 y t y 1 y t y 1 y t y 1 1 ",
"1 1 1 1 1 1 1 1 1 1 1 1 1 1 1 1 1 1 1 1 1 1 1 1 1 1 1 1 1 1 1 1 1 1 1 1 1 1 1 1 1 1 1 1 1 1 1 1 1 1 1 1 1 1 1 1 1 1 1 1 1 1 1 1 ",
"1 1 1 1 1 1 1 1 1 1 1 1 1 1 1 1 1 1 1 1 1 1 1 1 1 1 1 1 1 1 1 1 1 1 1 1 1 1 1 1 1 1 1 1 1 1 1 1 1 1 1 1 1 1 1 1 1 1 1 1 1 1 1 1 ",
"1 1 e 0 4 1 4 0 e 1 7 w 9 1 6 w 9 1 q 0 q 1 q 0 e 1 1 q 6 4 1 4 6 q 1 6 w 9 1 q 6 4 1 4 0 e 1 7 w 9 1 3 w 9 1 e 0 e 1 e 0 e 1 1 ",
"1 1 1 1 1 1 1 1 1 1 1 1 1 1 1 1 1 1 1 1 1 1 1 1 1 1 1 1 1 1 1 1 1 1 1 1 1 1 1 1 1 1 1 1 1 1 1 1 1 1 1 1 1 1 1 1 1 1 1 1 1 1 1 1 ",
"1 1 1 1 1 1 1 1 1 1 1 1 1 1 1 1 1 1 1 1 1 1 1 1 1 1 1 1 1 1 1 1 1 1 1 1 1 1 1 1 1 1 1 1 1 1 1 1 1 1 1 1 1 1 1 1 1 1 1 1 1 1 1 1 ",
"1 1 r u y 1 1 1 1 1 y u y 1 1 1 1 1 1 1 1 1 1 1 1 1 1 r u y 1 1 1 1 1 y u y 1 r u y 1 1 1 1 1 y u y 1 1 1 1 1 1 1 1 1 1 1 1 1 1 ",
"1 1 1 1 1 1 1 1 1 1 1 1 1 1 1 1 1 1 1 1 1 1 1 1 1 1 1 1 1 1 1 1 1 1 1 1 1 1 1 1 1 1 1 1 1 1 1 1 1 1 1 1 1 1 1 1 1 1 1 1 1 1 1 1 ",
"1 1 1 1 1 1 1 1 1 1 1 1 1 1 1 1 1 1 1 1 1 1 1 1 1 1 1 1 1 1 1 1 1 1 1 1 1 1 1 1 1 1 1 1 1 1 1 1 1 1 1 1 1 1 1 1 1 1 1 1 1 1 1 1 ",
"1 1 y p i 1 1 1 1 1 1 1 1 1 y t y 1 y t y 1 y t y 1 1 y t y 1 1 1 1 1 1 1 1 1 y t y 1 1 1 1 1 1 1 1 1 y p y 1 y p y 1 y p y 1 1 ",
"1 1 1 1 1 1 1 1 1 1 1 1 1 1 1 1 1 1 1 1 1 1 1 1 1 1 1 1 1 1 1 1 1 1 1 1 1 1 1 1 1 1 1 1 1 1 1 1 1 1 1 1 1 1 1 1 1 1 1 1 1 1 1 1 ",
"1 1 1 1 1 1 1 1 1 1 1 1 1 1 1 1 1 1 1 1 1 1 1 1 1 1 1 1 1 1 1 1 1 1 1 1 1 1 1 1 1 1 1 1 1 1 1 1 1 1 1 1 1 1 1 1 1 1 1 1 1 1 1 1 ",
"1 1 1 1 1 1 1 1 1 1 1 1 1 1 1 1 1 1 1 1 1 1 1 1 1 1 1 1 1 1 1 1 1 1 1 1 1 1 1 1 1 1 1 1 1 1 1 1 1 1 1 1 1 1 1 1 1 1 1 1 1 1 1 1 ",
"# % O O ; ; O O @ # O O - a o % a = , a a a a a = = a a o s o o O X ; s o d d ; a o o a   = = a     = . a a a   = = = = = = * = ",
"f g h j j k j j j j j j k j k j k j j j j j j k j k j j j j j j j j j j j j j j j l j j j k j k j k l k l k l k l j z l l l l l ",
"x c v b n m M M N B V C N Z h m m N B V C N M A S A N B V C D F M F M N B V C V G H F J N B V C V K L J P I B V C U N H J Y T R ",
"E c b v A W J F Q ! ~ ^ / G A Y F Q ! ~ ^ / F A T F Q ! ~ ^ / G ( Y F Q ! ~ ^ / N ) F F Q ! ~ ^ / N W P F Q ! ~ ^ / N P Y A S ) ",
"E b v v S Y F C _ ` ' ' ] [ m M C _ ` ' ' ] C A { C _ ` ' ' ] } T M C _ ` ' ' ] } M F C _ ` ' ' ] } Y P | _ ` ' ' ] [ H J Y T ) ",
" .b n A W Y N C ..X.@ ^ o.C Y M C ..X.@ ^ o.O.m M C ..X.@ ^ o.O.m F C ..X.@ ^ o.O.L F C ..X.@ ^ o.O.P P C ..X.@ ^ o.C I K Y { N ",
"+.b v S W { F | @.#.^ #.^ $.m Y | @.#.^ #.^ %.{ M C @.#.^ #.^ %.{ F | @.#.^ #.^ %.J F C @.#.^ #.^ %.J &.C @.#.^ #.^ *.V F Y M D ",
"=.h n S m Y M U -.;.:.! =.D m m N -.;.:.! =.N W M V -.;.:.! =.B M J U -.;.:.! =.B F I B -.;.:.! =.B &.I B -.;.:.! =.C N F { R U ",
"E v A m Y Y M F B -.-.-.>.M m A M B -.-.-.B M m M F ,.-.-.-.C G H ) D C -.-.-.C <.K V V C -.-.-.C I K I ,.| -.-. .1.B B G M R D ",
"2.v S m m Y M M ) M Y M M m W A S M M M M M Y W W Y M J M F V F ) 3.V V <.<.4.5.K K I V ,.4.V V V &.P F V B V 4.B >.B 6.G R F 7.",
"8.v m m { Y M M F 4.V N J Y W m L K ,.9.5.K J Y 0.P <.q.q.q.,.V K V B C w.*.w.e.V <.,.,.| *.w.*.4.K J F B | r.t.-.E O.B N G y.>.",
"u.v m m { M M M M M M M L L Y Y Y Y L L H I I Y L P F V F N B B N U ,.i.i.e.e.,.5.5.V 9.| | | | B N J M B C $.$.C O.>.>.D G G >.",
"p.v Y M J J M M N B V i.N Y L Y W F N N B N <.L 0.J N B V C B ,.F V I B B V C B ,.I V N B B N C >.B M M F B B V O.>.O.>.D G G O.",
"t.n M M ) F J F Q ! ~ ^ / G J P H Q _ ~ ^ / D F P N Q ! ~ ^ / >.B C D Q _ ~ ^ / >.U >.Q Q ! ~ ^ / B G R G Q ! ~ ^ / >.C D a.D O.",
" .n M M H F F C _ ` ' ' ] } &.H | _ ` ' ' ] E N F 1._ ` ' ' ] E O.C 1._ ` ' ' ] E O.s.1._ ` ' ' ] [ d.G O._ ` ' ' ] E f.d.a.>.x ",
"8.n J J K K V C ..X.@ ^ o.O.<.&.C ..X.@ ^ o.O.4.K C ..X.@ ^ o.O.E g.C ..X.@ ^ o.O.O.$.C ..X.@ ^ o.O.D >.C ..X.@ ^ o.O.f.D d.h.x ",
"j.S H F K N B | @.#.^ #.^ *.4.K | @.b ! #.^ *.,.N k.M #.^ #.^ *.O.x E M b ! #.^ *.x l.E M b ! #.^ $.D f.| @.#.^ #.^ *.f.7.D h.x ",
"z.W K K I N ,.C -.;.:.! =.C 4.K ,.-.;.:.! =.[ B 4.x -.;.:.! =.x >.O.x.w.;.:.! =.x x l.x -.;.:.! =.O.c.O.O.-.;.:.! =.s.h.7.D h.v.",
"b.0.K I V V ,.q.1.w.-.8.E | 5.&.,.=.w.-.8.1.C i.U x g.r.-.r.l.$.U h.n.m.r.-.r.l.l.M.n.N.l.8.-.8.B.V.>.f.N.l.8.-.8.l.x h.7.7.h.v.",
"f 0.I V 4.4.9.| q.| e.k.=.9.,.N ,.C i.| i.C >.>.C.U [ E $.l.j.O.D c.x M.x x l.j.M.x.Z.n.A.l.l.n.l.O.7.>.l.N.N.N.j.n.s.h.c.c.h.v.",
"S.L <.4.,.,.| k.=.w.w.r.| | C V ,.C w.u.t.i.>.D B O.x D.r.D.x c.G D f.[ F.D.u.h.V.G.f.h.Z.X # ; V.V.D c.M.A.# % H.n.f.h.h.h.J.v.",
"t.P V ,.,.C | k.%.*.%.$.$.$.E k.C O.$.x g.x C >.C >./ O.x O.f.>.K.>.s.M.l.n.M.v.M.V.G.Z.n.N.n.n.M.V.c.f.v.N.j.N.N.M.V.f.f.h.h.L.",
"S.P ,.,.9.C 1.C C B V C C $.C E C i.B V C O.E B >.>.>.B V C i.O.C.f./ / >.N O.V.n.f.f.O.f.>.V O.O.M.G.V.s.O./ V O.s.s.f.f.G.f.n.",
"P.H ,.9.C 1.E >.I.! ~ ^ / C 1.1./ I.! ~ ^ / O.h.x >.Q _ ~ ^ / O.c.x >.Q _ ~ ^ / V.Z.h.c.Q _ ~ ^ / O.M.s./ Q ! ~ ^ / f.V.G.V.G.n.",
"S.H i.C | E x E _ ` ' ' ] E x B.E _ ` ' ' ] E s.v.E _ ` ' ' ] E f.n.E _ ` ' ' ] E M.V.1._ ` ' ' ] E N.v.1._ ` ' ' ] [ s.V.s.s.U.",
"P.K C C O.E l.C ..X.@ ^ o.O.$.l.C ..X.@ ^ o.O.O.l.C ..X.@ ^ o.O.s.N.C ..X.@ ^ o.O.n.v.C ..X.@ ^ o.O.U.n.C ..X.@ ^ o.O.v.s.Z.v.A.",
"f &.C O.E x n.k.M #.^ #.^ *.l.j.E @.b ! #.^ $.V.L.k.M #.^ #.^ *.Z.n.E @.b ! #.^ *.L.L.| @.#.^ #.^ +.A.N.1.@.b ! #.^ $.v.v.v.v.b.",
"f K C O.E x N.x w.;.:.! =.M.l.b.g.-.;.:.! =.O.V.M.x w.;.:.! =.M.M.N.m.-.;.:.! =.M.N.n.x -.;.:.! =.l.A.A.x -.;.:.! =.x M.v.v.v.b.",
"S.I C 1.1.x l.A.l.w.-.8.l.l.M.l.A.x w.-.8.x s.f.Z.N.m.w.-.8.x M.v.Y.b.l.w.-.8.l.N.n.n.A.l.8.-.8.M.A.N.n.b.l. .-.8.l.N.M.v.Z.Z.A.",
"T.K C 1.x E v.M.R.x x v.s.O.>.f./ V.O.x v.x h.7.J.V.x x x v.x f.h.G.M.n.M.l.N.n.s.V.E.v.L.l.N.n.n.s.Z.v.M.L.M.M.n.n.v.v.Z.s.s.A.",
"f K C [ x x M.L.Z.f D.F.[ f.J.f.W.>. .Q. .V.h.7.7.h.s.F.8.P.s.Z.V.s.V.s.S.8.8.x V.f.V.s.v.S.p.f M.v.v.s.V.v.b.b.A.Z.v.s.s.s.s.A.",
"; B >.O.x l.M.l.M.L.v.v.v.V.v.L.n.U.M.v.R.m.Z.Z.M.Y.l.L.n.L.l.v.n.v.M.n.U.N.n.n.v.v.M.v.n.N.N.N.n.N.N.n.n.N.N.n.N.N.l.M.v.V.V.S.",
"  X a X O # # s O O a a a a a a a a a $ a a a a a a a a a a a $ % O % $ O O O $ % $ o a a a $ a $ a $ $ $ $ $ a $ a $ % O % a , "
};
