/* XPM */
static char *result[] = {
/* columns rows colors chars-per-pixel */
"64 64 244 2 ",
"   c #000000",
".  c #0D0000",
"X  c #0C0B09",
"o  c #130000",
"O  c #1A0000",
"+  c #190E0B",
"@  c #191916",
"#  c #10100F",
"$  c #240000",
"%  c #2B0000",
"&  c #2E0A0A",
"*  c #340001",
"=  c #3B0101",
"-  c #3E0802",
";  c #3B0208",
":  c #36090A",
">  c #251716",
",  c #391512",
"<  c #1F231E",
"1  c #27201B",
"2  c #2C2925",
"3  c #3A2D2A",
"4  c #34362D",
"5  c #343A33",
"6  c #383834",
"7  c #2C3430",
"8  c #440101",
"9  c #4C0101",
"0  c #440801",
"q  c #4D0903",
"w  c #440309",
"e  c #4B0109",
"r  c #460A09",
"t  c #540101",
"y  c #5B0101",
"u  c #540B03",
"i  c #5C0903",
"p  c #540109",
"a  c #5B020A",
"s  c #5C0A0B",
"d  c #540B0B",
"f  c #590B12",
"g  c #5B1715",
"h  c #57100E",
"j  c #630101",
"k  c #6B0102",
"l  c #640A02",
"z  c #6A0A02",
"x  c #63020B",
"c  c #6C0109",
"v  c #650A0C",
"b  c #6C0B0D",
"n  c #720102",
"m  c #7A0201",
"M  c #720009",
"N  c #7A0009",
"B  c #760B08",
"V  c #791309",
"C  c #760B12",
"Z  c #681416",
"A  c #771B19",
"S  c #630C10",
"D  c #50231E",
"F  c #78231D",
"G  c #69241F",
"H  c #781D22",
"J  c #4A2522",
"K  c #552C2C",
"L  c #46312A",
"P  c #55312D",
"I  c #473A34",
"U  c #543433",
"Y  c #5D3433",
"T  c #5C3A35",
"R  c #583C3A",
"E  c #452C30",
"W  c #662B29",
"Q  c #772A27",
"!  c #643B3C",
"~  c #693937",
"^  c #733A3B",
"/  c #6D362A",
"(  c #471E25",
")  c #3C433B",
"_  c #3D453C",
"`  c #44443B",
"'  c #474237",
"]  c #574238",
"[  c #6B453C",
"{  c #703D40",
"}  c #3D4740",
"|  c #444B47",
" . c #5A4946",
".. c #4B514A",
"X. c #56544D",
"o. c #565B56",
"O. c #4C5453",
"+. c #674647",
"@. c #62554B",
"#. c #6B5A53",
"$. c #655854",
"%. c #765A55",
"&. c #765549",
"*. c #59655C",
"=. c #77604D",
"-. c #67655B",
";. c #7B6557",
":. c #7B715E",
">. c #5D6866",
",. c #646E66",
"<. c #776865",
"1. c #6A7668",
"2. c #757C6D",
"3. c #7C7C6C",
"4. c #787466",
"5. c #787A75",
"6. c #6A7874",
"7. c #861B1C",
"8. c #86040F",
"9. c #811D23",
"0. c #852828",
"q. c #89332D",
"w. c #8A3737",
"e. c #953B3A",
"r. c #8F3330",
"t. c #94433C",
"y. c #96483F",
"u. c #88473C",
"i. c #903E41",
"p. c #874847",
"a. c #994946",
"s. c #8C564B",
"d. c #9A534B",
"f. c #9C5B53",
"g. c #9A5653",
"h. c #925752",
"j. c #A24C49",
"k. c #A4564A",
"l. c #AA5A55",
"z. c #AC5556",
"x. c #846757",
"c. c #98645D",
"v. c #87725D",
"b. c #A7655B",
"n. c #B1645A",
"m. c #A95F60",
"M. c #876B66",
"N. c #857867",
"B. c #937967",
"V. c #847E72",
"C. c #8B7B73",
"Z. c #9E6968",
"A. c #A76766",
"S. c #B66A68",
"D. c #A5766A",
"F. c #B6756A",
"G. c #AB7871",
"H. c #B77974",
"J. c #C37E77",
"K. c #748374",
"L. c #7C8475",
"P. c #7A837B",
"I. c #7C8A7A",
"U. c #778579",
"Y. c #78826E",
"T. c #86836E",
"R. c #8B8474",
"E. c #83847B",
"W. c #8B8C7C",
"Q. c #868778",
"!. c #938C7C",
"~. c #968875",
"^. c #88917D",
"/. c #96947B",
"(. c #94846C",
"). c #B8857F",
"_. c #A2957C",
"`. c #A78376",
"'. c #C88A79",
"]. c #CC997D",
"[. c #7B8A83",
"{. c #7E9285",
"}. c #8C8D83",
"|. c #858C86",
" X c #918786",
".X c #849386",
"XX c #84948D",
"oX c #8C9788",
"OX c #949283",
"+X c #9B9584",
"@X c #949B8C",
"#X c #9C9D8C",
"$X c #969887",
"%X c #8A9A96",
"&X c #949D95",
"*X c #969B94",
"=X c #B88983",
"-X c #A59789",
";X c #BD928D",
":X c #BD9994",
">X c #8EA497",
",X c #93A394",
"<X c #9CA195",
"1X c #93A39D",
"2X c #96AB9C",
"3X c #9CA39B",
"4X c #9AA18C",
"5X c #A5A796",
"6X c #B3A996",
"7X c #A9B29E",
"8X c #B1AA92",
"9X c #8F9FA0",
"0X c #9AABA4",
"qX c #9BB3A8",
"wX c #9CB7B2",
"eX c #A4ADA5",
"rX c #A3B4AB",
"tX c #A7B5A7",
"yX c #A6B8B5",
"uX c #B7BDAE",
"iX c #C48987",
"pX c #C89689",
"aX c #C89A96",
"sX c #D49E96",
"dX c #D59986",
"fX c #CAA19B",
"gX c #D9A39A",
"hX c #DEA38E",
"jX c #D8AAA5",
"kX c #DAB2A9",
"lX c #DDB8B3",
"zX c #CAB0A9",
"xX c #E5B6AD",
"cX c #E4B9B5",
"vX c #E1AEAC",
"bX c #E3AE9E",
"nX c #B6C5BA",
"mX c #ACC3B5",
"MX c #E4C3BE",
"NX c #A6C1C0",
"BX c #EECFCE",
"VX c #E2E3DE",
"CX c #E3E8E5",
"ZX c #D6D3CE",
/* pixels */
"O ; p a a a p i p p y v a a a x i s a s s S a S a s f a p p d d a p s i a a a i a a p x a p a a x x x a x S x S b b f b s v e $ ",
". % * 8 8 * * * 8 0 0 0 q - 0 - 0 8 0 9 8 0 0 0 0 q 9 t 0 9 9 = = 9 = = 0 = * * = 0 8 8 8 = = * * = = - 8 = 8 = = p y 9 e 9 = . ",
". % = = 8 = = = 0 0 8 t 9 9 8 8 q q 0 q u q 8 9 8 q 9 q 0 9 - t 8 0 8 - = 8 = - 0 q 0 8 = 8 = 8 9 8 8 8 9 9 8 8 = 9 9 t * t * O ",
"o * 8 = = = % % - = = 8 8 8 = = = = * * 8 - * * * * - = 9 u 9 t 0 9 9 8 * * % % * * * % * * * * * * % $ * * * = = = = 9 9 y 8 $ ",
". % = 8 t $   . o O . . . . o . . . o o . . . . . . o . O = q t q 9 0 O . . . . o O .                               . 9 t t 8 $ ",
". $ 8 8 9 o % * = = 8 8 = = = * = = = 0 0 = * = 8 0 0 q * - q t 9 9 8 $ 9 q - = 0 * % * = * * = ; * % * % $ $ * 8 = O % y y 9 $ ",
". $ 8 8 9 O = 9 9 9 9 t 8 8 9 q 9 0 t q u 9 t y j y l y 8 q u t y y y - y u t 9 p q w p p p p p p e e e w ; ; w e e % = j y 9 $ ",
". % 8 8 t $ 8 9 t 9 9 9 9 0 q u t q t u t y y y j c l l 9 u y y y l n 8 y t u t a a t p a a x x y p a p p e ; w e p * r M y 9 % ",
". * 9 t y $ 8 t t t t t 9 u u q 9 q u u y t y y j j l l t y y j j z n 8 y t y t t t y a y x j j y y t y t t 9 9 p p = h c j a % ",
"o * 9 t y $ 8 9 t y y y t u q 9 9 9 9 t y t j j j k k c t u l j i j n 8 t y t y y a t t l z l y y y y l j j y y y j = h B n a % ",
"o % y y j $ 8 9 t j j k t u d t t t u t t j j k n n n j 9 u x j l j z * t e y t t a y i l j l z l j k m k k j j j j 8 u 8.n t % ",
"O = n y j $ = 9 t j k j j G Q u y y j l j n n n m m m y 9 t C C c j j % w 8 9 t t j H b l u l z z B k m n n m j j j = y M c t % ",
"O 9 j j y $ * 8 t y k 7.;XfXzXD.F j l.gXn.m 8.xXjXm z p.^ p.fXaX;Xg.y.T &.Z.].9 p.jXH.aXG.y b.VXlXV t.fXr.n m j k k 8 t n c p % ",
"$ 9 j p t $ = w 9 y n cXaXw.0.c.r.z pXgXhXm n dXpXn c c.W Q w.G.f.Q F & x.].F 0.D.iXb H.jXa.d.kXcXy.e.kXe.m n k k k 8 t y c p % ",
"O 9 k 8 j $ ; e t j j.cXH.z V l l F gX].kX7.n r.r.u y G.W t 9 D.s.8 p & B.pXu b.aXw.a A aXlXs.:XG.xXh.=Xr.M m k n n = t = c y * ",
"O 9 k c m % 8 e t k z.MXe.V V z z d.gX0.vXj.n n.A.y p =X~ y c f.f.n a , D.pXy ).G.A t y cXxXq.F.t.MXxXb.0.n l n k m = t c n t % ",
"O 9 c n m % 8 e y k 7.BXsXm V Q F G.gXlXBXjXV '.=Xt g =X! y n u.F.N a * x.h.y d.aX0.j H BXH.p.H.F S.gXpXe.k n n m M 8 9 M M p % ",
"O 9 M M m % 8 e t k n k.j.r.A.lXb.b.f.t.b.kXf.G.Z.;XzX-XW l M b.y.M j J x.c.F.i ).H.H.A.9.0.a.;X0.C A.cXt.k l j n N 0 y c M t % ",
"O 9 M n m $ e e t j j j m F f.d.Q a.w.j b a.w.A f.D.c.Q t l k e.7.M j , g W l.j C a.S.e.C c H g.H k Q j.A k j l j c 8 l M n p $ ",
"O 9 n M n % e e t k j j k k c l z l y j k j j j l v l j t l M M M m z * d f j j k c k c n c k c n k j k k j l i a a 8 i M c t $ ",
"O t M M n % w e y k j j k j j v l l k k c k k j c l i j y z M M M M k w Z i j k k j k j n j j j j k j j k j l a f x w l c c p $ ",
"O 9 n M n % 8 e t j y y j k j k j k k k k k m k j y t y t l k c N M k 8 S a j k j y j j k z y j j j y j j y t d f a 0 l b c 9 $ ",
"O t n c n % 8 e y j y j x x y y y y j j j j k k j t y y t l k c M n k 0 v j j k j y y j j j j y t t y y j t t d f a e y M j p $ ",
"O e n c k % w e t j j y a a t y y y y a a y j j y y y k y l k c m c k t x y j j j j j y y y j j j y y y j t 9 q f a 8 t c c t $ ",
"O 9 M M k $ e e y j j j y t t y y y y x a x j j j y k n y j c k M c n t z y j y k y j j y y j k k j j j y y 9 9 w a e t c k p $ ",
"O 9 M M k $ 8 e y j k k y j j k j j j y j j k c j a c M y y k c n k y t c l y j j y y j y j k n k k j j j y y e e a 9 9 k M j $ ",
"$ 9 N 9 j * 8 e t j k k j j j j y y y t y j j y y p x M t t e c M w t 9 B j y y y y y y y y j k k j y y t t 9 8 w a 8 t 8 N p % ",
"$ 9 M j j % e e 9 y n k k j y y y y y j y j j y p p x n 9 t j k M y t 8 c y t t t y j y y t y j j j y y t y t 9 e a 8 9 j M a % ",
"O 9 M M k % e 9 t y n n j j y y y y j y t y j y t a x M e y k c n M k 8 x a t y y j y j y y y j j j j y 9 y y 9 8 t 8 9 n n p % ",
"O e M c j * 9 9 t j k n j y t t y y t t 9 t t t e p x c 9 t k c c c k 0 x j j j j j j j y t y j j j y j y t t 8 9 9 = 9 M c p $ ",
"O 9 n M n % p p y y k k j y y y t t 9 8 8 9 9 t p p a c 9 q k x c M n 9 c c k k k j j y y y j k k y y j y t t 9 9 t 8 9 N c 9 $ ",
"O e M M m * e t t y j j j j y j t t 9 9 8 9 t p e a x M 8 t k c n M n 9 c k k n n k k k j B k n j y y y y y 9 9 9 t 9 u N n p $ ",
"O t M c n * 9 9 9 t y y hX'.h.a.F t d BX/ Q b.F.c.dXhXj.8 t n.S.J.C C { M e.jXk.S.H.cXvXz.iXJ.9.J.iXaXt y t 9 9 9 t 0 q M N a % ",
"O p n c k * 8 9 9 9 t j '.y.a.y.S y Q =XD.s.'.Q p p.t.x = q z.9.n.j.0.R w.i.j.S.S.BX7.j.7.J.e.C '.Q kXt t t 9 8 9 8 * t M M j % ",
"O p M M k * e 8 9 9 y y n.F F.H.Q y g.b.sXS Q '.w.y.d.y = q S.9.z.J.H +.A.b.j.gXa.xXC l.e.gXA v bXn.H.p j t 9 9 9 9 = q N N p % ",
"O t M n k % 9 9 9 9 9 y gXj.t.s.dXS.D.9 H.d.dX).i g.a.x = 9 J.'.m.w.Z ; pXS.q.j.i.0.r.w.A xXiXe.gXa iXQ y t t 9 9 9 = 9 M M y $ ",
"O 9 x x j % 9 8 9 9 t t b k j j y y 9 9 9 9 t y y t x a * 9 j j x j e = 9 9 t t t y y j y y y t q y t t y y t 9 t t = 9 N N y % ",
"O 8 j c j % 9 9 8 9 y y k j k y y t 8 9 9 9 t y t a a a * 9 j k k k 9 * 9 e 8 8 9 9 t y y t j t t y y 9 t t t t t y = 8 M N p % ",
"O 8 c t y * 9 9 t t t y j j j j j y t 9 e e 9 9 p p p a * 9 8 k c e 9 * t = 8 8 8 9 t t t y y j j k y t t y t y j j = 8 9 N a % ",
"O = j y y $ 9 y t y y j y j j y y y t 9 9 p p 9 t p a y = * t j j t 8 $ 9 8 9 9 8 9 9 t 9 y j j j j j y t y j j j k = 9 t N t % ",
"O = c c a $ e j j y t y y y j y S g a y 9 a t 9 t 9 j y = % k c x j e % y t t t 9 t t t 9 y j j Z S v Q y j c v z k = 9 j M j % ",
"2 5.M.M.<.6 ~ 8 9 8 9 8 8 r M.M.-X&.$XC.M.yX^ * 8 8 t 8 O % C.NXx.*X.Xo.mXnX~ = 8 = 8 = = r C.nXeX$X~.^ 2X6X~ 8 h = O = 9 a  .3 ",
"5 XXeXwX0X> = 9 9 = = 8 - N.tXOX<XOXrX*X0X+.9 8 8 8 9 e O U 3XtX-X3X&X..yX+.8 9 8 = 8 = r <.eXuXtXeX*X<X0X^ 9 9 8 8 O = ;  XyXo.",
"6 {.NXNX! O = 8 t 8 8 q ;.7XuX8X_.tX5X}.! 8 t 8 t t t e E -.rX/.4X5X|.| +.8 9 8 t 8 8 - ;.!.3X7XrX3XqX@X[ 8 9 8 t 9 O % <.yX%Xo.",
"5 XXwX+.e . = 8 9 = w [ _.8XuX8X#X-X+XK 9 9 9 8 9 8 r M.o. .eX@X5XmX.X@ 8 8 9 8 9 = ; ;.B.~.eXeX1X0X1X! 8 8 8 9 9 ; o 6 wXqX*XO.",
"6 P.] w 9 o = 8 9 0 x.~.`.fX8X(.(.W.W 8 9 t 8 8 8 q B.nXo.$.eX*XtX,X .O = 9 8 = 8 w &.B.x.-X7XtX*X X] = 8 8 8 8 8 w 2 >.wXwX0X+.",
"5 6 ; 8 9 . * 8 0 %./._._.8X8X(.(.[ 8 8 8 9 = 8 8 M.nXnX..o.*X%XrX+.r . = 8 = = = %.*X~.v.~.~.*X*X .e 8 8 9 8 = 8 #...o.qXmXR. .",
"+ % = = 8 . * w &./.~.v././.#X/.T * * = = 8 = w %.eXnXyX6 X.0X&X+.= w . = * = * $.!.OXeX!.E.4.R.Y = 8 8 9 8 = w %.oX| o.wXtX.X .",
". $ ; 8 = o : x./.~./.T.(./.4XP * = = * = = w 3.eXtXmXrX5 ..>XY = 8 8 o = = ; -.$X^.Q.OX$X,XE.P = 8 8 = 8 8 w ;.!.OX| *.qXmX@X> ",
". $ 9 * = o #.(.+X<XOXB.(./.[ - 8 = = * = - <.}.*X0XwXqX5 o.W = 9 * 9 o * w 4.1XOXV.v./.2X0XT = 9 w 9 = 8 r ;.5XtXoX_ o.,XmX! O ",
". $ = = - 2 W.4X#X#X}.!.oXR = = = * * = : <.9XXXoX>XqX1X4 , % 8 8 * 8 . * <.2X2XoX}.W.OX,X+.8 8 8 ; 8 8 ; %.Q.+X/.L._ X.1.+.= O ",
". $ = - $._ ^.#X#X#XM.v.Y * * * = * * : #.XX%X}.E.&X2XXX# O = = 8 * = . -.1X,XoXT. XL.Q.R p 8 8 9 8 * = =.|.Q.OXoXY._ ..! 9 * o ",
"  O * o.[.) .X@X@XOXB.Y = = = = * * * =.2X,XXXXXXX2X,XP   O = * * % * 2 .XoX$XV.4.|.P.J = 9 8 8 = = ; <.*X,X!.T.OXI.) > * 8 * . ",
". $ >.9X5.| E.tX5X/.T = = 8 = 8 = = ;.5X/.@XoXoX^.oX] * . % = * * *  .} I.!.R.v.N.=.E * * 9 w * = * o.9X2X&X^.N.R.5.@ $ * 8 * . ",
"  X.XXXX<.} .X*X<XT = * = = = * - %././.4X^.OX^.:.U = * . $ * = ; $.[.6 3.W.R.}.}.U - % = ; * % % X.XX{.3.I.E.I.T.I . $ % = $ . ",
"> 6.|.0XP.| %XwX! % * * * % * %  .N.Q.^.T.Y.K.U.J $ * = O $ * * +.%X6.5 3.OXV.C.J % * % * % % % ] U.[.P.4.5.K.4.K $ . % % $ $ o ",
"3 ,.[.Q.U.| %X! = * = * * * : %. X3.|.5.E.N.P.J % % * * O O = #.C.@X1.5 5.1X%XK = * = * % % * @.;.2.P.6.2..XE.Y $ % . % % % $ 2 ",
"5 -.V.C.U.@.T 8 = * * % * = $..XI.[.Q.2.I.E.P % * * = = O % -.}.&X.X1.7 [. X~ = = * * * = - #.I.K.L.Q.Q.N.*XY % * % . $ % * | | ",
"5 >.:.E.R.! 8 = * % % % & o.[..XI.K.Y.5.2.U * * * % * = $ T T.^.E.Q.,.) ,.( % % % % $ % % $.P.3.K.K.4.-.1.E $ % % $ . % * X.,._ ",
"6 >..X5.T p k k M k k v ).lXZXCXVXZXVXVXc.x k j M k k b v.C.Y.:.:.V.N.N.K = 9 = 8 = = r  XyX0X<XrXqXtX#X/ = 8 = 9 8 9 = $.[.-.6 ",
"7 ,.|.Y * = 8 = = % & $.N.u.:.1.,.1.1.L * * * * * % $ ! v.v.T.T.L.I.P.J 8 u y y 9 8 * #.I.,X1.^.qX>X,X%.p 9 t 8 9 8 % ] 1.2.-.5 ",
"< I L * * * * * * & ] Q.K.:.@.-.1.1.L % $ % $ $ % $ ] =.=.(.T.:.T.T.L % % * * * * $ ] 2.K.1.,.-.,.*.L $ $ % $ $ $ $ U Y.^.W.*.7 ",
"@ + O . O O O O O > 4 ` ' ' L ) ) > o O O o o o o > 4 3 ` O.$.` ' > O . . o O O o > 4 ` ) ) 6 6 5 > o o O . o . o > 4 ` o.X.4 < ",
"X                                                           X                                                         # @ #   @ "
};
