/* XPM */
static char *result[] = {
/* columns rows colors chars-per-pixel */
"64 64 240 2 ",
"   c #020202",
".  c #0B0A06",
"X  c #0C0B0B",
"o  c #070909",
"O  c #110A09",
"+  c #0E120D",
"@  c #12120E",
"#  c #121307",
"$  c #100C10",
"%  c #141412",
"&  c #151914",
"*  c #191914",
"=  c #1C1B19",
"-  c #181816",
";  c #0C1111",
":  c #2A130B",
">  c #241E17",
",  c #31130C",
"<  c #1D241D",
"1  c #23231D",
"2  c #26241A",
"3  c #252522",
"4  c #292622",
"5  c #252A25",
"6  c #2B2A25",
"7  c #2C2C29",
"8  c #232729",
"9  c #302D2A",
"0  c #312C23",
"q  c #2A322A",
"w  c #2D3629",
"e  c #33322C",
"r  c #39362B",
"t  c #2D3534",
"y  c #353532",
"u  c #393631",
"i  c #3B3B33",
"p  c #3C3B3A",
"a  c #373B37",
"s  c #302E33",
"d  c #1A2220",
"f  c #502B1D",
"g  c #413D34",
"h  c #413E3A",
"j  c #483C2F",
"k  c #6A3A26",
"l  c #421D11",
"z  c #3C4236",
"x  c #3D472F",
"c  c #434135",
"v  c #44433B",
"b  c #49463C",
"n  c #4A493D",
"m  c #474739",
"M  c #544A3A",
"N  c #55513E",
"B  c #785038",
"V  c #3B3C44",
"C  c #3F4140",
"Z  c #444542",
"A  c #4D4C42",
"S  c #4B4C4B",
"D  c #464744",
"F  c #524E45",
"G  c #524E4A",
"H  c #584F4C",
"J  c #4F5349",
"K  c #535245",
"L  c #54534B",
"P  c #5A564A",
"I  c #5B5A4D",
"U  c #585847",
"Y  c #4B5555",
"T  c #555552",
"R  c #5B5A53",
"E  c #5A5B57",
"W  c #4F4D52",
"Q  c #625B4C",
"!  c #645746",
"~  c #625E53",
"^  c #635C56",
"/  c #644D4B",
"(  c #5B6759",
")  c #69624D",
"_  c #646255",
"`  c #6B6454",
"'  c #64645A",
"]  c #6A665A",
"[  c #6C6A5C",
"{  c #696957",
"}  c #726D5D",
"|  c #776B55",
" . c #76715C",
".. c #726950",
"X. c #666561",
"o. c #6C6B62",
"O. c #696764",
"+. c #726E62",
"@. c #6C7464",
"#. c #737263",
"$. c #7B7564",
"%. c #757469",
"&. c #7A766B",
"*. c #7C7B6C",
"=. c #787A67",
"-. c #7E7D72",
";. c #777977",
":. c #5B6463",
">. c #804930",
",. c #84543A",
"<. c #86755A",
"1. c #907154",
"2. c #827D6C",
"3. c #857A63",
"4. c #937C63",
"5. c #827E72",
"6. c #887771",
"7. c #855D42",
"8. c #85816E",
"9. c #8C846E",
"0. c #8B8468",
"q. c #9C8C6D",
"w. c #93866A",
"e. c #848373",
"r. c #8A8574",
"t. c #8C8A76",
"y. c #85857A",
"u. c #898779",
"i. c #8C8B7B",
"p. c #838870",
"a. c #948D74",
"s. c #928D7B",
"d. c #988B73",
"f. c #9A9374",
"g. c #94927D",
"h. c #9B947C",
"j. c #9A977A",
"k. c #9A906E",
"l. c #A3957B",
"z. c #A39A7B",
"x. c #AA9B7E",
"c. c #A49477",
"v. c #AF8B6E",
"b. c #ACA17E",
"n. c #7F8081",
"m. c #948F83",
"M. c #959483",
"N. c #9A9583",
"B. c #9C9A85",
"V. c #9D9C8A",
"C. c #979689",
"Z. c #8F9289",
"A. c #A39C84",
"S. c #A29D8A",
"D. c #AC9D84",
"F. c #A4A284",
"G. c #AAA384",
"H. c #A4A28D",
"J. c #ABA48B",
"K. c #ACAA8C",
"L. c #B2A583",
"P. c #B1A58C",
"I. c #B3AB8C",
"U. c #B7AB88",
"Y. c #BAB18E",
"T. c #BAB58D",
"R. c #A5A492",
"E. c #AAA692",
"W. c #ACAA94",
"Q. c #ADAC9A",
"!. c #B3AD93",
"~. c #B9AE95",
"^. c #B3AE9A",
"/. c #B8AC96",
"(. c #B4B295",
"). c #BBB495",
"_. c #B4B39B",
"`. c #BAB59B",
"'. c #BDBA9D",
"]. c #BBB896",
"[. c #B4B3A1",
"{. c #BBB6A1",
"}. c #BDBAA3",
"|. c #BDBDA9",
" X c #B3B8AA",
".X c #B1B6AA",
"XX c #8EA08B",
"oX c #C2BB9D",
"OX c #C3BA97",
"+X c #C2BDA3",
"@X c #C2BEAA",
"#X c #C9BEA3",
"$X c #C0BDB3",
"%X c #C6C19E",
"&X c #C4C1A5",
"*X c #C9C2A4",
"=X c #C5C3AB",
"-X c #C9C5AC",
";X c #CBC9AD",
":X c #C7C8AF",
">X c #C5C5B2",
",X c #CAC5B1",
"<X c #CDCBB4",
"1X c #CECDBA",
"2X c #C8C7BB",
"3X c #D1CEB5",
"4X c #D2CEB9",
"5X c #D4D1B5",
"6X c #D3D2BC",
"7X c #DCD6BA",
"8X c #D6CBAC",
"9X c #E2DCBC",
"0X c #EBE2BD",
"qX c #CCCCC1",
"wX c #D4CFC1",
"eX c #D4D3C5",
"rX c #DCDAC2",
"tX c #D6D5CA",
"yX c #DBDACC",
"uX c #DAD5CA",
"iX c #DEDDD2",
"pX c #CFD0C6",
"aX c #E2DDC2",
"sX c #E2DFCD",
"dX c #E2DED3",
"fX c #E4E2C6",
"gX c #EEEACB",
"hX c #E9E5C9",
"jX c #F2ECCD",
"kX c #E2E2D5",
"lX c #EEECD2",
"zX c #E4E3DA",
"xX c #F2EDD2",
"cX c #F4F2D4",
"vX c #F6F5DA",
"bX c #FAF6DC",
"nX c #FCFADD",
"mX c #FAF6D6",
"MX c #F8F2CE",
"NX c #FEFEE3",
/* pixels */
"b K ^ o.X.] X.X.X.^ R R R E T a X         - Z R :.X.o.o.' ' X.X.o.' O.o.X.o.X.o.' ' ' X.X.R h %         $ h H P ^ +.O.O.o.o.o.O.",
"L I !.fXvXvXbXxXgXhXgXhXlXlX4XZ.t S W V 8 h E.5X9XjXaXaXgXgXgXjXxXxXjXjXvXjXmXcX8X8XfXcXhXrXu.s p S D a 9 S.oX5XcXNXvXlXMXmXnXNX",
"L I !.gX].{.{.(.H.b.z.G.K.H.t._ Z O.;.E s 7 ' w.B.b.b.j.f.d.f.| G.Y.J.z.k.d.f.F.j.! <.G.g.s.[ p :.;.;.W p $.4.f.I.].`.K.c.<XtX:X",
"L R _.cX8.I ' B.:X:X-X&X=X=XQ.-.$ $ ; X o 9 m._.}.).I.L.).+XoX/.9.Q N r._.`.(.K.{.J.D.`.`.A.r.% $ $ $ X % C.!.oX&X<X<X<X=Xm.*.' ",
"L I (.gXF.p.M.&X&X}.+X<X@X=X{.V.R % X X = { E.{.+XY.b.U.].*X-X&X`.A.g.x.I.+X+X-X}.oXOXq.c.h.9.n $ X . @ j s._.@X-X$X>X_.:X|.R.[.",
"L K J.hXJ.I.}.=X&X_.f.B.J.R.R.Z.t.%.' o.%.y.g.M.N.w.<.w.N.E.oXoX`.P.oXw.k.W.B.N.<.r.6.| | ` ..` P P M H | t.N.R.E.H.S.S.R.R.R.R.",
"J F A.aXF.K.'.+X`.A.9.K y a a y y y e e 7 7 q q e w 6 2 A } d.f.1.q.U.x.9.r.P u r r 0 6 0 0 0 2 0 9 6 9 s u u y u e e u u u a a ",
"K A (.jXb.j._.P.D.w. .( Z q < 1 2 & X   X 3 5 q q w w U F *.d.4.l.+X&X,X;Xg.K a $       . .   o o       . o . o .     o . o o o ",
"K K K.gX<.a._.!.l.d.r.g = U R I F 7 d ; e =.-.=.( J K r e 5.D.c.c.!.-X:X:Xi.m C I q ; & 5 e z m x w t z z z z C t w 8 q q q t w ",
"K I K.fXz.J.}.>XG.J.5.L 7 I L K L J z q x I ( ' n z r @ i u.^.+X}./.<X}.G.8.:.Y n.( C :.2 * * @ & & + + ; & d q < d & % & d N @.",
"N U ^.hXf.A.+X{.~.P.} ^ i = X X . . . o o X @ ; + + + 6 ^ e.`.6X@XY.).`.P.#.D 8 = o ; & X X $ X + o X X ; o X X o X . o o o + . ",
"b F E.gXs.H.J.E.oXq.| *.e.2.u.t.t.u.t.g.i.y.i.t.r.p.} N Q $.A.z.<.w.6.oX}.8.) _ e.y.Z.i.y.8.3.| )  .=. .y.i.i.i.y.2.e.y.e.e.8.e.",
"b U }.vXs.K ` _.oXc.P 4 = > 1 3 8 3 3 3 5 3 6 4 1 < - 1 U  .<.f./ g w.*X}.t.I 4 < < 6 5 4 1 3 2 2 2 * 2 5 3 1 2 2 3 6 3 3 3 1 3 ",
"K R ^.nXK.`.=XOXT.b.2.( a 7 i o.} [ [ +.[ [ ` ~ ( 2 1 j ! $.q.G.q.4.4.).).9.%.I e e R #.#.} } ` _ ) U ) [  .{ ` ] [ o.#.o.[ _ ' ",
"K K !.vXJ._.*X*XU.b.w.#.R L _ `.-X<X<X-X&X+X&X(.w.F g L ` <.G.+Xx.<.1.k.P.3.#._ R R E.:X@X,X=X=XoX).U.Y.<X3X-XOX].%X:X;X=X&X'.I.",
"L G D.lXF.{.+X`.z.(.i.&._ L ' &X:X;X1X-X=X'.&X&XP.M g n U | `.+XI.b.U.U.'.g.&.' T R E.-X:X@X-X`.).!.L.L.@X3X;X].&X;X:X:X`.).)./.",
"K P K.mXG.'.-X*XoX|.M.=._ U ' `.+X+X:X;X=X!.I.+XL.M r b ! $.A.P./.Y.'.@X+Xa.&.' L R E.-X-X@X=X&XG.w.q.b.;X<X@X2X<X:X>X>X&X&X-X&X",
"F I {.NXz.].=XT.%X}.M.*.~ L ~ ).oX}.;X&X&X`.G.P.l.F g g M ` J.-X=X+X).!.oXs.&.^ L R E.#X/.A.t.a.w.4.4.x.^.).`.>X<X^.{.@X}.+X+X&X",
"K R }.NX].<XeX;X*X(.s.#.#.[ +.h.J.E.R.R.H.H.h.| N.Q j M N ) ^.4XwX4X-X=X=XC.&.o.' o.M.S.w.!   X 6.w.j   > <.M a.E.S.R.Q.R.E.R.B.",
"U I }.NXV._. X{.<X^.a.F._._.!.W._.[.[._.[.(.W.d.w.<.) ..` t.P.^.^.|.R.>X`.t.s.H.Q.Q.^.K.h.$.H / F.G.] H / b.1.l.[.`.[.^. X[._.R.",
"K P {.NXj.U [  X<X(.@.z 6 5 3 7 q e e e 7 9 9 6 6 > @ 2 U u.[.+X@.P h.oX+XM.R 9 1 5 7 7 ` j   # | Q >   - | j 0 e 7 e 7 9 7 7 7 ",
"F K _.vXK.&X5X3X<X'.r.I i 7 e ' #. .[ { #.+.+.#.] 7 6 i [ s.`.@X@XoXb.c.).A.%.U e y _ _ z * . X @ * @ O @ * e I o.[ } @.#.}  .{ ",
"F U H.9Xj.%X1X1X3X|.M.*._ A [ {.&X=X=X-X-X=X&X>X}._ c P +.u.!.`.D.D.<.7.A.V.-._ I ] ^.&XB.%.o.[ ` Q F F ` +.i.^.|.W.J.&X&X}.+X+X",
"K L (.8Xj.'.1X5X3X|.M.*.#.i.H.S.R.E.F.K.A.S.K.K.Q.H.e.] o.u.^.D.x.OXOXL./.V.#.o.m.R.Q.(.Q.Q.E.Q.S.w.4.2.A.N.N.g.a.H.H.R.R.V.J.E.",
"L T _.fXf.OX3X1X1X=XM.p.!.=X}.}.|.}.'.].U.).`.}.|._.^.S.s.6.}.#Xq.4.D./.@XS.N.^.).`.}.&X|.@X=X=X}.l.D.{.&X+X/.h.!.`.{.|.}.}.(.!.",
"L I (.gXf.(.<X3X<X;XkXzXkXkXzXzXzXkXkXfXsXyXkXzXkXkXuXuXdX,X!.+XD.1.l.+X<XuXzXiXwXuXkXzXzXzXzXzXwX2XkXkXkXyXyXiXzXkXkXkXiXiXuX4X",
"K I `.9Xz.<XuXeX<X-X:X<X;X`.`.<X:X*X&X*XOXOX*X1X3X$X@X>X@X$X+XD.4.l.+X3X1X<X3X;X+X=X<X1X<X=X+X&X`.=X}.+X<X-X;X1X2X<X<X5X1X,X@X,X",
"L I `.0Xk.'.{.Q.<X<X&X&X1X<X1X3X1X1X3X;X;X+X=X,X-X=X=X>X,X>X#X+X#XuX2X4X1X3X<X<X:X-X:X|.:X1X1X<X&X=X<X-X1X=X*X<X5X<X5X<X4XyXiXeX",
"L I _.cXK.] o.(.;X;X&XOX;X<X1X4X3X;X*X-X#X=X,X-X{.=X<X>X>X=X`.Q.+.%.s.1X1X1X<X<X3X5X4X4X1X5X4X<X3X<X<X1X<X-X<X<X2X3X3X<X<XM.8.o.",
"F I `.MXmXmXmXmX0XvXvXcXvXcXNXNXNXlXvXmXjXsXfXxX7X9XxXvXbXvXcXjX1X:XcXbXmXnXmXnXnXNXNXNXnXnXNXNXnXNXNXnXNXNXnXxXcXvXvXvXnX7XP.<X",
"K D v n b v v m m v Z Z Z Z Z b Z b Z Z b i b n b A A F A A A b b n A A c A J n S S L G U J L L F L L K L L L K F L K G K Z D n ",
"> > = = = = * * & * * * & * * * - * % - % % @ $ $ @ % % % % X @ @ @ % @ % % @ % % % % * * % * % & - * & & * % & * % * - * * - * ",
"7 i T ^ E E E R R E E E E E E R E R E T T G G L I T R T T L I T T L L K J L T J L W J J W J T T T T T G G T T T T W L G T W W S ",
"m e.fXcXnXnXvXjXjXcXbXmXNXvXvXvXcXvXcXhXxXhXaX7X7XrXcXbXnXbXbXmXMXjXcXvXvXvXvXvXxXxXvXvXbXvXcXlX7XaXaXfXnXnXbXxXaXaXxXhXvXNXNXvX",
"U y.fX'.`.,X}.(.Y.I.).'.[.`.(.`.(.{.{.`.^.!._.K.R.E.{.|.}.`.].OX;XuXtX6X;X&X*X+X+X`._.`.W.@X&X@XS.K.A.K.(.`._.K./.I.(.(.K.S.[.i.",
"A y.kXt.A +.i.@X*X;X;X1X<X1X<X:X=X=X>X:X1X<X;X=X;X1X5X1X3X3X;X;XH.-.#.V.2X;X;X2X3X3X<X*X}.!.P.!.!.,X=X@X<X2X&X|.,X1X<X:X=XR.~ o.",
"F 5.rXW.p.a.{.:X}.;X<X,X3X1X;X-X=X<X3X2X2X<X<X<X1X<X1X3X;X8X;X5X<X^.^.<X;X`.}.3X<X3X3XOX<X-X~._.P.,X3X:X2X-X<X@X@X<X<X<X<X_.P.`.",
"b #.>XK._.>X@X/.J.t.[ _ I _ _ _ ( ~ _ _ _ _ _ ' _ _ ( _ _ t.'.8X3X3X5X5X;XN.o._ ' ^ ^ _ ~ I P R P H ^ ^ ' ' ~ E I ^ _ ' _ I R I ",
"b +.rX(.].;X=X{.|.M.*.c = = = * - * * = * = * * = = = 9 _ 9.).;X,X-X3X5X<Xg.+.v - = = % % * * * * * - * = = * * * * - * * % % * ",
"F -.fX).(.T.&X=X`.V.e.{ p X                         7 L { 8.U.OXOXoX*X4X-Xg.*.] v X                                             ",
"K 2.aX].(.'.;X`.f.B.8.' K m _ =.#.#.` [ #.$.#...) i c L o.i.!.%XOX%X*X*X*XM.2.{ T m { #.[ } #.&.[ o.[ +.%.=.&.&.&.] [ #.] Q +.%.",
"L 8.fXW.j.`.<X<X=XB.8._ L R Q.1X1X-XoX+X=X<X=X].I.A c I [ i.`.&X*X;X;X;X;XV.8._ T R E.,X<X<X<X;X).].!.@X&X>X1X,X1X>X:X{.+X>X>X+X",
"L e.rX&X&XyXeX3X;XB.e.8.y.u.y.y.e.2.*.2.u.y.&.2.=.2.y.i.y.i.`.6X6X6X6X3X;XV.-.e.y.r.y.8.y.i.y.5.$.$.e.t.-.y.y.e.e.e.*.e.e.e.2.&.",
"L 8.7Xg.A @.i.:X<XB.[ K m Z n n m n c c g b v g c v b n ( s.|.(. . .t.:X;XS.#.K A A v v m A m A h g c n b A n b m b p b n p g h ",
"L *.5Xb.t.M.&X3X1XB.#.n * % 3 7 7 7 q 5 7 7 e 7 6 @ + * U i.}.1XE.B.'.;X<XV.*.J < % 3 7 9 7 7 4 6 7 6 6 4 6 6 e 7 5 7 q 9 6 6 7 ",
"J p.7XF.K.|.<X1X<XV.&.{ J S C.!.W.{.}.}.{.}.}.{.E.A i A _ t.!.&XoXY.+X,X-XS.e.] K K 8._.}.{._.(._.^.!.K.J.F.W.s.8.-.-.=.K _ o.#.",
"L e.rXF.(.&X2X3X-XM.=._ F I B.:X<X1X3X1X1X<X3X<X'.U g A [ i.{.&XoXOXOX=X=XC.*.] U I E.<X1X<X=X&X=X=X+X!.x.j.y.-.-.n.y.( < z o.@.",
"L e.fX(.K.'.=X:X-XN.*.R n I R.@X=X3X6X5X3X3X3X=X|.L c K [ g.}.&XoXoX#X-X&XV.-.[ I I R.:X<X<X:X:X-X+X~.q.d.p.Q..X[..X X( w p.XXXX",
"L y.fX(.K.}.;X=X;Xg. .^ L R E.>X,X<X1X3X5X<X,X-X&XL g F } i.}.:X).&X<X4X:Xt.$.] L I R._. .j , , : : j ..3.h.|.|.|.qX Xd o c K.|.",
"L y.fX(.!.'.&X}.+XB.-.{ I T E.=X,X<X<X2X<X;X-X=X XU v G _ e.{.+XP.].+X-X&Xg.$.~ n Z J Z : l k >.B k , , 3.).2XqXqXpX X7 @ m ].qX",
"L r.fX&X_.qX=X/._.N.g.Q.^.Q.R.R.i.B.V.S.B.9.a.N.R.E.W.Q.C.u.|.rXyXyX<X<XoX9.} a.N.#.% o B 7.>.v.1.>.>.B  X X X X|.pXqX.XR.V.>XtX",
"L e.6Xg.A ! 5.:X-XV.o.v v h v z u c h c g u h h v v v v A y.{.D.` ] y.>X&Xf. .i a 7 ; o % f f B >.k l 2 %.5.n.y.C.C.n.8 ; 7 Z..X",
"L e.rX(.a.p.(.2X>XV.=.I 3 % 3 e 7 7 7 7 6 7 6 7 4 % $ > L y.^.^.S.R.}.}.`.g.=.K 2 % 3 = $ . O O O , O # h h v D S T a o   = I ' ",
"K e.rX(.K.}.<X<X>XV.-.' L R B. X}.[. X_.(.!.K.(.F.Z u n ! e.J.E.P.).+X>X:XF.8.' K A +.#.P u 9 6 4 0 2 @ % % - * & & = * o @ 5 q ",
"K e.7X(.K.(.}.-X&XV.e.{ ' i.W._.Q.[.[.Q.Q.[.^.W.E.%.A F _  .P.`.P.l.!.!.=XV.8.] R 5.h.d.h.S.V.R.A.S.a.U 9 3 3 3 < 2 1 1 @ X @ $ ",
"L e.fXK.F.(.&X:X=XV.*.e.R.{.[.[.[.[.[.[.[._.^.^.!.W.S.] U  .D.^.J.c.L.Y.).g.*.%.B.[.(.K.N.N.Q.[.^.P.K.S.g.N.N.S.a.B.B.g.I 9 6 6 ",
"J e.eXF.F._.&X:X>XE.}.:X1X1X1X1XqX4X1X=X<X1X=X+X{.=X+X-XE.8._.:X+XL.x.U.L.d.B.U.,X5X1X{.!.@X,X6X<X-X*X<X,X*X%X%X8X1X=X-X2X}.|.|.",
"L r.7Xz.K.}.>X<X<XuXiXiXiXiXyXuXeXeXqX2X>XeXtXeXeXtXeXuXyXuX1X:X@X^.~.oXY.#XeXyXiXdXiXtXuXtXtXtXqX2X1XeXtXyXsXiXsXdXdXdXyXkXiXiX",
"L e.rXK.}.1X6X<X<X&X*X=X<X<X|.{.R.s.m.-.e.W.`.G._.=X}.=X;X1X1X6XeXeX3X+X).).oX:X=X'.}.=X$X@X[.V.e.r.e.g.Q.&X+X*X5X5X5X3X5X<X<X2X",
"L e.aXE.V.=XE.=X|.&X%X:X2X:X_.M.V ; o ; = P 9.h.{.=X-X-X<X<X5X=X`.@XH.oXY.x.).,X3X+X}.&X/.!.i.b $ . . % S V.{.*X3X4X3X3X5X6XyXzX",
"L e.aX_._ R R.:X&X=X+X&X-X{.R.y.y Z W C s i 2.^.=X,X<X<X1X3X3X=X#.~ S.=XoXoX&X<X<X*X-X=X{.Q.y.a D W C s 3 =.W.=X;X-X;X;X<X:Xi.*.",
"L -.rX}.oX:X<X<X-X;X<X-X<X=XQ.y.W O.;.X.S v i.^.}.<X,X3X;X1X<X-X-X=X-X-X*X+X=X-X;X|.|.-X=X_.y.W O.;.O.W t  .K.=X1X<X-X<X<X;X}.V.",
"K &.<X0XgXgXcXcXvXcXvXcXcXhX3XV.. X $ X o e R.eXlXcXvXcXvXjXfX9XhXfXhXcXxXfX7XhXxXhXfXxXhXtXm.% $ $ ; o % i.3XxXmXvXcXlXgXmXvXgX",
"I -.*.( L { #.#.o.#.#.#.o.o.R i o         = A X.+.@.%.#.[ [ Q ! _ { +.#.#.#.o.#.#.} +.@.[ ' v $         @ c _ o.%.%.%.@.%.#. .{ "
};
