/* XPM */
static char *result[] = {
/* columns rows colors chars-per-pixel */
"64 64 251 2 ",
"   c #393030",
".  c #414139",
"X  c #494141",
"o  c #414141",
"O  c #494941",
"+  c #494949",
"@  c #414949",
"#  c #413939",
"$  c gray35",
"%  c #595951",
"&  c #596359",
"*  c #596363",
"=  c #636359",
"-  c #636A63",
";  c #636A6A",
":  c #6A6A6A",
">  c #6A726A",
",  c #6A7272",
"<  c #63726A",
"1  c #637272",
"2  c #666A72",
"3  c #727B7B",
"4  c #515151",
"5  c #495149",
"6  c #495151",
"7  c #515951",
"8  c #515149",
"9  c #596A63",
"0  c #596A6A",
"q  c gray39",
"w  c #595963",
"e  c #515959",
"r  c #516363",
"t  c #393039",
"y  c #596351",
"u  c #516359",
"i  c #414941",
"p  c #394139",
"a  c #515949",
"s  c #4D4D39",
"d  c #393939",
"f  c gray13",
"g  c #465141",
"h  c #182121",
"j  c #495951",
"k  c #212828",
"l  c #283028",
"z  c #0F1818",
"x  c #2D2821",
"c  c #413930",
"v  c #393028",
"b  c #727272",
"n  c #72726A",
"m  c #727B72",
"M  c #7B7B7B",
"N  c #7B837B",
"B  c #728380",
"V  c #7B8585",
"C  c #494139",
"Z  c #6A7B72",
"A  c gray19",
"S  c #180F0F",
"D  c black",
"F  c #282830",
"G  c #282851",
"H  c #18180F",
"J  c #0F180F",
"K  c #000018",
"L  c #516351",
"P  c #393930",
"I  c #2C2646",
"U  c #303028",
"Y  c #181818",
"T  c #181851",
"R  c #282828",
"E  c #59636A",
"W  c #495959",
"Q  c #595151",
"!  c #595159",
"~  c #595149",
"^  c #303941",
"/  c #050508",
"(  c gray6",
")  c #1C2130",
"_  c #636351",
"`  c #596A59",
"'  c #393D46",
"]  c #635951",
"[  c #595949",
"{  c #181824",
"}  c #514949",
"|  c #635949",
" . c #414151",
".. c #131330",
"X. c #635959",
"o. c #414130",
"O. c #635151",
"+. c #372828",
"@. c #6A5959",
"#. c #6A6A63",
"$. c #635149",
"%. c #2B2121",
"&. c #636A58",
"*. c #515141",
"=. c #493939",
"-. c #513939",
";. c #514139",
":. c #594139",
">. c #514141",
",. c #514941",
"<. c #554130",
"1. c #594141",
"2. c #634949",
"3. c #634941",
"4. c #6A4941",
"5. c #635141",
"6. c #6A5141",
"7. c #6A5149",
"8. c #6A5051",
"9. c #6A4949",
"0. c #6A5951",
"q. c #6A4939",
"w. c #724941",
"e. c #72504B",
"r. c #6A4139",
"t. c #725141",
"y. c #6A6359",
"u. c #63636A",
"i. c #724139",
"p. c #814537",
"a. c #724939",
"s. c #6A6363",
"d. c #596349",
"f. c #724130",
"g. c #30280F",
"h. c #634141",
"j. c #634139",
"k. c #6A4130",
"l. c #6A4141",
"z. c #594941",
"x. c #594949",
"c. c #1C2113",
"v. c #414128",
"b. c #6A7249",
"n. c #6A6A41",
"m. c #727B51",
"M. c #838363",
"N. c #A9A19C",
"B. c #6A7241",
"V. c #595930",
"C. c #6A7228",
"Z. c #515930",
"A. c #636341",
"S. c #594951",
"D. c #494921",
"F. c #514C30",
"G. c #515941",
"H. c #493930",
"J. c #635963",
"K. c #515159",
"L. c #304139",
"P. c #494930",
"I. c #394130",
"U. c #515963",
"Y. c #72727B",
"T. c #722815",
"R. c #772113",
"E. c #702E21",
"W. c #733028",
"Q. c #703933",
"!. c #753928",
"~. c #7B3930",
"^. c #513924",
"/. c #595941",
"(. c #7B726A",
"). c #832821",
"_. c #8C180F",
"`. c #8C210F",
"'. c #8C2118",
"]. c #8C2818",
"[. c #8C3028",
"{. c #8C2821",
"}. c #833028",
"|. c #832818",
" X c #832116",
".X c #7B2821",
"XX c #414930",
"oX c #8C3928",
"OX c #931808",
"+X c #931C0F",
"@X c #932821",
"#X c #933221",
"$X c #8C3021",
"%X c #833021",
"&X c #6A6A59",
"*X c #8C4139",
"=X c #933028",
"-X c #933930",
";X c #833030",
":X c #7B7B72",
">X c #494130",
",X c #635159",
"<X c #932818",
"1X c #8C3930",
"2X c #833930",
"3X c #8C4941",
"4X c #933928",
"5X c #9C3930",
"6X c #934139",
"7X c #834C41",
"8X c #8E504C",
"9X c #A64136",
"0X c #9C4136",
"qX c #835149",
"wX c #837D75",
"eX c #636A41",
"rX c #B3554D",
"tX c #A24941",
"yX c #932118",
"uX c #838383",
"iX c #635941",
"pX c #935141",
"aX c #283941",
"sX c #8C4130",
"dX c #9C3028",
"fX c #8C9393",
"gX c #494149",
"hX c #2B3939",
"jX c #634939",
"kX c #930F00",
"lX c #8C1608",
"zX c #930F08",
"xX c #934130",
"cX c #8C4939",
"vX c #2C303B",
"bX c #8C8C7B",
"nX c #737B6A",
"mX c #595141",
"MX c #415149",
"NX c #393B21",
"BX c #303928",
"VX c #2E3B30",
"CX c #2E3021",
"ZX c #212821",
"AX c #3D4939",
"SX c #283030",
"DX c #413427",
"FX c #39210F",
"GX c #634130",
"HX c #495963",
"JX c white",
/* pixels */
"  . X o o o o o o o o o X X X O O X O O O O O O O O O O + O O O O + + + + + + + + + X X X X @ @ + O O + O O X o o o o o o o + # ",
"  + $ % $ & & & * = & = & & * - - - - - - - - - - - ; - ; ; ; - ; ; ; ; ; ; ; ; ; ; : > , : ; , , , > , > < > , , > 1 ; 2 , 3 4 ",
"  + o O 5 5 6 7 7 7 7 8 5 5 8 7 7 7 % & $ $ $ $ & $ & $ $ $ $ $ $ $ & & $ & * * * & - ; ; - 9 ; , ; ; - 0 - q * & w e e r 9 , + ",
"t O 5 5 6 5 7 7 7 7 7 7 6 7 7 7 7 $ $ & & & $ y & & $ & % % $ & & & $ & $ * * * q * q ; - - ; < , ; ; ; - * * & w & u e y = , + ",
"  i p i @ a 7 7 7 7 7 7 7 7 7 e e $ & $ y & & $ % $ & % $ $ $ $ $ e & $ $ & & & & q * q q q ; ; : ; ; ; ; - 9 * & * * e i s e + ",
"t d f ; g 7 e % % 7 7 7 7 7 e $ $ & $ $ % % % & & % & $ & & $ 7 $ $ e $ $ $ & * * q q q * q 9 ; 2 ; ; ; - ; * & * $ & + h ; j + ",
"  @ k l @ 7 % & % 7 % 7 7 e 7 e & $ & & $ % % $ & $ & & $ & $ e $ e e u e $ & * q * * ; - ; ; ; < ; ; ; * * & * * & $ . z x 6 + ",
"  8 5 i 5 7 7 $ & y 4 a 6 4 4 7 4 7 7 4 8 7 4 7 7 7 7 4 7 4 6 4 4 4 4 7 4 e e $ $ $ e $ & $ & & * $ & $ 6 e * * * & $ c v d & + ",
"  % 7 8 4 7 e & $ 4 5 : b b b n b b n n n n m b m m m m m m m m m b m m m 3 M M M M M N B V V V V V V > 4 6 * * * & * C # g ; + ",
"  y 7 7 7 7 & & & 5 + Z & & & & & & & & & q q & = & q & & & & & = - - - - - - - - - ; ; ; ; ; ; ; ; - < 4 6 * * * * & O + j , + ",
"  u % 7 % e y & & 7 5 > & 5 5 i + + 5 + 6 - 7 5 - q & q g O & = 4 + + @ @ @ 5 4 ; ; 4 6 > , , , , , 2 , 6 6 * * * * * * 4 e 3 + ",
"A & y % % y $ & & 5 5 > & S S D D D F D G & H D & q & & J D & * l F D K D D D z & * A F ; ; ; ; ; ; 0 < 6 e * * * * * * e 9 3 + ",
"  - & % L $ & $ $ 7 5 > $ J D & & & $ $ & & P D = $ $ $ I D $ & U D @ & & & & & * - d G $ ; - 0 - ; ; , 6 j 9 * * * * * e * 3 + ",
"  * & & & $ & & & 5 5 > & d Y & & & & = & = d D q & = & t T & $ R T o $ & & $ $ * q S D ; * E * 0 ; 0 < 6 W * * * * * * $ 9 3 + ",
"  9 & & & & & & & 7 + > $ J D & & & & & & & J D Q % y ! Y D ~ $ ^ / O y ! % & * * * z D 9 * * - ; 0 0 < 6 6 * * * * * * * E N + ",
"  ; - & & & = & & 5 5 : & R ( J U ) ) k Q y Y D y _ Q y J S y Q R ( D D Y D P Q y * Y f * 9 9 9 9 9 9 ; 5 6 * * * * * * * 9 3 X ",
"  - * ` & & y & % 5 5 > % Y Y l l ' R l * y l D ] & Q [ R { % % l D A o X o X & % _ R f y * * * * & * - 6 6 9 0 9 E * * ; 0 3 + ",
"  - ` & & = & & y } 5 : & R D * y w y % y w f D y | _ $ J D $ $  .... % % % y $ q $ f D w * 9 * E E * ; 5 j * * 0 * E ; ; ; 3 X ",
"  - * & & & & & y 8 5 , & z D y w y % * % y R D . % ] } D S Q % ' T . % % $ X.X.$ = A D $ $ * & 9 9 0 < 6 6 * * E E ; ; ; ; 3 + ",
"A - 9 & & y _ & & 8 5 n & H D & % % y % % % 8 T ( # o.^ D o $ O.# ) f R +.d o d @.@.A D o @ i o R @ * ; + 6 * * E ; 0 ; ; 1 3 X ",
"  9 ` = & & & & & 8 } #.$ A S Q % O.Q O.O.Q O.O F D D G d X.$.O.X S ) I S S %.A X.X.+.z S Y f h f i * q + 6 * * E * E * 0 > 3 + ",
"  9 &.& _ & & & & *.O % y X.y _ X.O.O.] ] ] ] ] ] ] | | ] $.] | ] ] $.| O.] X.@.@.X.X.X.X.X.X.q = * X.r + + * E * * r * * 0 Z X ",
"  - = = & & & e % 4 O C X X C X =.X C C X -.C ;.-.;.;.:.-.;.;.-.;.-.;.;.;.;.>.>.>.X >.X X X X X X X + + + 4 * * * * * r * E , + ",
"  - & = & y & & y : + X O o X X ,.s >.,.;.>.;.;.<.<.-.;.:.;.:.;.:.;.:.:.;.;.>.>.1.>.>.>.>.>.O >.+ + + + } ; $ * * * * * * 0 , X ",
"  * & & & y 7 y $ 4 % % Q % O.] | O.| $.$.2.$.3.$.2.3.4.5.4.6.4.6.4.6.$.7.2.7.8.] O.O.O.O.] ] X.X.X.$ $ $ $ * $ * * * * E E , + ",
"A - - & &.& _ % y % % Q % ] % | O.$.$.O.$.$.5.6.4.6.4.4.4.4.4.4.4.9.9.7.7.7.7.7.0.$.| O.] O.O.] ] $ X.$ $ X.$ * $ * * * * * ; + ",
"  q & - & y % y % % % % ] % [ $.$.$.O.$.5.7.4.4.4.4.4.4.q.q.4.4.4.4.4.w.6.6.e.7.e.7.7.7.O.O.O.] X.] w = * * * * w 0 0 0 * * ; X ",
"  - - & &.& [ [ [ % % % % | $.~ 3.$.5.7.4.q.4.4.q.q.q.r.q.q.q.4.q.4.w.w.w.w.4.w.t.e.e.e.O.7.] X.0.X.y.= q q * q q q ; * * * u.+ ",
"  - - ` y % & [ [ ] ] $ | 2.3.2.5.3.4.4.4.4.q.q.r.r.r.i.i.i.i.i.i.p.i.a.a.4.w.w.w.w.e.7.e.8.0.8.@.@.@.@.q s.q s.q q q 0 * * q X ",
"  - u d.$ y % % $.% X.| $.5.$.$.5.3.3.3.q.q.r.r.r.i.f.f.i.i.i.p.i.i.i.i.i.i.a.a.w.4.9.9.7.7.8.| 8.] ] ] _ = X.& w & E y ,.s * O ",
"  & g.0 8 4 ] ] O.] $.$.5.2.5.5.4.3.3.3.3.h.j.r.r.r.r.k.f.i.r.r.r.r.r.r.r.r.r.l.h.3.3.z.z.x.$.$.| $.O.O.] X.X.X.X.w $ + c.u.* + ",
"  $ %.c.d.$ % ] % $.| $.3.5.5.4.4.3.z.,.z.z.1.:.:.j.j.j.j.j.j.:.j.:.j.j.j.j.j.j.h.1.1.z.} x.x.2.2.$.O.O.O.] X.$ X.$ $ + +.R - + ",
"  * v.. ~ % % ] ] | x.2.$.2.}  .| b.n.m.M.N.M.M.B.m.B.B.m.m.M.m.V.m.C.V.V.V.V.s Z.A.V.A.Z.&.O -.3.2.$.O.O.] X.X.X.$ $ %  .O , + ",
"  > S.~ * $ X.% Q $.~ ~ 2.z.+ ^ 2 d s A.A.m.A.m.B.B.Z.A.B.B.A.A.m.A.Z.,.y._ y.D.F.B.G.Z.G.B U H.3.2.x.$.Q O.Q X.$ J.$ K.e E , + ",
"  1 ; ; w & $ Q | ] 2.$.3.z.+ ^ L.R P.o.c o.o.c I.P o.o.o.I.o.v.c o.o.v.o.o.o.o.I.c v.P Z.R R c 1.x.z.2.O.O.] ] X.$ X.$ U.9 Y.+ ",
"A 1 y * & X.X.X.] O.$.x.2.z.+ ^ a Z.y.T.R.E.E.E.W.W.Q.!.W.!.W.!.W.E.~.~.~.~.W.W.E.E.W.^.v.O P.v ;.z.z.$.2.O.O.] X.X.w J.* E b + ",
"  0 * $ = $ ] X.$.$.~ 7.3.3.+ ^ /.[ (.)._._.`.`.'.].).[.{.}.[.).).|. X{.[.[.}.).)..X.X~.XXF.XX+.;.z.1.3.$.O.O.% X.w X.$ w w , + ",
"  * ` w % X.] [ ~ ~ $.7.2.3.+ ^ /.V.(.oXOX_.+X'.`.@X@X{.oX{.[.#X{.$X`.`.{.[.[.[.%X}.).p.&Xs v.U -.1.3.2.$.$.Q O.$ X.$ w w 0 b + ",
"A * w & X.% ] | $.O.$.4.4.3.+ ^ d.A.(.*X`.`.`.'.{.'.=X$X[.-X{.[.$X{.{.`.`.[.[.oX;X}..Xp.:X>Xv.+.;.3.3.9.9.$.O.,XX.J.w w w - , X ",
"  * % * $ ] X.] O.O.7.7.2.3.+ ^ /.G.(.*X{.'.].<X@X=X$X-X[.[.-X{.[.{.].@X_.`.=X1X[.2X}.p.:XX XXx ;.3.3.2.7.$.,X,XX.J.J.w * * , + ",
"t 9 & $ % X.$ O.O.O.$.9.9.3.} ^ A.V.(.3X{.$X=X@X=X4X5X-X6X[.1X-X{.[.<X<X@X_.'.=X1XoX2X7X:XH.v.x ;.h.3.9.8.8.O.,X] $ X.$ $ $ , + ",
"t - $ $ $ X.X.] O.O.5.9.3.3.} ^ /.[ (.8X[.[.=X=X5X9X0X0X-X6XoX1X4X{.=X'.].{._.].1X1X2XqXwX>Xv.%.-.3.3.7.8.8.@.@.@.y.s.u.; : , 4 ",
"d - = $ $ O.$ $.$.$.$.4.4.3.+ ^ eXG.(.3X*X[.4X-X9XrXrXrXtX-X*X[.[.=X{.=XyX].{._.{.[.}.8XuXX v.f =.h.3.7.7.| ] ] X.* q * $ = , + ",
"t = $ % % X.] [ ~ $.5.4.4.1.+ ^ iXd.(.*X[.6X6X5X9XrXrXtXtX6XpX*XpX#X1X].$XyX'.'.`.].[.8XN.H.XXf C 3.3.4.2.$.O.O.] X.* & q * , + ",
"t ; y.$ $ ] Q $.$.2.3.3.h.1.} ^ eX0.(.p.{.-X6X0X5X9X9X9X0X6X*X1X1X$X{.'.'.{._.`.'.`.|.8XN.X v.f =.1.h.2.2.$.O.O.,X& q q q u., + ",
"  - X.X.$ ] % ~ ~ x.2.h.h.h.+ aXeX[ (.sX].{.=X6X5XdXdXdX-X1X1X1X2X1X{.{.`.'.]._.'.`.|.3XfX>.v.f =.1.h.h.3.3.Q O.] q s.u.q - , X ",
"t ; q q $ ] O.| $.x.4.4.3.z.gXd eX0.(.1X`.`.yX#X-X=X@X#X=X1X1X2X2X}.}.{.{.'.'.<X_.`._.p.fXH.v.f =.z.1.h.3.2.x.x.~ q * q * * > X ",
"  q * $ % % X.| x.2.~ 4.h.1.+ hXiX0.(.oX+X_.`.yX@X=X@X<X@X$X1X1X2X2X}.%X].'.`.'.'._.`.2XuXH.XXf >X1.1.h.3.z.2.~ $.,X$ q w 0 , X ",
"  q X.* $ X.] % | ~ 3.jX3.3.+ d A.0.wX[._.OX_.OXOXyX#X@X<X{.[.1X2X2X}.}.).].`._.`._._.*XN H.v.f =.1.:.3.3.2.x.S.! O.w q * q , o ",
"  * - % % O.% O.~ ~ 2.2.h.3.+ hXB.0.(.[.kXlXkXkXkXkX+X@XyX'.{.{.1X2X2X}.).).'._.lX_.OX1XuXH.o.f . 1.z.j.2.x.x.~ Q % X.* s.: m o ",
"  - & & X.% Q % [ ~ ~ 5.3.z.+ aXA.0.wXoXzXOXOXOXOXOXOXyX<X'.].$X[.1X2X2X}.%X{.'.`._._.[.uXF.P f =.z.1.z.x.O.Q % X.X.& q q s.m o ",
"  - - % y 4 Q % Q ~ x.x.z.x.+ hXn.8.(.qX$X$X4X4X4X4X4X4XxX6XoXsXcXcXqXqX7X7XsXsXoX%X|..Xn H.XXf C 1.z.x.2.Q Q $ $ U.J.$ * 1 N o ",
"A #.* * 4 Q % % ] ~ x.~ x.z.6 vXbXL.nXnXnXnXnXM.bXM.M.bXM.bXuXM.M.M.M.M.M.M.M.M.M.M.&.Q $ H., f X z.x.z.x.Q Q $ $ $ e 4 7 - m o ",
"  u.y Q e 8 4 $ Q ~ mXz.z.x.@ vXL.l Q _ _ _ _ 0.] q * 4 4 8 g O 5 5 5 i O d . >Xc c v v c i R f C } x.x.x.S.% K.$ K.e } C K.b o ",
"  ; @ ; 7 7 Q ~ ~ Q 8 ,.z.>.+ hX*.*.*.[ | 0.[ & U.@ 5 5 g i 5 5 6 5 MXi i d P P P NXc BX>Xv +.+.C x.x.x.~ % Q Q K.! K.P.c O > o ",
"  * VXf 4 % % Q Q Q ~ 8 z.,.} d d l R R R k k k l l k k k R k k CXk U l ZXZXf f ZXk ZXf ZXx v # X z.z.z.~ Q 4 ! Q 6 4 >XS U ; o ",
"  * @ I.+ 4 4 Q Q 8 8 *.} z.,.} + X o =.. o . o o o O AXAX. o AXX C C . d . d P d P P SXd . C ;.>.z.x.~ ~ Q 4 Q 6 4 6 DXFXv * o ",
"  * e 5 + e 4 4 7 } ,.} ~ } >.,.+ ,.,.} } } } z.z.x.z.*.*.z.~ *.z.z.z.z.} mX} } 8 8 5 4 } 8 8 ~ x.1.mX~ Q 4 7 4 4 4 W X # i ; o ",
"A - e e 7 4 e 4 4 8 } ,.} } x.} z.>.1.z.z.3.h.h.j.j.q.j.q.k.j.r.GXr.r.j.3.3.j.h.h.j.jXz.z.z.z.z.z.~ ~ Q 4 Q 6 6 4 6 W 6 5 + - o ",
"  ; * e W e 8 4 4 Q 8 z.,.,.,.z.,.z.z.1.z.3.3.h.j.h.3.4.jXr.j.j.r.j.h.r.4.4.4.l.h.3.3.x.2.z.z.,.z.~ ~ 8 4 6 Q 6 6 W 6 HXe r , o ",
"  ; u e 7 e e 4 u 4 ~ ,.z.,.,.,.,.z.1.z.z.2.3.3.jXjXj.l.4.h.j.h.h.3.4.9.l.3.5.4.3.2.2.2.x.x.z.~ Q Q 4 Q 4 Q 6 6 K.6 U.e r E b o ",
"A ; * u e j e e 4 4 8 ~ } z.,.z.x.x.mXz.z.h.z.z.2.2.3.6.5.4.3.3.5.9.7.$.$.3.2.2.x.3.x.x.x.mX} 8 } } } 5 4 6 6 W 6 HXU.r U.; 3 o ",
"  ; q * * * * * * 0 q E * * & & * * * * * * * q * * * E - * * E q - E ; * E * * q * q * q * q * * * * * * * E * 9 E 0 2 1 , 3 o ",
"  # o X X o X X X X o X o X o X o X X o X X X o X X X X o X X X o X X o X X X X o X o X o X o X o X o X o X o X o X X o X o o   "
};
