/* XPM */
static char *result[] = {
/* columns rows colors chars-per-pixel */
"64 64 222 2 ",
"   c #000000",
".  c #020802",
"X  c #080900",
"o  c #000008",
"O  c #08000C",
"+  c #000808",
"@  c #0C0B0B",
"#  c #080000",
"$  c #150D0C",
"%  c #0E160B",
"&  c #0F0A18",
"*  c #0F0815",
"=  c #131313",
"-  c #1A1A1A",
";  c #171716",
":  c #131014",
">  c #290504",
",  c #300000",
"<  c #390000",
"1  c #211C1C",
"2  c #2A1A16",
"3  c #351715",
"4  c #0C2500",
"5  c #0F3000",
"6  c #192A0A",
"7  c #302800",
"8  c #252517",
"9  c #2E300D",
"0  c #180C21",
"q  c #191921",
"w  c #08102D",
"e  c #221A21",
"r  c #251926",
"t  c #1D2224",
"y  c #1B252B",
"u  c #1A203E",
"i  c #232222",
"p  c #292323",
"a  c #292922",
"s  c #232228",
"d  c #292328",
"f  c #2A2929",
"g  c #232926",
"h  c #312929",
"j  c #392929",
"k  c #312423",
"l  c #293028",
"z  c #283223",
"x  c #31312A",
"c  c #39322A",
"v  c #353827",
"b  c #282930",
"n  c #262832",
"m  c #312930",
"M  c #392830",
"N  c #392839",
"B  c #2B3131",
"V  c #2C383A",
"C  c #323131",
"Z  c #3A3232",
"A  c #3A3932",
"S  c #313B3A",
"D  c #3A3A3A",
"F  c #323437",
"G  c #410000",
"H  c #410F08",
"J  c #590D00",
"K  c #510800",
"L  c #491800",
"P  c #59180F",
"I  c #720F00",
"U  c #72080F",
"Y  c #631800",
"T  c #6A0008",
"R  c #512B16",
"E  c #722100",
"W  c #653C19",
"Q  c #413131",
"!  c #423A3B",
"~  c #433736",
"^  c #503126",
"/  c #672F2D",
"(  c #284E08",
")  c #3B4235",
"_  c #494900",
"`  c #514900",
"'  c #595100",
"]  c #416A0F",
"[  c #636300",
"{  c #42423A",
"}  c #4A433D",
"|  c #494939",
" . c #584E35",
".. c #6E5033",
"X. c #383B43",
"o. c #182151",
"O. c #453B45",
"+. c #3B4242",
"@. c #3B4453",
"#. c #3C4161",
"$. c #424242",
"%. c #4A4242",
"&. c #4A4A42",
"*. c #4B4B4B",
"=. c #49454B",
"-. c #524C4C",
";. c #554945",
":. c #4D5346",
">. c #585648",
",. c #4B4B53",
"<. c #554C52",
"1. c #4B5253",
"2. c #4B5858",
"3. c #5A5352",
"4. c #55555B",
"5. c #565855",
"6. c #635A59",
"7. c #665A55",
"8. c #685449",
"9. c #5A6153",
"0. c #64645A",
"q. c #6B635A",
"w. c #6A6B5A",
"e. c #686657",
"r. c #726759",
"t. c #6D6950",
"y. c #5A5864",
"u. c #474E6C",
"i. c #5A6465",
"p. c #5D6F74",
"a. c #6A6A63",
"s. c #666766",
"d. c #726B63",
"f. c #736968",
"g. c #6C7769",
"h. c #727364",
"j. c #73736B",
"k. c #7A746C",
"l. c #74796C",
"z. c #7A7A6C",
"x. c #7B7763",
"c. c #646C73",
"v. c #6A7879",
"b. c #737C71",
"n. c #7B7C73",
"m. c #7A757A",
"M. c #746E75",
"N. c #B5390F",
"B. c #9C410F",
"V. c #93490F",
"C. c #834C25",
"Z. c #CE5118",
"A. c #827A7C",
"S. c #8B6646",
"D. c #7E827A",
"F. c #7D8678",
"G. c #838374",
"H. c #83857C",
"J. c #8C8C7B",
"K. c #87887A",
"L. c #938C7B",
"P. c #93937B",
"I. c #8C937B",
"U. c #7F7881",
"Y. c #817B81",
"T. c #7E8480",
"R. c #858782",
"E. c #868B82",
"W. c #8B8C84",
"Q. c #888A86",
"!. c #938D83",
"~. c #8C9284",
"^. c #8D948B",
"/. c #8A9786",
"(. c #939384",
"). c #94958C",
"_. c #9B958C",
"`. c #969B8C",
"'. c #9B9C8D",
"]. c #989885",
"[. c #929590",
"{. c #949C93",
"}. c #9C9D92",
"|. c #999E99",
" X c #8F8E92",
".X c #A29D8D",
"XX c #A29D92",
"oX c #BD9C93",
"OX c #9CA18E",
"+X c #94A38C",
"@X c #96A296",
"#X c #9DA293",
"$X c #9AA59A",
"%X c #A2A38E",
"&X c #A3A394",
"*X c #A5AA95",
"=X c #ABAB95",
"-X c #A4A59A",
";X c #A5AA9A",
":X c #ACAC9B",
">X c #AAA598",
",X c #B3AE9D",
"<X c #AEB39D",
"1X c #A39DA3",
"2X c #9EABA1",
"3X c #A1ADA4",
"4X c #ADADA1",
"5X c #A9A3A8",
"6X c #ABB5AA",
"7X c #A9B5A7",
"8X c #B7B8A7",
"9X c #B3ACB4",
"0X c #B8B8B8",
"qX c #B3ACA6",
"wX c #BAC7B9",
"eX c #BDC6AD",
"rX c #C6C7AD",
"tX c #C6C6B5",
"yX c #BDBCC2",
"uX c #C2BCC6",
"iX c #BDC1C5",
"pX c #CAD1CA",
/* pixels */
"z.A.K.~.J.K.n.z.k.K.J.G.G.K.G.K.G.K.J.G.J.K.G.0.0.n.J.J.D.~.(.G.K.).).(.J.a.5.w.l.k.F.z.z.z.z.n.z.k.l.h.l.d.w.w.h.z.l.l.l.j.l.K.",
"#X8X*X{.).$X`.K.K.&X#X}.'.#X`.&X(.`.&X#X'.OXOXK.L.$X`.[.&X#XXX>X*X#X|.&XOX(.F.].&X&X4X=X;X&X;X*XXX&X'.`..X'.G.'.}.#X-X*X.X'.W.].",
"=X=X=X%X#X].%X*X&X*X<XXX#X#X'.#X@X'.OX'.OX'.#X-XXX#XXXXX*X#X=X*X:X%X~.W.~.}.%X&X.X5X#X<X}..X&X&X}.}.*X.X'.#X*X-X*X&X'.'.#X`.(.'.",
"4X;X=X*X`.H.R.E.R.E.E.H.K.R.R.E.H.H.R.R.W.H.K.W.E.W.E.E.R.E.~.E.W.W.G.R.W.D.I.'.}.$X4X&X&XOX&X.X).'.%X*X}.}.;X*X#XXX*X#X&X'.'.'.",
"4X4X:X;X XwX{.^.^.{.|.@X@X2X3X2X3X$X3X;X2X2X$X2X3X3X3X2X2X3X2X2X6X2X$X#X7XpXE.].;X&X-X-X&X*X=X=XOXOX*X&XXX}.4X*X=X*X#X_.(.OX).~.",
"&X:X4X}.R.{.M 1 % - - t s D X.+.D a +.F b f f V f n ) - t X.y l +.t X = X.-XR.'.OX}.&X&X`.&X4X}.%X,X>X;X&X&X&X'.>X`.'.`.}.'.'._.",
"XX~.}.;XW.|.O.- p ) %.*.4.i.U.v.v.i.F.c.s.U.y.i.4.2.c.) +.2.+.@.i.+.. . N @XR.#XOX'.&XOX(.(.<X:X=X#X&X&X;X=XXX#XXX;X=X`.}.}.*X-X",
"#X&XOX=XW.|.,.d r 2.2.D 1.5.1.2.i.2.1.1.2.@.+.B D S V g q y y y ; q . . O.@XE.'.&X%X%X}.'.&X&X:X=X-X>X&X:X4X&X#X&X`.XX#X&X&XOX}.",
"&X*X&X&XQ.{.<.f f +.A ! -.s.3.d.m.q.k.6.s.s.&.5.A F %.A 1.f ) ) % V + X O.|.Q.*XXX}.'.%X)._.].>X=X=X&X&X*X;X}.'.].).*X&X_.'.'.}.",
"=X>X*X'.R.|.4.f f t.t.t.>.q.d.h.n.d.8.3.} } c A  .| &.= = - % Q - l + @ =.$XW.XX&X#X}.}.`.{.XX=X,X:X*X:X3X,XOX).*X].}.>X'.&X#X_.",
"=X*X=X%XH.|.y.f h %.! %.;.r.n.n.Q.l.k.7.>.7.A Q >.| { c x a $ - = - @ + O.|.Q.OXOX#X#X-X*X>X#X.X*X>X=X6XqX<X#X&X|.'.:X'._.&X&X*X",
"-X#XXX&XR.|.y.h f >.>.t.x.x.n.D.E.n.f.d.;.e.>.>.} v c ; ; v z { v ) X X *.|.E.;X#X&X#X&X&XOX'.%X#X#X-X>X:X'.OXOX_.XX<X}.}.&X*X&X",
"}.&X=X&XR.{.y.b h >.>.q.3.r.k.T.Q.b.f.q.-.;.~ A | c { - - - @ 8 = 8 X @ =.|.Q.&X'..X'.'.'.`.!.`.'.`.#XXX'.~.].#X;XXX=X*XOX&X_.#X",
"OX%X&X_.R.2Xy.d x >. .6.8.d.z.K.R. XH.z.f.f.3.-.! h &.&.| { A c ; - + @ O.{.Q.~.l.n.n.F.n.F.b.n.n.n.n.H.F.l.n.n.E.}.&X&X*X#XOX'.",
"'.&XOX=X(.{.y.B B e.>.t.;.;.7.d.q.7.7.w.;.;.! A c f { - - v = = $ = @ @ *.{.K.J.@Xg.g.b.b.l.b.b.b.b.b.b.F.g.g.@Xk.).'.`._.#X#X'.",
"XX&X_.%XW.|.y.f f ! ~ %.! ;.f.q.f.r.7.r.t.7.{ ) t. .>.v v ~ 8 8 8 8 X @ =.{.R.W.@X$ - g f s g i g g g f l a - g.b.).(.'.&X=XOX&X",
"%X.X'.XXR.{.y.m f 9. .3.>.w.>.} -.} } %.D 3.:.>.D p g ; ; | v v 8 8 @ . *.|.H.(.#Xe p 2 c k 2 k Z j a A :.) A g.F.).`.`.&X&X#X;X",
"&X&X-X;XH.@Xc.b f 4.y.%.Z ! %.D } ~ ! ! j %.D A $.C A p f B t t - q @ @ =.{.H.Q.@Xg 3 k j 3 c $ ^ ^ $ - 9.:.) F.n.}.&XOX`.&X'.OX",
"#X;X>X;XE.{.y.f p 4.i.*.-.4.4.4.5.4.4.<.-.<.d a f f f - ; - % : . : @ @ =.{.E.).@Xa R > ~ R > 2 8.3 , x s.9.&.F.D.|.XX].'.&X#X&X",
"}.=X*X_.Q.{.y.d i l f F h Z D c O.c c A c D h f j f m g - g = = @ : @ * %.{.Q.).@XC D A <.} D { w.>.>.:.5.9.:.F.n.!.#X#XXX%X>X&X",
"&X>X-X>XQ.{.y.q - *.1.i.U.s.+.i.6.s.m.5.) c.2.2.c.c.1.2.2.+.1.) 2.n . + =.{.Q.`.@XF @.X.9.,.X.) g.h.w.A x :.5.F.k.'..X*X&X-X*X$X",
"'.-X:X4X).^.<.- - ; - t y i p p d i f e e i - q e - ; = = + @ + @ .   @ O.[.R.W.@XV u.w D o.#.w l.G.F.8 a l 5.T.D.&X&X:X&X&X_.'.",
"`..X-X#XR.^.=.; = 1 q 8 i d f d f f s s 8 p t 1 - - - ; : : @ @ @ @   X Z {.E.~.@XS u w 9.#.w y l.F.w.:.; A 5.K.j.)..X%X;X#X_.OX",
".X}.'._.R.).O.; $ @ $ = = = ; ; ; = - - = = $ = @ @ @ @ . . . #   .   @ M [.F.~.@X&.s.g.g.8. . .F... .) ) &.:.F.j.].&X'.~.#XXX&X",
"=X'.+X#XQ./.O.; @ $ $ @ = = = = % = = = $ * $ @ O @ X . . . . o   .   . Z ^.Q.).@X) F.G.g.^ S.L >.C. .k &.&.:.F.z.#X&X}.~.OX>XXX",
"OX).OX}.E.^.,.y.f f f d f r p e e e 1 - q - - - = ; = = : ; = ; - - ; N ! [.H.(.@X) 0.a.h. .W R >.C.R ^ 9.:.| F.z.}.%X-X`.|.;X#X",
"#X`.'.}.R.^.M.9X9X0X0XuXuXuXyXyXyXyX0X0X0XyXyX0X0X0XyX0X0X9X0X0X9X9X5X1X6.{.R.W.^././.^.OXOX/.+X+X+X'.+X$X#X~.3Xn.%X#X:X*X#X;X&X",
"'.`.}.&XJ.|.1X9Xm.A.M.9XyXf.m.m.uX9XA.Y. XpX XA.U.9XyXY.Y.M.0X5Xm.m.Y.9XY.[.~.OXl.l.j.n.D.n.G.F.F.G.G.F.G.D.l.k.F.XX#X;XOX#X`.#X",
"'.#X#X>XQ.wX7X7X6X6X6X0X6X6X6X6XwX0X6X6X0XwX0X6X6XwXwX0X6XeXtXiX6X6X0XwX8XwXR.$X`._.}.&X}.&X&X#X]..X>X-X&X`.~.'.'.`..X|.:X&X'.OX",
"#X'.'.=X(.R.H.W.R.R.H.K.E.W.W.E.R.R.R.W.W.K.K.!.W.Q.Q.H.W.W.Q.W.W.E.H.G.R.E.~.&X#X(.~.}._.'.'.OX&X>X*X}.:X%X}.'._.}.&X-X#XOX`.#X",
"'.OX%X*X).`.OXG.R.&X'.).~.'.#X#X#X`.-X*X-X&X.XW.K.`.'..X*X&X=X*X&X&X_.).^.`.l.].{._.].(.`.'.OX'.%X*X-X#X=XOXz.].`.`.'.&X&X`.'.'.",
"A.F.I.W.H.H.F.z.k.K.K.G.G.K.D.K.D.K.J.F.W.K.F.0.0.A.K.J.H.).J.G.J.(.).W.I.w.5.w.j.l.k.l.l.z.x.A.z.l.j.h.l.a.h.a.h.k.z.j.k.l.z.G.",
"pX0X}.}.%X&X#X'.}.'.'._.]..X=X,X=X*X&X:X,X8X8X8X:X#X#X;X;X:X&X&X>X:X#X'..X|.XX%X:X8X8X:X&X*X*X'.'.'.}.'._..X_.#X-X-X;X*X&X`.J.z.",
"8X>XJ.J.!.J.H.G.H.K.J.L.G.A.G.P.J.L.K.L.(.P.].].(.J.J.^.~.W.J.J.J.W.G.A.K.J.L.L.K._.'.).W.I.K.G.H.H.K.L.K.H.D.D.J.J.K.J.J.J.n.h.",
"8X_.z.f.d.q.0.0.6.0.7.q.e.8.7.q.q.a.6.q.w.j.d.A.k.h.a.a.w.a.a.f.a.0.0.0.q.a.q.q.f.j.j.f.a.r.0.6.0.6.r.f.a.q.q.q.0.6.6.a.d.G.n.d.",
"eX].a.a ~ f s d e r d b b p r f r s q i l B M m j j h f q s p - - v t g d c j d f b v b 1 e f r t s s f p 8 - @ @ r t = c ~.H.d.",
"rXL.d.r                                       X         X       i                         1                             C -XL.h.",
"tX_.r.c . $.X     $..     Z.E   Z.E   Z.E   ] 5   U G   ] 5     f X   O O & & $ o & &     f . U G   [ ' _               =.qX(.x.",
"8XJ.e.m . ;       @       V.Y   V.Y   V.Y   ( 5   K <   ( 5     m X & @ % -         O     b . K <   ` 7 7                .8X(.x.",
"<XG.6.h .                 B.I   B.I   B.I   ( 6   J G   ( 6     C . O @     @       O     z . J G                       &.8X(.h.",
"4XG.5.F . $.X     $..     N.L   N.L   N.L   ( 4   T >   ( 4     v . & @ @ o O O o O O     D X T >   [ ' _               %.8X).f.",
",XG.5.D X @       @       J J   J J   J J   6 5   , ,   6 5     l X   o                   ) X , ,   ` 7 7               %.8X(.h.",
"<Xn.>.M .                                                       a X   Z.E   Z.E   Z.E     v +       o             o     ~ =X(.d.",
"<Xz.3.Z X =.X     $..     [ ' _   [ ' _   [ ' _                 d #   V.Y   V.Y   V.Y     l . & O o O O 0 & o o O O &   } &XL.r.",
"7Xn.3.x   @       $       ` 7 7   ` 7 7   ` 7 7                 d .   B.I   B.I   B.I     h . O - - -   ; - % @ $ - *   { >XJ.w.",
"eXG.5.l .                                                       c .   N.L   N.L   N.L     h . O @ - l @ . @     @ * 0   D >XJ.d.",
"tXL.6.a                   [ ' _   [ ' _   [ ' _                 Z .   J J   J J   J J     j + O % g 5.f         O & &   ~ qX(.d.",
"tX Xs.f .                 ` 7 7   ` 7 7   ` 7 7                 h                         D X O @ @ p %   . $     . O   ! :X(.f.",
"tXL.s.s X                                                       Z X   U G   [ '   U G     D X O - +   :     # @   = o   ! 4X!.f.",
"rX(.w.f   O & o O O o & 0 0 o O @   o O O O   O O   O O & o     v     K <   ` 7   K <     ~ X o *   @ O @ X       @ o   %.8X!.f.",
"8XW.q.b . @ q       f $.s.8                             s o     f X   J G         J G     Q X O @ +         @ @   . O   } 8XW.a.",
"eX~.w.a . O O o   o o O   O O O O o   o O   o O o o O O O O     h X   T >   [ '   T >     D X O & : @ @ - & @ q @ & &   &.0X~.a.",
"rX^.a.V = X X X   X X @ X X X   X   . X . X . X . @ . X X X X   ~     , ,   ` 7   , ,     A X & 0 0 0 O * * O & & O O   ! 8X).f.",
"eX}.s.N *.:.*.1.&.:.-.5.6.6.<.*.%.;.3.%.1.1.1.<.} >.*.>.3.3.;.} ;.X                       f +                           %.8X).k.",
"wX}.j.s i v a h k f k j } %.} h a M Q m 8 f j A m l x B f m D D -..     o o     o +   O   h X Z.E   Z.E   Z.E   ] 5     $.:XW.k.",
"tX_.d.f i f v k k f x M ) =.{ c m m d f h f f Q j j Z Z m A j M 5.. O 3 / ../ ^ H 3 > o   j . V.Y   V.Y   V.Y   ( 5     { ;XK.j.",
"rXP.q.- q f j d a ^ h Q Q ! &.D S f t e x l Z D D h Z Z h A D Z 1..   3 / oXS.C.P 8.3 O   j . B.I   V.I   B.I   ( 6     $.-XK.a.",
"eX!.d.s g z a - e - a A m k D { M A 8 t d p k A j M Z h Z M h C <.    3 / / / ^ H 3 r #   j . N.L   N.L   N.L   ( 4     $.#XJ.f.",
"rX!.w.q - - t e 1 k 8 h f h F V ) C i q 2 r f j f k f h l N j l :.. @       O     O       Z X J J   J J   J J   6 5 #   { =XJ.d.",
"rXP.w.8 i z r y r g f z f n g b A c d t a q 1 m a h f f f B x j -.$ . . @ X X @ @ + X %   *.% X +   . X X + X O % X .   8.:XW.d.",
"rXP.j.M x b f p p i x f h d c C A D a f B b f x f l b l j x F x %.;.! O.%.) { %.} ;.| | A $.=.A h v f f A Z D ! { O.F d 5.8XW.f.",
"8X.XJ.L.!.W.!.J.H.A.W.(.J.J.~.~.I.~.(.W.J.W.K.K.G.E.^.L.!.P.~.(.`.|.&X}.}.(.{.XX}.;X=X%X+X%XXX'.'.P.~.E.W.(.).}.OX_.'..XqX<XK.f.",
">X!.G.K.J.!.L.W.H.H.H.J.G.K.J.I.W.J.L.!.!.(.W.W.E.F.J.K.J.W.W.L.)._._.).W.)._._./.'.`.~.].OX'.].(.J.I.W.W.J.J.!.L.L.W.W.J.H.j.a.",
"!.n.k.j.j.f.d.s.s.q.q.0.e.d.h.j.d.a.q.d.h.k.g.d.a.0.0.w.j.f.f.f.d.k.k.f.d.k.n.x.F.a.a.w.h.h.k.f.a.s.a.w.d.h.h.q.q.w.f.s.q.a.a.a."
};
