/* XPM */
static char *result[] = {
/* columns rows colors chars-per-pixel */
"64 64 35 1 ",
"  c #2E2925",
". c #312D26",
"X c #342F29",
"o c #343027",
"O c #363129",
"+ c #39342C",
"@ c #3E392E",
"# c #3F3930",
"$ c #403A2E",
"% c #433D33",
"& c #464035",
"* c #494237",
"= c #4C463A",
"- c #4E483B",
"; c #524B3E",
": c #564E41",
"> c #584E42",
", c #575042",
"< c #5B5345",
"1 c #5F5748",
"2 c #5F5849",
"3 c #605746",
"4 c #625947",
"5 c #605748",
"6 c #635B4B",
"7 c #685F4E",
"8 c #69604E",
"9 c #676051",
"0 c #6B6353",
"q c #6F6758",
"w c #716755",
"e c #746A55",
"r c #786D55",
"t c #706759",
"y c #72695A",
/* pixels */
"reeewweer6wwee<eeeeeew<eeeyyqwytwyttyytwweeeryeeereeeereeeeweee6",
"wq0079886*6791+878779<O870009900096966706ew009989e0008ww0078896*",
"w086679<;&157=X56<<36-X55651<175667116<1<e0866671w0966e8866771;&",
"e88652<--%66,=O<<567<=X4<75<<<15661<<<<:,e77<<<14e885<e79645<-;%",
"e80555,;=&44>-X<<::<:-X1566-<:;,:;<<2111<e88<,151e8855e90222,--&",
"e77<2<<;;&<6,-X>,<<:<=X1662-;-=;-=;,1<,>,e87<1<<<e77<5e8712<<;:%",
"e88<<<,,,*66>-X<:::;:=X1<11::++X +,5,<:<:w0711156e8976w07<<,,::%",
"w8<:;;--;%><>-X<><:::=o<<,<:=XOO%=y1<:<,;w991<264e8921w0<::--;:%",
"e5;<:--::%<::=X:<,<,,-X15<>>-++**=y<3;;;;e86<1,<<e9716t2:::-;::#",
"6%%%%%%%%%:;==X:;,,,-=o<533<;O+%==y26;4<<r8825<23e06<<6%%%%%%%%%",
"e96<<,<1<<::;=X:,,<,--X5553>;O$%=;y1;476<e062622<e96<<<<<,<:::-X",
"e99<,,:,<><:;* :,;:;;*.2<13;-O+%=;q53;;;;e771<21<e99<,::<,:<::%X",
"e0,;-;--=;>;;%.;--:;;*.<61<,=.$=--y51,,,;e0,-----e0>:=----=:::%.",
"e:==-==-=-;;;%X===;-;%O<551,-.$%=;y5,<4<<r,-=-===e,=--=-==-:--%X",
"<%%%%%&%%%%%%+ %%%%%%+ ,376:-$$-;-q5;<;;,<%&%%%&%<%%%%%%%%%%%%+ ",
"w0772<<<,<<,,=X$@%@%$$%w465,-o$*-=q5<;,,=@@#####%e08555566666:=X",
"e86<5<<<,,,<,;o%*%*=-==e744<-o+%=-w61<<,*%%%&%&&%e86562612555,-X",
"e87<1,,<,,;;-=X$%;;;--;e7<3<-++%=*w6;<;;*@&**==*=e87<22616557==X",
"e06,,,<,,,:,;=X@$;;;;;;e63<4-OO%&=w61;2<=##&=-=*;e0666<1<<566;=X",
"e87<1<,<,,;,;*.$*;;;;;;e73<4-O$%=-w84;;<=&&*=-=-;e7711<1<<::<;*.",
"y9,=-;---;;;;%.%%=:-;;<e63<;=o+&=-y9<<,;*%*-:=-=;e0,;-;--=;,;;&.",
"e:-:-=====;;;%X$%=::;;;w73;3=oO%*=q8<<1;*#*-:--=-e:;--=-==-;;;%o",
"1%%%%%&%%%%%%+ %*;::;-:07<1,-oO&=-w8<<,,=%=:-=-;-1%%%%%%%%%%%%+ ",
"q766751<3<<,,;<rryyywwyt6,<,-oo#--w6<22,2tyqwttty1<5<<115<,<,<:%",
"y666511<111,>><;7709900q0<<,=oo#=-w6<41<7999900q992512<53<<<<<,%",
"q7615<<2<1<<<<<3<751<45556<,=oO%==08;614765<566657125<5<55<<,<:#",
"q922<55<<<<<<<3;<::<<;;,,<1,=oO@=;q8<<<<5653>1<>21,<1<<;,<<,:<:@",
"y971;,,;<:<,<33<::,:;,4;,:;==o+&=-986<;,>>>35<<::::;<<,:,--:><:@",
"0761;-=;=-==----;=;==;;;;;;;=XO%=;75-=;=-*------=;==;;-;;;<;>,:@",
"075,,;o.XXOOOO++O+X +++OO++++.+&=-<ooo.XXXoOO+X++O ++O+O+>6><<;#",
"q611;-+XXoOoOOX++O+++oO+o+oO+++%==*o+Oo++++X+$$@@@++++oo.w6<<<:+",
"t741,;+o%*%$$$$%%*&&%%&*%*&%%%%&==-=%%%***%=%=****&**&%%*q7,<>:+",
"w95<,=+****&$*&&*-==--------==-===*&*&*------------=-==**q6<;;;+",
"y5663;+;====-**=-&=;-;,,;;;==;=-==-*--=----:-:--;-:----=*y64;,;$",
"y<36<;;eqywywyyyyyyyyyyyyyyyw5==-:qyyyyqwyyyyyqqyyyyyyyryy6;;;;@",
"y6,4<,7762665155<1<1266651595@+-*-q667266622121111127694229<==;+",
"y9<<1;44<<<,::<<:<<<<161,125-++*=-y22<1<,2,,:,::1<<<261;4443;;;+",
"y77<;<1;<<<;,1<<212<1,<1<7<-;+O%--y115<1<1,,<:::-,,<41<<:;;;;;;+",
"w711<<<,,<<<::<<2:,<<,1<;<<;;++*&-r2;6;1,,,::,:::::;;<14<,,;;,=+",
"y5<,,<;<<<<11<<1,-;,;;;;1<1;;+O*=:y94<<;=::::,:::::,;;;;<<,<<;-+",
"y1<<,<<,<<<<<,<-====*==17;3;;++$=-y66<<<=-*=:&&:*,,,-;-,,;;,<<;+",
"reeeeeeeereeee5##%%%%%#q444<;++*=:t92,,,-#@#@@@@@reeeewwrerreer,",
"wq00708899667<O%&*&%&%&y7;74;o+%*-y1<<<;=#%%#*##@eq00707899677<+",
"w08656746<<27=X@&---===y7<3;-++%==y1<1<:=%&==*==&w08666756,156=X",
"w87<<<<1<,57<=X%%--:---t733;=+O*=:y1<1<:=#&====**e98<111251<<<=X",
"e70<<1225576>=X@%=:--:;t8;3;-.O$&:t111:<:#%*=:-&=e89,,65765<1:-X",
"e77:<2225553,=X+%;--:-;q734;-X+*=:q1:,:;*%=&*==--e86<<<<15556,-X",
"e091<<1557<6>-X#%-::::;0736;-++*=-q1<<::=%=:::-=-e08<1<,27777>=X",
"w8711666<511,-X$&=;::::q634,-o+%=:y5<<<,-&&=--*--e88611166666;-O",
"reeeereerrewee<ereewee656;3<-X+%=;y5:<2<2reeereeereeeweerrereee<",
"eqq8988999567<+777667<O15<6<;O+%&=w5;554,yw007889eq007889994671O",
"008666616<147=O16<<57=X5<3<5;oO&-*w6,,<<,w0865694008866925<156=O",
"e88511576766,=X551<1<=X55551;XO%==w64<,;,e96<;<<,e77512567667,-X",
"e80524615555:=O<6<><:-X1<<<>=XX$&*y6;,,;,e88864<<e80555615551:-X",
"reeeeeeee636<=O11<<<,-X1<<<<=X+@&*06<;;,;e8861464e77<5rweeeeeer5",
"e00090866*66:-X<<1<<>-X<<,<:-XX$#*y6<,;;:e085555<e0775wy0070796*",
"w0776671;&:<:-X<<161:-X<<,;<;o.**-e6;;;;;e8857665e075<w0877671;&",
"e87511<=;%:::-X,<111:-X,;;3<=,0wqye84<<;;e8777995e86<4e78555<=-%",
"e79561::-%,:==X<<1<5-=X:3<<;;66866883<;,:e0622565e071<e80552,--%",
"e7911<<-;%,:;=X21576;=X;;;<;4;<,<1;43;<<;e971<566e97<<w77<2<<::%",
"e88<<>::>%<::*.<5555;=.;;;,;:-:::;::;;-;;e871<251r97<<w09,<::,,&",
"w8<::;-:;%::;&.=-->;;%.;<,<,<-;:;:;;;;;;-w0,--;--e8,--w0<:::--:%",
"e5;,:--::%;=;%X-=-;-;%X::;<;:;,:-:;=---;:y:-====-e,--=y2:::=:::#",
"7%%%%%%%*%%%%+ %%%%%%+ *%%@$%&*+#%&%%@$&%1%&%%%&%<%%%%6%%%%%%%&%"
};
