/* XPM */
static char *result[] = {
/* columns rows colors chars-per-pixel */
"64 64 80 1 ",
"  c #263E53",
". c #313F52",
"X c #2B4257",
"o c #2C445B",
"O c #2C485E",
"+ c #344454",
"@ c #3B4554",
"# c #32465C",
"$ c #34495E",
"% c #3A4B5D",
"& c #2D4661",
"* c #2D4A63",
"= c #2E4D68",
"- c #314762",
"; c #354C63",
": c #394D63",
"> c #364F69",
", c #394E68",
"< c #375166",
"1 c #3B5266",
"2 c #36536B",
"3 c #3B556C",
"4 c #37586E",
"5 c #3C596D",
"6 c #365671",
"7 c #3D5671",
"8 c #365973",
"9 c #3C5B73",
"0 c #3D5E79",
"q c #3F6075",
"w c #3E607B",
"e c #434E5E",
"r c #4C535F",
"t c #435163",
"y c #485364",
"u c #42576C",
"i c #435A6C",
"p c #4A5C6D",
"a c #405672",
"s c #435C74",
"d c #495F73",
"f c #435E7A",
"g c #446175",
"h c #4A6275",
"j c #45627C",
"k c #4B647C",
"l c #4E697F",
"z c #546575",
"x c #5A6677",
"c c #5D6A75",
"v c #52667B",
"b c #546A7E",
"n c #596B7D",
"m c #5F707C",
"M c #626E7B",
"N c #62727F",
"B c #6B747D",
"V c #466582",
"C c #4B6681",
"Z c #466885",
"A c #4D6A84",
"S c #4C6C89",
"D c #516781",
"F c #536C83",
"G c #5A6E83",
"H c #536E8A",
"J c #596F88",
"K c #567085",
"L c #5B7186",
"P c #55728C",
"I c #5B738B",
"U c #5C798D",
"Y c #577490",
"T c #5D7691",
"R c #5E7890",
"E c #626F81",
"W c #627284",
"Q c #6D7480",
"! c #61778B",
"~ c #61788D",
/* pixels */
"o XoX#:afjCkFFJWKh33%<O1%+@%afkjDLLLKbpu513*$#$;;,sdhvnLIUIFg543",
"&X###+;afffkvFJLKg55%1@1%$+%udddknGGGbdu553;%#$$$35shvKKmLIb5952",
"O####X,affjlvbnnbs3511%%<$+$asdkvnnnKKd5754;%O$#;3sshbKIKPFv9552",
"oX$###,sffkFFbvvFj941<$$%*+%affClnnJUIvi753%%$$$;5shvFWIIKFA994<",
"&#$$-#tfhjjAGFlhvg5442$$$#+#5gjvknmLLKhi553;%+#$;3sdzDL!IIKls554",
"oXO#-#,kChCAGFGWWj554<<%$##$7sdjknLL!Lhgi51;%$%;:3fhhvLLJFIl594<",
"oXO##:,ffjjFGGGBWh594<$1$+$%skjCknLLLLvi5i3$:$;$;3afhb!IIFKCq952",
"oXO$$$,sfCCFIGFWKqqg52%%$$%$7fdCbnKmUKhg9i5,:$+o%3sshn!IIIKl9542",
"oo####,sfVCFGGFBWg5i541%%#%-afjknnGLLIk9q97<1;$$%3ahhkLIIIKAs554",
"oo####:ffVSFFFnBLg95i11%:+##ajClvGLmWIvgs55;;$$#:3shvGIITIFAs944",
"&o#-#o,sjCDHFFvMKgq5d1$%%X##ajkAvnWmLnh4353;<%%%:39hvlI~TTIFg956",
"Oo##o#,sfCDFGnxMPh521<$%%###afVklnLLLzg5353;%O<$;uggvbKUIIIFg994",
"&Xoo#-,sfjCAFbzcFg4231@e+#%#ajlCbnmLKng5352%<$%;,5skhlnIIIIFg906",
"OXoo&.;7ffkFFAxxFg945i#:%#;;sjlklGnPKFh1<52%<;;;:ishvbLUUUIls996",
"oX#o.&>70fjCFAxMFj9gpi;ee-#:akvfknnnKbp1553<;;;;:ufhkKLIIUIFj902",
"Oo--#&>7VfCAFFbMKg95zp%y@##:afDDAnvFbkgi55<%;:;%;3fhvFLIIILSjf82",
"OXoooo;sjjZFKFvEJj5453%e.-%-ufkDlvFGGksu142;;;-$:5skkbLUI!ISg986",
"Oo--#$,fVCZSFFvMJg7553%ye;e#afCfkbFGnGh5552;:$::,afhklIITYIAj926",
"*O;;--3fCjASFPFNFj73p31e;##eyfCvhFGKLvp51i3;#@;;;7ddkFIITYYSw882",
"**;;;;7fVZASPSFFA0945<%%;@:;uvCCCxnLGFdiii3-;#$$:7sdkFGIIIYH0886",
"**>;;;,fjVSHJPFGPq99g11%e.e:sjCklnGLWnha333;;#-$;3sdkFITPIPC8806",
"=-,;>:7VVVCFJHHGLg44p5%%:-;%ajllCbKKGng5i53*-###:ufdkFIIIIPC8986",
"=;,,2,7VZCCSFHSKPg9452;<;-::ajCACGKLKKk5395;:;%##5skkKI!IIJS0006",
"==,32;3jVSSHHHHFFgq44<;%e:::aVCAFJLWLKg9554;:#-#:5sdhnKIIFTSf086",
"=<<22>7VZSHHPPFFA099s3;:,::,aCHFFEWJWGg9994*%;;:,usshAJJPPPS0086",
"*;<;,39VZSSHPPPIP09875<3:::,sjCCFGIIIIks594;;;:::3shkAJJPIHSq008",
"=O<2,;,VVSSYIPIIPj99s5;ue::,sCCCFGK!UPjq599;1;;,;3sgkFJTIPPC9006",
"=-,,,,6fZSSSYHIIPjqqds;1:;:udCAAFnK!UPk95q6<;;;3,3skkFJYPYPZ0008",
"=;3;,17VZZSFKFJJPjq9gs;u;#$:sDHHGnIULKk9994;;;->;77fkJJYPPPSw006",
"=;;;3;sVZSSSFFFFHjqqs4;1e,;,fZCAFLJR!Kks493--=;;&>,kjFHHPYYZ0086",
"*;<,,;3VZSHFFDDFSjqgf7<1t;:>fCSAHG!IUPj9994*-*---6sVkCHPYPSS0086",
"=-;3127CSVZSHAFFlKgw93;2,,;,aVHFGIITUPl9534&&&---6afVZSSYYPSw008",
"=*;;,67fVZSFJHJblbgggg1yyt:,sDFSLGIISPjq554*o&;-&>7fjCHHYPPSww08",
"=;;,,,7VSVSSSAFFlKkq93;<:>::ajSFGI!RRPl7554&&o-&&6sfVCFHYYYSw088",
"*>,1,,7VZSSAFFFbSj9jg7>1:,,>fZAAFL!RIPj9944*&*-*-6sVkCHHYYSSw088",
"=-;<1;aVZSSSFvFFKws9s4;3t,;,fCSAFJJIUKl9983;=*;;->7jCCSHHYPZww86",
"=>2;:,aVZZHAKFJIUjqqgs;t%##,fDSFFGLUUFk9594;;;;;;6adhFHTPPPSw806",
"=-,,333fVCHHIPIPPwqqgs;t:;:tdCCFFmL!RPks9q6<;;>,,,fjkFIYYYPZ0008",
"**1;>>6VZSSYIPPIPj98s1:u,,:,sDSDFGLILIjq555;,;;,:,akkAJTHPPC0008",
"=;<<>>7VZSSSPPPIKw99s3,,,::,aVCCAGLULPk9994;;;::,asdvFFIIYHS0088",
"=;;3>>9VZSHHHPFHSqq993;1e,,,aVHSFGWIWKk9993;:::,,5sshlJIPPPS0086",
"<=>3>;5VZSSHHHHFHq8922$1::::aCCCFJWJWFj5554;;$##:7shkFJJIJISj806",
"*=13,,7jVCCSJHHJPf955<$<:;:;afCCAGGKJGk5394;;;;@$3ggvFI!JIJS0089",
"*=;<>:3VVVZFJHFFKg45g5%%,.%%afDDvnKKGbk5552;-##$:3ghkFI!IIPC9086",
"*->-;;,fjCSSGPFGPg99p11%@@::fCCClnGKWnh5334%$$#-:usdhFKRYIPA8806",
"**;;->,VVZSHPHFbAq525<%%:%::udCVCbnLKFdiip4O;#$#$5sskFKIIIPS0662",
"*&;;--,VCVSFFPFWFjs5g11%##@:yfCklFGGJbp3133;$#:$;asdhGIIRUPSf866",
"Oo-###,fjVZSFAvmHs5555%r:-e%afklhvFJnGd5353;:#:;,adhkAIUYYYHf866",
"OXOoo#;aVVZHHDDEPg5443<e+-%;ufCCkFbFGhg5142<;;-$,5skkbLUI~IAj986",
"OoO$o&>afVCDFFDMPgq5zp%y@$$;ajDDCnbKGvdi55<%1;;;;3svlnIIIIISqq82",
"oX##.&;00fVCFDxMKgq5hy%te#$:ujkkvbnbFvp5553;:;<%:5shvnIIIULFfs02",
"&X####;7VaVDDDxMAg44ii%%%$-$sjlCbFnLKFp3152%;;;;:afhkbIUIUIbf906",
"*X#o#$,sfjVSFvzxKg44<<%e+##;ajCkAnGLKnj5152%;$;;,5sdvDGIIIPFg906",
"*Xo#o#;sfkCFJFxMKgq44<+%#%##ajCklnLLmvg5552<:$%$;ufkkFKIUIIFs974",
"oX&-##1fVCAFJGbMnk55d1$%%X##ajVAbGWWLGh4542<:$;%,usdkAL~RIIF9994",
"ooOo##:sjCSFFFbBLg55p1%%%+##ajCDvGnmWLkis53<:$$#:33hvbIITIKAg954",
"oo####:afVCFJFbQWg9i54<1%#%#aVfvbnGWWIhgq97>1;$$:3ahhvL!IIPls942",
"&X$-#:,ffjZFIGFQKq9g94;e$#%-affCbnKWUKhgqi5;:;+#%3sshb!IIIFl9942",
"oX###:,VVjCFGGFBWh9732#%%X#:afVCknJLLLki553%%%:;;39khn!IIJHlq452",
"oX##-#tffkCDFGJWWj5332-;$#@;addklbJW~Lhdi5<;%##$;3ghhvLWJJJA9q4<",
"*o*#-#,dfVVCJFvhbj4432;$$#.$askkvnGLLKgqu43;%$#$:3sdhbLJJIFlq552",
"oo$##-,sfdjFFbvvFg74<<O%:$+:askjlnnL~Ulia51:;@#$;3fdvb!IPJJl5552",
"OX##.o,affjlvbvGng551<@%,#+$afdkvbnnLKdi554;:#$#;3adhFKIKIKl5552",
"OX###+:sffjkDFGILg55e1%%%@+;ufdjknKLKFpi533;$#$$-3sshvLLKKPbg952"
};
