/* XPM */
static char *result[] = {
/* columns rows colors chars-per-pixel */
"64 64 145 2 ",
"   c #000000",
".  c #0B0707",
"X  c #0B090A",
"o  c #0C0D11",
"O  c #0E1215",
"+  c #121315",
"@  c #191112",
"#  c #13151A",
"$  c #151A1B",
"%  c #1B1B1B",
"&  c #21201D",
"*  c #2D271E",
"=  c #322A1C",
"-  c #242523",
";  c #2B2622",
":  c #252A26",
">  c #2D2A23",
",  c #272728",
"<  c #272E2C",
"1  c #2D2C2A",
"2  c #322D24",
"3  c #3A2D24",
"4  c #322D2D",
"5  c #3C2F2E",
"6  c #24342C",
"7  c #2D342B",
"8  c #25392C",
"9  c #323325",
"0  c #383127",
"q  c #32342C",
"w  c #39352C",
"e  c #333A2D",
"r  c #3B3A2E",
"t  c #2E2E34",
"y  c #243232",
"u  c #2D3334",
"i  c #253A32",
"p  c #2A3C34",
"a  c #273A38",
"s  c #2A3D39",
"d  c #343534",
"f  c #3B3632",
"g  c #333C34",
"h  c #3A3C33",
"j  c #35353B",
"k  c #383239",
"l  c #343B3B",
"z  c #3A3B3C",
"x  c #41332A",
"c  c #40392E",
"v  c #433333",
"b  c #413C32",
"n  c #463F39",
"m  c #4A393F",
"M  c #2A4135",
"N  c #2C423A",
"B  c #2F483D",
"V  c #344135",
"C  c #3B4135",
"Z  c #31443C",
"A  c #3A443A",
"S  c #33493D",
"D  c #3A493D",
"F  c #414234",
"G  c #4B4336",
"H  c #42443B",
"J  c #4A453B",
"K  c #42493C",
"L  c #49493B",
"P  c #50463D",
"I  c #333F41",
"U  c #3D3D42",
"Y  c #443F44",
"T  c #4A3D43",
"R  c #2F4440",
"E  c #324441",
"W  c #3C4243",
"Q  c #334A41",
"!  c #394C42",
"~  c #3C4649",
"^  c #375043",
"/  c #3B5144",
"(  c #3B5249",
")  c #424345",
"_  c #4A4247",
"`  c #424C42",
"'  c #4B4A44",
"]  c #43454A",
"[  c #4C464C",
"{  c #454A4C",
"}  c #4A4A4C",
"|  c #564B44",
" . c #524B4E",
".. c #584A4D",
"X. c #415144",
"o. c #4A5245",
"O. c #425349",
"+. c #485148",
"@. c #42594D",
"#. c #51544B",
"$. c #454951",
"%. c #4B4C52",
"&. c #534C53",
"*. c #5B4D53",
"=. c #4E5253",
"-. c #4F5659",
";. c #525356",
":. c #5B5153",
">. c #575856",
",. c #54545A",
"<. c #5A555B",
"1. c #575B5D",
"2. c #5A5A5D",
"3. c #6B4F5A",
"4. c #665459",
"5. c #6B535B",
"6. c #6D5C5C",
"7. c #47604F",
"8. c #575760",
"9. c #575A61",
"0. c #5B5C63",
"q. c #5F5F68",
"w. c #615E64",
"e. c #5D6164",
"r. c #5E6568",
"t. c #626263",
"y. c #626469",
"u. c #666A6C",
"i. c #6B6C73",
"p. c #6E7175",
"a. c #6F747B",
"s. c #727277",
"d. c #72737B",
"f. c #777A7A",
"g. c #79797C",
"h. c #767B83",
"j. c #7E7E85",
"k. c #7C8484",
"l. c #848B92",
"z. c #8A8C93",
"x. c #8A9194",
"c. c #8B9298",
"v. c #92959B",
"b. c #959C9E",
"n. c #959CA2",
/* pixels */
"M ! ! Q S S Q S Q Z s N i N Z ! +.O.+.+.O.Z S S Z S S S Z Z S S ! O.( / O.@.@.@.( Q N M N N Z N N N N N s N M a M i N a a i M 6 ",
"S Q N a i a N i p i 6 i i 6 a N +.@.O.( o.Q Z S Z Z Z S Z Q ( / ( / D D D / / / O.! Q Q / ( ! / Q N M M Z N M M p a N p M N N M ",
"s s s 6 i 8 i i i i 8 i i 8 i M ! Q Q Q ! S Z S S N N Z Z Q / ! ( / A A F D D ! / / S D ! ! o.X.^ Z N Z Q S S N M N M s N N M N ",
"N N N 6 i M i a i i i i i a i a Z N Q Q Q S Z Z Z N M B N N Z ! D D D C C A D K ! Q Q ! N / / / S E N Z Z Z Q N N N B N M a a N ",
"N M l s a i M M M p a N i i p N R Q Q Q B Z Z s N Z R N N Z Q D / ( D A H K D K ! D Q Q S Q Q D Q Z l Z E I E N N S ^ / M N N N ",
"s Z E s a p a i M i i i i p N Z N Q Q Q Q Z S M Z M B S Q Q ! ( ( X.` D F A D K D ! ! / ( D Q ! Q N Z A E l Z Z N / ( ( R N M N ",
"Z Z Z R N M N M M a a p i a N Z Q ! / Q W N N Z S Z Q ! Q Q / ! X.X.! F A h A K ` K o.! D ! ! Q B N E E W E E Z S ( @.7.^ R B N ",
"s E Z I N s Q Q N N M i a a M B Q ! ! Q S Z s D Q S Q / ^ Q Q ! ! ! S A g Z A D K L K D ! ! Q ( ! Z E E Q Q Q ! / ( ( ^ Q M B N ",
"Z Z N l N M N Q V N N N s p N S Q Q Z Z D Z Z D S D S D ( ! D D A Z F C w h b C b H L D Z S ! Q l E Q Q ( Q Q Q Q D D ( D N S B ",
"Z N E Z g s Z Z N E Q Q s M Z Q ! D Z Z A V g g E h A D Q D ! H C r r c c r c b f F C C A ! Q Q N E Q ( O.( ! Z ^ / / / ^ M M S ",
"s Z Z N N N Z E N N N N M Z Q Q S Z l g r r h A A A C g Z h g e g z g h C r w c r r h g h Z Z Z Z Z ^ ( ( ! Q R Q ^ ^ ! / N Z D ",
"Z Q Q E Q Q Z Z N N R Z S Z ! Z 7 { ;.<.0.i.s.s.g.g.d.t.2.;.,.,.;.+.} +.} } [ ' _ [ '  .w.e.{ < R Z ! ( ^ ^ Z R Q ^ / ( ! S S / ",
"S Q Q ! ! Z Z Q Q Z N R N Q D z 5 q.r.%.>.w.t.w.w.t.w.4.>.%.=.<.%.}  .[  .[ T m m T &.;.<.e.u.D ! W ( ^ ^ Q Q Q Q Q D X.^ R Q / ",
"B Q Q Q E E D E Q Z N V N Z C h w ~ U + . . X . . . X X . . . . X X . X X . . X . . . . @ _ t.h W ! Q ^ ! ! Q Z Q S ( ( ^ Q S / ",
"B Q ( Q Q Q Q Z E Q g i g Z S h v =.[ .                                                 . _ q.d ! ! ! / Q ( ! Q Q Q ! / Q Q Q ! ",
"S Q Q Q Q E N Z E Z p s E S Z p f 9.&..                                                 . Y y.g A ! / ^ ( ( ! Q Q Q ! / ( Q Q Q ",
"Q ^ Q R N R S Q E Z l Z S Z Z q f t.%..                                                 .  .d.h ! ! ! X.O.( ^ R Q Q ^ ( ( S ^ Q ",
"B Q Q Q N E Q N N Z g Z g D g 7 d 9.$..                                                 . ..d.l E ! O.O.( ( ^ Q Q ^ ( ^ ^ Q S B ",
"B D ^ B S Z N N Z D g A ! E A f f 2.%..                                                   [ a.h Z / ( @.( ( ^ Q Q Q ^ D ! / S B ",
"B S B B ! Z Z E z Z Z Z D g g A w y.&..                                                 .  .d.h D / D / ! B Q R R Q ^ ^ Q ^ ! S ",
"S Q Q Q ( ! Z l V Z A l Z l Z Z l h.1..                                                   [ s.h ! / D ! D / ^ Q Q ^ / / / ! ! Q ",
"S Q / / ( ( Q s l Z l D Z D D A A h.<..                                                 . [ p.Z / ( ! ! D ^ Q B Q S ^ D / / ! ! ",
"S D Q / Q D Q g h l Z z D ! / ! z d.<..                                                   ] u.g ! ( ( / ^ Q ^ Q Q ^ / / ( Q Q ! ",
"S Q Q Q / Z s Z Z Z Z E ! ! / ! Z i.:..                                                 . ) q.g D / / D Q ^ Q Q Q ^ ( S ( / / ! ",
"N Q S Q N N Z Z D Z z ( ( O.O./ W u.,..                                                 . ) 0.g D / / S ^ Q Q Q Q ^ Q / / ! / ^ ",
"S Q Q B Q ^ ! ! W Z s Z ! / / / D 0.&..                                                 . Y q.s ! / / ( ( ( Q Q Q Q ^ ^ ! ! Q ^ ",
"S Z N Q Q ^ ( @.! Z Z Z Q ! ! ! Z r.*..                                                 . _ 0.g ^ ! ( ^ ^ Q R N N Q ^ ( ! ! ! ! ",
"N S Q ( / ( ( ( ( ` ! W Q / X./ A 9.&..                                                   _ 8.l ! Q Q Q ^ Q Q R N Q ( ( / / X.( ",
"S B Q ^ ^ ^ Q / ( ( ! ( S Q ! D ` 0.;..                                                 . ' <.p / Q ! ! R R R R Q Q ^ ( ( ( +.X.",
"M S Q Q Q Q ! / ! ! Q W / ( / ! W i.i.&.6.4.*...*.4.*.*.3.:.4.5.5.*.*.5.5.4.:.*.#...5.3.[ y.p.Z D ! ! ( ( Q N Q Q Q ( / S Q / / ",
"S S / S / D / ^ ! Q Z ( Q Q ! / Z l ~ k.z.z.z.z.z.v.n.n.b.v.v.c.c.x.z.c.z.z.l.z.l.x.l.l.d.~ l u Q Q Q Q Q R R R Q Q / Q ! ! ! / ",
"S D @.( ( ! / / ( Q Q Q ! / ! X.Z - 7 1 1 1 > 4 ; ; 4 1 q 1 > ; 2 ; * 2 ; ; * * > d 2 - - , 7 ! ^ Q Q Q N N N N Q Q Q ! / ! X.D ",
"Z Q / / ! / / ! ! ! Q ! ( ( ! / / V 7 q q q 7 q 7 9 > 9 * > > > ; ; > > > = 2 = 9 e w 9 q 7 Z / / Q Q Q R B R B R ^ ^ ^ ( ! X.X.",
"Z Q / Q ! Q Q @.( Q Q Q Q ! ! ^ Q @.+.o.#.` D D D A C e C V V V e 7 q 7 g r r w e A C r V Q ! ! ^ S Q E R Q ^ ^ Q Q ^ ^ ( / O./ ",
"Z S S Q Q Q Q ! ( ( ~ / Z S Q Q Q ^ ( X.( D ! ! / D / ! ! D Z S Q Z V g C V e V g A D ! / O.! Q ( Q N Q R B R M R Q ^ / O.@.@.D ",
"S Q Q S Q S S D ^ ^ ! D Z ! S B B Q Q Q S S Q ( Q / ^ / / Q Z S S / ( ( S V M V D D D D ( ( / ( ( Z N N R M B R R Q ^ ( ( / / / ",
"Z S S Q E ! D D ! ! Q ! Z S Q Q R N B B R Q / Q Q Q Q Q Q Q N N / / / ( / Z N Z N S ! ( O.( O.@.! Q B M R Q Q Q Q Q S / S ( X.` ",
"S ^ Q Q ! Q D D ` D ! E A S Q Z B B N Q Z N ( ( B N Z Q Q S S S X.@./ ( / S N N N Q ^ ^ ( ( ( ( Q R R B B R Q Q Q Q Q S @./ / X.",
"Z Q / ! Q D D ` X.( / / ! D D Z Q Z N Q Q Q Q ! Q Q N Q Q Q Q ! / ( ( X./ Q N N N N S / ! Q / ( Q Q R Q B B R R Q Q D @.( / / K ",
"Z S Q ! ! O.X.` ` ` ( ( ! o.D ! N S E N E Q Q ! ! Z N E ^ ! ! ! ( / ( X./ ! S Z M Z S Q / Q ! ! Q R Q R R Q Q Q Q Q / ! / / ( ` ",
"Z E Q ^ ( X.` K K ! / Q ! D D l Q Q Q N B Q Q Q E R N Z Z ` X.! / / ( X.O.O.! S N N Q R Q ! ! Q Q ! ! Z N B R Q Q ! ! / ( ! X.K ",
"Z ! / ! ! S D A D ! Q Q ! Z D g Z E Q R B S Q Q E N N Q D D D Z ! / ( ( X.X.! Z Q S E N S ^ / ^ ! ! ! Q Q B Q Q Q Z ! ! / X.X.X.",
"V / ( Q D Q ! A A ! Q Q Z A D D Z N Z Q Q Q Q Q N Q Z Z Z A C Z S Q / ( O.! Q Q Q S Q N B ^ / / / ! Q ^ ^ ^ Q R N N S X.o.o.X.L ",
"S / / S S Z ! D S D ! Q A A A W W V N Q Q Q Q Q N Q N S A C V Z Z S S S ! ! Q Q Q / ( ( S B D / ! Q Q ^ Q ( ! Q Q Q D V A X./ o.",
"S / / S Q D Z A D D ! ! D D D K ! R N N N Q ! Q Q N Z S A C g Z Q ! Q ! Z Q ! ! / ! ( X.D / / ! Q S S ! ! Q / ( Q Q Z g A X.X.K ",
"B ! / ( Q ! ! ! A A ! / ` W H D W ! Q R Q Q Q Q N Q Q Z D F C Z Q Q Q Q Z N Z Q D ! D / Q / D / ! ! S S Q ! Q S Q Z D S D X.o.' ",
"S S Q ( X.X.! A S A D D ! A D C ` ! ( Q Q R Q ^ Z Z Z A F C h D Q E S N M Z Z S / / S S ! S D / ! ! D Z ! S Q Q B Q D o.o.X.K K ",
"S / / ! K ! H C V A S S z H H D W ! Q Q Q Q Q Q S D A F H C C Z Q Q Q S S S S S / ^ ! ^ D S Q Q D Q Q ! Q Q N Q S Z D K / D ! K ",
"N ! ! D A D D A A z A Z C C C A W Q Q / Q Q Z Q Z D H H F C h D Q Q Q Q Q Z S ! D ( ( / / / ( ! ! S D D Z ! ! W N V D C ` D K K ",
"Z D / S A A C h A C A p r g h Z D ! Q Q Q Q Z A Z D C F c A A Z Q Q Q Q Z D S ! D ( ( @./ / / Q D S S D A Z Z A D A A C X.X.` L ",
"N D D H D C Z h V V A C r C K A A Z Q S ! Z D F A A A F F A h A Q N Z S ! D S S / / ( O.D B Z S ! D H A A C D D D D D L D ` K K ",
"p A C C H H D C r h h C r F A z A Z D C A ! A L n h h b H h D D ^ Q M Z H C V A Q D S / B M p S W D F F H h A A A A H A X.` o.L ",
"7 r e 3 A D D h A e h f r h h C C A A g C S F c c f h w F h C Z ! D V h r h C A N V Z S S p e M C V h h r b W Z H F h C D K L L ",
"< 7 1 4 q h A q g 7 g h w h r q p g g e e V r r 3 w w 0 x b h C Z s 7 q 3 2 w g d p e p 7 q 7 7 e r 0 w q w g h F F h h D K C L ",
": ; g h z ` o.W z g D H J J G n D ) J L ` J n n v J ' | P P L o.{ +.` J ' J H n A H z h f w w q h n f f n A H ' o.' +.` +.L w F ",
"6 1 ;.1.;.;.-.=.,.>.2.e.t.2.<.1.;.2.0.0.w.t.2.;.+.;.<.4.:.;.:.2.2.2.0.2.;.<.;.;.[ ] ] ] } Y ) ) ] { %.%.=.;.=.} } } =.;.0.;.* V ",
"8 1 %.a.9.&.>.8.-.%.&.,.0.2.>.e.8.9.2.<.2.2.e.2.;.>.t.2.>.<.-.a.1.%.+.} } } ' } { W j k l l U Y U ] ] $.%.;.=.] ) ) Y ] a.$.% V ",
"8 , ] ~ %.,.,.,.%.$.} $.%.;.%.-.;.;.<.9.9.e.t.y.9.1.>.<.>.;.=.$.%.=.} ) ] { { %.} ] z U l j j U U Y ] ] $.%.} ] W z ) W I U % M ",
"i - %.&.-.%.=.$.%.%.=.} $.$.] } } ;.8.0.0.r.y.i.y.0.} } ] { [ %.,.%.) Y ) Y ) $.%.$.{ ] Y j u u U U Y Y ] ] { ] ) j U W z j % s ",
"6 , %.=.-.&.&.$.[ %.;.;.Y Y ~ ] %.,.8.8.0.0.t.y.u.r.e.2.;.} ] ) U z l U ) W U ] $.=.%.] U z I U U U ~ ) ) { $._ A U U W U z % M ",
"6 , =.;.=.=.=.$.} $.=.%.] U W Y [ %.-.-.>.,.9.r.t.0.9.=.,.>.=.] z d U ) ] U z ] %.=.$.Y z U U U ] ] $.%.$.%.$.) U U U U W U % M ",
"6 , ,.j.e.] ] U W ] { %.] l j ~ ) { } } $.$.&.0.0.2.%.] %.<.-.j.8.U ] Y U ) Y ] ~ { ] U j j j l l U ] %.=.%.$.) W W U { j.%.& N ",
"8 , ~ y W ] U j z U W U U t t U ] ] ] ] W ) [ =.>.>.{ z ) } W < I W ~ k U U { $.l j U z j u d u t k W ] $.[ ) W W ] { U 6 W - Z ",
": % + # # # $ # o o O o X X X o O O + + X o # $ $ $ # O o + o + o o o o o # % $ O o X o X X o X X o o o o + O # + # # # O + - ! "
};
