/* XPM */
static char *result[] = {
/* columns rows colors chars-per-pixel */
"64 64 49 1 ",
"  c #262524",
". c #292525",
"X c #2B2827",
"o c #262628",
"O c #2B2A2B",
"+ c #312E2D",
"@ c #2C2D31",
"# c #2E3034",
"$ c #343335",
"% c #383635",
"& c #353539",
"* c #38373B",
"= c #37383C",
"- c #3A393C",
"; c #413E3C",
": c #41403E",
"> c #3D3D42",
", c #3F4043",
"< c #3F4048",
"1 c #434244",
"2 c #484543",
"3 c #444448",
"4 c #484649",
"5 c #47484D",
"6 c #4B4A4C",
"7 c #524A44",
"8 c #504D4E",
"9 c #4E4D52",
"0 c #504E52",
"q c #4F5055",
"w c #525156",
"e c #585555",
"r c #54555A",
"t c #58575B",
"y c #56585D",
"u c #59595D",
"i c #615E5D",
"p c #575960",
"a c #5B5C62",
"s c #5D5F68",
"d c #605E62",
"f c #5E6066",
"g c #5E6068",
"h c #616166",
"j c #686666",
"k c #63646A",
"l c #67686E",
"z c #69696E",
"x c #696A70",
/* pixels */
"o&$$$$&&&$$$$$ ###O +-%-%--%%-->>--%&--%--%+ O### $$+$$%*$%$$$$o",
"=rrrrwwryyyrw6O###-28yreyyyyyayuuyayyyyyerrq2-#@#O6wryyywrqwrry*",
"&rrpwwwrayyrr5$@ X:6wyerdyyyyftttefyeyyaeetw6-OX@#6eyyyayqqqpyr$",
"$rarawrpagyyy8% u&26wwwiufryfijttjffyyfaiwww82%u &8yyygapywfypr$",
"&rqsrrtrauyuyw-$OO380wewfyyuyhdtuifyuryfwew063OO$-wyfytary9payy&",
"#rpqrrtsrryffw>5132qrherwwfaguudhuugafwwethww3315>wffyrrsprrqrr@",
"&rrprpsrrrfhyy8qww8rduhwwrykutuhhuyujuy8egtfr8wwq8yygfrrrsprrrr&",
"&rrpqprruwyuyfyytrtttuwgteiwtuufdtuyyueuaruyeyruyyfyuywtrrp9pyy&",
"&rppawqaakrtsakryuaharuhhtryggjuujffyeukaarakuaytkugrrhsprrpppr&",
"&ryayryrkauurhuuyashuruukdryykfyyfkyyrfkuurugauyuuhruuahwtrydrr&",
"&qrryraprtrkurueluyrwfutrejfuwuadywuajeryaf8yyuzttruhrurusrrrrr&",
"&qrpraayrwhuuryjajweuuzreujzwyyjjyerzjurwjufwrjajtrudhwruaarprr#",
"O5rrpyayurafwurakwfwrjruyyktudeuyydyukyyurjwruekawuraaruuprprr5O",
".:59wyyaafwwaugreufkwrtafuwyhzjqwhzhywugftwejfuwrgaurraaaprr95:.",
" $&-,,6wkpyrrhuurekuewrajuwwyzfrefzywwujar8takreuugrrypkr6,>-$$o",
"@@@OO16wrywarwtrutru8uuyyryftrewreeydyytytuwuwyurtwrawtww6,@O@@@",
"@@OeO>30r0dtarrdadrrrdktrrzjuryjjertkzrytkdrrrhukwrutswww3>@eOO@",
"O@o+&190rrpaqrqadrppadtprahutruypurtaharutharurhawywsrrt06<#+o@@",
"o#&=>>4rptrwtsprpppdrrtszryygxayyuzguyrjauwrhuurruay0rrpr4:>-&@o",
"o-409990apr9rdaaqrdda00dfjrrfjjyrzzarrjhjw8aakrwuahr0wspq09994;.",
"#9rq99rqqt9tqrs9urra0trwaerfruywwtuyhrruwruwdwtuqarwr9rrqr9q009$",
"=rqqqpqpr9prpr0ahjw0rdhwwwzgtrwkkwrtkxewwhhrwwkhurrpru9rprpqqrr=",
"*09qrqs0qrrs90qahrwwtautwadgeqyyytwwhuuertgywwrsawqqayqr9pqrq9w&",
"=q9pqrqqaqqq9tt0wrpa0rtazqewyjewerkywywzarwwaptrqrr99r9prqrqpq9=",
"*0pppqqraaqqrsar0rhpy6wkfkwwfhkwwhhf8wjfdr0rpdrqraar9raarqqpprq>",
"=r9rr9r9rpqpqqp0pyrhwruyjrry8uewweyqyrekrtrrdprswprqpqrr9r9rrqq&",
"&qr99tqp99tadrrrasrrwkutwrktw68ff88eyzyqtpdrrrsdrrrdar99pqp9qqq>",
"&r9rqrsq99rdqqqparrrguaryuuhewytyrwwfyyyrapsrrrpaqqqdr999srqq9r#",
"#qrs9r0qpqr9qsprrrgtrtraartrtjruurkywurfsrtrpsrrrtdq9r9pqqrqdrq#",
">9pap99prsqqssdrrrahurrzgjyykfzyezfkyrjfxr0adarrrkkpqqapp9qppa9>",
"#99spqq9pp0r9adrrrrsr8yyktryrkfuyajyurrkrt0rdrrrrdaqr9tp9qqrs9q&",
">9qqqrpr00tdaqrrguww8hutrwauuyruaytuuawrtadq0rasrrrpsrrqtrrqq99>",
">q90qssrqrhdprrpuaw0ppkrryuktruhgtrykuyrrkppwwarhwrpdkpqqsar999>",
"#9qpqrrrsrpprhrruwawwhratwawuayutyaywuwtarhwwartrrhrprqsrrpqp99#",
">qpsdqqdskrqsshrrpakrruhktwrhkzytjkkwwukgurrkaurrhsgrrkhs9qkspr>",
">9pdpqqqxprrrhpr0rahurrukuwrrzauufkrywukutwtharrrphrrrpx00qpsq9>",
">qrqrrsprr0krrrrprrtraturraupruuuuruuarrttartwwarrrtkqrqpsrrrrq>",
"&qrrrkdpw9ksp0rpraw0upswrykjuuuzzyyrkhtrwsuuwwarpr0pgk9rpdkrqrr&",
">rrrrrsru0rsrurrawpwrprrryauppaaaauuuuywtrarwawsrrpqsrqutstqrpr>",
"&qpsaq0ska99uthrrtaxwrrukurykkhuugkhryukprrwzaprrhtp09aks9qpspq#",
"#qtspq9rxp000dpawrkauwwsaarrazkaakxpwruasrwtdktrpddq0qpxr9qasrr&",
"&rqqqqsq0r9ar0arhatawtrrurtsyuuuyurysyruwrtwauphtuqqd9rq9aqqqqq&",
">99qqstp99dtsrrsdktrrhhrtuzsuyrkkryyazurrkhtwtkhdrrdwd99atprq99>",
"+39qrrdrrrtk0trdhsawpdturuagrrupptrraaartrhurushdrtrdprrrspr093O",
".;69rtrpstr0rsdrraajrrepkptrphtpuuhtwuykurrwjsptpsdrqrpsart0q6;X",
"X&14<49aasrrrssarrkdd0wkdhtrdddrrhhurthskw8hakrrpdsrrraaa6334>&X",
"###@>34rtprprrswrtwhweuuhatattpqwyrrstujttewhetrrarrprapt43>@$@#",
"@@X7o<6trrspsrrpkhrewjdaptzasrrdhwwauzuaaajrewhkrrrsaartt4<O7X@@",
"@@O&O>6rtassprrssprrdddaadslpraddprtxsdapdddwtpssrrpddppr9*O%O@@",
"+@*#&>6tdpprtlaqtrddrppddrprsdrrptsppprsdttwdktrqplrpppst6*>$&@@",
"+>4659rsdlpraxxaraxkdrpzddrrdsd0wdsdrrddxprdkxdtdxxarplddw9564>+",
"+9rrwrtrdspspsdpappdrrptxr0aqpr09ptwp0rlpprtsttppssrspsdrprrwr9$",
">rrqrrpprrpsdpppksrrrkpttqdap09tt09tpdwwtdsw9tskpppddarrpppwrrr>",
"<0r0rsd0qrdlpptkdaqqspdrrppd09rupw99dpprwdsdwtaskptpldrq9dpprwr>",
"<rrdrptplrparkptsrdp9ardararrp0rr9trrawadrp9pdwsppdpppplttpwurw<",
">rttdqqkdxrpssktrpkdp9rlkd00dpa09dadwwpllrwpsspwtkssrpxskqrdttr>",
">rpdprrwxdprrssprrpdprrrd09r0dr00rd0t6rdtrrpdarrpssrtpsl9pwpdpr>",
">pprpddp9rpsdrq60q0trla0r9dpp99rw99raa00wpkwpwww6wrast0qasattpt>",
"<ppppxxr9qxlpq>**%%0pps99rdl99qddr69kdt99spp0$+**>qplxq0rxxptpp<",
"<rppsdprawpdq6>@O@&qrdqpr0p90r9tt9r99a9rp9dp9>@O#*90sawawasappp<",
"<qssdpqdpaww90>.;+*qq99rd069dds99ssd969dr90q5>+;.*09qwsas0tsssq<",
">rpsptwwsprw0w>o%O&0rr9qrr66qdrqqrd996rr90rr9>.*.<w0wwpswqppssr>",
">ppprwqrtp0wr9>O@@;40rr0999699r0qr9969qq9wrw4*@#@>0wqwtwrwwtptp>",
".$$$$*$*&$$##$.@##@ +>**&>**&*;->**&&**>**>+.+@@@.$$$$$$$>$$$##."
};
