/* XPM */
static char *result[] = {
/* columns rows colors chars-per-pixel */
"64 64 46 1 ",
"  c #4C241C",
". c #3D1F1B",
"X c #5A2F26",
"o c #54281C",
"O c #56322A",
"+ c #452723",
"@ c #7D573B",
"# c #613E2F",
"$ c #6A3E1E",
"% c #5C2C24",
"& c #74402C",
"* c #714A37",
"= c #86524A",
"- c #724826",
"; c #5C3414",
": c #381C18",
"> c #846534",
", c #9A6E4E",
"< c #9A6B5E",
"1 c #805430",
"2 c #8C603C",
"3 c #8D6643",
"4 c #A67E5A",
"5 c #926D3E",
"6 c #A1724F",
"7 c #8D5A3B",
"8 c #A6875A",
"9 c #A57853",
"0 c #AA896E",
"q c #AC926C",
"w c #AD8963",
"e c #AC825C",
"r c #9D794B",
"t c #905C50",
"y c #522B0E",
"u c #705120",
"i c #311717",
"p c #2C1414",
"a c #583C10",
"s c #9D6E4B",
"d c #A3756D",
"f c #7C483C",
"g c #505050",
"h c #714337",
"j c #401810",
"k c white",
/* pixels */
" .XoXOo+XoXooooXXXo@XOX+OO##$%%  .XoXOo+XoXooooXXXo@XOX+OO##$%% ",
".%%%##%#&**######==----##$*O;$% .%%%##%#&**######==----##$*O;$% ",
":O;-$##**@>,@*@=<@#*******1*;;# :O;-$##**@>,@*@=<@#*******1*;;# ",
" O;$-11>22,3323,,,,=4562271*#;Oo O;$-11>22,3323,,,,=4562271*#;Oo",
"  ##-1@233,3446686666,,2@21**#O:  ##-1@233,3446686666,,2@21**#O:",
". #1725,5,,86698484446,,63332*#.. #1725,5,,86698484446,,63332*#.",
". *736440q8w8408444e044,0e4,,@#.. *736440q8w8408444e044,0e4,,@#.",
". *2,6e0e0q888ee8e00q0w04698,@OX. *2,6e0e0q888ee8e00q0w04698,@OX",
"+O#>3608e0q880004q0q40004569,@#X+O#>3608e0q880004q0q40004569,@#X",
"+;*23644466we0q00004q4044944,*OO+;*23644466we0q00004q4044944,*OO",
"+;*2364,6eeer00eq0e084046644,3*X+;*2364,6eeer00eq0e084046644,3*X",
"+O*336646e800e440,50444,4464,3#X+O*336646e800e440,50444,4464,3#X",
".O*2,44,66600re444,64465644567*X.O*2,44,66600re444,64465644567*X",
" O@=tt646,4044044,5,4653,444,@&X O@=tt646,4044044,5,4653,444,@&X",
" O*@@346604444,,,3522,,33356,@%+ O*@@346604444,,,3522,,33356,@%+",
" O#@@@2,t,,,,,,322226,32,,,1*#%+ O#@@@2,t,,,,,,322226,32,,,1*#%+",
".O**@@@@133,@@@@@@@@@@72231*-;$+.O**@@@@133,@@@@@@@@@@72231*-;$+",
" O%y##u**@3@@@11@@@@111>727*&; i O%y##u**@3@@@11@@@@111>727*&; i",
":i.OOOO####OO#######OOOO$#O #:.p:i.OOOO####OO#######OOOO$#O #:.p",
"i.:::::OOOOOOOOOOOOOOOOOOOOOO:.+i.:::::OOOOOOOOOOOOOOOOOOOOOO:.+",
"ip+#---1*1111*771@***@&*#**&X%#iip+#---1*1111*771@***@&*#**&X%#i",
"iX#-@2,@3,6,27,,2@*u---@71-&&&&:iX#-@2,@3,6,27,,2@*u---@71-&&&&:",
"pO*1@<,t,66,,,66<t2723<,,211--%+pO*1@<,t,66,,,66<t2723<,,211--%+",
"+O*@@t,,ew46<06,<,,5,<,,6,32--O++O*@@t,,ew46<06,<,,5,<,,6,32--O+",
" Oa@tt,4446,00<5644s,64<<6,3*-#: Oa@tt,4446,00<5644s,64<<6,3*-#:",
" O#*2,,43,,d4545,6664,66464,2*#+ O#*2,,43,,d4545,6664,66464,2*#+",
" O*=t,3564004,e6<64446,55,4,1*#+ O*=t,3564004,e6<64446,55,4,1*#+",
"+O*=t3,544040e66404e446q455311#++O*=t3,544040e66404e446q455311#+",
"+X**2,4444544980008400004443@*#++X**2,4444544980008400004443@*#+",
".X*@@,68880q00000946q0q06442@@O+.X*@@,68880q00000946q0q06442@@O+",
".#*276668000000q004484046842,*OX.#*276668000000q004484046842,*OX",
":#@7=2664440qq040664544e4,427*OX:#@7=2664440qq040664544e4,427*OX",
":#*2t244480qqqq0,6444,e0005@@#O+:#*2t244480qqqq0,6444,e0005@@#O+",
":X*,t24444540q04,5654e40e4,2@#O+:X*,t24444540q04,5654e40e4,2@#O+",
":O*3=36,44003480e44,8000489@1#O+:O*3=36,44003480e44,8000489@1#O+",
":O*23,2,44666469894649904447-#O+:O*23,2,44666469894649904447-#O+",
":O*@13,,,,4669449666,,444671$#O+:O*@13,,,,4669449666,,444671$#O+",
":O*1111>r322,22@>27,61@,6627-*OX:O*1111>r322,22@>27,61@,6627-*OX",
"+#@111--1311222--22231122332-#O++#@111--1311222--22231122332-#O+",
"iX#*@#&###$#-@---@@@#*#O#OOOO::+iX#*@#&###$#-@---@@@#*#O#OOOO::+",
"i+O##OOOOOOOOOO#O#OOOOOXO###+pi+i+O##OOOOOOOOOO#O#OOOOOXO###+pi+",
".iOOOO#########OOO####*##*---%+p.iOOOO#########OOO####*##*---%+p",
":: $***@@=====@@@@@@@@@@11@11#:p:: $***@@=====@@@@@@@@@@11@11#:p",
"i.O--12755,4,<,,,,,,,,,,65@@7*+:i.O--12755,4,<,,,,,,,,,,65@@7*+:",
"i.$#@2,,66646444,,,,564444222*O+i.$#@2,,66646444,,,,564444222*O+",
"pX#*=t,64e4658444660000444527*O:pX#*=t,64e4658444660000444527*O:",
"pX#f@34ew66e9944qq09894,5642@#+XpX#f@34ew66e9944qq09894,5642@#+X",
" X*==,648w0408800q44446466,3@#++ X*==,648w0408800q44446466,3@#++",
".X#==,44006s6eq0q00,94489s437@+:.X#==,44006s6eq0q00,94489s437@+:",
":O*@=6r0r,86,,00q0444444sr,271+i:O*@=6r0r,86,,00q0444444sr,271+i",
"O *@2t646644,,0006,r6s44rr,37*+iO *@2t646644,,0006,r6s44rr,37*+i",
": *@=tt046,6s64rr486r66646,32*+i: *@=tt046,6s64rr486r66646,32*+i",
": *@@ttt,,66,466e048066666,3,*+i: *@@ttt,,66,466e048066666,3,*+i",
":.*@5t,t6,6e64440000466646,3>*Oi:.*@5t,t6,6e64440000466646,3>*Oi",
"%.*@5,,,,64r,6,4404844666,,21*Oi%.*@5,,,,64r,6,4404844666,,21*Oi",
"o+*@3335,,44,446,4684466,,,31*O:o+*@3335,,44,446,4684466,,,31*O:",
"oO**@222@224ee64554,,6,5,,3>1*O:oO**@222@224ee64554,,6,5,,3>1*O:",
"oO#*3322223,e5,5,,4,66,631221&O+oO#*3322223,e5,5,,4,66,631221&O+",
" +**@@25>,64666,444622622*@11#O+ +**@@25>,64666,444622622*@11#O+",
":O##@@=@@tt=tt,t,t,,23321112g&O::O##@@=@@tt=tt,t,t,,23321112g&O:",
".X#####**@@22@@@@=33,,2@&1*27-O+.X#####**@@22@@@@=33,,2@&1*27-O+",
":#***&&hhhhh#***##*@@@@1&**1*&O+:#***&&hhhhh#***##*@@@@1&**1*&O+",
":oooooXX. .jjjj....OOOO#XOOO#OO+:oooooXX. .jjjj....OOOO#XOOO#OO+",
":O+O+++++++++O+O+.+::.j::.:.:+Oi:O+O+++++++++O+O+.+::.j::.:.:+Oi"
};
