/* XPM */
static char *tile118[] = {
/* columns rows colors chars-per-pixel */
"64 64 69 1 ",
"  c #481C08",
". c gray3",
"X c #52230E",
"o c #3A160E",
"O c #2C1414",
"+ c #452723",
"@ c #381C18",
"# c #3D1A0B",
"$ c #4C2014",
"% c #522B0E",
"& c #56322A",
"* c #6C250C",
"= c #280E00",
"- c #2E160A",
"; c #301000",
": c #391A07",
"> c black",
", c #0E1A16",
"< c #61220F",
"1 c #1A2E26",
"2 c #171719",
"3 c #101010",
"4 c #202020",
"5 c gray22",
"6 c gray19",
"7 c #505050",
"8 c #484848",
"9 c gray25",
"0 c #282828",
"q c #300000",
"w c #002000",
"e c #613E2F",
"r c #511A07",
"t c #002800",
"y c #10201C",
"u c #5C3414",
"i c #2E4236",
"p c #073907",
"a c #714A37",
"s c #480000",
"d c #22362E",
"f c #653A2B",
"g c #7D573B",
"h c #6A3E1E",
"j c #724826",
"k c #7A250E",
"l c #54281C",
"z c #600000",
"x c #442104",
"c c #800000",
"v c #6C2404",
"b c #2A2A2E",
"n c #1C1C24",
"m c #373739",
"M c #5A2F26",
"N c #8C603C",
"B c #4B4B55",
"V c #202038",
"C c #0E0E1A",
"Z c #714337",
"A c #86524A",
"S c #344C3C",
"D c #2A2E4E",
"F c #8C3704",
"G c #262642",
"H c #161A2A",
"J c #080810",
"K c #2C3054",
"L c white",
/* pixels */
" .XoOOO+++@+@##$$+@@+++$+$##@$%+%%%%%$$$##%%%$&++&&&+++@@@O@oX* ",
" =X-==-=--------------------OO@@-#@#------#@@@@@@---#-##---OoX*o",
"o.-$=........................=-o#O=.........................;X*:",
" >=$.>>>>>>,>>>>>>>>>>>>>>>>>>oo$O..........................;X*:",
"<.-#.>.>.>@&1>234245667895062.oo$O.>qq>qq>qq>qq>qq>qq>qq>qq.-X*:",
"%.:$..>.>w3e+.>+2026558556262.o::-.>e&>e&>e&>e&>e&>e&>e&>e&>;r<:",
"<.-$.>.>ty,t.>u#+>.3230>.>4>2=-:==.>rq>rq>rq>rq>rq>rq>rq>rq>;r<:",
"r.-$...1i1p..-aa..#O@+&eaee@%=o;==.>*s>*s>*s>*s>*s>*s>*s>*s>;<<:",
"r.o =.yddt..f@@...%OuO+0+3&0e-o-=:.>e&>e&>e&>e&>e&>e&>e&>e&.;**o",
"r>o 31gdp..ugf....h@hh%hje&3u=o--*.>qq>qq>qq>qq>qq>qq>qq>qq>;*<:",
"<>oo3dda3.ugg.3.3.3.3.3.34442===:*...................>......:<<:",
"r. o3313+#ff.3.3.%&&&3yddd.32=== k=>>>>>>>>>>>>>>>>>>>>>>>>>-<<:",
"r.l =.3.#uf.=ssq.ugaf.yd1y25&=o=  :::oooo-==:---:ooo:ooo::::=<<:",
"r><r.333uu.3=zzs3=&@@3+ea+.5&=o=X:=::oo$:-q:ooo--::X*k**<$#o=<<o",
"r.<<........=qqq3fgaf3w,yw.@@=o= :>=>3=====>3>>>..>>=O==o$#o=*<o",
" =X<=qxq....=ccq3=&@@.w11w.e63o=##  :;;:   :::-qqqq=:;::::@:-*Xo",
"r:XX=:vv3d1.&&a&2fgfu3wy1w3982o-##X o::--o***<<<<<<<X  OO@@--*X:",
"r XX=;vv.ea.= cq3f@gu2p1dw.&92-:#@-===...==============....=-uXo",
"r XX==#q3d1.= cq2f&gu3y11w.652:r :.>.>>.........33..3.......:*Xo",
"r: X.>eq3113=:cq2u+g%21d1t3663:XX ..30>34.b0>nm.25>0$.4$>4$=o*X ",
"r:oX.>&q3113.:zq2u&g%21i1,3+63oXX:3.n4.n4.6b.b6.b6.0M.4<.4<- *X ",
" - X.>%q3y13+&&+2%&a%21d1y.@@3oX<:3320.4n30b.0b306.5a36a.6a- ** ",
" = X.>#q2,y3qssq4%ff%2&gN&2O03oXXo334b34b3mb3053053+<34M34MO <* ",
"r-or.>@q.ea3=qqq2@@OO41d113OO=oXXo322m3462mm30924B36*24M34MOX<* ",
" ooo.>:q.113qzsq4%uf%2ydd123O=oXXo32262262602292292ea2&a2&aOX<k ",
" Xo .q:q..2222224444442222223=o$%:33.22222.3322222432322222=X<k ",
" X-==.==...=333333333333333...-$% 3>>>>>>>>>>>>>>>>>>>>>>>>>oXk ",
" r-::    :::     ::oooo:::::::::::::::::::::             ::-o Xo",
" Xo:OO-##%%#$$%%%$%%%%%&&&&uM&uu&%&&&&&&&&&6&+&&&%&Mu%%%%#@@o X ",
" <Xo---$#$%%%%uu%%%%%%%%%%%%%%%%%%%%%%%%%%%%$$$%%u%%%u%u&u#@o%* ",
" <XoOOO+++@+@##$$+@@+++$+$##@$%+%%%%%$$$##%%%$&++&&&+++@@@O@oX* ",
" <X-==-=--------------------O@@@-@@#------#@@@@@@---#-##---OoX* ",
" < ->>>>>>>>>>>>>>>>>>>>>>>>>>>>>>>>>>>>>>>>>>>>>>>>>>>>>>>>:X<o",
" < =>>>>>>>>>>>>>>>>>>>>>...........................===...>>ooXr",
" < =.3.3.32343...3..42.33...........................O@&=..3>-olr",
"rv =..22.2.2..23.33.332.3.........>................=24653>3>=-$r",
"rk ...224...3.3.3..323.3.-=#@..64&9+3..o$#22O#=3=3==4=.8903>=-$r",
"rk ..2.......223...222.3.-=&a3.90450302&jo9V583=3==30.=862.>== r",
"r*:.=-#q.:#q##-:#q=##q-:.O.&&3.8039b35b&l$BVbC-#.#--0..060=>==$<",
"rv:.-- X X<X<< X*X:%#:XX:O.@&3.8026630b&& BV09ZA4&S0=.=O96->==$r",
"r<:.==-q3:#q##2:#q.#-q=-.O.+@3.86350306e&XDV06&A0&86=- =55=>=-or",
" X:.=#vX:*FXF*:*FX:%r:rX;O.ea3.80446305&e<DG0@Z86@85=o<=+9:>=o r",
" r:>q#$q3%%q%%3%%q3&-q-#.-.32..942CH34ble#DD07&89@a8.oXo=9->=oXr",
" <:.q@eo.aaqaa3aaq.a&q&e.O.24..e442H32b&e<9D4988d@aS3=X$=0&>-oXr",
"o* .q@&o.eeqee3e&o.a+-@&.O.24..e44CV32b+e%5D488753e72=XX=4@>-oXr",
"o* >=@#o.e$o$e.e$q.a$q#&.O.2@..5H23VJ3boeu6KH50Z9.&a0.o*X.@>-oo ",
":v >q@&o3u%o%%.%%o.e%o-%.3.3&3.&H22GJ3boeu0GH56&9=&80.o<<-->- o ",
" <:>=@&o3uaoe$.$eo.ueo@$.O.Oa3.&H@4V3.b-&l0VH9785.&a0.=X<o->-   ",
"r*:>q=&o.$eoe$.#%q.u%q--.O.Z&2.+942V3.43&@35V0b+5.@e52.<XX->-ooo",
" *:>q=#o2%uo$#3%uq.##q#;.-.e6O.O5426C.43&@34VVV4@.0ee4.kXX=>-ooo",
"rv:>--#-##%#%#o#%$:: X<X -.O33=.2..43...O..233J....&52.%#o->=:oo",
"r*:>======-=-===-===-=-======-===-===-=====-=======-===-===>=ooo",
" ro>####o$$$$$$$$%$$$$$$$$$$$$$$$$$$$$$$$$##$#####$##$-#--#>=-=o",
" ro=333333333.3333OO3333.33333333OOO3OOO3OOOOOOOOOOO33.....>.==o",
" ro-=3OOOOOOOOOOOOOOOOOOOOOOOOOOOOOOOOOOOOOOOOOOOOOO2233233..===",
" roo---@#$$$$$$%$$$$$$$$$$$@@@@@@@@$$@@@@@@@@@@$$$$$$$#@@O3==-==",
" roo-O#%%ueheehheuheMeMeeeeuMeuu&%&&&&&e&&&&&+&&&uuuu&%%#O3.=:==",
" r;-OO#%uefjjjjjhhhhhhhhhhhhhhhhhhhhhhhhheee&&&&eeeeee&%@O3.=:==",
":r;=OO#%&uuueu%uu&e&&&&u&&%$&u&&eeeeeee&%ue&&&&&&&&&&&%#O33.= ==",
":r;=--@$%%%$#$####$#######$#++++#+&$#######@@@@@@#@O#@@O-====-=-",
":<o=OOOOOOOOOOOOOOOOOOOOOOOOOOOOOOOOOOOOOOOOOOOOOOO3333333O=.==-",
":<;=$$$$###################@@@@@@@@@@@@@@@@@@@@@@@@@@@@@$##..==-",
":r=.####-#--------------##-------------------------------##=> =-",
"= =>======================qqqqqq============================>:=-"
};
