/* XPM */
static char *result[] = {
/* columns rows colors chars-per-pixel */
"64 64 30 1 ",
"  c #6B6D6D",
". c #6E6E70",
"X c #747576",
"o c #767678",
"O c #777879",
"+ c #7A7B7C",
"@ c #7E7F80",
"# c #7F8081",
"$ c #848586",
"% c #868788",
"& c #878989",
"* c #8A8B8C",
"= c #8D8E90",
"- c #8E9091",
"; c #919294",
": c #959798",
"> c #97989A",
", c #9B9C9D",
"< c #9D9FA1",
"1 c #9FA1A3",
"2 c #A2A4A5",
"3 c #A4A6A8",
"4 c #A6A8AA",
"5 c #A9ABAD",
"6 c #ACAEB0",
"7 c #AFB0B2",
"8 c #B1B3B4",
"9 c #B5B6B8",
"0 c #B7B8B9",
"q c #BABCBE",
/* pixels */
"999qqq996888886552755222222252227555777557598577755757755432,,55",
"q567675545556522222222222222,,222222522555555235312222422,,22,55",
"077778566776522452222222222,,,22555252255555524544521222,,244775",
"q658765635534424525222,,,222,,,,2,222255253574675753224444423554",
"q6575555445454225222,2,,,222222222252222222525784542252534424355",
"944555552245441152222,2,2252252555555252212522255551122435224322",
"845445552422232552252222222255522555545241254225564445254447542,",
"855545554433,,,5522252,,,,,2552255222222444245576555554522454242",
"05525525122221,,,,,;;;;;;*;;;;*;:;;:;;::,>:::;:;::-**$*-72244552",
"852275552==;;***;*&&***&&&$&$$&&*************&&$&&$$&&**5445554,",
"755455572==;====**&&*&*&$$$&$@$$&&*********=*-*$*&&&**-*5457445,",
"757555552===*=*****&**&$$$$&**$$$&*&&*&&=*==**&*****&***5557333,",
"757555551*****&*&**&***&$$&************$**&***&*&*****&#5775423:",
"05555775,***==***$$**&**&$$$$***********&**=-=*=**&&-**$7754324,",
"85758875,=*******$$&&$&&&$$$**$***&$$***&-;-=*-=***&***$2554222:",
"75755877,=**=****$$&&&&**$$&**&**&&$$**$**;;=***--**-**#4443322:",
"85757775:;***;*&*&$$*****$$$*****&**%***=----=&=--*--&*#2235323:",
"05755755:-;****&&&$$$$*****$*;***&&-=-;;=---===**---**&+2577524:",
"07577745,-*-;**&**&$$&******;;*;=**-=--=**-====&***-*&*+3577545,",
"75577422:*--;;*;;&$$$&*****;*;;***==&==&%*==&=*%$&***&&+5775224;",
"54455221,*--;;*-*&$$$$$*;;**;*;**&**&==&*==**&-=&&&**&&+4555224;",
"722521,,:---******$@$**;***;;;***&&*=&**%&-&*&==&&*-;**+4222212:",
"5212221,,-*;*&&&**$$&***&&*;;**;*&**-==&&&=&*&=&&&*;*&*+21211,2-",
"422145,2;&-*&&$&*$$$$$$&******;****-=========&==&****&*+1222244;",
"72222,,,:&&*$$$&&$$$&*$*****;******=*---&&*&**=&*=%%&$$O2211<33:",
"72552,2,;*$*&$#&$$$$&$$&*&****$;*==*****==-=-=&&%#%&&&&o,><1<45;",
"52222222;&*&$$$#$$$&*$$&**;*****=&******===--=&&&%&%%%=O2<21344:",
"0522,22,:&*&$&$$**$**&$$&*******&********====&=&%&%#%&=O42,,353;",
"055542,2:*&&&$&$$$$*$$**&&***;***&*****&%====*=*%&&%#==O51<2685:",
"7522222,,***$$#$$$*$*&*******;*;**&&****&===;*=**==#*-=O5225556:",
"75525422:***&&$$$$$**$***;***;;***&&$&*&%*===*-====&==*@5356555:",
"q0007755,;;;***&$$$$$$******;****&&$$&**&*%*=*-==*=*-;-@45589992",
"55456777:**==;*$$$*$%%**=**---===&&&&&***=**==-***==*&%o566331<;",
"52255577;%*===*$$***%*%****;;---;**&&&*&&&&*-=**===*&&$X65331<1=",
"52236575=$$**=&*%**%$%**&%**----;-&&-***&**=***==&&%$&$X443321,=",
"2,113255:&&=*=***&%%*==*=***;--*==***-*&*&==**&&%&*&$**o32<<22<=",
"72225555;&&*=*****%***==***;-=****&********=--*&&%&*&*=o3311141-",
"52255555:&$****$%%%*%*;=***==*==;-*-;-**=*-=;*-*&%%&&=*O2432365;",
"53,,2555:***==%$$%*%**=*&&&**=*--*---***=&==-****%&==&*O3122444;",
"72335455:*==;*$$%*=*===*&&**=-==-*****&*;;=*-*&**%%&==*O2243562:",
"72244554;&*****%$&&%*;-;===;;--=-***-*&*;----=&&%******o2445423:",
"83557875:%%**%$%$&%$*;;==-&-;=*==&&*&&&**-=;-*&&%%%&***+2325645;",
"54575552:&*=&%$$$%*&*****&*===*=-*$**-*&***=*&$&%&****-+1136543:",
"51225552;%&**%$%*%**-=***&*=**&&**&&**&*&-*&&*$$*%**&&*O3446521-",
"52225222:***=*****=;-*&%$$$&*=&*******&&&-=*=*$%%***&&-@2422242:",
"72245222:**==****=--*%&$$#$&&=***-*****&*-===**%%***&$*@2244465,",
"5425742,:==;;====;;;*&&$%=&&=&%%&&****-*=;======*****&*+2644556,",
"42124222:==-===*==;-*&*$&&*;=-=%**-*&&**%****-;=******-@2422222;",
"72555575;=*=&&&%&******$$$*;====**=*****%%***=-*&***=*=+5422255<",
"84225555>==-=&=&*-;***$**&**==&==******&***=-**=**---==+7242127,",
"85557855-*=*=****;****$&&**-=%%**==***%&**-;*=****=***=+1252<25,",
"75557775-*---=*=*-*;****&&*$%*$$*-*==*%%%***=******&**;X5563225>",
"75878776;=;-=**&&***%&&&&$$#$$$$**%***%**%**=*****--*=-X5765558<",
"85555355;==;-=&&***%%=-=&*&&$$%%==*%*&===**=&*%%****&=;O3344445,",
"85545552;===-===***&**=$%&&&$$$$*%*====*&*=*&*=&**&***=o6567555>",
"97667533=*%&%$@@$@OooXXXXXXXXXXX@@o@@OOOO@@oOOOOooX. .XX7788567<",
"5553377355555732421123233566<<<3<563534331455588553455555656457,",
"555557855355875763542225454333333655555521314566555542325232375:",
"557788555555557553315211<<><43<<356566553<213434552341255333568-",
"757757333333553312532311<<><<<><5522535233333334554354555881588;",
"767777532<22523212556513<<1<<<<<5533233246653255225323555552488:",
"777779875575335216773<34133<<<<<5656355565446576222222442422568,",
"77875775355555221551<1<14<1<<<<<3533366534434532223442221422337:",
"332232<<:<<,>:=;-==*==**;=;;====;<;;>><-::::,,::;::,;>>;-;*%*=;:"
};
