/* XPM */
static char *result[] = {
/* columns rows colors chars-per-pixel */
"64 64 130 2 ",
"   c #171315",
".  c #191617",
"X  c #1F1E1D",
"o  c #211D1E",
"O  c #25211F",
"+  c #252221",
"@  c #2A2624",
"#  c #2D2926",
"$  c #2E2A28",
"%  c #312A27",
"&  c #322C29",
"*  c #36312C",
"=  c #39332E",
"-  c #373331",
";  c #3C3532",
":  c #3F3934",
">  c #423633",
",  c #433B35",
"<  c #493F36",
"1  c #453E39",
"2  c #493E3A",
"3  c #494137",
"4  c #46413A",
"5  c #4B433C",
"6  c #4F4A3F",
"7  c #51453E",
"8  c #51493F",
"9  c #474240",
"0  c #4E4641",
"q  c #4E4942",
"w  c #514742",
"e  c #544C44",
"r  c #5A4E46",
"t  c #564E49",
"y  c #5A4E49",
"u  c #565146",
"i  c #5C5146",
"p  c #575149",
"a  c #5C534B",
"s  c #5E594E",
"d  c #5E5551",
"f  c #5E5951",
"g  c #635145",
"h  c #62554D",
"j  c #645A4E",
"k  c #6A5B4D",
"l  c #625551",
"z  c #655B53",
"x  c #6A5E54",
"c  c #665E59",
"v  c #6B5E59",
"b  c #705F56",
"n  c #68604E",
"m  c #666155",
"M  c #6C6156",
"N  c #67615A",
"B  c #6D635A",
"V  c #6E695D",
"C  c #716357",
"Z  c #72655C",
"A  c #78665C",
"S  c #746A5D",
"D  c #796B5E",
"F  c #77725C",
"G  c #7B715E",
"H  c #6E6461",
"J  c #6F6961",
"K  c #736661",
"L  c #796762",
"P  c #756B62",
"I  c #7A6D63",
"U  c #766D68",
"Y  c #7B6E69",
"T  c #767163",
"R  c #7C7265",
"E  c #7E7866",
"W  c #767268",
"Q  c #7D736A",
"!  c #7E786C",
"~  c #7F7773",
"^  c #7F7A72",
"/  c #827366",
"(  c #83756B",
")  c #89776C",
"_  c #84796D",
"`  c #8B7C6D",
"'  c #837670",
"]  c #857B72",
"[  c #8A7D74",
"{  c #857E7A",
"}  c #8B7E79",
"|  c #878273",
" . c #8B8275",
".. c #87807A",
"X. c #8C837B",
"o. c #8C887C",
"O. c #928377",
"+. c #92857C",
"@. c #948A7E",
"#. c #998A7E",
"$. c #8E8681",
"%. c #8E8984",
"&. c #948582",
"*. c #988785",
"=. c #948B84",
"-. c #9A8D84",
";. c #978C89",
":. c #9B8E89",
">. c #979087",
",. c #9C9286",
"<. c #97908B",
"1. c #9E938B",
"2. c #9E9391",
"3. c #9F9A97",
"4. c #A08F85",
"5. c #A2958C",
"6. c #A2988B",
"7. c #A29692",
"8. c #A59B95",
"9. c #A99C92",
"0. c #A69C99",
"q. c #A99D9B",
"w. c #A5A39A",
"e. c #AAA19B",
"r. c #ABA2A2",
"t. c #AEA8A0",
"y. c #B2A7A1",
"u. c #B3A9A4",
"i. c #B4AAA9",
"p. c #B7B1AD",
/* pixels */
"c a u A 7 e y e a u 0 , : w l ; 3 0 w i y 0 t w ; 6 p h i e h p 0 j p z Z e 6 e p a r p e , w j p v e r e 7 7 w q p r z u 4 w ; ",
"e r.A +.-.#.2.+.>.-.( ;.=.:.@.X._ =.8.<.-.5.<.P D #.1.1.8.-.8.7.=.l B ( #.-.[ [ -.>.@.&.[ h e ( c M -.-.:.,.+.-.e.7...e.&.Q A $ ",
"6 5.I @.<.-.o.@.4.-.1.q.5.[ D ] 7.;.7.5.;.-.q.[ l X.1.#.-.1.7.e.X.z [ X.R #...| [ ;.1.&._ z [ [ Z R R +.y.+.;.1.1.;.:.&.] N I o ",
"5 =.8.z Z P ~ R ` | _ K P 8 , 8.I W v I Q ( ( I 8 v ) / R U ' F P Z z l j b S / A R Q Q v w P ( I x A z B R c [ P E  .-.W u 6 # ",
"e =.[ e V ' I i [ ,.h 2 V Q 5 l 6 p e T Q [ I M 5 z ) _ P v S Z P Z R B D Z m M I [  ./ c t P ! W ( _ h K S v ( D S ] } m j 3 @ ",
"5 -.~ h ! E Z i B K a z _ I < c ) z w e z u i < 7 m z R z B 7 M M u l u M z z x m B V B B w V P Z Z I z v V x b v Z I B B h 4 4 ",
"0 1.=.h ( K z w Z h e U T :.S Z v z S c : 2 q e r K l I M B x b t j k A  .( P P K P x p 8 t m Z c x U $.w h B D R _ x e B l , $ ",
"t o.+.y R P S R K w c c W U / +.R Z S e 0 K I I T 5 a z m z g i a k g Z  .Q ! ( R I q 4 u z Z S v v I / B ! [ 6 g T W d B q - @ ",
"> R  .x R x o.Z P B l l U Y B / } ` P z M _ X.+.B % 5 2 3 ; 8 r Z P z v A H Q P P 3 t l p Z R M p B R ) o.P M B z Z K Y Q V , + ",
"1 ] ( c Z I R r 1 B V / y v Z z A Z T S / ( P Z R B a w z = % e M M / C V f c s w B h j M R I Z 6 P S z z e _ I ( p Z c E c 3 & ",
"8 1.1.( [ A x l d Z I Z k h a z s c V 8.+.c K v [ Y m W P S 5 < , a h z l 4 w e a r Z M S B Z j , M c V M e R C ! Z B h S j > @ ",
"w *.-.) +.z c B t P Y Z j g z j s l Z 1.+.K V O.Z S ] [ I X.M a f > - 4 a j C Z a s s J M I p r , a f E S R l C y C M S r w e @ ",
"i *.1./ o.o.h r e A Z T M M j Z I S z 5 c t x [ ( ` -...M Z B k z Z p ..X.I K j K K I R j x B z 6 M z Q I Z e I j / G M e 5 5 $ ",
", =.5.7.+.R @.P I e z c Z S R W Q S I M A B v / j ( ( S / M z s l 5 c Y c z _ d A l k M M b h 5 P ( M Z A v s  .S / I C j e 6 * ",
"r q.q.&.K _ ;.B e ] _  .M S | _ K I Z W W a B v Z I Z a Z j } 3 4 e a x P P R c P 5 j R N A 7 u I ( / z ( Y Z x ( / M z k t 4 - ",
"z 4.5.Q B m < c +.[ _ / V z e.#.v M h x I P I r b W m u = 5 r p 4 d t a w I Q c P i j j v p 5 P U O.( / X.R A M D v x P z e 8 * ",
"e 5.*.( D a 3 +.] S A T A S _ A ( v l y v R X.e M ] ! x 1 l z c p P C i 7 , w , 2 e 4 0 5 i w B T / o.&.! z V P P S P R Z d w @ ",
"1 I [ Z j = l / C A h B j j T z y z B v i / B x x I ] z , y _ ( ( ] P z Z 6 8 6 w B e : 5 2 , , e B v Y I v S c S S M S T z w # ",
"0 ] Q , 2 t &.B B V h m Z A P N b B P z B ) B 6 t v Z e ; B c p %.[ ] I i t c l a s e R c v r w y , , z x I ! U l x v h m s 2 @ ",
"; w v I z z R h B K _ T ] S ( R ) ) Y z P ` I ' 6 M h : & i v B +.e z t : y ( B l V K [ X.B c x v a , , l x Y ] B Z y x z e 4 @ ",
"B / [ R Z B a w c V ( ' [ ( Z h =.=.f t { -.l B m Z 4 = , 2 t B h F z e > K o.o.Y M Z I K j 5 s c z f : - g c B v ! q z Z p * + ",
"e [ :.Q ( ] a I e x P [ +.) [ R B v c Q 1.[ r B x w M B Q i , e A ! M O s l ' } R R z P Z Z t c z R a e 4 4 & , Z Z 6 l e 2 e & ",
"1 $.-.S ( ( x p h s U I ( K J c e e x +...' l a = h n G c l e B ] Z B , y h T R z Z S I ] ' Z Z #. .x z c 0 8 3 6 v j i K x i @ ",
"e } +.S T n l l i B c x B V j K E l v p N V 1 ; s l v S a l j [ I S - t M _ x M / T S Z c V K I | ` v v K E x e w L z z c z 5 $ ",
"2 [ -.( o.#.I h w l x h S &.1.( ] / v 9 * 6 & M S I I v z Z B x z 2 5 B I S j D ! R _ M c z A j ( B B s e t w , & z e V c h , @ ",
"0 } =.` ..;.D / e , ( I ( | ( Z l R B a - a e z I Z b D R Y R I B x j v x h w 2 w i p w 7 r z ' P ..I N R [ R h , w i c V l t & ",
"1 ..;.&.^ B Z I , h ' ( [ K v z i Z m = t r B [ K R c C W Z ! ( K Z I S j q / [ V P _ _ M I A B ' X.f f R $.V w , j Z Q l l r & ",
"4 -.+._ 0 e P U w o.] A I C Z a e h 4 6 r i V I o.+.Q B i w c B e s B w e K / Z m l T -.P i v z U P p c K P P j i e Z v ! V e & ",
"q 7.=.h 5 0 4 e B O.Y j Z [ e ; x < 5 a M V Z P B I ' P Z B B e 0 y a Z +.I s v z a m  ._ O.D e q y v v z z Q k > 0 Q d Z B f $ ",
"t { c i 1 , d B i B s B z 8 M 6 > + : r t t i c y 7 e s u 5 l l t l { =.i p 1 1 i 8 j M c ~ h e - w z z c l z 7 % - 8 7 w B q + ",
"p , 5 w $ 1 c t t c e e , 5 M 4 + & j w 1 5 6 5 4 5 3 w e i 0 , , 2 [ v e 4 * , t e f V 0 - w 5 , 1 w , e q z Z 3 & * ; 0 r 5 $ ",
"& + * - o , > * $ - 2 $ + @ # + + & * - & * * & $ $ $ & * , & @ o + 7 , & $ = > * % @ , @ + & @ $ & $ @ + X @ 1 = + O $ = & & # ",
"q e d 0 a r 5 r w a e r i i 5 , w e u e e u a e w p p x a 1 e - s 5 w k e i l s s 6 , 1 , p m , q l m s 5 : t e 1 d z s j h l e ",
"1.e.U ( 5.4.[ -.5.5.o.+.:.+.R ] B S >.-.5.1.=.>.0.0.+.y.2.o.R $ 5 q.Z O.-.+.9.<.-.#.] +.;.2.@. .O.e.p.5.+.=.=.{ ] t.i.8.u.8.7.=.",
"5.&.R +.( O.} -.5.7.-.@.+.#.1.#.A ( ( -.i.#.<.1.=.-.5.+.X.J V o 2 5.C  .+.@.-.@.-.#.5.8.0.8.| _ 2.1.0.7.&.[ 2.*.=.3.1.5.8.>.-.2.",
"R X.I A g z Z ` / / ! Q G I Q Q Q M I j M I N [ S _ o.1.^ 4 , $ 5 +.+.e m T _ [ @.+.] U ;.,.S i.K P U _ U v P Y Q P _ ) P P Q B ",
"R ( O.Z T Z v x D [ [ I Y _ I Y Q ( ! i B B l R R / +.1.P d - + p r.Q 6 Z / I M &.6.B a o.:.P [ J ! ..=.] Q ' P h M ` I B v B D ",
"[ P K a S m r r G I w l I A S V I Z I z Z Z m Z T T I K I r ; : q 7.[ z Q P  .c P Y B P ;.+.p P X.R O...! z B b k S B v g V 2 B ",
"M A Z I @.M h z ( ( w 2 M , x U S A P ] 0 h I ( ....v s B d 4 & 1 ;.>.i I { ' p W Z z ] [ q.] P B ] 5.R v H U U T _ T ( L x y C ",
"z h k ] ` I 1.} +.( P a ; 6 B I B I M C j / ) i C I S c J a 9 * t =.@.w U <.E Q U d H v Y ! `  .B / ) Z v I b K R ` ( A Z v x Z ",
"v x I I C Z 4.q.{ K ' s , K B x V M V [ +.v x Z Z m c Q ~ U p & 1 [ #.x ( x } Z ' Q c y Z R x m I S R R ' K x v m M Y L B S P S ",
"C / -.! v v Y ^ X.' [ S e I Z S v V /  .Z w R K | e B j U B e = , [  .R P j Z e 2 v k Z 7 i l a Z I ( M I S I x R D / h B S D I ",
"M U X.( M c J ! ] ! ' v 0 S v D P T R [ I e ! v R K C r m s 3 $ , &.8.+.{ c c l t Z B z j y v I Y [ T j ' o.2 3 o.I w e Z [ R A ",
"M z x T ..! ] I t p S 4 - 2 r r r y M _ B D B C w V G P e u p & 5 =.0.} =.` ( Z i D v x v K ' ( h A M @.>.A Q S A v , 2 z } R z ",
"B U K =.-._ Q z / W P B r = 2 p M i z ^ M M w C h G ` P r 2 6 * p =.2.! =.w.B w e h p z B Q ( ( ( R U %.! _ 0.{ Q v B : h V z k ",
"Q E [ S 3 5 i r ` _ 2.~ a s 5 s P B B R M w e x 8 Z _ M < 2 3 & 1 [ &.+.{ ! &.P c 0 h i s E ( I R a Z ! B m ( X.V M c 5 I B V W ",
"I ( z , 3 4 1 p A r a c x r 4 e B ' R [ c +.P A I R / h w r 4 * 0 =.=.Y v I X.l , ( [ K c D M x l K I Q B M x M l v 3 w I Z :.v ",
"y V p 1 ( S A c R z B Y v Q e S c M k j ,.] A B ..! M M j p i - t [ ] P v c , 1 I Q b x ..h 5 h Z B B c Z B M z e P x > i A / Z ",
"6 j > w M A x I I I K ( [ V 5 J ! a e #.>.I Z R o._ V S B l u % 0 [ ..( R m , ) ( M S Z M z M B c 7 r a M Q ( 5 V x z 0 B s h B ",
"- 5 e g B S R D a _ ' ! _ Q 4 T 5 l ( | J K Z A R B j B V l q & 2 I ` S R 6 B _ M S j H M B c S h w w 5 r P l 5 h , e w 1 ; h c ",
"M z m V x j P K c B v ! P Z l 4 e _ S _ Z z M i a i I c M h 5 & e ] I < a R ` B x Z k Z K P x x z p x x c i e & 6 f B h z i 5 3 ",
") , 8 g x y W N d N U K S z l & B Z A I Z I @.P h P B z v r 2 O & w B I D S Z n V P x T B I K k z l c c I 2 : v 0 j d R P j I B ",
"h n B z e D [ =.I S U K s i e & D x x z K B V a s F 6 z B e & & l Q  .Q I ( Z Z B K m u u Z z Z M P ' 9 c , 0 c d Z z i M I -.P ",
"I _ { 4 Z B o.+.! T z B l 3 : : S I A R Z 7 : a u e e I h , e 4 6 } *.Y Q V T Z S B M , ; C z M I M V w : l e P K I I I _ m m B ",
"@.| ] Y Y I [ [ x V R P V Z t - a P A e 7 7 e v z z h D R M j & 0 $.,.K P I U V J c j z 0 j h h m e p j 4 { x v x A z M x S m c ",
"( ) i K R ] M B _ } _ ( P x w @ e h x s l M V h c / k Z x k w = i &.#._ R s A M m B R a ; x h x N ; 1 w 9 Z v z U B z j l V z ] ",
"v A h V K v i B [ [ ..x z s & @ , d a c l P R ! Q V S f g i 7 & p O.1. .) / h 7 y j z j 5 u p 5 0 1 - = 3 z 4 Z P ( P v v ! I h ",
"h P C A B a w 5 i c 5 @ @ * 1 h a z I Q / B I I K w u h r r w = a ..*.Q R I - : 6 r > < q B Z x w M 7 e p i i Z S B V ( _ _ ) z ",
"A R ] I l 5 Q #.( I x 5 a z l K J t 1 v j I ! P I T E l 6 e t = 5 X.[ ) R Z x w , = w Z B l Z v s Z w r S z M ) B Z j Z W M W I ",
"B c Q e u ' [ ( R m , s c x ~ U l B h 1 > Q K c S [ ' J x t q * 5 =._ ( M T R s = z Z m R n M x l i , j M j z M [ [ P z t 6 M I ",
"z t e c *.=.I L z - 1 t A -.C , q a c z 1 6 5 x e U ] V I x w @ 5 =.[ x l s q : j R m a B ( i , Z i = a B v M A H I U B v x x e ",
"Z z Y ( l v t : 5 , 3 t a U f w : p l e e 6 w , > i e w s M 0 @ 6 R h h e 5 e 6 7 e q i a j B 5 y   % 7 u j z v l 6 5 e e 3 t t ",
"0 3 ' p t q & ; y e i B e - e 0 5 5 q , q 0 e p 5 6 5 5 w e e & 0 2 6 w & 5 w 4 3 q 4 , 4 i l $ o @ e , < 5 8 w 6 q 1 3 w y 7 ; ",
"o + = & & @ & , = * & 1 # + & $ + * $ @ $ $ $ ; & @ * * = - & @ & + = & . $ @ & @ @ + + + @ @ o O O # * @ $ & $ $ * $ & $ > % + "
};
