/* XPM */
static char *result[] = {
/* columns rows colors chars-per-pixel */
"64 64 222 2 ",
"   c #213046",
".  c #233646",
"X  c #1C3045",
"o  c #1A2E43",
"O  c #1A3B49",
"+  c #1B4553",
"@  c #1B4557",
"#  c #1B4153",
"$  c #1D4155",
"%  c #234150",
"&  c #213D50",
"*  c #233F55",
"=  c #244859",
"-  c #284C5B",
";  c #214150",
":  c #193743",
">  c #172A41",
",  c #1C2A3D",
"<  c #192437",
"1  c #162737",
"2  c #172A3C",
"3  c #1A404E",
"4  c #1D4955",
"5  c #1B4957",
"6  c #1C4957",
"7  c #1D4959",
"8  c #1B3D53",
"9  c #1A3449",
"0  c #193343",
"q  c #192E43",
"w  c #1C3745",
"e  c #264150",
"r  c #2E4E5C",
"t  c #2A4855",
"y  c #224149",
"u  c #1B3C49",
"i  c #1B3749",
"p  c #1A3343",
"a  c #1A2E41",
"s  c #213646",
"d  c #1C3445",
"f  c #1A3C4E",
"g  c #1A434E",
"h  c #1A3749",
"j  c #172E41",
"k  c #1C2D41",
"l  c #24374C",
"z  c #214155",
"x  c #214655",
"c  c #244C59",
"v  c #19283C",
"b  c #172E3C",
"n  c #1C4150",
"m  c #1D495E",
"M  c #1D505E",
"N  c #234C5E",
"B  c #1B4157",
"V  c #1A374E",
"C  c #223D49",
"Z  c #1D3749",
"A  c #192A3C",
"S  c #1C2E41",
"D  c #223949",
"F  c #193B49",
"G  c #1D4655",
"H  c #1D4659",
"J  c #224659",
"K  c #162E40",
"L  c #17283C",
"P  c #162337",
"I  c #1C4350",
"U  c #1D4E59",
"Y  c #1C5057",
"T  c #173241",
"R  c #263F50",
"E  c #2A4051",
"W  c #193749",
"Q  c #1A2B41",
"!  c #1A2D43",
"~  c #1B3449",
"^  c #1C3D50",
"/  c #1A3241",
"(  c #1B4049",
")  c #214955",
"_  c #224E59",
"`  c #21535E",
"'  c #285B64",
"]  c #275564",
"[  c #1C3950",
"{  c #1C3650",
"}  c #243D4C",
"|  c #1A3743",
" . c #345063",
".. c #1A3049",
"X. c #213B50",
"o. c #224959",
"O. c #274355",
"+. c #234655",
"@. c #28505B",
"#. c #28555F",
"$. c #26555F",
"%. c #32636C",
"&. c #1D3F55",
"*. c #233B50",
"=. c #2B3C4D",
"-. c #2A4357",
";. c #193F49",
":. c #2E5161",
">. c #2B5560",
",. c #305967",
"<. c #3D616E",
"1. c #2B505B",
"2. c #2B5060",
"3. c #325E6C",
"4. c #1D3C49",
"5. c #233F50",
"6. c #375563",
"7. c #1D4D55",
"8. c #28505F",
"9. c #305761",
"0. c #2B4E60",
"q. c #2A4D5B",
"w. c #274655",
"e. c #234155",
"r. c #26505F",
"t. c #173943",
"y. c #345968",
"u. c #39606D",
"i. c #325E67",
"p. c #2D5764",
"a. c #234650",
"s. c #173743",
"d. c #163240",
"f. c #162A3C",
"g. c #162E3C",
"h. c #365F6D",
"j. c #264C5F",
"k. c #2A5F6A",
"l. c #23505E",
"z. c #2A495B",
"x. c #234955",
"c. c #173243",
"v. c #1D3649",
"b. c #274055",
"n. c #2E5061",
"m. c #2D5364",
"M. c #275164",
"N. c #152A37",
"B. c #152632",
"V. c #152737",
"C. c #1B3049",
"Z. c #235564",
"A. c #30495C",
"S. c #193449",
"D. c #305567",
"F. c #416C73",
"G. c #152332",
"H. c #15222E",
"J. c #245059",
"K. c #225F68",
"L. c #1B2A3D",
"P. c #163640",
"I. c #172332",
"U. c #1C3341",
"Y. c #1A4151",
"T. c #1E3041",
"R. c #16303C",
"E. c #132832",
"W. c #192A37",
"Q. c #172E43",
"!. c #132232",
"~. c #131E32",
"^. c #273648",
"/. c #345563",
"(. c #16283C",
"). c #304353",
"_. c #152337",
"`. c #192737",
"'. c #162A40",
"]. c #1A4351",
"[. c #1A4851",
"{. c #1D4159",
"}. c #162A37",
"|. c #284D5F",
" X c #497380",
".X c #274955",
"XX c #2E4957",
"oX c #172B43",
"OX c #28485B",
"+X c #1D2D3D",
"@X c #1A2837",
"#X c #151E32",
"$X c #16243C",
"%X c #223041",
"&X c #345568",
"*X c #192E3C",
"=X c #375968",
"-X c #17243C",
";X c #1A2A41",
":X c #1C2E3D",
">X c #375E68",
",X c #151B2E",
"<X c #1A2A37",
"1X c #172841",
"2X c #264650",
"3X c #1D3B55",
"4X c #213F55",
"5X c #244359",
"6X c #1A3D51",
"7X c #1A3951",
"8X c #1B3F57",
"9X c #1B415C",
"0X c #23485E",
"qX c #225068",
"wX c #28435B",
"eX c #121B2B",
"rX c #12212D",
"tX c #2A4E64",
"yX c #32596C",
"uX c #162840",
"iX c #2A435B",
"pX c white",
/* pixels */
"    .   X o O + @ @ # $ % & * = - ; : o > , , < 1 2 : 3 4 5 6 6 7 @ 8 9 0 q o w e r t y u u u i p a a s s d 0 9 f + 4 g O h j 2 ",
"k   . l d p h 3 + @ @ $ z z x c x f h q > v < < 1 b : n 6 6 m M N 6 B V 9 0 q w e r e C Z i i p a b A S l D p 0 F g 4 g O 0 a 2 ",
"k k . l d p h f + 4 @ @ G H 7 J n f h K > L < P 1 j u I 4 U Y M M 7 # 8 V 9 p C t t C w d w i 0 T b A S R E d 0 W g + + O 0 j > ",
"Q ! X ~ d p h ^ 3 + U U U U U 4 + + ^ p > L 1 L L / ( ) _ _ ` ' ] N $ $ [ { D e t } s d d w i | T j a S E  .l 0 W 3 + + 3 h p 0 ",
"..~ ~ ~ p p p X.z ) U Y Y ` ` ` _ o.- O.Z a a j 0 u +.@.#.$.$.' %.#.J &.V Z *.C } s d d Z u ( ( O : 0 p =. .-.Z O ;.g g 3 f h 9 ",
"V V [ h 9 p Z O.:.@._ Y ` ` $.' $.>.,.<.r C Z i & +.1.2.c J 7 $.%.3.o.8 { o X d s s Z 4.4.^ G + 3 u h Z Z R D u u ( ;.3 f V V V ",
"V f &.V [ [ 5.6.2.o.` ' ` U 7.U c 8.1.9.0.q.w.q.1.9.9.q.e.[ ^ c 3.3.r.&.9 o d d s Z 4.; z G H 4 x x ( u 4.i i h ;.;.t.W h h [ [ ",
"^ &.$ $ &.e.0.y.r.N N M 4 ( F : u ( x +.- 2.y.<.u.i.:.O.Z 0 ~ n p.%.p.H V 9 p d 5.R % e.x # f 3 G ) x a.( O O F F s.d.~ X.X.& [ ",
"* * = J c 8.,.8.o.o.@ # F d.K f.g.T O $ r.p.h.u.u.9.+.& ~ q q [ j.3.k.l.H $ ^ Z e t z.= $ f W h O x x.) n F F t.c.d.> j v.5.b.O.",
"z.z.n.m.p.h.3.M.o.G 3 s.K N.B.B.V.g.d.3 H r.i.3.3.8.e.[ C.q q [ = p.' ' Z.6 3 u C A.z.; f W S.c.O n x 7 3 F s.c.g.L L L L o D O.",
"O.0.D.i.3.F.3.M.7 + O g.V.G.H.B.2 2 T : 3 H 7 r.i.J.z ^ V 9 h ^ c ] ' K.K.6 : j s A.E i h W W W O n ) 7 3 s.K f.V.v L.L.v 2 q Z ",
"i % c j.$.p.' $.7 3 P.N.H.H.I.L.U./ 0 : h h i n o.o.G $ z $ $ H l.Z.Z.K.Z.Y.0 A . A.s 0 W f f F n G 7 G O g.V.B.V.A =.=.T.A > q ",
"0 ^ + 6 M ` ' #.) O R.E.H.H.W.s E w.Z 0 0 q j 0 f 3 H M M.r.l.l.Z.` ` Z.M f Q.a E =.S j V # 3 g ) o.G 3 c.f.!.~.G.L.^.=.k L j j ",
"f 3 + U U Y $.$.c u T B.H.H.1 U.t /.R i q (.V.f.j O 7 M Z.Z.l.M M m 6 N + O p D ).s 2 q f 7 7 7 r.r.I F c.f._.~.!.`.L.L.A '.Q.c.",
"3 ].[.U M M ` #.>.w./ V.!.B.V.p O.t R d k L 1 V.K : G M Z.M M U 6 @ H {.3 u 5.A.} a '.0 G ] ' p.3.i.4 O c.f._.!.G.1 v A 2 j s.W ",
"F f 3 # + 5 M r.p.:.C b }.N.j i e.% Z s S k A N.K s.3 @ 6 @ 6 o.J {.&.[ i 5.z.z.Z 0 0 O J ] ' 3.F.%.J.3 h g.V.V.1 A A A j 0 h F ",
"T T c.s.F Y.+ 7 #.y.r w T j : ^ +.a.w a S S d / j T F ( 3 3 H r.|.z X.v.R -.-.5.i u f $ c #.>.%. Xi.@.x ( s.g.2 A S s | p h W W ",
"}.L f.g.c.S.V # o.,.y..Xy h u n z z i a d l E s p d.0 W f f # j.= O.R =.-.R R 4.^ n z x @.@.@.#.i.p.#.l.G ( : j / l XXe 4.O s.K ",
"P P 1 1 (.oXS.O x >.3.9.c $ $ $ I n u p d E -.} | 0 0 9 O h n o.OXz.6.).l l Z u z = OXq.t .Xx c c #.' ' l.4 $ u Z -.6.t % O d.2 ",
"+X+X@XG.#X$X'.0 G p.i.%.#.7 + G G n u 4.5.-.A.E C 4.i i h O h x - q.A.l l C.Z ; = 2.:.r w.; u ^ G $.] l.r.r.o.; % e t w.a.: j L ",
"=.).%X, P _.(.q x #.' p._ 4 # # 3 n y % XX6. .XXt % & Z i | | & = 2.OXR Z Z X.O.n.&X:.q.; i | h G r.l.H G $ n h w C % +.n : j A ",
"T.%X%X@X< < L p = 8.o.g 3 h 0 W 9 i % XX6.A.t O.w.e e 5.d p 0 [ e.- 8.= O.-.z.6.F.6.q.a.u : : h $ N H 3 f : K g.*XU.i i O : j 2 ",
"2 v < v < v X b.0.- u T 2 f.(.> / } A.6.-.e e e e e.} D d d p i ; - p.2.=X<.F.<.&X2.c ; u O h f H J f s.d.f.B.!.`.L.*X/ 0 c.d.K ",
"K > -X-X;Xa Z A.:.% S 1 P !.P A . A.A.-.C C R e C 5.D d d d p | 4.- y.<. X<.&X:.2.8.j.c ; n n $ x n : K V.H.H.G., %X:XA b j T d.",
"s.c.j j q ~ % q.w.d Q v 1 `.L.T.E A.).e 5.% e E C % w / p p 0 | 4..X>XF.>X9.2.|.= c o.o.) ) x c J ^ 0 f.!.,XH.@X=.=.. <X2 2 j 0 ",
"W W O h V &.OXz.5.p > 1XQ X d } XXXXt e.x a.2XE e O.Z 0 T P.| : ; 1.<.>Xq.e.+.z $ G G g n G o.8.8.= & a B.!.G.W.:X. :XW.1 (.f.T ",
"h f 3 # B J OXe.& Z v.p { & 5.R XXe % e.; u ( +.t OX& 0 0 : : | % /.<.r C Z h [ ^ f f h h O n = ,.<.z.X 1 V.V.2 A :X*X2 f.f.K Q.",
"h f # @ 7 l.= z ; & X.[ ^ e.5.5.O.4.4.a.n u O +.0.0.; h : h h u % /./.% i 0 q q 0 : 0 p j j 0 & OX2.O.p L V.f.K j q j T K K Q.c.",
"V ^ &.G o._ 4 G ; & & & & ; % w.w.+.x x.c = a.w.- w.; h O O u u +.r t X.0 Q.'.> > j a a A L L ~ ^ G I i j '.Q.9 S.S.9 ~ 9 0 9 S.",
"3X4X{.= r.J._ ) I ; & ^ ; ; w.&X=X0.- #.>.2.2.q.+.e.; ; n n ^ z +.q.t X.q '.2 2 2 Q S T.k `.L oXf 7 7 G h S.S.{ { V f [ [ i [ V ",
"3X{.4X5X|.J.J.) ) x z n ; e.w.&X&X- = 8.8.>.9.1.+.+.+.+.+.+.+.OXOXq.q.e.[ q > (.L :X).=.L.1 (.Q.f 7 ` ` N 6X7X7X3X6Xf f V [ [ 4X",
"8 3X&.{.{.H G 4 4 o.o.c = +.OXw.O.& & H _ r.#.8.2.8.2.@.@.1.9.9.:.2.:.0.5XX.0 j A T.^.T.v 2 K c.# 6 Z.Z.Z.H # 8 8 8 8 ^ f ^ & 4X",
"3X3X3X3X8X6X# + 4 _ #.p.8.= 5.v.p j 9 $ 7 o.r.#.m.p.m.9.y.>XF.<.=Xy.:.m.0.+.& : / S S 2 > Q.9 V # 6 ` Z.] r.H B B B 8 8 [ Z & 5.",
"3X3X8 8X9X8XB + 4 ) c o.$ [ j 1 P 1 q V $ x x x J o.c @.9.<. X<.:.q.OXOXe.; ^ u 4.d A '.q S.V &.N 6 M $.p.p.8.N N 0XH ^ i Z 5.R ",
"X.f 8 B 9X9XB H G $ $ i 0 f._.~.~._.> 9 &.n & i : h ^ x - y.=Xr O.5.& i h h 9 h h i a j Q.{ 8 0Xj.N r.#.%.F.3.] ] ] M.# h ~ Z Z ",
"i [ ^ B B B B # 3 V 9 K (._.~.~.~._.1X9 $ $ i q > Q.i $ x OXO.& Z ~ 0 q q 0 j j 0 u i ~ { V &.j.= = >.i.%.3.k.' ] qXl.# h p i Z ",
"V ^ V B B Y.3 O 9 Q.'.$X_.~.,XI.#X!.L h $ 3 h q '.q O O ^ ; e.5.Z p q q K j j K j & O.O.wXOXwXe.O.w.9.i.' k.k.K.qXN @ 3 F h i i ",
"6X8 8 # # V c.d.f._._.~.H.,X@X+X@X#XL q u ^ 9 q > K : : i e.w.O.5.X.~ 0 q q '.> a 5.O.wXz.n.O.5.% - @.$.k.k.K.U @ # Y.3 3 f f O ",
"B B B Y.h q f.B.!.H.eXeX,X+X=.%XI.,X~.'.9 ^ [ 0 j g.T 0 u +.OXq.OX* [ ~ 0 q j a D -.R *.*.5.*.5.+..X_ Y K.k.U 3 F W W F ( 3 ].# ",
"@ @ B f c.'.V.rXH.eX,X,XI.:X^.@XeXeXeX_.q ^ f h K K j 0 i +.q.:.q.e.& ^ [ 9 p D XX .-.*.X.*.Z 5.+.- 7 4 4 # t.d.f.f.f.d.O 3 # + ",
"6 6 ].W c.K V.~.H.!.G.1 W.L.A #XeXeXeX~.j [ $ ^ : 0 j 0 i & - :.q.e.z &.^ & & w./.<.A.* X.Z D 5.w.J.) + h j (._.~.H.!.}.j h f + ",
"+ @ + f h 0 V.!.B.1 }.2 b *X2 (.N.V.V.L ..^ {.$ ^ h h h u ; +.0.OXe.+.= = x c - 2.:.OXe.& 4.4.% - J.G O q (.G.eX,X,X@XB.2 T h 3 ",
"+ + @ # $ i 2 _.V.2 2 j j j 0 h O u i ~ &.z o.H n ^ u 4.; e.+.q.2.q.- m.8.r.J.8.8.8.|.c J n 3 a.J.@.; q '.P ~.#X< , %XL.`.a p f ",
"# + G G J n j 2 V.f.'.K K j i f ^ z OXOXj.c o.c - w.w.w.q.:.:.q.:.8.|.tXtX|.j.j.x ; n x o.H + 4 J.@.e.q 1XL _.P @X^.).%XL.a p ^ ",
"3 $ $ z +.w.& / 2 f.f.g.f.b a q c.9 z |.0.|.- D.u.>X=X<.y.yX,.2.8.c x z 5X5XG ^ 0 j 0 O G 7 U 4 ) 2.z.v.> uX1 P v k k L.L.Q p h ",
"^ f & % w././.e | j f.f.f.V.1 _.V.'.9 z |.z.2.u. XF.=X,.:.,.2.- x ^ i h 0 0 K V.H.G.V.j W + 6 7.J.>.&X*.o K > L L Q , v 2 > q ~ ",
"9 ~ p D e r /.r % | K f.N.V.!.!._.(.oXf 5Xq.=XF.F.D.|.- - 8.@.; u | 0 j K f.V.eX,XH.!.V.K F + M ` 8.n.iXZ ~ q q > Q > > > > a p ",
"> q o k T.d 5.% % & q f.N.V.V.B._.$XoXV +.n.<.<.:.+.4Xz +.J.- ; i 0 j K g.N.E.B.I.<XI.G.}.T 3 7 l.o.OX .iXZ { 9 q o > > ! > j q ",
"q a Q +X, Q a | u & h K f.}.1 V.V.(.! [ O.=X X6.= Z 9 Z & +.8.- ; i j f.N.N.B.W.:X=.%X`.1 b : $ o.o.5Xz.=XA.*.v.~ o a q q q q q ",
"l X T., < $X'.c.n a.n : j b 2 N.f.'.0 & OX=X<.O.Z j > U.w % - :.+.& T f.N.N.V.}.<X^.=.. L.a p u z c 5X* O. .XX*.d d p 0 p ~ p d ",
"E l %X@X!._.'.W 3 ) x ; i | / j j 0 i % z. .XXD a A L.T.} s O.y.:.e.i d.f.N.N.V.1 W.:X. =.} Z i i & z & & O.-.R l p p ~ i i d l ",
". :X, G.~.(.Q.h n ) x.c e.w.e.4.i 4.; w.r r 5.d S S . ).=.T.4.q.9.+.& : K f.V.(.V.V.}./ }  .A.D o p | & 4Xz e.5.Z Z Z i [ Z D l ",
"A `.1 G._.uX..8 G o.>.,.y.y./.q.+.+.q.:.=Xr 5.| p U.=.E :X*Xp z :.:.x.u 0 K f.f.(.f.j i & R E =.S A > o i [ ; * 5.C & ; ^ Z D U.",
"`.1 P !.(.q V $ j.p.%.F.F.u.D.2.8.2.y.F. Xy.w.& Z Z C s *Xj 0 n j.9.2.+.O s.d.K K q i $ [ p S k +X@X`.L ! 9 ^ z % % +.+.; 4.d A ",
"1 1 1 L j f 5X|.m.,.i.i.#.- e.J c 8.,.F.F.h.2.- % 2X} | 0 0 h $ @.,.:.- n O : : h &.J 5Xf q > v , +X+X< L > 0 & +..X- OXn i a 2 ",
"1 f.j p & |.yX&X0.= x G n i 9 h ^ x c >.i.i.9.:././.w.C i u ^ c ,.F.F.D.- +.+.; $ J M.{.f { q L `.+X^.+X< 1 2 i e.- @.= u p A L ",
"g.K 0 Z 0.<.u.|.3X[ V W 0 j > 0 h G x o.J.c - 1.y.9.r e.; x +.:.F. XF.u.h.yX>X&X0.j.r.H f V 0 > v , ^.)., 1 1 a y c x.I O 0 > 2 ",
"T 0 h ; A.&Xz.X...9 S.Q.2 L 2 j i G G G $ 3 ^ % +.- :.q.+.c 2.u. Xu.2.2.2.9.y.u.yX,.8.G 8 V p a v v k =.%X, `.2 | n I 3 f h Q.K ",
"f O O u % R *.! q Q.q 2 L 1 L > 9 G G f h 0 0 : ^ +.q.q.- >.,.h.m.= z G G x - m.yXh.2.G 8 V C.a Q v , %X, @X< 2 j O 3 3 3 f F W ",
"3 f f u Z v.! > j q j A L.v v j | ; x h > L L 2 0 x - 2.8.m.m.m.5X8 8 f O ^ z x.p.h.p.z f i ~ o a ;Xv v , `.P 2 0 O g + @ ].].g ",
"f f h 9 o ! > q 0 h p l l   s D % w.; o L P I.1 0 x c r.' #.8.j.{.7XV S.0 0 u x @.i.y.+.f h i p p Q L v L (.(.K s.( ].6 5 5 ].Y.",
": p o q o a ! 0 h [ D -.A.).-.A./.q.& a v @X< I.2 h 4 M ` r.8.j.{.3XV 0 K T Z 4.c ,.y.x.u u f i : 0 j > > '.K K W 3 4 5 6 ].Y.f ",
"a a X X o a 0 h f ^ 5.-.).-.E n.&Xq.& a ;X, +X`.2 d.;.g 7 j.8.j.{.8 V 9 q a Z 4.w.9.9.+.u f ^ f h 0 0 j K T c.s.F 3 [.4 + f h 0 ",
"Q k   X S a i # # f & e -.E b.z.:.q.4.o A k +X`.L j t.3 G r.p.j.{.&.V 9 p d Z 4.e /.1.a.( ^ ^ f h 0 j j T 0 0 W F ].4 ].3 O 0 a "
};
