/* XPM */
static char *result[] = {
/* columns rows colors chars-per-pixel */
"64 64 31 1 ",
"  c #252525",
". c #2D2D2D",
"X c #333333",
"o c #474844",
"O c #494A46",
"+ c #4D4E4B",
"@ c #4F504D",
"# c #51524E",
"$ c #555551",
"% c #575853",
"& c #5A5B56",
"* c #5D5E59",
"= c #5F605A",
"- c #62635D",
"; c #666661",
": c #676862",
"> c #6A6B65",
", c #6E6E69",
"< c #6F706A",
"1 c #72736D",
"2 c #757671",
"3 c #777872",
"4 c #7A7B76",
"5 c #7E7E79",
"6 c #7F807A",
"7 c #82837D",
"8 c #858680",
"9 c #878882",
"0 c #888983",
"q c #8C8D88",
"w c #92938D",
/* pixels */
"777,.*287555558777772.267074774-X37644667863786768868785=.;73213",
"875>.157875444787777<X177777777-.17446477885887888886767;.;44123",
"433& 35874586418777q2.267007077-.37655144665688878877884;.=13333",
"-*-#.,587578083877772.>67777773-X-6676676786877876786765,.&;->;=",
".....154578897867q772.-677736<2-.->21113235244565313442,,. ....X",
"1,*#.1455788988877771X-226,2<<<-.;>>>-==-;>121<>,,;><1,<>.@*;;;,",
"743=.355545488887777<.--,------=.*=*-=-*&=&*;,>>>;=>;>>>*.-85433",
"544>.355448898777777,.%-&=-=---# o$&==**&&$$#$&==&==&**=$.188864",
"772<.2343468854677q76. ........  .....................X...277787",
"775<.1445345898777773.<61-26363=.*1>21222;=$.=1<3444322<*.187886",
"8442.25846858858q7771.377777777:.1898644442=.14455545677;.<88786",
"7642.;575865965877771.277777763<.3889866447>.;1424556565;.179778",
"8862.-5784458560q777-X-77777762>.1888567787,.&;1,1111122-.187987",
"0972.>87645568997777-.-677q7636-.35488977771.@;=--;>;;*-$.178778",
"qw61.>88788696767772-.-3613<2<-=.2458865477, .............>78708",
"7992.;68770666877736-.-<,<<>-:>-.;857982223-.=111,,11<-*O.,79076",
"741;.;677666<662116>- %--&----&+.*447642133;.1447854366<&.,97087",
"<1<-.<12<6222<111<<1&  .X.....   -113112321;.,5476777561;.188976",
"<,,;.>22612<21226<>>= -661:3<-#  *>1,,<<1<1=.*;,1,122,11,.;49877",
"<<1-X-,222<6<<121<<>- <6777776&  @*;--;-=*-# @==--*-;-*;*.-13774",
"<>,-.&>;>>->;;;;-::>=.<7777777<  ....X...........X...X.. .*1,,11",
"<:;; $;;->--;;,<:---& 2777w7771.@,2211<122211<21112111>-&.*,>,22",
"<>:* &-;-,>-:-;;::--&.<67q7777<.-24454442375747477754421-.*,,,,,",
"<>;-.;-:----:-=;-:--% <6777777<.-21262234344244757441122-.&>,>>,",
"1>==.;->>;*=;;==--:>&.<7777766>.;>;,;;;;;;,>>2,,11,11121-.&->,,,",
":=&&.-;=&&*=*&$$%#--#.<7776777<.@*******=&&=&;**&;;;*;;&O #*--*-",
".......... .........  >7777777,.....X....................  .....",
"2<>1>:>;&* >21;>>1:=#.>6777777>.$<2,>>;-;$.$233,,121,;-*+.@,;-*-",
"845866882=.48777776,% ,7q77777>.;44775551=.<87675588765>-.,5445,",
"656088086-.177677776&.-7771777>.>44887884;.;68967447867,-.246787",
"747666877>.278787776= &,611673&.-33447552*.=13655757543,-.168888",
"065686685-.388787777>.=11313<1=.-<<,,,113;.=,>,,2113233,*.186658",
"074577766-.<08687642;.*233231>*.*;;,,1,<2-.-:1,>11>,221<;.258778",
"875455767>.288876655; *<211>,>-.*;>;<<,11*.&:;1;,1;>1;1,;.278775",
"555555706,.175776552;.*>,,,>,>-.*;;;,1,1:*.*;;;,1>>,1;;;*.144444",
"576566076,.287785555, %:,,,,>;*.+*--->*-;@.@=-;;-*--;==*@.145474",
"696560665>.<88787642,.#&=--;>;=..X...................X....246878",
"877577075>.<67777954> XXXXX#;&#.@;;;---;;;****=*=-==;=;-$.255444",
"565707775>.478670796; -,1:#XXXX *11222221112,;;,:;;:-;<;*.445784",
"544447654,.288880074; ,235:>>>-.;1133242113433113:2:;><>=.245474",
"434444444,.487780785> <47777752.;3233221,,2,,1,,11,;1112;.147776",
"544544454;.286788584> <57777772.;1,1,><,;,3321,;;,12>>,>*.>48878",
"454554446;.178866505;.,4577776>.==*;;;=;&**-*=*=;,;-;>;;*.<46664",
"878545447<.>77876775* -42777771.***%**--#$##+$+#@$###$@&#.-64446",
"798455755>.>5877675<*.<4556765>.......X.X.X.............  &46646",
"25745446<*.>1358752<* ,45777661.#;**.->;>;--;;;=*******&@.-<6454",
"22,,421,>*.-1115111,%.-4267777< -11;.133474545535577462,*.*,4484",
",,,,,,>,>;.:12321<1,& ,4656777,.;31;X378775655544557524>-.-,4584",
">,,2,,,>:-.;>->>,,,>& ;5455776< -21=.2787788785444446675;.-12441",
";,,,>>>,:-.*<-*:,,2>*.-3457761=.-21*.1577748587844445462-.*;-,;,",
"**&**&-;-*.-,=*>>:-&$ -->1111<&.=<<-.>400878787754446742-.&-;,;>",
"*;*-;*-;;&.=;-:-;;=&+.&=:>>>::% &,>;.>3453455455524442>,;.--;>;>",
"---=;>;;-=.%;;:----&$.%*::::==&.%;>-.><>>,<24242211,,,,,;.*>;;;;",
",,&&&*--;=.----*:>>%$ %:;:-:-=& ;;:-.;>>>>;>,>;>****;;->*.$->;;;",
"*&&--=%**$.#%%&*-**#o O&:&%&%%+ #$*& @%$&&$$%$$*$&&$$&$$+ o$****",
"    . . .  . . . .    . .  ..      .. .. ..  . ..  .. .   ..X..X",
".+><>>>>><>1<>>>1111>11><<,111,->;><;,<>:><&$ &=><;<>>,<<,<1,,,,",
" :577777575757757777747777777777855764555642=.=45555557777697787",
".:777777777577777645777777777070777755687754-.;59779999579796889",
".;<15334453454372324412244344434343111257441-.=,1<13131<11344555",
".=:><><><<<,<:<>,,,,,>><,1,1,,1,,>--;>1>11<>& &,,>><>>><<<1>,121",
".=><>>:<>:>::->:-:>>>->>->>-**>>,-,>;,>-;>,;$.&:<:><><>;>,,>,;>,",
".%:>:-=-==;&%-::=*,>--*:*--&&%*--:-**;;&;;&;$.$;>;&*=&-;*%--*&--",
"..X..........X..X..X....X....X...XX..........X.................."
};
