/* XPM */
static char *result[] = {
/* columns rows colors chars-per-pixel */
"64 64 204 2 ",
"   c #3B4535",
".  c #35412F",
"X  c #48553C",
"o  c #5D7736",
"O  c #607C32",
"+  c #4C5547",
"@  c #545D49",
"#  c #555B55",
"$  c #5B5D5C",
"%  c #565758",
"&  c #494B4A",
"*  c #5C6A4D",
"=  c #5D635A",
"-  c #5C6757",
";  c #67794A",
":  c #636A5C",
">  c #62685B",
",  c #6A745D",
"<  c #6D7B5B",
"1  c #677854",
"2  c #707C5C",
"3  c #616B4F",
"4  c #5C5D62",
"5  c #5E6161",
"6  c #626463",
"7  c #656A64",
"8  c #696C65",
"9  c #656569",
"0  c #67696A",
"q  c #6B6C6C",
"w  c #696769",
"e  c #706F6F",
"r  c #6B7364",
"t  c #6D7963",
"y  c #6D726B",
"u  c #6A7666",
"i  c #717C64",
"p  c #71756C",
"a  c #747B6C",
"s  c #787D6B",
"d  c #6D6E71",
"f  c #6A6777",
"g  c #716E76",
"h  c #6F7072",
"j  c #737474",
"k  c #757B73",
"l  c #797C75",
"z  c #767679",
"x  c #79777B",
"c  c #777979",
"v  c #7B7C7C",
"b  c #817F7C",
"n  c #678535",
"m  c #6B8845",
"M  c #72884E",
"N  c #6F825B",
"B  c #6C8355",
"V  c #718453",
"C  c #748D54",
"Z  c #72845C",
"A  c #778B5A",
"S  c #7A9459",
"D  c #6C9046",
"F  c #748463",
"G  c #7A8B64",
"H  c #76826B",
"J  c #7B846D",
"K  c #7D8A6B",
"L  c #798564",
"P  c #7D9264",
"I  c #7F9668",
"U  c #7C8474",
"Y  c #7E8A73",
"T  c #7E827B",
"R  c #7A8576",
"E  c #87A55C",
"W  c #818B6B",
"Q  c #84946C",
"!  c #859B6C",
"~  c #828C75",
"^  c #81847D",
"/  c #848B7D",
"(  c #8A8E7F",
")  c #828576",
"_  c #849274",
"`  c #8A9575",
"'  c #8A9B73",
"]  c #86927B",
"[  c #8B937D",
"{  c #8C9B7C",
"}  c #939C7B",
"|  c #8FA378",
" . c #93A27E",
".. c #95AA7C",
"X. c #7D7D81",
"o. c #7E7D88",
"O. c #817E81",
"+. c #7F8181",
"@. c #838484",
"#. c #868A83",
"$. c #898D85",
"%. c #858689",
"&. c #88878A",
"*. c #87898A",
"=. c #8B8C8C",
"-. c #898785",
";. c #908F8E",
":. c #8C9384",
">. c #8E9983",
",. c #8E928B",
"<. c #899484",
"1. c #919687",
"2. c #939C84",
"3. c #92948D",
"4. c #949B8C",
"5. c #9A9E8C",
"6. c #8E8E91",
"7. c #908E93",
"8. c #8F9192",
"9. c #939493",
"0. c #989796",
"q. c #969993",
"w. c #9A9B94",
"e. c #95969A",
"r. c #999799",
"t. c #97999B",
"y. c #9B9C9B",
"u. c #A09E9D",
"i. c #95A384",
"p. c #9AA786",
"a. c #9BAB84",
"s. c #96A18A",
"d. c #9BA48C",
"f. c #9DA98D",
"g. c #9EB188",
"h. c #9CA393",
"j. c #9EA991",
"k. c #9EA19B",
"l. c #96A290",
"z. c #A0A88F",
"x. c #A6B58E",
"c. c #A1A595",
"v. c #A3AA94",
"b. c #A2A39D",
"n. c #A8A79E",
"m. c #A4AB9C",
"M. c #A9AD9D",
"N. c #A5B093",
"B. c #A5B09B",
"V. c #ABB49C",
"C. c #ABB998",
"Z. c #B2B69E",
"A. c #9E9EA2",
"S. c #A09FA1",
"D. c #9FA1A2",
"F. c #A4A4A3",
"G. c #A9A6A4",
"H. c #A6A9A3",
"J. c #AAABA5",
"K. c #A5A5A9",
"L. c #A8A7A9",
"P. c #A6A9AA",
"I. c #ACACAB",
"U. c #B0ADA6",
"Y. c #B1AEAC",
"T. c #ADB2A4",
"R. c #ADB1AA",
"E. c #AFB8A6",
"W. c #B1B4A6",
"Q. c #B2BBA3",
"!. c #B2B2AD",
"~. c #B4B9AD",
"^. c #B9BEAC",
"/. c #B8B4AF",
"(. c #ADADB1",
"). c #B1AFB1",
"_. c #B4B4B3",
"`. c #B9B6B3",
"'. c #B6B9B4",
"]. c #BABAB5",
"[. c #B5B5B9",
"{. c #B8B6B9",
"}. c #BCBBBB",
"|. c #B7B8B8",
" X c #AFB0B2",
".X c #C1BFBD",
"XX c #B2C497",
"oX c #B5C2A4",
"OX c #BAC3A8",
"+X c #BEC2B5",
"@X c #BEC2B9",
"#X c #C0CBA9",
"$X c #C1C2BD",
"%X c #C5CABA",
"&X c #BEBBC2",
"*X c #C1BFC2",
"=X c #C4C3C3",
"-X c #C9CAC5",
";X c #CDCCCC",
":X c #C7C7C6",
">X c #D0CFCF",
",X c #D0CFD0",
"<X c #D6D4D5",
"1X c #CFD0D1",
/* pixels */
"0.*.*.,.@.v x j q q q 8 $ 6 6 0 j l g w 0 q z c c v O.X.T @.%.v q +.l a k k j g j c b v b -.@.v k e q j j h j v 3.3.9.9.=.3.9.9.",
"I.G.0.r.S.0.3.9.=.$.q.d.a a J.`.`.}.m. .p.y.n.J.L.v.J._._.I._.b.j 9.V m F 0 j j X.7.e.0.9.6.7.b p i i J ' J +.=.`._.!.I.I.R.Y.I.",
"u.r.7.3.3.$.^ ^ ~ l ^ ] r i N.v.5.u. .' _ ) $.( 0.n.J.y.b.4.,.=.j 3.8 8 l q y F J N / *.v j v l %.T l ~ } 5.k.X.0.q.4.q.t.y.F.F.",
"F.0.h.h.,.;.$.( ;.$.@.-.7 H  .Y ( 5.5.n.n.u.G.w.J.Y.W.u.3.d.b.=.j =.l @.<.K H U S C 1.u.=.3.1.#.r.y.m.p.1.R.R.=.k.2.0.k.u.b.t.G.",
"F.u.c.c.w.9.1.` :.9.9./ 7 F E W ) 0.u.G.J.T.U.I.U.N.z.5.5.y.y.9.0 =.F.` >.k.J.A.$.-.I._.R.E.m.J._.I.=XOXP.E.j.X.4.w.b.F.b.F.F.H.",
"L.J.J.G.k.0.:.1.1.;.9.v 5 < Z K 1.u.n.M.h.v.v.F.J.C.u.2.n.n.u.0.p 3.J.' ` J.=X`.y.,.$.J.;X-X-X%X}.=X$X=X~.oXk.y y.I.J.I.L.I.R.I.",
"I.J.W.H.m.t.$.9.=.T =.@.6 2 l =.G.n.U.!.c.n.G.Y./.W.n.0.0.b.b.0.a 1.=.$.5.b.K.L.c./ s 5.=X=X;X=X@X@XT.m.XXXX=.q k.R.J.m.J.I.J.Y.",
"I.F.J.H.k.q.3.=.) l v -.8 r T 2.z.u.n.U.b.M.w.n.].`.M.1.3.u.d.1.+.G.b.9.t.y.m.I.G.y.w.J.=X-X$X=X}.J.T.d.i.f.8.k u.b.M.F.L.L.u.b.",
"L.b.w.n.b.$.l K H j p @.c p b ` 5.w.S.y.5.3.=.;.F.!.W.N.1.w.w.w.,.T.G.t.5.k.y.F.I.!.I.`.$X-X%XoXg.s.l.f.>.2.q.x 0.w.F.J.H.t.u.J.",
"0.^ j k v y @ @ = 6 > 6 $ > s W ) 1.@.j l -.-.=.@.3.0.9./ 1.$.=.7 =.$.T Y =.3.=.9.e.8.=.9.D.b.4.I / O.=./ Y p w 8.^ -.3.<.@.$.0.",
"y @.v x v v v c v @.O.v x l b v x l -.=.&.6 6 l v v v c y j j b X.k j j @.6.=.=.c a 6 9 *.=.6.@.9.r.0.t.t.e.7.,.9.*.%.=.6.6.%.@.",
"v [._._.(.I.(.}.].}.{._.`.0.j k j 6 r p F.c e &.7.3.+.9.` Q W / k.y.d.f.R.[.F.F.'.h.q v !.!.}.I._.;X1X>X1X;X-X-X}.@X$X-X;X:X*X_.",
"v I.L.L.H.v.V.].}.`.F.t.0.7.y > @.V o + $.@.v ,.^ ~ G H l P C 1 J 9.0.m._._.t.q.N.a.T *.v.i.T.(.F._.=X=X=X%X}.].+XXXoX=X-X;X-X,X",
"j F.h.m.H.c.V.~.W.Y.u.9.=.3.9.v k F l =.b.O.%.1.J / _ @.e.%.r r y.&X{.{._.b.h.w.h.a.@.8.F.5.b.y.e.F.]..X}.}.}.`.+X~.E.'.~.OX$X*X",
"R C.h.w.q.7.F.Y.L.L.0.r : k 9.3.k T l 8 @.+.6.~ A [ y.b.a.c.=.@.y.C.~.}._.F.d.{ p...K %.I.I.H.c.3.3.J.}.}.].}.}.&X}. XJ.k.V.#X_.",
"p x.h.q.k.I.I.Y._.{.J.a < U 3.L.S.` Z H v j T L B Q J.h.2.b.2.R H | l.)._.m.4./ 4.k.$.*.I.I.H.E.F.F.W.~.|.|.}.|.R.R.'._.R.E.XX~.",
": k.b.u.I.$XY.H.W._.I.b.9.$.A._.I.>.M 2.F.g 7 , k =.*.6.y.0./ s a -.b.Y.I.k.w.G.F.I.K.3.I.I.w.,.h.y.c.W._._.W.R.J.'.|.}.`.!.R.+X",
": q.c.c.F.!.`.J.W.k.L._.4.~ <.9.>.w.3.b.L.@.z ) l L Q 0.I.!.t.3.3.3.K.}.L.3.I.b.{ h.u.=.J.b.q.,.v / y.`.=X_.J.T.H.W.I.H.V.v.R.+X",
"7 -.5.5.y.I.I.J.J.0.y.F.2.' { ,.$.4.S.u.y.@.^ =.b L / *.t.P.I.J.F._._.}.!.y.F.5.1.F.t.$.c.V.m.G.3.U d.=X=X_.F.b.y.G.(.A.V.Z.J.|.",
"q 2.2.3.w.S.t.9.0.y.I.I.J.F.P._.).(.).F.I.*.- : C M ^ / t -.y.F.y.F.I.$X].k.y.p.:.3.q./ d.H.F.c.V.T.|.=X}._.I.G.b.G.H.m.H.oXN.q.",
"# H i 6 t 8 q v @.*.*.*.@.@.+.@.@.@.-.X.@.w   . * r d a < q c *.=.;.0.0.=.v T T d 7 < $ ^ =.#.:.4.F.G.F.K.K.G.e.*.@.T ( $.,.T R ",
"c z O.l j e 9 q k v $ $ *.8.-.+.*.*.*.=.=.;.7.%.v j T #.X.-.=.9 5 -.*.@.c 9 7 u k k j v =.;.=.X.j v @.c y 5 4 z +.c z x X.c z X.",
"I.S.J.L.L.G.9.*.9.w.$.T =X;X:X1X1X1X;X=X,X<X<X:Xa.....m.A.k._.*.j b.!._.T.4.}  .v.m.J._.I.u.y.b.,.+.9.G B t r O.t.t.0.0.F.F.t.I.",
"_.I.G.G.G.J.F.y.=./ #.X.I.}.[.$X:X*X}.V.V.~.&X).! S Y @.K ~ ,.*.l w.I.^.Q.h.w.y.H.!./.Y.u.0.w.F.F.9.#.G W [ k k 1.F.b.0.y.G.L.I.",
"`.Y.Y.`.Y.U.n.n.b.1.l b |.$X&X}.~.T.J.B.B.T. X_.,.T A.I.z.:.t ) X.r._.OXM.1.k.b.b.`./.n.-.) #.3.n.u.3./ J l e l <.q.U.L.n.Y.!.`.",
"Y.U.`.`./.U.n.U./.u.v z  X'.'.OXm.1.b.K.I._.R.#.Y 8.m.'.).Q o t g y.^.T.J.b.v.T.!.^.^.J.h.U ) 5.G.I.y.[ W :.X.@.=.} c.J.G.Y.Y./.",
"/.U./.U.U./.U.U.G.0./ j k.D.R.C.m.,.t.H.k. XI.F N #.4.D.F.2.1 * 9 y.W.H.U.Q.f.~.|.~.M.w.n.n.9.;.G..Xh.<.P 2.=.@.2.} 5.u.n.J.J./.",
"Y.J.`./.Y.Y./.U.w.$.) k y.K.B.k.F.L.A.k.P.H.9.K F T 9.8.T ^ 8 + q b.v.w.c.T.M.~.c.4.2._ y.`.2.G :.3._ ~ ( 9.X.^ 3.1.3.0.J././.`.",
"U.U.U.U.Y.U.J.n.w.1.T l I.L.v.F.m.T.D.F.J.k.h.9.<.#.=.*.R L 8 6 j k.d.v.d.n.J.m.q.w.f. .c.J.Q P Q $.) ) ;.6.j v $.,.9.n.U.U.G.U.",
"U.S.G.J.Y.G.n.z.5.u.*.g _.|.H.H.V.T.H.K.b.q.,.@./ ] Y k $.M n X e F.{ a.m.].$XU.L.J.J.n.m._.J.y.3.5.0.=.9.%.j v ( ( =.y.S.u.u.S.",
"7.0.u.u.0.;.0.3.u.0.&.g L._.D.m.d.q.w.(.K.q.6.*.y.9.J Z a > ;   9 S.m.~.].<X<X%X+X'.Y.!.Y.W.W.`.L.9.*.=.9.0.p j ~ W p -.r.7.0.r.",
"e j e e w w 9 w j q e l =.%.k T T j R k j c X.+.&.d % $ # $ q 5 6 z =.;.=.9.7.3./ c O.@.O.b b X.b z g z x x 7 w p w 6 w w 6 w e ",
"=.@.*.6.9.0.9.9.=.=.-.@.l ^ -.@.c &.e.v 6 v %.&.-.*./ v &.S.u.r.t.0.y.t.9.0.=.=.j 4 =.9.6.&.t.9./ / K N ^ 8.S.t.9.$.:./ ) U / k ",
"e.9.0.y.G.G.L.t.;.*.@.$./ ^ ] ' s =.S.*.j @.9.:.U T ~ ! C 1.L.G.F.S.t.9.4.y.w.4.l z t.3./ ] [ 0.H.h.C m U O.6.0.e.t.3.w.d.z.J.&.",
"9.7.6.e.A.y.w.-.b @.=.&.v v [ ) l q.A.@.j r./ ( K T l i 2 0.u.0.0.u.9.A.D.0.q.5.T c y.) i u u t.[.L.1.$.b l p ^ ] / r.M.d.9.J.=.",
"9.9.9.6.e.S.F.t.y.q.-.3.@.q.d.4.:.w.A.@.j 9.V G 3.u.9.x k $.3.;.0.b.b.F.F.b.d.3.v q A.W B 1 l G.F.,.y.q.=.l.,.#.{ 3.F.W.m.,.c.*.",
"6.&.=.9.9.e.F.k.d.,.<.y.9.S.w.0.2.c.r.&.d k < G :.r.=.) a t #.0.w.h.y.b.P.}.T.8.T w =.$.` { q.(.3., F / <.m.q.] w.}. XI.H.,.v.+.",
">.<.#.e.t.A.K.k.f.4.<.9.4.~ [ m.v.F.9.*.j j 8 b ^ $.*.b k s ^ 3.b.F.c.J.I.).J.t./ w O.t.L.S.9.9.,.a l U T #.@.9.R.V.m.y.5.a.H.%.",
"4.l.9.t.F.D.G. X).L.F.S.,.] #.x.Z.L.w.3.j %.@.) ( =.7.-.=.;.9.y.G.Y.b.y.0.3.k.f.>.q @.$.e.` Z l y.F.7.) Y a #.}.k.H >.k.s.f.H.@.",
"s.d.9.t.y.t.e.0.e.>.,.0.=.,.4.a.d.F.L.6.e l l ` 3.=.#.;.7.3.;.0.y.y.t.0.9.=.$.{ <.e 3.*.b L t c S.(.u.w.q.9.F.+X] G ,.E.J.y.R.=.",
"s.T.k.D.A.q.s.<.=.>.] ! ' t.H.b.t.u.t.=.j @.T @.-.*.*.=.9.9.6.9.0.1.1.5.q.=.>.9.%.z 0.k V M 8 a :.y.F.6.*.' s.T.N.f.I.}.}.|.$X6.",
"#.t.t.0.e.=./ ^ 9.0.0.( :.t.t.e.e.6.=.%.h 6.=.=.*.%.9.D.F.t.e.0.G.y.,.] / 6.e.A.6.d T : t r # 3 ~ e.A.9.( C ] t.K.D.K.'.}._.|.=.",
"0 q h h d q q j q j d 6 9 q q h j h z h 5 d d x v j d v z d g @.+.c h h d h z @.j 6 d d 9 % & % d v x +.c q q d h d q h k h X.h ",
"t.=.9.9.9.=.-.@.k a y > i 7 j 8.%.9.e.9.y.9.e.9.y.0.0 # 7 % = 7 5 =.y.e.e.9.9.9.0.y.t.t.e.e.K.F.t.9.6.t.@.j 6.*.@.T +.T T @.#.8.",
"}.!.L.S.0./ $.-.e.$.c 8 W ) 6.y.] ,.u.u.I.I.y.9.;.0.*.y v l ; * = A.Y.F.y.t.0.0.t.y.9.;.u.L.I._.|._.G.e.%.X.H.h.s.>.0.b.T.!._.'.",
"[._._.F.$.$.9.9.b.9.^ r ^ ;.h.J.} L ~ ;.0.F.t.9.@.=.0.%.k a 2 @.z 9.I.S.u.I.F.0.;.=.9.9.F.Y.Y._.`.|.}.y.X.@.J.4.k.k.W.$X=X$X|.}.",
"_.J.G.F.,.` 2.k.n.y.9.> t Z K $.=.#.-.3.=.;.=.b p p ^ 8.=.T c p 5 7._.I.!.!.G.y.9.7.y.u.b.F.`..X}.!.$XF.v %.j.i.T.I._.].`.!.J.|.",
"`.J.b.A.w.4.>.m.b.w.-.> 1 Z J j $.t.0.9.9.=.;.l t u p -.9.#.Z t 7 x I.L.u.L.J.F.9.3.5.=.9.F.Y.J.J.~.}.F.k v s.{ v.J.I.|.|._.!.I.",
"_.I.G.t.w.w.y.b.y.#.z = D ! *.@.1.:.$.=.*.-.v v -.j z %.*.X.N G h N a.j.4.[.}.}.F.2...3.0.F.k.Q 2.Y./.Y.@.7 / 3.y.k.I.^.}.].I.I.",
"I.G.b.9.9.k.b.w.0.$.x * N / =.1.9.;.T l l @.@.6.*.1 < k a H T <.z u i.B.H.$X*X@X(.y.L.G.S.t.3.4.0.u.G.I.t.0 ,.w.s.4.I.}.`._.J.J.",
"_.|. XF.y.b.l.f.[ $.#.= 7 H :.=.=.=.v #.^ @.=.9.U m C H j t #.6.f 0 ' i.q.I. X(.A.e.t.] / 9.9.K.y.p.w.y.9.v b.y.5.h.L.[.&X}._._.",
":X=X=X_.k.b.N.f.I H +.9 7 ) R v *.-.v X.c @.=.e.8.+.v / *.%.%.6.h 7 i.oXq.A.(.k.f.>.#.3.6.( >.K.F.y.0.6.8.6 k ` ! k.H.m.|.=X}.}.",
"e.9.0.=.h 0 j h $ # q % X X & & # % % % % 6 9 9 0 h 0 4 5 9 5 d 5 & 7 R c x X.y < 7 y o.X.j X.6.X.X.x j d & + t a +.( T *.8.8.t.",
"@.+.j 9 z y w e h h j j l z l U T X.j j c v v -.@.9 x 9.@.x v @.+.+.+.+.6.6.*.%.X.X.d = a j # + $ 9 > q j p q z %.=.=.&.-.@.O.%.",
"A.A.9.c F.F.;.=.8.q.] ( 3.F.F.F.G.h.<.5.m.S.y.J._.v t.:X|. X[.I. X&X&X&X=X*X[.(.K.P.6.7 T R o * - <.[ { $.<.$.%.8.e.r.K.K.F.F.F.",
"t.9.=.j *.#./ ) T @./ Q ~ 9.y.t.,.K P K #.^ $.e.G.c -.K.K.K.K.j.j.H.D.P.L.K.D.t.,.8.A.*.h i i 5 +.k.-.~ T X.6.%.@.*.@.-.t.I.y.t.",
"G.t.*.d 7./ <.:.,.9.=.:.3.u.y.y.9.T Y $.*.<.>.#.R.+.+.D.j.k.D.l.B.D.P. XP.D.D.T , u 8.t.+.H +.= 5 ^ +.] >.*.,.8.$.,.#.6.e.F.G.F.",
"F.y.*.e y.1.>.y.F.G.9.&.3.y.u.t.0.9.0.Y.Y.0.q._ B.+.+.B.l.+.q.D.P.(.D. X XP. X<.- H <.D.A.#.P - 5 t <.l.D.k.t.8.,.w.w.D.F.t.P.P.",
"F.y.3.q =.1.2.w.A.F.k.:.$.0.I.9.:.4.3.b._.L.[ G <.z +.g.l.8.8.k.D.D.D. X X(.P.D.*.c +. X&X8.G * f U Y l.8.t.D.,.4._.G.y.I.I.G.F.",
"(.F.t.j @.#.9.=.*.0.J.w.w.~ / w.$.J L $.b.y.$.s H 5 Y q.t.P.D.D.8.,.D.D.D.D.P.(.q.B N +.+.I <.= 9 <.| <.+.=.D.D.D.P.P.L._.|.(.F.",
"K.y.9.j 0.*.;.3.0.y.0.y.y.#.1.y.=.:.5.y.0.4.T T +.5 H t.l.P.(.D.t.+.+.e.D.K.K.P.R n D F k : ,.0 4 *.4.l.,.q.t.B.H.D.K. X XI.R.(.",
"A.t.7.p #./ ( w.t.w.t.=.] $.9.=.a ) &.=.%.*./ Q Y h d +.<.l.D.D.D.t.t.e.K. X(.(.K.6.+.<.A.6.D.o.q t.8.y.t.8.| +.4.y.t.A.D.D.A.K.",
"e.9.6.7 y l H @.,./ -.9.9.9.=.#.^ l j a Y @.K C * = h H R +.+.8.8.8.e.8.D.P.P.K.P.(.A.A.A.D.[.+.h t.A.A.D.t.+.,.t.t.t.t.e.t.t.8.",
"=.@.X.q j c h d z c c b &.=.@.b =.=.k 8 8 q 9 u c 0 # H R H u 7 X.+.6.+.+.+.+.6.*.*.6.*.8.*.D.+.y x X.X.+.8.*.%.8.%.*.8.6.@.*.6."
};
