/* XPM */
static char *result[] = {
/* columns rows colors chars-per-pixel */
"64 64 19 1 ",
"  c #42423E",
". c #464643",
"X c #484745",
"o c #474845",
"O c #4A4A46",
"+ c #4D4D49",
"@ c #53524E",
"# c #565653",
"$ c #585755",
"% c #575854",
"& c #5B5A56",
"* c #5E5E5A",
"= c #605F5B",
"- c #5F605C",
"; c #63635E",
": c #666660",
"> c #686761",
", c #676861",
"< c #696962",
/* pixels */
" ...XXXXXX..Xooo.... ......O OOXXXX.XXX.. . .X. O O.XXXXo...... ",
".$$$$$$$$$#$$$*$&$$$#$@$&&&&##@@@###$&&$##$@$$$&==&$$$#$$$$$$&$.",
".$@OXXXXXX..XXXXXXX.    XX..        ..X..  ..X OO OO X. OOOXX@$.",
".$.@$$$$$###$$$*&$$$$###%$$$@@+@@@@+$$$$#@#$&&&&==$##$$#$$$$#o$.",
".$X$*-=-=$***========&&&**;&##%&&#%@*--*&&$&=*======&&&=*--*#X$X",
"o$o$*-===**$-====&*=*&$&*&&&%&&&&&&%$$&*&$&*=**=========---*#o$X",
"o$X$****=***-==-==&=$$&$$$&&&&&&&&;&&&&$&&&$*&*=====&$=&*=-&$X$X",
"o$o$****=**-=-======&&&*;*=$&&&&&&&&&&*;=&&&*=============*$$.$X",
"X&.#***=***===-*====*$&*---$$-$$&&&&&&**&*$*====**--=***-=**$.$X",
"o$X$*=*****==-*======**&-$$$-$-$&&**&$**&***=====**-==**$***$X$.",
"X*X@$$$$$$$$$$$$$$$$$$$$$$#+#####@#@@@$$#$###$$$$$$$$$#$$$$$@o*o",
"o*#X..XX......XX...X   X     .XX....  .... ...OXX.....XXXXXXX#-o",
"o**$$$&&&$$*$$$*$$*$$$$$$$$$$$$$#$$&$$$$$$$&$**$*$$=*$$&$$$$***X",
"+**===*======***=======--$$-----**:**&$*====***=*&*=====-*-****+",
"O***=&&==*=****=======----;-----=***---*=====***==&=*=**-*****-X",
"X=-*=&=&&==***=*=$=;==$--:-;;---:=*::-:-=$*===***==&-==$***-*--X",
"O-=-=*$*=======*=*-$$$==------::;;;;**--=--$$---&=*=====&$&===*O",
"+---***==;;::===**$$==;=----:--:;;;;----=;-$-$$-===:;:;;=======O",
"O-:-=;===-;:;======-=-;;::-------;-;-;;:-;-----;=&=::;=*===;=:=O",
"+--=-==$$-:;;=====---;;;-::::-:-;;;;;:;;;------;=*=;=:=$&===-=;+",
"+;=;-;;=--;;:;-:---;:::;::<::-:----::<:::<;<----:==:=::**:==:*-+",
"+;;;:;-=-;;;;--:;-;;;:;<:<::----;:--::<<:;:;:--;:=:==:=*-=:=-:-+",
"+;==:;-;-;;:;:;:;-;;;;;<:::<::-:;;:::::::;;;:---:::=>;;:=;;:=;-+",
"+;==;:::<:::::;;:-;;;;:::<<<--::::;-<<<:::;;-:-<;;:::::>::::-=:+",
"+;;=:::;:::::--;::::<<:::::::<<:::<:::::<<<<<<:-;--::<<:::<:-;;+",
"+=;;:::::::-;--;::::<<<<<:--<<<<<<<<-:::<<<<<<:<;---;;;::;;:--;+",
"+;--;;:--;;::::::<<<<<<<<::<<<<<<<<<<-:<<<<<<<:<:::::;;;;:;;;;-+",
"X--;:::::-::;:::;::<<<<<<<<<<<<,<<<<<<<<<<<<<<:-::::::--:;::;--X",
"+;--;<::::::::::;;<<<<<<<:<<<<,,:<<<<<<<<<<<<:;;::::::::<<<;;-;+",
"+:---<<<<<:<---;;;<<<<<<<<:<<<<,:<<<<<<<<<<<<<;-:-;;:<<<<<<---:+",
"+--;:<<<<<:::;-:;;;<<<<<<::<<<,<<<<<<-<<<<<:<:;;;-;;;:<<:<<:---+",
"+--;<:-:;-:;:::--;<<<:<::<::<<:<<:<<<:<:::::<<;-;;::;:;;:-<:---+",
" %@,,;;;*,,,,>>;;>,,;,,,,,,;;;;,-:::-<<<<>,;>,,;;>;,,,;;;;;,;&% ",
"O%&,,*;>,,*,;>;;;>,,;,,<,,;;;;;;--:---<:<<,>>,;;;,,,,;,;,;;;;&& ",
" **;*,>;,,,,,,>>;><<,<<<,,;;;;;&--:--:::<<<<,,>;;;;,>>>>;;;;;;* ",
"O;****;>,,,,,;>>>><,<<<<,;,;;;*;---::<:<<<<<>,,>,>,,>>>>,;;**;, ",
"O;;;;*;>,,;;>>>>,>,,,,<<,;,;>;;,:--:::::<<<<>>>>,,>;;;>>;;*;;*; ",
"O*&;;;**&&***;>*;>>;,<<,;*;,>;,*-::::---<<<>;>>;;>;******;*;;*, ",
"O%&;;**;;***&;>>,>,;<<<<,;,,>>>;-:::,:::<<>>;>>>,>;*******;;*&* ",
"@;&&;;&&**;*;>>>>>,,<<<<,;,;>;;;:-:::::<<<>>>>>>,>>;;*;****;*;;@",
"O,;***;;;;>>>>>;>>,>,,>>>;;<;;;;-:-:<;;<<<<<>>>>>>>>>>>>;;***;; ",
"O>;**;*;>;;>>>>>>>,>,,<>>><;<;>;:-::;;<<;<<<<>>>>>>>;;;>;;;*;;>@",
"O;;***;;>;*;;>>>>>>>>>>>>;;<>>;;-;::;;;;;<<<;>>>>>>>;=;;;;**;;; ",
"@,;;;;;;;;;;>>>>;;;>>>>>>;;;;>;;;:::;;<,<<<;;>;>;>>>;;;;;;;;;;>@",
" &;;;>*;>>>;;>,;*>,;>>>>>;;;;<;;;:::;->;;<>;>;>;>>;;;>;;=;*;;;* ",
" ;;;**;****>>;,>>,>;>>>;;;;;;;;;;;;:-:;;><<;;<<;>>;>;;;;*;*;;;, ",
"@>>*;**;*>;;;;>>;>;>;,>><<<;<;;;;:;;:;:,;>>;>;>;;>;;;;;===;;;;; ",
" **;;;*;*;;;>;;*>>>>>>>;;<;;;;;;;;;;-:,;;<>><>>>;;>;;;;;==;;;,< ",
" ;;**;*;;;;,,,;,;<<<<<;;<;;;;;;<;<;;;;;;;;<<<<<<>;>>;;;;==;=;;; ",
"@>;;;;*;;;;;;,,,<<;<;;;;;;;;;;;;;;;;;;;;;;;;;<;<>>>;;;;;;;==;;; ",
" *;;;**,*;;,,>;,;<<<;;;;;;;;;;;;;;;;;;;;;;;;;<<<,;>;;;,,**;;-;; ",
" **&**&;***;*;*;;;;;;*=***&&%%@%%%#&&-*;;;*;;;;;;;;;;;*,&&&*&-;+",
" ,* @   @  +  @@ @@ @    @ @++O+++++ @@   @  @@  @ @ @       ** ",
" * @*;%%*&;&;;;;;;***;;%%&%@%&%@%%&%@%%%;*;;;;**;;*&*;&%;%;%% - ",
" * &;;**;;-;;;;,<<;;;;;;;;;;;-*;;&--*;;;;;;<<<;;>,;;;;;*;;--&+* ",
" , ;******-;;;;,;<;;;;;;;;-&--;;;;;-*;;;;;=;;;;;>,;;;****;--& *+",
" * &*;*;**;;;,**=*&**&&;&&&&&&=&&-&&&&&*&;&*&;*;&;;;;--&*;;*% ; ",
" - %&&&-*%&;;*&*=&&&&;;&*;&&&;==--;&&*;&&;*&&&%;-&;;--&&*&&;% * ",
"+& %*&&&*&;;;*&&&&&*&;&;**=;;;==&&;;;*&*;&=&&&&&&&*;&;%-%*%&* % ",
" % @&&&;&*&&&&%&&$&&&&&&&&&;;;;;;;;;;**&&&&=&#&&&%&&&&&-&&&&% & ",
" % @#@@&%*%&@%%@@####&#$@&&@;&&;&&&&@&@%&##$#&@@@%%%%%%-%&@@+ & ",
" -@                              +                     O     @- ",
" %@@@@%-&&;&&;%%%&&$&$&&&=&#=&&=;&&&%&&#%%%&&&;&&*&%-%%-%%+@@%% ",
"                O .XO  O     @ + ++O O  XO +        O           "
};
