/* XPM */
static char *result[] = {
/* columns rows colors chars-per-pixel */
"64 64 77 1 ",
"  c #141515",
". c #13171A",
"X c #161A1D",
"o c #1B1C1D",
"O c #1B1E22",
"+ c #1C2225",
"@ c #1E2428",
"# c #242424",
"$ c #222629",
"% c #24292D",
"& c #2B2B2C",
"* c #262C31",
"= c #292D31",
"- c #2C3135",
"; c #2D3439",
": c #333434",
"> c #393630",
", c #31363B",
"< c #35393C",
"1 c #3D3D3D",
"2 c #3F403F",
"3 c #363C41",
"4 c #393F42",
"5 c #3B4146",
"6 c #3E4449",
"7 c #434343",
"8 c #464846",
"9 c #41464B",
"0 c #42494E",
"q c #4B4B4B",
"w c #504E4E",
"e c #4E504E",
"r c #51504E",
"t c #454C51",
"y c #484E53",
"u c #504E51",
"i c #4A5156",
"p c #4D545A",
"a c #4E595E",
"s c #535353",
"d c #595757",
"f c #595857",
"g c #50575C",
"h c #595558",
"j c #51595E",
"k c #5C5C5D",
"l c #545C63",
"z c #5E5F60",
"x c #566167",
"c c #5B6166",
"v c #566169",
"b c #5C646B",
"n c #5F686E",
"m c #5E6970",
"M c #636263",
"N c #63676B",
"B c #64696D",
"V c #6B6B6B",
"C c #646D71",
"Z c #696E72",
"A c #706E70",
"S c #657077",
"D c #6B7174",
"F c #6B757C",
"G c #747475",
"H c #797677",
"J c #747779",
"K c #77797B",
"L c #7C7C7C",
"P c #7A7F82",
"I c #7D8083",
"U c #838384",
"Y c #888687",
"T c #848688",
"R c #85898C",
"E c #8B8B8C",
"W c #929292",
/* pixels */
"BCZSSDDDDDDZZCCbxlppiyt00543,-*+BBSDSCSSDDZZZBBbxjppitt06653;;*+",
"BCSFJFFFFFFFFZCCmbxllappyt653;%OnZZFJPFFFFFFFDSCnbxxljppyt653;%O",
"bC0yyyyiiytttttt000t0t00t663,*@.nC0y0yyiiyi0tt0t000000t06663;=+X",
"cbtyipppppiiyyytittiypypppy63;OOcbtyppppppiiiiitiitpiiipait05;+o",
"lvyppgggpppipyyyyiiippjjaagy63$Ollypsgggappppipiiiipppjjggpy63@O",
"jlypggjgappy04,;:<60ppgjllgi04%+llypaajgapppt52,,19tpjjjlllyt3%O",
"payppgggpi5&o Xoo##&5ygallgpt6%Opayppgajapt<$#######1iajjllpt6%+",
"iptippii0-o oooO#Oo#&:tppgpy04%Opptiipppy2&&&:>>:&###&0aggpy04%+",
"ya0tyit6& ooo&:><&&###>ypppt64*Oip6iyyiy,&:18qqq81<&##&qgpyy04%O",
"ya6ttt0& XO&1qsdhq81&##1gyti63*Oip6ttyy<&>7dkMMMzrq7<##-sitt64*O",
"pi0t00,oXo>qkMVVMMsq2&##0l0664%Opa6t0t3$>8fBAHHGVMfq2>&#4jt043%O",
"ip6665Ooo:qMGKLGkMcd82>#=zi643*Opl6609&:5fAHUUULKVMfq7:#&zy043%@",
"pp565:oo&8MALTIVfskku71&#uz643%$al600,#>qMHUEEEYLGVzs81:&qz643@@",
"ap555%o#<fVKEUGVJhqdsq1:#3Z93;%Oal660=#1dALYEEEEUHVMdr8:&<Zt43%O",
"pa555#o#2kALHVVLEA7>qq71#:Zy33%$lx509$#1sVLUWEEULHAMhuq1::Fy3;*@",
"ga551#o&8kVVkMLEEUz::171&&Gg3;%%jx606#:1fBHUUYYULAVMhuq<:&Jp3;%@",
"pg664@O$2hkw8MHUUKVq##21&&Hg3,%%lv595##<wMAHLLLHGAMMssq1:&Kg3;*@",
"gg464*o#1uu2>27VHV<&##21&&Pp<,%Oll696&#:qMMAGGHAVMMfsrq1:&Kp3-*@",
"gp444:o#&8wwss:MVM&qq821&<Ty3,*$pl900&#&1szMMVVMMkfssq81&:Uy3;%@",
"gp469>oo#17quu&hzh&qw81>#sPt4,%$ll9y0,##:qrhzkMkffsrqq1:&qP0,-%@",
"pg6996$oo&2788#8u7#8871&&KZ04,%@lltyy6&#:18qrdsssrreq7:&&GS63-@+",
"gg69001ooo&272#####721:#gRl04,%@pvtyiy<##&17qwruurq87>&&qTl63;@O",
"ig000y0:oo#:121272111:#1TDy063@Olltygpy&O#&158qqq872:&&<PDy64-@O",
"plyiiii9:#oo&>1111<>##1IPlyy4,@Ogltppgp9:##&>:1111:&&&:KPlyt5;@O",
"iltigpppy4=#oo#&&&##&sTPlppy63@Opltpgggpt<&$#&:&&&&#$7IPlgpt6,@O",
"iltpgggpppyq1:&###>sKRSlggpy6,@Opayggggpiy01<&#$##&6VTDjpjpt5,@X",
"yltigggpgpggcNNZDPTUFzjpjjgi63@Xya0ypgppittpskcMVDIIDlpppapy6;+X",
"yptigggpygiyypgzlzlgppjgajpt6,+Xig0ipppptt0t00tgjjpityippgp05;OX",
"ti6ypppyytt00000yttyppppppi04,+Otp6tyypitt66666698660ttyiit03-+X",
"6664yyytt000900000ttttyiiit93=Oo4046tyi0t6665555666606000063;*XX",
"4333333;====*=***===*==----=%$OX33;;;;;**&%%%+OO++++O+OO+@@@+OX.",
"3;$******$*$$$*====*%===--=*%$XX;*%%%**%+$+++O+X+++XXXOOO+OOOX..",
"nBBZZZZZZZZZBnBbclljgpitt665,;*OmNSSDmCCDDSZZBBbcjppitt06653;;*+",
"bCCSFSFDSSSDDZSBBnbclxppii665;*OmCmPPPSPFFFFFDSSnbxxljppyt653;%O",
"bZtiygggggppppiiptipiiittt65,-@XmB0y0ytityiqtt00009000006663,*+X",
"xbtipgjjggppppppppgpggpppay05;+OlNtippppppipptptiitpiippppt05;+o",
"lxpppjlljjgppppipppgllljllgi63@Ollyppgggpgpppppiiippppjjggpy53@O",
"llypgjjjjppt62,;,<8ipfxclljpt5*Oalypggagaapi06<,,16qpajjlllyt4%O",
"alypjjaait5&o  oo#+&5ijjcclgt5@Ogaypplgapp0<########3ijlljlpt5%+",
"gayypppp6-X oOo#ooo+#<0ppljpt5@Opgyyypppi1&&->:>:&###&0pggpy04*O",
"la0iiii0& Xo##&>1:&&oo:ypggp05@Oip6yyyyy<&:12qq8811&##&0pppy64%+",
"cl00yi0= oo#:8ifssq1:Oo:ggpi0<+Oii6ttyy<&>7sMMVMzrq2>&#=ipy063%+",
"cv00t0<o o&2hzMMVMks7>#o1jit9<@Opa6t0t4$:qhVAHHGVMfr7:&#7lt063%+",
"cx9005#Xo&7dVAkMMsqfw2:o$fp06<%+al6699&=2dVLUUULHVMfq5>#&ky94,%@",
"cc690,o #1sVDIVUTHsMs82&o2k05,@+al6993#>qMHUEEEYLGVksq1:&qz64,%@",
"xx699%oo&qMVUYVWWUhMkq7:o&c05;%@al600-&1sALYEEEEUHVMfw7:&<Zt43%O",
"lv565#o#:szGLIVRWUuksq71#$ci5;%@ll606%&1dVLUWEEULHVMduq1:=Fy3;*@",
"jx665#o#1sMrrMMRWL71&&11&oky3;*$ll664$&1dBHUUYYUKHVMhwq1:&Jp3;%@",
"ll565#o#<sk79VJUEIBr&#11&ozs4;*@ll505$#<wMAHLLLHGAVkdsq<:&Jj3;%$",
"ll505#o&:qds12MLHHk&&181&Ocy,=%@ll696&#>qMMAGGHAVMzfsrq1&:Kp3-*@",
"ll609&o#:7uds:>kVh:&7q71##Zy3-%@pl909&#&1szMMVVMMkfsuq8,::Uy3-*+",
"al6t0<o#&>7qu8&&8&&8r81:o1G9,=*@ll00t,##:qrhzkMkffssuq1>#qP0,;%@",
"ll6yt6&O#&17qu7&##7qq71&okB63-@+lltyy9&#:18qrfssssree7:&&DD63-@+",
"lltyip<O##:128q1&1w811&o1Hg63=@Oavtyii,##&17qqrrwwq87::#qTl63;@O",
"llyyppt,###&422718111:#&BDt94;+Olltygiy&O#&128q8q871>&&1IDi63;@O",
"plypappt>###&><1111:&o&VPji06,@Ogltppgp9:##&:<1211:&&$:KIli05;@O",
"ilypgaaiy7::Oo#&&&$oo1DLlaa65;@.ylypgggpt<###&&::&&#$qIPlgpt6,@X",
"ylypgappyyy071&###&8VYDjpaay53@Opltpgggpiie2:&&##$&7BIDjpjpy6,@X",
"yl0ypgppyttylMNVDKPPZlpppppy53O.yl0ppgppittiakkcVAIIDlpppapy6,+X",
"ya0ypppyyy0990yipppp0yippap63;O.ip6ipppitt000tipjppittipgpi05-+X",
"tp6yyypyy000996666666yypypt63*OOtp4iypptt00066666660tttiiit63-+X",
"4966tyyt00644444556666660064;$OO4666yti006666555666666000064;*XX",
"333*;;;=*%*%%@@O+++O@@OO@@@@OOO.33;;;;;**&*%@@OO++++OO+O@@@@+OX.",
"-*%%*=*%$#$OOOOOOOOXOOOOOOOOOO..;*%%%**%@@@++OOOOOOXXOXOO+OOOX.."
};
