/* XPM */
static char *bad[] = {
/* columns rows colors chars-per-pixel */
"64 36 223 2 ",
"   c #0C0D0E",
".  c #110D0D",
"X  c #180D0D",
"o  c #12120F",
"O  c #060B11",
"+  c #0C0E11",
"@  c #0A0F19",
"#  c #150E12",
"$  c #071115",
"%  c #0C1114",
"&  c #0D141A",
"*  c #0D191D",
"=  c #07161E",
"-  c #121316",
";  c #1C1414",
":  c #121419",
">  c #1A1519",
",  c #131A1E",
"<  c #1A1C1D",
"1  c #0C110F",
"2  c #241C1C",
"3  c #281719",
"4  c #321914",
"5  c #25100E",
"6  c #19201F",
"7  c #22221E",
"8  c #32261E",
"9  c #0B1622",
"0  c #071923",
"q  c #0B1A23",
"w  c #0D1B29",
"e  c #121621",
"r  c #141B23",
"t  c #1B1E23",
"y  c #131D29",
"u  c #1B1F2B",
"i  c #121F30",
"p  c #261C26",
"a  c #152026",
"s  c #1C2223",
"d  c #15232C",
"f  c #1C232A",
"g  c #1F282D",
"h  c #1C2533",
"j  c #1E2934",
"k  c #1A2A3D",
"l  c #142739",
"z  c #232424",
"x  c #292425",
"c  c #23252B",
"v  c #252A2A",
"b  c #2A2B2A",
"n  c #282825",
"m  c #382827",
"M  c #2D312F",
"N  c #2B2D34",
"B  c #242D3B",
"V  c #242832",
"C  c #2D343B",
"Z  c #283134",
"A  c #333534",
"S  c #36363A",
"D  c #302F33",
"F  c #461B13",
"G  c #662C1C",
"H  c #463837",
"J  c #482F2E",
"K  c #743623",
"L  c #3B403F",
"P  c #47443F",
"I  c #1B2E44",
"U  c #193249",
"Y  c #193857",
"T  c #283748",
"R  c #3C3E45",
"E  c #333D47",
"W  c #2B3D54",
"Q  c #233852",
"!  c #303F54",
"~  c #413841",
"^  c #3D4246",
"/  c #38434B",
"(  c #384656",
")  c #264159",
"_  c #174367",
"`  c #284865",
"'  c #344D61",
"]  c #375878",
"[  c #2A5072",
"{  c #414244",
"}  c #44494C",
"|  c #5A4A45",
" . c #45525C",
".. c #4C5158",
"X. c #585658",
"o. c #494E54",
"O. c #64595A",
"+. c #765545",
"@. c #6D605F",
"#. c #48596A",
"$. c #565B64",
"%. c #455D73",
"&. c #545D71",
"*. c #615D62",
"=. c #5E6669",
"-. c #4E6378",
";. c #566678",
":. c #626365",
">. c #61666B",
",. c #6B6463",
"<. c #72696C",
"1. c #6F706F",
"2. c #666972",
"3. c #656D7B",
"4. c #686B77",
"5. c #6C777C",
"6. c #717278",
"7. c #79787B",
"8. c #906253",
"9. c #B46D51",
"0. c #8F796F",
"q. c #CB7B59",
"w. c #B78570",
"e. c #CC8A6E",
"r. c #2F6A9D",
"t. c #376A95",
"y. c #3274A6",
"u. c #4C6685",
"i. c #576E83",
"p. c #5A7386",
"a. c #4E7999",
"s. c #6F7785",
"d. c #767E87",
"f. c #6A7C93",
"g. c #4F7EA5",
"h. c #867E8A",
"j. c #3F83B7",
"k. c #7E8186",
"l. c #7A888E",
"z. c #728394",
"x. c #7A8B99",
"c. c #6E869C",
"v. c #4C83AA",
"b. c #4F8AB4",
"n. c #7791A4",
"m. c #6593BA",
"M. c #618CA8",
"N. c #3C83C0",
"B. c #458BC6",
"V. c #5698C8",
"C. c #549ED2",
"Z. c #4A92C8",
"A. c #6398C3",
"S. c #5BA5D6",
"D. c #6BADD9",
"F. c #70A9D0",
"G. c #6BB7E3",
"H. c #75B5E1",
"J. c #8E8C8C",
"K. c #848588",
"L. c #878B94",
"P. c #899397",
"I. c #969596",
"U. c #8F8F90",
"Y. c #A9A39E",
"T. c #8C9AA9",
"R. c #9698A6",
"E. c #A59BA1",
"W. c #95A2AA",
"Q. c #93A9B8",
"!. c #A6A6A7",
"~. c #B5B1AD",
"^. c #B9B2AE",
"/. c #A9ACB3",
"(. c #A7B0B8",
"). c #BFBEBC",
"_. c #B7B5B7",
"`. c #B3ACA6",
"'. c #CBBCB6",
"]. c #C1BDBA",
"[. c #C3B3AF",
"{. c #C5C1BD",
"}. c #8BB4CD",
"|. c #84B3D3",
" X c #97B6CB",
".X c #A5B8C5",
"XX c #B8BEC5",
"oX c #9DC5DB",
"OX c #A8C7D6",
"+X c #B5CAD7",
"@X c #90CAE8",
"#X c #AAD5EA",
"$X c #B0DAED",
"%X c #BEE1ED",
"&X c #ADE0F5",
"*X c #CBC8C6",
"=X c #C7C7C7",
"-X c #D5CBC4",
";X c #D5D1CD",
":X c #CED5D9",
">X c #D5D5D3",
",X c #DAD9D8",
"<X c #C7CDD4",
"1X c #E2DDD8",
"2X c #E7E2DE",
"3X c #C6DDE8",
"4X c #E0DCE1",
"5X c #C8E7F4",
"6X c #D4EAF5",
"7X c #D7E8F1",
"8X c #D2E8F0",
"9X c #E5E4E2",
"0X c #EBEAE9",
"qX c #E8E8E7",
"wX c #F2E9E3",
"eX c #F3EDEB",
"rX c #F5F1ED",
"tX c #EBFAFC",
"yX c #E8F5F8",
"uX c #F3F4F3",
"iX c #F4FBFB",
"pX c #FAFCFA",
"aX c #F8F8F6",
/* pixels */
"- - - ; - - o > : > - > : : : : : - > : : !.iX0XiXpXpXpX0X,X>X{.).*X,XiXaX9XqXM , , : : : : : : % - & - - : % : & - : - % : : % ",
"- ; - - - o o - : % o . - : : : o o - - > ,XeXrXpXpXpX*X*XqXrXwXwX2X~.P.~.qXuXk.6 : : & : & - : : : - - & # : - - - : : : : : : ",
"o < < ; - - % o - # - - # : : # - - : o A aX0XpXpXuXeXiX0XrXwXwXwX;X[.(.I.1.).,X< < & * @ : - % : - % - & : % - % % - % - % 1 - ",
"- - - o - o - - % - % - : # : : - - - < :.pXuXiXqXwXrXaX2X;XwXeX{.[.`.w.1.k.L :Xo.< & : : : - - - % - : - : : - - - - - - - - 1 ",
"< o - - o o % - - - - : : : : # - - - z J.iXiXuXeXrX>X;X=X~.;X{.O.P 7 ; 6 Z ^ _.P., : % : - : : % - & - - : % : % - % - - : - % ",
"- o ; < - - ; < - : # & # : # # o - < b ~.0XuXqX=X,.S ^ =.J.*XX.b - % > - 6 T 2.:X, * 1 1 - : : - : - - : % : - : : : : % : - : ",
"< o - - 6 - - - - - - # - % % - - - 7 v ,X=X*X>X*.M , t v k.>X{ * & C $.s * a Z 8XA 6 1 1 1 - - & % : & : - - - - - % : : % : % ",
"o < - - ; o , - ; - # : - # - + o - n v uX7.P._.L v 5.{ N J.uX7., - A L c , & r (.=., & % % : : - - : - - & - & - % - : : - : : ",
"- - < - - > > - : - - : - + - # o 7 n A iXL.k.I.D X.I.*.X.].aX).L n X.P p c A p /.d.t & %   % % , & : % - & : @ : : % : : % : : ",
"- o ; - - - - - - - + - # - - % < z s { iXK.7.U.X.*.,.<.E.9XpX[.X.*.[.[.I.0.X.{ K.!., , & + + - : : : : - - : # - % - : : - % - ",
"- 6 > - ; > : - # # & # # - . - 7 v z o.yXl.J.!.J.Y.{.>X;X1XpX2XJ.Z @.{.'.E.3.E =.:X, 6 & +   % % : : : + : : : - : : : - : : : ",
"; o - > - : - - - - - : + % o < n v z / :XW.P.*X1XwXeX9XJ.9XeX*X;.( 5 @.L.;.Q i u qXs r 9 %       - : : : @ + : , % : % % : % : ",
"< - - 6 > - - - : # : # - + - n n z z S R..Xs.0XrXrX9XI.R R *.! I 9 @ c } ` _ w @ <X^ r * & + +   % % : : & : : - : - & : - % : ",
"o o - - - - > : # : : : - # < n z z z n R..X&.4XeXwX).2.N $.E j h r & r B Y _ 0 O x.=.t e * + + 1   % % : & @ : % % - - : - : : ",
"o < > ; > : - - : : - : : ; n n z n p c R.R.2._.,X*XL.S ~ >.<.D 9 : & @ i U Y @ O ` 6., r = % + + + 1 - > : : + : & : - : : % o ",
"< - - - : : # - : # - : - 6 z z z n z x d.W.s.6.].!.6.t b p H H 3 X # @ 9 I l O O ` l.9 r 9 & + 1       & : & + : : % : % & - - ",
"o < - - - ; - : - # : : > n z z n z 7 z =.l.d.&.L.!.d.2 ; G 9.q.G +.8 , t r r & $ %.x.* r * & + 1   + 1 1 & & % % : : + : # : : ",
"o o - 6 - - ; - : # + : n z z z c z s s =.l.d.#.3.I.L.D 3 e.q.q.K 8.8 > O & e : q c.x.0 q q 9 % + + +   1 $ & : * : : & : @ : + ",
"- ; o - > - - - - : - > b 7 z n z z t z *.s.f.%.s.>.d.m 5 0.9.G F J 3       & t y z.d.$ q e * % + + + + 1 % % * & & # & + - - + ",
"- < - - - - % : - - - c z z z z s c s n =.&.f.'  X..4.S > D J 5 4 5 2 .     , r i n.5.% r q q & +   +   1 1 % & , & & # : : % : ",
"- ; : > - - - - ; : < n s n z z z s 6 v &.;.f.T .X5.6.C # . X ; 3 - > :     : d l V.-.+ q q q & %     +     % % e e & : : : @ - ",
"- - - ; - - : - - - v x z c s s z g 6 v X.i.i.I a.XXI.S ; # . V p > c p % O * l Y B.] % r q 0 * %   + + +   + % & e : & + : + : ",
"; - - - - - - - : - b z s s s z s g 6 v  .p.u.I ` 5X/.*.# 5 | H 3 x c < % $ w I [ j.[ + q q * & $ 1     + + + + % * e & + : : - ",
"< - > - : # - - - n 7 s s s c s s s 6 M  .;.u.l I  X+Xh.> m 0.w.8.m z % % % i U r.B.] @ q q 0 = $ + + + + +   + + & e e : & : + ",
"o o - - - - - # - n z s s c s z g z 6 M  .-.u.d d M.$XI.m 5 2 J 4 2 -   1 & k Y g.C.u.@ = q 0 0 & +   O   + + + + + : r : : : @ ",
"< o - - - : - - z z s z f s z u s 6 6 v  .%.-.d q [ @X X*.3 ; # o o 1 1 * h U Y Z.D.;.@ * w * 0 & +       +   + + & & r e & # - ",
"< - - - : : - - n z z s s s s s s z 6 s / p.u.f e U F.}.T.H 3 ; - + % * f k Q Y B.H. .+ = q q 0 @ $ +     +   # + % & e y : & - ",
"o ; - < > ; - 7 x s s s s s a s z s z 6 Z x.-.l 9 e p.$X}.3.J O.2 > e e V I Q U V.D.( & * q w 0 = & + O     + + + @ & * t e @ & ",
"o - > ; - - > n < s s s s s s s s s s s g z.%.T r : w p.%X.X..H N e e f T W Q Q |.}.( 9 r q 0 0 & @ +       + + + + % = e y : & ",
"< - - - - - x z s s s s s s s s s 6 6 z s z.%.T f f : r m.@X}.t.] Q B T ! ` ) u.5XOXT * w q 0 0 9 & +   +   + + + + & * 9 a & & ",
"o o - : > > b 6 2 s s s s s s s s 6 6 6 r T.-.W h f * e v.G.S.S.V.A.v.t.r.v.t.Q.6X+Xj @ & 0 0 q 9 & % + + +   + + + % & * , a % ",
"o - , : - n s 6 s s s s s s a 6 s 6 6 , , W.i.) j V f B g.&X&XH.D.D.Z.C.C.y.b.oX6X.Xa % $ * q 0 0 = & +     + + + & % & = q a e ",
"- o - - ; n < 6 s < 6 s s 6 6 t s t < < t P.n.W j c r , t.#X5X%X#X@XG.G.S.r.b.%X6X+Xu @ + = 0 0 0 * - + + + + +   + % & = 9 e y ",
"o - - - z 7 6 6 6 s s s s s s s s < < t t 6..X! j V f c ' &XyXiXuXtX%X@XD.r.v.6X6X+Xu : - % * w 0 q % + + + + + + + % % & * e y ",
"- - - ; z < 6 6 s 6 s 6 < s s 6 s < < t r $.3XE j j c * ( 5XtXpXuXiXtX5XA.r.m.tX8X.Xr : % % 9 w 0 0 & % % + + + + + % % % & q w ",
"- o - 7 7 6 , 6 a 6 s < s s s s t < < < * E 7XB h h h s ( $XtXpXiXtXtX6Xm.a.}.tX7X Xr : & @ * 0 0 w = + + + % + + % % % % & * 0 "
};
